<svg width="498" height="286" viewBox="0 0 498 286" fill="none" xmlns="http://www.w3.org/2000/svg">
<path opacity="0.1" d="M46.1216 33.1293C62.8575 19.4185 79.5313 5.75857 101.745 2.37818C116.227 0.174501 131.529 0.608728 146.138 1.12131C153.108 1.36587 159.843 2.6664 166.583 3.96789C171.794 4.97413 177.008 5.98095 182.336 6.50073C192.264 7.46932 202.929 7.96963 212.903 7.96963C218.615 7.96963 224.127 9.12002 229.645 10.2719C231.868 10.7359 234.092 11.2001 236.331 11.5894C244.82 13.0658 253.284 12.9739 261.853 12.8809C263.947 12.8582 266.047 12.8354 268.155 12.8354C275.98 12.8354 284.035 9.69177 291.799 6.66203C295.358 5.27314 298.856 3.90816 302.242 2.88093C303.19 2.59336 304.138 2.24283 305.092 1.89047C307.412 1.03371 309.76 0.166089 312.196 0.166089C315.024 0.166089 317.85 0.124432 320.671 0.0828431C334.094 -0.115022 347.414 -0.311364 360.309 3.98698C365.236 5.6291 370.163 7.17712 375.084 8.72269C381.778 10.8256 388.458 12.9239 395.099 15.2486C404.436 18.5163 416.277 23.8386 423.756 30.4316C438.086 43.0649 446.362 61.4075 449.798 79.8015C451.538 89.1137 452.451 98.7846 452.513 108.257C452.549 113.718 452.075 119.088 451.601 124.453C451.514 125.447 451.426 126.44 451.342 127.434C464.235 131.498 479.441 131.177 491.487 125.824C491.628 125.761 491.782 125.688 491.941 125.613C492.868 125.174 493.953 124.662 493.4 125.711C492.84 126.776 492.042 127.698 491.243 128.622C490.611 129.353 489.978 130.085 489.46 130.889C486.347 135.733 483.208 139.02 477.697 140.937C475.583 141.672 473.406 142.245 471.229 142.819C468.57 143.52 465.912 144.22 463.372 145.214C462.356 145.612 461.165 145.827 459.972 146.043C458.458 146.318 456.94 146.592 455.773 147.241C454.498 147.949 453.171 147.915 451.838 147.88C451.318 147.866 450.797 147.853 450.278 147.883C449.362 160.447 447.07 172.743 443.665 184.977C439.73 199.112 429.891 208.066 417.974 216.097C411.109 220.724 403.757 223.926 396.306 227.171C393.648 228.329 390.978 229.492 388.312 230.727L387.783 230.972C371.493 238.521 355.506 245.93 338.791 252.546C334.173 254.374 329.551 256.228 324.923 258.085C306.676 265.406 288.327 272.767 269.663 278.739C251.247 284.633 232.134 285.969 212.903 284.722C202.15 284.025 191.422 282.338 180.7 280.652C173.284 279.486 165.871 278.32 158.455 277.482C155.939 277.198 153.404 276.929 150.858 276.658C138.916 275.389 126.742 274.096 115.219 271.148C102.602 267.92 90.4485 264.3 78.2166 259.735C75.7328 258.809 73.1792 257.973 70.616 257.135C64.7113 255.203 58.7551 253.254 53.4814 250.133C52.0265 249.272 50.4662 248.419 48.8667 247.544C43.0341 244.354 36.6806 240.88 33.0195 235.704C29.1732 230.266 25.068 225.22 20.853 220.069C12.683 210.083 6.22552 197.235 4.76499 184.273C3.87799 176.401 4.11542 168.26 4.35053 160.198C4.45745 156.532 4.56389 152.882 4.56389 149.281C4.56389 140.125 5.88456 131.75 7.25478 123.062C7.63677 120.639 8.02263 118.193 8.38479 115.698C8.78775 112.922 8.94219 110.088 9.09682 107.252C9.37607 102.129 9.65592 96.9946 11.4013 92.1692C12.2065 89.943 12.7529 87.6502 13.2984 85.3607C14.181 81.6572 15.0615 77.9624 17.0321 74.573C18.6664 71.7619 20.5146 69.0912 22.361 66.4231C24.6451 63.1225 26.9264 59.826 28.7964 56.2729C29.6367 54.6762 31.1569 53.1087 32.7254 51.4913C35.3201 48.8157 38.047 46.0039 38.047 42.6987L44.3816 34.5541C44.9618 34.0794 45.5417 33.6043 46.1216 33.1293Z" fill="#484D6D"/>
<path fill-rule="evenodd" clip-rule="evenodd" d="M306.428 7.84625C303.216 8.80287 299.961 9.7719 296.725 10.3942C292.599 11.1878 288.67 12.5691 284.642 13.9855C284.025 14.2026 283.405 14.4206 282.782 14.6374C281.005 15.2554 279.129 15.6117 277.347 15.95C277.245 15.9694 277.143 15.9888 277.042 16.0081C275.139 16.3704 273.353 16.7288 271.731 17.3638C271.093 17.6132 270.487 17.8701 269.892 18.1221C267.727 19.0391 265.716 19.8911 262.917 20.0842C259.39 20.3274 255.984 21.1184 252.489 21.9301C252.143 22.0105 251.796 22.0911 251.448 22.1714C247.616 23.0552 243.671 23.8963 239.518 23.8963C237.705 23.8963 235.859 23.9486 233.983 24.0026L233.893 24.0052C232.05 24.0582 230.18 24.112 228.312 24.1166C224.518 24.1258 220.685 23.9328 216.996 23.1014C215.079 22.6693 213.178 22.4672 211.217 22.2586C210.95 22.2302 210.682 22.2017 210.413 22.1725C208.187 21.9311 205.892 21.642 203.572 20.943C198.377 19.3784 192.888 18.0909 187.554 16.9391C185.935 16.5898 184.334 16.226 182.741 15.8643C177.474 14.6679 172.302 13.4933 166.942 12.9324C155.391 11.7235 144.209 10.7975 132.63 10.7975C128.45 10.7975 124.064 10.4118 119.675 10.0257L119.254 9.98866C114.706 9.58907 110.154 9.20158 105.724 9.22874C96.8885 9.28292 88.7035 10.9872 82.2642 17.4005L79.217 21.2095C79.0273 21.4467 78.74 21.5848 78.4362 21.5848C77.4809 21.5848 76.6795 22.0177 75.7326 22.6984C75.5609 22.8218 75.3802 22.9575 75.191 23.0995C74.414 23.6828 73.4936 24.3738 72.4597 24.7714C71.7452 25.0463 70.9967 25.3197 70.2367 25.5973C67.8226 26.479 65.2926 27.4032 63.366 28.55C61.5004 29.6605 60.2062 31.2711 58.9284 33.1254C58.6713 33.4984 58.4132 33.8844 58.1501 34.278C57.1361 35.7944 56.0483 37.4214 54.6655 38.8348C54.1695 39.3419 53.6753 39.8431 53.1846 40.3408C48.8934 44.693 44.8695 48.7741 42.1743 54.1644C38.3681 61.7768 35.45 69.2988 33.3448 77.5093C30.898 87.0516 27.3704 94.1283 21.9091 102.384C10.1951 120.091 -0.255293 141.138 3.94904 162.51C4.37767 164.689 4.82531 166.876 5.27414 169.069C6.26158 173.894 7.25475 178.746 8.06369 183.6C8.43353 185.819 8.61128 188.008 8.7844 190.141C8.82207 190.605 8.85953 191.066 8.8987 191.525C9.11962 194.11 9.39642 196.632 10.0572 199.18C12.0278 206.781 13.8022 212.87 20.1581 217.41C24.7271 220.673 29.4049 223.673 34.3422 226.286C43.5865 231.18 51.4544 237.775 59.2867 244.34C60.1897 245.097 61.0923 245.853 61.9965 246.607C64.2184 248.458 67.0132 249.856 69.9964 251.159C70.8682 251.54 71.7615 251.915 72.6586 252.292C74.7809 253.183 76.9246 254.083 78.8566 255.093C89.0071 260.399 100.895 266.23 112.08 267.658C116.932 268.277 121.691 269.175 126.448 270.073C127.726 270.314 129.005 270.556 130.285 270.791C132.503 271.2 134.794 271.411 137.139 271.628C137.433 271.655 137.728 271.682 138.023 271.71C140.655 271.956 143.339 272.24 145.918 272.857C157.779 275.693 168.769 277.866 180.898 279.214C190.088 280.235 199.384 280.145 208.706 280.056C209.999 280.043 211.292 280.031 212.585 280.021C235.013 279.856 256.493 274.764 278.184 269.264C287.907 266.799 297.856 263.355 306.631 258.569C314.663 254.188 323.597 251.296 332.238 248.499C333.67 248.036 335.094 247.575 336.505 247.11C355.242 240.938 374.095 233.845 391.573 224.658C397.286 221.656 402.803 217.371 406.269 212.069C407.457 210.252 408.804 208.698 410.13 207.209C410.273 207.048 410.415 206.888 410.558 206.729C411.745 205.399 412.899 204.105 413.961 202.651C415.6 200.409 417.413 198.26 419.202 196.14C419.735 195.508 420.266 194.879 420.789 194.251C423.086 191.494 425.264 188.727 427.001 185.706C428.529 183.047 430.094 180.429 431.654 177.823L431.875 177.454C433.362 174.969 434.843 172.494 436.291 169.993C436.963 168.834 437.616 167.624 438.283 166.388L438.467 166.048C439.196 164.698 439.945 163.322 440.739 161.982C442.326 159.306 444.13 156.718 446.424 154.679C447.952 153.32 450.042 153.193 451.787 153.174C452.107 153.171 452.413 153.172 452.71 153.172C453.286 153.173 453.829 153.174 454.371 153.147C455.177 153.105 455.848 153.003 456.391 152.785C457.652 152.281 458.987 151.965 460.269 151.685C460.478 151.64 460.685 151.595 460.891 151.551C461.971 151.318 463.004 151.096 464.002 150.789C472.631 148.134 478.423 143.174 484.054 135.934C484.957 134.773 485.869 133.453 486.832 132.058C487.449 131.164 488.086 130.241 488.756 129.309C489.89 127.732 491.098 126.16 492.385 124.81C491.774 124.963 491.169 125.119 490.568 125.274C486.869 126.227 483.301 127.146 479.15 127.146C478.494 127.146 477.095 127.307 475.204 127.524C474.95 127.553 474.686 127.583 474.414 127.614C472.173 127.87 469.458 128.165 466.807 128.313C464.17 128.461 461.53 128.468 459.458 128.122C458.424 127.95 457.463 127.68 456.699 127.248C455.922 126.81 455.269 126.153 455.058 125.207C454.805 124.067 455.045 122.813 455.272 121.765C455.309 121.593 455.346 121.426 455.382 121.263C455.587 120.341 455.762 119.548 455.762 118.826V108.253C455.762 106.931 455.775 105.618 455.787 104.31C455.812 101.714 455.837 99.1371 455.763 96.5525C455.68 93.6636 454.881 90.4315 453.841 87.1565C453.322 85.5253 452.75 83.9008 452.185 82.3164C452.118 82.1264 452.05 81.9368 451.983 81.7478C451.49 80.3672 451.009 79.0182 450.59 77.7448C447.996 69.864 446.696 61.8418 446.516 53.5677C446.469 51.3872 446.174 48.5243 445.568 45.7614C444.957 42.976 444.053 40.4019 442.85 38.7168C439.881 34.561 434.715 31.5722 429.005 29.2228C425.08 27.6077 421.019 26.3384 417.345 25.1901C415.669 24.6662 414.074 24.1674 412.608 23.6725C409.658 22.6761 406.499 21.2534 403.308 19.8161C401.734 19.1072 400.153 18.3947 398.584 17.7281C393.761 15.6784 388.982 14.02 384.473 13.8791C375.123 13.5869 366.894 11.562 358.05 8.78236C346.193 5.05584 335.122 4.6333 322.692 4.6333C318.382 4.6333 314.108 5.63055 309.779 6.86289C308.669 7.17893 307.551 7.51183 306.428 7.84625ZM309.232 4.9393C313.597 3.69663 318.091 2.6333 322.692 2.6333C335.154 2.6333 346.484 3.05085 358.649 6.87437C367.42 9.63093 375.45 11.5961 384.536 11.88C389.441 12.0334 394.512 13.8246 399.366 15.8875C401.03 16.5944 402.66 17.329 404.255 18.0481C407.388 19.4596 410.387 20.8115 413.248 21.7777C414.634 22.2458 416.183 22.7301 417.832 23.2456C421.543 24.406 425.76 25.7247 429.766 27.3733C435.559 29.7568 441.169 32.9224 444.477 37.5543C445.917 39.5696 446.891 42.4591 447.521 45.333C448.156 48.2295 448.466 51.2216 448.516 53.5243C448.692 61.6128 449.962 69.4379 452.49 77.1195C452.9 78.3673 453.372 79.6906 453.866 81.0739L454.069 81.6453C454.634 83.2306 455.217 84.8837 455.747 86.5508C456.802 89.8727 457.671 93.3202 457.762 96.4954C457.837 99.1164 457.812 101.761 457.787 104.381C457.775 105.68 457.762 106.973 457.762 108.253V118.826C457.762 119.788 457.529 120.833 457.326 121.74C457.291 121.894 457.258 122.043 457.226 122.188C456.99 123.281 456.866 124.121 457.011 124.774C457.059 124.992 457.219 125.245 457.682 125.507C458.157 125.775 458.86 125.995 459.787 126.15C461.633 126.457 464.093 126.462 466.695 126.316C469.284 126.172 471.949 125.882 474.188 125.627C474.465 125.595 474.736 125.564 475.002 125.534C476.836 125.323 478.369 125.146 479.15 125.146C483.029 125.146 486.333 124.297 490.038 123.344C490.653 123.186 491.279 123.025 491.921 122.865C492.064 122.829 492.382 122.716 492.838 122.553L493.021 122.488C493.529 122.307 494.139 122.093 494.642 121.958C494.886 121.892 495.158 121.829 495.402 121.809C495.519 121.799 495.697 121.793 495.887 121.835C496.061 121.873 496.459 122.004 496.667 122.44C496.871 122.866 496.734 123.253 496.661 123.412C496.579 123.591 496.464 123.739 496.369 123.848C496.172 124.074 495.886 124.329 495.528 124.616C493.745 126.042 492.042 128.165 490.38 130.476C489.763 131.334 489.145 132.228 488.534 133.113C487.539 134.553 486.562 135.968 485.633 137.162C479.842 144.607 473.735 149.887 464.59 152.7C463.501 153.036 462.37 153.279 461.291 153.51C461.091 153.554 460.892 153.596 460.695 153.639C459.419 153.918 458.227 154.205 457.134 154.642C456.289 154.98 455.361 155.099 454.473 155.144C453.88 155.174 453.243 155.173 452.635 155.172C452.35 155.172 452.072 155.171 451.808 155.174C450.019 155.193 448.661 155.366 447.752 156.173C445.685 158.011 444.007 160.394 442.46 163.002C441.688 164.304 440.956 165.648 440.227 166.998L440.039 167.345C439.375 168.576 438.708 169.81 438.022 170.995C436.566 173.51 435.078 175.997 433.592 178.479L433.37 178.85C431.809 181.457 430.253 184.062 428.735 186.703C426.907 189.881 424.637 192.757 422.326 195.531C421.784 196.181 421.241 196.825 420.701 197.466C418.921 199.575 417.169 201.651 415.576 203.831C414.453 205.369 413.231 206.737 412.051 208.059C411.908 208.219 411.766 208.379 411.624 208.538C410.303 210.023 409.043 211.481 407.943 213.163C404.232 218.839 398.406 223.326 392.504 226.429C374.885 235.69 355.913 242.823 337.131 249.01C335.701 249.481 334.265 249.946 332.826 250.412C324.176 253.213 315.442 256.041 307.589 260.324C298.622 265.216 288.502 268.712 278.675 271.203C256.994 276.7 235.298 281.854 212.6 282.021C211.313 282.031 210.023 282.043 208.731 282.056C199.421 282.146 189.996 282.237 180.677 281.202C168.439 279.842 157.364 277.65 145.453 274.802C143.026 274.222 140.47 273.948 137.837 273.701C137.544 273.674 137.249 273.647 136.954 273.619C134.621 273.404 132.235 273.184 129.923 272.758C128.623 272.519 127.332 272.275 126.045 272.032C121.297 271.137 116.614 270.253 111.827 269.642C100.236 268.162 88.0462 262.153 77.9301 256.865C76.0758 255.896 74.0594 255.05 71.9743 254.175C71.0586 253.79 70.1297 253.4 69.1955 252.992C66.1829 251.675 63.1677 250.186 60.7161 248.143C59.8102 247.388 58.9086 246.633 58.009 245.879C50.1542 239.297 42.452 232.843 33.4064 228.054C28.372 225.389 23.6177 222.339 18.9956 219.037C11.9874 214.031 10.0836 207.251 8.12122 199.682C7.41597 196.962 7.12861 194.301 6.90597 191.695C6.86527 191.219 6.82678 190.745 6.78845 190.274C6.6154 188.145 6.44558 186.057 6.0909 183.929C5.28809 179.112 4.30733 174.32 3.32366 169.514C2.87299 167.313 2.42171 165.108 1.98665 162.896C-2.3841 140.678 8.5001 119.028 20.2411 101.28C25.6115 93.1622 29.0288 86.2891 31.4074 77.0126C33.552 68.6486 36.5236 60.9936 40.3855 53.27C43.2314 47.5782 47.4863 43.2667 51.7509 38.9453C52.2465 38.4432 52.7422 37.9409 53.2359 37.4363C54.4759 36.1686 55.4312 34.7419 56.4326 33.2461C56.7097 32.8322 56.9904 32.413 57.2816 31.9905C58.5948 30.0848 60.0902 28.1724 62.343 26.8314C64.448 25.5784 67.2421 24.559 69.6881 23.6666C70.4121 23.4024 71.1057 23.1494 71.7418 22.9047C72.4904 22.6168 73.1215 22.1456 73.8705 21.5863C74.09 21.4225 74.3195 21.2511 74.5652 21.0745C75.4724 20.4223 76.5596 19.7452 77.9359 19.6093L80.7374 16.1075C80.7604 16.0787 80.7851 16.0512 80.8111 16.0251C87.7955 9.04074 96.6286 7.28447 105.712 7.22878C110.25 7.20096 114.893 7.59782 119.429 7.99634L119.812 8.03007C124.231 8.41866 128.539 8.79747 132.63 8.79747C144.313 8.79747 155.575 9.73191 167.15 10.9432C172.641 11.5178 177.97 12.7285 183.26 13.9305C184.834 14.2881 186.405 14.645 187.976 14.9842C193.329 16.1399 198.878 17.4405 204.148 19.028C206.277 19.6692 208.412 19.9437 210.628 20.1842C210.892 20.2128 211.157 20.2409 211.424 20.2692C213.375 20.4763 215.397 20.6909 217.436 21.1503C220.911 21.9335 224.571 22.1257 228.307 22.1166C230.148 22.1121 231.996 22.0589 233.846 22.0057L233.925 22.0034C235.797 21.9496 237.672 21.8963 239.518 21.8963C243.419 21.8963 247.166 21.1066 250.999 20.2225C251.349 20.1417 251.7 20.0601 252.052 19.9783C255.522 19.1716 259.084 18.3438 262.779 18.0889C265.216 17.9208 266.861 17.2267 268.963 16.3392C269.59 16.0742 270.259 15.7919 271.002 15.5013C272.822 14.789 274.785 14.4019 276.667 14.0434L276.93 13.9934C278.749 13.6476 280.492 13.3164 282.125 12.7484C282.737 12.5354 283.35 12.3197 283.965 12.1035C287.983 10.6899 292.064 9.25406 296.348 8.43021C299.478 7.8283 302.591 6.90134 305.774 5.95358C306.916 5.61348 308.067 5.2707 309.232 4.9393Z" fill="#484D6D"/>
<path fill-rule="evenodd" clip-rule="evenodd" d="M308.958 3.97751C313.342 2.72964 317.946 1.6333 322.692 1.6333C335.17 1.6333 346.629 2.04836 358.949 5.92038C367.683 8.66542 375.613 10.6007 384.567 10.8805C389.671 11.04 394.888 12.8976 399.757 14.9671C401.432 15.6787 403.071 16.4173 404.664 17.1354L404.666 17.1364C407.809 18.5528 410.762 19.8827 413.568 20.8303C414.941 21.294 416.479 21.7748 418.13 22.2912L418.148 22.2967C421.849 23.4539 426.1 24.7833 430.147 26.4485C435.981 28.8491 441.812 32.1032 445.291 36.9731C446.848 39.1534 447.858 42.2005 448.498 45.1188C449.148 48.082 449.464 51.1388 449.516 53.5025C449.689 61.4983 450.944 69.2249 453.44 76.8069C453.846 78.0408 454.313 79.352 454.808 80.738L455.011 81.3095C455.576 82.8952 456.164 84.5628 456.7 86.248C457.763 89.5933 458.667 93.1486 458.762 96.4669C458.837 99.1073 458.812 101.769 458.787 104.383L458.787 104.391C458.775 105.69 458.762 106.978 458.762 108.253V118.826C458.762 119.9 458.508 121.034 458.312 121.912L458.301 121.959L458.299 121.969C458.266 122.119 458.234 122.262 458.204 122.4C457.973 123.467 457.903 124.09 457.976 124.5C458.003 124.525 458.063 124.573 458.174 124.636C458.505 124.823 459.078 125.018 459.951 125.163C461.685 125.452 464.054 125.463 466.64 125.318C469.197 125.175 471.837 124.889 474.074 124.633C474.351 124.602 474.622 124.571 474.887 124.54L474.986 124.529C476.743 124.327 478.311 124.146 479.15 124.146C482.884 124.146 486.071 123.332 489.789 122.376C490.403 122.218 491.033 122.056 491.678 121.894L491.68 121.894L491.684 121.893L491.701 121.888C491.715 121.884 491.733 121.878 491.756 121.871C491.803 121.856 491.863 121.836 491.937 121.811C492.085 121.76 492.272 121.693 492.503 121.611L492.685 121.546C493.189 121.367 493.835 121.14 494.381 120.992C494.64 120.922 494.983 120.84 495.32 120.812C495.479 120.799 495.771 120.785 496.103 120.858C496.395 120.923 497.164 121.162 497.57 122.009C497.964 122.835 497.689 123.57 497.57 123.828C497.431 124.133 497.245 124.365 497.123 124.505C496.866 124.799 496.524 125.099 496.153 125.396C494.484 126.731 492.848 128.758 491.192 131.06C490.582 131.909 489.969 132.796 489.357 133.682L489.348 133.695C488.36 135.124 487.369 136.559 486.422 137.776C480.552 145.324 474.287 150.763 464.884 153.656C463.754 154.004 462.587 154.255 461.521 154.484L461.502 154.488C461.376 154.515 461.251 154.542 461.128 154.569C461.055 154.584 460.981 154.6 460.909 154.616C459.635 154.894 458.515 155.167 457.505 155.571C456.509 155.969 455.454 156.095 454.524 156.143C453.905 156.174 453.247 156.173 452.648 156.172L452.633 156.172C452.348 156.172 452.076 156.171 451.819 156.174C450.005 156.193 449.014 156.39 448.417 156.921C446.464 158.657 444.847 160.938 443.32 163.512C442.559 164.795 441.836 166.123 441.106 167.474L440.919 167.82C440.256 169.048 439.583 170.296 438.888 171.496C437.428 174.017 435.937 176.509 434.452 178.989L434.45 178.993L434.228 179.363C432.667 181.971 431.115 184.569 429.602 187.201C427.729 190.458 425.412 193.389 423.094 196.171C422.55 196.824 422.005 197.47 421.465 198.11C419.681 200.225 417.953 202.274 416.384 204.421C415.231 205.999 413.982 207.398 412.81 208.711L412.797 208.725C412.654 208.885 412.512 209.044 412.371 209.203C411.052 210.686 409.836 212.096 408.78 213.71C404.947 219.574 398.966 224.161 392.969 227.314C375.28 236.612 356.248 243.765 337.443 249.96C336.011 250.431 334.572 250.897 333.134 251.363C324.467 254.169 315.825 256.971 308.068 261.202C299.004 266.146 288.799 269.668 278.921 272.172C257.244 277.668 235.441 282.853 212.607 283.021C211.322 283.031 210.033 283.043 208.741 283.056L208.711 283.056C199.421 283.146 189.946 283.238 180.566 282.196C168.275 280.83 157.157 278.629 145.22 275.775C142.87 275.213 140.377 274.944 137.744 274.697C137.451 274.67 137.157 274.642 136.862 274.615L136.838 274.613C134.521 274.399 132.098 274.176 129.742 273.742C128.44 273.502 127.146 273.258 125.86 273.015C121.107 272.118 116.453 271.241 111.701 270.634C99.9063 269.128 87.5659 263.031 77.4669 257.752C75.6567 256.805 73.6805 255.975 71.5873 255.097L71.5828 255.095C70.6696 254.711 69.7355 254.319 68.795 253.908C65.7676 252.585 62.6424 251.05 60.0759 248.911C59.1688 248.156 58.2662 247.399 57.3668 246.645C49.4987 240.052 41.8754 233.669 32.9386 228.938C27.8556 226.247 23.0631 223.172 18.4144 219.851C11.0801 214.612 9.11158 207.487 7.15322 199.933C6.42575 197.127 6.13311 194.396 5.9096 191.78C5.86874 191.302 5.83011 190.827 5.79184 190.356L5.79174 190.355C5.61818 188.22 5.45117 186.173 5.10451 184.093C4.30522 179.297 3.32826 174.524 2.34397 169.715L2.34335 169.712C1.89301 167.512 1.44117 165.304 1.00546 163.089C-3.4485 140.448 7.65257 118.497 19.4071 100.729C24.732 92.6792 28.0942 85.9079 30.4388 76.7642C32.603 68.3235 35.6014 60.6021 39.491 52.8228C42.4081 46.9886 46.7578 42.5812 50.9917 38.2911L51.0392 38.2429C51.535 37.7405 52.0292 37.2397 52.521 36.737C53.6859 35.5462 54.592 34.1977 55.6016 32.6898L55.6036 32.6868C55.8796 32.2747 56.1632 31.851 56.4582 31.423C57.7893 29.4914 59.3853 27.4282 61.8315 25.9721C64.0174 24.671 66.8822 23.6258 69.2925 22.7465L69.3454 22.7272C70.0713 22.4623 70.7563 22.2124 71.3828 21.9714C71.9798 21.7418 72.5003 21.3614 73.2722 20.7851L73.2749 20.783C73.4928 20.6204 73.7285 20.4444 73.9815 20.2625C74.8346 19.6492 75.9624 18.921 77.4045 18.6728L79.9565 15.4828C80.0026 15.4251 80.0519 15.3701 80.104 15.318C87.3579 8.06405 96.5077 6.2852 105.706 6.2288C110.298 6.20064 114.987 6.6022 119.516 7.00017L119.9 7.03391C124.328 7.42333 128.591 7.79747 132.63 7.79747C144.365 7.79747 155.668 8.73612 167.254 9.94867C172.804 10.5295 178.181 11.7512 183.454 12.949L183.481 12.9553C185.057 13.3132 186.622 13.6689 188.187 14.0067C193.549 15.1644 199.128 16.4715 204.437 18.0705C206.47 18.6828 208.524 18.9501 210.736 19.19C210.998 19.2184 211.262 19.2464 211.528 19.2746L211.554 19.2774C213.489 19.4828 215.56 19.7026 217.655 20.1747C221.024 20.9338 224.598 21.1256 228.305 21.1166C230.13 21.1121 231.965 21.0594 233.818 21.0061L233.896 21.0038C235.766 20.9501 237.655 20.8963 239.518 20.8963C243.294 20.8963 246.941 20.1323 250.774 19.2481C251.123 19.1675 251.473 19.0861 251.826 19.0042L251.861 18.9961C255.308 18.1947 258.935 17.3516 262.71 17.0913C264.964 16.9358 266.471 16.3058 268.574 15.4179L268.578 15.4159C269.204 15.1519 269.883 14.8654 270.637 14.57C272.557 13.8191 274.607 13.4177 276.48 13.0611L276.743 13.011C278.577 12.6625 280.245 12.3434 281.796 11.8039C282.406 11.5916 283.018 11.3765 283.633 11.1601L283.666 11.1486C287.662 9.74256 291.802 8.28609 296.159 7.4482C299.232 6.85732 302.297 5.94559 305.489 4.99516L305.492 4.99402C306.632 4.65457 307.788 4.31046 308.958 3.97751ZM322.692 5.6333C318.527 5.6333 314.364 6.59748 310.053 7.82468C308.949 8.13878 307.837 8.46994 306.713 8.80466L306.689 8.81187C303.493 9.76358 300.199 10.7445 296.914 11.3762C292.873 12.1535 289.014 13.5083 284.974 14.9288L284.969 14.9305C284.354 15.147 283.734 15.365 283.11 15.5819C281.264 16.2241 279.327 16.5919 277.567 16.9262L277.229 16.9905C275.316 17.3547 273.619 17.6988 272.095 18.295C271.472 18.5386 270.878 18.7902 270.282 19.0429L270.245 19.0585C268.094 19.9699 265.952 20.8772 262.985 21.0818C259.552 21.3186 256.223 22.0894 252.715 22.9042C252.37 22.9845 252.022 23.0653 251.673 23.1458C247.841 24.0296 243.796 24.8963 239.518 24.8963C237.722 24.8963 235.89 24.9481 234.011 25.0022L233.915 25.0049C232.077 25.0578 230.195 25.112 228.314 25.1166C224.491 25.1259 220.572 24.9324 216.776 24.0769C214.924 23.6596 213.081 23.4625 211.111 23.253C210.845 23.2246 210.576 23.196 210.305 23.1667C208.075 22.9247 205.699 22.6283 203.283 21.9005C198.127 20.3473 192.668 19.0664 187.343 17.9166C185.719 17.5661 184.113 17.2014 182.522 16.8401L182.52 16.8394C177.243 15.6409 172.129 14.4807 166.838 13.9269C155.298 12.7193 144.157 11.7975 132.63 11.7975C128.406 11.7975 123.984 11.4086 119.612 11.024L119.166 10.9848C114.612 10.5847 110.106 10.2019 105.73 10.2287C97.028 10.2821 89.1735 11.9568 83.0095 18.0697L79.9979 21.8342C79.6184 22.3086 79.0437 22.5848 78.4362 22.5848C77.8121 22.5848 77.2301 22.8534 76.3164 23.5103C76.1546 23.6266 75.9824 23.7558 75.7914 23.8992L75.7519 23.9288C74.9972 24.4956 73.9834 25.2568 72.8187 25.7048C72.0963 25.9827 71.3411 26.2585 70.5842 26.5349L70.5798 26.5366C68.1399 27.4278 65.7072 28.3202 63.8775 29.4093C62.2056 30.4045 61.0121 31.864 59.7518 33.6928C59.4994 34.059 59.2452 34.4392 58.9814 34.8338L58.9604 34.8652C57.9591 36.3627 56.8282 38.0542 55.3804 39.5341C54.8832 40.0424 54.3881 40.5445 53.8981 41.0415L53.8967 41.0429C49.588 45.4129 45.6816 49.386 43.0688 54.6116C39.2904 62.1684 36.399 69.6239 34.3134 77.7577C31.8326 87.4328 28.2499 94.6113 22.7431 102.935C11.0426 120.622 0.809113 141.368 4.93024 162.317C5.358 164.492 5.80487 166.675 6.25383 168.869L6.2556 168.877C7.24184 173.696 8.2381 178.563 9.05008 183.435C9.42685 185.696 9.60745 187.921 9.77962 190.042L9.78112 190.06C9.81882 190.524 9.85611 190.984 9.89507 191.44C10.1151 194.015 10.3867 196.467 11.0252 198.93C13 206.547 14.7097 212.289 20.7393 216.596C25.2818 219.841 29.9213 222.814 34.8101 225.403C44.1479 230.346 52.0839 236.998 59.8912 243.542L59.9291 243.574L59.9308 243.575C60.8334 244.332 61.7343 245.087 62.6366 245.839C64.7437 247.594 67.4283 248.946 70.3969 250.243C71.2609 250.621 72.1474 250.993 73.0457 251.37L73.0672 251.379C75.1745 252.264 77.3505 253.177 79.3199 254.207C89.4876 259.522 101.225 265.264 112.207 266.666C117.089 267.289 121.872 268.192 126.619 269.088L126.633 269.09C127.912 269.332 129.189 269.573 130.466 269.808C132.632 270.207 134.878 270.415 137.23 270.632C137.524 270.659 137.82 270.687 138.117 270.714C140.747 270.961 143.495 271.249 146.151 271.884C157.987 274.715 168.933 276.878 181.008 278.22C190.129 279.233 199.364 279.146 208.696 279.056L208.713 279.055C210 279.043 211.289 279.031 212.578 279.021C234.87 278.857 256.242 273.795 277.938 268.295C287.61 265.843 297.474 262.424 306.152 257.691C314.266 253.265 323.275 250.349 331.886 247.562L331.93 247.548C333.362 247.084 334.784 246.624 336.192 246.16C354.906 239.996 373.701 232.923 391.108 223.773C396.725 220.82 402.088 216.636 405.432 211.521C406.664 209.637 408.055 208.036 409.383 206.544C409.525 206.384 409.667 206.225 409.808 206.067L409.812 206.063C411.003 204.727 412.125 203.469 413.154 202.061C414.813 199.791 416.645 197.619 418.427 195.507L418.437 195.495L418.441 195.491C418.973 194.86 419.501 194.235 420.021 193.611C422.311 190.862 424.442 188.15 426.134 185.207C427.667 182.54 429.236 179.915 430.796 177.309L431.017 176.94C432.505 174.454 433.982 171.986 435.426 169.492C436.088 168.348 436.734 167.152 437.404 165.912L437.587 165.572C438.316 164.223 439.073 162.831 439.879 161.472C441.486 158.763 443.352 156.071 445.759 153.931C447.597 152.298 450.052 152.192 451.777 152.174C451.915 152.173 452.052 152.172 452.185 152.172C452.366 152.171 452.542 152.172 452.712 152.172C453.293 152.173 453.809 152.174 454.32 152.148C455.085 152.109 455.627 152.014 456.02 151.857C457.364 151.319 458.77 150.989 460.056 150.708C460.267 150.662 460.475 150.617 460.681 150.573C461.768 150.339 462.758 150.125 463.708 149.833C472.079 147.257 477.714 142.458 483.265 135.32C484.147 134.186 485.042 132.89 486.009 131.49C486.625 130.597 487.268 129.666 487.944 128.725C488.464 128.002 489.004 127.274 489.563 126.564C486.287 127.396 482.958 128.146 479.15 128.146C478.568 128.146 477.251 128.295 475.318 128.517L475.302 128.519C475.053 128.548 474.794 128.577 474.528 128.608C472.286 128.864 469.546 129.162 466.863 129.312C464.209 129.46 461.479 129.473 459.293 129.109C458.206 128.928 457.115 128.632 456.207 128.119C455.276 127.593 454.374 126.736 454.082 125.424C453.775 124.041 454.072 122.581 454.294 121.553C454.332 121.379 454.37 121.209 454.406 121.046C454.617 120.092 454.762 119.416 454.762 118.826V108.253C454.762 106.931 454.775 105.619 454.787 104.317L454.787 104.301C454.812 101.701 454.836 99.1434 454.763 96.5811C454.685 93.8353 453.921 90.711 452.888 87.4594C452.375 85.8462 451.808 84.2359 451.243 82.6519L451.041 82.0838L451.035 82.069C450.546 80.6959 450.062 79.34 449.64 78.0574C447.014 70.077 445.698 61.9563 445.517 53.5895C445.47 51.47 445.182 48.6717 444.591 45.9757C443.99 43.2344 443.122 40.8179 442.036 39.298C439.238 35.3803 434.293 32.4799 428.625 30.1476C424.746 28.5517 420.727 27.2948 417.047 26.1445L417.038 26.1417C415.368 25.6197 413.764 25.1183 412.288 24.62C409.291 23.6079 406.096 22.1686 402.926 20.7405L402.898 20.7279C401.322 20.0182 399.75 19.3102 398.193 18.6485C393.385 16.6052 388.752 15.0133 384.442 14.8786C374.96 14.5823 366.631 12.5275 357.75 9.73635C346.047 6.05834 335.107 5.6333 322.692 5.6333ZM309.505 5.90109C308.348 6.23057 307.202 6.57162 306.059 6.91199L306.034 6.91959C305.113 7.19369 304.194 7.46748 303.274 7.73298C304.229 7.45765 305.185 7.17299 306.143 6.88785L306.147 6.88659C307.267 6.55289 308.39 6.21868 309.505 5.90109ZM81.5581 16.6924C81.5448 16.7056 81.5316 16.7189 81.5183 16.7321C81.5183 16.7321 81.5183 16.7321 81.5183 16.7321L81.4847 16.7741C81.5077 16.7455 81.5322 16.7183 81.5581 16.6924ZM81.5581 16.6924C81.5582 16.6923 81.5579 16.6926 81.5581 16.6924V16.6924ZM287.181 12.0415C286.218 12.3708 285.258 12.7085 284.297 13.0468L284.289 13.0496C283.677 13.2648 283.065 13.4802 282.453 13.6929C283.075 13.4767 283.693 13.2593 284.311 13.0421L284.345 13.03C285.29 12.6976 286.234 12.3654 287.181 12.0415ZM183.038 14.9056C181.349 14.5219 179.663 14.1389 177.974 13.7768C179.629 14.132 181.281 14.5071 182.935 14.8827L182.963 14.8891C184.556 15.251 186.153 15.6136 187.765 15.9616C186.189 15.6214 184.613 15.2635 183.041 14.9062L183.038 14.9056ZM119.75 9.02846C119.755 9.02884 119.759 9.02921 119.763 9.02959L119.75 9.02846ZM271.366 16.4325C270.637 16.7177 269.98 16.995 269.352 17.2604L269.311 17.2775C268.636 17.5624 267.994 17.8337 267.345 18.0764C268.057 17.8125 268.763 17.5145 269.502 17.2013L269.506 17.1997C270.098 16.9489 270.715 16.6873 271.366 16.4325ZM277.491 14.9046C277.379 14.926 277.267 14.9473 277.155 14.9685L277.161 14.9676C277.271 14.9466 277.381 14.9256 277.491 14.9046ZM403.845 18.9598C402.302 18.2647 400.738 17.5599 399.145 16.8802C400.668 17.5303 402.201 18.2207 403.716 18.9031L403.719 18.9044C404.475 19.245 405.227 19.5834 405.971 19.9144C405.276 19.6049 404.576 19.2895 403.873 18.9724L403.845 18.9598ZM412.928 22.7251C414.381 23.2157 415.965 23.7109 417.644 24.2356L417.662 24.2413C418.616 24.5395 419.599 24.8469 420.602 25.1673C419.555 24.8323 418.528 24.511 417.533 24.2L417.527 24.1981C415.884 23.6842 414.325 23.197 412.928 22.7251ZM78.4362 20.5848L78.7168 20.234C78.5494 20.4432 78.3052 20.5765 78.0388 20.604C78.0372 20.6042 78.0357 20.6043 78.0341 20.6045M255.365 20.2503C254.334 20.4746 253.306 20.7134 252.279 20.9523C251.927 21.0341 251.575 21.1159 251.223 21.1969C251.571 21.1169 251.917 21.0364 252.263 20.956L252.279 20.9523L252.301 20.9472C253.321 20.7103 254.342 20.4732 255.365 20.2503ZM213.525 21.5106C212.788 21.4198 212.053 21.3416 211.318 21.2637C211.06 21.2363 210.802 21.2089 210.546 21.181C210.805 21.2092 211.064 21.2367 211.322 21.2642L211.35 21.2671C212.074 21.3441 212.798 21.4212 213.525 21.5106ZM75.1349 21.8965C74.9029 22.0635 74.6847 22.2264 74.4688 22.3876L74.4161 22.427C74.204 22.5854 73.9903 22.745 73.7715 22.9C74.0479 22.7064 74.3202 22.5028 74.5906 22.2998L74.5951 22.2965C74.7761 22.1605 74.9589 22.0233 75.1349 21.8965ZM72.1008 23.8381C71.4566 24.0859 70.7563 24.3413 70.036 24.6041L70.0309 24.606C69.2595 24.8874 68.4661 25.1773 67.6785 25.4792C68.4036 25.2022 69.1301 24.9368 69.8364 24.6789L69.8936 24.658C70.6552 24.3798 71.3955 24.1093 72.1008 23.8381ZM78.4362 20.5848C78.3009 20.5848 78.1685 20.5914 78.0388 20.604L78.4362 20.5848ZM58.086 32.5854C57.806 32.9923 57.5351 33.3969 57.2635 33.8025L57.2401 33.8375C56.9247 34.3086 56.608 34.7817 56.2803 35.251C56.6346 34.7448 56.9777 34.2323 57.3188 33.7221L57.3209 33.719C57.5762 33.3371 57.8313 32.9556 58.086 32.5854ZM52.4649 39.6455L52.4627 39.6478C48.1823 43.9851 44.0438 48.1895 41.2799 53.7172C44.0461 48.1848 48.1652 44.0072 52.4206 39.6914L52.4725 39.6387C52.9634 39.1408 53.4562 38.641 53.9507 38.1355C53.456 38.6412 52.9595 39.1443 52.4649 39.6455ZM456.373 121.412L456.358 121.479C456.324 121.633 456.29 121.788 456.256 121.946C456.286 121.807 456.318 121.664 456.35 121.522C456.424 121.191 456.497 120.861 456.561 120.534C456.503 120.827 456.438 121.121 456.373 121.412ZM456.787 104.372C456.79 104.044 456.793 103.716 456.796 103.388C456.793 103.695 456.79 104.003 456.787 104.31L456.787 104.32C456.775 105.629 456.762 106.937 456.762 108.253C456.762 106.974 456.775 105.683 456.787 104.393L456.787 104.372ZM495.671 122.811C495.622 122.8 495.559 122.799 495.484 122.805C495.333 122.818 495.132 122.861 494.903 122.923C494.444 123.047 493.87 123.247 493.356 123.43C493.356 123.43 493.356 123.43 493.356 123.43L493.097 123.522C492.706 123.662 492.355 123.787 492.163 123.835C492.156 123.836 492.149 123.838 492.142 123.84C492.574 123.732 493.025 123.922 493.249 124.307C493.47 124.687 493.417 125.165 493.12 125.488C493.702 124.878 494.296 124.32 494.903 123.835C495.248 123.559 495.478 123.348 495.615 123.191C495.682 123.114 495.728 123.049 495.752 122.995C495.761 122.976 495.771 122.948 495.773 122.921C495.775 122.91 495.774 122.902 495.773 122.896C495.773 122.892 495.771 122.884 495.765 122.872C495.759 122.858 495.754 122.852 495.751 122.85C495.748 122.846 495.743 122.842 495.734 122.836C495.725 122.831 495.714 122.825 495.701 122.82C495.688 122.815 495.677 122.812 495.671 122.811ZM492.094 123.852C491.48 124.006 490.88 124.16 490.287 124.313L490.237 124.325C488.89 124.672 487.579 125.009 486.26 125.297C487.605 125.004 488.944 124.659 490.319 124.305L490.326 124.303C490.909 124.153 491.498 124.001 492.094 123.852ZM476.764 126.341C476.264 126.395 475.711 126.459 475.116 126.527C474.851 126.558 474.578 126.589 474.301 126.621C474.573 126.59 474.836 126.559 475.09 126.53L475.116 126.527L475.212 126.516C475.768 126.452 476.289 126.393 476.764 126.341ZM489.568 129.893C488.905 130.815 488.272 131.731 487.655 132.626L487.644 132.641C487.484 132.873 487.324 133.105 487.166 133.334C487.346 133.074 487.528 132.81 487.711 132.545L487.714 132.541C488.323 131.659 488.946 130.758 489.568 129.893ZM4.29417 169.268C3.84557 167.076 3.39725 164.886 2.96785 162.703C3.40204 164.91 3.85255 167.111 4.30335 169.314L4.30522 169.323C4.46979 170.127 4.63447 170.931 4.79828 171.736C4.63091 170.914 4.46266 170.091 4.29445 169.27L4.29417 169.268ZM461.123 152.524L461.101 152.528C460.896 152.573 460.69 152.617 460.482 152.662C460.68 152.619 460.881 152.576 461.081 152.533C461.458 152.452 461.835 152.371 462.211 152.286C461.849 152.368 461.486 152.446 461.123 152.524ZM452.723 154.172L452.708 154.172C452.41 154.172 452.11 154.171 451.798 154.174C452.069 154.171 452.353 154.172 452.636 154.172C452.779 154.173 452.92 154.173 453.062 154.173C452.949 154.173 452.836 154.172 452.723 154.172ZM7.78767 190.222C7.74427 189.687 7.70079 189.152 7.65432 188.616C7.69933 189.136 7.74143 189.655 7.78359 190.174L7.78516 190.193C7.82352 190.665 7.86185 191.136 7.90234 191.61C7.86296 191.149 7.82531 190.685 7.78767 190.222ZM419.969 196.782L419.966 196.785C419.742 197.051 419.518 197.316 419.294 197.582C419.504 197.333 419.714 197.085 419.923 196.836L419.936 196.821C420.477 196.18 421.018 195.539 421.558 194.891C421.033 195.521 420.501 196.151 419.969 196.782ZM49.4918 237.599C52.5778 240.023 55.5905 242.548 58.6118 245.079L58.6513 245.113L58.6575 245.118C59.5552 245.87 60.4537 246.623 61.3563 247.375C60.4508 246.62 59.5472 245.863 58.6443 245.106C55.6121 242.565 52.5883 240.031 49.4918 237.599ZM332.546 249.451C329.84 250.326 327.117 251.208 324.409 252.139C327.093 251.217 329.792 250.343 332.472 249.475L332.518 249.46C333.957 248.994 335.391 248.53 336.818 248.06C335.404 248.526 333.977 248.987 332.546 249.451ZM72.2688 253.213C71.4025 252.849 70.5324 252.484 69.6806 252.113C70.5786 252.504 71.4726 252.879 72.3614 253.252L72.3832 253.262C72.9132 253.484 73.4418 253.706 73.9668 253.93C73.406 253.69 72.8397 253.453 72.2715 253.214L72.2688 253.213ZM208.685 281.056C206.36 281.078 204.032 281.101 201.703 281.106C204.044 281.101 206.384 281.078 208.721 281.056C209.746 281.046 210.769 281.036 211.791 281.027C210.766 281.036 209.741 281.046 208.716 281.056L208.685 281.056ZM126.262 271.056C125.667 270.943 125.073 270.831 124.478 270.72C125.057 270.828 125.637 270.938 126.216 271.047L126.23 271.05C127.388 271.268 128.548 271.487 129.713 271.703C128.573 271.492 127.434 271.277 126.297 271.062L126.262 271.056ZM137.023 272.621C136.051 272.532 135.078 272.442 134.11 272.337C135.085 272.443 136.065 272.533 137.046 272.624L137.023 272.621Z" fill="#484D6D"/>
</svg>
