<svg id="bg-3-trees" width="1919" viewBox="0 0 1919 564" fill="none" xmlns="http://www.w3.org/2000/svg">
<path opacity="0.2" d="M1382.49 224.216C1386.86 222.128 1391.98 223.95 1396.81 224.216C1398.94 224.342 1401.1 224.132 1403.23 224.413C1404.3 224.493 1405.35 224.794 1406.29 225.296C1407.24 225.797 1408.08 226.489 1408.74 227.328C1408.96 227.576 1409.1 227.871 1409.17 228.189C1409.24 228.507 1409.24 228.837 1409.15 229.151C1408.96 229.46 1408.71 229.724 1408.4 229.923C1408.1 230.122 1407.76 230.251 1407.4 230.3L1399.76 232.557C1399.31 232.648 1398.89 232.856 1398.55 233.16C1398.4 233.326 1398.31 233.543 1398.31 233.77C1398.31 233.996 1398.4 234.213 1398.55 234.379C1396.35 234.938 1394.04 234.899 1391.85 234.267C1387.65 233.37 1383.53 232.165 1379.4 230.973C1379.2 230.94 1379 230.864 1378.83 230.75C1378.66 230.637 1378.51 230.488 1378.39 230.314C1378.3 230.052 1378.3 229.763 1378.39 229.501C1378.84 228.38 1380.02 227.791 1380.97 227.048C1381.93 226.305 1382.74 225.001 1382.12 223.964" fill="#242638"/>
<path d="M1395.47 74.1823C1393.13 78.6041 1390.31 82.7512 1387.06 86.5461C1384.85 88.8465 1382.47 90.9785 1379.94 92.9242C1376.51 95.6718 1373.04 98.3819 1369.55 101.055C1367.65 102.293 1366.04 103.929 1364.84 105.849C1364.51 106.354 1364.39 106.969 1364.52 107.559C1364.88 108.708 1366.45 108.821 1367.64 108.624C1377.13 107.124 1385.24 101.167 1392.88 95.3914C1393.36 95.0822 1393.78 94.671 1394.09 94.1859C1394.35 93.6599 1394.48 93.0861 1394.49 92.5037L1396.02 76.2709" fill="#484D6D"/>
<path d="M1396.67 75.1775C1402.1 88.7468 1413.31 99.008 1421.81 110.895C1422.71 111.95 1423.3 113.237 1423.52 114.61C1423.59 115.293 1423.4 115.977 1423 116.532C1422.59 117.088 1422 117.476 1421.33 117.624C1420.76 117.571 1420.21 117.398 1419.7 117.115C1419.2 116.832 1418.77 116.447 1418.43 115.984L1405.01 102.19C1401.86 98.9519 1398.61 95.5316 1397.23 91.228C1395.86 86.9245 1396.58 82.2005 1397.23 77.7147" fill="#484D6D"/>
<path d="M1394.37 98.7416C1391.95 104.026 1385.84 106.255 1380.95 109.353C1376.05 112.451 1372.25 116.558 1368.33 120.68L1358.74 130.941C1358.36 131.347 1357.96 131.908 1358.18 132.413C1358.35 132.719 1358.63 132.945 1358.97 133.043C1362.74 134.628 1367.14 133.702 1370.85 131.964C1379.26 128.053 1385.36 120.525 1391.12 113.236C1392.41 111.777 1393.47 110.133 1394.26 108.358C1394.98 106.259 1395.28 104.039 1395.13 101.826" fill="#484D6D"/>
<path d="M1398.55 106.325C1398.8 107.836 1399.44 109.254 1400.42 110.433C1407.82 120.666 1419.82 126.357 1429.45 134.515C1430.6 135.483 1431.82 136.772 1431.52 138.244C1431.35 138.93 1430.94 139.535 1430.37 139.954C1429.62 140.495 1428.76 140.864 1427.85 141.036C1426.94 141.208 1426 141.178 1425.1 140.95C1423.31 140.487 1421.61 139.704 1420.1 138.637C1409.76 131.893 1402.11 121.74 1398.48 109.942" fill="#484D6D"/>
<path d="M1393.1 122.25C1388.98 125.32 1385.98 129.623 1382.73 133.604C1378.69 138.558 1374.18 143.112 1369.27 147.202C1366.96 148.863 1364.97 150.929 1363.4 153.299C1363.19 153.585 1363.06 153.912 1363 154.256C1362.94 154.601 1362.96 154.954 1363.06 155.29C1363.58 156.496 1365.34 156.215 1366.55 155.725C1369.63 154.491 1372.66 153.15 1375.63 151.701C1379.44 150.085 1382.91 147.753 1385.84 144.833C1389.58 140.627 1391.19 135.118 1392.69 129.735" fill="#484D6D"/>
<path d="M1400.39 132.833C1401.39 135.284 1402.82 137.542 1404.59 139.506C1408.15 143.664 1412.22 147.348 1416.71 150.468C1421.43 153.748 1426.83 156.636 1429.53 161.682C1429.79 162.069 1429.92 162.523 1429.91 162.986C1429.82 163.348 1429.63 163.68 1429.37 163.944C1429.1 164.208 1428.77 164.395 1428.41 164.486C1426.15 165.285 1423.67 164.346 1421.54 163.224C1415.89 160.167 1411.06 155.798 1407.45 150.485C1403.84 145.173 1401.56 139.071 1400.8 132.693" fill="#484D6D"/>
<path d="M1389.4 150.286L1361.12 171.495C1360.32 172.015 1359.62 172.697 1359.09 173.499C1358.83 173.899 1358.69 174.366 1358.69 174.845C1358.69 175.324 1358.83 175.792 1359.09 176.191C1359.56 176.696 1360.2 177.01 1360.89 177.074C1363.36 177.33 1365.86 176.944 1368.15 175.952C1372.62 174.399 1377.01 172.598 1381.28 170.556C1383.47 169.753 1385.35 168.282 1386.65 166.35C1387.24 165.091 1387.59 163.739 1387.7 162.355L1389.19 151.533" fill="#484D6D"/>
<path d="M1400.49 156.986C1405.31 166.378 1414.81 172.196 1422.8 179.078C1425.31 181.237 1427.81 183.732 1428.51 186.957C1428.62 187.265 1428.62 187.602 1428.51 187.91C1428.23 188.414 1427.53 188.4 1426.97 188.33C1418.59 187.151 1410.79 183.399 1404.64 177.593C1402.73 175.888 1401.17 173.826 1400.05 171.523C1398.13 167.219 1398.65 162.257 1399.32 157.589" fill="#484D6D"/>
<path d="M1387.31 179.219L1363.48 193.237C1362.08 194.05 1360.51 195.213 1360.68 196.825C1360.78 197.432 1361.07 197.99 1361.51 198.423C1361.95 198.855 1362.51 199.14 1363.12 199.236C1364.34 199.395 1365.58 199.271 1366.75 198.872C1370.95 197.716 1375.07 196.249 1379.05 194.484C1381.37 193.618 1383.52 192.335 1385.38 190.699C1386.81 189.276 1387.83 187.489 1388.32 185.531C1388.81 183.572 1388.77 181.516 1388.18 179.583" fill="#484D6D"/>
<path d="M1398.12 181.223C1406.12 188.644 1414.72 195.395 1423.83 201.409C1424.99 202.053 1425.99 202.943 1426.77 204.016C1427.15 204.557 1427.34 205.207 1427.32 205.867C1427.3 206.527 1427.06 207.162 1426.64 207.675C1426.11 208.075 1425.49 208.342 1424.83 208.455C1424.17 208.567 1423.5 208.521 1422.86 208.32C1418.44 207.461 1414.18 205.904 1410.24 203.708C1406.92 202.134 1404.03 199.765 1401.83 196.811C1399.03 192.536 1398.8 187.111 1398.69 182.008" fill="#484D6D"/>
<path d="M1386.16 205.236L1362.15 217.474C1361.28 217.789 1360.56 218.419 1360.13 219.24C1359.99 219.811 1360.05 220.414 1360.31 220.944C1360.56 221.474 1361 221.897 1361.53 222.142C1362.64 222.586 1363.84 222.74 1365.02 222.59C1369.56 222.611 1374.06 221.685 1378.23 219.871C1382.28 217.866 1385.7 214.095 1386.17 209.596C1386.18 207.81 1386.29 206.027 1386.51 204.255" fill="#484D6D"/>
<path d="M1401.87 207.787C1408.74 214.796 1417.18 220.123 1424.88 226.263C1425.79 226.871 1426.52 227.701 1427.02 228.674C1427.26 229.166 1427.31 229.725 1427.18 230.254C1427.04 230.782 1426.72 231.245 1426.28 231.562C1425.87 231.735 1425.43 231.824 1424.98 231.824C1424.54 231.824 1424.1 231.735 1423.69 231.562C1417.79 229.741 1412.14 227.199 1406.87 223.992C1404.99 222.972 1403.33 221.585 1402 219.913C1399.11 215.89 1400.02 210.381 1401.06 205.544" fill="#484D6D"/>
<g opacity="0.5">
<path d="M1395.47 74.1823C1393.13 78.6041 1390.31 82.7512 1387.06 86.5461C1384.85 88.8465 1382.47 90.9785 1379.94 92.9242C1376.51 95.6718 1373.04 98.3819 1369.55 101.055C1367.65 102.293 1366.04 103.929 1364.84 105.849C1364.51 106.354 1364.39 106.969 1364.52 107.559C1364.88 108.708 1366.45 108.821 1367.64 108.624C1377.13 107.124 1385.24 101.167 1392.88 95.3914C1393.36 95.0822 1393.78 94.671 1394.09 94.1859C1394.34 93.6599 1394.48 93.0861 1394.49 92.5037L1396.02 76.2709" fill="white"/>
<path d="M1396.67 75.1775C1402.1 88.7469 1413.31 99.008 1421.81 110.895C1422.71 111.95 1423.3 113.237 1423.52 114.61C1423.59 115.293 1423.4 115.977 1423 116.532C1422.59 117.088 1422 117.476 1421.33 117.624C1420.76 117.571 1420.21 117.398 1419.7 117.115C1419.2 116.832 1418.77 116.447 1418.43 115.984L1405.01 102.19C1401.86 98.9519 1398.61 95.5316 1397.23 91.2281C1395.86 86.9246 1396.58 82.2005 1397.23 77.7148" fill="white"/>
<path d="M1394.37 98.7417C1391.95 104.026 1385.84 106.255 1380.95 109.353C1376.05 112.451 1372.25 116.558 1368.33 120.68L1358.74 130.941C1358.36 131.347 1357.96 131.908 1358.18 132.413C1358.35 132.719 1358.63 132.946 1358.97 133.044C1362.74 134.628 1367.14 133.702 1370.85 131.964C1379.26 128.053 1385.36 120.526 1391.12 113.236C1392.41 111.777 1393.47 110.133 1394.26 108.358C1394.98 106.259 1395.28 104.039 1395.13 101.826" fill="white"/>
<path d="M1398.55 106.325C1398.8 107.836 1399.44 109.254 1400.42 110.433C1407.82 120.666 1419.82 126.357 1429.45 134.515C1430.6 135.483 1431.82 136.772 1431.52 138.244C1431.35 138.93 1430.94 139.535 1430.37 139.954C1429.62 140.495 1428.76 140.864 1427.85 141.036C1426.94 141.208 1426 141.178 1425.1 140.95C1423.31 140.487 1421.61 139.704 1420.1 138.637C1409.76 131.893 1402.11 121.74 1398.48 109.942" fill="white"/>
<path d="M1393.1 122.25C1388.98 125.32 1385.98 129.623 1382.73 133.604C1378.69 138.558 1374.18 143.112 1369.27 147.202C1366.96 148.863 1364.97 150.929 1363.4 153.3C1363.19 153.585 1363.06 153.912 1363 154.256C1362.94 154.601 1362.96 154.954 1363.06 155.29C1363.58 156.496 1365.34 156.215 1366.55 155.725C1369.63 154.491 1372.66 153.15 1375.63 151.702C1379.44 150.085 1382.91 147.753 1385.84 144.833C1389.58 140.627 1391.19 135.118 1392.69 129.735" fill="white"/>
<path d="M1400.39 132.833C1401.39 135.284 1402.82 137.542 1404.59 139.506C1408.15 143.664 1412.22 147.348 1416.71 150.468C1421.43 153.748 1426.83 156.636 1429.53 161.682C1429.79 162.069 1429.92 162.523 1429.91 162.986C1429.82 163.348 1429.63 163.68 1429.37 163.944C1429.1 164.208 1428.77 164.395 1428.41 164.486C1426.15 165.285 1423.67 164.346 1421.54 163.224C1415.89 160.167 1411.06 155.798 1407.45 150.485C1403.84 145.173 1401.56 139.071 1400.8 132.693" fill="white"/>
<path d="M1389.4 150.286L1361.12 171.495C1360.32 172.015 1359.62 172.697 1359.09 173.499C1358.83 173.899 1358.69 174.367 1358.69 174.845C1358.69 175.324 1358.83 175.792 1359.09 176.191C1359.56 176.696 1360.2 177.01 1360.89 177.074C1363.36 177.33 1365.86 176.944 1368.15 175.953C1372.62 174.399 1377.01 172.598 1381.28 170.556C1383.47 169.754 1385.35 168.282 1386.65 166.35C1387.24 165.092 1387.59 163.739 1387.7 162.355L1389.19 151.533" fill="white"/>
<path d="M1400.49 156.986C1405.31 166.378 1414.81 172.196 1422.8 179.079C1425.31 181.237 1427.81 183.733 1428.51 186.957C1428.62 187.265 1428.62 187.602 1428.51 187.91C1428.23 188.415 1427.53 188.401 1426.97 188.33C1418.59 187.151 1410.79 183.399 1404.64 177.593C1402.73 175.888 1401.17 173.826 1400.05 171.523C1398.13 167.219 1398.65 162.257 1399.32 157.589" fill="white"/>
<path d="M1387.31 179.219L1363.48 193.237C1362.08 194.05 1360.51 195.213 1360.68 196.825C1360.78 197.432 1361.07 197.99 1361.51 198.423C1361.95 198.855 1362.51 199.14 1363.11 199.236C1364.34 199.396 1365.58 199.271 1366.75 198.872C1370.95 197.716 1375.07 196.249 1379.05 194.484C1381.37 193.618 1383.52 192.335 1385.38 190.699C1386.81 189.276 1387.83 187.489 1388.32 185.531C1388.81 183.572 1388.77 181.516 1388.18 179.583" fill="white"/>
<path d="M1398.12 181.223C1406.12 188.644 1414.72 195.395 1423.83 201.409C1424.99 202.054 1425.99 202.943 1426.77 204.017C1427.15 204.557 1427.34 205.207 1427.32 205.867C1427.3 206.527 1427.06 207.162 1426.64 207.675C1426.11 208.075 1425.49 208.343 1424.83 208.455C1424.17 208.567 1423.5 208.521 1422.86 208.32C1418.44 207.461 1414.18 205.905 1410.24 203.708C1406.92 202.134 1404.03 199.766 1401.83 196.811C1399.03 192.536 1398.8 187.111 1398.69 182.008" fill="white"/>
<path d="M1386.16 205.236L1362.15 217.474C1361.28 217.789 1360.56 218.42 1360.13 219.24C1359.99 219.811 1360.05 220.414 1360.31 220.944C1360.56 221.474 1361 221.897 1361.53 222.142C1362.64 222.586 1363.84 222.74 1365.02 222.59C1369.56 222.612 1374.06 221.685 1378.23 219.871C1382.28 217.866 1385.7 214.095 1386.17 209.596C1386.18 207.81 1386.29 206.027 1386.51 204.255" fill="white"/>
<path d="M1401.87 207.787C1408.74 214.796 1417.18 220.123 1424.88 226.263C1425.79 226.871 1426.52 227.701 1427.02 228.674C1427.26 229.166 1427.31 229.725 1427.18 230.254C1427.04 230.782 1426.72 231.245 1426.28 231.562C1425.87 231.735 1425.43 231.824 1424.98 231.824C1424.54 231.824 1424.1 231.735 1423.69 231.562C1417.79 229.741 1412.14 227.199 1406.87 223.992C1404.99 222.972 1403.33 221.585 1402 219.913C1399.11 215.89 1400.02 210.381 1401.06 205.544" fill="white"/>
</g>
<path d="M1395.54 74.084C1395.48 78.8255 1395.83 83.5631 1396.6 88.2421C1397.79 94.8803 1398.44 101.602 1398.55 108.344L1399.59 132.034C1399.84 137.711 1400.09 143.389 1399.98 149.08C1399.9 153.86 1399.55 158.64 1399.41 163.42C1398.9 181.644 1401.45 199.965 1401.4 218.259C1401.5 221.3 1401.19 224.342 1400.47 227.3C1400.32 228.106 1399.91 228.841 1399.31 229.403C1398.47 229.909 1397.48 230.117 1396.51 229.992C1393.11 229.992 1389.22 229.711 1387.14 227.02C1385.6 225.029 1385.57 222.282 1385.61 219.759L1386.29 178.882C1386.22 171.871 1386.69 164.865 1387.69 157.925C1388.64 152.402 1390.25 147.005 1391.21 141.468C1391.99 136.955 1392.31 132.371 1392.61 127.801C1393.88 109.942 1395.16 92.069 1395.41 74.1681V74.084" fill="#484D6D"/>
<path opacity="0.3" d="M1395.54 74.084C1395.48 78.8255 1395.83 83.5631 1396.6 88.2421C1397.79 94.8803 1398.44 101.602 1398.55 108.344L1399.59 132.034C1399.84 137.711 1400.09 143.389 1399.98 149.08C1399.9 153.86 1399.55 158.64 1399.41 163.42C1398.9 181.644 1401.45 199.965 1401.4 218.259C1401.5 221.3 1401.19 224.342 1400.47 227.3C1400.32 228.106 1399.91 228.841 1399.31 229.403C1398.47 229.909 1397.48 230.117 1396.51 229.992C1393.11 229.992 1389.22 229.711 1387.14 227.02C1385.6 225.029 1385.57 222.282 1385.61 219.759L1386.29 178.882C1386.22 171.871 1386.69 164.865 1387.69 157.925C1388.64 152.402 1390.25 147.005 1391.21 141.468C1391.99 136.955 1392.31 132.371 1392.61 127.801C1393.88 109.942 1395.16 92.069 1395.41 74.1681V74.084" fill="white"/>
<path d="M1397.5 77C1397.87 77.7777 1398.27 78.612 1398.7 79.4898C1403.64 86.9931 1421.83 106.633 1417.5 107.5C1413.8 108.241 1404.09 90.4628 1398.7 79.4898C1397.95 78.3345 1397.5 77.467 1397.5 77Z" fill="white"/>
<path d="M1398 108C1398.01 108.045 1398.02 108.094 1398.04 108.149C1399.24 110.915 1428.44 132.531 1425.5 134C1422.54 135.478 1399.21 111.726 1398.04 108.149C1398.01 108.091 1398 108.041 1398 108Z" fill="white"/>
<path d="M1401 134.5C1405.67 142.333 1416.8 157.9 1424 157.5C1433 157 1404.5 140 1401 134.5Z" fill="white"/>
<path d="M1399.5 156.5C1399.79 156.99 1400.09 157.51 1400.42 158.054C1405.17 164.141 1425.88 180.5 1420 180.5C1415.12 180.5 1405.45 166.4 1400.42 158.054C1399.92 157.411 1399.6 156.882 1399.5 156.5Z" fill="white"/>
<path d="M1399 183C1399.07 183.103 1399.15 183.208 1399.22 183.314C1402.59 187.546 1423.36 198.05 1418 200C1413.67 201.574 1403.83 189.729 1399.22 183.314C1399.14 183.205 1399.06 183.1 1399 183Z" fill="white"/>
<path d="M1400.5 206.5C1404.5 212.833 1413.9 225.3 1419.5 224.5C1426.5 223.5 1405 212 1400.5 206.5Z" fill="white"/>
<path d="M1394.33 76.8537C1394.39 76.7345 1394.45 76.6166 1394.5 76.5C1394.5 76.558 1394.44 76.6783 1394.33 76.8537C1389.72 86.6155 1378.38 104.871 1368.5 102.5C1368.5 101.667 1369.4 99.7 1373 98.5C1377.24 97.087 1392.57 79.7018 1394.33 76.8537Z" fill="white"/>
<path d="M1393 101.564C1393.17 101.373 1393.34 101.185 1393.5 101C1393.42 101.141 1393.24 101.331 1393 101.564C1384.66 110.869 1368.35 127.744 1366 125C1363.17 121.697 1388.84 105.481 1393 101.564Z" fill="white"/>
<path d="M1391.31 125.122C1391.55 124.736 1391.78 124.361 1392 124C1391.87 124.332 1391.63 124.708 1391.31 125.122C1385.54 134.356 1374.22 150.188 1370 147.5C1364.87 144.232 1386.75 130.941 1391.31 125.122Z" fill="white"/>
<path d="M1388.5 151.5C1382.5 159 1369.4 173.4 1365 171C1360.6 168.6 1378.83 157 1388.5 151.5Z" fill="white"/>
<path d="M1386 180.5C1381.33 185.833 1370.9 195.7 1366.5 192.5C1362.1 189.3 1377.67 183.167 1386 180.5Z" fill="white"/>
<path d="M1386 205.5C1380.17 211 1368.4 221 1368 217C1367.6 213 1379.83 207.667 1386 205.5Z" fill="white"/>
<path d="M846.161 70.3133L870.693 72.6823C864.11 49.0165 859.206 24.9159 856.016 0.559937C851.511 23.4092 847.993 46.4174 845.46 69.5844L846.161 70.3133Z" fill="#484D6D"/>
<path d="M1335.57 109.311L1348.19 110.531C1344.79 98.3655 1342.27 85.9753 1340.63 73.4532C1338.31 85.2003 1336.5 97.0315 1335.21 108.947L1335.57 109.311Z" fill="#484D6D"/>
<path d="M1087.21 60.2063L1100.32 61.4679C1096.8 48.8431 1094.18 35.9843 1092.48 22.9886C1090.07 35.1375 1088.2 47.4126 1086.88 59.8138L1087.21 60.2063Z" fill="#484D6D"/>
<path d="M1116.92 150.818L1135.25 152.585C1130.33 134.899 1126.66 116.888 1124.28 98.6855C1120.91 115.759 1118.28 132.955 1116.39 150.272L1116.92 150.818Z" fill="#484D6D"/>
<path d="M1715.23 195.367L1725.04 196.307C1722.4 186.814 1720.43 177.145 1719.16 167.374C1717.34 176.541 1715.94 185.774 1714.95 195.073L1715.23 195.367Z" fill="#484D6D"/>
<path d="M1330.43 187.91L1342.09 189.031C1338.95 177.786 1336.61 166.332 1335.08 154.757C1332.95 165.607 1331.28 176.541 1330.06 187.559L1330.43 187.91Z" fill="#484D6D"/>
<path opacity="0.2" d="M1330.43 187.91L1342.09 189.031C1338.95 177.786 1336.61 166.332 1335.08 154.757C1332.95 165.607 1331.28 176.541 1330.06 187.559L1330.43 187.91Z" fill="#484D6D"/>
<path d="M989.495 118.521L1001.76 120.343C998.466 102.204 996.013 83.7144 994.429 65.0425C992.172 82.5509 990.42 100.228 989.144 117.974L989.495 118.521Z" fill="#484D6D"/>
<path d="M1653.95 204.031L1666.21 205.853C1662.92 187.714 1660.46 169.224 1658.88 150.552C1656.62 168.06 1654.87 185.737 1653.6 203.484L1653.95 204.031Z" fill="#484D6D"/>
<path opacity="0.4" d="M1116.92 150.818L1135.25 152.585C1130.33 134.899 1126.66 116.888 1124.28 98.6855C1120.91 115.759 1118.28 132.955 1116.39 150.272L1116.92 150.818Z" fill="white"/>
<path opacity="0.5" d="M1715.23 195.367L1725.04 196.307C1722.4 186.814 1720.43 177.145 1719.16 167.374C1717.34 176.541 1715.94 185.774 1714.95 195.073L1715.23 195.367Z" fill="white"/>
<path opacity="0.4" d="M989.495 118.521L1001.76 120.343C998.466 102.204 996.013 83.7144 994.429 65.0425C992.172 82.5509 990.42 100.228 989.144 117.974L989.495 118.521Z" fill="white"/>
</svg>
