<svg id="sg-sky" width="1920" height="513" viewBox="0 0 1920 513" fill="none" xmlns="http://www.w3.org/2000/svg">
<path opacity="0.1" d="M0 444.592C22.3097 459.747 68.7989 452.254 95.7759 450.792C122.753 449.33 157.012 462.46 156.351 489.324C246.7 505.27 339.407 501.805 428.313 479.161C436.326 477.122 444.859 474.943 452.704 477.53C460.548 480.116 466.537 489.774 462.221 496.789C568.99 510.242 678.711 523.499 783.119 497.618C849.668 481.086 915.529 448.627 983.386 458.65C1003.07 461.574 1022.65 468.083 1042.51 466.326C1058.09 464.92 1072.67 458.566 1087.5 453.674C1187.39 420.596 1299.12 454.124 1400.8 426.964L1380.96 415.718C1440.29 402.268 1502.33 407.362 1558.67 430.31L1921 430.535V0H0V444.592Z" fill="#484D6D"/>
<g opacity="0.4">
<path class="sky-path" d="M671.724 201.73C687.065 204.123 702.598 205.064 718.115 204.541C720.828 204.443 720.828 200.225 718.115 200.324C702.987 200.869 687.841 199.989 672.877 197.695C670.22 197.273 669.082 201.336 671.767 201.758L671.724 201.73Z" fill="#484D6D"/>
<path class="sky-path" d="M781.741 204.654L847.039 199.677C849.724 199.48 849.752 195.263 847.039 195.46L781.741 200.436C779.056 200.647 779.042 204.864 781.741 204.654Z" fill="#484D6D"/>
<path class="sky-path" d="M913.969 199.691H1127.83C1128.39 199.691 1128.93 199.469 1129.32 199.074C1129.72 198.678 1129.94 198.142 1129.94 197.583C1129.94 197.023 1129.72 196.487 1129.32 196.092C1128.93 195.696 1128.39 195.474 1127.83 195.474H913.969C913.409 195.474 912.873 195.696 912.478 196.092C912.082 196.487 911.86 197.023 911.86 197.583C911.86 198.142 912.082 198.678 912.478 199.074C912.873 199.469 913.409 199.691 913.969 199.691Z" fill="#484D6D"/>
<path class="sky-path" d="M943.363 212.751H1135.96C1136.51 212.751 1137.05 212.529 1137.45 212.133C1137.84 211.738 1138.06 211.202 1138.06 210.642C1138.06 210.083 1137.84 209.547 1137.45 209.151C1137.05 208.756 1136.51 208.534 1135.96 208.534H943.363C942.804 208.534 942.268 208.756 941.872 209.151C941.477 209.547 941.255 210.083 941.255 210.642C941.255 211.202 941.477 211.738 941.872 212.133C942.268 212.529 942.804 212.751 943.363 212.751Z" fill="#484D6D"/>
<path d="M993.958 233.838L1087.03 229.213C1089.73 229.072 1089.75 224.855 1087.03 224.995L993.958 229.62C991.259 229.761 991.244 233.978 993.958 233.838Z" fill="#484D6D"/>
<path d="M1141.49 216.181C1162.74 212.502 1184.23 210.383 1205.78 209.841L1204.29 206.242C1195.72 213.878 1189.87 224.099 1187.63 235.356C1187.55 235.669 1187.55 235.996 1187.61 236.312C1187.68 236.628 1187.81 236.925 1188.01 237.182C1188.2 237.438 1188.46 237.647 1188.74 237.794C1189.03 237.94 1189.35 238.02 1189.67 238.027C1266.93 237.23 1344.13 234.302 1421.27 229.241C1443.1 227.807 1464.92 226.2 1486.73 224.419C1489.41 224.194 1489.44 219.977 1486.73 220.202C1409.73 226.471 1332.61 230.623 1255.36 232.657C1233.49 233.219 1211.61 233.613 1189.74 233.838L1191.78 236.509C1193.84 225.963 1199.31 216.387 1207.34 209.251C1207.62 208.951 1207.81 208.576 1207.89 208.172C1207.96 207.767 1207.92 207.35 1207.76 206.97C1207.6 206.59 1207.34 206.264 1207 206.03C1206.66 205.796 1206.26 205.665 1205.85 205.652C1183.92 206.218 1162.06 208.389 1140.44 212.147C1137.77 212.61 1138.89 216.673 1141.56 216.209L1141.49 216.181Z" fill="#484D6D"/>
<path d="M1297.61 179.884L1387.41 178.253C1390.11 178.253 1390.12 174.036 1387.41 174.036L1297.61 175.666C1294.91 175.666 1294.89 179.884 1297.61 179.884Z" fill="#484D6D"/>
<path d="M1313.94 158.882L1333.54 160.512C1336.24 160.737 1336.22 156.52 1333.54 156.295L1313.94 154.664C1311.24 154.439 1311.26 158.657 1313.94 158.882Z" fill="#484D6D"/>
<path d="M1405.36 173.614H1496.74C1497.29 173.614 1497.83 173.392 1498.23 172.996C1498.62 172.601 1498.84 172.065 1498.84 171.505C1498.84 170.946 1498.62 170.41 1498.23 170.014C1497.83 169.619 1497.29 169.397 1496.74 169.397H1405.36C1404.8 169.397 1404.26 169.619 1403.87 170.014C1403.47 170.41 1403.25 170.946 1403.25 171.505C1403.25 172.065 1403.47 172.601 1403.87 172.996C1404.26 173.392 1404.8 173.614 1405.36 173.614Z" fill="#484D6D"/>
<path d="M1505.73 207.69C1534.54 212.88 1563.88 214.462 1593.07 212.399C1595.77 212.203 1595.79 207.985 1593.07 208.182C1564.26 210.25 1535.29 208.715 1506.86 203.613C1504.2 203.135 1503.06 207.198 1505.73 207.69Z" fill="#484D6D"/>
<path d="M1486.99 245.407H1529.49C1530.05 245.407 1530.59 245.185 1530.98 244.79C1531.38 244.394 1531.6 243.858 1531.6 243.299C1531.6 242.739 1531.38 242.203 1530.98 241.808C1530.59 241.412 1530.05 241.19 1529.49 241.19H1487.05C1486.49 241.19 1485.95 241.412 1485.56 241.808C1485.16 242.203 1484.94 242.739 1484.94 243.299C1484.94 243.858 1485.16 244.394 1485.56 244.79C1485.95 245.185 1486.49 245.407 1487.05 245.407H1486.99Z" fill="#484D6D"/>
<path d="M1606.18 225.994C1648.03 221.822 1690.11 220.268 1732.16 221.34L1731.09 217.404L1695.2 241.302C1694.86 241.52 1694.58 241.832 1694.41 242.203C1694.23 242.573 1694.17 242.985 1694.22 243.391C1694.27 243.796 1694.44 244.178 1694.71 244.491C1694.97 244.803 1695.32 245.034 1695.71 245.154C1720.72 250.679 1745.9 245.056 1770.22 238.913C1782.87 235.707 1795.6 232.348 1808.54 230.239C1822.3 228.123 1836.2 227 1850.12 226.879C1865.58 226.626 1881.15 227.217 1896.65 227.807C1899.37 227.905 1899.37 223.688 1896.65 223.59C1869.82 222.563 1842.81 221.537 1816.09 224.925C1790.43 228.187 1765.98 236.874 1740.54 241.176C1726.06 243.622 1711.26 244.269 1696.83 241.078L1697.34 244.943L1733.23 221.045C1733.62 220.803 1733.92 220.444 1734.08 220.019C1734.25 219.594 1734.27 219.127 1734.15 218.687C1734.03 218.247 1733.77 217.857 1733.42 217.576C1733.06 217.294 1732.62 217.135 1732.16 217.123C1690.11 216.051 1648.03 217.605 1606.18 221.776C1603.5 222.043 1603.48 226.261 1606.18 225.994Z" fill="#484D6D"/>
<path d="M52.0139 344.135C90.4386 346.197 128.891 346.464 167.372 344.936C167.878 344.93 168.364 344.742 168.742 344.407C169.12 344.072 169.366 343.613 169.434 343.112C169.502 342.612 169.388 342.103 169.113 341.679C168.838 341.256 168.42 340.945 167.935 340.803C163.903 339.68 160.132 337.773 156.837 335.192C153.542 332.612 150.788 329.407 148.732 325.762L147.466 328.854C199.48 320.42 251.766 314.042 304.324 309.722C319.319 308.494 334.29 307.44 349.238 306.559C351.937 306.39 351.951 302.173 349.238 302.341C296.493 305.462 243.931 310.668 191.552 317.959C176.454 320.068 161.384 322.345 146.342 324.792C146.031 324.88 145.745 325.039 145.505 325.255C145.265 325.472 145.078 325.74 144.957 326.039C144.837 326.339 144.786 326.662 144.809 326.984C144.832 327.306 144.928 327.619 145.091 327.898C149.807 336.205 157.621 342.306 166.824 344.866L167.372 340.719C128.891 342.256 90.4386 341.989 52.0139 339.918C49.3008 339.763 49.3148 343.98 52.0139 344.135Z" fill="#484D6D"/>
<path d="M55.2753 316.16C86.3056 316.872 117.331 316.685 148.352 315.598C151.065 315.499 151.079 311.282 148.352 311.38C117.341 312.468 86.315 312.655 55.2753 311.943C52.5622 311.943 52.5622 316.16 55.2753 316.16Z" fill="#484D6D"/>
<path d="M170.648 291.7C195.085 295.721 219.849 297.415 244.606 296.761C247.305 296.761 247.319 292.543 244.606 292.543C220.207 293.186 195.802 291.52 171.716 287.567C169.059 287.131 167.921 291.194 170.606 291.629L170.648 291.7Z" fill="#484D6D"/>
<path d="M32.4313 258.889C63.3585 261.025 94.3701 262.3 125.466 262.712C126.025 262.712 126.562 262.49 126.957 262.095C127.352 261.699 127.575 261.163 127.575 260.604C127.575 260.044 127.352 259.508 126.957 259.113C126.562 258.717 126.025 258.495 125.466 258.495C94.4263 258.073 63.4148 256.799 32.4313 254.671C29.7322 254.475 29.7463 258.692 32.4313 258.889Z" fill="#484D6D"/>
<path d="M211.992 244.578C270.229 244.268 328.461 243.402 386.688 241.977C389.401 241.977 389.415 237.76 386.688 237.76C328.517 239.184 270.285 240.051 211.992 240.36C211.433 240.36 210.896 240.582 210.501 240.978C210.105 241.373 209.883 241.91 209.883 242.469C209.883 243.028 210.105 243.565 210.501 243.96C210.896 244.356 211.433 244.578 211.992 244.578Z" fill="#484D6D"/>
<path d="M29.1559 211.894C48.3214 211.725 67.4822 211.725 86.6383 211.894C95.9586 211.964 105.279 212.034 114.599 212.259C123.034 212.456 131.778 213.131 139.13 217.882V214.241C134.049 217.361 129.788 221.651 126.703 226.753C126.543 227.03 126.448 227.339 126.424 227.658C126.401 227.977 126.45 228.297 126.568 228.594C126.685 228.892 126.868 229.159 127.104 229.375C127.339 229.592 127.62 229.753 127.926 229.845C145.224 234.252 163.118 235.856 180.924 234.597C183.609 234.414 183.637 230.197 180.924 230.38C163.494 231.627 145.976 230.075 129.037 225.783L130.302 228.875C133.009 224.388 136.755 220.618 141.225 217.882C141.536 217.691 141.793 217.423 141.971 217.105C142.149 216.786 142.243 216.427 142.243 216.062C142.243 215.697 142.149 215.337 141.971 215.019C141.793 214.7 141.536 214.432 141.225 214.241C134.266 209.813 126.169 208.618 118.072 208.21C108.512 207.775 98.9248 207.845 89.3655 207.761C69.2816 207.564 49.1976 207.564 29.1137 207.761C28.5545 207.761 28.0181 207.983 27.6227 208.378C27.2272 208.774 27.005 209.31 27.005 209.869C27.005 210.428 27.2272 210.965 27.6227 211.36C28.0181 211.756 28.5545 211.978 29.1137 211.978L29.1559 211.894Z" fill="#484D6D"/>
<path d="M306.685 196.852C363.854 195.221 421.022 195.961 478.191 199.073C480.904 199.227 480.89 195.01 478.191 194.855C421.097 191.735 363.929 190.994 306.685 192.634C303.986 192.719 303.972 196.936 306.685 196.852Z" fill="#484D6D"/>
<path d="M196.809 183.454C222.957 187.466 249.236 190.465 275.646 192.451C278.345 192.662 278.331 188.445 275.646 188.234C249.639 186.275 223.735 183.323 197.934 179.378C195.277 178.97 194.124 183.033 196.809 183.454Z" fill="#484D6D"/>
<path d="M22.619 146.272H291.981C292.54 146.272 293.076 146.049 293.472 145.654C293.867 145.259 294.089 144.722 294.089 144.163C294.089 143.604 293.867 143.067 293.472 142.672C293.076 142.276 292.54 142.054 291.981 142.054H22.619C22.0598 142.054 21.5234 142.276 21.128 142.672C20.7325 143.067 20.5103 143.604 20.5103 144.163C20.5103 144.722 20.7325 145.259 21.128 145.654C21.5234 146.049 22.0598 146.272 22.619 146.272Z" fill="#484D6D"/>
<path d="M383.399 149.716C419.284 151.487 455.201 151.956 491.152 151.121C493.865 151.121 493.865 146.904 491.152 146.904C455.229 147.72 419.312 147.251 383.399 145.498C380.686 145.358 380.7 149.575 383.399 149.716Z" fill="#484D6D"/>
<path d="M74.8719 111.76C99.8667 113.634 124.894 114.571 149.955 114.571C150.514 114.571 151.05 114.349 151.446 113.954C151.841 113.558 152.063 113.022 152.063 112.463C152.063 111.903 151.841 111.367 151.446 110.972C151.05 110.576 150.514 110.354 149.955 110.354C124.904 110.354 99.8761 109.417 74.8719 107.542C72.1728 107.332 72.1869 111.549 74.8719 111.76Z" fill="#484D6D"/>
<path d="M226.682 113.615H342.589C343.148 113.615 343.684 113.393 344.08 112.998C344.475 112.602 344.698 112.066 344.698 111.507C344.698 110.947 344.475 110.411 344.08 110.016C343.684 109.62 343.148 109.398 342.589 109.398H226.682C226.123 109.398 225.587 109.62 225.191 110.016C224.796 110.411 224.574 110.947 224.574 111.507C224.574 112.066 224.796 112.602 225.191 112.998C225.587 113.393 226.123 113.615 226.682 113.615Z" fill="#484D6D"/>
<path d="M416.111 115.246H520.589C521.148 115.246 521.684 115.024 522.08 114.628C522.475 114.233 522.698 113.696 522.698 113.137C522.698 112.578 522.475 112.042 522.08 111.646C521.684 111.251 521.148 111.029 520.589 111.029H416.111C415.552 111.029 415.016 111.251 414.62 111.646C414.225 112.042 414.003 112.578 414.003 113.137C414.003 113.696 414.225 114.233 414.62 114.628C415.016 115.024 415.552 115.246 416.111 115.246Z" fill="#484D6D"/>
<path d="M533.592 90.7714H641.346C641.905 90.7714 642.441 90.5493 642.837 90.1538C643.232 89.7584 643.454 89.222 643.454 88.6627C643.454 88.1035 643.232 87.5671 642.837 87.1717C642.441 86.7762 641.905 86.5541 641.346 86.5541H533.592C533.033 86.5541 532.497 86.7762 532.101 87.1717C531.706 87.5671 531.484 88.1035 531.484 88.6627C531.484 89.222 531.706 89.7584 532.101 90.1538C532.497 90.5493 533.033 90.7714 533.592 90.7714Z" fill="#484D6D"/>
<path d="M688.678 113.053L827.471 111.521C828.03 111.521 828.567 111.299 828.962 110.903C829.357 110.508 829.58 109.971 829.58 109.412C829.58 108.853 829.357 108.316 828.962 107.921C828.567 107.526 828.03 107.303 827.471 107.303L688.678 108.836C688.119 108.836 687.583 109.058 687.187 109.453C686.792 109.849 686.57 110.385 686.57 110.944C686.57 111.504 686.792 112.04 687.187 112.435C687.583 112.831 688.119 113.053 688.678 113.053Z" fill="#484D6D"/>
<path d="M34.0621 65.8751L96.0992 67.2808C98.8124 67.2808 98.8124 63.0635 96.0992 63.0635L34.0621 61.6577C31.3489 61.6577 31.3489 65.8751 34.0621 65.8751Z" fill="#484D6D"/>
<path d="M220.145 66.606L435.624 73.3115L489.662 74.9844C498.251 75.2515 507.037 76.0528 515.626 75.6592C521.615 75.3921 527.899 73.2975 530.261 67.2245C532.622 61.1515 528.855 57.8761 524.736 54.2351C517.074 47.4311 532.44 45.5614 536.362 45.1537C554.168 43.2794 572.026 41.6065 589.936 40.1351C629.86 36.8268 669.845 34.4839 709.891 33.1062C712.591 33.0078 712.605 28.7904 709.891 28.8888C674.044 30.154 638.234 32.1737 602.462 34.9478C584.824 36.3254 567.195 37.8812 549.576 39.615L537.065 40.8942C533.574 41.0528 530.107 41.5614 526.718 42.4125C522.416 43.8182 517.552 46.925 518.494 52.1123C519.563 57.8901 529.459 59.8582 525.987 66.4935C522.079 73.9863 509.118 71.3715 502.3 71.1607L448.95 69.5019L340.874 66.142L220.145 62.3886C217.432 62.3043 217.432 66.5216 220.145 66.606Z" fill="#484D6D"/>
<path d="M713.181 75.9684C759.521 76.2562 805.678 70.1395 850.343 57.7916C850.734 57.671 851.082 57.4408 851.346 57.1281C851.61 56.8155 851.779 56.4337 851.832 56.0281C851.885 55.6224 851.821 55.21 851.647 54.8398C851.472 54.4696 851.196 54.1572 850.849 53.9398L828.075 36.6205L828.497 39.9241C836.116 33.4716 846.533 32.5859 856.079 31.7144C867.325 30.6741 878.637 29.8775 890.014 29.3245C912.675 28.1999 935.355 28.0453 958.054 28.8606C960.767 28.945 960.767 24.7276 958.054 24.6433C933.987 23.7998 909.92 24.0247 885.853 25.3181C874.115 25.9507 862.348 26.7238 850.709 28.0312C841.641 29.0293 832.686 30.8428 825.559 36.9439C825.335 37.1741 825.165 37.452 825.063 37.7568C824.961 38.0616 824.929 38.3855 824.97 38.7044C825.01 39.0233 825.122 39.3289 825.297 39.5985C825.472 39.8681 825.706 40.0947 825.981 40.2615L848.754 57.5807L849.261 53.7289C804.96 65.9695 759.182 72.0341 713.223 71.751C712.664 71.751 712.127 71.9732 711.732 72.3686C711.337 72.7641 711.114 73.3004 711.114 73.8597C711.114 74.4189 711.337 74.9553 711.732 75.3507C712.127 75.7462 712.664 75.9684 713.223 75.9684H713.181Z" fill="#484D6D"/>
<path d="M55.2753 28.3826L197.259 28.8044L339.243 29.2261L419.373 29.4651C419.932 29.4651 420.468 29.2429 420.864 28.8475C421.259 28.452 421.481 27.9157 421.481 27.3564C421.481 26.7972 421.259 26.2608 420.864 25.8653C420.468 25.4699 419.932 25.2477 419.373 25.2477L277.389 24.826L135.405 24.4043L55.2753 24.1653C54.7161 24.1653 54.1797 24.3874 53.7843 24.7829C53.3888 25.1783 53.1667 25.7147 53.1667 26.274C53.1667 26.8332 53.3888 27.3696 53.7843 27.765C54.1797 28.1605 54.7161 28.3826 55.2753 28.3826Z" fill="#484D6D"/>
<path d="M138.484 63.724C158.607 65.0171 178.783 65.2705 198.932 64.4831C201.631 64.3706 201.645 60.1533 198.932 60.2658C178.783 61.0532 158.607 60.7998 138.484 59.5066C135.77 59.3379 135.784 63.5553 138.484 63.724Z" fill="#484D6D"/>
<path d="M980.898 37.3235L1072.27 40.4443C1074.99 40.5286 1074.99 36.3113 1072.27 36.2269L980.898 33.1061C978.185 33.0218 978.185 37.2391 980.898 37.3235Z" fill="#484D6D"/>
<path d="M1167.05 43.9307L1278.26 35.8475C1279.92 35.735 1281.24 33.5279 1279.75 32.2487C1273.2 26.5939 1265.5 22.4134 1257.19 19.9903L1256.63 24.1373C1286.08 24.0811 1315.52 24.6762 1344.94 25.9227C1347.65 26.0351 1347.65 21.8178 1344.94 21.7053C1315.51 20.4682 1286.07 19.8731 1256.63 19.92C1256.12 19.9266 1255.64 20.1144 1255.26 20.4492C1254.88 20.784 1254.63 21.2435 1254.57 21.7442C1254.5 22.2449 1254.61 22.7533 1254.89 23.1771C1255.16 23.6008 1255.58 23.9117 1256.07 24.053C1263.69 26.2727 1270.76 30.1082 1276.77 35.2992L1278.26 31.6301L1167.05 39.7696C1164.37 39.9664 1164.34 44.1838 1167.05 43.987V43.9307Z" fill="#484D6D"/>
<path d="M1441.28 144.205C1500.01 139.748 1559.03 141.071 1617.51 148.155C1620.19 148.479 1620.16 144.261 1617.51 143.938C1559.03 136.854 1500.01 135.531 1441.28 139.988C1438.59 140.184 1438.56 144.402 1441.28 144.205Z" fill="#484D6D"/>
<path d="M1557.18 165.404C1580 163.645 1602.89 163.101 1625.76 163.773C1628.47 163.858 1628.47 159.64 1625.76 159.556C1602.89 158.883 1580 159.428 1557.18 161.187C1554.5 161.398 1554.47 165.615 1557.18 165.404Z" fill="#484D6D"/>
<path d="M1713.16 158.15C1740.16 150.798 1769.39 143.207 1796.77 152.977L1795.22 150.939C1794.88 153.463 1793.86 155.847 1792.27 157.841C1792.11 158.121 1792.02 158.433 1792 158.755C1791.98 159.076 1792.03 159.398 1792.15 159.696C1792.27 159.993 1792.46 160.26 1792.7 160.474C1792.94 160.689 1793.23 160.846 1793.54 160.934C1815.99 166.936 1839.2 169.584 1862.42 168.792C1865.12 168.694 1865.13 164.476 1862.42 164.575C1839.56 165.368 1816.7 162.772 1794.59 156.871L1795.86 159.964C1797.83 157.33 1799.05 154.211 1799.39 150.939C1799.38 150.479 1799.23 150.032 1798.95 149.667C1798.67 149.301 1798.28 149.037 1797.84 148.914C1769.72 138.891 1739.67 146.539 1711.97 154.088C1711.45 154.25 1711.01 154.609 1710.75 155.091C1710.48 155.572 1710.42 156.136 1710.56 156.665C1710.71 157.194 1711.06 157.644 1711.53 157.922C1712 158.199 1712.57 158.281 1713.1 158.15H1713.16Z" fill="#484D6D"/>
<path d="M1736.76 123.006H1774.31C1774.87 123.006 1775.4 122.784 1775.8 122.388C1776.19 121.993 1776.42 121.456 1776.42 120.897C1776.42 120.338 1776.19 119.802 1775.8 119.406C1775.4 119.011 1774.87 118.789 1774.31 118.789H1736.76C1736.2 118.789 1735.66 119.011 1735.27 119.406C1734.87 119.802 1734.65 120.338 1734.65 120.897C1734.65 121.456 1734.87 121.993 1735.27 122.388C1735.66 122.784 1736.2 123.006 1736.76 123.006Z" fill="#484D6D"/>
<path d="M1843.95 122.879C1854.38 124.623 1864.97 125.198 1875.52 124.594C1878.22 124.44 1878.25 120.222 1875.52 120.377C1865.35 120.974 1855.13 120.441 1845.07 118.789C1842.42 118.353 1841.28 122.415 1843.95 122.851V122.879Z" fill="#484D6D"/>
<path d="M277.29 370.761L440.544 372.729C443.257 372.729 443.257 368.511 440.544 368.511L277.29 366.543C276.731 366.543 276.195 366.766 275.799 367.161C275.404 367.556 275.182 368.093 275.182 368.652C275.182 369.211 275.404 369.748 275.799 370.143C276.195 370.539 276.731 370.761 277.29 370.761Z" fill="#484D6D"/>
<path d="M19.3576 383.806H110.733C111.293 383.806 111.829 383.584 112.224 383.189C112.62 382.793 112.842 382.257 112.842 381.698C112.842 381.139 112.62 380.602 112.224 380.207C111.829 379.811 111.293 379.589 110.733 379.589H19.3576C18.7984 379.589 18.262 379.811 17.8666 380.207C17.4711 380.602 17.249 381.139 17.249 381.698C17.249 382.257 17.4711 382.793 17.8666 383.189C18.262 383.584 18.7984 383.806 19.3576 383.806Z" fill="#484D6D"/>
<path d="M143.39 388.558C157.475 386.818 171.689 386.347 185.858 387.152C188.571 387.293 188.557 383.075 185.858 382.935C171.689 382.13 157.475 382.601 143.39 384.34C140.733 384.678 140.705 388.895 143.39 388.558Z" fill="#484D6D"/>
<path d="M16.1805 431.462L108.695 440.08C123.638 441.486 141.098 440.867 155.086 446.912C167.035 452.085 173.923 463.992 186.294 468.828C197.428 473.172 209.771 473.664 221.551 474.676C236.93 476.082 252.338 477.277 267.773 477.909C297.295 479.104 326.169 476.686 355.297 472.357C386.716 467.689 418.15 462.432 450.019 464.428C480.496 466.34 510.299 473.411 540.41 477.923C569.304 482.363 598.665 482.874 627.695 479.442C657.934 475.829 687.736 469.292 717.665 463.753C779.126 452.395 840.887 442.849 902.947 435.117C932.764 431.406 965.758 423.506 994.759 434.485C1006.96 439.096 1018.47 443.651 1031.63 444.635C1046.56 445.759 1061.55 443.679 1076.35 441.964C1136.33 434.991 1196.12 426.65 1255.73 416.941C1287.03 411.838 1318.36 406.482 1350.03 404.176C1380.66 401.969 1411.42 402.447 1442.08 403.586C1568.29 408.267 1694.44 414.832 1820.61 420.455L1868.72 422.606C1871.43 422.718 1871.43 418.501 1868.72 418.389L1489.43 401.519C1428.39 398.806 1367.87 396.332 1307.15 404.781C1245.06 413.412 1183.44 424.462 1121.18 432.404C1106.25 434.279 1091.31 436.101 1076.35 437.873C1061.56 439.588 1046.55 441.711 1031.63 440.544C1015.94 439.321 1003.08 432.278 988.306 427.892C975.556 424.124 962.257 424.419 949.155 425.657C888.608 431.364 828.146 440.628 768.189 450.693C737.838 455.782 707.6 461.504 677.362 467.24C646.111 473.172 614.481 478.486 582.556 477.825C551.361 477.122 520.828 470.206 490.154 465.173C461.504 460.492 433.149 458.566 404.204 461.504C374.036 464.569 344.29 470.923 314.037 473.228C283.209 475.576 252.296 473.228 221.565 470.557C207.17 469.306 191.341 468.969 179.139 460.267C168.75 452.858 162.354 443.861 149.406 440.586C136.459 437.31 122.162 437.156 108.737 435.905L63.3867 431.687L16.2227 427.287C13.5095 427.034 13.5377 431.252 16.2227 431.505L16.1805 431.462Z" fill="#484D6D"/>
<path d="M37.2673 408.632C65.0471 406.844 92.9263 407.314 120.63 410.038C135.166 411.491 149.622 413.576 163.998 416.294C170.238 417.247 176.406 418.628 182.456 420.427C190.16 423.042 203.417 434.583 191.51 442.16C191.126 442.405 190.83 442.766 190.666 443.191C190.502 443.616 190.478 444.082 190.597 444.521C190.717 444.96 190.973 445.35 191.329 445.634C191.686 445.917 192.123 446.079 192.578 446.096L635.118 451.832C635.619 451.815 636.097 451.621 636.469 451.285C636.841 450.949 637.081 450.492 637.149 449.996C637.216 449.499 637.106 448.995 636.837 448.572C636.568 448.149 636.158 447.835 635.68 447.685L594.477 434.035V438.112C760.19 388.755 934.676 447.502 1101.96 410.193C1151.91 399.059 1202.24 376.046 1254.31 386.801L1253.8 382.949L1226.22 397.569C1224.2 398.651 1225.39 401.28 1227.29 401.505C1267.48 406.116 1307.42 399.692 1347.03 393.155C1388.86 386.238 1430.1 380.643 1472.49 385.409C1515.5 390.231 1557.55 399.467 1600.93 401.379C1643.72 403.276 1686.59 401.379 1729.38 400.099L1877.07 395.559C1879.78 395.474 1879.8 391.257 1877.07 391.341L1745.59 395.39C1702.74 396.697 1659.83 398.708 1616.93 397.695C1572.38 396.655 1529.34 388.839 1485.33 382.794C1445.66 377.354 1407.22 379.406 1367.75 385.606C1321.22 392.845 1274.59 402.784 1227.29 397.358L1228.36 401.28L1255.93 386.66C1256.28 386.445 1256.56 386.133 1256.74 385.762C1256.91 385.391 1256.98 384.976 1256.93 384.568C1256.88 384.16 1256.71 383.775 1256.44 383.46C1256.18 383.146 1255.83 382.914 1255.43 382.794C1211.67 373.755 1168.91 388.094 1127.07 399.579C1084.63 411.233 1041.32 417.011 997.332 418.642C910.089 421.875 823.015 411.149 735.856 413.468C687.694 414.762 639.645 420.328 593.366 434.105C592.932 434.242 592.553 434.513 592.284 434.879C592.015 435.246 591.87 435.689 591.87 436.144C591.87 436.598 592.015 437.041 592.284 437.408C592.553 437.774 592.932 438.046 593.366 438.182L634.57 451.832L635.132 447.685L192.592 441.837L193.66 445.759C201.252 440.937 201.617 430.703 196.106 423.955C187.039 412.808 165.756 412.133 152.893 410.024C114.691 403.798 75.9072 401.912 37.2813 404.401C34.5822 404.57 34.5682 408.787 37.2813 408.618L37.2673 408.632Z" fill="#484D6D"/>
<path d="M215.253 423.112C328.241 427.385 441.261 427.282 554.314 422.803C556.254 422.718 557.378 419.836 555.382 418.866C531.433 407.353 505.17 401.468 478.598 401.66V405.877C608.577 395.573 738.738 385.268 869.209 384.551C906.452 384.336 943.682 384.982 980.898 386.491L979.829 382.569L952.642 400.31C951.236 401.196 951.236 403.867 953.148 404.176C994.758 410.63 1037.33 406.363 1076.83 391.777C1077.26 391.645 1077.65 391.376 1077.92 391.01C1078.19 390.644 1078.33 390.201 1078.33 389.746C1078.33 389.29 1078.19 388.847 1077.92 388.481C1077.65 388.115 1077.26 387.846 1076.83 387.714L1026.22 369.102L1025.66 373.235L1175.67 367.935C1176.12 367.923 1176.56 367.764 1176.92 367.482C1177.28 367.201 1177.54 366.811 1177.66 366.371C1177.78 365.931 1177.76 365.464 1177.59 365.039C1177.42 364.614 1177.12 364.255 1176.74 364.013L1138.78 343.488L1137.71 347.411C1217.43 352.743 1296.99 360.002 1376.39 369.186C1376.76 369.183 1377.12 369.084 1377.44 368.897C1377.76 368.71 1378.03 368.443 1378.21 368.122C1378.4 367.801 1378.49 367.436 1378.49 367.066C1378.49 366.695 1378.4 366.331 1378.21 366.009C1370.12 354.325 1358.75 345.303 1345.53 340.086L1344.97 344.304L1694.3 339.004C1697.02 339.004 1697.02 334.787 1694.3 334.787L1344.97 340.086C1344.46 340.096 1343.98 340.286 1343.6 340.622C1343.23 340.958 1342.98 341.418 1342.92 341.917C1342.85 342.417 1342.97 342.924 1343.24 343.347C1343.52 343.769 1343.93 344.079 1344.42 344.219C1356.61 349.077 1367.1 357.424 1374.57 368.216L1376.39 365.039C1297.02 355.845 1217.46 348.587 1137.71 343.263C1137.26 343.281 1136.82 343.443 1136.46 343.726C1136.11 344.01 1135.85 344.4 1135.73 344.839C1135.61 345.278 1135.64 345.744 1135.8 346.169C1135.97 346.594 1136.26 346.955 1136.64 347.2L1174.6 367.724L1175.67 363.788L1025.63 369.017C1025.13 369.035 1024.65 369.228 1024.28 369.564C1023.91 369.9 1023.67 370.357 1023.6 370.854C1023.53 371.35 1023.64 371.855 1023.91 372.277C1024.18 372.7 1024.59 373.015 1025.07 373.164L1075.68 391.777V387.714C1036.93 402.094 995.154 406.357 954.301 400.099L954.807 403.951L982.008 386.21C982.392 385.965 982.687 385.604 982.852 385.179C983.016 384.755 983.04 384.289 982.921 383.849C982.801 383.41 982.545 383.02 982.189 382.737C981.832 382.453 981.395 382.291 980.94 382.274C850.582 376.834 720.14 383.539 590.133 393.056C552.95 395.769 515.795 398.679 478.64 401.66C475.969 401.871 475.829 405.877 478.64 405.877C504.466 405.654 529.999 411.342 553.287 422.507L554.356 418.585C441.387 423.065 328.367 423.168 215.295 418.895C212.582 418.782 212.582 422.999 215.295 423.112H215.253Z" fill="#484D6D"/>
<path d="M1599.64 384.313L1822.31 383.23L1885.34 382.921C1885.89 382.921 1886.43 382.699 1886.83 382.303C1887.22 381.908 1887.44 381.372 1887.44 380.812C1887.44 380.253 1887.22 379.717 1886.83 379.321C1886.43 378.926 1885.89 378.704 1885.34 378.704L1662.66 379.786L1599.64 380.095C1599.08 380.095 1598.54 380.317 1598.15 380.713C1597.75 381.108 1597.53 381.645 1597.53 382.204C1597.53 382.763 1597.75 383.3 1598.15 383.695C1598.54 384.091 1599.08 384.313 1599.64 384.313Z" fill="#484D6D"/>
<path d="M1403.73 316.863H1629.02C1629.58 316.863 1630.11 316.641 1630.51 316.245C1630.91 315.85 1631.13 315.314 1631.13 314.754C1631.13 314.195 1630.91 313.659 1630.51 313.263C1630.11 312.868 1629.58 312.646 1629.02 312.646H1403.73C1403.17 312.646 1402.63 312.868 1402.24 313.263C1401.84 313.659 1401.62 314.195 1401.62 314.754C1401.62 315.314 1401.84 315.85 1402.24 316.245C1402.63 316.641 1403.17 316.863 1403.73 316.863Z" fill="#484D6D"/>
<path d="M1700.8 302.51L1776.51 307.037L1794.79 308.119C1796.84 308.246 1803.9 307.81 1802.23 312.041C1801.2 314.628 1796.94 316.737 1794.86 318.255L1765.07 339.988C1764.68 340.23 1764.39 340.59 1764.22 341.015C1764.05 341.439 1764.03 341.906 1764.15 342.346C1764.27 342.786 1764.53 343.176 1764.88 343.458C1765.24 343.74 1765.68 343.898 1766.14 343.91L1860.9 345.794C1863.62 345.794 1863.62 341.577 1860.9 341.577L1766.14 339.693L1767.19 343.629C1778.85 335.124 1790.94 326.999 1802.24 318.044C1805.47 315.471 1808.69 311.142 1805.61 307.163C1802.53 303.185 1795.06 303.916 1790.59 303.649L1700.85 298.293C1698.14 298.124 1698.16 302.355 1700.85 302.51H1700.8Z" fill="#484D6D"/>
<path d="M1842.36 318.269C1858.04 322.115 1874.04 324.469 1890.16 325.298C1892.87 325.438 1892.86 321.221 1890.16 321.08C1874.4 320.269 1858.75 317.957 1843.43 314.178C1840.79 313.531 1839.66 317.608 1842.3 318.255L1842.36 318.269Z" fill="#484D6D"/>
<path d="M228.439 406.889C290.706 411.856 353.104 414.143 415.633 413.75C433.327 413.637 451.036 413.304 468.758 412.751C469.081 412.747 469.399 412.67 469.688 412.524C469.976 412.378 470.228 412.169 470.423 411.911C470.618 411.653 470.752 411.355 470.814 411.037C470.877 410.72 470.866 410.393 470.782 410.08C469.1 403.705 465.551 397.977 460.59 393.633L460.913 396.177C464.751 390.793 473.453 391.369 479.287 391.018C486.925 390.549 494.563 390.175 502.201 389.893C517.665 389.289 533.241 389.008 548.775 388.867C579.843 388.586 610.91 388.867 641.978 388.305C673.046 387.743 703.931 386.337 734.76 382.78C764.59 379.336 794.196 374.233 823.942 370.128C858.075 365.503 892.573 362.424 927.014 364.997C929.713 365.194 929.713 360.977 927.014 360.78C864.598 356.113 803.123 370.072 741.536 377.649C678.5 385.437 615.015 384.003 551.615 384.523C534 384.664 516.386 384.973 498.785 385.704C489.971 386.07 481.115 386.379 472.328 387.11C466.551 387.63 460.871 388.938 457.329 393.9C457.094 394.304 456.999 394.774 457.06 395.237C457.121 395.7 457.334 396.13 457.666 396.458C462.107 400.338 465.264 405.476 466.719 411.191L468.758 408.52C406.332 410.451 343.896 409.692 281.451 406.243C263.767 405.305 246.096 404.111 228.439 402.658C225.726 402.447 225.74 406.664 228.439 406.875V406.889Z" fill="#484D6D"/>
<path d="M245.562 434.864C291.151 439.855 336.938 441.893 382.85 442.962C405.474 443.496 428.103 443.899 450.736 444.171C472.989 444.466 495.285 444.48 517.468 442.442C540.902 440.277 565.419 436.565 586.534 425.572C586.995 425.289 587.331 424.84 587.472 424.317C587.613 423.795 587.549 423.238 587.293 422.761L579.913 411.697L578.085 414.86L790.696 410.39L850.849 409.125C853.548 409.125 853.562 404.907 850.849 404.907L638.225 409.364L578.071 410.629C577.702 410.635 577.341 410.738 577.023 410.925C576.706 411.113 576.442 411.38 576.258 411.7C576.074 412.02 575.976 412.382 575.973 412.751C575.971 413.12 576.064 413.483 576.244 413.806L583.638 424.869L584.397 421.987C565.166 431.94 542.842 435.609 521.503 437.817C499.811 440.066 477.923 440.249 456.176 440.01C411.36 439.532 366.487 438.829 321.713 436.565C296.282 435.286 270.866 433.416 245.548 430.647C242.849 430.352 242.877 434.569 245.548 434.864H245.562Z" fill="#484D6D"/>
<path d="M651.102 442.751C694.207 436.663 737.662 433.376 781.193 432.91C781.752 432.91 782.288 432.688 782.684 432.293C783.079 431.897 783.301 431.361 783.301 430.802C783.301 430.242 783.079 429.706 782.684 429.31C782.288 428.915 781.752 428.693 781.193 428.693C737.284 429.198 693.453 432.546 649.977 438.716C647.306 439.096 648.445 443.158 651.102 442.793V442.751Z" fill="#484D6D"/>
<path d="M166.88 478.669C203.796 484.292 241.134 485.993 278.443 486.218C296.803 486.316 315.162 486.091 333.522 485.824C351.066 485.585 368.666 485.416 386.14 483.772C405.259 481.972 424.237 478.373 442.09 471.12C444.578 470.122 443.496 466.031 440.965 467.057C409.082 480.074 374.205 481.044 340.199 481.55C303.578 482.085 266.916 482.633 230.323 480.749C209.475 479.667 188.656 477.769 168.005 474.634C165.348 474.226 164.209 478.289 166.894 478.697L166.88 478.669Z" fill="#484D6D"/>
<path d="M471.836 485.36C542.334 500.908 615.165 502.75 686.359 490.786C756.873 478.936 825.404 455.29 897.226 451.607C907.657 451.073 918.116 450.834 928.504 449.724C938.26 448.697 947.721 446.378 957.365 444.691C978.072 441.064 997.781 447.053 1017.28 453.491C1019.87 454.349 1020.98 450.272 1018.4 449.428C1001.93 443.988 984.862 438.421 967.276 439.307C958.476 439.742 949.943 441.964 941.325 443.622C932.154 445.257 922.883 446.262 913.575 446.631C895.693 447.573 877.938 448.5 860.155 450.848C842.878 453.182 825.742 456.359 808.69 459.958C773.545 467.366 738.78 476.504 703.523 483.364C668.047 490.394 631.991 494.089 595.826 494.399C554.506 494.591 513.293 490.187 472.947 481.269C470.304 480.679 469.179 484.742 471.822 485.332L471.836 485.36Z" fill="#484D6D"/>
<path d="M1055.57 427.048C1099.5 429.776 1145.82 432.025 1186.06 410.994C1191.82 407.986 1197.22 404.626 1203.71 403.459C1210.21 402.293 1216.63 402.756 1223.06 403.15C1225.76 403.305 1225.76 399.087 1223.06 398.933C1212.58 398.286 1202.22 398.089 1192.55 402.742C1187.45 405.202 1182.61 408.155 1177.47 410.516C1172.13 412.948 1166.63 415.028 1161.02 416.744C1139.27 423.45 1116.36 424.912 1093.71 424.574C1081.06 424.377 1068.28 423.618 1055.57 422.831C1052.87 422.662 1052.87 426.88 1055.57 427.048Z" fill="#484D6D"/>
<path d="M1104.51 385.114C1134.68 386.253 1165.14 387.335 1195.01 382.134C1209.97 379.547 1223.93 374.43 1238.41 370.128C1245.75 367.795 1253.37 366.476 1261.07 366.206C1268.42 366.193 1275.76 366.895 1282.97 368.301C1298.8 371.112 1314.64 375.33 1330.85 373.558C1333.52 373.277 1333.55 369.046 1330.85 369.341C1316.08 370.93 1301.64 367.499 1287.2 364.8C1273.23 362.186 1259.38 360.808 1245.37 363.985C1230.76 367.289 1216.96 373.319 1202.31 376.496C1187.18 379.626 1171.79 381.367 1156.34 381.698C1139.06 382.246 1121.77 381.613 1104.51 380.967C1101.8 380.854 1101.8 385.072 1104.51 385.184V385.114Z" fill="#484D6D"/>
<path d="M183.215 397.232L211.542 409.125C214.044 410.179 215.141 406.102 212.667 405.062L184.34 393.169C181.838 392.115 180.741 396.206 183.215 397.232Z" fill="#484D6D"/>
<path d="M314.29 387.63L362.185 386.534C364.899 386.534 364.899 382.316 362.185 382.316L314.29 383.413C311.591 383.413 311.577 387.63 314.29 387.63Z" fill="#484D6D"/>
<path d="M317.552 398.23C354.552 398.783 391.571 398.872 428.609 398.497C429.168 398.497 429.704 398.275 430.1 397.879C430.495 397.484 430.717 396.947 430.717 396.388C430.717 395.829 430.495 395.293 430.1 394.897C429.704 394.502 429.168 394.28 428.609 394.28C391.609 394.654 354.59 394.565 317.552 394.012C314.839 394.012 314.839 398.23 317.552 398.23Z" fill="#484D6D"/>
<path d="M984.707 396.472C1004.5 398.758 1024.52 398.123 1044.13 394.589C1046.8 394.111 1045.66 390.048 1043.01 390.526C1023.76 393.953 1004.12 394.536 984.707 392.255C982.022 391.946 982.037 396.163 984.707 396.472Z" fill="#484D6D"/>
<path d="M1279.26 385.985C1303.54 391.145 1328.21 387.18 1352.14 382.077C1364.62 379.42 1377.06 376.609 1389.5 373.854L1408.27 369.721C1412.07 368.877 1418.11 368.61 1419.68 364.266C1422.3 357.054 1409.84 356.45 1408.56 350.953L1406.54 353.624C1472.5 352.059 1538.48 351.089 1604.47 350.714C1623.22 350.621 1641.96 350.564 1660.71 350.546C1661.26 350.546 1661.8 350.324 1662.2 349.928C1662.59 349.533 1662.81 348.996 1662.81 348.437C1662.81 347.878 1662.59 347.341 1662.2 346.946C1661.8 346.551 1661.26 346.328 1660.71 346.328C1594.72 346.328 1528.74 346.956 1462.76 348.212C1444.01 348.568 1425.3 348.967 1406.61 349.407C1406.29 349.412 1405.97 349.49 1405.68 349.635C1405.39 349.781 1405.14 349.99 1404.94 350.247C1404.75 350.504 1404.61 350.803 1404.55 351.12C1404.48 351.437 1404.49 351.765 1404.57 352.078C1405.35 355.466 1408.24 357.42 1411.04 359.107C1412.22 359.824 1414.58 360.667 1415.26 361.918C1416.66 364.351 1411.5 364.73 1409.84 365.096L1366.95 374.571C1338.7 380.798 1309.32 388.108 1280.4 381.965C1277.76 381.403 1276.62 385.465 1279.27 386.028L1279.26 385.985Z" fill="#484D6D"/>
<path d="M1504.95 364.716L1627.92 365.433C1628.48 365.433 1629.02 365.211 1629.41 364.815C1629.81 364.42 1630.03 363.883 1630.03 363.324C1630.03 362.765 1629.81 362.228 1629.41 361.833C1629.02 361.438 1628.48 361.215 1627.92 361.215L1504.95 360.498C1504.39 360.498 1503.85 360.721 1503.45 361.116C1503.06 361.511 1502.84 362.048 1502.84 362.607C1502.84 363.166 1503.06 363.703 1503.45 364.098C1503.85 364.494 1504.39 364.716 1504.95 364.716Z" fill="#484D6D"/>
<path d="M1548.48 375.723H1576.78C1577.34 375.723 1577.88 375.501 1578.27 375.106C1578.67 374.71 1578.89 374.174 1578.89 373.615C1578.89 373.055 1578.67 372.519 1578.27 372.124C1577.88 371.728 1577.34 371.506 1576.78 371.506H1548.48C1547.92 371.506 1547.39 371.728 1546.99 372.124C1546.6 372.519 1546.37 373.055 1546.37 373.615C1546.37 374.174 1546.6 374.71 1546.99 375.106C1547.39 375.501 1547.92 375.723 1548.48 375.723Z" fill="#484D6D"/>
<path d="M1701.94 361.483L1856.49 357.364C1859.19 357.293 1859.2 353.076 1856.49 353.146L1701.94 357.265C1699.22 357.336 1699.21 361.553 1701.94 361.483Z" fill="#484D6D"/>
<path d="M1712.82 322.388H1758.66L1756.64 319.717C1756.19 323.049 1749.27 324.258 1746.6 325.101C1743.08 326.212 1739.57 327.224 1736.07 328.447C1729.6 330.724 1723.42 333.747 1718.79 338.878C1718.51 339.177 1718.32 339.552 1718.25 339.957C1718.17 340.361 1718.22 340.778 1718.38 341.158C1718.53 341.538 1718.8 341.865 1719.13 342.099C1719.47 342.332 1719.87 342.464 1720.28 342.477L1753.11 343.728C1755.82 343.84 1755.81 339.623 1753.11 339.51L1720.28 338.259L1721.77 341.858C1727.4 335.63 1735.35 333.002 1743.18 330.612C1746.87 329.473 1750.56 328.391 1754.15 326.985C1757.06 325.846 1760.23 324.328 1760.7 320.884C1760.78 320.571 1760.78 320.244 1760.72 319.928C1760.65 319.612 1760.52 319.315 1760.32 319.058C1760.13 318.802 1759.87 318.592 1759.59 318.446C1759.3 318.3 1758.98 318.22 1758.66 318.213H1712.82C1712.26 318.213 1711.72 318.435 1711.33 318.83C1710.93 319.226 1710.71 319.762 1710.71 320.321C1710.71 320.881 1710.93 321.417 1711.33 321.812C1711.72 322.208 1712.26 322.43 1712.82 322.43V322.388Z" fill="#484D6D"/>
</g>
</svg>
