<svg width="201" height="54" viewBox="0 0 201 54" fill="none" xmlns="http://www.w3.org/2000/svg">
<path d="M0.672138 35.5482C0.672138 25.441 -0.840173 15.264 0.672138 5.24489L1.38985 1.65634C16.1451 1.65634 30.6175 0.649121 45.4892 2.21456C51.6324 2.86121 58.0071 2.37405 64.1895 2.37405C70.2983 2.37405 76.3743 3.09176 82.4513 3.09176H116.303C125.884 3.09176 135.215 0.93863 144.772 0.93863C152.046 0.93863 159.217 0.22092 166.463 0.22092H189.988C192.203 0.22092 196.424 -0.54644 197.484 0.779139C199.793 3.66458 197.583 11.8701 198.082 15.6118C199.263 24.4632 200.196 33.175 200.196 42.207C200.196 45.6419 200.79 51.65 196.607 51.8961C194.694 52.0086 192.42 52.6138 190.148 52.6138C183.409 52.6138 176.802 53.3315 170.132 53.3315H69.5723C62.6039 53.3315 0.672138 53.2622 0.672138 50.8195V35.5482Z" fill="#F14F51"/>
<path d="M57.8789 18.2578C56.9766 18.2578 56.1562 18.5508 55.3945 19.1484C54.9141 19.4414 54.5625 19.957 54.3633 20.6953C54.3984 21.1055 54.4336 21.3398 54.457 21.3984C54.4219 21.457 54.4102 21.5156 54.4102 21.5859V22.1016C54.4102 22.2188 54.5039 22.7344 54.6914 23.6484C54.8203 24.5625 55.3242 25.7227 56.1914 27.1172C56.2852 27.5742 56.5312 28.1602 56.9414 28.8516C57.1055 29.6484 57.2812 30.1055 57.457 30.2109V30.7734C57.6797 31.3828 57.8438 32.2734 57.9258 33.4453C57.8906 33.8438 57.832 34.3125 57.7383 34.8516H57.6914C57.4922 34.6992 57.293 34.2305 57.082 33.4453C56.6953 32.2617 56.1445 31.6641 55.4414 31.6641C55.2188 31.6758 55.1133 31.6992 55.1133 31.7578C54.4922 31.7578 54.1758 32.0508 54.1758 32.6484V32.9766C54.1758 33.3398 54.2812 33.6914 54.5039 34.0078C54.6094 34.582 54.8672 35.1211 55.2539 35.6016C55.6172 36.5039 56.3789 36.9609 57.5508 36.9609C57.5859 36.9258 57.7031 36.9141 57.8789 36.9141C58.5586 36.9141 58.9922 36.7266 59.1914 36.3516C59.7773 35.707 60.2109 35.0039 60.5039 34.2422C60.5391 33.5742 60.5977 33.0938 60.6914 32.7891C60.6328 32.1328 60.5977 31.6055 60.5977 31.1953V30.8672C60.5977 30.832 60.5156 30.3867 60.3633 29.5547C60.082 28.6758 59.8945 27.9727 59.8008 27.4453C59.3672 26.25 58.6523 24.7852 57.6445 23.0391C57.3047 22.1133 57.1289 21.4219 57.1289 20.9766V20.6484C57.3984 20.6484 57.8438 21.0352 58.4414 21.8203C58.6289 22.5469 58.7812 23.0156 58.9102 23.2266C59.0977 23.4727 59.5078 23.6602 60.1289 23.7891C61.0664 23.7891 61.5352 23.6133 61.5352 23.2734C61.4766 22.1602 61.3828 21.4102 61.2539 21.0234C60.3516 19.1836 59.2266 18.2578 57.8789 18.2578ZM68.7539 17.6719C68.0039 17.7539 67.6289 17.918 67.6289 18.1406C67.6289 21.8438 67.582 24.4688 67.4883 26.0156C67.4883 26.3086 67.5234 26.707 67.582 27.2344C67.5469 27.7852 67.4766 28.5117 67.3477 29.3906C67.3828 30.2578 67.3945 31.0547 67.3945 31.7812L67.3477 32.0156H67.207C67.0781 32.0156 66.8203 32.0625 66.4102 32.1562H66.3633C66.2109 31.1602 66.1289 30.293 66.1289 29.5781C65.9062 28.0781 65.8008 27.1406 65.8008 26.7656C65.8008 26.707 65.8125 26.3555 65.8477 25.7344C65.8125 24.9492 65.7891 24.4805 65.7539 24.3281C65.8125 24.1758 65.8477 23.8945 65.8477 23.4844V23.4375C65.8477 22.8164 65.7656 22.0664 65.6133 21.1875C65.6484 20.8008 65.6602 20.5898 65.6602 20.5781C65.5781 19.8281 65.4727 19.4531 65.332 19.4531C65.332 18.9492 65.0625 18.7031 64.5352 18.7031C64.4062 18.7031 64.2891 18.7148 64.1602 18.75C64.0312 18.7148 63.9258 18.7031 63.832 18.7031C63.082 18.8086 62.707 19.0078 62.707 19.3125L62.8945 20.9531C62.8945 21.2227 62.8477 22.1367 62.7539 23.7188C62.6016 24.9844 62.5195 25.875 62.5195 26.3906V26.7188C62.5195 29.4023 62.4727 30.9023 62.3789 31.2188C62.3789 32.8242 62.4844 34.2891 62.707 35.625C62.707 36.6914 63.1172 37.2188 63.9258 37.2188H64.3008C64.4062 37.2188 64.5469 37.207 64.7227 37.1719C65.0156 36.9258 65.1914 36.7969 65.2383 36.7969C65.2969 36.832 65.3555 36.8438 65.4258 36.8438H65.6602C65.8242 36.8438 66 36.75 66.1758 36.5625C66.4688 36.5625 66.6445 36.1406 66.6914 35.2969C66.5625 34.4648 66.5039 33.9727 66.5039 33.7969V33.75C66.5039 33.6211 66.8203 33.5625 67.4414 33.5625C67.5 33.5625 67.5352 33.5977 67.5352 33.6562V33.75C67.5352 34.4648 67.6875 35.2266 68.0039 36.0469C68.1445 36.4805 68.5195 36.7031 69.1289 36.7031C69.4453 36.668 69.6797 36.6562 69.832 36.6562C70.4883 36.5859 70.8164 36.4102 70.8164 36.1406V36.0469C70.8164 35.7656 70.7695 35.4961 70.6758 35.25C70.7344 34.8867 70.7695 34.3828 70.7695 33.75C70.7695 33.668 70.7578 33.5508 70.7227 33.375C70.8164 33.1875 70.8633 32.8477 70.8633 32.3438V31.6875C70.8633 31.3711 70.8164 30.9844 70.7227 30.5156L70.9102 29.625C70.9102 29.2617 70.8984 28.8867 70.8633 28.5C70.8984 28.1719 70.9102 27.9023 70.9102 27.7031C70.875 27.5391 70.8633 27.4453 70.8633 27.4219C70.8633 27.3984 70.957 26.8711 71.1445 25.8281C71.1445 25.7695 71.1328 25.7344 71.0977 25.7344C71.0391 24.4219 70.9688 23.4727 70.9102 22.875C70.9688 22.3711 71.0039 22.0664 71.0039 21.9375C71.0039 21.4805 70.8984 20.8477 70.6758 20.0625C70.6758 18.9844 70.5703 18.3398 70.3477 18.1406C70.2188 17.8242 69.7969 17.6719 69.082 17.6719H68.7539ZM76.0547 18.7852C75.293 18.7852 74.8477 18.9727 74.7422 19.3477C74.2852 19.5352 73.9805 19.7812 73.8516 20.0977C73.8516 20.4609 73.6523 21.5156 73.2422 23.2383C72.7734 26.3438 72.4102 28.582 72.1641 29.9414C72.1992 30.5391 72.2109 30.9375 72.2109 31.1133C71.9883 32.4375 71.8828 33.5156 71.8828 34.3477V34.9102C72.0703 35.625 72.5977 35.9883 73.4766 35.9883C73.6055 35.9883 73.793 35.8945 74.0391 35.707C74.2617 35.6016 74.3672 35.2617 74.3672 34.6758C74.5898 34.2656 74.7305 33.9141 74.7891 33.6445C74.7656 33.6445 74.7188 33.4102 74.6484 32.9414C74.7422 32.6016 74.7891 32.3555 74.7891 32.1914V31.9102L74.7422 31.8164C74.8008 31.6875 74.8477 31.6289 74.8828 31.6289H75.1641C75.8203 31.6641 76.1602 31.7227 76.1953 31.8164C76.3008 33.375 76.6875 34.8281 77.3672 36.1758C77.4961 36.4922 77.9414 36.6445 78.6797 36.6445C79.1133 36.6445 79.4766 36.5625 79.7578 36.4102C80.0039 36.4102 80.1328 36.1758 80.1328 35.707V35.4727C80.1328 35.3672 80.0859 34.6875 79.9922 33.4102V33.3633L80.0391 33.2695C79.9453 32.707 79.8516 32.4258 79.7578 32.4258C79.7578 32.3672 79.7695 32.1797 79.8047 31.8633C79.8047 31.6758 79.7578 31.4766 79.6641 31.2539C79.7227 31.0078 79.7578 30.8438 79.7578 30.7852C79.7578 30.6914 79.6992 30.4688 79.5703 30.1289L79.7109 29.2852C79.6758 28.875 79.6055 28.5469 79.5234 28.3008C79.5234 27.5742 79.3945 26.8359 79.1484 26.0977C79.0547 25.125 78.9492 24.6445 78.8203 24.6445C78.8789 24.5391 78.9141 24.4453 78.9141 24.3633C78.9141 24.1406 78.832 23.8008 78.6797 23.332C78.5977 23.0977 78.4805 22.6406 78.3516 21.9727C78.0352 21.5156 77.8828 21.1172 77.8828 20.8008C77.2266 19.4531 76.6289 18.7852 76.1016 18.7852H76.0547ZM75.6328 24.1289C75.9492 25.4062 76.1016 26.5547 76.1016 27.5508V27.7852C76.1016 28.1016 76.0547 28.5117 75.9609 29.0039C76.0195 29.5312 76.0547 29.8828 76.0547 30.0352V30.082H75.6328C75.4805 30.082 75.2461 30.0703 74.9297 30.0352C74.9297 29.6953 74.9766 29.2852 75.0703 28.8164C75.0352 28.5234 75.0234 28.2422 75.0234 27.9727V27.8789C75.2461 26.7656 75.4336 25.5117 75.5859 24.1289H75.6328ZM86.9297 18.8438C86.8242 18.8438 86.625 18.9492 86.3203 19.1719C85.8867 19.5703 85.5 20.2383 85.1484 21.1875C84.8906 22.1602 84.7148 22.6875 84.6328 22.7812V22.5469C84.4453 21.1172 84.3516 20.2852 84.3516 20.0625C84.3516 19.4297 83.9297 19.0547 83.0859 18.9375C83.0273 18.9727 82.9688 18.9844 82.8984 18.9844H82.0547C81.4336 19.1133 81.1172 19.3242 81.1172 19.5938V20.625C80.9648 22.4648 80.8828 23.6133 80.8828 24.0938C80.918 24.3164 80.9297 24.4336 80.9297 24.4688C80.8711 24.4688 80.8242 24.75 80.7891 25.3125C80.7891 25.4883 80.8359 25.6523 80.9297 25.8281H80.8828C80.8477 26.4492 80.8359 26.8008 80.8359 26.8594C80.8711 28.0781 80.918 28.6875 80.9766 28.6875L80.9297 28.9688C80.9297 29.6133 81.1641 31.4414 81.6328 34.4531C81.832 35.5781 82.3242 36.1406 83.0859 36.1406C84.457 35.918 85.1484 35.6016 85.1484 35.2031V35.1562L84.9609 32.1094C84.9609 31.8633 85.0078 31.4531 85.1016 30.8906H85.1484C85.1484 31.0547 85.3945 31.8164 85.8984 33.1875C86.2383 34.6055 86.5078 35.4727 86.6953 35.7656C86.6953 36.0469 87.0586 36.1992 87.7734 36.2344C88.7695 36.2344 89.2734 35.9531 89.2734 35.3906C89.2734 35.0391 89.2148 34.6641 89.0859 34.2656L89.1328 33.9844V33.7969C89.1328 33.5273 89.0508 33.2109 88.8984 32.8594C88.8984 32.1211 88.7695 31.5586 88.5234 31.1719V30.9375C88.5234 30.7383 88.5117 30.5273 88.4766 30.3281C88.3242 29.1445 88.1016 28.4531 87.8203 28.2656C87.8203 27.6914 87.6445 27.1758 87.3047 26.7188C86.7188 26.168 86.3438 25.6289 86.1797 25.0781C86.1797 24.8789 86.2383 24.6445 86.3672 24.375C86.8711 23.4141 87.1172 22.8164 87.1172 22.5938C87.2695 22.3711 87.3516 22.207 87.3516 22.0781C87.5977 21.7148 87.9141 20.8594 88.2891 19.5C88.2891 19.0664 87.9609 18.8438 87.3047 18.8438H86.9297ZM91.5703 18.9375C91.5703 18.9727 91.4062 18.9844 91.0664 18.9844C90.3984 19.2305 90.0703 19.4883 90.0703 19.7344V20.6602C90.0703 20.8242 90.0586 21.0352 90.0234 21.2812C90.0586 21.3398 90.082 21.4805 90.1172 21.6797C90.082 21.832 90.0703 21.9727 90.0703 22.1133V22.2891C90.0703 22.3711 90.0938 22.5 90.1523 22.6875L89.9297 25.5586C89.9648 26.4844 89.9883 26.9883 90.0234 27.0586L89.9297 28.0781C89.9883 28.8398 90.0586 29.3203 90.1172 29.5312C90.0586 30.2109 90.0234 30.7852 90.0234 31.2539C90.0234 32.7656 90.1992 34.3008 90.5391 35.8594C91.1133 36.2344 92.0859 36.3633 93.4688 36.2578C95.2148 36.293 96.2461 35.8828 96.5625 35.0039C96.5625 34.6523 96.1992 34.4766 95.4727 34.4766C94.8984 34.5352 94.3359 34.5703 93.7852 34.5703C93.5742 34.5703 93.4688 34.4766 93.4688 34.3008V34.2188C93.4688 34.043 93.4805 33.8086 93.5156 33.5039C93.3984 33.0703 93.3398 32.3086 93.3398 31.207V30.7734L93.3867 30.2461C93.293 30.0703 93.2344 29.8594 93.1992 29.625C93.2578 28.9102 93.293 28.4531 93.293 28.2539V27.5859C93.293 27.4336 93.2812 27.1875 93.2461 26.8359C93.2812 26.8359 93.293 26.7891 93.293 26.707L93.2461 26.625H93.4219C94.2422 26.332 94.6992 26.1797 94.793 26.1797C95.3555 26.1797 95.7305 25.9453 95.9297 25.4766C95.9297 25.2773 95.8359 25.1016 95.6484 24.9375C95.6484 24.832 95.0625 24.6328 93.8789 24.3633C93.4922 24.3984 93.2695 24.4102 93.1992 24.4102C93.1289 24.4102 93.0703 24.1875 93.0234 23.7539L93.2461 23.1328C93.2109 22.7461 93.1992 22.4414 93.1992 22.207V22.1133C93.1992 21.9141 93.2461 21.6914 93.3398 21.457C93.3984 21.457 93.457 21.4688 93.5156 21.5039L93.6094 21.457V21.5039L93.832 21.457H94.3828C95.6016 21.457 96.4219 21.0469 96.832 20.2148C96.832 19.8398 96.6094 19.5352 96.1523 19.2891C95.4375 19.2539 94.6875 19.1953 93.8789 19.1133C93.6211 19.1133 93.4219 19.1484 93.293 19.207C93.0352 19.1133 92.4609 19.0195 91.5703 18.9375ZM107.508 18.7852C106.746 18.7852 106.301 18.9727 106.195 19.3477C105.738 19.5352 105.434 19.7812 105.305 20.0977C105.305 20.4609 105.105 21.5156 104.695 23.2383C104.227 26.3438 103.863 28.582 103.617 29.9414C103.652 30.5391 103.664 30.9375 103.664 31.1133C103.441 32.4375 103.336 33.5156 103.336 34.3477V34.9102C103.523 35.625 104.051 35.9883 104.93 35.9883C105.059 35.9883 105.246 35.8945 105.492 35.707C105.715 35.6016 105.82 35.2617 105.82 34.6758C106.043 34.2656 106.184 33.9141 106.242 33.6445C106.219 33.6445 106.172 33.4102 106.102 32.9414C106.195 32.6016 106.242 32.3555 106.242 32.1914V31.9102L106.195 31.8164C106.254 31.6875 106.301 31.6289 106.336 31.6289H106.617C107.273 31.6641 107.613 31.7227 107.648 31.8164C107.754 33.375 108.141 34.8281 108.82 36.1758C108.949 36.4922 109.395 36.6445 110.133 36.6445C110.566 36.6445 110.93 36.5625 111.211 36.4102C111.457 36.4102 111.586 36.1758 111.586 35.707V35.4727C111.586 35.3672 111.539 34.6875 111.445 33.4102V33.3633L111.492 33.2695C111.398 32.707 111.305 32.4258 111.211 32.4258C111.211 32.3672 111.223 32.1797 111.258 31.8633C111.258 31.6758 111.211 31.4766 111.117 31.2539C111.176 31.0078 111.211 30.8438 111.211 30.7852C111.211 30.6914 111.152 30.4688 111.023 30.1289L111.164 29.2852C111.129 28.875 111.059 28.5469 110.977 28.3008C110.977 27.5742 110.848 26.8359 110.602 26.0977C110.508 25.125 110.402 24.6445 110.273 24.6445C110.332 24.5391 110.367 24.4453 110.367 24.3633C110.367 24.1406 110.285 23.8008 110.133 23.332C110.051 23.0977 109.934 22.6406 109.805 21.9727C109.488 21.5156 109.336 21.1172 109.336 20.8008C108.68 19.4531 108.082 18.7852 107.555 18.7852H107.508ZM107.086 24.1289C107.402 25.4062 107.555 26.5547 107.555 27.5508V27.7852C107.555 28.1016 107.508 28.5117 107.414 29.0039C107.473 29.5312 107.508 29.8828 107.508 30.0352V30.082H107.086C106.934 30.082 106.699 30.0703 106.383 30.0352C106.383 29.6953 106.43 29.2852 106.523 28.8164C106.488 28.5234 106.477 28.2422 106.477 27.9727V27.8789C106.699 26.7656 106.887 25.5117 107.039 24.1289H107.086ZM116.695 17.9531C115.734 17.9531 114.902 18.375 114.211 19.2188C113.59 20.0273 113.215 20.8945 113.086 21.7969C112.559 25.207 112.301 27.5508 112.289 28.8281L112.242 29.0625C112.277 29.0625 112.289 29.0742 112.289 29.1094C112.289 29.25 112.277 29.3438 112.242 29.3906C112.277 29.5664 112.289 29.707 112.289 29.8125V30.0469C112.289 30.457 112.336 31.2188 112.43 32.3438C112.395 32.3438 112.383 32.3555 112.383 32.3906C112.383 33.293 112.605 34.1367 113.039 34.9219C113.566 36.1758 113.965 36.7969 114.211 36.7969C114.562 36.7617 114.832 36.7148 115.008 36.6562C115.066 36.6914 115.125 36.7031 115.195 36.7031H115.477C115.559 36.7031 115.652 36.668 115.758 36.6094C116.004 36.7031 116.168 36.75 116.273 36.75H116.32C117.105 36.75 117.926 36.4219 118.758 35.7656C118.758 35.8945 118.84 36.1289 118.992 36.4688C119.344 36.7852 119.719 36.9375 120.117 36.9375L120.211 36.8906V36.9375C120.715 36.8203 120.961 36.668 120.961 36.4688C120.961 36.1289 120.914 35.4727 120.82 34.5C120.914 34.2891 120.961 34.1133 120.961 33.9844V33.5625C121.09 33.4219 121.148 33.3164 121.148 33.2344C121.148 33.0117 121.043 32.2383 120.82 30.9375C120.668 30.4102 120.551 29.625 120.492 28.5938C120.246 28.1836 120.117 27.7383 120.117 27.2344C120.035 26.8945 119.555 26.7188 118.664 26.7188H118.617L118.523 26.6719V26.7188L118.289 26.6719H118.242C117.012 26.6719 115.91 26.9648 114.961 27.5625C114.961 27.1289 115.008 26.8008 115.102 26.5781C115.066 26.3555 115.02 26.1445 114.961 25.9688L115.195 25.2656L115.383 23.7656V23.4844L115.336 23.25L116.086 20.8125C116.086 20.3203 116.227 20.0273 116.508 19.9219H116.555V20.1562C116.555 20.4023 116.543 20.6133 116.508 20.8125C116.637 22.2891 116.695 23.1797 116.695 23.4844L116.742 23.5781C116.707 23.5781 116.695 23.5898 116.695 23.625V24.1406C116.695 24.4336 116.777 24.7148 116.93 24.9844C117.152 25.582 117.68 25.875 118.523 25.875C119.402 25.875 119.836 25.6289 119.836 25.125C119.836 24.9492 119.789 24.7031 119.695 24.375L119.836 23.7188C119.801 23.7188 119.754 23.5781 119.695 23.2969C119.695 23.2031 119.73 23.0742 119.789 22.9219L119.742 22.3594C119.742 22.1836 119.777 21.9492 119.836 21.6562C119.836 21.4805 119.801 21.1758 119.742 20.7656C119.801 20.6367 119.836 20.4727 119.836 20.25C119.836 20.1445 119.824 20.0039 119.789 19.8281C119.285 18.5742 118.348 17.9531 116.977 17.9531H116.695ZM115.008 28.4062C115.383 28.5586 115.91 28.6406 116.602 28.6406H116.742V28.6875C116.613 29.6836 116.555 30.3047 116.555 30.5625V31.6406C116.555 31.957 116.414 32.4492 116.133 33.0938C116.051 33.6914 115.875 34.1133 115.617 34.3594C115.559 34.3594 115.535 34.3242 115.523 34.2656C115.242 33.5039 115.055 32.7773 114.961 32.0625C114.961 31.9102 114.996 31.7227 115.055 31.5C114.996 31.0781 114.961 30.7617 114.961 30.5625C114.961 30.4922 114.973 30.3164 115.008 30.0469C114.973 30.0469 114.961 30.0352 114.961 30C114.996 29.9414 115.008 29.8945 115.008 29.8594C115.008 29.7656 114.996 29.6602 114.961 29.5312L115.008 29.2969C115.008 29.2266 114.996 29.168 114.961 29.1094L115.008 28.8281V28.4062ZM125.859 18.7852C125.098 18.7852 124.652 18.9727 124.547 19.3477C124.09 19.5352 123.785 19.7812 123.656 20.0977C123.656 20.4609 123.457 21.5156 123.047 23.2383C122.578 26.3438 122.215 28.582 121.969 29.9414C122.004 30.5391 122.016 30.9375 122.016 31.1133C121.793 32.4375 121.688 33.5156 121.688 34.3477V34.9102C121.875 35.625 122.402 35.9883 123.281 35.9883C123.41 35.9883 123.598 35.8945 123.844 35.707C124.066 35.6016 124.172 35.2617 124.172 34.6758C124.395 34.2656 124.535 33.9141 124.594 33.6445C124.57 33.6445 124.523 33.4102 124.453 32.9414C124.547 32.6016 124.594 32.3555 124.594 32.1914V31.9102L124.547 31.8164C124.605 31.6875 124.652 31.6289 124.688 31.6289H124.969C125.625 31.6641 125.965 31.7227 126 31.8164C126.105 33.375 126.492 34.8281 127.172 36.1758C127.301 36.4922 127.746 36.6445 128.484 36.6445C128.918 36.6445 129.281 36.5625 129.562 36.4102C129.809 36.4102 129.938 36.1758 129.938 35.707V35.4727C129.938 35.3672 129.891 34.6875 129.797 33.4102V33.3633L129.844 33.2695C129.75 32.707 129.656 32.4258 129.562 32.4258C129.562 32.3672 129.574 32.1797 129.609 31.8633C129.609 31.6758 129.562 31.4766 129.469 31.2539C129.527 31.0078 129.562 30.8438 129.562 30.7852C129.562 30.6914 129.504 30.4688 129.375 30.1289L129.516 29.2852C129.48 28.875 129.41 28.5469 129.328 28.3008C129.328 27.5742 129.199 26.8359 128.953 26.0977C128.859 25.125 128.754 24.6445 128.625 24.6445C128.684 24.5391 128.719 24.4453 128.719 24.3633C128.719 24.1406 128.637 23.8008 128.484 23.332C128.402 23.0977 128.285 22.6406 128.156 21.9727C127.84 21.5156 127.688 21.1172 127.688 20.8008C127.031 19.4531 126.434 18.7852 125.906 18.7852H125.859ZM125.438 24.1289C125.754 25.4062 125.906 26.5547 125.906 27.5508V27.7852C125.906 28.1016 125.859 28.5117 125.766 29.0039C125.824 29.5312 125.859 29.8828 125.859 30.0352V30.082H125.438C125.285 30.082 125.051 30.0703 124.734 30.0352C124.734 29.6953 124.781 29.2852 124.875 28.8164C124.84 28.5234 124.828 28.2422 124.828 27.9727V27.8789C125.051 26.7656 125.238 25.5117 125.391 24.1289H125.438ZM133.371 17.6836C132.621 17.6836 131.906 17.7891 131.215 18.0117C130.98 18.3281 130.828 18.6445 130.758 18.9492L130.887 19.7578C131.016 20.3789 131.602 20.6953 132.656 20.7188C133.699 20.625 134.215 20.5547 134.215 20.4961C134.871 19.9102 135.199 19.3594 135.199 18.8555C135.199 18.0703 134.59 17.6836 133.371 17.6836ZM132.574 22.418C132.363 22.418 132.176 22.4297 132.012 22.4648C131.449 22.6875 131.168 22.9219 131.168 23.168V23.5898C131.168 24.0938 131.156 24.5625 131.121 24.9961C130.969 26.2969 130.852 27.375 130.793 28.2305L130.887 30.0117C130.828 30.832 130.793 31.3477 130.793 31.5586L131.074 35.2617C131.074 35.9531 131.18 36.375 131.402 36.5273C131.508 36.8672 131.812 37.043 132.34 37.043H132.574C133.137 37.043 133.57 36.9609 133.887 36.8086C134.508 36.7266 134.824 36.5391 134.824 36.2461V36.0117L134.449 32.2617C134.484 32.2617 134.566 31.8047 134.684 30.9023C134.59 30.3281 134.543 29.9062 134.543 29.6367C134.637 28.7578 134.684 28.2188 134.684 27.9961V27.7148L134.637 27.4805C134.766 27.1523 134.824 26.8242 134.824 26.4961V26.2617C134.824 26.0039 134.777 25.8047 134.684 25.6523C134.777 25.3828 134.824 25.2188 134.824 25.1367C134.824 24.7852 134.742 24.2812 134.59 23.6367C134.438 22.8281 133.875 22.418 132.902 22.418H132.574ZM143.273 18.1406C142.711 18.2109 142.43 18.3867 142.43 18.6562V19.6406C142.43 19.8516 142.383 20.3086 142.289 21V21.6094C142.289 21.7617 142.301 21.9141 142.336 22.0781C142.301 22.1953 142.289 22.3359 142.289 22.5V22.7812C142.289 23.0273 142.301 23.2383 142.336 23.3906C142.301 23.5195 142.289 23.9883 142.289 24.7969C142.137 26.3555 142.055 27.2461 142.055 27.4688H142.008C142.008 27.1523 141.961 26.9766 141.867 26.9531C141.715 25.6992 141.504 24.9023 141.258 24.5625C141.258 23.8008 141.07 23.2383 140.695 22.875C140.695 22.2305 140.543 21.7266 140.227 21.375C140.086 20.918 139.945 20.5547 139.805 20.2969C139.441 19.8984 139.242 19.6055 139.195 19.4062C139.195 19.125 138.574 18.9844 137.32 18.9844C137.039 18.9844 136.805 19.0312 136.617 19.125C136.301 19.125 136.148 19.5117 136.148 20.2969C136.148 20.543 136.16 20.9766 136.195 21.6094C136.102 23.3906 135.973 25.1367 135.82 26.8594C135.879 27.3867 135.914 27.7852 135.914 28.0781C135.914 28.2539 135.902 28.5117 135.867 28.8281L135.914 29.1094C135.855 29.4492 135.82 29.6602 135.82 29.7656C135.82 30.0938 135.879 30.7148 136.008 31.6406C136.008 31.8164 135.961 32.5898 135.867 33.9375C135.867 35.1211 136.418 35.7188 137.508 35.7188C137.871 35.7188 138.258 35.5781 138.68 35.2969C138.762 35.168 138.844 34.4531 138.914 33.1406C138.914 32.9648 138.879 32.0625 138.82 30.4219V30.2344C138.82 30.082 138.832 29.8477 138.867 29.5312H138.914L139.617 32.0156C140.121 33.5039 140.426 34.5117 140.555 35.0156C140.941 35.6719 141.375 36 141.867 36C143.59 35.6484 144.445 35.0391 144.445 34.1719L144.398 33.5156C144.492 32.9648 144.539 32.6367 144.539 32.5312C144.539 32.332 144.527 31.9336 144.492 31.3125C144.621 30.8438 144.68 29.9414 144.68 28.5938C144.68 28.5234 144.668 28.3477 144.633 28.0781C144.727 27.8086 144.773 27.4102 144.773 26.8594V26.8125C144.773 26.2734 144.738 25.8516 144.68 25.5469C144.773 25.3242 144.82 25.0078 144.82 24.6094V24.5625C144.82 23.8828 144.773 23.3203 144.68 22.875L144.773 20.6719C144.715 20.4258 144.586 20.0977 144.398 19.6875C144.352 18.9961 144.305 18.6562 144.258 18.6562C144.258 18.3164 144.012 18.1406 143.508 18.1406H143.273ZM142.008 27.6562V27.7969H141.961V27.6562H142.008Z" fill="white"/>
</svg>
