<svg width="201" height="54" viewBox="0 0 201 54" fill="none" xmlns="http://www.w3.org/2000/svg">
<path d="M0.672138 35.5482C0.672138 25.441 -0.840173 15.264 0.672138 5.24489L1.38985 1.65634C16.1451 1.65634 30.6175 0.649121 45.4892 2.21456C51.6324 2.86121 58.0071 2.37405 64.1895 2.37405C70.2983 2.37405 76.3743 3.09176 82.4513 3.09176H116.303C125.884 3.09176 135.215 0.93863 144.772 0.93863C152.046 0.93863 159.217 0.22092 166.463 0.22092H189.988C192.203 0.22092 196.424 -0.54644 197.484 0.779139C199.793 3.66458 197.583 11.8701 198.082 15.6118C199.263 24.4632 200.196 33.175 200.196 42.207C200.196 45.6419 200.79 51.65 196.607 51.8961C194.694 52.0086 192.42 52.6138 190.148 52.6138C183.409 52.6138 176.802 53.3315 170.132 53.3315H69.5723C62.6039 53.3315 0.672138 53.2622 0.672138 50.8195V35.5482Z" fill="#F14F51"/>
</svg>
