<svg width="10" height="10" viewBox="0 0 10 10" fill="none" xmlns="http://www.w3.org/2000/svg">
<path d="M3.38888 2.98712C4.49812 0.967443 6.91027 2.42162 7.01591 4.38071C7.01873 5.01356 6.90471 5.63994 6.68138 6.21862C6.11795 7.91516 4.26923 6.84473 3.82905 5.53194C3.60016 4.84525 3.58258 3.04773 4.1284 2.6236C4.67421 2.19946 5.7482 2.62356 6.34684 3.08808C7.57933 3.93635 9.0231 5.89545 7.56172 7.39001C6.9475 7.87814 6.21385 8.12948 5.46687 8.1077C4.71988 8.08591 3.99831 7.79213 3.4065 7.26884C2.96633 7.00628 1.98031 6.46096 1.83946 5.87525C1.4521 4.3201 2.6846 4.2393 3.4417 4.15851C4.18187 4.08105 4.9277 4.11504 5.66019 4.25953C6.0058 4.31788 6.34712 4.40565 6.68138 4.5221C7.56172 4.15856 7.47372 4.27972 6.38209 4.88563C5.29045 5.49153 5.06154 4.70386 4.32205 4.32012C4.11076 3.67382 3.74101 3.55264 3.2128 3.93638C2.84305 3.93638 2.63177 4.13836 2.61417 4.5221L1.99797 5.22894C2.75507 4.90579 4.28686 5.89548 5.00874 6.15804C6.08277 6.56197 6.55814 4.62308 5.48411 4.13836C4.41009 3.65363 1.96274 2.11863 0.994355 3.65359C0.237255 4.8654 1.38172 6.21862 2.43814 6.21862C3.05936 6.19616 3.66297 5.97663 4.18202 5.58445C4.70107 5.19228 5.11521 4.64279 5.37848 3.99696C5.83626 2.44181 4.46291 1.27037 3.1776 1.57332C1.89229 1.87627 1.83946 3.16892 2.22681 4.27975C2.52057 5.07005 3.00444 5.74804 3.62181 6.23446C4.23917 6.72089 4.96453 6.9956 5.71301 7.02648C6.87507 7.02648 8.81183 6.31963 9.05833 4.78467C9.30483 3.24971 7.17438 2.48219 6.08275 2.28022C4.4893 1.85456 2.81938 2.01716 1.31127 2.74477C1.01104 2.93094 0.747239 3.1856 0.536073 3.49315C0.324907 3.8007 0.170856 4.15459 0.0834327 4.53301C-0.00399026 4.91143 -0.0229657 5.3064 0.0277124 5.69355C0.0783905 6.08069 0.197644 6.45185 0.3781 6.78413C1.8923 9.63188 6.13559 11.086 8.53014 9.04616C11.6642 6.35999 9.23442 2.03786 6.38209 0.704875C2.86069 -0.910869 0.818296 3.41125 2.49096 6.76392C2.91839 7.6204 3.57062 8.30024 4.35472 8.70643C5.13881 9.11262 6.01469 9.22442 6.85746 9.02595C7.52429 8.49652 8.05877 7.7762 8.40779 6.9365C8.75682 6.09679 8.90826 5.16693 8.84705 4.23932C8.82454 3.32497 8.55205 2.44189 8.0681 1.7149C7.58415 0.98791 6.91321 0.453826 6.15018 0.188121C5.38715 -0.0775846 4.57065 -0.0614736 3.81605 0.234224C3.06145 0.529922 2.40692 1.09021 1.94509 1.83589C1.32885 2.92652 2.84308 3.85557 3.45932 2.84573L3.38888 2.98712Z" fill="#242638"/>
</svg>
