<svg width="326" height="420" viewBox="0 0 326 420" fill="none" xmlns="http://www.w3.org/2000/svg">
<path opacity="0.1" d="M32.507 407.412C39.6817 405.966 46.9278 404.902 54.2148 404.222C66.5682 403.284 78.9897 404.546 91.3772 403.898C101.107 403.404 110.751 401.732 120.48 401.05C122.422 400.896 124.74 400.964 125.847 402.585C126.37 403.423 126.558 404.428 126.376 405.399C125.83 409.203 121.962 411.591 118.299 412.699C114.235 413.786 110.063 414.415 105.86 414.576C89.98 415.736 74.0143 416.435 58.3724 419.403C55.4928 419.949 52.3576 420.529 49.8528 419.13C47.5866 417.902 46.2916 415.411 44.281 413.791C41.3673 411.488 37.3801 411.284 33.6997 410.806C31.9958 410.584 29.7807 409.629 30.1215 407.924C30.2794 407.448 30.5915 407.039 31.0082 406.76C31.4249 406.482 31.9223 406.351 32.4218 406.388C33.4223 406.498 34.3843 406.836 35.2332 407.378" fill="#040015"/>
<path opacity="0.1" d="M202.813 407.376C208.523 406.209 214.289 405.349 220.087 404.8C229.918 404.042 239.802 405.062 249.659 404.538C257.401 404.139 265.076 402.788 272.818 402.237C274.364 402.113 276.208 402.168 277.089 403.477C277.505 404.155 277.655 404.966 277.509 405.751C277.075 408.823 273.997 410.752 271.082 411.647C267.849 412.525 264.529 413.033 261.184 413.163C248.547 414.1 235.843 414.664 223.396 417.062C221.104 417.503 218.609 417.971 216.616 416.841C214.813 415.849 213.782 413.838 212.183 412.529C209.864 410.669 206.691 410.504 203.762 410.118C202.407 409.939 200.644 409.167 200.915 407.79C201.041 407.405 201.289 407.075 201.621 406.85C201.952 406.626 202.348 406.52 202.746 406.55C203.542 406.638 204.307 406.911 204.983 407.349" fill="#040015"/>
<path d="M153.434 248.049C163.913 248.833 174.222 245.575 184.616 243.938C203.683 240.953 223.192 243.529 242.072 247.605C247.843 249.117 253.763 249.992 259.724 250.215C272.913 250.215 285.283 242.829 294.263 233.158C303.242 223.487 309.598 211.701 315.698 200C318.901 202.115 319.276 206.601 319.191 210.438C318.829 228.597 315.821 246.606 310.262 263.894C308.911 268.757 306.776 273.366 303.941 277.54C301.475 280.703 298.545 283.475 295.251 285.761C282.063 295.398 265.347 300.754 249.245 298.486C239.737 297.138 230.792 293.369 221.983 289.48C204.518 281.941 186.609 274.129 173.131 260.654C171.358 258.686 169.369 256.924 167.202 255.4C163.627 253.354 159.461 252.59 155.394 253.234C154.898 253.379 154.377 253.416 153.865 253.343C153.354 253.269 152.864 253.087 152.429 252.808C150.964 251.443 152.821 249.157 154.525 248.083" fill="#F14F51"/>
<path d="M266.08 254.361L258.685 254.02L276.928 245.534L292.478 235.168L305.954 216.785L315.988 199.923C316.32 199.923 318.393 203.032 319.43 206.142C319.43 210.289 318.818 214.553 319.43 216.785C318.393 221.692 318.393 223.765 318.393 228.948C317.357 236.204 315.442 239.865 315.283 245.534C314.582 252.171 312.173 255.9 311.137 263.157C307.78 271.975 308.027 269.9 304.917 277.49L294.551 286.309L283.238 292.534C284.706 290.596 285.969 288.509 287.004 286.309C283.913 287.198 280.748 287.809 277.547 288.134C280.501 284.858 283.115 281.292 285.351 277.49C281.419 278.026 277.619 279.28 274.14 281.192C276.008 278.596 277.446 275.717 278.399 272.663L267.273 276.296C270.656 272.897 273.645 269.126 276.184 265.056L262.093 269.9C265.431 266.041 269.109 262.49 273.083 259.291C269.176 260.748 265.013 261.392 260.849 261.184L266.08 254.361Z" fill="white"/>
<path opacity="0.1" d="M178.449 265.23C188.809 261.136 198.86 265.874 209.22 270.07C219.58 274.266 229.292 280.049 240.078 282.795C244.97 283.962 249.952 284.716 254.97 285.046C260.636 285.604 266.343 285.604 272.009 285.046C287.873 283.238 296.452 271.446 310.1 263.156C308.027 270.413 307.599 273.449 302.844 278.706C298.08 283.925 294.551 286.999 288.331 290.109C276.29 295.455 268.141 298.602 254.97 298.402C241.833 298.2 234.426 295.292 221.987 289.072C210.584 285.046 209.22 283.434 196.071 277.669C190.888 273.523 190.888 275.596 181.719 268.34" fill="#040015"/>
<path d="M245.189 287.144C248.983 288.424 252.883 289.361 256.844 289.941C257.645 290.061 257.986 288.833 257.168 288.713C253.213 288.133 249.318 287.197 245.53 285.916C244.746 285.643 244.423 286.888 245.189 287.144Z" fill="#242638"/>
<path d="M240.572 271.893C242.138 272.303 243.764 272.436 245.377 272.285C246.195 272.285 246.195 270.939 245.377 271.007C243.88 271.15 242.37 271.035 240.913 270.667C240.75 270.621 240.576 270.643 240.429 270.726C240.282 270.809 240.174 270.947 240.129 271.11C240.084 271.272 240.105 271.446 240.188 271.593C240.271 271.74 240.409 271.848 240.572 271.893Z" fill="#242638"/>
<path d="M311.643 208.768C302.97 225.466 291.979 242.387 273.39 248.902C272.623 249.158 272.947 250.403 273.73 250.131C292.729 243.564 303.975 226.507 312.818 209.45C313.193 208.734 312.086 208.086 311.711 208.802L311.643 208.768Z" fill="#242638"/>
<path d="M294.433 242.933L287.617 248.664C286.987 249.192 287.89 250.096 288.52 249.568L295.336 243.837C295.966 243.308 295.063 242.404 294.433 242.933Z" fill="#242638"/>
<path d="M305.815 229.918L301.419 237.338C300.993 238.037 302.083 238.686 302.526 237.986L307.007 230.618C307.067 230.473 307.073 230.312 307.023 230.163C306.973 230.015 306.871 229.889 306.736 229.81C306.601 229.731 306.442 229.704 306.288 229.733C306.134 229.762 305.997 229.846 305.9 229.97L305.815 229.918Z" fill="#242638"/>
<path d="M314.572 223.215C313.486 224.641 312.697 226.271 312.255 228.008C312.21 228.171 312.231 228.345 312.314 228.493C312.397 228.64 312.535 228.748 312.698 228.793C312.861 228.838 313.035 228.817 313.182 228.734C313.329 228.651 313.437 228.512 313.482 228.349C313.902 226.715 314.65 225.183 315.68 223.847C316.174 223.198 315.067 222.567 314.572 223.215V223.215Z" fill="#242638"/>
<path d="M311.949 236.741L311.233 241.62C311.114 242.421 312.341 242.762 312.46 241.961L313.176 237.082C313.295 236.281 312.051 235.94 311.949 236.741Z" fill="#242638"/>
<path d="M306.411 240.988L305.628 246.787C305.525 247.589 306.752 247.93 306.854 247.128L307.638 241.329C307.758 240.527 306.531 240.186 306.411 240.988Z" fill="#242638"/>
<path d="M299.05 245.935C298.187 247.645 297.178 249.277 296.034 250.813C295.54 251.478 296.665 252.109 297.142 251.461C298.273 249.916 299.281 248.285 300.158 246.583C300.533 245.849 299.425 245.201 299.05 245.935Z" fill="#242638"/>
<path d="M285.504 255.827L281.534 259.972C280.971 260.569 281.874 261.473 282.437 260.876L286.407 256.731C286.986 256.134 286.083 255.23 285.504 255.827Z" fill="#242638"/>
<path d="M291.195 257.55L290.036 259.171C289.542 259.836 290.65 260.484 291.127 259.819L292.285 258.113C292.763 257.448 291.655 256.817 291.195 257.482V257.55Z" fill="#242638"/>
<path d="M291.366 264.031C289.591 265.852 288.041 267.879 286.748 270.069C286.688 270.214 286.683 270.375 286.733 270.524C286.782 270.672 286.884 270.798 287.019 270.877C287.155 270.956 287.314 270.983 287.467 270.954C287.621 270.925 287.759 270.841 287.856 270.717C289.085 268.617 290.567 266.675 292.269 264.935C292.848 264.338 291.945 263.434 291.366 264.031V264.031Z" fill="#242638"/>
<path d="M301.844 255.231L299.306 259.171C298.845 259.87 299.953 260.518 300.396 259.819L302.952 255.879C303.395 255.179 302.287 254.548 301.844 255.231Z" fill="#242638"/>
<path d="M307.382 256.851L303.701 262.19C303.241 262.872 304.349 263.52 304.809 262.838L308.489 257.482C308.967 256.817 307.859 256.169 307.382 256.851Z" fill="#242638"/>
<path d="M293.717 270.07C292.974 271.191 291.928 272.079 290.701 272.629C289.968 272.987 290.616 274.078 291.348 273.737C292.75 273.07 293.932 272.017 294.756 270.701C295.216 270.019 294.109 269.371 293.666 270.07H293.717Z" fill="#242638"/>
<path d="M302.781 268.466L298.351 274.266C297.857 274.914 298.965 275.545 299.459 274.897L303.872 269.115C304.383 268.466 303.275 267.835 302.781 268.483V268.466Z" fill="#242638"/>
<path d="M246.996 255.28C249.006 255.178 251.022 255.212 253.028 255.383C253.845 255.383 253.845 254.173 253.028 254.105C251.022 253.934 249.006 253.9 246.996 254.003C246.178 254.003 246.178 255.315 246.996 255.28Z" fill="#242638"/>
<path d="M234.54 258.232C236.18 258.918 237.896 259.405 239.651 259.682C240.452 259.802 240.81 258.574 239.992 258.454C238.238 258.169 236.523 257.682 234.88 257.004C234.131 256.68 233.807 257.925 234.54 258.232Z" fill="#242638"/>
<path d="M253.215 260.875C253.597 260.755 253.998 260.712 254.396 260.75C254.794 260.788 255.181 260.906 255.532 261.096C256.265 261.471 256.913 260.364 256.18 259.989C255.165 259.448 253.981 259.32 252.874 259.631C252.723 259.688 252.598 259.799 252.525 259.943C252.451 260.087 252.434 260.253 252.477 260.409C252.519 260.565 252.619 260.699 252.755 260.785C252.892 260.871 253.056 260.903 253.215 260.875Z" fill="#242638"/>
<path d="M250.539 268.927C252.08 269.187 253.584 269.628 255.021 270.241C255.77 270.565 256.418 269.456 255.668 269.132C254.131 268.459 252.517 267.978 250.863 267.699C250.062 267.563 249.721 268.791 250.539 268.927V268.927Z" fill="#242638"/>
<path d="M254.476 277.676L259.588 278.392C260.389 278.511 260.747 277.267 259.929 277.165L254.817 276.449C254.016 276.347 253.658 277.574 254.476 277.676Z" fill="#242638"/>
<path d="M77.1675 155.057L52.6482 198.177C44.1286 213.085 35.609 228.078 24.8573 241.433C23.5147 242.786 22.5763 244.487 22.1481 246.345C21.9096 248.222 23.2216 250.422 25.1129 250.354C26.2986 250.177 27.3779 249.57 28.1459 248.648C44.5285 232.698 59.5629 215.418 73.0951 196.983C75.9685 193.302 78.4471 189.329 80.4901 185.129C84.3082 176.611 84.7468 166.958 81.7169 158.128C81.1376 156.422 79.5359 154.392 77.9513 155.262" fill="#F14F51"/>
<path fill-rule="evenodd" clip-rule="evenodd" d="M28.5596 236.043C28.1907 236.514 27.8308 236.992 27.48 237.476C27.3692 237.61 27.2534 237.75 27.1334 237.895C24.3912 241.201 19.4905 247.111 23.5781 249.075C25.6909 250.098 28.8091 248.529 30.4959 247.369C32.4834 245.962 34.0321 244.073 35.5753 242.192C36.4268 241.153 37.2767 240.117 38.1976 239.165C38.692 238.659 38.3719 237.976 37.8765 237.764C38.0879 237.163 37.5562 236.509 37.0208 236.556C37.0146 235.964 36.3961 235.435 35.8731 235.692C36.3523 235.16 36.8916 234.683 37.482 234.269C38.3851 233.655 37.482 232.171 36.6301 232.802C35.9181 233.286 35.2669 233.847 34.6876 234.475C34.5761 234.405 34.4524 234.362 34.3258 234.355C34.7904 233.768 35.3046 233.22 35.8633 232.717C36.3807 232.253 36.0867 231.598 35.5938 231.365C36.0557 230.558 34.7646 229.84 34.1083 230.558C33.9685 230.435 33.7924 230.362 33.6069 230.348L33.6311 230.346H33.5459C33.5664 230.346 33.5867 230.347 33.6069 230.348C33.1085 230.395 32.6289 230.564 32.2103 230.839C31.785 231.119 31.4359 231.501 31.1945 231.95C30.3426 233.075 29.4906 234.218 28.6727 235.361C28.4928 235.603 28.476 235.842 28.5596 236.043ZM30.3353 237.115C30.5307 236.928 30.7263 236.742 30.9219 236.555C30.9977 236.484 31.0755 236.429 31.1538 236.389C30.815 236.309 30.5267 236.064 30.4735 235.757L30.1381 236.214C30.1299 236.225 30.1215 236.235 30.1131 236.245C30.1766 236.447 30.1648 236.67 30.0359 236.879C29.9948 236.94 29.9535 237.002 29.9121 237.063L29.9166 237.067C29.8968 237.092 29.8769 237.118 29.8571 237.144C29.6734 237.414 29.4861 237.681 29.2952 237.946C29.4902 237.75 29.686 237.553 29.8825 237.357C30.0053 237.231 30.1635 237.147 30.3353 237.115ZM34.9309 240.302C34.771 240.155 34.6529 239.95 34.6168 239.727C33.9185 240.166 32.9964 239.086 33.6142 238.329L33.7029 238.221C33.529 238.203 33.3564 238.129 33.2136 238.015C33.1898 238.811 33.0506 239.596 32.8034 240.345C32.8067 240.351 32.81 240.356 32.8132 240.362C32.8876 240.489 32.9286 240.632 32.9323 240.78C32.9609 240.742 32.9894 240.704 33.0177 240.666C33.4594 240.084 34.2896 240.288 34.5672 240.752C34.6886 240.602 34.8098 240.452 34.9309 240.302ZM31.2118 239.81C31.3182 239.483 31.4 239.148 31.4561 238.808C31.2917 238.924 31.1315 239.045 30.9756 239.172C30.9298 239.226 30.8839 239.281 30.838 239.335C30.2841 240.448 29.4948 241.433 28.5194 242.218C28.393 242.347 28.2296 242.431 28.0531 242.461C27.4955 243.056 26.929 243.642 26.3538 244.219C26.4357 244.204 26.5178 244.189 26.6 244.174C27.0947 244.085 27.5916 243.995 28.0594 243.803C28.591 242.606 29.3767 241.161 30.4196 240.417C30.4388 240.374 30.4586 240.332 30.4789 240.29L30.535 240.324C30.5448 240.301 30.5545 240.279 30.5641 240.256C30.7067 239.932 30.9552 239.803 31.2118 239.81ZM27.8211 245.499C27.4063 245.633 26.9831 245.774 26.6009 245.922C26.6373 245.953 26.671 245.987 26.7016 246.023C27.1015 245.903 27.5076 245.755 27.908 245.583C27.8771 245.556 27.848 245.528 27.8211 245.499Z" fill="#242638"/>
<path opacity="0.1" d="M86.0094 174.86C83.7708 183.329 76.4153 187.702 73.0937 195.806C68.8339 203.481 63.6368 209.184 57.7585 216.274C50.6873 224.802 44.1272 233.331 36.4596 240.154C35.7716 240.982 34.7666 242.921 33.9037 243.565C31.7909 244.998 29.7803 246.106 27.9741 247.812C29.8484 245.424 31.9442 243.207 33.9378 240.989C40.0076 233.687 45.6023 226.001 50.6873 217.98C53.0557 214.449 55.4242 210.901 57.7245 207.336C64.5401 196.881 70.6231 186.015 78.6485 176.532C80.3524 174.434 82.7038 172.216 85.4642 172.455C86.2821 172.455 87.1681 173.376 86.708 173.973" fill="#040015"/>
<path d="M100.715 282.146L120.821 276.858C124.009 275.823 127.352 275.344 130.703 275.443C138.627 276.125 144.437 282.879 149.719 288.849C155.575 295.474 161.853 301.713 168.513 307.526C171.789 310.631 175.547 313.183 179.64 315.082C182.72 316.241 185.93 317.02 189.199 317.402C195.737 318.482 202.34 319.12 208.964 319.313C216.581 319.432 215.78 316.225 216.035 309.078C194.754 312.746 171.734 300.226 163.214 280.355C160.283 273.532 158.971 266.01 157.421 258.676C155.183 247.97 152.396 237.386 149.072 226.967C147.538 222.123 145.493 218.234 145.187 213.015C145.076 207.618 145.264 202.22 145.749 196.845C146.09 189.408 145.749 181.937 145.357 174.501C145.067 168.565 144.812 162.561 144.999 156.71C145.357 145.538 147.351 134.536 148.322 123.364C149.072 114.836 148.049 106.035 148.867 97.6085C149.804 88.0738 150.758 78.5391 151.593 68.9873C153.475 49.9322 154.328 30.7894 154.149 11.6424C154.149 9.62968 153.417 6.96884 151.406 7.02001C150.554 7.1299 149.772 7.54861 149.208 8.19691C138.269 18.5163 140.688 38.0292 129.647 48.161C129.269 48.5524 128.817 48.8654 128.318 49.082C127.684 49.276 127.016 49.3341 126.358 49.2526L102.061 48.0927C100.357 40.5366 101.141 32.6563 101.141 24.9126C101.141 17.1688 100.101 8.93036 95.3302 2.82403C94.6145 1.92002 93.507 0.981907 92.4335 1.39127C91.7667 1.75538 91.2707 2.36843 91.0533 3.09695C88.0885 10.0902 87.1343 17.7317 85.7882 25.2708C84.204 34.1416 82.0411 42.8991 79.3134 51.487C78.2946 54.8978 76.9952 58.2182 75.4284 61.4141C72.2251 67.6057 66.9089 72.2281 62.2401 77.3792C59.0513 81.1774 55.4956 84.651 51.6248 87.7497C40.8731 95.7835 26.8328 97.3868 14.1387 101.634C12.3139 102.136 10.6137 103.013 9.14619 104.21C8.41435 104.819 7.86707 105.621 7.56603 106.525C7.26498 107.429 7.22212 108.399 7.44228 109.327C7.91028 110.479 8.7188 111.461 9.7596 112.141C13.8584 114.878 18.7763 116.114 23.6806 115.638C28.5407 115.181 33.3558 114.331 38.0786 113.096C47.7886 110.995 57.6904 109.908 67.6245 109.855C68.5081 109.782 69.3963 109.923 70.2145 110.265C71.2126 110.91 71.9306 111.909 72.2251 113.062C73.1658 116.317 73.5404 119.709 73.3326 123.091L73.2304 143.559C73.1018 147.036 73.3244 150.516 73.8949 153.947C74.3379 156.199 75.0877 158.382 75.7011 160.616C76.8553 164.796 77.4624 169.107 77.5072 173.443C77.5311 177.398 77.8673 181.344 78.5125 185.246C79.8212 194.348 80.51 203.529 80.5743 212.725C80.8469 231.248 79.4497 249.772 79.7564 268.296C79.8757 275.323 80.2505 282.333 81.0343 289.31C81.6137 294.427 82.4315 299.544 82.7382 304.661C83.0109 310.358 82.6019 316.106 83.5902 321.718C84.6708 328.167 86.1793 334.538 88.1056 340.787C90.2587 347.265 91.8939 353.904 92.9958 360.641C95.0625 360.486 97.095 360.026 99.0276 359.277C102.435 357.98 101.566 356.002 100.919 353.119C100.138 349.775 99.5692 346.386 99.2151 342.97C98.613 336.284 98.4877 329.564 98.8402 322.86C99.1299 316.038 99.6922 309.215 100.135 302.512C100.357 300.704 100.357 282.231 100.715 282.146Z" fill="#F14F51"/>
<path d="M83.2501 199.694L79.8423 189.989L78.7687 185.298C74.7304 173.154 76.4779 170.897 74.7863 158.457C73.0947 146.018 73.7497 136.688 73.0947 124.249C72.059 122.302 73.7497 114.309 70.4025 110.773C67.4718 108.948 53.0172 111.303 48.8707 111.528C43.6875 111.809 39.541 112.846 32.2847 114.919C30.3761 114.857 27.4243 117.459 25.7771 116.491C24.9716 115.981 24.3639 115.211 24.0542 114.309C23.7444 113.407 23.7511 112.426 24.0732 111.528C24.9942 110.176 26.407 109.24 28.0092 108.918C44.6381 103.423 61.7558 99.5385 79.1266 97.3195C83.0698 96.6697 87.084 96.5721 91.054 97.0295C91.9798 97.1194 92.8722 97.423 93.661 97.9165C94.5061 98.6152 95.1574 99.5198 95.5523 100.543C102.283 114.769 100.817 131.297 102.147 146.989C103.271 160.02 106.321 173.7 101.346 185.81C100.335 184.517 99.0558 183.458 97.5971 182.706C97.849 185.324 97.4813 187.966 96.5236 190.415C95.3557 188.292 93.6367 186.524 91.5482 185.298C91.494 188.635 91.1231 191.959 90.4406 195.225C89.6553 192.217 88.553 189.301 87.1521 186.526L83.2501 199.694Z" fill="white"/>
<path d="M139.41 39.3439C138.953 41.0083 138.791 42.7404 138.933 44.4609C139.036 45.5355 140.74 45.5525 140.637 44.4609C140.5 42.8967 140.638 41.3205 141.046 39.8044C141.075 39.6924 141.082 39.5758 141.066 39.4611C141.05 39.3465 141.012 39.2362 140.953 39.1364C140.895 39.0366 140.817 38.9493 140.725 38.8796C140.633 38.8098 140.528 38.7589 140.416 38.7298C140.304 38.7007 140.187 38.6939 140.073 38.7099C139.958 38.7258 139.848 38.7642 139.749 38.8228C139.649 38.8814 139.562 38.9591 139.492 39.0514C139.422 39.1438 139.371 39.2489 139.342 39.3609L139.41 39.3439Z" fill="#242638"/>
<path d="M143.329 37.4847C143.355 38.6564 143.128 39.8198 142.665 40.8961C142.239 41.9024 143.892 42.3459 144.369 41.3566C144.89 40.1102 145.139 38.767 145.101 37.4165C145.101 37.1903 145.012 36.9734 144.852 36.8134C144.692 36.6535 144.475 36.5636 144.25 36.5636C144.024 36.5636 143.807 36.6535 143.647 36.8134C143.487 36.9734 143.398 37.1903 143.398 37.4165L143.329 37.4847Z" fill="#242638"/>
<path d="M147.283 41.6465L147.726 43.9833C147.93 45.0579 149.566 44.5974 149.429 43.5228L149.004 41.2031C148.782 40.1285 147.146 40.572 147.3 41.6465H147.283Z" fill="#242638"/>
<path d="M149.14 33.7663C148.891 35.1444 148.811 36.5477 148.901 37.9452C148.901 39.0368 150.605 39.0368 150.605 37.9452C150.514 36.7027 150.577 35.4538 150.793 34.2268C150.98 33.1523 149.344 32.6917 149.089 33.7663H149.14Z" fill="#242638"/>
<path d="M141.097 30.986C141.336 23.2252 145.51 16.8289 149.924 10.7226L148.356 10.0574C145.51 17.0848 141.2 24.5898 140.961 32.2312H142.665C142.693 27.9342 143.794 23.7123 145.868 19.9503L144.284 19.5068C144.454 23.9416 144.573 28.3934 144.641 32.8282C144.641 33.7492 146.158 34.0392 146.345 33.0499C147.248 27.2165 148.492 21.4513 149.753 15.7032L148.049 15.2426L145.988 26.4319H147.691C147.253 23.611 147.156 20.7476 147.402 17.9035H145.698C146.243 22.0824 145.136 26.2102 147.214 30.0479C147.303 30.1894 147.43 30.3024 147.58 30.3737C147.731 30.4449 147.899 30.4714 148.064 30.4498C148.229 30.4282 148.385 30.3596 148.512 30.252C148.639 30.1445 148.733 30.0026 148.782 29.8432C149.753 25.7326 148.935 21.4684 150.196 17.4259H148.492C149.401 21.3149 150.128 25.2379 150.673 29.1951C150.793 30.0309 152.173 29.9968 152.377 29.1951C153.197 25.0416 153.721 20.835 153.945 16.6072C154.081 14.0316 154.763 10.7397 152.82 8.74401C152.713 8.64148 152.581 8.56813 152.438 8.53096C152.294 8.49379 152.143 8.49402 152 8.53164C151.856 8.56925 151.725 8.643 151.618 8.74586C151.511 8.84872 151.432 8.97727 151.389 9.11926C150.677 11.9431 150.464 14.8697 150.758 17.767C150.758 17.9932 150.848 18.2102 151.008 18.3701C151.168 18.53 151.384 18.6199 151.61 18.6199C151.836 18.6199 152.053 18.53 152.213 18.3701C152.373 18.2102 152.462 17.9932 152.462 17.767C152.593 15.1364 152.317 12.5014 151.645 9.95503C151.372 8.94868 150.077 9.30687 149.941 10.1938L148.066 24.7262H149.77C149.941 19.4898 150.315 14.2875 150.895 9.08514C150.895 8.48816 150.298 8.18114 149.804 8.26643C145.749 8.98281 143.585 14.9356 141.745 18.04L143.21 18.9098C144.301 16.9995 145.408 15.1062 146.618 13.247C146.925 12.7353 147.828 10.6544 148.322 10.4497L152.667 11.6095C152.871 12.6457 152.871 13.7119 152.667 14.748C152.411 17.7329 151.576 20.3426 152.326 23.2764C152.356 23.3884 152.408 23.4933 152.479 23.5852C152.55 23.6771 152.638 23.7542 152.738 23.812C152.839 23.8698 152.95 23.9072 153.065 23.9222C153.179 23.9371 153.296 23.9292 153.408 23.899C153.52 23.8687 153.625 23.8167 153.717 23.7459C153.808 23.6751 153.885 23.5869 153.943 23.4864C154.001 23.3858 154.038 23.2748 154.053 23.1597C154.068 23.0447 154.06 22.9279 154.03 22.8159C152.991 18.7563 157.131 10.3644 152.019 7.66943C146.908 4.97446 143.5 14.9868 141.796 17.9035C141.685 18.0978 141.655 18.3278 141.713 18.544C141.77 18.7602 141.909 18.9452 142.102 19.0593C142.294 19.1734 142.523 19.2073 142.74 19.1538C142.957 19.1004 143.144 18.9638 143.261 18.7734C144.71 16.3172 147.265 10.245 150.315 9.7674L149.242 8.94869C148.663 14.151 148.288 19.3533 148.117 24.5897C148.117 25.7155 149.668 25.6473 149.821 24.5897L151.73 10.1427L150.026 10.3644C150.663 12.7599 150.921 15.2404 150.793 17.7159H152.496C152.211 14.9739 152.407 12.2029 153.076 9.52861L151.645 9.90386C153.348 11.6095 152.292 16.7266 152.122 18.8757C151.856 22.1685 151.401 25.4432 150.758 28.6834H152.462C151.894 24.7262 151.162 20.8031 150.264 16.9142C150.264 16.688 150.175 16.4711 150.015 16.3112C149.855 16.1512 149.638 16.0614 149.412 16.0614C149.186 16.0614 148.97 16.1512 148.81 16.3112C148.65 16.4711 148.56 16.688 148.56 16.9142C147.282 20.9908 148.1 25.2208 147.129 29.3315L148.697 29.1269C146.822 25.7155 147.896 21.6048 147.402 17.8523C147.402 17.6261 147.312 17.4092 147.152 17.2493C146.992 17.0894 146.776 16.9995 146.55 16.9995C146.324 16.9995 146.107 17.0894 145.947 17.2493C145.788 17.4092 145.698 17.6261 145.698 17.8523C145.453 20.8402 145.567 23.8466 146.039 26.8071C146.078 27.0042 146.185 27.1814 146.34 27.3087C146.495 27.436 146.69 27.5056 146.891 27.5056C147.091 27.5056 147.286 27.436 147.441 27.3087C147.597 27.1814 147.703 27.0042 147.743 26.8071L149.787 15.6349C149.992 14.5604 148.39 14.0998 148.083 15.1744C146.788 20.9396 145.527 26.6877 144.676 32.5382L146.379 32.76C146.379 28.3252 146.192 23.8734 146.022 19.4386C146.02 19.2525 145.957 19.0721 145.843 18.925C145.729 18.7778 145.57 18.672 145.391 18.6237C145.211 18.5754 145.021 18.5872 144.849 18.6574C144.676 18.7275 144.532 18.8521 144.437 19.0122C142.245 23.0514 141.075 27.5666 141.029 32.163C141.029 32.3892 141.119 32.6061 141.279 32.766C141.438 32.926 141.655 33.0158 141.881 33.0158C142.107 33.0158 142.324 32.926 142.484 32.766C142.643 32.6061 142.733 32.3892 142.733 32.163C142.955 24.7433 147.317 17.153 150.077 10.3814C150.469 9.42627 149.038 8.99985 148.509 9.71624C143.909 16.0955 139.717 22.7647 139.462 30.8496C139.462 31.9412 141.165 31.9412 141.165 30.8496L141.097 30.986Z" fill="#242638"/>
<path d="M87.543 20.3253C87.0382 23.2313 86.9407 26.1936 87.2534 29.1266C87.3726 30.2011 89.0765 30.2182 88.9573 29.1266C88.6475 26.3436 88.722 23.5313 89.1788 20.7687C89.3662 19.7112 87.7134 19.2336 87.4749 20.3253H87.543Z" fill="#242638"/>
<path d="M89.3322 30.5252V32.6061C89.3322 32.8323 89.4219 33.0492 89.5817 33.2092C89.7415 33.3691 89.9582 33.459 90.1841 33.459C90.4101 33.459 90.6268 33.3691 90.7866 33.2092C90.9463 33.0492 91.0361 32.8323 91.0361 32.6061V30.5252C91.0361 30.299 90.9463 30.0821 90.7866 29.9222C90.6268 29.7622 90.4101 29.6724 90.1841 29.6724C89.9582 29.6724 89.7415 29.7622 89.5817 29.9222C89.4219 30.0821 89.3322 30.299 89.3322 30.5252Z" fill="#242638"/>
<path d="M93.6942 29.8259V34.2265C93.6942 34.4527 93.784 34.6696 93.9437 34.8296C94.1035 34.9895 94.3202 35.0794 94.5461 35.0794C94.7721 35.0794 94.9888 34.9895 95.1486 34.8296C95.3083 34.6696 95.3981 34.4527 95.3981 34.2265V29.8259C95.3981 29.5997 95.3083 29.3828 95.1486 29.2228C94.9888 29.0629 94.7721 28.973 94.5461 28.973C94.3202 28.973 94.1035 29.0629 93.9437 29.2228C93.784 29.3828 93.6942 29.5997 93.6942 29.8259Z" fill="#242638"/>
<path d="M96.7443 31.4462C96.5047 32.5665 96.4357 33.7167 96.5398 34.8576C96.642 35.9492 98.346 35.9492 98.2437 34.8576C98.1359 33.8445 98.1818 32.8209 98.38 31.8215C98.6015 30.764 96.9487 30.3035 96.6761 31.378L96.7443 31.4462Z" fill="#242638"/>
<path d="M92.1777 5.00825C91.9021 11.9772 92.0785 18.9567 92.7059 25.9028C92.7059 26.7898 94.1712 27.1479 94.4098 26.1416C95.3919 20.1971 95.729 14.1637 95.4151 8.14669H93.7112C94.3126 14.519 95.3085 20.8479 96.6931 27.0968C96.7326 27.2938 96.8391 27.471 96.9944 27.5984C97.1497 27.7257 97.3443 27.7952 97.545 27.7952C97.7458 27.7952 97.9403 27.7257 98.0956 27.5984C98.2509 27.471 98.3574 27.2938 98.397 27.0968C99.9893 19.734 99.5893 12.0792 97.2383 4.92296C97.2238 4.81096 97.1873 4.70294 97.1311 4.60505C97.0748 4.50715 96.9998 4.42128 96.9104 4.35238C96.821 4.28348 96.719 4.23289 96.61 4.20348C96.5011 4.17407 96.3875 4.16643 96.2756 4.18099C96.1637 4.19555 96.0558 4.23204 95.958 4.28835C95.8602 4.34466 95.7744 4.4197 95.7056 4.50919C95.6368 4.59868 95.5862 4.70086 95.5568 4.8099C95.5275 4.91894 95.5198 5.03271 95.5344 5.14471C95.3478 8.85209 95.8091 12.5636 96.8975 16.1122C97.1361 17.0162 98.6866 16.8627 98.6014 15.8734C98.1029 11.429 97.329 7.01983 96.2841 2.67148C96.0456 1.68219 94.6995 1.98919 94.5802 2.8932C94.4579 3.81457 94.4123 4.74453 94.4439 5.67346L96.1478 5.43467C95.7684 4.26148 95.2954 3.12069 94.7335 2.02331C94.627 1.84779 94.4607 1.71666 94.2653 1.65402C94.0699 1.59138 93.8585 1.60143 93.6699 1.68234C93.4813 1.76325 93.3282 1.90957 93.2387 2.09442C93.1493 2.27927 93.1295 2.49023 93.183 2.68853L94.4439 6.38984L95.8752 5.57113L94.1712 3.86545C94.0344 3.74132 93.8617 3.66405 93.678 3.64485C93.4944 3.62564 93.3094 3.6655 93.1499 3.75863C92.9904 3.85177 92.8646 3.99334 92.7909 4.16283C92.7172 4.33231 92.6994 4.52091 92.74 4.70124C94.6938 11.2169 96.4431 17.7838 97.988 24.4018C98.2095 25.374 99.6919 25.1011 99.6919 24.1801L100.101 16.8115L98.397 17.0333L99.9305 23.7707L101.634 23.3272C100.706 19.3356 99.5689 15.3957 98.2266 11.524C98.187 11.3269 98.0805 11.1497 97.9252 11.0224C97.7699 10.895 97.5754 10.8254 97.3746 10.8254C97.1739 10.8254 96.9793 10.895 96.824 11.0224C96.6687 11.1497 96.5622 11.3269 96.5227 11.524L94.2735 17.6303H95.9774C95.6276 15.6138 95.0973 13.6329 94.3928 11.7116C94.3437 11.5522 94.25 11.4103 94.1227 11.3028C93.9953 11.1952 93.8398 11.1266 93.6747 11.105C93.5095 11.0835 93.3416 11.1099 93.191 11.1811C93.0404 11.2524 92.9134 11.3654 92.8252 11.5069C91.6068 13.3319 90.649 15.3183 89.9796 17.4085L91.6835 17.6303L91.8199 16.2998C92.0584 15.3788 90.6953 14.7477 90.2523 15.6346L87.543 21.161L89.1277 21.5874L89.5877 19.2165H87.8838L88.0372 21.2122C87.9349 22.3038 89.6389 22.3038 89.7411 21.2122C89.9047 20.3962 89.8338 19.5504 89.5366 18.7731C89.497 18.5761 89.3906 18.3988 89.2353 18.2715C89.08 18.1442 88.8854 18.0746 88.6846 18.0746C88.4839 18.0746 88.2894 18.1442 88.134 18.2715C87.9787 18.3988 87.8722 18.5761 87.8327 18.7731C87.569 19.6918 87.3978 20.6346 87.3215 21.5874C87.2193 22.4403 88.5483 22.7473 88.9062 22.0309L91.6324 16.5045L90.0648 15.8393C89.8581 16.4122 89.7937 17.0269 89.8774 17.6303C89.8819 17.8383 89.9607 18.0378 90.0995 18.1926C90.2384 18.3474 90.428 18.4473 90.6342 18.4741C90.8403 18.5009 91.0491 18.4529 91.2229 18.3388C91.3967 18.2247 91.5239 18.0519 91.5813 17.852C92.2119 15.9103 93.1124 14.0671 94.2565 12.3768L92.6889 12.1721C93.3957 14.0868 93.9261 16.0623 94.2735 18.0737C94.4268 18.9778 95.6537 18.7901 95.9774 18.0737L98.2266 11.9845H96.5227C97.8704 15.8487 99.008 19.7832 99.9305 23.7707C100.169 24.8453 101.805 24.4018 101.634 23.3272L100.101 16.5045C99.8794 15.5323 98.397 15.8052 98.397 16.7262L97.988 24.0948L99.6919 23.873C98.1414 17.238 96.4034 10.6711 94.4269 4.15541L93.0126 4.9912L94.7165 6.69688C94.8483 6.83165 95.0211 6.91884 95.2077 6.94486C95.3943 6.97088 95.5843 6.93423 95.7479 6.84065C95.9115 6.74707 96.0395 6.60185 96.1119 6.42769C96.1842 6.25353 96.1969 6.06025 96.1478 5.87814L94.8699 2.15977L93.3193 2.82498C93.8453 3.78167 94.2625 4.79434 94.5632 5.84404C94.5925 6.07023 94.7105 6.27545 94.891 6.4146C95.0715 6.55374 95.2999 6.61541 95.5259 6.58601C95.7518 6.5566 95.9568 6.43854 96.0958 6.25781C96.2349 6.07708 96.2965 5.84848 96.2671 5.62229C96.2355 4.69336 96.2811 3.76341 96.4034 2.84203L94.6995 3.06378C95.7037 7.26769 96.4548 11.5282 96.9486 15.8222L98.6526 15.6005C97.6052 12.2019 97.1611 8.6457 97.3405 5.09354L95.6366 5.33233C97.9073 12.1691 98.3074 19.4899 96.7953 26.5339H98.4992C97.0738 20.4882 96.0323 14.3583 95.381 8.18081C95.2618 7.10623 93.6771 7.05506 93.6771 8.18081C93.9961 14.0423 93.6819 19.9212 92.74 25.7152L94.4439 25.9369C93.8165 18.9908 93.6401 12.0113 93.9157 5.04237C93.9157 3.93368 92.2118 3.95074 92.2118 5.04237L92.1777 5.00825Z" fill="#242638"/>
<path d="M87.3726 20.1206C88.3601 15.1673 90.0408 10.3784 92.3651 5.89524C92.4687 5.71544 92.5032 5.50397 92.4622 5.30051C92.4212 5.09704 92.3075 4.91553 92.1424 4.78999C91.9772 4.66446 91.772 4.60352 91.5652 4.61858C91.3584 4.63365 91.1642 4.72368 91.019 4.87182C89.5265 6.11357 88.5587 7.87459 88.3098 9.80123C88.2796 9.91323 88.2717 10.0301 88.2866 10.1451C88.3015 10.2602 88.3389 10.3712 88.3967 10.4717C88.4544 10.5723 88.5314 10.6605 88.6232 10.7313C88.715 10.8021 88.8198 10.8541 88.9317 10.8844C89.0436 10.9146 89.1603 10.9225 89.2752 10.9075C89.3902 10.8926 89.501 10.8552 89.6015 10.7974C89.702 10.7396 89.7901 10.6625 89.8608 10.5706C89.9315 10.4787 89.9835 10.3738 90.0137 10.2618C90.4183 8.51919 91.0665 6.84247 91.9391 5.28119C94.3757 2.31331 96.1648 6.21931 96.8634 8.4708C97.8347 11.5751 98.1243 14.6795 99.7942 17.545C99.9015 17.7157 100.066 17.8427 100.258 17.9035C100.45 17.9644 100.657 17.9551 100.843 17.8774C101.029 17.7997 101.182 17.6586 101.273 17.479C101.365 17.2995 101.39 17.0933 101.345 16.8969C100.652 14.0768 99.8964 11.2795 99.0785 8.50492C99.0198 8.27874 98.8737 8.08518 98.6723 7.96682C98.471 7.84847 98.231 7.81502 98.005 7.87383C97.7791 7.93264 97.5857 8.07887 97.4675 8.28039C97.3493 8.48191 97.3159 8.7222 97.3746 8.94839L99.9305 17.852C99.9892 18.0782 100.135 18.2718 100.337 18.3901C100.538 18.5085 100.778 18.5419 101.004 18.4831C101.23 18.4243 101.423 18.2781 101.541 18.0766C101.66 17.875 101.693 17.6348 101.634 17.4086L99.0785 8.50492L97.3746 8.94839C98.1925 11.7457 98.9592 14.526 99.6578 17.3574L101.208 16.6922C98.6696 12.3086 99.5045 4.75242 94.495 1.93805C90.4397 -0.415782 89.281 7.29388 88.3268 9.80123L90.0307 10.2618C90.2908 8.64797 91.0968 7.17263 92.314 6.08286L90.9679 5.0424C88.577 9.65231 86.8558 14.5803 85.8562 19.6771C85.6858 20.7517 87.3215 21.2122 87.5601 20.1206H87.3726Z" fill="#242638"/>
<path d="M86.7253 26.1416C88.7188 17.6132 92.9786 9.71593 93.2342 0.812296C93.2342 -0.194054 91.8711 -0.262264 91.5303 0.590575C88.4292 8.99957 90.7635 17.9544 89.0596 26.568C88.8381 27.6426 90.4909 28.1032 90.7635 27.0286C92.4674 18.4149 90.1501 9.40894 93.2342 1.05112L91.5303 0.812296C91.2747 9.52831 87.032 17.3233 85.0895 25.6811C84.8339 26.7557 86.4697 27.1991 86.7934 26.1416H86.7253Z" fill="#242638"/>
<path d="M10.7787 103.699C17.907 103.563 25.0004 102.601 31.9344 100.829C32.8098 100.596 32.5034 99.3948 31.7447 99.27C26.8716 98.6151 21.4295 100.128 16.5856 100.829L16.7753 102.389C22.1186 100.784 27.6546 100.032 33.2037 100.159C34.1375 100.159 34.1375 98.5995 33.2037 98.5995C27.5269 98.4526 21.8616 99.2148 16.3959 100.861C15.6372 101.079 15.754 102.42 16.5856 102.42C21.4295 101.765 26.7987 100.252 31.7447 100.861L31.555 99.3012C24.7466 101.049 17.7797 101.995 10.7787 102.124C10.5853 102.124 10.3997 102.206 10.2629 102.352C10.1261 102.498 10.0492 102.697 10.0492 102.903C10.0492 103.11 10.1261 103.309 10.2629 103.455C10.3997 103.601 10.5853 103.683 10.7787 103.683V103.699Z" fill="#242638"/>
<path d="M29.2354 102.368H32.4728C32.6988 102.368 32.9154 102.278 33.0752 102.119C33.235 101.959 33.3248 101.742 33.3248 101.515C33.3248 101.289 33.235 101.072 33.0752 100.912C32.9154 100.752 32.6988 100.663 32.4728 100.663H29.2354C29.0094 100.663 28.7927 100.752 28.6329 100.912C28.4732 101.072 28.3834 101.289 28.3834 101.515C28.3834 101.742 28.4732 101.959 28.6329 102.119C28.7927 102.278 29.0094 102.368 29.2354 102.368Z" fill="#242638"/>
<path d="M30.394 104.193L32.7113 104.415C33.8019 104.535 33.8019 102.829 32.7113 102.709L30.394 102.488C29.3035 102.368 29.3206 104.091 30.394 104.193Z" fill="#242638"/>
<path d="M29.7125 106.257L31.4164 106.684C31.6423 106.742 31.8824 106.709 32.0837 106.591C32.285 106.472 32.4311 106.279 32.4898 106.053C32.5486 105.826 32.5152 105.586 32.3969 105.385C32.2787 105.183 32.0853 105.037 31.8594 104.978L30.1555 104.535C30.0436 104.504 29.9269 104.496 29.8119 104.511C29.697 104.526 29.5861 104.564 29.4857 104.621C29.3852 104.679 29.2971 104.756 29.2264 104.848C29.1556 104.94 29.1037 105.045 29.0735 105.157C29.0433 105.269 29.0354 105.386 29.0503 105.501C29.0652 105.616 29.1026 105.727 29.1604 105.828C29.2181 105.928 29.2951 106.016 29.3869 106.087C29.4787 106.158 29.5835 106.21 29.6954 106.24L29.7125 106.257Z" fill="#242638"/>
<path d="M29.0138 108.134L30.1725 108.594C31.1949 109.003 31.6208 107.349 30.6155 106.888L29.4569 106.411C28.4516 106.001 28.0085 107.656 29.0138 108.116V108.134Z" fill="#242638"/>
<path d="M28.1108 109.686L30.9052 111.033C31.8935 111.494 32.7625 110.027 31.7742 109.549L28.9627 108.202C27.9745 107.724 27.1225 109.208 28.1108 109.686Z" fill="#242638"/>
<path d="M28.3152 113.268L30.6837 114.888L31.2801 113.421C27.9083 113.217 24.5252 113.522 21.244 114.325C21.018 114.325 20.8014 114.415 20.6416 114.575C20.4818 114.735 20.392 114.952 20.392 115.178C20.392 115.404 20.4818 115.621 20.6416 115.781C20.8014 115.941 21.018 116.031 21.244 116.031C22.5408 116.57 23.9348 116.837 25.3391 116.813C26.7433 116.79 28.1276 116.477 29.4058 115.894C30.2236 115.57 30.2407 114.189 29.1842 114.189C25.7341 114.538 22.2575 114.538 18.8074 114.189C17.0987 113.961 15.4265 113.514 13.832 112.858C13.0312 112.57 12.2653 112.192 11.5487 111.732C8.24314 110.22 8.46464 107.787 12.2133 104.432L11.1398 103.613C11.0678 105.238 10.4697 106.794 9.43588 108.048L11.0205 108.475C12.1792 106.615 12.554 106.325 12.1281 107.622C12.1281 108.526 11.8895 108.543 11.5147 107.707C14.4795 106.308 16.3197 103.341 20.4602 105.746L20.1535 104.586C19.6629 105.546 18.957 106.38 18.0909 107.022C17.2248 107.665 16.222 108.097 15.161 108.287L16.2004 108.884C17.5068 103.938 18.8812 102.897 20.3239 105.763C21.7552 106.752 21.7041 107.724 20.1876 108.679L21.6359 109.293C21.7722 107.383 22.8627 106.53 24.9074 106.752C24.9736 106.863 25.064 106.957 25.172 107.028C25.2799 107.099 25.4025 107.144 25.5305 107.161C25.6585 107.177 25.7886 107.164 25.9109 107.123C26.0332 107.082 26.1445 107.013 26.2365 106.922L28.5027 104.176L27.0884 103.801C27.3627 104.853 27.4264 105.948 27.2759 107.025C27.2759 108.014 28.6901 108.151 28.9798 107.247C29.4793 105.579 29.8047 103.864 29.951 102.13L28.3493 102.573C29.1179 103.803 29.437 105.262 29.2524 106.701L30.9563 106.479L29.491 100.799C29.4514 100.602 29.3449 100.425 29.1896 100.298C29.0343 100.17 28.8397 100.101 28.639 100.101C28.4382 100.101 28.2437 100.17 28.0884 100.298C27.9331 100.425 27.8266 100.602 27.787 100.799C26.0282 105.287 23.3461 109.355 19.915 112.739L21.244 112.909L21.6018 108.441H20.1365L16.0811 107.639L14.6328 108.253C13.9513 111.596 12.6449 112.409 10.7138 110.692L10.2878 112.278C11.2224 112.213 12.1602 112.345 13.0408 112.665C13.9213 112.985 14.7249 113.487 15.3996 114.137L16.2345 112.722C13.7297 112.21 8.70319 111.016 9.84482 107.741C10.1515 106.837 10.9353 106.24 11.208 105.234C11.2492 105.089 11.2513 104.935 11.2141 104.789C11.1768 104.643 11.1015 104.51 10.9959 104.402C10.8902 104.295 10.758 104.217 10.6127 104.177C10.4673 104.138 10.3141 104.137 10.1686 104.176C6.11325 105.149 7.8342 109.839 10.1686 111.869C11.7307 113.178 13.7465 113.816 15.7766 113.643C17.8066 113.471 19.6862 112.502 21.0055 110.948C21.1659 110.787 21.256 110.569 21.256 110.342C21.256 110.115 21.1659 109.897 21.0055 109.737C20.845 109.576 20.6274 109.486 20.4006 109.486C20.1737 109.486 19.9561 109.576 19.7957 109.737L17.325 112.091L18.6711 113.131C19.6369 111.543 20.8706 110.135 22.3175 108.969L20.9032 108.151C20.6002 109.707 20.1199 111.224 19.4719 112.671L21.0225 113.336C21.5598 111.823 22.4748 110.472 23.6806 109.413L22.3345 109.242L20.8521 112.841L22.13 113.592C21.9749 112.817 22.1051 112.011 22.4965 111.325C22.888 110.638 23.5143 110.117 24.2599 109.856L23.7488 108.611C23.2888 109.508 22.4961 110.189 21.5405 110.508C20.585 110.827 19.5426 110.758 18.637 110.317C18.637 110.091 18.5473 109.874 18.3875 109.714C18.2277 109.554 18.011 109.464 17.7851 109.464C17.5591 109.464 17.3424 109.554 17.1826 109.714C17.0229 109.874 16.9331 110.091 16.9331 110.317L16.8649 113.353C16.8658 113.486 16.8969 113.616 16.9559 113.735C17.015 113.854 17.1004 113.958 17.2057 114.038C17.3109 114.119 17.4332 114.174 17.5631 114.2C17.6931 114.227 17.8273 114.222 17.9554 114.189L20.2046 113.558L19.2334 112.295L18.3814 113.813C18.2914 113.975 18.2566 114.162 18.2822 114.346C18.3079 114.53 18.3926 114.7 18.5235 114.831C18.6545 114.962 18.8246 115.047 19.008 115.073C19.1914 115.098 19.3782 115.063 19.5401 114.973C22.4039 113.751 24.7576 111.576 26.2024 108.816L24.6518 108.151C24.453 109.674 23.9488 111.142 23.1694 112.466C22.7775 113.165 23.6124 114.172 24.3281 113.643C25.6264 112.752 26.6526 111.518 27.2929 110.078L25.7253 109.413L25.2312 112.227C25.1724 112.453 25.2058 112.694 25.3241 112.895C25.4423 113.097 25.6357 113.243 25.8616 113.302C26.0876 113.361 26.3276 113.327 26.5289 113.209C26.7302 113.09 26.8763 112.897 26.9351 112.671C27.6439 110.831 27.8783 108.842 27.6166 106.888L25.9127 107.11L26.7988 111.46C26.9862 112.415 28.5027 112.176 28.5027 111.238L28.6901 109.259H26.9862C28.0426 112.022 24.6178 113.643 22.4197 113.779L22.6412 115.485C24.1811 115.085 25.7838 114.986 27.3611 115.195C27.4914 115.194 27.6199 115.164 27.7365 115.105C27.8532 115.047 27.9549 114.963 28.034 114.859C28.113 114.755 28.1671 114.635 28.1923 114.507C28.2174 114.379 28.2128 114.246 28.1789 114.12C27.0884 110.504 26.2365 101.311 30.2918 98.9058C30.4789 98.8064 30.6223 98.6409 30.6941 98.4414C30.7658 98.2419 30.7608 98.0228 30.6799 97.8268C30.5991 97.6309 30.4482 97.4721 30.2567 97.3814C30.0653 97.2908 29.8469 97.2748 29.6443 97.3366L20.9373 99.3834L21.3974 101.089L27.3611 99.5198C28.4175 99.2469 27.9574 97.6777 26.901 97.8142C21.8461 98.4982 16.8383 99.495 11.9066 100.799C10.6478 101.091 9.5114 101.768 8.65607 102.738C7.80074 103.707 7.26917 104.92 7.1356 106.206C6.50515 113.421 15.0758 115.178 20.4261 115.707C21.5166 115.809 21.4996 114.103 20.4261 114.001C17.9153 113.907 15.4408 113.37 13.1163 112.415C8.61801 110.231 6.67555 104.415 12.9289 102.283C17.4443 100.765 22.6753 100.356 27.3611 99.4516L26.901 97.7459L20.9373 99.3151C20.8254 99.3454 20.7206 99.3974 20.6288 99.4682C20.537 99.539 20.46 99.6272 20.4023 99.7278C20.2856 99.9309 20.2544 100.172 20.3154 100.398C20.3764 100.624 20.5246 100.817 20.7276 100.934C20.9305 101.051 21.1714 101.082 21.3974 101.021L30.0873 98.9911L29.4398 97.4219C24.5666 100.322 25.163 109.993 26.5432 114.581L27.3611 113.489C25.6502 113.311 23.9214 113.426 22.2493 113.83C22.1374 113.846 22.0297 113.884 21.9324 113.941C21.835 113.998 21.7499 114.074 21.6818 114.165C21.6138 114.255 21.5642 114.358 21.5358 114.467C21.5075 114.577 21.501 114.691 21.5166 114.803C21.5323 114.915 21.5698 115.023 21.6271 115.12C21.6844 115.217 21.7603 115.303 21.8505 115.371C21.9407 115.439 22.0434 115.489 22.1528 115.517C22.2621 115.545 22.376 115.552 22.4879 115.536C26.9862 115.263 30.5815 113.83 28.6901 108.85C28.4175 108.151 27.2247 107.946 26.9862 108.85C26.7985 109.649 26.7126 110.468 26.7306 111.289L28.4345 111.05L27.5485 106.718C27.361 105.78 25.8446 105.967 25.8446 106.94C26.0778 108.743 25.8672 110.575 25.2312 112.278L26.9351 112.722L27.4462 109.924C27.5996 109.055 26.3217 108.321 25.8787 109.276C25.4524 110.489 24.63 111.523 23.5443 112.21L24.7029 113.387C25.5581 111.931 26.1359 110.329 26.4069 108.662C26.5432 107.775 25.3504 107.093 24.8563 108.014C23.5419 110.529 21.3987 112.512 18.7904 113.626L19.949 114.786L20.801 113.285C20.8802 113.138 20.9155 112.971 20.9028 112.805C20.8901 112.639 20.8298 112.479 20.7292 112.346C20.6287 112.213 20.492 112.112 20.3356 112.055C20.1791 111.997 20.0094 111.986 19.8468 112.022L17.5976 112.654L18.6711 113.472L18.7563 110.419H16.8649C16.8649 114.956 23.6806 111.767 25.0949 109.583C25.1593 109.471 25.1971 109.345 25.2055 109.215C25.2139 109.086 25.1927 108.956 25.1434 108.836C25.0941 108.716 25.018 108.608 24.921 108.522C24.824 108.436 24.7086 108.373 24.5837 108.338C21.1758 107.861 20.1876 110.675 20.2898 113.711C20.2955 113.858 20.3385 114.002 20.4148 114.128C20.4911 114.254 20.5982 114.359 20.7259 114.432C20.8537 114.505 20.998 114.545 21.1452 114.547C21.2925 114.549 21.4379 114.514 21.5678 114.445C22.1402 114.227 22.6581 113.887 23.085 113.447C23.512 113.008 23.8376 112.48 24.039 111.902C24.2403 111.323 24.3126 110.707 24.2507 110.097C24.1888 109.487 23.9942 108.899 23.6806 108.372C23.6126 108.261 23.5205 108.167 23.4111 108.096C23.3017 108.025 23.1777 107.98 23.0485 107.963C22.9192 107.947 22.788 107.96 22.6644 108.001C22.5408 108.042 22.4281 108.111 22.3345 108.202C21.0305 109.532 20.0051 111.109 19.3186 112.841C18.9608 113.728 20.4772 114.376 20.8691 113.506C21.5884 111.924 22.1258 110.264 22.4708 108.56C22.5199 108.378 22.5072 108.185 22.4349 108.01C22.3625 107.836 22.2345 107.691 22.0709 107.597C21.9073 107.504 21.7174 107.467 21.5307 107.493C21.3441 107.519 21.1714 107.606 21.0395 107.741C19.4803 108.995 18.1538 110.513 17.1205 112.227C17.0338 112.407 17.0115 112.611 17.0573 112.805C17.103 112.999 17.2142 113.172 17.372 113.294C17.5298 113.416 17.7247 113.48 17.924 113.475C18.1233 113.47 18.3149 113.397 18.4666 113.268L20.9373 110.914L19.7275 109.703C19.0095 110.589 18.045 111.242 16.956 111.579C15.8671 111.916 14.7028 111.922 13.6105 111.596C13.0807 111.596 12.5604 111.456 12.1025 111.189C11.6445 110.922 11.2653 110.539 11.0035 110.078C9.42452 109.077 9.27117 107.645 10.5434 105.78L9.50404 104.739C8.92471 106.803 6.55627 107.946 7.69789 110.231C8.83952 112.517 13.2697 113.848 15.7063 114.325C16.456 114.479 17.2568 113.489 16.5412 112.909C14.8172 111.377 12.5934 110.528 10.2878 110.521C10.1019 110.523 9.9217 110.586 9.77472 110.7C9.62774 110.814 9.52206 110.973 9.47379 111.153C9.42552 111.333 9.43731 111.523 9.50738 111.696C9.57745 111.868 9.70194 112.013 9.86186 112.108C11.7873 113.387 14.6328 114.035 16.3197 111.954C16.9042 111.229 17.1815 110.303 17.0923 109.375C17.0031 108.447 16.5545 107.591 15.8426 106.991C15.7214 106.876 15.5697 106.799 15.4058 106.768C15.2418 106.737 15.0725 106.754 14.9179 106.817C14.7634 106.88 14.6303 106.986 14.5344 107.123C14.4385 107.259 14.384 107.421 14.3772 107.588C14.701 113.165 24.4644 111.46 21.6018 107.588C21.5233 107.464 21.415 107.363 21.2869 107.293C21.1589 107.222 21.0152 107.186 20.8691 107.186C20.7231 107.186 20.5794 107.222 20.4514 107.293C20.3233 107.363 20.215 107.464 20.1365 107.588C19.4079 108.438 18.9784 109.505 18.9137 110.623C18.8491 111.742 19.1529 112.85 19.7786 113.779C19.8433 113.891 19.9327 113.987 20.0399 114.06C20.1471 114.132 20.2694 114.179 20.3975 114.197C20.5256 114.215 20.6561 114.204 20.7791 114.164C20.9022 114.124 21.0146 114.057 21.1077 113.967C24.7302 110.358 27.5672 106.037 29.4398 101.277H27.7359L29.2013 106.957C29.2593 107.158 29.3878 107.331 29.5633 107.445C29.7389 107.559 29.9495 107.606 30.1567 107.577C30.3639 107.548 30.5536 107.445 30.6911 107.287C30.8286 107.129 30.9046 106.927 30.9052 106.718C30.9784 104.982 30.5904 103.257 29.7806 101.72C29.3717 100.901 28.2471 101.379 28.196 102.147C28.0656 103.745 27.757 105.324 27.2759 106.854L28.9798 107.076C29.0931 105.834 29.03 104.582 28.7923 103.358C28.7517 103.216 28.675 103.087 28.5697 102.983C28.4644 102.88 28.3341 102.806 28.1916 102.768C28.0491 102.73 27.8992 102.73 27.7566 102.768C27.614 102.805 27.4836 102.879 27.3781 102.982L25.1119 105.711L26.4409 105.882C24.2429 102.624 19.7616 106.155 20.0001 109.293C20.0069 109.46 20.0614 109.622 20.1573 109.758C20.2532 109.895 20.3864 110.001 20.5409 110.064C20.6954 110.127 20.8647 110.144 21.0287 110.113C21.1927 110.082 21.3443 110.005 21.4655 109.89C23.1694 107.963 25.3164 103.699 21.5848 102.539C17.5124 101.26 13.9172 105.711 14.6328 109.362C14.6926 109.578 14.8353 109.762 15.0299 109.874C15.2245 109.986 15.4553 110.016 15.6722 109.959C16.9896 109.803 18.2402 109.293 19.2905 108.482C20.3408 107.671 21.1514 106.589 21.6359 105.353C21.7392 105.157 21.765 104.928 21.7082 104.714C21.6514 104.499 21.5162 104.313 21.3292 104.193C18.9608 102.812 15.6892 102.965 14.5135 105.899C13.6786 107.997 14.9225 110.556 17.4784 109.396C19.3015 108.577 20.6306 105.08 18.7222 103.699C16.1834 101.857 10.8672 105.302 9.45292 107.349C8.44761 108.782 8.48169 110.556 10.5775 110.76C11.7995 110.623 12.918 110.008 13.69 109.05C14.4621 108.092 14.8254 106.868 14.701 105.643C12.9971 99.8439 4.64789 109.191 11.8214 108.662C13.7979 108.526 17.5465 105.763 14.7862 103.869C12.0258 101.976 9.67443 106.206 9.33365 108.372C9.23141 109.293 10.4923 109.413 10.9183 108.799C12.0596 107.254 12.7551 105.425 12.9289 103.511C12.9281 103.378 12.897 103.248 12.8379 103.129C12.7789 103.01 12.6934 102.906 12.5882 102.826C12.483 102.745 12.3607 102.69 12.2307 102.664C12.1008 102.637 11.9666 102.641 11.8384 102.675C7.49343 104.227 5.02274 108.304 9.0099 111.801C14.5647 116.594 22.4367 116.27 29.2694 115.877L29.0479 114.172C27.9076 114.686 26.6747 114.964 25.4241 114.987C24.1734 115.011 22.931 114.78 21.7722 114.308V116.014C24.9119 115.267 28.144 114.986 31.3653 115.178C31.532 115.176 31.6944 115.124 31.8323 115.03C31.9702 114.937 32.0776 114.804 32.1411 114.65C32.2046 114.496 32.2214 114.326 32.1895 114.162C32.1576 113.998 32.0784 113.847 31.9616 113.728C31.1473 112.752 30.0621 112.04 28.8435 111.681C27.8041 111.323 27.361 112.961 28.4004 113.387L28.3152 113.268Z" fill="#242638"/>
<g opacity="0.1">
<path opacity="0.1" d="M158.444 25.9708C149.345 35.0962 144.301 47.6159 141.677 60.2379C139.053 72.86 138.644 85.8231 137.417 98.6839C135.236 121.523 130.482 144.243 131.079 167.184C131.283 174.825 132.067 182.433 132.936 190.023C135.321 211.225 138.286 232.511 145.051 252.741C149.485 266.524 156.113 279.501 164.68 291.17C168.669 296.838 173.338 301.993 178.584 306.521C184.36 311.126 193.357 313.139 200.547 313.753C204.16 314.06 208.828 313.19 209.51 309.642C210.191 306.094 205.898 303.416 202.404 301.933C191.986 297.487 182.573 290.977 174.733 282.795C172.92 281.09 171.461 279.044 170.439 276.774C169.764 274.729 169.385 272.598 169.314 270.446C168.156 257.193 165.77 244.076 164.373 230.857C160.727 196.368 163.964 161.521 162.363 126.811C161.681 111.869 160.096 96.9953 158.341 82.1559C156.637 67.9305 152.241 53.4493 155.291 39.0705C156.135 36.1574 156.655 33.16 156.842 30.1327C156.842 28.2053 156.467 26.022 157.694 24.5381" fill="#040015"/>
</g>
<path d="M84.7329 319.774C84.7329 325.539 86.8117 331.253 88.3963 336.728C90.1002 342.852 92.1449 348.89 94.2578 354.894C94.6326 355.917 96.2684 355.491 95.9617 354.45C94.0192 348.941 92.1961 343.398 90.5433 337.803C88.8905 332.208 86.4709 325.863 86.4879 319.774C86.4879 319.548 86.3982 319.331 86.2384 319.171C86.0786 319.011 85.8619 318.921 85.636 318.921C85.41 318.921 85.1933 319.011 85.0335 319.171C84.8738 319.331 84.784 319.548 84.784 319.774H84.7329Z" fill="#242638"/>
<path d="M86.8954 326.767C87.6621 336.558 92.0071 345.171 96.5736 353.7C96.6871 353.865 96.8541 353.986 97.0463 354.042C97.2385 354.098 97.4442 354.086 97.6285 354.007C97.8128 353.929 97.9645 353.79 98.0579 353.612C98.1513 353.435 98.1807 353.231 98.1412 353.035L97.7322 351.585C97.6712 351.359 97.523 351.166 97.32 351.049C97.1171 350.932 96.8762 350.901 96.6502 350.962C96.4243 351.023 96.2318 351.172 96.1152 351.375C95.9986 351.578 95.9673 351.819 96.0283 352.045L96.4373 353.495L97.9878 352.83C93.5917 344.609 89.2808 336.234 88.5482 326.767C88.5482 325.693 86.8442 325.676 86.8442 326.767H86.8954Z" fill="#242638"/>
<path d="M88.4295 330.708C89.9119 338.178 94.4954 344.472 96.2334 351.858C96.489 352.916 98.1247 352.472 97.9373 351.398C96.2334 344.012 91.6158 337.752 90.1334 330.247C89.9289 329.173 88.2761 329.633 88.4295 330.708Z" fill="#242638"/>
<path d="M89.8777 328.848C89.4688 336.183 93.2855 342.63 94.3079 349.777C94.4442 350.852 96.1481 350.869 96.0118 349.777C95.0576 342.664 91.1727 336.132 91.5816 328.848C91.5816 327.74 89.8777 327.74 89.8777 328.848Z" fill="#242638"/>
<path d="M91.8374 331.867C91.4249 338.205 92.1815 344.565 94.0695 350.63C94.3933 351.67 96.0461 351.227 95.7734 350.169C93.9031 344.259 93.1462 338.053 93.5413 331.867C93.5413 330.775 91.8374 330.775 91.8374 331.867Z" fill="#242638"/>
<path d="M93.933 333.266C93.4721 339.025 93.9847 344.82 95.4495 350.408C95.5105 350.634 95.6588 350.827 95.8617 350.943C96.0646 351.06 96.3055 351.092 96.5315 351.03C96.7574 350.969 96.9499 350.821 97.0665 350.618C97.1832 350.415 97.2144 350.174 97.1534 349.947C95.7318 344.509 95.2364 338.869 95.688 333.266C95.7732 332.157 94.0693 332.174 93.9841 333.266H93.933Z" fill="#242638"/>
<path d="M95.6195 341.607C95.4143 346.158 95.5396 350.719 95.9944 355.252C96.0966 356.344 97.8005 356.344 97.6983 355.252C97.2435 350.719 97.1182 346.158 97.3234 341.607C97.3234 340.515 95.6195 340.515 95.6195 341.607Z" fill="#242638"/>
<path d="M97.6982 348.105L98.1753 350.186C98.4139 351.261 100.05 350.8 99.8792 349.743L99.4192 347.645C99.1806 346.57 97.5449 347.031 97.7153 348.105H97.6982Z" fill="#242638"/>
<path d="M97.2212 347.61C97.4255 350.188 97.8184 352.748 98.3969 355.269C98.6354 356.326 100.271 355.883 100.101 354.808C99.5701 352.437 99.2 350.032 98.9933 347.61C98.891 346.519 97.1871 346.519 97.2893 347.61H97.2212Z" fill="#242638"/>
<path d="M84.6294 330.554C86.3333 338.554 89.8434 346.315 92.6378 353.99C92.6988 354.216 92.847 354.409 93.05 354.526C93.2529 354.643 93.4938 354.674 93.7198 354.613C93.9457 354.552 94.1382 354.403 94.2548 354.2C94.3714 353.997 94.4027 353.756 94.3417 353.53C93.5353 349.331 92.3666 345.211 90.8487 341.215C89.7582 337.94 89.0425 334.085 87.083 331.22C86.4696 330.333 84.9872 331.22 85.6177 332.089C87.7305 335.16 88.5313 339.646 89.7071 343.176C91.0139 346.687 92.0116 350.306 92.6889 353.99L94.3928 353.53C91.5984 345.871 88.0372 338.179 86.3844 330.094C86.1629 329.019 84.5101 329.48 84.6805 330.554H84.6294Z" fill="#242638"/>
<path d="M175.925 313.497C185.793 316.337 196.021 317.733 206.289 317.642C206.515 317.642 206.731 317.552 206.891 317.392C207.051 317.232 207.141 317.015 207.141 316.789C207.141 316.562 207.051 316.346 206.891 316.186C206.731 316.026 206.515 315.936 206.289 315.936C196.168 316.002 186.09 314.606 176.368 311.791C176.142 311.732 175.902 311.766 175.701 311.884C175.499 312.002 175.353 312.196 175.294 312.422C175.236 312.648 175.269 312.889 175.387 313.09C175.506 313.292 175.699 313.438 175.925 313.497V313.497Z" fill="#242638"/>
<path d="M186.115 316.533C192.521 317.204 198.939 317.773 205.369 318.239C206.459 318.324 206.459 316.619 205.369 316.533C198.951 316.079 192.533 315.51 186.115 314.828C185.041 314.708 185.041 316.414 186.115 316.533Z" fill="#242638"/>
<path d="M199.797 319.26H207.448C207.674 319.26 207.89 319.171 208.05 319.011C208.21 318.851 208.3 318.634 208.3 318.408C208.3 318.182 208.21 317.966 208.05 317.806C207.89 317.646 207.674 317.556 207.448 317.556H199.797C199.571 317.556 199.355 317.646 199.195 317.806C199.035 317.966 198.945 318.182 198.945 318.408C198.945 318.634 199.035 318.851 199.195 319.011C199.355 319.171 199.571 319.26 199.797 319.26Z" fill="#242638"/>
<path d="M192.623 315.987L205.828 315.526C206.919 315.526 206.919 313.821 205.828 313.821L192.623 314.281C192.397 314.281 192.18 314.371 192.021 314.531C191.861 314.691 191.771 314.908 191.771 315.134C191.771 315.36 191.861 315.577 192.021 315.737C192.18 315.897 192.397 315.987 192.623 315.987Z" fill="#242638"/>
<path d="M194.941 314.861C197.504 315.01 200.058 315.294 202.591 315.714C203.665 315.902 204.125 314.264 203.051 314.008C200.367 313.549 197.659 313.242 194.941 313.087C193.833 313.087 193.833 314.793 194.941 314.793V314.861Z" fill="#242638"/>
<path d="M191.925 313.002L202.83 314.708C203.903 314.896 204.363 313.241 203.273 313.002L192.368 311.297C191.294 311.126 190.834 312.763 191.925 313.002Z" fill="#242638"/>
<path d="M200.274 312.968L202.591 313.667C203.631 313.991 204.091 312.337 203.034 311.961L200.717 311.262C199.678 310.938 199.218 312.592 200.274 312.968Z" fill="#242638"/>
<path d="M200.274 312.968C202.33 313.409 204.343 314.031 206.289 314.828C207.311 315.237 207.754 313.6 206.749 313.122C204.797 312.326 202.779 311.703 200.717 311.263C199.661 311.024 199.201 312.678 200.274 312.968V312.968Z" fill="#242638"/>
<path d="M194.958 311.415C198.587 311.823 202.148 312.695 205.556 314.007C206.579 314.4 207.022 312.762 206.016 312.302C202.46 310.943 198.743 310.048 194.958 309.641C193.868 309.521 193.868 311.227 194.958 311.346V311.415Z" fill="#242638"/>
<path d="M196.815 309.897C199.929 311.446 203.188 312.686 206.544 313.599C206.656 313.629 206.773 313.637 206.888 313.622C207.003 313.607 207.114 313.569 207.214 313.512C207.314 313.454 207.403 313.377 207.473 313.285C207.544 313.193 207.596 313.088 207.626 312.976C207.656 312.864 207.664 312.747 207.649 312.632C207.634 312.517 207.597 312.406 207.539 312.306C207.482 312.205 207.405 312.117 207.313 312.046C207.221 311.975 207.116 311.923 207.004 311.893C203.784 311.033 200.656 309.856 197.667 308.379C196.696 307.885 195.827 309.351 196.815 309.846V309.897Z" fill="#242638"/>
<path d="M202.114 310.664L207.686 312.489C208.725 312.847 209.185 311.193 208.146 310.783L202.591 309.027C201.535 308.686 201.092 310.323 202.131 310.732L202.114 310.664Z" fill="#242638"/>
<path d="M203.051 309.744C205.319 310.481 207.51 311.435 209.594 312.593C210.566 313.122 211.418 311.655 210.463 311.126C208.238 309.903 205.905 308.886 203.494 308.09C202.455 307.749 202.012 309.403 203.051 309.796V309.744Z" fill="#242638"/>
<path d="M46.3591 394.551C46.9896 398.286 48.063 401.373 52.0161 402.567C57.1279 404.085 63.1768 403.795 68.4248 403.881C80.9934 403.909 93.5519 403.169 106.03 401.663C107.104 401.544 107.121 399.838 106.03 399.958C96.2497 400.981 86.4352 401.902 76.6036 402.141C71.969 402.26 67.3343 402.141 62.6997 401.987C60.246 401.851 57.7924 401.732 55.3558 401.425C52.9192 401.118 51.2834 400.793 49.7329 398.508C48.7597 397.226 48.169 395.694 48.029 394.09C47.8415 393.016 46.2058 393.476 46.3251 394.551H46.3591Z" fill="#242638"/>
<path d="M93.7788 393.8C93.7815 396.182 93.9123 398.562 94.1707 400.93C94.29 402.004 95.9939 402.021 95.8746 400.93C95.6162 398.562 95.4854 396.182 95.4827 393.8C95.4827 393.574 95.393 393.357 95.2332 393.197C95.0734 393.037 94.8567 392.947 94.6308 392.947C94.4048 392.947 94.1881 393.037 94.0284 393.197C93.8686 393.357 93.7788 393.574 93.7788 393.8Z" fill="#242638"/>
<path d="M64.9829 395.199C65.0851 397.758 65.1022 400.316 64.9829 402.858C64.9829 403.084 65.0727 403.301 65.2324 403.461C65.3922 403.621 65.6089 403.711 65.8349 403.711C66.0608 403.711 66.2775 403.621 66.4373 403.461C66.5971 403.301 66.6868 403.084 66.6868 402.858C66.6868 400.299 66.6868 397.741 66.6868 395.199C66.6868 394.108 64.9829 394.09 64.9829 395.199Z" fill="#242638"/>
<path d="M87.8495 351.397L104.974 352.25C105.121 352.239 105.27 352.257 105.41 352.304C105.551 352.35 105.681 352.425 105.792 352.523C105.914 352.699 105.985 352.906 105.996 353.12C107.413 363.661 107.784 374.317 107.104 384.931C107.197 386.895 106.594 388.828 105.4 390.389C104.167 391.442 102.648 392.102 101.038 392.282C87.662 394.994 73.9115 394.977 60.2631 394.943C58.665 395.02 57.0651 394.835 55.5262 394.397C55.137 394.289 54.7876 394.07 54.5209 393.766C54.2638 393.373 54.144 392.905 54.1801 392.436C54.1966 390.513 54.7793 388.638 55.8553 387.045C56.9312 385.452 58.4526 384.212 60.229 383.481C63.0064 382.389 66.0905 382.645 69.0553 382.304C73.0867 381.659 77.0055 380.442 80.693 378.688C82.4237 378.087 84.021 377.154 85.3958 375.942C87.1169 373.866 88.1158 371.285 88.2414 368.59C88.9602 363.086 88.8684 357.506 87.9687 352.028L87.8495 351.397Z" fill="#242638"/>
<g opacity="0.3">
<path opacity="0.3" d="M87.85 351.397L104.974 352.25C105.122 352.238 105.27 352.256 105.411 352.303C105.551 352.35 105.681 352.425 105.792 352.522C105.915 352.698 105.986 352.905 105.997 353.119C107.413 363.661 107.784 374.316 107.104 384.93C107.198 386.894 106.594 388.828 105.4 390.388C104.168 391.442 102.649 392.101 101.038 392.282C87.6625 394.994 73.9119 394.977 60.2636 394.943C58.6655 395.019 57.0656 394.835 55.5267 394.397C55.1375 394.289 54.7881 394.069 54.5214 393.766C54.2643 393.372 54.1445 392.904 54.1806 392.435C54.1971 390.513 54.7798 388.637 55.8558 387.045C56.9317 385.452 58.4531 384.212 60.2295 383.481C63.0069 382.389 66.091 382.645 69.0558 382.304C73.0872 381.659 77.006 380.441 80.6935 378.688C82.4242 378.086 84.0214 377.153 85.3963 375.941C87.1174 373.865 88.1163 371.285 88.2419 368.59C88.9607 363.086 88.8688 357.505 87.9692 352.028L87.85 351.397Z" fill="black"/>
</g>
<path d="M247.268 366.867C251 366.219 254.084 365.161 255.276 361.187C256.793 356.07 256.503 350.015 256.588 344.778C256.617 332.197 255.878 319.625 254.373 307.134C254.254 306.043 252.55 306.043 252.669 307.134C253.692 316.925 254.612 326.732 254.85 336.591C254.97 341.231 254.936 345.87 254.697 350.493C254.578 352.949 254.441 355.422 254.135 357.844C253.828 360.266 253.504 361.938 251.221 363.473C249.945 364.444 248.421 365.035 246.825 365.178C245.734 365.366 246.195 367.003 247.268 366.884V366.867Z" fill="#242638"/>
<path d="M246.535 319.382C248.909 319.379 251.281 319.248 253.64 318.99C254.714 318.87 254.731 317.165 253.64 317.284C251.281 317.542 248.909 317.673 246.535 317.676C246.309 317.676 246.092 317.766 245.933 317.926C245.773 318.086 245.683 318.303 245.683 318.529C245.683 318.755 245.773 318.972 245.933 319.132C246.092 319.292 246.309 319.382 246.535 319.382Z" fill="#242638"/>
<path d="M247.916 348.206C250.471 348.103 253.027 348.086 255.566 348.206C256.657 348.206 256.657 346.502 255.566 346.502C253.01 346.502 250.454 346.502 247.916 346.502C246.825 346.502 246.808 348.206 247.916 348.206Z" fill="#242638"/>
<path d="M204.159 325.318L205.011 308.176C204.991 307.878 205.089 307.584 205.283 307.357C205.461 307.239 205.667 307.168 205.88 307.152C216.411 305.751 227.054 305.38 237.658 306.044C239.62 305.948 241.552 306.553 243.11 307.749C244.159 308.985 244.817 310.505 245.002 312.116C247.711 325.505 247.694 339.287 247.66 352.933C247.737 354.532 247.553 356.134 247.114 357.674C247.007 358.069 246.788 358.424 246.484 358.698C246.085 358.941 245.621 359.055 245.155 359.022C243.236 359.009 241.363 358.429 239.771 357.355C238.18 356.281 236.941 354.76 236.209 352.984C235.119 350.204 235.374 347.099 235.051 344.148C234.393 340.109 233.171 336.181 231.421 332.482C230.817 330.751 229.885 329.153 228.678 327.774C226.6 326.059 224.024 325.06 221.334 324.925C215.835 324.206 210.261 324.298 204.789 325.198L204.159 325.318Z" fill="#242638"/>
<path d="M221.335 211.958C207.703 202.031 198.502 185.742 186.882 173.546C183.797 170.305 180.492 168.19 177.885 164.557C175.908 161.794 172.773 159.201 170.609 156.541C164.833 149.24 156.501 144.379 147.913 140.763C145.834 139.893 141.966 139.381 139.717 144.174C139.179 145.027 138.878 146.007 138.845 147.014C138.812 148.022 139.049 149.02 139.53 149.906C140.884 151.513 142.555 152.826 144.437 153.76C148.858 156.633 153.026 159.88 156.893 163.466C166.207 171.744 175.17 180.397 183.78 189.426C193.578 199.66 203.069 210.628 215.235 217.911C215.446 218.137 215.711 218.305 216.006 218.4C216.3 218.494 216.613 218.513 216.916 218.453C217.22 218.394 217.503 218.258 217.739 218.058C217.975 217.859 218.157 217.603 218.268 217.314L221.215 213.016" fill="#F14F51"/>
<path d="M210.481 204.111C215.048 206.039 218.728 210.422 222.408 213.714C223.209 214.448 224.419 213.237 223.618 212.503C219.733 208.955 215.934 204.538 211.009 202.457C210.004 202.047 209.561 203.685 210.549 204.162L210.481 204.111Z" fill="#242638"/>
<path d="M210.174 205.51C213.275 208.205 216.428 210.843 219.631 213.424C220.466 214.106 221.693 212.895 220.824 212.213C217.643 209.643 214.497 207.005 211.384 204.299C210.566 203.582 209.356 204.776 210.174 205.51Z" fill="#242638"/>
<path d="M215.593 212.435L219.529 215.215C220.432 215.846 221.233 214.379 220.398 213.748L216.445 210.968C215.559 210.337 214.741 211.804 215.593 212.435Z" fill="#242638"/>
<path d="M216.019 211.156C216.245 211.156 216.461 211.066 216.621 210.906C216.781 210.746 216.871 210.529 216.871 210.303C216.871 210.077 216.781 209.86 216.621 209.7C216.461 209.54 216.245 209.45 216.019 209.45C215.793 209.45 215.576 209.54 215.416 209.7C215.257 209.86 215.167 210.077 215.167 210.303C215.167 210.529 215.257 210.746 215.416 210.906C215.576 211.066 215.793 211.156 216.019 211.156Z" fill="#242638"/>
<path d="M215.065 210.081V209.143L214.213 209.996C214.666 210.007 215.106 210.156 215.473 210.422C216.155 210.832 217.177 209.962 216.632 209.245C216.284 208.751 215.844 208.329 215.337 208L214.485 209.467C215.638 210.099 216.637 210.979 217.409 212.043C218.181 213.108 218.707 214.331 218.949 215.625C219.154 216.699 220.79 216.239 220.653 215.164C220.357 213.658 219.733 212.235 218.826 210.997C217.919 209.759 216.751 208.736 215.405 208C215.213 207.913 214.996 207.901 214.795 207.965C214.594 208.029 214.424 208.166 214.318 208.349C214.212 208.531 214.177 208.747 214.221 208.953C214.264 209.16 214.383 209.343 214.553 209.467C214.824 209.633 215.056 209.854 215.235 210.115L216.394 208.955C215.753 208.567 215.028 208.339 214.281 208.29C214.056 208.294 213.842 208.386 213.683 208.545C213.524 208.704 213.433 208.918 213.429 209.143V210.081C213.429 211.173 215.133 211.173 215.133 210.081H215.065Z" fill="#242638"/>
<path d="M215.32 214.175C215.546 214.175 215.763 214.085 215.923 213.925C216.082 213.765 216.172 213.548 216.172 213.322C216.172 213.096 216.082 212.879 215.923 212.719C215.763 212.559 215.546 212.469 215.32 212.469C215.094 212.469 214.877 212.559 214.718 212.719C214.558 212.879 214.468 213.096 214.468 213.322C214.468 213.548 214.558 213.765 214.718 213.925C214.877 214.085 215.094 214.175 215.32 214.175Z" fill="#242638"/>
<path d="M213.156 212.026L211.316 209.74L210.123 210.934C213.384 213.526 216.798 215.918 220.347 218.098C221.284 218.678 222.051 217.194 221.216 216.614C217.795 214.537 214.501 212.259 211.35 209.791C211.186 209.668 210.983 209.608 210.778 209.623C210.574 209.637 210.381 209.725 210.236 209.87C210.091 210.016 210.004 210.208 209.989 210.413C209.975 210.618 210.034 210.821 210.157 210.985L211.98 213.288C212.662 214.141 213.855 212.93 213.19 212.077L213.156 212.026Z" fill="#242638"/>
<path d="M214.059 213.424C212.822 212.066 211.446 210.843 209.953 209.774C209.824 209.699 209.677 209.66 209.528 209.66C209.379 209.66 209.232 209.698 209.103 209.773C208.974 209.847 208.866 209.954 208.791 210.083C208.716 210.212 208.676 210.358 208.675 210.507C208.717 211.677 209.212 212.784 210.055 213.595L211.077 212.264C208.751 210.477 206.563 208.516 204.534 206.397L203.699 207.83L204.449 208.12C205.472 208.512 205.915 206.857 204.892 206.414L204.16 206.124C203.325 205.817 202.779 206.994 203.325 207.557C205.442 209.763 207.72 211.81 210.14 213.68C210.924 214.277 211.844 213.015 211.163 212.35C210.883 212.121 210.66 211.832 210.509 211.504C210.359 211.176 210.285 210.817 210.294 210.456L208.999 211.19C210.372 212.189 211.634 213.333 212.764 214.601C213.514 215.42 214.707 214.209 213.974 213.39L214.059 213.424Z" fill="#242638"/>
<path d="M207.533 211.377L209.391 213.237C209.551 213.397 209.769 213.487 209.995 213.487C210.222 213.487 210.44 213.397 210.6 213.237C210.761 213.076 210.851 212.858 210.851 212.631C210.851 212.404 210.761 212.186 210.6 212.026L208.743 210.166C208.583 210.006 208.365 209.916 208.138 209.916C207.911 209.916 207.694 210.006 207.533 210.166C207.373 210.327 207.283 210.545 207.283 210.772C207.283 210.999 207.373 211.217 207.533 211.377Z" fill="#242638"/>
<path d="M210.191 211.429C212.265 214.144 214.495 216.735 216.871 219.189L218.08 217.978C216.501 216.601 214.788 215.384 212.969 214.345L212.1 215.812C213.292 216.341 215.661 217.944 216.956 217.245C218.251 216.546 217.842 213.561 217.637 212.298C217.594 212.156 217.515 212.028 217.408 211.925C217.301 211.822 217.17 211.748 217.026 211.711C216.883 211.673 216.732 211.673 216.589 211.71C216.445 211.747 216.313 211.821 216.206 211.923L215.422 212.691L216.445 212.554L215.661 211.258L216.496 209.825C215.307 209.588 214.233 208.957 213.446 208.034L213.071 209.467C214.286 209.223 215.549 209.455 216.598 210.115C216.76 210.213 216.95 210.254 217.138 210.232C217.326 210.209 217.501 210.125 217.636 209.992C217.77 209.859 217.857 209.685 217.882 209.497C217.907 209.31 217.869 209.119 217.774 208.955L217.399 208.239L216.888 209.484C219.222 210.593 219.461 211.804 217.586 213.083L218.847 214.055C219.853 215.079 219.904 215.863 219.035 216.426L220.381 216.597L220.636 215.232L219.375 214.277C219.176 214.814 218.858 215.298 218.445 215.694C218.032 216.09 217.534 216.387 216.99 216.563L218.046 217.62C219.035 214.942 220.807 211.514 219.12 208.734C218.544 207.818 217.706 207.098 216.715 206.666C215.724 206.234 214.627 206.111 213.565 206.312C212.492 206.465 212.952 208.017 214.025 208.017C214.617 207.937 215.219 208.004 215.778 208.214C216.337 208.423 216.835 208.768 217.228 209.218C217.621 209.667 217.897 210.207 218.031 210.789C218.165 211.372 218.153 211.978 217.995 212.554C217.613 214.16 217.077 215.725 216.394 217.228C216.356 217.374 216.358 217.527 216.398 217.673C216.438 217.818 216.515 217.951 216.621 218.057C216.728 218.164 216.86 218.241 217.006 218.281C217.151 218.321 217.304 218.323 217.45 218.285C218.269 218.006 219.015 217.547 219.634 216.942C220.253 216.337 220.729 215.601 221.028 214.789C221.301 214.124 220.364 213.424 219.767 213.834C219.465 214.015 219.203 214.256 218.995 214.54C218.787 214.825 218.638 215.149 218.557 215.492C218.476 215.836 218.465 216.192 218.523 216.54C218.582 216.887 218.709 217.22 218.898 217.518C218.967 217.628 219.059 217.721 219.168 217.792C219.276 217.863 219.399 217.908 219.528 217.926C219.656 217.944 219.787 217.934 219.911 217.896C220.034 217.857 220.148 217.792 220.244 217.705C221.625 216.409 222.613 214.175 220.96 212.588C220.675 212.318 220.324 212.127 219.943 212.032C219.562 211.937 219.163 211.942 218.784 212.046C218.406 212.151 218.06 212.352 217.782 212.629C217.503 212.906 217.301 213.25 217.194 213.629C217.15 213.793 217.155 213.967 217.21 214.128C217.265 214.289 217.367 214.43 217.502 214.533C217.638 214.636 217.801 214.696 217.971 214.705C218.141 214.714 218.31 214.672 218.455 214.584C219.285 214.12 219.927 213.38 220.27 212.492C220.612 211.604 220.633 210.625 220.33 209.723C220.013 208.994 219.443 208.406 218.725 208.067C218.007 207.728 217.191 207.662 216.428 207.881C216.303 207.916 216.187 207.978 216.09 208.065C215.993 208.151 215.917 208.258 215.868 208.378C215.819 208.498 215.797 208.628 215.806 208.758C215.814 208.887 215.852 209.013 215.917 209.126L216.291 209.842L217.467 208.682C216.009 207.807 214.277 207.509 212.611 207.847C212.469 207.89 212.341 207.969 212.238 208.076C212.135 208.183 212.061 208.315 212.024 208.458C211.986 208.602 211.986 208.753 212.023 208.896C212.06 209.04 212.134 209.172 212.236 209.279C213.227 210.417 214.561 211.201 216.036 211.514C216.216 211.554 216.404 211.537 216.574 211.463C216.743 211.389 216.884 211.263 216.977 211.104C217.07 210.944 217.11 210.759 217.091 210.575C217.072 210.391 216.995 210.218 216.871 210.081C216.695 209.851 216.464 209.669 216.199 209.553C215.934 209.437 215.643 209.39 215.355 209.417C215.067 209.445 214.791 209.545 214.552 209.709C214.313 209.873 214.12 210.095 213.991 210.354C213.139 211.872 214.468 213.202 215.593 214.072C215.755 214.165 215.942 214.201 216.127 214.177C216.312 214.152 216.483 214.067 216.615 213.936L217.416 213.168L215.985 212.793C216.138 213.527 216.189 214.279 216.138 215.027C216.308 215.642 216.138 215.812 215.763 215.539C215.03 215.642 213.633 214.669 212.969 214.379C211.98 213.936 211.128 215.3 212.1 215.846C213.81 216.814 215.415 217.957 216.888 219.258C217.706 219.957 218.864 218.848 218.098 218.047C215.816 215.704 213.672 213.233 211.674 210.644C211.009 209.791 209.544 210.644 210.208 211.497L210.191 211.429Z" fill="#242638"/>
<path opacity="0.1" d="M135.423 148.046C139.151 149.055 142.744 150.509 146.124 152.378C159.278 159.355 170.302 169.725 181.139 179.959C184.425 182.913 187.489 186.106 190.306 189.511C192.828 192.718 195.878 195.123 198.332 198.363C200.785 201.604 206.05 204.964 208.555 208.597C211.228 212.038 215.043 212.78 215.371 217.126C211.13 213.433 207.703 213.714 203.443 207.745C190.596 200.632 184.717 187.294 172.773 178.748C159.142 165.956 156.586 159.133 140.399 152.31C139.621 150.399 130.312 152.387 130.925 150.417C131.743 148.541 134.333 147.364 135.934 148.711" fill="#242638"/>
<path d="M81.9891 68.8349C81.0967 70.2332 80.4833 71.7914 80.183 73.4232C80.0296 74.5831 79.8252 76.5105 81.1883 77.0392C82.5514 77.568 83.1989 76.05 83.4375 74.9413C83.6126 74.1351 83.67 73.3077 83.6078 72.4851C83.6078 71.8881 82.7729 69.9777 82.9944 69.5854H81.512C82.2184 70.6127 82.6299 71.814 82.702 73.059C82.7741 74.304 82.504 75.5449 81.921 76.6469H83.3182C82.0743 74.3784 82.5855 71.8028 83.0967 69.3808C83.2671 68.6132 82.2788 67.8797 81.6824 68.562C80.4605 69.9166 79.8085 71.6913 79.8625 73.5156C79.9165 75.3399 80.6723 77.0728 81.9721 78.3526C82.7559 79.1202 83.9657 77.9091 83.1819 77.1586C82.1952 76.1978 81.6135 74.8952 81.5565 73.5184C81.4994 72.1417 81.9713 70.7953 82.8752 69.756L81.4609 68.9373C80.8475 71.8369 80.3704 74.8048 81.8528 77.4657C81.9283 77.5929 82.0355 77.6983 82.1639 77.7716C82.2924 77.8448 82.4377 77.8833 82.5855 77.8833C82.7333 77.8833 82.8786 77.8448 83.0071 77.7716C83.1355 77.6983 83.2427 77.5929 83.3182 77.4657C84.056 76.1039 84.4094 74.5667 84.3403 73.0191C84.2713 71.4715 83.7824 69.9719 82.9263 68.6814C82.8486 68.5544 82.7397 68.4495 82.6099 68.3767C82.4801 68.3038 82.3339 68.2656 82.1851 68.2656C82.0363 68.2656 81.89 68.3038 81.7603 68.3767C81.6305 68.4495 81.5215 68.5544 81.4439 68.6814C81.3056 68.9627 81.2336 69.272 81.2336 69.5854C81.2336 69.8989 81.3056 70.2082 81.4439 70.4894C81.7898 71.7723 81.9165 73.1044 81.8187 74.4296C81.8187 74.8389 81.6313 75.4871 81.8187 74.4296C81.921 73.8496 81.921 73.2526 82.0743 72.7239C82.4103 71.6677 82.8798 70.6588 83.4715 69.7219C84.0168 68.7497 82.5344 67.8968 82.0062 68.852L81.9891 68.8349Z" fill="#242638"/>
<path d="M106.884 72.5193L106.304 76.3741C106.055 77.3365 105.974 78.3349 106.066 79.3249C106.106 79.6328 106.221 79.926 106.402 80.1787C106.582 80.4314 106.821 80.6358 107.099 80.774C107.377 80.9121 107.684 80.9798 107.994 80.971C108.304 80.9623 108.608 80.8773 108.877 80.7236C110.377 79.7343 110.121 76.8858 110.053 75.3678C110.053 74.2249 110.053 71.9564 108.485 71.6835C106.918 71.4106 106.662 73.6109 106.458 74.6855C106.202 76.1524 105.708 78.5915 106.747 79.8025C106.909 80.0064 107.121 80.164 107.363 80.2598C107.605 80.3555 107.868 80.3858 108.125 80.3478C108.382 80.3098 108.625 80.2047 108.828 80.0432C109.032 79.8816 109.19 79.6692 109.286 79.4273C109.751 78.4864 110.003 77.4542 110.024 76.4045C110.044 75.3548 109.833 74.3136 109.405 73.3551C109.167 72.7751 108.178 72.3999 107.838 73.1504C106.89 74.9323 106.509 76.962 106.747 78.9667C106.788 79.2289 106.895 79.4763 107.058 79.6853C107.221 79.8943 107.435 80.0579 107.68 80.1605C107.924 80.2632 108.191 80.3014 108.454 80.2716C108.717 80.2418 108.969 80.1449 109.184 79.9901C110.303 78.74 110.911 77.1143 110.888 75.436C110.975 74.6082 110.843 73.772 110.505 73.0115C110.167 72.251 109.635 71.593 108.962 71.1036C108.85 71.0391 108.724 71.0012 108.594 70.9928C108.465 70.9843 108.335 71.0056 108.215 71.055C108.095 71.1043 107.988 71.1805 107.902 71.2776C107.816 71.3747 107.753 71.4902 107.718 71.6153C107.188 73.0426 106.817 74.5241 106.611 76.033C106.214 77.4907 106.255 79.0335 106.73 80.4677C106.888 80.8998 107.211 81.2512 107.628 81.4447C108.045 81.6382 108.522 81.658 108.954 81.4997C109.385 81.3413 109.736 81.0179 109.93 80.6004C110.123 80.183 110.143 79.7058 109.985 79.2737C109.865 78.1992 108.161 78.1821 108.281 79.2737C108.09 76.824 108.457 74.3629 109.354 72.0758L108.11 72.5704C109.644 73.6962 109.405 76.3571 108.553 77.8581C107.923 78.9497 108.434 76.9199 108.468 76.6982C108.613 75.7713 108.888 74.8697 109.286 74.0203L107.718 73.8156C108.067 74.5947 108.258 75.4353 108.281 76.2888C108.281 76.7737 108.212 77.2561 108.076 77.7216L107.787 78.5744H107.957C107.829 77.7493 107.829 76.9093 107.957 76.0841C108.008 75.5729 108.093 75.0657 108.213 74.5661C108.213 74.3273 108.434 72.8604 108.383 73.7644C108.332 74.6684 108.383 75.4701 108.383 76.3229C108.383 76.7493 108.383 77.1587 108.383 77.5851C108.383 78.0116 108.502 78.9326 108.025 78.5574C107.548 78.1821 108.451 73.9009 108.587 72.9627C108.724 72.0246 107.105 71.4276 106.884 72.5193V72.5193Z" fill="#242638"/>
<path d="M77.4393 107.554C83.8787 107.211 90.2147 105.787 96.1824 103.341C100.561 101.516 105.588 99.2983 106.866 94.2836C106.896 94.1716 106.904 94.0547 106.889 93.9397C106.874 93.8246 106.837 93.7136 106.779 93.6131C106.721 93.5125 106.644 93.4243 106.552 93.3535C106.461 93.2827 106.356 93.2307 106.244 93.2005C106.132 93.1702 106.015 93.1623 105.9 93.1773C105.786 93.1922 105.675 93.2296 105.574 93.2874C105.474 93.3452 105.386 93.4223 105.315 93.5142C105.244 93.6061 105.192 93.7111 105.162 93.8231C103.816 99.1107 96.7276 101.464 92.1441 103.017C87.3753 104.621 82.4118 105.574 77.3882 105.848C76.2977 105.848 76.2977 107.554 77.3882 107.554H77.4393Z" fill="#242638"/>
<path opacity="0.3" d="M124.467 96.1426C121.706 99.554 122.763 105.746 128.028 105.609C129.146 105.529 130.229 105.184 131.188 104.603C132.147 104.023 132.955 103.223 133.546 102.269C134.136 101.315 134.492 100.234 134.584 99.1161C134.677 97.9978 134.503 96.8736 134.077 95.8356C131.759 90.7186 124.91 92.2196 123.086 96.9784C122.711 97.9513 122.636 99.0145 122.869 100.031C123.103 101.047 123.636 101.97 124.399 102.68C125.162 103.391 126.12 103.856 127.149 104.016C128.179 104.177 129.232 104.024 130.175 103.579C131.031 103.134 131.732 102.439 132.185 101.586C132.638 100.733 132.822 99.7632 132.714 98.8035C132.711 98.3048 132.59 97.8139 132.36 97.3714C132.13 96.929 131.798 96.5478 131.392 96.2593C130.985 95.9709 130.516 95.7835 130.023 95.7128C129.53 95.6421 129.027 95.69 128.556 95.8527C126.716 96.5179 124.944 98.3941 125.676 100.458C125.826 100.859 126.06 101.223 126.363 101.525C126.667 101.827 127.031 102.059 127.433 102.207C127.834 102.354 128.263 102.413 128.689 102.379C129.115 102.345 129.529 102.219 129.902 102.01C133.821 99.7075 129.578 94.5734 125.881 96.3132C124.296 97.0808 122.763 99.0764 123.495 100.919C124.228 102.761 127.483 103.324 129.408 103.119C131.333 102.914 134.009 101.669 134.128 99.1958C134.122 97.9586 133.688 96.7616 132.898 95.8096C132.109 94.8576 131.014 94.2096 129.8 93.9764C129.276 93.95 128.752 94.033 128.262 94.2202C127.772 94.4073 127.326 94.6945 126.952 95.0634C126.579 95.4324 126.286 95.875 126.093 96.3633C125.9 96.8515 125.81 97.3747 125.83 97.8995C125.833 99.0694 126.222 100.205 126.937 101.131C127.652 102.056 128.653 102.719 129.783 103.017C129.895 103.046 130.011 103.052 130.126 103.036C130.24 103.021 130.351 102.982 130.45 102.924C130.55 102.865 130.637 102.787 130.707 102.695C130.776 102.603 130.827 102.497 130.856 102.385C130.885 102.273 130.892 102.157 130.876 102.042C130.86 101.928 130.822 101.817 130.763 101.717C130.705 101.618 130.627 101.53 130.535 101.461C130.443 101.391 130.338 101.34 130.226 101.311C129.607 101.161 129.041 100.845 128.588 100.397C128.134 99.9494 127.811 99.3868 127.653 98.7694C127.477 98.2916 127.474 97.7675 127.644 97.2876C127.813 96.8077 128.145 96.4022 128.582 96.1412C129.018 95.8802 129.532 95.7802 130.035 95.8583C130.537 95.9364 130.996 96.1878 131.333 96.5691C131.633 96.8463 131.869 97.1858 132.023 97.5639C132.178 97.942 132.248 98.3493 132.229 98.7574C132.209 99.1655 132.1 99.5643 131.911 99.9259C131.721 100.287 131.454 100.603 131.129 100.85C129.891 101.455 128.482 101.611 127.142 101.294C123.649 100.287 126.801 95.8868 128.846 97.8824L129.681 99.7587C127.874 97.3707 128.335 97.0125 131.044 98.65C131.708 100.236 130.141 102.061 128.726 102.351C128.075 102.498 127.396 102.45 126.772 102.213C126.148 101.977 125.607 101.562 125.216 101.021C123.512 98.667 125.216 95.9039 127.5 94.7269C130.805 93.0213 133.617 96.4326 132.935 99.6563C132.671 100.781 132.063 101.794 131.195 102.556C130.328 103.317 129.244 103.788 128.096 103.903C124.381 104.04 123.887 99.6222 125.745 97.3537C126.426 96.5008 125.233 95.2898 124.535 96.1426H124.467Z" fill="white"/>
<path d="M111.586 186.203C109.89 191.078 110.096 196.415 112.165 201.144C112.489 201.895 113.579 201.247 113.256 200.496C111.358 196.067 111.2 191.084 112.813 186.544C113.085 185.759 111.841 185.418 111.586 186.203Z" fill="#242638"/>
<path d="M127.62 184.667L128.318 191.985C128.318 192.787 129.664 192.804 129.596 191.985L128.898 184.667C128.812 183.866 127.534 183.849 127.62 184.667Z" fill="#242638"/>
<path d="M121.128 209.741C120.642 214.539 121.272 219.384 122.968 223.898C123.258 224.666 124.502 224.325 124.212 223.557C122.537 219.157 121.918 214.424 122.406 209.741C122.491 208.922 121.213 208.922 121.128 209.741Z" fill="#242638"/>
<path d="M105.469 220.163C105.473 225.308 106.266 230.422 107.82 235.326C107.843 235.407 107.881 235.482 107.932 235.548C107.984 235.614 108.048 235.669 108.12 235.71C108.193 235.751 108.273 235.778 108.356 235.788C108.439 235.798 108.523 235.792 108.604 235.77C108.685 235.747 108.76 235.709 108.826 235.658C108.892 235.606 108.947 235.542 108.988 235.469C109.029 235.396 109.055 235.316 109.066 235.233C109.076 235.15 109.069 235.066 109.047 234.985C107.535 230.189 106.759 225.191 106.747 220.163C106.722 220.011 106.644 219.873 106.527 219.773C106.41 219.674 106.261 219.619 106.108 219.619C105.954 219.619 105.806 219.674 105.689 219.773C105.572 219.873 105.494 220.011 105.469 220.163Z" fill="#242638"/>
<path d="M85.2093 214.79C86.2285 220.932 88.2978 226.852 91.3263 232.29C91.7182 233.006 92.8258 232.29 92.4168 231.642C89.4607 226.293 87.4381 220.478 86.4361 214.449C86.2998 213.63 85.073 213.971 85.2093 214.79Z" fill="#242638"/>
<path d="M126.648 249.227L129.426 257.227C129.698 257.995 130.925 257.67 130.67 256.886L127.875 248.886C127.62 248.102 126.376 248.443 126.648 249.227Z" fill="#242638"/>
<path d="M105.026 246.771C104.207 251.301 105.061 255.975 107.428 259.922C107.854 260.621 108.962 259.922 108.536 259.274C106.325 255.632 105.514 251.309 106.253 247.112C106.389 246.311 105.162 245.97 105.026 246.771Z" fill="#242638"/>
<path d="M135.713 262.327C135.577 263.389 135.703 264.469 136.08 265.471C136.458 266.473 137.075 267.367 137.877 268.075C138.491 268.621 139.394 267.717 138.78 267.171C138.101 266.578 137.581 265.824 137.268 264.978C136.956 264.131 136.861 263.22 136.991 262.327C137.093 261.525 135.816 261.525 135.713 262.327Z" fill="#242638"/>
<path d="M95.8247 202.782C95.27 206.823 96.157 210.93 98.3294 214.38C98.7554 215.08 99.8629 214.38 99.4199 213.732C97.3754 210.472 96.5541 206.591 97.1026 202.782C97.2048 201.98 95.9269 201.98 95.8247 202.782Z" fill="#242638"/>
<path d="M113.136 216.274C113.55 220.027 114.562 223.69 116.135 227.122C116.476 227.872 117.584 227.224 117.243 226.474C115.762 223.235 114.808 219.78 114.414 216.24C114.329 215.438 113.051 215.421 113.136 216.24V216.274Z" fill="#242638"/>
<path d="M131.914 224.512C132.396 227.691 133.559 230.728 135.321 233.416C135.764 234.115 136.872 233.416 136.429 232.785C134.731 230.183 133.615 227.244 133.157 224.171C133.021 223.352 131.794 223.693 131.914 224.512Z" fill="#242638"/>
<path d="M95.8758 253.577C95.3646 258.694 95.1431 264.527 99.6415 268.075C100.272 268.57 101.192 267.666 100.545 267.171C96.3188 263.845 96.6767 258.404 97.1367 253.526C97.1367 252.707 95.944 252.707 95.8588 253.526L95.8758 253.577Z" fill="#242638"/>
<path d="M117.652 237.748C116.929 241.333 117.164 245.046 118.333 248.511C118.589 249.296 119.833 248.954 119.56 248.17C118.447 244.929 118.218 241.449 118.896 238.089C119.049 237.288 117.822 236.946 117.652 237.748Z" fill="#242638"/>
<path d="M87.1006 238.823C86.2821 241.34 86.0272 244.006 86.3541 246.633C86.681 249.259 87.5816 251.781 88.9919 254.02C89.4179 254.72 90.5255 254.02 90.0995 253.372C88.7811 251.275 87.9443 248.911 87.6496 246.451C87.355 243.991 87.6097 241.496 88.3956 239.147C88.6512 238.362 87.4073 238.038 87.1687 238.823H87.1006Z" fill="#242638"/>
<path d="M130.227 201.161C129.756 203.671 130.009 206.264 130.956 208.635C131.904 211.007 133.506 213.059 135.577 214.551C136.241 215.028 136.872 213.92 136.224 213.442C134.386 212.105 132.964 210.273 132.123 208.16C131.282 206.047 131.056 203.739 131.471 201.502C131.607 200.684 130.38 200.343 130.227 201.161Z" fill="#242638"/>
<path d="M73.5883 126.265C97.1875 128.55 125.387 130.29 148.271 124.099C149.361 133.343 146.397 143.748 148.271 152.873C132.646 155.739 119.134 157.206 103.305 158.673C94.2056 159.526 84.9364 160.123 76.0419 158.076C75.6966 158.069 75.3576 157.982 75.0511 157.823C74.7446 157.663 74.4789 157.435 74.2745 157.157C74.0702 156.878 73.9328 156.556 73.8729 156.215C73.813 155.875 73.8322 155.525 73.9291 155.193C74.2017 145.675 72.7023 136.141 72.9919 126.606" fill="#F14F51"/>
<path opacity="0.3" d="M73.5883 126.265C97.1875 128.55 125.387 130.29 148.271 124.099C149.361 133.343 146.397 143.748 148.271 152.873C132.646 155.739 119.134 157.206 103.305 158.673C94.2056 159.526 84.9364 160.123 76.0419 158.076C75.6966 158.069 75.3576 157.982 75.0511 157.823C74.7446 157.663 74.4789 157.435 74.2745 157.157C74.0702 156.878 73.9328 156.556 73.8729 156.215C73.813 155.875 73.8322 155.525 73.9291 155.193C74.2017 145.675 72.7023 136.141 72.9919 126.606" fill="white"/>
<path opacity="0.1" d="M119.1 128.67C118.519 128.71 117.961 128.916 117.493 129.264C117.025 129.611 116.666 130.086 116.459 130.631C116.07 131.725 115.891 132.882 115.931 134.043C115.835 136.052 115.909 138.067 116.153 140.064C116.525 142.238 117.095 144.373 117.856 146.443L120.668 154.545C120.855 155.057 121.145 155.671 121.69 155.722C122.236 155.773 122.764 154.767 122.798 154.016C123.203 145.202 122.138 136.382 119.646 127.919" fill="#040015"/>
<path d="M79.0583 131.587C81.5224 131.808 83.9968 131.894 86.4703 131.842C86.6219 131.818 86.7597 131.74 86.8591 131.622C86.9585 131.505 87.0131 131.357 87.0131 131.203C87.0131 131.049 86.9585 130.9 86.8591 130.783C86.7597 130.666 86.6219 130.588 86.4703 130.563C83.9968 130.614 81.5224 130.529 79.0583 130.307C78.2404 130.307 78.2575 131.518 79.0583 131.587Z" fill="#242638"/>
<path d="M81.3756 135.783H87.629C87.7805 135.758 87.9183 135.68 88.0178 135.563C88.1172 135.445 88.1718 135.297 88.1718 135.143C88.1718 134.989 88.1172 134.84 88.0178 134.723C87.9183 134.606 87.7805 134.528 87.629 134.503H81.3756C81.2241 134.528 81.0863 134.606 80.9868 134.723C80.8874 134.84 80.8328 134.989 80.8328 135.143C80.8328 135.297 80.8874 135.445 80.9868 135.563C81.0863 135.68 81.2241 135.758 81.3756 135.783Z" fill="#242638"/>
<path d="M80.3874 142.486C81.0897 142.316 81.8126 142.247 82.5343 142.281C83.3522 142.281 83.3522 141.036 82.5343 141.002C81.6971 140.968 80.8594 141.054 80.0466 141.258C79.9661 141.28 79.8907 141.318 79.8248 141.37C79.759 141.421 79.7039 141.486 79.6628 141.558C79.6216 141.631 79.5952 141.711 79.5851 141.795C79.5749 141.878 79.5812 141.962 79.6036 142.043C79.626 142.123 79.664 142.199 79.7155 142.265C79.767 142.33 79.831 142.386 79.9038 142.427C79.9765 142.468 80.0567 142.494 80.1397 142.504C80.2227 142.515 80.3068 142.508 80.3874 142.486Z" fill="#242638"/>
<path d="M83.0114 147.364L89.2647 147.859C90.0826 147.859 90.0656 146.648 89.2647 146.58L83.0114 146.085C82.1765 146.085 82.1935 147.296 83.0114 147.364Z" fill="#242638"/>
<path d="M88.1061 143.202H93.6609C93.8124 143.178 93.9502 143.1 94.0497 142.982C94.1491 142.865 94.2037 142.716 94.2037 142.563C94.2037 142.409 94.1491 142.26 94.0497 142.143C93.9502 142.026 93.8124 141.948 93.6609 141.923H88.1061C87.9545 141.948 87.8168 142.026 87.7173 142.143C87.6179 142.26 87.5633 142.409 87.5633 142.563C87.5633 142.716 87.6179 142.865 87.7173 142.982C87.8168 143.1 87.9545 143.178 88.1061 143.202Z" fill="#242638"/>
<path d="M94.8195 137.437L99.2156 137.659C100.051 137.659 100.051 136.431 99.2156 136.38L94.8195 136.158C94.0016 136.158 94.0016 137.386 94.8195 137.437Z" fill="#242638"/>
<path d="M96.6086 132.985C98.1644 132.75 99.7404 132.676 101.311 132.764C102.129 132.764 102.129 131.535 101.311 131.484C99.6032 131.395 97.8904 131.48 96.1997 131.74C95.3988 131.877 95.7396 133.105 96.5404 132.985H96.6086Z" fill="#242638"/>
<path d="M78.2064 154.869H84.2212C84.3727 154.844 84.5105 154.766 84.61 154.649C84.7094 154.532 84.764 154.383 84.764 154.23C84.764 154.076 84.7094 153.927 84.61 153.81C84.5105 153.693 84.3727 153.615 84.2212 153.59H78.2064C78.0548 153.615 77.917 153.693 77.8176 153.81C77.7182 153.927 77.6636 154.076 77.6636 154.23C77.6636 154.383 77.7182 154.532 77.8176 154.649C77.917 154.766 78.0548 154.844 78.2064 154.869Z" fill="#242638"/>
<path d="M91.122 155.023L98.2954 155.807C99.1133 155.893 99.0963 154.613 98.2954 154.528L91.122 153.743C90.3041 153.641 90.3041 154.92 91.122 155.023Z" fill="#242638"/>
<path d="M96.4382 150.417L102.47 149.94C103.288 149.94 103.288 148.592 102.47 148.66L96.4382 149.138C95.6374 149.138 95.6204 150.486 96.4382 150.417Z" fill="#242638"/>
<path d="M101.311 145.027C102.937 145.011 104.556 144.805 106.134 144.413C106.934 144.226 106.594 142.981 105.793 143.185C104.325 143.542 102.822 143.731 101.311 143.748C101.16 143.773 101.022 143.851 100.923 143.968C100.823 144.085 100.769 144.234 100.769 144.388C100.769 144.542 100.823 144.69 100.923 144.807C101.022 144.925 101.16 145.003 101.311 145.027Z" fill="#242638"/>
<path d="M107.173 138.324L111.109 137.864C111.91 137.864 111.927 136.499 111.109 136.584L107.173 137.045C106.355 137.147 106.355 138.426 107.173 138.324Z" fill="#242638"/>
<path d="M108.962 133.685L114.074 133.258C114.892 133.173 114.892 131.894 114.074 131.979L108.962 132.405C108.144 132.405 108.127 133.753 108.962 133.685Z" fill="#242638"/>
<path d="M111.041 147.842H115.454C115.605 147.817 115.743 147.739 115.843 147.622C115.942 147.505 115.997 147.356 115.997 147.202C115.997 147.048 115.942 146.9 115.843 146.782C115.743 146.665 115.605 146.587 115.454 146.563H111.041C110.889 146.587 110.751 146.665 110.652 146.782C110.552 146.9 110.498 147.048 110.498 147.202C110.498 147.356 110.552 147.505 110.652 147.622C110.751 147.739 110.889 147.817 111.041 147.842Z" fill="#242638"/>
<path d="M106.866 155.278H110.819C110.971 155.254 111.109 155.176 111.208 155.059C111.308 154.941 111.362 154.793 111.362 154.639C111.362 154.485 111.308 154.336 111.208 154.219C111.109 154.102 110.971 154.024 110.819 153.999H106.866C106.715 154.024 106.577 154.102 106.477 154.219C106.378 154.336 106.323 154.485 106.323 154.639C106.323 154.793 106.378 154.941 106.477 155.059C106.577 155.176 106.715 155.254 106.866 155.278Z" fill="#242638"/>
<path d="M119.339 154.136L124.451 153.129C125.251 152.959 124.911 151.731 124.11 151.884L118.998 152.891C118.18 153.061 118.521 154.289 119.339 154.136Z" fill="#242638"/>
<path d="M116.613 143.697L121.247 143.236C122.048 143.151 122.065 141.872 121.247 141.957L116.613 142.418C115.795 142.503 115.795 143.782 116.613 143.697Z" fill="#242638"/>
<path d="M116.613 137.812C118.541 137.758 120.462 137.541 122.355 137.164C123.156 137.011 122.815 135.783 122.014 135.936C120.232 136.279 118.426 136.478 116.613 136.533C115.778 136.533 115.778 137.846 116.613 137.812Z" fill="#242638"/>
<path d="M124.519 172.728L125.439 178.305C125.626 179.38 127.262 178.919 127.143 177.845L126.206 172.284C126.035 171.193 124.382 171.653 124.502 172.728H124.519Z" fill="#242638"/>
<path d="M127.62 172.028C127.903 174.223 128.341 176.395 128.932 178.527C128.991 178.753 129.137 178.947 129.338 179.065C129.539 179.184 129.779 179.217 130.005 179.158C130.231 179.099 130.425 178.953 130.543 178.752C130.661 178.55 130.695 178.31 130.636 178.084C130.072 176.098 129.651 174.074 129.375 172.028C129.222 170.954 127.518 170.937 127.671 172.028H127.62Z" fill="#242638"/>
<path d="M131.181 172.37L131.948 176.787C132.135 177.879 133.771 177.418 133.652 176.344L132.885 171.926C132.698 170.852 131.062 171.295 131.181 172.37Z" fill="#242638"/>
<path d="M134.538 174.007L134.879 177.026C134.998 178.101 136.702 178.101 136.582 177.026L136.242 174.007C136.105 172.933 134.401 172.915 134.538 174.007Z" fill="#242638"/>
<path d="M137.417 173.069C137.394 174.583 137.678 176.086 138.252 177.487C138.661 178.493 140.314 178.05 139.956 177.026C139.431 175.774 139.17 174.427 139.19 173.069C139.19 172.843 139.1 172.626 138.94 172.466C138.78 172.306 138.564 172.216 138.338 172.216C138.112 172.216 137.895 172.306 137.735 172.466C137.575 172.626 137.486 172.843 137.486 173.069H137.417Z" fill="#242638"/>
<path d="M140.553 171.807C140.516 173.379 140.741 174.947 141.217 176.446C141.541 177.504 143.194 177.043 142.921 176.003C142.495 174.646 142.293 173.229 142.325 171.807C142.325 171.581 142.235 171.364 142.075 171.204C141.915 171.044 141.699 170.954 141.473 170.954C141.247 170.954 141.03 171.044 140.87 171.204C140.711 171.364 140.621 171.581 140.621 171.807H140.553Z" fill="#242638"/>
<path d="M143.909 173.427C143.894 174.725 144.095 176.017 144.506 177.248C144.847 178.288 146.482 177.845 146.21 176.804C145.844 175.705 145.666 174.552 145.681 173.393C145.681 173.167 145.592 172.95 145.432 172.79C145.272 172.63 145.055 172.54 144.83 172.54C144.604 172.54 144.387 172.63 144.227 172.79C144.067 172.95 143.978 173.167 143.978 173.393L143.909 173.427Z" fill="#242638"/>
<path d="M146.84 172.148L148.118 176.429C148.177 176.655 148.323 176.849 148.524 176.967C148.726 177.086 148.966 177.119 149.191 177.06C149.417 177.001 149.611 176.855 149.729 176.654C149.847 176.452 149.881 176.212 149.822 175.986L148.561 171.687C148.5 171.461 148.352 171.269 148.149 171.152C147.946 171.035 147.705 171.004 147.479 171.065C147.253 171.126 147.061 171.274 146.944 171.477C146.827 171.681 146.796 171.922 146.857 172.148H146.84Z" fill="#242638"/>
<path d="M149.771 173.768L150.469 176.907C150.708 177.964 152.344 177.521 152.173 176.446L151.475 173.308C151.236 172.25 149.583 172.694 149.771 173.768Z" fill="#242638"/>
<path d="M152.48 173.393C152.898 174.266 153.256 175.167 153.554 176.088C153.894 177.128 155.547 176.685 155.257 175.627C154.914 174.568 154.504 173.531 154.031 172.523C153.554 171.534 152.088 172.404 152.548 173.393H152.48Z" fill="#242638"/>
<path d="M116.919 124.73L124.331 171.926C124.344 172.193 124.439 172.449 124.604 172.659C124.754 172.783 124.929 172.874 125.117 172.927C125.304 172.98 125.501 172.993 125.694 172.966L152.684 172.437C153.152 172.483 153.622 172.382 154.03 172.148C154.95 171.482 154.49 170.067 154.03 169.06C147.01 154.988 147.215 138.46 142.904 123.348C142.801 122.802 142.541 122.297 142.154 121.898C141.492 121.506 140.703 121.389 139.956 121.574L117.123 124.406" fill="#E4494F"/>
<path opacity="0.3" d="M116.919 124.73L124.331 171.926C124.344 172.193 124.439 172.449 124.604 172.659C124.754 172.783 124.929 172.874 125.117 172.927C125.304 172.98 125.501 172.993 125.694 172.966L152.684 172.437C153.152 172.483 153.622 172.382 154.03 172.148C154.95 171.482 154.49 170.067 154.03 169.06C147.01 154.988 147.215 138.46 142.904 123.348C142.801 122.802 142.541 122.297 142.154 121.898C141.492 121.506 140.703 121.389 139.956 121.574L117.123 124.406" fill="white"/>
<path opacity="0.1" d="M138.696 121.608C137.883 124.464 139.691 123.955 140.212 126.879C140.774 132.166 141.541 137.437 142.376 142.69C143.944 152.481 145.784 162.34 150.112 171.277C151.1 173.324 150.044 171.977 152.327 171.926C153.132 171.84 152.545 172.43 153.179 171.926C153.813 171.421 153.766 171.839 154.031 171.073C154.525 169.532 152.518 168.415 152.327 166.809C149.771 158.28 148.919 155.722 148.067 147.193C146.891 142.383 146.857 139.16 145.511 134.401C144.963 132.01 145.184 129.606 143.807 127.578C143.807 125.872 143.807 125.019 142.955 123.314C141.843 122.796 142.473 121.503 141.251 121.608" fill="#040015"/>
<path d="M120.395 126.623C121.108 128.513 121.455 130.522 121.417 132.542C121.442 132.693 121.52 132.831 121.637 132.931C121.754 133.03 121.903 133.085 122.056 133.085C122.21 133.085 122.358 133.03 122.476 132.931C122.593 132.831 122.67 132.693 122.695 132.542C122.732 130.406 122.368 128.283 121.622 126.282C121.332 125.514 120.105 125.838 120.395 126.623Z" fill="#242638"/>
<path fill-rule="evenodd" clip-rule="evenodd" d="M126.31 133.07L124.93 128.55L126.152 128.176L127.532 132.696L126.31 133.07Z" fill="#242638"/>
<path d="M129.426 128.192L130.636 132.712C130.681 132.875 130.789 133.013 130.936 133.097C131.083 133.18 131.257 133.201 131.419 133.156C131.582 133.111 131.72 133.002 131.803 132.855C131.886 132.708 131.908 132.534 131.862 132.371L130.653 127.851C130.63 127.77 130.592 127.695 130.541 127.629C130.489 127.563 130.425 127.508 130.353 127.467C130.28 127.426 130.2 127.399 130.117 127.389C130.034 127.379 129.949 127.385 129.869 127.408C129.788 127.43 129.713 127.468 129.647 127.52C129.581 127.571 129.526 127.635 129.485 127.708C129.444 127.781 129.417 127.861 129.407 127.944C129.397 128.027 129.403 128.112 129.426 128.192Z" fill="#242638"/>
<path d="M135.679 125.395C135.853 126.847 136.267 128.259 136.906 129.574C137.281 130.324 138.371 129.676 138.013 128.943C137.468 127.827 137.111 126.628 136.957 125.395C136.855 124.593 135.577 124.593 135.679 125.395Z" fill="#242638"/>
<path d="M134.265 133.753C134.397 135.058 134.713 136.339 135.202 137.556C135.509 138.307 136.753 137.983 136.429 137.215C135.983 136.123 135.685 134.975 135.543 133.804C135.458 133.002 134.18 132.985 134.265 133.804V133.753Z" fill="#242638"/>
<path d="M140.365 134.793L141.047 136.891C141.302 137.676 142.546 137.335 142.29 136.55L141.592 134.401C141.336 133.633 140.109 133.958 140.365 134.742V134.793Z" fill="#242638"/>
<path d="M129.068 138.102L129.903 141.77C130.073 142.571 131.317 142.23 131.13 141.428L130.312 137.761C130.124 136.96 128.898 137.301 129.068 138.102Z" fill="#242638"/>
<path d="M123.326 137.812C123.323 139.492 123.708 141.15 124.45 142.656C124.825 143.39 125.916 142.742 125.558 142.008C124.922 140.702 124.595 139.266 124.604 137.812C124.579 137.661 124.501 137.523 124.384 137.423C124.267 137.324 124.118 137.269 123.965 137.269C123.811 137.269 123.663 137.324 123.546 137.423C123.428 137.523 123.351 137.661 123.326 137.812Z" fill="#242638"/>
<path d="M121.929 148.712L122.099 151.85C122.099 152.669 123.428 152.669 123.377 151.85L123.206 148.712C123.206 147.893 121.894 147.893 121.929 148.712Z" fill="#242638"/>
<path d="M126.802 148.046L127.654 150.827C127.892 151.611 129.136 151.287 128.881 150.486L128.046 147.705C127.807 146.921 126.563 147.245 126.802 148.046Z" fill="#242638"/>
<path d="M132.953 142.452C132.997 144.577 133.318 146.687 133.907 148.729C133.964 148.88 134.075 149.005 134.219 149.079C134.363 149.152 134.529 149.17 134.685 149.127C134.841 149.084 134.975 148.985 135.061 148.848C135.147 148.711 135.179 148.547 135.151 148.388C134.589 146.457 134.28 144.462 134.231 142.452C134.206 142.3 134.128 142.162 134.011 142.063C133.894 141.963 133.745 141.908 133.592 141.908C133.438 141.908 133.29 141.963 133.173 142.063C133.056 142.162 132.978 142.3 132.953 142.452Z" fill="#242638"/>
<path d="M138.474 144.192L139.155 146.631C139.212 146.782 139.323 146.907 139.467 146.981C139.611 147.054 139.777 147.072 139.933 147.029C140.089 146.986 140.223 146.887 140.309 146.75C140.395 146.613 140.428 146.449 140.399 146.29L139.7 143.85C139.678 143.77 139.64 143.694 139.589 143.628C139.537 143.562 139.473 143.507 139.4 143.466C139.253 143.383 139.079 143.362 138.917 143.407C138.754 143.452 138.616 143.56 138.533 143.707C138.45 143.855 138.428 144.029 138.474 144.192Z" fill="#242638"/>
<path d="M143.671 145.761L144.488 149.599C144.676 150.4 145.903 150.059 145.732 149.257L144.897 145.42C144.727 144.618 143.483 144.959 143.671 145.761Z" fill="#242638"/>
<path d="M141.251 153.931L141.592 155.637C141.762 156.438 142.989 156.097 142.836 155.296L142.478 153.59C142.324 152.788 141.081 153.129 141.251 153.931Z" fill="#242638"/>
<path d="M135.321 154.869C135.4 155.942 135.63 156.999 136.003 158.008C136.276 158.775 137.519 158.451 137.23 157.683C136.901 156.776 136.69 155.83 136.599 154.869C136.599 154.067 135.253 154.05 135.321 154.869Z" fill="#242638"/>
<path d="M129.085 155.841L129.426 157.547C129.596 158.366 130.823 158.025 130.67 157.206L130.312 155.5C130.158 154.699 128.915 155.04 129.085 155.841Z" fill="#242638"/>
<path d="M124.024 157.939C124.118 159.236 124.358 160.518 124.74 161.76C124.785 161.923 124.893 162.061 125.04 162.144C125.187 162.228 125.361 162.249 125.524 162.204C125.687 162.158 125.825 162.05 125.908 161.903C125.991 161.756 126.012 161.582 125.967 161.419C125.623 160.309 125.4 159.165 125.302 158.008C125.302 157.189 123.956 157.189 124.024 158.008V157.939Z" fill="#242638"/>
<path d="M128.421 166.11C128.536 167.79 128.951 169.437 129.647 170.971C129.971 171.721 131.079 171.073 130.738 170.323C130.145 168.991 129.793 167.564 129.698 166.11C129.698 165.291 128.369 165.291 128.421 166.11Z" fill="#242638"/>
<path d="M133.243 161.692L134.435 167.269C134.606 168.071 135.85 167.73 135.679 166.928L134.469 161.351C134.299 160.549 133.055 160.89 133.243 161.692Z" fill="#242638"/>
<path d="M140.382 163.67C140.706 165.154 141.098 166.604 141.541 168.037C141.796 168.822 143.023 168.497 142.784 167.696C142.324 166.263 141.95 164.813 141.609 163.329C141.438 162.528 140.212 162.869 140.382 163.67Z" fill="#242638"/>
<path d="M147.164 164.199L148.203 167.338C148.458 168.105 149.702 167.781 149.43 166.996L148.39 163.858C148.135 163.073 146.891 163.415 147.164 164.199Z" fill="#242638"/>
</svg>
