<svg width="228" height="297" viewBox="0 0 228 297" fill="none" xmlns="http://www.w3.org/2000/svg">
<path d="M6.86093 239.272L6.54048 224.241C6.47639 220.985 6.2681 217.785 6.1239 214.545C6.05842 210.913 6.22163 207.281 6.61258 203.669C7.02916 198.649 7.22944 193.604 7.21342 188.567C7.21342 186.201 7.10927 183.827 7.2775 181.461C7.46176 178.887 7.89436 176.392 7.8543 173.794C7.7822 168.869 8.12668 163.897 8.41508 158.98C9.01592 148.762 9.85708 138.528 11.4513 128.415C12.2524 123.418 13.1977 118.446 14.0068 113.449C14.816 108.452 15.2245 103.359 16.29 98.3949C18.3328 88.8668 22.1702 79.6514 25.5589 70.5404C27.2492 66.0089 28.7633 61.2609 31.0385 56.97C33.0092 53.2085 35.2283 49.6073 37.3432 45.9421C38.9454 43.1189 41.1645 40.769 42.951 38.002C45.4291 34.1503 48.2069 30.5005 51.2585 27.0863C54.324 23.504 57.8223 20.3169 61.6729 17.5983C65.6384 14.8955 70.0446 13.4037 74.4907 11.7756C83.5513 8.47922 92.6279 4.59739 102.217 3.15374C107.287 2.43898 112.415 2.22408 117.526 2.51211C122.573 2.76074 127.901 3.09759 132.691 4.80592C141.92 8.08623 151.061 11.2703 159.408 16.4273C167.577 21.574 174.923 27.9254 181.199 35.267C184.521 39.0633 187.669 43.004 190.644 47.089C193.223 50.65 194.93 54.588 197.205 58.3174C199.655 62.6311 201.768 67.1278 203.526 71.7675C205.344 76.1786 206.97 80.67 208.525 85.1774C210.183 89.9896 211.729 94.7456 212.466 99.8145C213.203 104.883 213.596 109.832 214.525 114.78C215.557 119.839 216.112 124.984 216.183 130.147C216.183 135.104 216.183 139.996 216.624 144.937C217.064 149.877 217.545 154.818 217.93 159.758C218.122 162.164 218.25 164.57 218.25 167.025C218.25 169.479 217.833 172.005 217.922 174.475C218.01 176.793 218.45 179.095 218.587 181.413C218.747 183.996 218.771 186.57 218.699 189.153C218.546 194.254 218.37 199.346 218.402 204.455C218.402 208.682 217.97 213.278 218.659 217.432C219.439 222.472 219.676 227.581 219.364 232.671C219.131 237.611 218.795 242.544 219.203 247.484C219.332 249.016 221.735 249.032 221.607 247.484C221.174 242.199 221.607 236.93 221.815 231.644C222.042 226.799 221.773 221.943 221.014 217.152C220.781 214.892 220.717 212.619 220.822 210.35C220.822 207.599 220.774 204.848 220.766 202.097C220.766 197.053 221.078 192.024 221.118 186.979C221.118 184.469 221.046 181.958 220.822 179.456C220.472 176.978 220.338 174.474 220.421 171.973C220.739 166.892 220.613 161.793 220.045 156.735C219.58 151.746 219.027 146.757 218.691 141.769C218.346 136.628 218.691 131.471 218.498 126.33C218.306 121.189 217.08 116.24 216.303 111.091C215.526 105.942 215.19 100.809 214.196 95.7402C213.203 90.6713 211.288 85.811 209.574 80.9828C207.932 76.3952 206.193 71.8396 204.231 67.3483C202.31 62.9351 200.111 58.6489 197.646 54.5158C196.596 52.7674 196.043 50.7863 194.978 49.062C193.64 46.9125 192.038 44.8754 190.508 42.8623C184.708 35.2189 178.299 27.8082 170.824 21.6486C163.454 15.6083 155.2 10.7392 146.35 7.21201C141.664 5.3112 136.841 3.52267 132.01 2.00683C127.348 0.547137 122.013 0.298507 117.166 0.081959C107.183 -0.376057 97.2047 1.08876 87.7731 4.39688C83.1187 6.00095 78.5043 7.74135 73.8739 9.42562C69.5398 11.0297 65.1978 12.4172 61.2884 14.9356C53.7339 19.7959 47.3411 27.0382 42.3501 34.457C41.3568 35.9247 40.4675 37.4566 39.4661 38.9243C38.4648 40.392 37.1589 41.4507 36.2617 42.9345C34.0987 46.5837 32.176 50.3452 30.021 53.9704C27.6177 58.0287 26.0155 62.5762 24.3652 66.9793C22.5066 71.8637 20.7442 76.7802 18.9577 81.6886C17.2914 86.2922 15.7533 90.9039 14.5035 95.6279C13.2057 100.48 12.8212 105.525 12.1002 110.481C10.546 120.691 8.46315 130.845 7.44574 141.175C6.42833 151.505 5.58716 161.9 5.475 172.262C5.41893 177.331 4.79406 182.327 4.83412 187.404C4.87417 192.481 4.69792 197.742 4.29737 202.899C3.89158 206.615 3.70166 210.35 3.72858 214.088C3.84875 217.48 4.09709 220.833 4.16118 224.241L4.48162 239.272C4.48162 240.811 6.88496 240.819 6.88496 239.272H6.86093Z" fill="white"/>
<path d="M227.447 256.507C226.245 251.743 227.183 246.49 220.774 247.292H220.309C220.383 247.03 220.383 246.752 220.309 246.49C220.002 245.72 219.403 245.103 218.643 244.773C195.042 230.842 167.099 226.327 139.782 223.6C127.508 222.389 115.203 222.549 102.93 221.659C94.9994 221.082 87.477 223.038 79.53 223.263C62.0057 223.628 44.5938 226.16 27.6901 230.802C20.6162 232.807 13.4383 233.337 7.30979 237.379C6.3084 238.044 5.36309 239.665 6.4526 240.186L6.63686 240.394H6.40454C4.75425 239.689 2.7675 240.707 1.79815 242.223C0.828806 243.739 0.644551 245.592 0.452284 247.412C-0.30076 255.432 -0.653249 264.102 3.91308 270.671C8.29516 276.991 16.13 279.766 23.5002 281.964C87.9256 301.148 159.152 304.132 221.174 278.186C222.443 277.752 223.608 277.058 224.595 276.149C225.869 274.81 226.285 272.941 226.654 271.104C227.663 266.276 228.649 261.263 227.447 256.507Z" fill="#484D6D"/>
<path opacity="0.9" d="M102.5 265C172.5 269 225.5 252 219.5 245.5C217.653 243.499 212.436 238.781 205.5 236C198.5 236 192.187 231.199 183 229C176.356 227.409 168 227.5 161 225.5C150 225.5 143.251 222.973 132.5 222C126.813 221.486 120.816 222.372 114.5 222C99.3309 221.108 85 223.335 72.5 222.659C60 225.5 49.3107 223.428 40 225.5C30.5 230 22.0596 229.21 16 231.355C10.8824 233.167 8.84116 237.527 6.00009 239C5.50009 239.833 5.60009 242 10.0001 244C15.5001 246.5 32.5001 261 102.5 265Z" fill="white"/>
<path opacity="0.2" d="M227.447 256.507C226.245 251.743 227.183 246.49 220.774 247.292H220.309C220.383 247.03 220.383 246.752 220.309 246.49C220.002 245.72 219.403 245.103 218.643 244.773C195.042 230.842 167.099 226.327 139.782 223.6C127.508 222.389 115.203 222.549 102.93 221.659C94.9994 221.082 87.477 223.038 79.53 223.263C62.0057 223.628 44.5938 226.16 27.6901 230.802C20.6162 232.807 13.4383 233.337 7.30979 237.379C6.3084 238.044 5.36309 239.665 6.4526 240.186L6.63686 240.394H6.40454C4.75425 239.689 2.7675 240.707 1.79815 242.223C0.828806 243.739 0.644551 245.592 0.452284 247.412C-0.30076 255.432 -0.653249 264.102 3.91308 270.671C8.29516 276.991 16.13 279.766 23.5002 281.964C87.9256 301.148 159.152 304.132 221.174 278.186C222.443 277.752 223.608 277.058 224.595 276.149C225.869 274.81 226.285 272.941 226.654 271.104C227.663 266.276 228.649 261.263 227.447 256.507Z" fill="white"/>
<path opacity="0.7" d="M220.085 218.491C219.862 217.57 219.725 216.63 219.676 215.684C219.676 214.617 219.676 213.542 219.676 212.476C219.676 210.337 219.663 208.198 219.636 206.059C219.636 202.37 219.588 198.689 219.7 194.999C219.788 192.329 219.941 189.658 219.965 186.979C219.987 184.337 219.878 181.695 219.636 179.063C219.444 176.978 218.971 174.836 219.196 172.735C220.125 163.913 218.499 154.858 217.938 146.027C217.842 144.592 217.625 143.18 217.537 141.745C217.049 133.548 218.106 125.207 216.255 117.13C215.046 111.861 214.565 106.407 213.852 101.042C213.58 98.9964 213.307 96.9512 212.851 94.9381C212.384 92.9889 211.82 91.0643 211.16 89.1715L210.68 87.7279C208.115 79.8364 205.103 72.0976 201.659 64.5492C201.203 63.5707 200.738 62.5922 200.273 61.6218C199.761 60.523 199.24 59.4162 198.631 58.3655C197.878 57.0582 196.989 55.8391 196.228 54.5238C195.314 52.9197 194.826 50.9788 193.824 49.471C189.216 42.8177 184.129 36.5103 178.603 30.5992C176.235 28.0669 173.726 25.6704 171.089 23.421C165.414 18.5776 159.147 14.4758 152.439 11.2141C148.668 9.41173 144.807 7.80553 140.871 6.40195C138.948 5.70418 137.01 5.03048 135.071 4.37281C133.304 3.65959 131.486 3.08311 129.631 2.64845C125.509 1.93293 121.346 1.48021 117.166 1.29302C110.547 0.923525 103.908 1.44413 97.4267 2.84094C92.5853 4.04215 87.8251 5.55034 83.1749 7.35637L80.6273 8.2787L68.4985 12.6899C65.1369 13.9568 61.9873 15.7282 59.1576 17.9432C53.4937 22.2581 48.8633 27.768 44.5854 33.4224C43.1594 35.3071 41.5171 38.0661 40.5237 39.5659C38.9215 41.972 38.2245 41.972 37.3193 43.5761C36.5912 44.9553 35.7889 46.294 34.916 47.5862C33.482 49.5993 32.3925 52.4947 31.0546 54.5719C29.8672 56.5376 28.8668 58.6106 28.0665 60.7636C25.6631 66.7949 23.428 72.9063 21.2089 79.0098L19.6067 83.5092C19.3263 84.3112 19.0379 85.1132 18.7575 85.8591C18.0766 87.8081 17.3716 89.7971 16.8429 91.8182C16.3542 93.6629 15.7374 95.4755 15.3128 97.3522C14.4235 101.266 14.015 105.276 13.4622 109.246C12.7332 114.443 11.7398 119.593 10.8586 124.766C10.5301 126.739 10.2097 128.72 9.92129 130.709C8.71962 138.946 8.03066 147.287 7.45386 155.572C7.16546 159.849 6.94649 164.127 6.79695 168.404C6.72485 170.457 6.6127 172.511 6.70082 174.556C6.66229 176.619 6.48296 178.677 6.16407 180.715C6.00118 182.938 5.9584 185.169 6.0359 187.396C6.09493 194.375 5.7445 201.351 4.98644 208.289C4.80263 211.181 4.8589 214.084 5.15468 216.967C5.31122 217.948 5.35156 218.944 5.27484 219.935C5.32291 222.084 5.36296 224.233 5.41103 226.351C5.49648 230.628 5.58728 234.925 5.68341 239.239H5.99584C5.957 239.422 5.98295 239.612 6.06923 239.778C6.1555 239.943 6.2967 240.073 6.4685 240.146C7.78036 241.628 9.27428 242.937 10.9147 244.044C14.1356 245.965 17.5687 247.504 21.1449 248.631C50.3082 258.453 80.7123 264.096 111.454 265.394C119.93 265.836 128.427 265.681 136.881 264.928C144.091 264.215 151.39 263.95 158.6 263.324C165.185 262.715 171.666 261.608 178.203 260.63C185.309 259.563 192.903 258.224 199.761 256.106C205.841 254.189 211.056 252.096 217.313 249.521C218.434 249.056 219.82 248.407 220.237 247.436H220.405C220.405 247.252 220.405 247.067 220.365 246.883C220.373 246.781 220.373 246.679 220.365 246.578C220.013 241.678 220.365 236.753 220.63 231.845C220.63 231.516 220.63 231.179 220.67 230.85C220.919 226.721 220.723 222.578 220.085 218.491Z" fill="white"/>
<path opacity="0.2" d="M86.1713 234.459C88.6628 231.813 92.3399 230.578 95.9529 230.193C99.5659 229.808 103.211 230.193 106.84 230.249C114.05 230.385 121.396 229.326 128.382 231.123C131.658 231.965 134.791 233.417 138.123 233.954C141.744 234.532 145.542 234.002 149.043 235.117C150.269 235.442 151.369 236.13 152.199 237.09C153.537 238.782 153.417 241.164 153.136 243.298C152.968 244.597 152.535 246.145 151.27 246.506C150.623 246.597 149.965 246.523 149.355 246.289C146.92 245.638 144.367 245.561 141.897 246.065C140.294 246.386 138.78 246.939 137.178 246.867C134.222 246.723 131.723 244.461 128.774 244.14C124.657 243.707 121.26 247.115 117.439 248.712C114.297 250.006 110.785 250.077 107.593 248.912C105.815 248.254 104.172 247.22 102.338 246.731C101.016 246.378 99.646 246.313 98.3322 246.057C94.0703 245.255 90.4413 242.528 87.1167 239.761C86.2208 239.128 85.49 238.289 84.9857 237.315C84.739 236.824 84.6672 236.264 84.7823 235.727C84.8974 235.19 85.1925 234.709 85.6186 234.363L86.1713 234.459Z" fill="#242638"/>
<path d="M101.761 237.114C101.841 237.78 101.296 238.333 100.839 238.83C100.383 239.328 99.9663 240.05 100.303 240.635C100.417 240.804 100.573 240.941 100.755 241.032C100.938 241.124 101.14 241.166 101.344 241.156C101.752 241.134 102.155 241.05 102.538 240.908C102.662 240.846 102.799 240.814 102.938 240.814C103.077 240.814 103.214 240.846 103.339 240.908C103.504 241.076 103.601 241.298 103.611 241.533C103.65 241.857 103.763 242.167 103.94 242.44C104.027 242.569 104.148 242.674 104.288 242.743C104.429 242.812 104.585 242.843 104.741 242.833C105.366 242.712 105.542 241.822 106.111 241.565C106.325 241.511 106.548 241.501 106.765 241.537C106.983 241.573 107.191 241.654 107.377 241.774C107.493 241.853 107.626 241.903 107.765 241.92C107.905 241.937 108.046 241.92 108.178 241.87C108.434 241.71 108.442 241.357 108.426 241.068L108.306 238.814C108.316 238.501 108.25 238.19 108.114 237.908C107.836 237.531 107.422 237.278 106.96 237.202C105.173 236.705 104.012 236.304 102.225 236.817L101.761 237.114Z" fill="#242638"/>
<path d="M130.272 237.868C130.232 238.317 129.968 238.413 129.728 238.798C129.239 239.6 128.125 240.041 128.125 240.972C128.135 241.156 128.19 241.335 128.286 241.493C128.381 241.651 128.514 241.783 128.672 241.877C128.83 241.972 129.01 242.026 129.194 242.034C129.378 242.043 129.561 242.006 129.728 241.926C129.886 241.8 130.055 241.688 130.232 241.589C130.769 241.373 131.322 241.878 131.666 242.391C132.011 242.905 132.427 243.434 133.012 243.386C133.813 243.314 134.038 242.223 134.719 241.782C135.4 241.341 136.273 241.782 137.074 241.782C137.192 241.801 137.313 241.781 137.418 241.726C137.659 241.573 137.571 241.204 137.418 240.924L136.449 238.774C136.322 238.458 136.152 238.162 135.944 237.892C135.577 237.563 135.138 237.325 134.662 237.198C134.186 237.071 133.686 237.059 133.205 237.162C132.003 237.283 131.883 236.785 130.801 237.307L130.272 237.868Z" fill="#242638"/>
<path d="M87.6293 226.752C85.6025 222.196 86.3235 216.927 85.3782 212.027C85.1058 210.607 85.266 203.276 84.0564 201.528C82.5503 204.736 81.8693 208.337 79.8345 211.217C79.132 212.324 78.0847 213.17 76.8544 213.623C76.54 212.062 76.3844 210.474 76.3897 208.883C76.3685 207.591 76.5139 206.303 76.8223 205.049C77.0867 204.038 76.9505 202.851 77.2229 201.841C77.7036 199.996 78.2483 198.28 78.6168 196.411C78.8011 195.489 79.0735 194.582 79.3378 193.676L79.9947 191.479C81.1243 187.669 82.2539 183.859 83.6318 180.13C83.9763 179.191 84.4329 178.269 84.7133 177.323C84.9405 176.426 85.0906 175.511 85.1619 174.588C85.4583 172.607 85.8188 170.634 86.2594 168.677C86.5398 167.434 86.8442 166.191 87.1807 164.963C87.3833 164.355 87.5544 163.737 87.6934 163.111C87.7655 162.678 87.6934 162.261 87.8216 161.827C88.4545 159.237 89.4879 156.686 90.305 154.144C90.5161 153.405 90.784 152.684 91.1061 151.987C91.4026 151.401 91.7711 150.848 92.1236 150.286C92.9247 149.035 93.2531 147.944 94.1263 146.332C94.3079 145.828 94.5793 145.36 94.9274 144.953C95.2571 144.586 95.5648 144.201 95.8487 143.798L96.8822 142.763C97.8835 141.761 98.7888 140.518 99.8302 139.555C101.289 138.345 102.855 137.271 104.509 136.347C105.226 136.011 105.961 135.716 106.712 135.465C106.712 135.465 108.114 135.152 108.434 135.04C119.273 131.447 130.12 133.628 138.316 140.485C142.105 143.653 145.277 147.8 146.327 152.628C146.912 155.267 147.793 158.186 148.113 160.857C148.458 163.817 149.715 166.215 150.18 169.15C151.734 179.52 154.538 188.583 157.246 198.192C158.664 203.236 160.098 208.522 158.976 213.631C156.163 211.308 153.99 208.305 152.664 204.905C152.724 205.5 152.689 206.101 152.559 206.685C152.511 207.383 152.463 208.089 152.407 208.786C152.295 210.126 152.159 211.473 151.999 212.797C151.678 215.475 151.262 218.146 150.757 220.817C150.252 223.488 149.627 226.094 148.946 228.709C148.66 230.317 148.008 231.837 147.04 233.152C145.96 234.47 144.57 235.498 142.994 236.144C140.751 237.09 138.412 237.226 136.04 237.635C133.697 237.99 131.335 238.204 128.967 238.277C123.607 238.574 118.248 238.606 112.88 238.638C111.009 238.688 109.136 238.627 107.273 238.453C104.898 238.153 102.556 237.629 100.279 236.89C97.5361 236.165 94.9225 235.018 92.5321 233.489C90.1304 231.929 88.3986 229.526 87.6774 226.752" fill="#E4494F"/>
<path opacity="0.2" d="M88.4706 162.164C86.4038 166.175 85.7469 170.802 85.13 175.294C84.6333 178.863 83.2314 182.071 82.7267 185.648C82.0858 190.003 82.3742 194.735 82.4623 199.106C82.4177 199.858 82.5666 200.609 82.8949 201.287C83.0712 201.584 83.4156 201.857 83.696 201.729C83.9764 201.6 84.0325 201.304 84.0886 201.031C84.8873 197.303 85.4519 193.529 85.7789 189.73C86.0112 186.257 85.851 182.761 85.9792 179.304C86.1295 174.936 86.7309 170.595 87.7737 166.351C88.1182 164.963 88.5107 163.496 88.1422 162.108" fill="#040015"/>
<path d="M87.6295 226.752C85.6026 222.196 86.3236 216.927 85.3783 212.027C85.1059 210.607 82.254 183.867 83.6319 180.138C83.9764 179.2 84.433 178.277 84.7134 177.331C84.9406 176.434 85.0907 175.519 85.162 174.596C85.4584 172.615 85.8189 170.642 86.2595 168.685C86.5399 167.442 86.8444 166.199 87.1808 164.972C87.3834 164.363 87.5546 163.745 87.6935 163.119C87.7656 162.686 87.6935 162.269 87.8217 161.836C88.4546 159.245 89.488 156.695 90.3052 154.152C90.5163 153.413 90.7841 152.692 91.1063 151.995C91.4027 151.409 91.7712 150.856 92.1237 150.294C92.9248 149.043 93.2532 147.952 94.1264 146.34C94.308 145.836 94.5794 145.368 94.9276 144.961C95.2572 144.594 95.5649 144.209 95.8488 143.806L96.8823 142.771C97.8837 141.769 98.7889 140.526 99.8304 139.563C101.289 138.353 102.855 137.279 104.509 136.355C105.226 136.019 105.961 135.724 106.712 135.473C106.712 135.473 108.114 135.16 108.434 135.048C119.273 131.455 130.12 133.636 138.316 140.494C142.105 143.662 145.277 147.808 146.327 152.636C146.912 155.275 147.793 158.194 148.113 160.865C148.458 163.825 149.716 166.223 150.18 169.158C151.734 179.528 152.584 206.212 152.519 206.661C152.471 207.359 152.423 208.065 152.367 208.762C152.255 210.102 152.119 211.449 151.959 212.773C151.638 215.451 151.222 218.122 150.717 220.793C150.212 223.464 149.587 226.07 148.906 228.685C148.62 230.293 147.968 231.813 147 233.128C145.92 234.446 144.53 235.474 142.954 236.12C140.711 237.066 138.372 237.202 136.001 237.611C133.657 237.966 131.295 238.18 128.927 238.253C123.567 238.55 118.208 238.582 112.84 238.614C110.969 238.664 109.097 238.603 107.233 238.429C104.858 238.129 102.516 237.605 100.239 236.866C97.4961 236.141 94.8826 234.994 92.4922 233.465C90.0904 231.905 88.3587 229.502 87.6375 226.728" fill="#F14F51"/>
<path d="M111.919 235.582C108.421 235.331 104.92 235.04 101.416 234.708C99.3851 234.63 97.3834 234.193 95.5043 233.417C93.7895 232.592 92.3851 231.236 91.4987 229.551C90.1849 227.025 90.1769 224.041 90.2009 221.194C90.2009 217.111 90.4973 212.957 90.2009 208.891C89.3998 198.055 89.9285 187.019 90.289 176.176L90.3932 173.024C90.5855 167.345 90.9059 161.795 92.6203 156.326C93.7051 153.117 95.4335 150.164 97.6993 147.648C98.1056 147.129 98.6056 146.691 99.1734 146.356C99.6228 146.136 100.1 145.977 100.591 145.883C101.506 145.626 102.446 145.47 103.395 145.418C105.094 145.51 106.757 145.947 108.282 146.701C110.036 147.431 111.871 148.233 113.041 149.741C113.397 150.197 113.668 150.713 113.842 151.265C113.995 151.869 114.083 152.487 114.106 153.109C114.394 156.742 114.964 160.346 115.812 163.889C116.253 165.782 117.23 166.656 119.217 166.455C119.922 166.42 120.592 166.136 121.108 165.653C121.417 165.308 121.663 164.912 121.837 164.482C122.23 163.602 122.528 162.683 122.726 161.739C122.855 160.812 122.885 159.874 122.814 158.94C122.868 156.848 123.207 154.773 123.824 152.773C124.045 151.772 124.48 150.831 125.097 150.014C125.987 149.092 127.112 148.431 128.35 148.105C129.34 147.748 130.366 147.5 131.41 147.367C132.119 147.305 132.831 147.292 133.541 147.327C134.378 147.318 135.212 147.431 136.016 147.664C136.785 147.96 137.512 148.353 138.179 148.835C138.958 149.289 139.652 149.875 140.23 150.567C140.605 151.114 140.906 151.707 141.128 152.331C142.073 154.697 143.018 157.055 143.859 159.462C144.244 160.568 144.548 161.635 145.021 162.67C145.54 163.814 145.96 164.999 146.279 166.215C146.754 168.387 147.022 170.6 147.08 172.823C147.08 174.844 147.272 176.705 147.392 178.726C147.448 179.761 147.544 180.972 147.601 181.999C147.657 182.806 147.759 183.609 147.905 184.405C148.223 186.369 148.413 188.351 148.474 190.34C148.554 192.321 148.474 194.31 148.41 196.291C148.217 200.902 148.137 205.458 147.937 210.054C147.881 211.289 147.937 212.524 147.865 213.759C147.793 214.994 147.649 216.165 147.488 217.392C146.984 221.314 146.807 225.541 144.821 229.062C144.466 229.726 144.012 230.332 143.475 230.858C142.646 231.515 141.749 232.08 140.799 232.543C139.712 233.304 138.559 233.967 137.354 234.524C136.386 234.847 135.378 235.036 134.358 235.085C127.356 235.703 120.515 235.47 113.481 235.454C113.449 235.534 112.28 235.606 111.919 235.582Z" fill="white"/>
<path d="M121.196 161.844C120.538 161.702 119.864 161.656 119.193 161.707C118.392 161.707 117.591 161.707 116.79 161.707C116.74 161.706 116.69 161.715 116.643 161.734C116.597 161.752 116.554 161.78 116.518 161.815C116.482 161.85 116.454 161.892 116.435 161.938C116.415 161.984 116.405 162.034 116.405 162.084C116.382 162.134 116.369 162.189 116.369 162.245C116.369 162.3 116.382 162.355 116.405 162.405C116.918 163.207 117.535 164.891 118.64 165.076C119.746 165.26 120.323 164.129 120.996 163.472C121.46 162.99 122.149 162.204 121.196 161.844Z" fill="white"/>
<path opacity="0.1" d="M148.137 160.905C147.817 158.234 146.936 155.291 146.351 152.676C146.239 152.155 146.087 151.634 145.926 151.128C145.654 150.415 145.382 149.701 145.085 148.995C143.47 145.718 141.163 142.831 138.324 140.534C133.952 136.841 128.624 134.464 122.958 133.676C126.363 138.769 131.859 142.049 136.057 146.573C140.254 151.096 142.53 156.847 143.868 162.854C145.204 168.845 146.008 174.943 146.271 181.076C147.024 198.721 147.753 216.646 143.299 233.714C143.043 234.488 142.937 235.305 142.986 236.12C144.547 235.467 145.923 234.44 146.992 233.128C147.96 231.813 148.612 230.293 148.898 228.685C149.579 226.07 150.196 223.448 150.709 220.793C151.222 218.138 151.63 215.475 151.951 212.773C152.023 212.139 152.079 211.497 152.143 210.864C152.186 205.95 152.186 201.036 152.143 196.122C151.766 187.356 151.102 175.342 150.172 169.142C149.764 166.263 148.482 163.865 148.137 160.905Z" fill="#040015"/>
<path d="M103.996 158.892C103.931 158.682 103.803 158.498 103.629 158.363C103.456 158.228 103.246 158.15 103.027 158.138C102.773 158.158 102.527 158.229 102.302 158.348C102.078 158.466 101.88 158.63 101.721 158.828C101.682 158.871 101.653 158.922 101.637 158.978C101.62 159.033 101.616 159.091 101.625 159.149C101.481 159.393 101.399 159.668 101.384 159.951C101.384 160.881 102.474 161.354 103.275 161.242C104.42 161.106 104.348 159.71 103.996 158.892Z" fill="#242638"/>
<path d="M135.407 159.365C135.343 159.074 135.199 158.806 134.991 158.592C134.783 158.378 134.519 158.226 134.23 158.154C133.985 158.108 133.731 158.134 133.501 158.229C133.27 158.325 133.073 158.485 132.932 158.692C132.011 159.173 131.682 160.424 132.804 161.009C133.111 161.168 133.452 161.25 133.797 161.25C134.143 161.25 134.483 161.168 134.791 161.009C135.067 160.849 135.28 160.597 135.392 160.298C135.504 159.998 135.51 159.669 135.407 159.365Z" fill="#242638"/>
<path d="M114.21 187.557C114.313 187.557 114.411 187.518 114.485 187.448C114.56 187.378 114.605 187.282 114.611 187.18L114.747 185.038C114.75 184.986 114.743 184.933 114.726 184.883C114.709 184.833 114.682 184.787 114.647 184.747C114.612 184.708 114.57 184.676 114.522 184.653C114.475 184.63 114.423 184.616 114.371 184.613C114.317 184.608 114.264 184.613 114.213 184.629C114.162 184.646 114.115 184.673 114.075 184.708C114.035 184.743 114.003 184.787 113.981 184.835C113.959 184.884 113.947 184.937 113.946 184.99L113.81 187.132C113.808 187.241 113.848 187.347 113.923 187.426C113.998 187.506 114.101 187.552 114.21 187.557Z" fill="#242638"/>
<path d="M118.929 184.148C118.877 184.14 118.823 184.143 118.772 184.156C118.721 184.169 118.673 184.193 118.631 184.225C118.589 184.257 118.554 184.297 118.528 184.343C118.503 184.389 118.486 184.44 118.48 184.493L118.344 185.495C118.33 185.601 118.359 185.707 118.424 185.791C118.488 185.875 118.583 185.931 118.689 185.944H118.745C118.843 185.944 118.937 185.907 119.01 185.843C119.084 185.778 119.132 185.689 119.145 185.592L119.273 184.589C119.285 184.485 119.255 184.381 119.191 184.298C119.126 184.216 119.032 184.162 118.929 184.148Z" fill="#242638"/>
<path d="M126.507 187.508C126.562 187.537 126.622 187.551 126.684 187.549C126.758 187.549 126.831 187.53 126.895 187.491C126.958 187.453 127.01 187.398 127.044 187.332C127.347 186.722 127.464 186.035 127.381 185.359C127.374 185.306 127.357 185.256 127.33 185.21C127.304 185.163 127.268 185.123 127.226 185.091C127.184 185.058 127.136 185.035 127.085 185.021C127.034 185.007 126.981 185.003 126.928 185.01C126.875 185.017 126.825 185.034 126.779 185.061C126.733 185.087 126.692 185.122 126.66 185.164C126.628 185.207 126.604 185.255 126.59 185.306C126.576 185.357 126.573 185.411 126.579 185.463C126.647 185.979 126.561 186.504 126.331 186.971C126.307 187.018 126.292 187.069 126.287 187.122C126.283 187.174 126.289 187.227 126.305 187.277C126.322 187.327 126.348 187.374 126.383 187.413C126.418 187.453 126.46 187.485 126.507 187.508Z" fill="#242638"/>
<path d="M123.88 189.337C123.928 189.345 123.976 189.345 124.024 189.337C124.104 189.338 124.183 189.314 124.249 189.268C124.316 189.222 124.366 189.156 124.392 189.08C124.513 188.767 124.589 188.437 124.617 188.102C124.622 188.05 124.617 187.997 124.602 187.947C124.587 187.896 124.562 187.85 124.528 187.809C124.494 187.769 124.453 187.736 124.406 187.711C124.36 187.687 124.309 187.673 124.256 187.669C124.152 187.664 124.05 187.698 123.97 187.765C123.89 187.832 123.838 187.926 123.824 188.03C123.8 188.291 123.741 188.547 123.647 188.792C123.624 188.842 123.612 188.898 123.611 188.953C123.61 189.009 123.621 189.064 123.643 189.116C123.665 189.167 123.697 189.213 123.738 189.251C123.779 189.29 123.827 189.319 123.88 189.337Z" fill="#242638"/>
<path d="M120.547 190.628C120.653 190.628 120.755 190.586 120.83 190.511C120.905 190.436 120.948 190.334 120.948 190.227V188.687C120.948 188.581 120.905 188.479 120.83 188.404C120.755 188.329 120.653 188.286 120.547 188.286C120.441 188.286 120.339 188.329 120.264 188.404C120.189 188.479 120.147 188.581 120.147 188.687V190.227C120.147 190.334 120.189 190.436 120.264 190.511C120.339 190.586 120.441 190.628 120.547 190.628Z" fill="#242638"/>
<path d="M116.341 190.099C116.447 190.097 116.548 190.054 116.622 189.979C116.697 189.905 116.74 189.804 116.742 189.698V188.423C116.74 188.317 116.697 188.216 116.622 188.141C116.548 188.067 116.447 188.024 116.341 188.022C116.235 188.022 116.133 188.064 116.058 188.139C115.983 188.214 115.941 188.316 115.941 188.423V189.666C115.936 189.721 115.943 189.777 115.962 189.829C115.98 189.882 116.008 189.93 116.046 189.97C116.084 190.011 116.129 190.044 116.18 190.066C116.231 190.088 116.286 190.099 116.341 190.099Z" fill="#242638"/>
<path d="M109.187 187.356C109.248 187.355 109.308 187.342 109.364 187.316C109.459 187.271 109.532 187.19 109.568 187.091C109.604 186.992 109.6 186.882 109.556 186.787C109.364 186.373 109.324 185.904 109.444 185.463C109.46 185.413 109.465 185.36 109.46 185.307C109.455 185.254 109.439 185.203 109.413 185.157C109.388 185.11 109.353 185.069 109.312 185.037C109.27 185.004 109.222 184.98 109.171 184.966C109.069 184.936 108.96 184.948 108.867 184.999C108.773 185.051 108.704 185.137 108.675 185.239C108.499 185.865 108.553 186.534 108.827 187.123C108.86 187.192 108.911 187.25 108.974 187.291C109.038 187.332 109.112 187.355 109.187 187.356Z" fill="#242638"/>
<path d="M111.967 190.292C112.068 190.29 112.164 190.252 112.238 190.184C112.312 190.115 112.358 190.023 112.368 189.923L112.432 189.121C112.436 189.068 112.43 189.015 112.414 188.964C112.398 188.914 112.372 188.867 112.338 188.827C112.303 188.787 112.261 188.754 112.214 188.73C112.167 188.706 112.116 188.691 112.063 188.687C111.96 188.684 111.858 188.719 111.779 188.786C111.699 188.852 111.646 188.946 111.631 189.048L111.567 189.85C111.561 189.906 111.567 189.963 111.585 190.016C111.602 190.07 111.631 190.119 111.669 190.16C111.707 190.202 111.753 190.235 111.804 190.258C111.856 190.28 111.911 190.292 111.967 190.292Z" fill="#242638"/>
<path d="M106.007 190.468C106.112 190.468 106.213 190.427 106.287 190.353C106.362 190.28 106.405 190.18 106.408 190.075C106.409 189.554 106.524 189.039 106.744 188.567C106.771 188.519 106.788 188.466 106.794 188.412C106.8 188.357 106.794 188.301 106.778 188.249C106.762 188.196 106.734 188.148 106.698 188.106C106.662 188.065 106.618 188.031 106.568 188.007C106.519 187.983 106.465 187.97 106.41 187.968C106.355 187.966 106.3 187.976 106.249 187.996C106.198 188.016 106.151 188.047 106.112 188.085C106.074 188.124 106.043 188.171 106.023 188.222C105.75 188.799 105.608 189.429 105.606 190.067C105.606 190.173 105.649 190.275 105.724 190.35C105.799 190.426 105.901 190.468 106.007 190.468Z" fill="#242638"/>
<path d="M101.849 190.564C101.955 190.556 102.053 190.507 102.123 190.428C102.193 190.348 102.23 190.245 102.226 190.139C102.185 189.548 102.226 188.955 102.346 188.375C102.358 188.322 102.359 188.268 102.349 188.216C102.34 188.163 102.32 188.113 102.291 188.068C102.262 188.023 102.224 187.985 102.18 187.955C102.136 187.925 102.086 187.904 102.033 187.893C101.982 187.883 101.929 187.883 101.877 187.893C101.825 187.903 101.776 187.923 101.732 187.952C101.689 187.981 101.651 188.018 101.621 188.062C101.592 188.106 101.571 188.155 101.561 188.206C101.423 188.857 101.378 189.524 101.425 190.187C101.428 190.24 101.441 190.292 101.464 190.339C101.487 190.386 101.519 190.429 101.559 190.464C101.598 190.499 101.644 190.526 101.694 190.543C101.744 190.56 101.797 190.567 101.849 190.564Z" fill="#242638"/>
<path d="M109.356 191.446C109.253 191.422 109.144 191.44 109.054 191.496C108.964 191.551 108.9 191.64 108.875 191.743C108.711 192.401 108.711 193.09 108.875 193.748C108.899 193.834 108.951 193.909 109.022 193.962C109.092 194.016 109.179 194.045 109.267 194.045C109.302 194.052 109.337 194.052 109.372 194.045C109.473 194.017 109.56 193.95 109.612 193.858C109.665 193.766 109.679 193.658 109.652 193.556C109.516 193.03 109.516 192.478 109.652 191.952C109.668 191.899 109.672 191.844 109.666 191.789C109.659 191.735 109.641 191.682 109.613 191.635C109.586 191.587 109.548 191.546 109.504 191.514C109.46 191.481 109.409 191.458 109.356 191.446Z" fill="#242638"/>
<path d="M114.723 192.537C114.736 192.485 114.739 192.43 114.731 192.376C114.723 192.322 114.704 192.271 114.677 192.224C114.649 192.178 114.612 192.137 114.568 192.105C114.525 192.072 114.475 192.049 114.423 192.036C114.37 192.023 114.315 192.02 114.262 192.028C114.208 192.036 114.157 192.055 114.11 192.082C114.064 192.11 114.023 192.147 113.991 192.191C113.958 192.234 113.935 192.284 113.922 192.337C113.767 192.917 113.821 193.533 114.074 194.077C114.105 194.147 114.156 194.206 114.22 194.247C114.284 194.288 114.358 194.31 114.435 194.31C114.49 194.321 114.547 194.321 114.603 194.31C114.699 194.266 114.775 194.186 114.812 194.086C114.85 193.987 114.847 193.877 114.803 193.78C114.628 193.389 114.599 192.948 114.723 192.537Z" fill="#242638"/>
<path d="M118.168 192.641C118.115 192.646 118.064 192.662 118.017 192.687C117.971 192.712 117.929 192.746 117.896 192.787C117.862 192.828 117.837 192.875 117.822 192.926C117.807 192.977 117.802 193.03 117.807 193.083C117.831 193.303 117.815 193.526 117.759 193.74C117.732 193.842 117.747 193.951 117.799 194.043C117.852 194.134 117.938 194.201 118.04 194.229H118.144C118.233 194.229 118.318 194.198 118.388 194.143C118.458 194.088 118.507 194.011 118.528 193.925C118.615 193.617 118.642 193.296 118.608 192.978C118.593 192.876 118.538 192.784 118.456 192.721C118.374 192.658 118.27 192.63 118.168 192.641Z" fill="#242638"/>
<path d="M122.814 194.374H122.886C122.938 194.365 122.988 194.346 123.032 194.318C123.077 194.29 123.115 194.253 123.145 194.209C123.175 194.166 123.196 194.117 123.206 194.065C123.217 194.014 123.217 193.96 123.207 193.909C123.139 193.562 123.139 193.205 123.207 192.858C123.226 192.754 123.204 192.647 123.146 192.558C123.088 192.47 122.997 192.408 122.894 192.385C122.843 192.374 122.79 192.374 122.738 192.384C122.686 192.394 122.637 192.414 122.593 192.443C122.549 192.472 122.512 192.51 122.482 192.553C122.453 192.597 122.432 192.646 122.422 192.698C122.33 193.147 122.33 193.611 122.422 194.061C122.44 194.151 122.49 194.231 122.562 194.288C122.633 194.346 122.723 194.376 122.814 194.374Z" fill="#242638"/>
<path d="M127.557 191.567C127.451 191.567 127.349 191.609 127.274 191.684C127.198 191.759 127.156 191.861 127.156 191.968V192.569C127.156 192.676 127.198 192.778 127.274 192.853C127.349 192.928 127.451 192.97 127.557 192.97C127.663 192.97 127.765 192.928 127.84 192.853C127.915 192.778 127.957 192.676 127.957 192.569V191.968C127.957 191.861 127.915 191.759 127.84 191.684C127.765 191.609 127.663 191.567 127.557 191.567Z" fill="#242638"/>
<path d="M129.431 190.163C129.535 190.163 129.634 190.123 129.709 190.051C129.784 189.98 129.828 189.882 129.832 189.778C129.856 189.144 129.808 188.509 129.688 187.885C129.679 187.833 129.66 187.784 129.632 187.739C129.604 187.695 129.567 187.656 129.523 187.626C129.48 187.596 129.431 187.576 129.38 187.565C129.328 187.554 129.275 187.554 129.223 187.565C129.119 187.584 129.027 187.644 128.967 187.731C128.907 187.818 128.884 187.926 128.903 188.03C129.01 188.595 129.053 189.171 129.031 189.746C129.029 189.8 129.038 189.854 129.057 189.905C129.076 189.955 129.105 190.001 129.142 190.04C129.18 190.079 129.225 190.11 129.274 190.131C129.324 190.152 129.377 190.163 129.431 190.163Z" fill="#242638"/>
<path d="M131.626 191.92C131.526 191.887 131.416 191.895 131.321 191.943C131.226 191.992 131.155 192.075 131.122 192.176C130.991 192.564 130.964 192.978 131.042 193.379C131.06 193.471 131.109 193.553 131.18 193.613C131.252 193.673 131.341 193.706 131.434 193.708H131.514C131.617 193.685 131.708 193.623 131.766 193.535C131.824 193.446 131.846 193.339 131.827 193.235C131.777 192.967 131.796 192.691 131.883 192.433C131.916 192.331 131.908 192.22 131.86 192.124C131.812 192.028 131.728 191.954 131.626 191.92Z" fill="#242638"/>
<path d="M100.704 193.909C100.754 193.92 100.806 193.92 100.856 193.909C100.905 193.889 100.949 193.86 100.987 193.823C101.024 193.787 101.054 193.742 101.074 193.694C101.094 193.645 101.105 193.593 101.104 193.54C101.104 193.488 101.093 193.436 101.072 193.387C100.866 192.872 100.723 192.333 100.648 191.783C100.635 191.677 100.58 191.58 100.496 191.514C100.412 191.448 100.305 191.418 100.199 191.43C100.093 191.443 99.9959 191.498 99.9298 191.582C99.8636 191.666 99.8337 191.773 99.8464 191.88C99.9288 192.513 100.093 193.133 100.335 193.724C100.374 193.785 100.429 193.835 100.494 193.868C100.559 193.9 100.631 193.914 100.704 193.909Z" fill="#242638"/>
<path d="M95.3682 195.858C95.3873 195.754 95.3655 195.646 95.3072 195.558C95.249 195.47 95.1589 195.408 95.0558 195.384C95.0042 195.374 94.9511 195.374 94.8995 195.384C94.8478 195.394 94.7986 195.414 94.7547 195.443C94.7108 195.472 94.6731 195.509 94.6436 195.553C94.6142 195.597 94.5936 195.646 94.5831 195.697C94.4362 196.421 94.4499 197.169 94.6232 197.887C94.6448 197.974 94.6953 198.052 94.7666 198.107C94.8378 198.163 94.9256 198.192 95.0157 198.192H95.1038C95.1556 198.179 95.2045 198.157 95.2475 198.126C95.2906 198.094 95.327 198.055 95.3546 198.009C95.3822 197.964 95.4004 197.913 95.4082 197.86C95.4161 197.808 95.4134 197.754 95.4003 197.702C95.2564 197.097 95.2454 196.468 95.3682 195.858Z" fill="#242638"/>
<path d="M98.5486 196.082C98.4956 196.084 98.4436 196.097 98.3956 196.12C98.3477 196.142 98.3048 196.174 98.2696 196.214C98.2344 196.254 98.2076 196.3 98.1909 196.351C98.1741 196.401 98.1677 196.454 98.1721 196.507C98.1915 196.779 98.1561 197.052 98.068 197.309C98.0347 197.409 98.0422 197.518 98.0886 197.613C98.1351 197.707 98.2169 197.78 98.3163 197.815H98.4445C98.5291 197.816 98.6119 197.79 98.681 197.741C98.7501 197.692 98.8019 197.622 98.829 197.542C98.9446 197.188 98.9935 196.815 98.9732 196.443C98.9692 196.391 98.955 196.341 98.9314 196.295C98.9078 196.249 98.8754 196.208 98.8359 196.174C98.7965 196.141 98.7508 196.115 98.7015 196.099C98.6521 196.084 98.6002 196.078 98.5486 196.082Z" fill="#242638"/>
<path d="M106.327 196.002L106.4 197.534C106.404 197.637 106.448 197.735 106.522 197.807C106.597 197.879 106.697 197.919 106.8 197.919C106.853 197.917 106.906 197.904 106.954 197.882C107.002 197.859 107.046 197.827 107.082 197.787C107.117 197.748 107.145 197.701 107.163 197.651C107.18 197.6 107.188 197.547 107.185 197.494L107.104 195.962C107.104 195.909 107.092 195.857 107.07 195.808C107.048 195.76 107.017 195.716 106.978 195.68C106.939 195.644 106.894 195.617 106.844 195.599C106.794 195.581 106.741 195.574 106.688 195.577C106.584 195.587 106.489 195.637 106.422 195.716C106.355 195.796 106.321 195.898 106.327 196.002Z" fill="#242638"/>
<path d="M104.445 193.676C104.497 193.676 104.549 193.666 104.597 193.645C104.645 193.625 104.689 193.595 104.725 193.558C104.762 193.521 104.791 193.477 104.81 193.428C104.829 193.379 104.838 193.327 104.837 193.275C104.835 192.905 104.879 192.536 104.966 192.176C104.992 192.07 104.975 191.957 104.919 191.863C104.863 191.769 104.771 191.702 104.665 191.675C104.559 191.648 104.446 191.665 104.353 191.722C104.259 191.778 104.191 191.869 104.164 191.976C104.062 192.404 104.011 192.843 104.012 193.283C104.014 193.338 104.027 193.391 104.05 193.44C104.073 193.49 104.106 193.534 104.146 193.571C104.186 193.607 104.233 193.635 104.285 193.654C104.336 193.672 104.39 193.679 104.445 193.676Z" fill="#242638"/>
<path d="M102.578 196.026C102.586 195.974 102.583 195.92 102.569 195.869C102.555 195.818 102.531 195.77 102.498 195.728C102.465 195.687 102.424 195.653 102.377 195.628C102.33 195.603 102.279 195.589 102.226 195.585C102.121 195.574 102.015 195.604 101.933 195.671C101.85 195.737 101.797 195.833 101.785 195.938C101.724 196.477 101.773 197.022 101.929 197.542C101.953 197.623 102.003 197.694 102.071 197.745C102.139 197.795 102.221 197.823 102.306 197.823C102.345 197.83 102.386 197.83 102.426 197.823C102.526 197.791 102.611 197.721 102.66 197.628C102.71 197.535 102.72 197.426 102.69 197.325C102.566 196.904 102.527 196.462 102.578 196.026Z" fill="#242638"/>
<path d="M111.414 196.884H111.519C111.57 196.87 111.618 196.846 111.66 196.814C111.702 196.781 111.737 196.741 111.763 196.694C111.789 196.648 111.805 196.597 111.812 196.544C111.818 196.491 111.814 196.438 111.799 196.387C111.68 195.973 111.629 195.542 111.647 195.112C111.649 195.006 111.61 194.903 111.539 194.826C111.467 194.748 111.368 194.701 111.262 194.695C111.157 194.694 111.056 194.734 110.978 194.805C110.901 194.877 110.854 194.975 110.846 195.08C110.826 195.597 110.888 196.114 111.03 196.612C111.056 196.693 111.107 196.763 111.177 196.812C111.246 196.861 111.33 196.887 111.414 196.884Z" fill="#242638"/>
<path d="M115.861 197.686C115.749 197.257 115.724 196.81 115.789 196.371C115.796 196.318 115.794 196.265 115.781 196.213C115.768 196.161 115.745 196.113 115.714 196.07C115.682 196.027 115.642 195.991 115.597 195.963C115.551 195.936 115.501 195.918 115.448 195.91C115.395 195.902 115.342 195.904 115.29 195.917C115.239 195.93 115.19 195.953 115.147 195.985C115.104 196.016 115.068 196.056 115.041 196.102C115.013 196.147 114.995 196.198 114.987 196.251C114.912 196.786 114.942 197.331 115.076 197.855C115.098 197.939 115.148 198.014 115.218 198.068C115.287 198.122 115.372 198.151 115.46 198.151H115.564C115.664 198.127 115.75 198.065 115.805 197.978C115.86 197.891 115.88 197.787 115.861 197.686Z" fill="#242638"/>
<path d="M138.244 192.874H138.292C138.397 192.862 138.493 192.809 138.559 192.726C138.625 192.644 138.655 192.538 138.644 192.433C138.583 191.901 138.569 191.364 138.604 190.829C138.607 190.776 138.6 190.723 138.583 190.673C138.566 190.624 138.539 190.578 138.504 190.538C138.469 190.499 138.427 190.466 138.379 190.443C138.332 190.42 138.28 190.407 138.228 190.404C138.122 190.399 138.019 190.436 137.939 190.506C137.86 190.577 137.811 190.675 137.803 190.781C137.764 191.361 137.778 191.943 137.843 192.521C137.857 192.618 137.904 192.707 137.978 192.772C138.051 192.837 138.146 192.873 138.244 192.874Z" fill="#242638"/>
<path d="M134.438 191.166C134.545 191.166 134.647 191.123 134.722 191.048C134.797 190.973 134.839 190.871 134.839 190.765V189.762C134.839 189.656 134.797 189.554 134.722 189.479C134.647 189.403 134.545 189.361 134.438 189.361C134.332 189.361 134.23 189.403 134.155 189.479C134.08 189.554 134.038 189.656 134.038 189.762V190.765C134.038 190.871 134.08 190.973 134.155 191.048C134.23 191.123 134.332 191.166 134.438 191.166Z" fill="#242638"/>
<path d="M143.379 193.885C143.373 193.778 143.326 193.678 143.247 193.607C143.168 193.535 143.064 193.498 142.958 193.504C142.852 193.509 142.752 193.556 142.681 193.635C142.609 193.714 142.572 193.818 142.578 193.925L142.658 195.465C142.664 195.567 142.709 195.663 142.783 195.733C142.858 195.803 142.956 195.842 143.058 195.842C143.111 195.84 143.162 195.827 143.209 195.805C143.257 195.783 143.299 195.751 143.334 195.712C143.369 195.674 143.396 195.628 143.414 195.579C143.431 195.529 143.438 195.477 143.435 195.424L143.379 193.885Z" fill="#242638"/>
<path d="M140.647 196.764C140.624 196.207 140.646 195.649 140.711 195.096C140.719 195.043 140.716 194.99 140.703 194.939C140.69 194.888 140.666 194.84 140.634 194.798C140.602 194.756 140.562 194.721 140.516 194.695C140.47 194.669 140.419 194.652 140.367 194.647C140.261 194.633 140.155 194.661 140.071 194.726C139.987 194.791 139.932 194.886 139.918 194.991C139.845 195.593 139.823 196.199 139.854 196.804C139.858 196.905 139.901 197.001 139.974 197.072C140.048 197.142 140.145 197.181 140.246 197.181C140.301 197.182 140.355 197.172 140.405 197.151C140.455 197.131 140.501 197.1 140.538 197.06C140.576 197.021 140.605 196.975 140.624 196.924C140.642 196.873 140.65 196.818 140.647 196.764Z" fill="#242638"/>
<path d="M136.97 195.136C136.982 195.084 136.983 195.031 136.974 194.978C136.965 194.926 136.946 194.876 136.918 194.832C136.89 194.787 136.853 194.748 136.809 194.718C136.766 194.687 136.717 194.666 136.665 194.655C136.614 194.641 136.561 194.639 136.509 194.647C136.457 194.655 136.407 194.673 136.362 194.701C136.317 194.728 136.279 194.765 136.248 194.808C136.218 194.851 136.196 194.9 136.185 194.951C136.055 195.512 136.082 196.098 136.265 196.644C136.291 196.723 136.341 196.793 136.409 196.842C136.476 196.891 136.558 196.917 136.641 196.916C136.684 196.925 136.727 196.925 136.77 196.916C136.871 196.883 136.954 196.811 137.002 196.717C137.05 196.622 137.059 196.512 137.026 196.411C136.887 196 136.868 195.558 136.97 195.136Z" fill="#242638"/>
<path d="M133.101 197.686H133.221C133.271 197.671 133.318 197.645 133.359 197.611C133.399 197.577 133.432 197.535 133.456 197.488C133.48 197.441 133.494 197.39 133.498 197.337C133.502 197.284 133.494 197.231 133.477 197.181C133.357 196.813 133.301 196.428 133.309 196.042C133.31 195.989 133.301 195.937 133.281 195.888C133.262 195.839 133.234 195.794 133.197 195.756C133.161 195.718 133.117 195.688 133.069 195.667C133.021 195.645 132.969 195.634 132.916 195.633C132.864 195.631 132.812 195.639 132.763 195.657C132.714 195.676 132.669 195.704 132.631 195.74C132.593 195.775 132.563 195.818 132.541 195.866C132.52 195.914 132.509 195.966 132.508 196.018C132.492 196.497 132.563 196.975 132.716 197.43C132.746 197.507 132.799 197.573 132.868 197.619C132.936 197.665 133.018 197.688 133.101 197.686Z" fill="#242638"/>
<path d="M128.767 197.919H128.855C128.906 197.907 128.955 197.886 128.999 197.856C129.042 197.825 129.079 197.786 129.107 197.742C129.135 197.697 129.155 197.647 129.163 197.595C129.172 197.543 129.171 197.489 129.159 197.438C129.033 196.886 128.989 196.318 129.031 195.753C129.042 195.695 129.039 195.635 129.024 195.578C129.009 195.52 128.981 195.467 128.942 195.422C128.904 195.377 128.856 195.34 128.802 195.316C128.748 195.291 128.69 195.279 128.63 195.28C128.525 195.273 128.42 195.308 128.339 195.377C128.259 195.446 128.208 195.543 128.198 195.649C128.149 196.294 128.198 196.943 128.342 197.574C128.356 197.675 128.407 197.766 128.486 197.83C128.565 197.894 128.665 197.926 128.767 197.919Z" fill="#242638"/>
<path d="M124.953 198.384H125.009C125.105 198.385 125.199 198.352 125.272 198.29C125.346 198.228 125.395 198.142 125.41 198.047C125.505 197.431 125.556 196.81 125.562 196.186C125.563 196.133 125.554 196.08 125.534 196.031C125.514 195.981 125.485 195.936 125.448 195.898C125.41 195.86 125.366 195.829 125.317 195.809C125.268 195.788 125.215 195.777 125.162 195.777C125.055 195.777 124.953 195.82 124.878 195.895C124.803 195.97 124.761 196.072 124.761 196.178C124.753 196.761 124.705 197.343 124.617 197.919C124.601 198.025 124.627 198.133 124.69 198.22C124.753 198.308 124.847 198.366 124.953 198.384Z" fill="#242638"/>
<path d="M120.002 200.156L120.139 198.352C120.143 198.299 120.137 198.246 120.12 198.196C120.104 198.146 120.078 198.099 120.044 198.059C120.01 198.019 119.968 197.986 119.921 197.962C119.874 197.938 119.823 197.923 119.77 197.919C119.717 197.915 119.665 197.921 119.614 197.937C119.564 197.953 119.518 197.979 119.477 198.014C119.437 198.048 119.404 198.09 119.38 198.137C119.356 198.184 119.342 198.235 119.337 198.288L119.209 200.092C119.205 200.145 119.211 200.198 119.227 200.248C119.243 200.299 119.269 200.345 119.304 200.386C119.338 200.426 119.38 200.459 119.427 200.483C119.474 200.507 119.525 200.521 119.578 200.525C119.63 200.53 119.683 200.524 119.732 200.507C119.782 200.491 119.828 200.465 119.868 200.431C119.907 200.396 119.94 200.354 119.963 200.307C119.986 200.26 119.999 200.209 120.002 200.156Z" fill="#242638"/>
<path d="M116.534 203.373C116.529 203.426 116.536 203.48 116.552 203.53C116.569 203.581 116.596 203.628 116.631 203.669C116.666 203.709 116.709 203.742 116.757 203.765C116.805 203.789 116.857 203.803 116.91 203.806C117.012 203.804 117.109 203.764 117.183 203.695C117.257 203.625 117.303 203.53 117.311 203.429L117.439 201.424C117.443 201.371 117.437 201.319 117.421 201.269C117.405 201.219 117.378 201.173 117.344 201.133C117.31 201.094 117.268 201.061 117.221 201.038C117.174 201.015 117.123 201.002 117.07 200.999C117.017 200.991 116.963 200.994 116.911 201.009C116.859 201.024 116.811 201.049 116.77 201.084C116.729 201.119 116.696 201.163 116.673 201.212C116.65 201.26 116.638 201.314 116.638 201.368L116.534 203.373Z" fill="#242638"/>
<path d="M113.77 201.127C113.822 201.124 113.873 201.11 113.92 201.087C113.967 201.064 114.009 201.032 114.044 200.992C114.078 200.953 114.104 200.906 114.12 200.857C114.136 200.807 114.143 200.754 114.138 200.702C114.105 200.14 114.179 199.576 114.355 199.042C114.372 198.991 114.379 198.938 114.376 198.884C114.372 198.831 114.358 198.779 114.334 198.731C114.31 198.683 114.277 198.641 114.237 198.606C114.196 198.571 114.149 198.545 114.098 198.528C113.997 198.498 113.888 198.507 113.794 198.555C113.7 198.603 113.628 198.685 113.593 198.785C113.383 199.417 113.299 200.085 113.345 200.75C113.349 200.851 113.392 200.947 113.466 201.018C113.539 201.088 113.636 201.127 113.738 201.127H113.77Z" fill="#242638"/>
<path d="M110.445 201.696V199.627C110.443 199.521 110.4 199.421 110.326 199.346C110.251 199.271 110.15 199.228 110.045 199.226C109.992 199.227 109.94 199.239 109.892 199.26C109.844 199.281 109.8 199.311 109.764 199.349C109.727 199.387 109.699 199.432 109.679 199.481C109.66 199.53 109.651 199.582 109.652 199.635V201.704C109.652 201.811 109.694 201.913 109.769 201.988C109.844 202.063 109.946 202.105 110.053 202.105C110.105 202.104 110.157 202.093 110.205 202.072C110.253 202.051 110.297 202.02 110.333 201.982C110.37 201.944 110.399 201.9 110.418 201.85C110.437 201.801 110.446 201.749 110.445 201.696Z" fill="#242638"/>
<path d="M104.733 199.86C104.681 199.858 104.628 199.866 104.579 199.884C104.529 199.902 104.484 199.93 104.445 199.966C104.406 200.002 104.375 200.045 104.353 200.092C104.331 200.14 104.319 200.192 104.317 200.245C104.299 200.986 104.213 201.725 104.06 202.45C104.049 202.501 104.047 202.554 104.056 202.606C104.065 202.658 104.084 202.707 104.113 202.751C104.141 202.795 104.178 202.833 104.221 202.863C104.265 202.892 104.313 202.913 104.365 202.923H104.453C104.545 202.924 104.635 202.892 104.706 202.833C104.778 202.775 104.827 202.693 104.845 202.603C105.004 201.831 105.095 201.048 105.118 200.261C105.118 200.157 105.078 200.057 105.006 199.983C104.934 199.908 104.837 199.864 104.733 199.86Z" fill="#242638"/>
<path d="M100.175 200.574L100.111 201.913C100.108 201.965 100.115 202.018 100.132 202.067C100.149 202.116 100.176 202.162 100.211 202.201C100.246 202.24 100.289 202.271 100.336 202.293C100.384 202.315 100.435 202.328 100.487 202.33C100.589 202.33 100.688 202.291 100.762 202.221C100.837 202.151 100.882 202.055 100.888 201.953L100.952 200.614C100.955 200.561 100.948 200.509 100.931 200.46C100.913 200.41 100.886 200.365 100.851 200.326C100.816 200.287 100.774 200.255 100.726 200.233C100.679 200.211 100.628 200.199 100.575 200.197C100.524 200.193 100.472 200.201 100.424 200.218C100.375 200.236 100.331 200.263 100.294 200.298C100.256 200.333 100.226 200.376 100.206 200.424C100.185 200.471 100.175 200.522 100.175 200.574Z" fill="#242638"/>
<path d="M96.5859 202.105C96.5815 202.158 96.5877 202.21 96.6039 202.26C96.6202 202.31 96.6463 202.356 96.6806 202.396C96.715 202.435 96.7569 202.468 96.8039 202.491C96.8509 202.514 96.9021 202.527 96.9544 202.531C97.0545 202.531 97.1509 202.493 97.2238 202.424C97.2968 202.355 97.3408 202.262 97.3469 202.162C97.3951 201.478 97.3547 200.79 97.2268 200.116C97.2066 200.01 97.145 199.916 97.0557 199.855C96.9663 199.794 96.8564 199.771 96.7501 199.792C96.6439 199.812 96.55 199.873 96.4892 199.963C96.4283 200.052 96.4055 200.162 96.4257 200.269C96.5553 200.872 96.6091 201.489 96.5859 202.105Z" fill="#242638"/>
<path d="M94.0864 202.675C94.1472 202.673 94.207 202.659 94.2627 202.635C94.3569 202.587 94.4288 202.504 94.4632 202.403C94.4976 202.303 94.4917 202.193 94.4469 202.097C94.3501 201.907 94.2925 201.698 94.2773 201.485C94.2622 201.271 94.2899 201.057 94.3588 200.854C94.3917 200.748 94.3811 200.633 94.3293 200.534C94.2774 200.436 94.1887 200.362 94.0824 200.329C93.9762 200.296 93.8612 200.307 93.7628 200.358C93.6644 200.41 93.5906 200.499 93.5577 200.606C93.3653 201.215 93.414 201.876 93.6939 202.45C93.7282 202.524 93.7843 202.585 93.8546 202.625C93.9249 202.665 94.0059 202.683 94.0864 202.675Z" fill="#242638"/>
<path d="M96.3696 204.816C96.3184 204.805 96.2655 204.804 96.2139 204.813C96.1624 204.823 96.1133 204.843 96.0698 204.872C96.0263 204.902 95.9892 204.939 95.9608 204.984C95.9325 205.028 95.9135 205.077 95.9049 205.129C95.8114 205.612 95.6883 206.089 95.5364 206.557C95.519 206.607 95.5119 206.66 95.5155 206.712C95.519 206.765 95.5332 206.817 95.5571 206.864C95.5811 206.911 95.6143 206.953 95.6548 206.987C95.6953 207.021 95.7422 207.047 95.7928 207.062H95.913C95.9976 207.063 96.0804 207.037 96.1495 206.988C96.2186 206.939 96.2704 206.87 96.2975 206.789C96.4612 206.288 96.5923 205.776 96.69 205.257C96.702 205.157 96.6757 205.056 96.6163 204.974C96.5568 204.892 96.4687 204.836 96.3696 204.816Z" fill="#242638"/>
<path d="M101.16 206.428C101.149 206.376 101.127 206.327 101.095 206.284C101.064 206.241 101.023 206.205 100.976 206.18V204.905C100.976 204.8 100.935 204.699 100.862 204.624C100.788 204.549 100.688 204.506 100.583 204.503C100.477 204.503 100.375 204.546 100.3 204.621C100.225 204.696 100.183 204.798 100.183 204.905V206.26C100.182 206.371 100.205 206.482 100.249 206.584C100.293 206.686 100.358 206.778 100.439 206.853C100.528 206.923 100.639 206.96 100.752 206.958C100.794 206.966 100.837 206.966 100.88 206.958C100.935 206.945 100.988 206.921 101.033 206.887C101.078 206.852 101.116 206.808 101.142 206.758C101.169 206.708 101.184 206.652 101.188 206.595C101.191 206.538 101.181 206.481 101.16 206.428Z" fill="#242638"/>
<path d="M103.716 206.95C103.822 206.95 103.924 206.907 103.999 206.832C104.074 206.757 104.116 206.655 104.116 206.549V205.209C104.116 205.103 104.074 205.001 103.999 204.926C103.924 204.851 103.822 204.808 103.716 204.808C103.61 204.808 103.508 204.851 103.433 204.926C103.357 205.001 103.315 205.103 103.315 205.209V206.549C103.315 206.655 103.357 206.757 103.433 206.832C103.508 206.907 103.61 206.95 103.716 206.95Z" fill="#242638"/>
<path d="M108.603 204.536C108.621 204.429 108.596 204.32 108.533 204.232C108.471 204.144 108.376 204.084 108.27 204.066C108.164 204.048 108.055 204.073 107.967 204.136C107.879 204.198 107.82 204.293 107.801 204.399C107.701 204.956 107.701 205.527 107.801 206.083C107.82 206.175 107.869 206.257 107.94 206.317C108.011 206.377 108.101 206.41 108.194 206.412H108.274C108.378 206.393 108.47 206.333 108.53 206.246C108.59 206.159 108.613 206.051 108.595 205.947C108.512 205.48 108.515 205.002 108.603 204.536Z" fill="#242638"/>
<path d="M112.664 204.544C112.675 204.492 112.674 204.439 112.664 204.387C112.653 204.335 112.632 204.286 112.603 204.243C112.573 204.2 112.534 204.163 112.49 204.134C112.445 204.106 112.396 204.087 112.344 204.078C112.24 204.06 112.132 204.083 112.045 204.143C111.958 204.203 111.899 204.295 111.879 204.399C111.776 204.977 111.878 205.573 112.167 206.083C112.204 206.145 112.255 206.195 112.317 206.231C112.379 206.266 112.449 206.284 112.52 206.284C112.59 206.283 112.658 206.267 112.72 206.236C112.812 206.181 112.878 206.092 112.905 205.989C112.932 205.885 112.917 205.775 112.864 205.682C112.664 205.339 112.592 204.935 112.664 204.544Z" fill="#242638"/>
<path d="M120.283 202.498C120.233 203.164 120.277 203.834 120.411 204.487C120.426 204.578 120.473 204.66 120.544 204.719C120.614 204.778 120.704 204.81 120.795 204.808H120.884C120.935 204.798 120.984 204.777 121.028 204.748C121.071 204.718 121.109 204.68 121.138 204.636C121.167 204.593 121.187 204.543 121.197 204.492C121.207 204.44 121.207 204.387 121.196 204.335C121.075 203.755 121.037 203.161 121.084 202.571C121.088 202.518 121.082 202.465 121.066 202.415C121.049 202.364 121.023 202.318 120.989 202.278C120.955 202.237 120.913 202.204 120.866 202.18C120.819 202.156 120.768 202.142 120.715 202.137C120.663 202.133 120.61 202.139 120.56 202.156C120.509 202.172 120.463 202.198 120.423 202.232C120.383 202.267 120.35 202.308 120.326 202.355C120.301 202.402 120.287 202.454 120.283 202.506V202.498Z" fill="#242638"/>
<path d="M124.24 202.266C124.124 201.914 124.124 201.535 124.24 201.183C124.263 201.131 124.274 201.075 124.274 201.019C124.273 200.962 124.261 200.906 124.237 200.855C124.214 200.803 124.179 200.758 124.137 200.72C124.094 200.683 124.044 200.655 123.99 200.639C123.936 200.622 123.879 200.617 123.823 200.625C123.767 200.632 123.713 200.65 123.665 200.68C123.617 200.709 123.575 200.749 123.543 200.795C123.511 200.842 123.489 200.895 123.479 200.951C123.318 201.475 123.332 202.038 123.519 202.555C123.548 202.631 123.6 202.698 123.667 202.745C123.734 202.792 123.814 202.818 123.896 202.819C123.941 202.828 123.987 202.828 124.032 202.819C124.082 202.797 124.127 202.765 124.165 202.724C124.202 202.684 124.232 202.637 124.251 202.586C124.27 202.534 124.279 202.48 124.278 202.425C124.276 202.37 124.263 202.316 124.24 202.266Z" fill="#242638"/>
<path d="M127.565 200.477C127.568 200.425 127.561 200.373 127.544 200.323C127.526 200.274 127.499 200.228 127.464 200.189C127.429 200.151 127.387 200.119 127.339 200.097C127.292 200.075 127.241 200.062 127.188 200.06C127.084 200.058 126.983 200.096 126.905 200.166C126.828 200.236 126.78 200.333 126.772 200.437C126.731 201.236 126.837 202.035 127.084 202.795C127.108 202.876 127.158 202.948 127.226 202.998C127.294 203.049 127.376 203.076 127.461 203.076H127.589C127.69 203.043 127.773 202.971 127.821 202.876C127.87 202.782 127.878 202.672 127.845 202.571C127.627 201.895 127.532 201.186 127.565 200.477Z" fill="#242638"/>
<path d="M130.737 200.718C130.7 200.619 130.625 200.54 130.529 200.496C130.433 200.453 130.323 200.449 130.225 200.485C130.175 200.504 130.129 200.532 130.091 200.569C130.052 200.605 130.021 200.649 130 200.697C129.978 200.746 129.966 200.798 129.965 200.851C129.964 200.904 129.973 200.957 129.992 201.007C130.296 201.791 130.692 202.536 131.17 203.228C131.206 203.282 131.255 203.326 131.312 203.357C131.37 203.388 131.433 203.404 131.498 203.405C131.581 203.404 131.662 203.379 131.731 203.333C131.816 203.27 131.874 203.176 131.892 203.071C131.91 202.967 131.887 202.859 131.827 202.771C131.386 202.131 131.02 201.442 130.737 200.718Z" fill="#242638"/>
<path d="M134.687 201.865C134.792 201.853 134.889 201.8 134.956 201.717C135.024 201.635 135.056 201.53 135.047 201.424L134.975 200.622C134.965 200.516 134.914 200.418 134.833 200.35C134.753 200.281 134.648 200.246 134.543 200.253C134.49 200.257 134.439 200.271 134.392 200.295C134.346 200.319 134.304 200.353 134.271 200.393C134.237 200.433 134.212 200.48 134.197 200.53C134.182 200.581 134.177 200.634 134.182 200.686L134.246 201.488C134.256 201.588 134.302 201.681 134.376 201.749C134.45 201.817 134.546 201.855 134.647 201.857L134.687 201.865Z" fill="#242638"/>
<path d="M137.939 202.595C137.992 202.591 138.043 202.576 138.089 202.552C138.136 202.528 138.177 202.495 138.211 202.454C138.245 202.414 138.27 202.367 138.285 202.317C138.3 202.267 138.305 202.214 138.3 202.162C138.226 201.474 138.207 200.782 138.244 200.092C138.248 199.987 138.211 199.885 138.141 199.807C138.07 199.729 137.972 199.681 137.867 199.675C137.814 199.67 137.76 199.675 137.71 199.692C137.659 199.708 137.612 199.735 137.572 199.77C137.532 199.806 137.5 199.849 137.478 199.898C137.455 199.946 137.443 199.999 137.443 200.052C137.401 200.788 137.42 201.525 137.499 202.258C137.508 202.356 137.554 202.447 137.626 202.513C137.699 202.58 137.793 202.617 137.891 202.619L137.939 202.595Z" fill="#242638"/>
<path d="M141.873 199.194C141.768 199.206 141.672 199.259 141.606 199.342C141.54 199.425 141.509 199.53 141.52 199.635C141.582 200.168 141.582 200.706 141.52 201.239C141.509 201.344 141.54 201.45 141.606 201.532C141.672 201.615 141.768 201.668 141.873 201.68H141.921C142.02 201.681 142.115 201.644 142.188 201.577C142.26 201.51 142.305 201.418 142.313 201.319C142.381 200.736 142.381 200.146 142.313 199.563C142.31 199.509 142.296 199.456 142.272 199.408C142.248 199.36 142.214 199.317 142.173 199.283C142.132 199.248 142.084 199.222 142.032 199.207C141.98 199.192 141.926 199.187 141.873 199.194Z" fill="#242638"/>
<path d="M94.503 208.065C94.5093 208.012 94.5052 207.958 94.4909 207.907C94.4766 207.856 94.4524 207.809 94.4197 207.767C94.3869 207.725 94.3463 207.69 94.3001 207.664C94.254 207.638 94.2031 207.622 94.1505 207.615C94.0979 207.609 94.0446 207.613 93.9936 207.628C93.9425 207.642 93.8949 207.666 93.8532 207.699C93.8115 207.732 93.7767 207.772 93.7508 207.818C93.7248 207.865 93.7082 207.916 93.7019 207.968C93.6334 208.535 93.6742 209.109 93.8221 209.661C93.8436 209.746 93.8933 209.822 93.963 209.876C94.0327 209.929 94.1185 209.958 94.2066 209.957C94.2408 209.966 94.2765 209.966 94.3107 209.957C94.3618 209.944 94.4098 209.921 94.4519 209.889C94.4941 209.858 94.5296 209.818 94.5564 209.773C94.5832 209.727 94.6007 209.677 94.6081 209.625C94.6154 209.572 94.6124 209.519 94.5991 209.468C94.4733 209.011 94.4406 208.534 94.503 208.065Z" fill="#242638"/>
<path d="M97.7235 211.962C97.7761 211.96 97.8278 211.948 97.8756 211.926C97.9234 211.904 97.9664 211.872 98.0021 211.834C98.0378 211.795 98.0656 211.75 98.0837 211.7C98.1019 211.651 98.1102 211.598 98.108 211.545C98.0773 210.828 98.0987 210.11 98.1721 209.396C98.1811 209.29 98.1485 209.184 98.0812 209.102C98.0139 209.02 97.9172 208.967 97.8116 208.955C97.7061 208.948 97.6019 208.981 97.5201 209.048C97.4383 209.115 97.385 209.211 97.371 209.316C97.2976 210.067 97.2762 210.823 97.3069 211.577C97.311 211.681 97.3551 211.779 97.4297 211.851C97.5044 211.922 97.6039 211.962 97.7074 211.962H97.7235Z" fill="#242638"/>
<path d="M101.961 209.957C101.909 209.952 101.855 209.957 101.805 209.972C101.754 209.987 101.707 210.012 101.666 210.046C101.625 210.079 101.591 210.121 101.566 210.167C101.541 210.214 101.526 210.265 101.521 210.318L101.385 211.585C101.376 211.691 101.408 211.797 101.475 211.879C101.543 211.962 101.639 212.014 101.745 212.027H101.785C101.885 212.027 101.981 211.99 102.055 211.924C102.129 211.857 102.176 211.765 102.186 211.666L102.314 210.398C102.325 210.293 102.294 210.188 102.228 210.105C102.162 210.023 102.066 209.969 101.961 209.957Z" fill="#242638"/>
<path d="M107.056 210.286C107.114 210.302 107.175 210.302 107.233 210.286C107.327 210.238 107.399 210.155 107.433 210.055C107.468 209.954 107.462 209.845 107.417 209.749C107.235 209.388 107.11 209.001 107.048 208.602C107.034 208.497 106.979 208.401 106.895 208.337C106.811 208.272 106.705 208.243 106.6 208.257C106.494 208.273 106.399 208.33 106.334 208.415C106.27 208.501 106.242 208.608 106.255 208.714C106.329 209.199 106.478 209.67 106.696 210.11C106.736 210.168 106.79 210.214 106.853 210.245C106.916 210.276 106.986 210.29 107.056 210.286Z" fill="#242638"/>
<path d="M111.887 210.791C111.71 210.405 111.654 209.975 111.727 209.556C111.746 209.452 111.722 209.345 111.662 209.258C111.602 209.17 111.51 209.111 111.406 209.091C111.301 209.075 111.194 209.1 111.108 209.161C111.021 209.223 110.961 209.315 110.942 209.42C110.836 209.998 110.912 210.595 111.158 211.128C111.191 211.197 111.242 211.255 111.305 211.296C111.369 211.337 111.443 211.359 111.519 211.361C111.574 211.373 111.631 211.373 111.687 211.361C111.739 211.339 111.786 211.306 111.825 211.264C111.864 211.223 111.893 211.174 111.912 211.12C111.931 211.067 111.939 211.01 111.934 210.953C111.93 210.897 111.914 210.841 111.887 210.791Z" fill="#242638"/>
<path d="M114.659 210.23C114.607 210.24 114.557 210.259 114.513 210.289C114.469 210.318 114.431 210.356 114.402 210.4C114.373 210.444 114.353 210.494 114.343 210.546C114.334 210.598 114.335 210.652 114.347 210.703L114.475 211.369C114.493 211.459 114.542 211.541 114.614 211.599C114.685 211.658 114.775 211.69 114.867 211.69H114.947C114.999 211.681 115.049 211.662 115.093 211.634C115.137 211.605 115.175 211.568 115.204 211.525C115.233 211.481 115.253 211.432 115.263 211.38C115.272 211.329 115.271 211.276 115.26 211.225L115.132 210.551C115.122 210.498 115.102 210.449 115.073 210.404C115.044 210.359 115.006 210.321 114.962 210.291C114.918 210.261 114.869 210.241 114.817 210.23C114.765 210.22 114.711 210.22 114.659 210.23Z" fill="#242638"/>
<path d="M118.08 206.22C118.081 206.167 118.071 206.115 118.052 206.066C118.033 206.017 118.005 205.972 117.968 205.934C117.932 205.896 117.888 205.866 117.84 205.844C117.792 205.823 117.74 205.812 117.687 205.811C117.635 205.81 117.583 205.819 117.534 205.838C117.486 205.858 117.442 205.886 117.404 205.923C117.367 205.96 117.337 206.003 117.317 206.052C117.297 206.1 117.287 206.152 117.287 206.204C117.275 206.577 117.318 206.95 117.415 207.311C117.438 207.395 117.488 207.469 117.558 207.521C117.627 207.573 117.712 207.601 117.799 207.599H117.911C118.013 207.57 118.099 207.5 118.151 207.407C118.202 207.314 118.214 207.204 118.184 207.102C118.105 206.815 118.07 206.517 118.08 206.22Z" fill="#242638"/>
<path d="M123.023 207.599C122.927 207.162 122.91 206.711 122.974 206.268C122.982 206.215 122.98 206.161 122.967 206.11C122.953 206.058 122.93 206.01 122.898 205.967C122.866 205.924 122.826 205.889 122.78 205.862C122.734 205.835 122.683 205.818 122.63 205.811C122.525 205.799 122.42 205.829 122.336 205.893C122.253 205.957 122.197 206.051 122.181 206.156C122.109 206.69 122.128 207.232 122.237 207.76C122.257 207.85 122.307 207.93 122.378 207.988C122.449 208.047 122.538 208.079 122.63 208.081H122.71C122.763 208.071 122.813 208.051 122.858 208.021C122.903 207.992 122.941 207.953 122.971 207.908C123 207.863 123.02 207.812 123.029 207.759C123.037 207.706 123.035 207.652 123.023 207.599Z" fill="#242638"/>
<path d="M128.831 207.214V205.41C128.831 205.303 128.788 205.201 128.713 205.126C128.638 205.051 128.536 205.009 128.43 205.009C128.324 205.009 128.222 205.051 128.147 205.126C128.072 205.201 128.03 205.303 128.03 205.41V207.214C128.03 207.321 128.072 207.423 128.147 207.498C128.222 207.573 128.324 207.615 128.43 207.615C128.536 207.613 128.636 207.57 128.711 207.496C128.786 207.421 128.829 207.32 128.831 207.214Z" fill="#242638"/>
<path d="M133.325 207.311C133.045 206.634 132.948 205.895 133.044 205.169C133.058 205.064 133.03 204.958 132.965 204.873C132.9 204.789 132.805 204.734 132.7 204.72C132.648 204.71 132.595 204.71 132.543 204.722C132.491 204.734 132.443 204.756 132.401 204.788C132.358 204.82 132.323 204.86 132.297 204.907C132.272 204.953 132.256 205.004 132.251 205.057C132.13 205.924 132.244 206.807 132.58 207.615C132.611 207.689 132.664 207.752 132.731 207.796C132.798 207.841 132.876 207.864 132.956 207.864C133.006 207.875 133.058 207.875 133.109 207.864C133.16 207.843 133.207 207.812 133.246 207.772C133.285 207.733 133.315 207.686 133.336 207.634C133.356 207.582 133.365 207.527 133.364 207.471C133.362 207.416 133.349 207.361 133.325 207.311Z" fill="#242638"/>
<path d="M136.401 205.875C136.348 205.881 136.297 205.897 136.251 205.923C136.205 205.949 136.164 205.984 136.131 206.026C136.098 206.067 136.074 206.115 136.06 206.167C136.046 206.218 136.042 206.271 136.049 206.324L136.113 206.926C136.124 207.022 136.171 207.111 136.243 207.176C136.315 207.241 136.408 207.277 136.505 207.279H136.553C136.658 207.266 136.754 207.213 136.82 207.131C136.886 207.048 136.917 206.943 136.906 206.837L136.842 206.236C136.837 206.183 136.821 206.132 136.796 206.085C136.772 206.038 136.738 205.997 136.697 205.963C136.656 205.93 136.608 205.905 136.558 205.89C136.507 205.874 136.454 205.869 136.401 205.875Z" fill="#242638"/>
<path d="M141.176 204.415C141.072 204.435 140.98 204.495 140.92 204.582C140.86 204.669 140.837 204.776 140.855 204.88C140.948 205.411 140.948 205.954 140.855 206.485C140.845 206.537 140.845 206.591 140.856 206.643C140.868 206.695 140.889 206.744 140.92 206.788C140.951 206.831 140.99 206.868 141.035 206.896C141.081 206.924 141.131 206.942 141.184 206.95H141.248C141.343 206.951 141.435 206.917 141.507 206.855C141.58 206.793 141.627 206.707 141.64 206.613C141.749 205.992 141.749 205.357 141.64 204.736C141.621 204.632 141.561 204.54 141.474 204.48C141.387 204.42 141.28 204.397 141.176 204.415Z" fill="#242638"/>
<path d="M140.999 209.356C140.894 209.368 140.799 209.421 140.732 209.504C140.666 209.586 140.636 209.692 140.647 209.797C140.712 210.372 140.654 210.954 140.479 211.505C140.446 211.606 140.454 211.716 140.503 211.811C140.551 211.906 140.634 211.977 140.735 212.01C140.775 212.018 140.816 212.018 140.855 212.01C140.94 212.012 141.023 211.986 141.092 211.937C141.161 211.888 141.213 211.818 141.24 211.738C141.449 211.086 141.52 210.398 141.448 209.717C141.443 209.663 141.428 209.611 141.402 209.564C141.377 209.516 141.342 209.475 141.3 209.441C141.258 209.407 141.21 209.383 141.158 209.368C141.107 209.353 141.053 209.349 140.999 209.356Z" fill="#242638"/>
<path d="M138.244 212.123C138.296 212.117 138.347 212.1 138.394 212.075C138.44 212.049 138.481 212.014 138.514 211.972C138.547 211.93 138.571 211.882 138.585 211.831C138.599 211.78 138.603 211.726 138.596 211.674L138.46 210.607C138.454 210.554 138.438 210.503 138.412 210.457C138.386 210.41 138.351 210.369 138.309 210.337C138.268 210.304 138.22 210.28 138.169 210.265C138.117 210.251 138.064 210.247 138.011 210.254C137.906 210.268 137.811 210.323 137.746 210.407C137.682 210.492 137.653 210.598 137.667 210.703L137.795 211.778C137.81 211.874 137.859 211.961 137.932 212.024C138.006 212.087 138.099 212.122 138.196 212.123H138.244Z" fill="#242638"/>
<path d="M134.038 209.628C133.986 209.619 133.932 209.62 133.881 209.632C133.829 209.644 133.78 209.665 133.737 209.696C133.694 209.727 133.657 209.765 133.629 209.81C133.601 209.855 133.582 209.905 133.573 209.957C133.461 210.621 133.461 211.299 133.573 211.962C133.588 212.056 133.636 212.141 133.708 212.203C133.78 212.264 133.871 212.299 133.966 212.299H134.03C134.136 212.281 134.23 212.223 134.293 212.136C134.356 212.049 134.382 211.94 134.366 211.834C134.27 211.258 134.27 210.67 134.366 210.094C134.377 210.041 134.376 209.988 134.365 209.935C134.354 209.883 134.332 209.834 134.302 209.791C134.271 209.747 134.232 209.71 134.186 209.682C134.141 209.654 134.09 209.636 134.038 209.628Z" fill="#242638"/>
<path d="M129.167 210.086V211.762C129.167 211.868 129.209 211.97 129.284 212.045C129.36 212.121 129.461 212.163 129.568 212.163C129.673 212.161 129.774 212.118 129.849 212.043C129.923 211.968 129.966 211.868 129.968 211.762V210.086C129.966 209.98 129.923 209.879 129.849 209.804C129.774 209.73 129.673 209.687 129.568 209.685C129.461 209.685 129.36 209.727 129.284 209.802C129.209 209.877 129.167 209.979 129.167 210.086Z" fill="#242638"/>
<path d="M124.457 209.42C124.463 210.362 124.394 211.304 124.248 212.235C124.239 212.287 124.241 212.341 124.253 212.393C124.265 212.444 124.288 212.493 124.319 212.536C124.35 212.578 124.39 212.614 124.436 212.641C124.482 212.668 124.532 212.685 124.585 212.692H124.625C124.72 212.692 124.813 212.658 124.886 212.596C124.959 212.535 125.008 212.45 125.025 212.355C125.173 211.381 125.245 210.397 125.242 209.412C125.242 209.306 125.199 209.204 125.124 209.128C125.049 209.053 124.947 209.011 124.841 209.011C124.736 209.015 124.637 209.06 124.565 209.137C124.493 209.213 124.454 209.315 124.457 209.42Z" fill="#242638"/>
<path d="M120.932 211.698C120.827 211.684 120.72 211.713 120.636 211.777C120.552 211.842 120.497 211.937 120.483 212.043L120.283 213.51C120.275 213.563 120.278 213.616 120.291 213.667C120.304 213.718 120.327 213.766 120.36 213.808C120.392 213.85 120.432 213.885 120.478 213.911C120.524 213.937 120.575 213.954 120.627 213.959H120.683C120.779 213.958 120.871 213.923 120.943 213.86C121.015 213.797 121.062 213.71 121.076 213.615L121.276 212.139C121.288 212.035 121.258 211.931 121.194 211.848C121.129 211.766 121.035 211.712 120.932 211.698Z" fill="#242638"/>
<path d="M117.287 213.037C117.236 213.024 117.182 213.021 117.13 213.028C117.078 213.035 117.028 213.053 116.982 213.08C116.937 213.107 116.897 213.142 116.866 213.184C116.834 213.227 116.811 213.275 116.798 213.326C116.63 213.966 116.526 214.622 116.485 215.283C116.482 215.335 116.489 215.388 116.507 215.438C116.524 215.488 116.551 215.534 116.586 215.574C116.621 215.613 116.663 215.645 116.71 215.668C116.758 215.691 116.809 215.705 116.862 215.708C116.964 215.706 117.061 215.667 117.135 215.597C117.209 215.527 117.255 215.432 117.263 215.331C117.295 214.721 117.391 214.116 117.551 213.526C117.579 213.426 117.567 213.32 117.517 213.228C117.468 213.137 117.385 213.069 117.287 213.037Z" fill="#242638"/>
<path d="M112.151 213.566C112.047 213.564 111.945 213.603 111.869 213.675C111.792 213.747 111.747 213.846 111.743 213.951L111.671 215.756C111.669 215.809 111.677 215.861 111.695 215.911C111.713 215.96 111.741 216.006 111.777 216.044C111.812 216.083 111.855 216.114 111.903 216.136C111.951 216.159 112.003 216.171 112.055 216.173C112.159 216.173 112.258 216.133 112.333 216.061C112.408 215.99 112.452 215.892 112.456 215.788L112.528 213.983C112.532 213.878 112.495 213.776 112.425 213.698C112.355 213.62 112.256 213.573 112.151 213.566Z" fill="#242638"/>
<path d="M108.074 212.973C108.022 212.962 107.969 212.962 107.918 212.972C107.866 212.982 107.817 213.002 107.773 213.031C107.729 213.06 107.691 213.098 107.662 213.141C107.632 213.185 107.612 213.234 107.601 213.286C107.481 213.844 107.432 214.415 107.457 214.986C107.461 215.09 107.505 215.188 107.58 215.259C107.654 215.331 107.754 215.371 107.858 215.371C107.91 215.369 107.962 215.357 108.01 215.334C108.057 215.312 108.1 215.281 108.136 215.242C108.172 215.204 108.2 215.158 108.218 215.109C108.236 215.059 108.244 215.007 108.242 214.954C108.22 214.448 108.263 213.941 108.37 213.446C108.39 213.344 108.37 213.239 108.315 213.151C108.26 213.063 108.174 212.999 108.074 212.973Z" fill="#242638"/>
<path d="M103.796 216.237C103.882 216.238 103.965 216.211 104.034 216.16C104.104 216.11 104.155 216.038 104.18 215.956C104.389 215.298 104.515 214.617 104.557 213.927C104.563 213.821 104.527 213.716 104.457 213.637C104.386 213.557 104.287 213.509 104.18 213.502C104.074 213.496 103.97 213.532 103.89 213.603C103.811 213.673 103.762 213.773 103.756 213.879C103.719 214.503 103.606 215.12 103.419 215.716C103.403 215.765 103.397 215.818 103.401 215.869C103.405 215.921 103.42 215.972 103.444 216.018C103.468 216.064 103.5 216.106 103.54 216.139C103.58 216.172 103.626 216.198 103.676 216.213L103.796 216.237Z" fill="#242638"/>
<path d="M100.135 216.438C100.235 216.44 100.332 216.404 100.407 216.337C100.481 216.27 100.527 216.177 100.535 216.077L100.672 214.537C100.676 214.484 100.67 214.431 100.654 214.381C100.638 214.33 100.612 214.284 100.577 214.244C100.543 214.203 100.501 214.17 100.454 214.146C100.407 214.122 100.356 214.108 100.303 214.104C100.198 214.097 100.095 214.131 100.015 214.198C99.9342 214.265 99.8826 214.36 99.8705 214.465L99.7343 216.005C99.7298 216.06 99.7369 216.116 99.755 216.168C99.7732 216.22 99.802 216.268 99.8396 216.309C99.8773 216.35 99.9229 216.382 99.9737 216.404C100.025 216.427 100.079 216.438 100.135 216.438Z" fill="#242638"/>
<path d="M97.2268 215.154C97.2383 215.05 97.2089 214.944 97.1447 214.861C97.0805 214.777 96.9865 214.721 96.8823 214.705C96.7766 214.694 96.6704 214.723 96.5855 214.787C96.5006 214.851 96.4434 214.945 96.4257 215.05C96.3385 215.733 96.3931 216.427 96.5859 217.087C96.6089 217.171 96.6592 217.245 96.7288 217.298C96.7984 217.35 96.8834 217.377 96.9704 217.376C97.0074 217.383 97.0455 217.383 97.0826 217.376C97.1845 217.346 97.2705 217.277 97.3216 217.184C97.3727 217.091 97.3847 216.981 97.3549 216.879C97.19 216.32 97.1463 215.732 97.2268 215.154Z" fill="#242638"/>
<path d="M98.1881 219.341C98.1366 219.331 98.0834 219.33 98.0318 219.34C97.9801 219.35 97.9309 219.37 97.887 219.399C97.8432 219.428 97.8054 219.466 97.776 219.51C97.7465 219.553 97.726 219.602 97.7154 219.654C97.5713 220.368 97.5713 221.105 97.7154 221.819C97.7339 221.91 97.7831 221.991 97.8546 222.05C97.9261 222.108 98.0156 222.14 98.108 222.14H98.1881C98.2402 222.131 98.2898 222.111 98.3339 222.081C98.3781 222.052 98.4159 222.014 98.4451 221.97C98.4743 221.926 98.4942 221.876 98.5038 221.824C98.5133 221.772 98.5122 221.719 98.5005 221.667C98.3764 221.058 98.3764 220.431 98.5005 219.822C98.5123 219.77 98.5134 219.716 98.504 219.663C98.4945 219.611 98.4747 219.561 98.4456 219.516C98.4165 219.471 98.3787 219.432 98.3345 219.402C98.2903 219.372 98.2405 219.352 98.1881 219.341Z" fill="#242638"/>
<path d="M106.119 218.467C106.138 218.417 106.148 218.365 106.146 218.311C106.145 218.258 106.133 218.206 106.112 218.158C106.09 218.109 106.059 218.065 106.021 218.029C105.982 217.993 105.936 217.964 105.887 217.946C105.787 217.909 105.676 217.912 105.579 217.956C105.482 217.999 105.405 218.079 105.366 218.178C105.11 218.855 105.11 219.602 105.366 220.279C105.397 220.354 105.449 220.417 105.516 220.462C105.583 220.506 105.662 220.529 105.743 220.528C105.79 220.536 105.839 220.536 105.887 220.528C105.936 220.509 105.98 220.48 106.018 220.443C106.056 220.406 106.086 220.362 106.107 220.314C106.128 220.266 106.139 220.213 106.14 220.161C106.14 220.108 106.131 220.056 106.111 220.007C105.919 219.511 105.922 218.961 106.119 218.467Z" fill="#242638"/>
<path d="M110.918 218.355C110.945 218.251 110.931 218.142 110.879 218.049C110.826 217.956 110.74 217.887 110.637 217.857C110.534 217.832 110.426 217.847 110.334 217.899C110.241 217.951 110.172 218.037 110.141 218.138C110.058 218.455 110.042 218.785 110.095 219.109C110.147 219.432 110.267 219.74 110.445 220.015C110.479 220.071 110.528 220.118 110.585 220.15C110.643 220.182 110.708 220.199 110.774 220.199C110.855 220.201 110.935 220.182 111.006 220.143C111.094 220.083 111.155 219.99 111.176 219.885C111.197 219.78 111.176 219.671 111.118 219.582C111 219.403 110.921 219.201 110.886 218.99C110.852 218.778 110.863 218.562 110.918 218.355Z" fill="#242638"/>
<path d="M116.614 219.734C116.571 219.686 116.54 219.63 116.52 219.57C116.501 219.509 116.495 219.445 116.502 219.381C116.519 219.174 116.567 218.972 116.646 218.78C116.679 218.679 116.672 218.568 116.626 218.473C116.579 218.377 116.497 218.303 116.397 218.266C116.297 218.233 116.189 218.241 116.094 218.287C116 218.334 115.927 218.415 115.893 218.515C115.781 218.785 115.716 219.073 115.7 219.365C115.687 219.553 115.718 219.741 115.792 219.914C115.866 220.087 115.98 220.24 116.125 220.36C116.193 220.415 116.278 220.446 116.365 220.448C116.427 220.447 116.487 220.433 116.542 220.407C116.598 220.38 116.646 220.343 116.686 220.295C116.75 220.211 116.779 220.105 116.766 220C116.752 219.895 116.697 219.799 116.614 219.734Z" fill="#242638"/>
<path d="M120.707 216.935C120.656 216.923 120.602 216.922 120.55 216.931C120.498 216.94 120.448 216.959 120.404 216.987C120.359 217.015 120.32 217.052 120.29 217.096C120.26 217.139 120.238 217.188 120.227 217.24C120.081 217.879 120.052 218.539 120.139 219.189C120.152 219.285 120.2 219.373 120.274 219.437C120.348 219.5 120.442 219.534 120.539 219.534H120.619C120.672 219.527 120.723 219.509 120.769 219.483C120.815 219.456 120.855 219.42 120.887 219.377C120.919 219.335 120.943 219.286 120.956 219.235C120.969 219.183 120.972 219.129 120.964 219.076C120.89 218.523 120.917 217.96 121.044 217.416C121.055 217.362 121.056 217.307 121.045 217.253C121.034 217.199 121.012 217.147 120.98 217.102C120.949 217.057 120.908 217.019 120.861 216.99C120.814 216.961 120.762 216.943 120.707 216.935Z" fill="#242638"/>
<path d="M125.282 217.593C125.061 216.882 124.974 216.137 125.025 215.395C125.028 215.29 124.99 215.187 124.921 215.108C124.851 215.03 124.754 214.98 124.649 214.97C124.596 214.966 124.543 214.972 124.492 214.989C124.442 215.006 124.396 215.032 124.356 215.068C124.316 215.103 124.284 215.146 124.262 215.194C124.239 215.242 124.226 215.294 124.224 215.347C124.167 216.184 124.265 217.024 124.513 217.825C124.536 217.909 124.586 217.983 124.656 218.035C124.725 218.088 124.81 218.115 124.897 218.114H125.009C125.063 218.099 125.112 218.074 125.155 218.04C125.198 218.005 125.234 217.962 125.259 217.913C125.285 217.864 125.3 217.81 125.304 217.755C125.308 217.7 125.3 217.645 125.282 217.593Z" fill="#242638"/>
<path d="M129.952 216.317C129.801 215.836 129.76 215.326 129.832 214.826C129.839 214.773 129.836 214.719 129.823 214.668C129.81 214.616 129.786 214.568 129.754 214.526C129.722 214.483 129.682 214.447 129.637 214.42C129.591 214.393 129.54 214.376 129.488 214.368C129.435 214.361 129.381 214.364 129.33 214.378C129.279 214.391 129.23 214.414 129.188 214.446C129.145 214.478 129.11 214.518 129.083 214.564C129.056 214.61 129.038 214.661 129.031 214.713C128.941 215.332 128.993 215.963 129.183 216.558C129.207 216.639 129.257 216.71 129.325 216.761C129.393 216.811 129.475 216.839 129.56 216.839H129.688C129.74 216.823 129.789 216.797 129.831 216.762C129.873 216.727 129.908 216.684 129.933 216.635C129.957 216.586 129.972 216.533 129.975 216.478C129.979 216.424 129.971 216.369 129.952 216.317Z" fill="#242638"/>
<path d="M133.653 216.935C133.76 216.927 133.86 216.877 133.93 216.796C134.001 216.715 134.036 216.609 134.03 216.502L133.902 214.697C133.894 214.591 133.845 214.492 133.764 214.422C133.684 214.352 133.579 214.317 133.473 214.324C133.367 214.332 133.268 214.381 133.198 214.462C133.128 214.542 133.093 214.647 133.101 214.753L133.221 216.558C133.227 216.66 133.272 216.756 133.346 216.826C133.421 216.896 133.519 216.935 133.621 216.935H133.653Z" fill="#242638"/>
<path d="M139.045 217.208L138.756 214.393C138.752 214.34 138.738 214.289 138.714 214.242C138.69 214.196 138.657 214.154 138.616 214.121C138.576 214.087 138.529 214.062 138.479 214.046C138.429 214.031 138.376 214.026 138.324 214.032C138.271 214.037 138.22 214.052 138.173 214.077C138.126 214.102 138.085 214.136 138.052 214.177C138.018 214.218 137.993 214.265 137.978 214.316C137.963 214.367 137.958 214.42 137.963 214.473L138.244 217.288C138.255 217.386 138.302 217.477 138.376 217.544C138.45 217.61 138.545 217.648 138.644 217.649H138.684C138.789 217.635 138.885 217.581 138.952 217.499C139.018 217.418 139.052 217.313 139.045 217.208Z" fill="#242638"/>
<path d="M139.253 218.587C139.148 218.601 139.053 218.656 138.988 218.74C138.924 218.825 138.895 218.931 138.909 219.036L139.045 220.143C139.058 220.24 139.106 220.329 139.18 220.394C139.253 220.459 139.347 220.495 139.445 220.496H139.501C139.553 220.489 139.603 220.472 139.648 220.446C139.693 220.419 139.733 220.384 139.764 220.342C139.795 220.3 139.818 220.253 139.831 220.202C139.843 220.151 139.846 220.099 139.838 220.047L139.686 218.916C139.672 218.815 139.618 218.724 139.537 218.662C139.456 218.6 139.354 218.573 139.253 218.587Z" fill="#242638"/>
<path d="M135.215 220.456H135.296C135.347 220.447 135.397 220.428 135.441 220.4C135.485 220.372 135.523 220.334 135.552 220.291C135.581 220.247 135.601 220.198 135.611 220.147C135.621 220.095 135.62 220.042 135.608 219.991L135.304 218.387C135.282 218.282 135.221 218.19 135.133 218.13C135.044 218.07 134.936 218.047 134.831 218.066C134.779 218.076 134.73 218.097 134.687 218.126C134.643 218.156 134.606 218.194 134.577 218.238C134.548 218.282 134.528 218.331 134.518 218.383C134.508 218.434 134.508 218.487 134.519 218.539L134.823 220.143C134.844 220.232 134.895 220.31 134.966 220.367C135.037 220.424 135.125 220.455 135.215 220.456Z" fill="#242638"/>
<path d="M130.93 218.194C130.879 218.207 130.831 218.23 130.789 218.262C130.747 218.294 130.712 218.334 130.686 218.379C130.66 218.425 130.643 218.475 130.637 218.528C130.63 218.58 130.635 218.633 130.649 218.683C130.761 219.096 130.801 219.524 130.769 219.951C130.765 220.003 130.771 220.056 130.787 220.107C130.803 220.157 130.829 220.204 130.864 220.244C130.898 220.284 130.94 220.317 130.987 220.341C131.034 220.365 131.085 220.38 131.138 220.384C131.238 220.382 131.334 220.344 131.408 220.276C131.482 220.208 131.529 220.115 131.538 220.015C131.572 219.497 131.521 218.976 131.386 218.475C131.36 218.379 131.298 218.296 131.213 218.244C131.128 218.192 131.027 218.174 130.93 218.194Z" fill="#242638"/>
<path d="M127.204 218.659C127.102 218.629 126.993 218.64 126.898 218.689C126.804 218.738 126.733 218.823 126.7 218.924L126.115 220.801C126.085 220.903 126.095 221.013 126.145 221.107C126.194 221.201 126.278 221.273 126.379 221.306C126.419 221.314 126.46 221.314 126.499 221.306C126.585 221.307 126.669 221.28 126.738 221.229C126.807 221.179 126.858 221.107 126.884 221.025L127.469 219.149C127.494 219.049 127.481 218.943 127.432 218.852C127.383 218.761 127.302 218.692 127.204 218.659Z" fill="#242638"/>
<path d="M123.623 220.279C123.628 220.227 123.621 220.173 123.605 220.123C123.588 220.073 123.561 220.026 123.526 219.986C123.491 219.947 123.448 219.914 123.4 219.892C123.352 219.869 123.3 219.856 123.247 219.854C123.194 219.851 123.142 219.858 123.092 219.875C123.042 219.893 122.996 219.92 122.956 219.955C122.917 219.99 122.885 220.032 122.862 220.08C122.839 220.127 122.825 220.179 122.822 220.231C122.788 220.833 122.801 221.436 122.862 222.036C122.872 222.134 122.918 222.225 122.99 222.291C123.062 222.358 123.157 222.395 123.255 222.397H123.295C123.347 222.393 123.398 222.378 123.445 222.354C123.492 222.33 123.533 222.297 123.567 222.257C123.6 222.216 123.625 222.169 123.641 222.119C123.656 222.069 123.661 222.016 123.655 221.964C123.6 221.404 123.59 220.841 123.623 220.279Z" fill="#242638"/>
<path d="M120.01 222.188C119.905 222.19 119.804 222.233 119.729 222.308C119.655 222.383 119.612 222.484 119.61 222.589V224.53C119.61 224.637 119.652 224.739 119.727 224.814C119.802 224.889 119.904 224.931 120.01 224.931C120.117 224.931 120.218 224.889 120.294 224.814C120.369 224.739 120.411 224.637 120.411 224.53V222.589C120.411 222.483 120.369 222.381 120.294 222.306C120.218 222.231 120.117 222.188 120.01 222.188Z" fill="#242638"/>
<path d="M114.443 221.627C114.346 221.583 114.236 221.58 114.137 221.618C114.038 221.655 113.958 221.731 113.914 221.827C113.648 222.401 113.611 223.055 113.81 223.656C113.835 223.736 113.885 223.807 113.953 223.857C114.02 223.908 114.102 223.936 114.186 223.937C114.229 223.944 114.272 223.944 114.314 223.937C114.414 223.902 114.496 223.83 114.544 223.736C114.592 223.642 114.602 223.532 114.571 223.431C114.436 223.021 114.458 222.575 114.635 222.18C114.662 222.132 114.678 222.078 114.683 222.023C114.687 221.968 114.681 221.913 114.662 221.861C114.644 221.808 114.615 221.76 114.577 221.72C114.54 221.68 114.494 221.648 114.443 221.627Z" fill="#242638"/>
<path d="M109.227 221.386C109.175 221.381 109.122 221.386 109.071 221.401C109.02 221.416 108.973 221.441 108.932 221.475C108.891 221.508 108.857 221.55 108.832 221.596C108.807 221.643 108.792 221.694 108.787 221.747L108.587 223.552C108.575 223.657 108.606 223.762 108.672 223.845C108.738 223.928 108.834 223.981 108.939 223.993H108.987C109.084 223.992 109.177 223.955 109.25 223.89C109.322 223.825 109.368 223.736 109.38 223.64L109.58 221.835C109.587 221.783 109.583 221.729 109.569 221.678C109.554 221.627 109.53 221.579 109.498 221.537C109.465 221.495 109.424 221.46 109.378 221.434C109.331 221.409 109.28 221.392 109.227 221.386Z" fill="#242638"/>
<path d="M104.749 220.857C104.757 220.805 104.755 220.752 104.742 220.7C104.73 220.649 104.707 220.601 104.676 220.558C104.644 220.516 104.605 220.48 104.56 220.453C104.515 220.426 104.465 220.408 104.413 220.4C104.361 220.391 104.308 220.392 104.257 220.404C104.206 220.415 104.158 220.437 104.115 220.468C104.073 220.498 104.037 220.537 104.009 220.582C103.982 220.627 103.964 220.677 103.956 220.729L103.644 222.822C103.596 222.963 103.592 223.114 103.632 223.258C103.672 223.401 103.754 223.528 103.868 223.624C103.94 223.677 104.027 223.705 104.116 223.704C104.192 223.705 104.267 223.685 104.331 223.645C104.395 223.605 104.447 223.547 104.479 223.478C104.511 223.409 104.523 223.333 104.512 223.258C104.502 223.182 104.47 223.112 104.421 223.054C104.426 223.031 104.426 223.006 104.421 222.982L104.749 220.857Z" fill="#242638"/>
<path d="M100.407 224.274C100.304 224.249 100.196 224.267 100.106 224.323C100.016 224.378 99.9513 224.467 99.9265 224.57L99.6061 225.918C99.582 226.021 99.5996 226.129 99.6552 226.22C99.7107 226.31 99.7996 226.374 99.9025 226.399H99.9906C100.081 226.401 100.17 226.372 100.241 226.317C100.313 226.261 100.363 226.183 100.383 226.094L100.704 224.755C100.728 224.652 100.71 224.543 100.655 224.453C100.599 224.363 100.51 224.298 100.407 224.274Z" fill="#242638"/>
<path d="M107.177 226.423C107.076 226.39 106.966 226.399 106.871 226.447C106.777 226.495 106.705 226.579 106.672 226.68C106.478 227.299 106.36 227.94 106.319 228.588C106.317 228.694 106.354 228.796 106.424 228.875C106.494 228.954 106.591 229.003 106.696 229.014C106.798 229.012 106.895 228.972 106.969 228.903C107.043 228.833 107.089 228.738 107.096 228.637C107.13 228.056 107.238 227.482 107.417 226.928C107.448 226.829 107.441 226.722 107.397 226.628C107.352 226.534 107.273 226.461 107.177 226.423Z" fill="#242638"/>
<path d="M112.232 226.559C112.181 226.546 112.128 226.543 112.077 226.551C112.025 226.558 111.975 226.576 111.931 226.603C111.886 226.63 111.847 226.665 111.816 226.707C111.785 226.749 111.763 226.797 111.751 226.848C111.598 227.445 111.568 228.068 111.663 228.677C111.676 228.772 111.723 228.859 111.795 228.922C111.867 228.985 111.96 229.021 112.055 229.022H112.119C112.172 229.014 112.222 228.996 112.267 228.968C112.312 228.941 112.351 228.905 112.382 228.863C112.414 228.82 112.436 228.772 112.449 228.721C112.461 228.67 112.464 228.617 112.456 228.564C112.376 228.062 112.4 227.549 112.528 227.057C112.541 227.004 112.544 226.95 112.536 226.897C112.529 226.844 112.51 226.793 112.483 226.746C112.455 226.7 112.419 226.66 112.376 226.628C112.333 226.596 112.284 226.572 112.232 226.559Z" fill="#242638"/>
<path d="M117.158 226.615C117.107 226.603 117.054 226.6 117.002 226.609C116.95 226.617 116.9 226.636 116.856 226.665C116.812 226.694 116.774 226.731 116.744 226.775C116.715 226.819 116.695 226.868 116.686 226.92C116.562 227.502 116.513 228.098 116.542 228.693C116.546 228.796 116.59 228.894 116.664 228.966C116.739 229.038 116.839 229.078 116.942 229.078C116.995 229.076 117.046 229.063 117.094 229.041C117.142 229.019 117.185 228.988 117.221 228.949C117.256 228.91 117.284 228.865 117.302 228.815C117.321 228.766 117.329 228.713 117.327 228.661C117.299 228.123 117.34 227.584 117.447 227.057C117.462 226.96 117.441 226.862 117.387 226.78C117.334 226.699 117.253 226.64 117.158 226.615Z" fill="#242638"/>
<path d="M123.151 226.736C123.045 226.736 122.943 226.778 122.867 226.853C122.792 226.928 122.75 227.03 122.75 227.137V228.613C122.75 228.719 122.792 228.821 122.867 228.896C122.943 228.971 123.045 229.014 123.151 229.014C123.257 229.014 123.359 228.971 123.434 228.896C123.509 228.821 123.551 228.719 123.551 228.613V227.137C123.551 227.03 123.509 226.928 123.434 226.853C123.359 226.778 123.257 226.736 123.151 226.736Z" fill="#242638"/>
<path d="M125.338 223.391C125.285 223.394 125.234 223.408 125.186 223.431C125.139 223.454 125.096 223.486 125.061 223.526C125.026 223.565 125 223.611 124.982 223.661C124.965 223.711 124.958 223.764 124.961 223.816L125.025 225.019C125.031 225.122 125.076 225.217 125.151 225.288C125.225 225.358 125.324 225.397 125.426 225.396C125.478 225.394 125.53 225.382 125.577 225.36C125.624 225.338 125.667 225.306 125.702 225.267C125.737 225.228 125.764 225.183 125.781 225.133C125.798 225.084 125.806 225.032 125.802 224.979L125.738 223.776C125.734 223.673 125.69 223.575 125.615 223.503C125.541 223.431 125.441 223.391 125.338 223.391Z" fill="#242638"/>
<path d="M129.039 226.471C128.986 226.466 128.932 226.471 128.881 226.487C128.83 226.504 128.784 226.53 128.744 226.566C128.704 226.601 128.672 226.645 128.649 226.693C128.627 226.742 128.615 226.795 128.614 226.848L128.51 228.516C128.507 228.569 128.514 228.622 128.531 228.672C128.548 228.722 128.575 228.768 128.61 228.807C128.645 228.847 128.688 228.879 128.735 228.902C128.783 228.925 128.834 228.938 128.887 228.941C128.989 228.942 129.087 228.903 129.162 228.833C129.236 228.762 129.281 228.667 129.287 228.564L129.391 226.888C129.396 226.787 129.362 226.688 129.297 226.61C129.232 226.533 129.139 226.483 129.039 226.471Z" fill="#242638"/>
<path d="M133.942 226.206C133.888 226.2 133.834 226.204 133.783 226.22C133.731 226.236 133.684 226.263 133.644 226.298C133.604 226.334 133.571 226.378 133.55 226.427C133.528 226.476 133.517 226.53 133.517 226.583L133.437 227.923C133.434 227.975 133.441 228.027 133.458 228.077C133.476 228.126 133.502 228.172 133.538 228.211C133.573 228.25 133.615 228.281 133.663 228.303C133.71 228.325 133.761 228.338 133.814 228.34C133.916 228.342 134.016 228.304 134.091 228.233C134.166 228.163 134.21 228.066 134.214 227.963L134.286 226.623C134.291 226.523 134.259 226.425 134.195 226.348C134.131 226.271 134.041 226.22 133.942 226.206Z" fill="#242638"/>
<path d="M130.425 223.038C130.413 222.986 130.39 222.936 130.359 222.892C130.328 222.848 130.288 222.811 130.242 222.782C130.197 222.753 130.146 222.734 130.092 222.725C130.039 222.716 129.985 222.718 129.932 222.73C129.88 222.742 129.83 222.764 129.786 222.795C129.742 222.827 129.705 222.867 129.676 222.912C129.647 222.958 129.628 223.009 129.619 223.062C129.61 223.116 129.612 223.17 129.624 223.223L129.96 224.626C129.98 224.715 130.031 224.793 130.102 224.849C130.174 224.904 130.262 224.934 130.353 224.931H130.441C130.544 224.906 130.633 224.842 130.688 224.752C130.744 224.662 130.761 224.553 130.737 224.45L130.425 223.038Z" fill="#242638"/>
<path d="M135.44 221.843C135.419 221.737 135.356 221.644 135.266 221.583C135.176 221.523 135.065 221.501 134.959 221.523C134.853 221.544 134.759 221.607 134.699 221.697C134.639 221.787 134.617 221.897 134.639 222.004L134.903 223.279C134.923 223.368 134.973 223.448 135.044 223.505C135.116 223.561 135.204 223.592 135.296 223.592H135.376C135.428 223.582 135.477 223.562 135.522 223.533C135.566 223.504 135.604 223.466 135.633 223.422C135.662 223.378 135.682 223.328 135.691 223.276C135.701 223.224 135.7 223.17 135.688 223.119L135.44 221.843Z" fill="#242638"/>
<path d="M139.501 224.538C139.397 224.524 139.292 224.552 139.208 224.615C139.125 224.678 139.069 224.771 139.053 224.875L138.74 227.017C138.732 227.069 138.735 227.122 138.747 227.173C138.76 227.224 138.783 227.272 138.814 227.315C138.845 227.357 138.884 227.393 138.93 227.421C138.975 227.448 139.025 227.466 139.077 227.474H139.141C139.236 227.473 139.327 227.439 139.399 227.377C139.471 227.315 139.518 227.23 139.533 227.137L139.846 224.955C139.851 224.855 139.818 224.757 139.755 224.68C139.691 224.603 139.6 224.552 139.501 224.538Z" fill="#242638"/>
<path d="M101.953 217.737C101.903 217.719 101.85 217.712 101.798 217.715C101.745 217.718 101.693 217.731 101.645 217.754C101.597 217.777 101.555 217.81 101.52 217.849C101.485 217.889 101.458 217.935 101.441 217.986C101.216 218.618 101.12 219.289 101.16 219.959C101.168 220.06 101.214 220.155 101.288 220.225C101.362 220.294 101.459 220.334 101.561 220.336C101.614 220.334 101.666 220.321 101.714 220.298C101.762 220.276 101.805 220.243 101.84 220.204C101.875 220.164 101.902 220.117 101.919 220.067C101.935 220.017 101.942 219.963 101.937 219.91C101.906 219.35 101.985 218.789 102.17 218.258C102.21 218.16 102.209 218.051 102.169 217.953C102.128 217.855 102.051 217.778 101.953 217.737Z" fill="#242638"/>
<path d="M121.829 128.246C120.539 125.88 116.942 124.581 114.403 123.932C113.776 123.772 113.134 123.681 112.488 123.659C113.374 122.872 114.39 122.248 115.492 121.814C116.157 121.622 115.933 120.563 115.26 120.755C113.762 121.173 112.68 122.36 111.374 123.162C112.207 121.961 112.882 120.659 113.385 119.288C113.666 118.646 112.64 118.317 112.36 118.951C111.983 119.801 111.559 120.643 111.126 121.461C110.979 121.738 110.816 122.006 110.637 122.263C110.734 121.934 110.849 121.61 110.982 121.293C111.195 120.733 111.463 120.195 111.783 119.689C112.151 119.095 111.238 118.51 110.878 119.103C110.425 119.823 110.065 120.596 109.804 121.405C109.748 121.582 109.684 121.766 109.636 121.951C109.505 121.045 109.454 120.13 109.484 119.216C109.484 118.518 108.426 118.414 108.41 119.151C108.384 119.89 108.405 120.629 108.474 121.365C108.502 121.59 108.545 121.812 108.603 122.031C108.522 121.91 108.45 121.782 108.37 121.67C107.87 121.053 107.425 120.392 107.04 119.697C106.76 119.063 105.799 119.56 106.087 120.194C106.445 120.868 106.869 121.505 107.353 122.095C107.676 122.56 107.965 123.048 108.218 123.555C107.131 122.768 105.858 122.276 104.525 122.127C103.836 122.047 103.78 123.129 104.469 123.21C105.703 123.356 106.871 123.845 107.841 124.621L107.93 124.669C102.378 127.116 101.801 130.508 101.865 132.048C101.689 132.177 101.533 132.331 101.401 132.505C100.72 133.564 99.0933 135.465 99.7983 137.542C100.039 138.256 100.383 138.881 101.072 138.577C105.078 136.828 115.596 132.706 124.801 133.837C124.785 133.829 125.226 129.746 121.829 128.246Z" fill="#F14F51"/>
<path opacity="0.3" d="M121.829 128.246C120.539 125.88 116.942 124.581 114.403 123.932C113.776 123.772 113.134 123.681 112.488 123.659C113.374 122.872 114.39 122.248 115.492 121.814C116.157 121.622 115.933 120.563 115.26 120.755C113.762 121.173 112.68 122.36 111.374 123.162C112.207 121.961 112.882 120.659 113.385 119.288C113.666 118.646 112.64 118.317 112.36 118.951C111.983 119.801 111.559 120.643 111.126 121.461C110.979 121.738 110.816 122.006 110.637 122.263C110.734 121.934 110.849 121.61 110.982 121.293C111.195 120.733 111.463 120.195 111.783 119.689C112.151 119.095 111.238 118.51 110.878 119.103C110.425 119.823 110.065 120.596 109.804 121.405C109.748 121.582 109.684 121.766 109.636 121.951C109.505 121.045 109.454 120.13 109.484 119.216C109.484 118.518 108.426 118.414 108.41 119.151C108.384 119.89 108.405 120.629 108.474 121.365C108.502 121.59 108.545 121.812 108.603 122.031C108.522 121.91 108.45 121.782 108.37 121.67C107.87 121.053 107.425 120.392 107.04 119.697C106.76 119.063 105.799 119.56 106.087 120.194C106.445 120.868 106.869 121.505 107.353 122.095C107.676 122.56 107.965 123.048 108.218 123.555C107.131 122.768 105.858 122.276 104.525 122.127C103.836 122.047 103.78 123.129 104.469 123.21C105.703 123.356 106.871 123.845 107.841 124.621L107.93 124.669C102.378 127.116 101.801 130.508 101.865 132.048C101.689 132.177 101.533 132.331 101.401 132.505C100.72 133.564 99.0933 135.465 99.7983 137.542C100.039 138.256 100.383 138.881 101.072 138.577C105.078 136.828 115.596 132.706 124.801 133.837C124.785 133.829 125.226 129.746 121.829 128.246Z" fill="white"/>
<g opacity="0.1">
<path d="M138.724 164.931C137.603 163.72 135.52 163.921 134.118 164.33C133.842 164.406 133.604 164.583 133.453 164.827C131.771 165.348 130.417 166.567 130.833 168.252C131.218 169.768 132.972 170.409 134.358 170.562C135.135 170.671 135.927 170.582 136.66 170.301C137.393 170.021 138.043 169.558 138.548 168.957C139.469 167.859 139.798 166.086 138.724 164.931Z" fill="#F14F51"/>
<path d="M102.61 163.768C101.833 163.759 101.059 163.875 100.319 164.113C100.08 164.19 99.8723 164.343 99.7277 164.548C99.5831 164.754 99.5095 165.001 99.5179 165.252C99.2962 165.533 99.1377 165.859 99.0533 166.207C98.9124 166.563 98.8844 166.955 98.9733 167.328C99.0621 167.701 99.2635 168.037 99.55 168.292C101.521 170.209 106.888 170.305 107.561 166.985C108.026 164.41 105.126 163.472 102.61 163.768Z" fill="#F14F51"/>
</g>
<path d="M139.045 12.6819C139.496 12.7365 139.94 12.8442 140.366 13.0028C145.698 14.7271 150.58 17.6174 154.658 21.4642C155.317 22.0256 155.826 22.7422 156.14 23.5495C156.289 23.9555 156.303 24.3985 156.18 24.8131C156.057 25.2277 155.805 25.5917 155.459 25.8513C154.602 26.3886 153.497 25.9475 152.591 25.4824C147.895 23.0717 143.446 20.2054 139.309 16.9247C138.484 16.4011 137.863 15.6118 137.547 14.687C137.479 14.3619 137.51 14.0242 137.635 13.7166C137.692 13.5661 137.767 13.4234 137.859 13.2915C137.859 13.2915 138.644 12.6579 139.045 12.6819Z" fill="white"/>
<path d="M163.078 29.9415C178.563 38.3308 189.731 52.3984 195.179 69.1288C196.38 72.8101 197.261 76.5877 198.151 80.3572C199.033 83.5225 199.523 86.7846 199.609 90.0698L191.598 73.5079C189.018 68.1503 186.39 62.7286 182.561 58.173C177.947 52.6952 164.784 38.4591 163.014 36.5663C161.94 35.4194 160.611 34.3367 160.322 32.7888C160.227 32.3264 160.232 31.8491 160.336 31.3887C160.439 30.9282 160.639 30.4951 160.923 30.118C161.316 29.7491 163.078 29.9415 163.078 29.9415Z" fill="white"/>
</svg>
