<svg width="199" height="46" viewBox="0 0 199 46" fill="none" xmlns="http://www.w3.org/2000/svg">
<path d="M21.8004 19.2103L32.6104 12.8403C32.5583 12.7399 32.4784 12.6566 32.3804 12.6003L11.2304 0.090301C11.1323 0.0312194 11.0199 0 10.9054 0C10.7908 0 10.6785 0.0312194 10.5804 0.090301L0.330363 6.1403C0.231627 6.19907 0.149132 6.28157 0.0903625 6.3803L21.8004 19.2103Z" fill="#F37576"/>
<path d="M10.9103 12.7703L0.0903476 6.38031C0.0335371 6.47755 0.0025544 6.58771 0.000347548 6.70031V43.8903C-0.00354607 44.0084 0.0253393 44.1253 0.0838025 44.228C0.142266 44.3307 0.228024 44.4152 0.331572 44.4722C0.435121 44.5291 0.552416 44.5563 0.670459 44.5507C0.788502 44.545 0.902683 44.5068 1.00035 44.4403L10.9303 38.5703L10.9103 12.7703Z" fill="#F69B9C"/>
<path d="M32.6104 12.8403L10.9004 25.6603V38.5703L32.3804 25.8703C32.4778 25.8129 32.5586 25.731 32.6147 25.6328C32.6708 25.5346 32.7004 25.4234 32.7004 25.3103V13.1503C32.7014 13.0404 32.6701 12.9326 32.6104 12.8403Z" fill="#F14F51"/>
<path d="M54.7204 6.3103C55.8534 6.27128 56.979 6.50807 58.0004 7.0003C58.8827 7.43991 59.6602 8.064 60.2803 8.8303C60.8757 9.58234 61.3298 10.4362 61.6203 11.3503C61.8937 12.2578 62.0219 13.2028 62.0004 14.1503C61.9944 15.0997 61.8218 16.0406 61.4904 16.9303C61.1605 17.8528 60.6696 18.7094 60.0404 19.4603C59.3979 20.2253 58.6092 20.8543 57.7204 21.3103C56.7569 21.7965 55.6894 22.0403 54.6104 22.0203H47.9004V32.0003H43.6404V6.3103H54.7204ZM47.9004 18.1803H53.7904C54.3399 18.2116 54.8899 18.1292 55.4061 17.9382C55.9223 17.7472 56.3936 17.4518 56.7904 17.0703C57.1575 16.6845 57.444 16.2292 57.6329 15.7313C57.8218 15.2333 57.9093 14.7026 57.8904 14.1703C57.9107 13.6364 57.8238 13.1038 57.6348 12.604C57.4459 12.1042 57.1588 11.6473 56.7904 11.2603C56.3936 10.8788 55.9223 10.5834 55.4061 10.3924C54.8899 10.2014 54.3399 10.119 53.7904 10.1503H47.9004V18.1803Z" fill="black"/>
<path d="M68.8604 24.0703V25.0003C68.8445 25.5714 68.9573 26.1387 69.1904 26.6603C69.3925 27.0971 69.6938 27.4806 70.0704 27.7803C70.446 28.0774 70.8781 28.2951 71.3404 28.4203C71.8327 28.5532 72.3404 28.6204 72.8504 28.6203C73.5498 28.6023 74.2446 28.5016 74.9204 28.3203C75.8231 28.068 76.6482 27.5936 77.3204 26.9403C77.7204 27.4203 78.1104 27.8703 78.5004 28.3003C78.8904 28.7303 79.2604 29.1903 79.6404 29.6703C78.72 30.5963 77.5871 31.2829 76.3404 31.6703C75.207 32.0034 74.0317 32.1718 72.8504 32.1703C71.836 32.176 70.826 32.038 69.8504 31.7603C68.9316 31.5098 68.0694 31.0855 67.3104 30.5103C66.5778 29.9508 65.9855 29.2284 65.5804 28.4003C65.13 27.466 64.9105 26.4371 64.9404 25.4003V20.6003C64.9246 19.571 65.1221 18.5496 65.5204 17.6003C65.8667 16.7242 66.4068 15.9379 67.1004 15.3003C67.806 14.6703 68.6281 14.1845 69.5204 13.8703C70.4819 13.5227 71.4979 13.35 72.5204 13.3603C73.5707 13.3474 74.6156 13.5131 75.6104 13.8503C76.5092 14.1491 77.3389 14.6251 78.0504 15.2503C78.7349 15.8642 79.2745 16.6225 79.6304 17.4703C80.0196 18.4217 80.2101 19.4426 80.1904 20.4703V24.0903L68.8604 24.0703ZM76.2404 20.6803C76.289 20.1589 76.2168 19.6333 76.0295 19.1443C75.8422 18.6552 75.5448 18.2159 75.1604 17.8603C74.425 17.2771 73.514 16.9597 72.5754 16.9597C71.6368 16.9597 70.7258 17.2771 69.9904 17.8603C69.6111 18.2036 69.3149 18.6287 69.1243 19.1034C68.9337 19.5782 68.8537 20.0901 68.8904 20.6003V21.2003H76.2404V20.6803Z" fill="black"/>
<path d="M94.9404 17.4303C93.5507 17.5268 92.1794 17.8025 90.8604 18.2503C89.9178 18.5844 89.0102 19.0097 88.1504 19.5203V32.0003H84.1504V13.5103H87.7304L88.0704 16.2403C88.4558 15.8697 88.8742 15.5349 89.3204 15.2403C89.8504 14.859 90.4125 14.5244 91.0004 14.2403C91.6451 13.9562 92.3146 13.7319 93.0004 13.5703C93.65 13.3808 94.3237 13.2864 95.0004 13.2903L94.9404 17.4303Z" fill="black"/>
<path d="M103.73 16.9103V32.0003H99.8504V16.9103H97.6504V13.5503H99.8504V10.3303C99.8349 9.56693 99.9744 8.80832 100.26 8.10033C100.509 7.49495 100.884 6.94952 101.36 6.50033C101.832 6.07417 102.392 5.75671 103 5.57033C103.648 5.36849 104.322 5.26731 105 5.27033H108.28V8.70033H105.56C105.286 8.66458 105.007 8.70113 104.751 8.80636C104.495 8.91159 104.27 9.08187 104.1 9.30033C103.837 9.75116 103.708 10.2684 103.73 10.7903V13.5503H108.28V16.9103H103.73Z" fill="black"/>
<path d="M114.91 24.0703V25.0003C114.893 25.5726 115.009 26.1411 115.25 26.6603C115.449 27.0964 115.747 27.48 116.12 27.7803C116.497 28.0755 116.929 28.2931 117.39 28.4203C117.883 28.5525 118.39 28.6198 118.9 28.6203C119.6 28.6023 120.295 28.5016 120.97 28.3203C121.875 28.0661 122.703 27.592 123.38 26.9403C123.78 27.4203 124.17 27.8703 124.55 28.3003C124.93 28.7303 125.32 29.1903 125.69 29.6703C124.773 30.5995 123.639 31.2867 122.39 31.6703C121.257 32.0034 120.082 32.1718 118.9 32.1703C117.886 32.1753 116.876 32.0373 115.9 31.7603C114.985 31.5098 114.126 31.0854 113.37 30.5103C112.632 29.9541 112.036 29.2311 111.63 28.4003C111.188 27.4635 110.972 26.4359 111 25.4003V20.6003C110.986 19.5721 111.18 18.5517 111.57 17.6003C111.938 16.7316 112.491 15.9535 113.19 15.3203C113.898 14.6924 114.719 14.2069 115.61 13.8903C116.572 13.5438 117.588 13.3711 118.61 13.3803C119.657 13.3682 120.699 13.5338 121.69 13.8703C122.591 14.1645 123.422 14.6411 124.13 15.2703C124.815 15.8842 125.355 16.6425 125.71 17.4903C126.104 18.4403 126.295 19.4622 126.27 20.4903V24.1103L114.91 24.0703ZM122.3 20.6803C122.349 20.1589 122.277 19.6333 122.09 19.1443C121.902 18.6552 121.605 18.2159 121.22 17.8603C120.485 17.2771 119.574 16.9597 118.635 16.9597C117.697 16.9597 116.786 17.2771 116.05 17.8603C115.669 18.2022 115.372 18.6271 115.181 19.1022C114.99 19.5773 114.911 20.0899 114.95 20.6003V21.2003H122.3V20.6803Z" fill="black"/>
<path d="M144 29.7003C143.135 30.6304 142.042 31.3196 140.83 31.7003C139.738 32.0163 138.607 32.1779 137.47 32.1803C136.474 32.1851 135.482 32.0367 134.53 31.7403C133.656 31.4644 132.843 31.0193 132.14 30.4303C131.47 29.8601 130.929 29.1547 130.55 28.3603C130.154 27.4878 129.956 26.5384 129.97 25.5803V20.1203C129.953 19.1135 130.172 18.1168 130.61 17.2103C131.009 16.3869 131.583 15.6601 132.29 15.0803C132.999 14.4992 133.809 14.055 134.68 13.7703C135.57 13.4736 136.502 13.3249 137.44 13.3303C137.998 13.3311 138.556 13.3612 139.11 13.4203C139.686 13.48 140.255 13.5904 140.81 13.7503C141.383 13.9217 141.933 14.16 142.45 14.4603C143.024 14.801 143.546 15.2219 144 15.7103L141.69 18.6603C141.055 18.0214 140.282 17.5357 139.43 17.2403C138.867 17.0828 138.286 16.9955 137.7 16.9803C137.256 16.9832 136.814 17.054 136.39 17.1903C135.946 17.32 135.534 17.5414 135.18 17.8403C134.8 18.1652 134.493 18.5675 134.28 19.0203C134.033 19.5767 133.913 20.1815 133.93 20.7903V24.7403C133.909 25.3464 134.018 25.95 134.25 26.5103C134.435 26.9633 134.723 27.3673 135.09 27.6903C135.434 27.9929 135.84 28.215 136.28 28.3403C136.727 28.4798 137.192 28.5506 137.66 28.5503C138.308 28.5277 138.949 28.4063 139.56 28.1903C140.312 27.9479 140.997 27.5336 141.56 26.9803L144 29.7003Z" fill="black"/>
<path d="M147 16.9103V13.5503H149.54L150.33 9.11029H153.42V13.5503H158.23V16.9103H153.42V25.2603C153.358 26.1277 153.524 26.9963 153.9 27.7803C154.22 28.2903 154.9 28.5503 155.99 28.5503C156.415 28.5443 156.84 28.5109 157.26 28.4503C157.804 28.3843 158.339 28.2671 158.86 28.1003L159.65 31.5703C158.887 31.8467 158.09 32.0215 157.28 32.0903C156.44 32.1703 155.78 32.2003 155.28 32.2003C154.345 32.2275 153.413 32.0817 152.53 31.7703C151.837 31.5235 151.219 31.0994 150.74 30.5403C150.256 29.9602 149.914 29.2755 149.74 28.5403C149.531 27.6661 149.43 26.7693 149.44 25.8703V16.8703L147 16.9103Z" fill="black"/>
<path d="M162.85 8.2503C162.843 7.94941 162.898 7.65027 163.012 7.37154C163.125 7.09281 163.295 6.84048 163.51 6.6303C163.716 6.42189 163.962 6.25832 164.234 6.14989C164.506 6.04146 164.798 5.99053 165.09 6.0003C165.391 5.98997 165.69 6.04244 165.969 6.15437C166.248 6.26629 166.5 6.43521 166.71 6.6503C166.926 6.86048 167.096 7.11281 167.209 7.39154C167.323 7.67027 167.378 7.96941 167.37 8.2703C167.376 8.57121 167.321 8.87012 167.208 9.14919C167.095 9.42827 166.927 9.68178 166.715 9.89458C166.502 10.1074 166.248 10.2751 165.969 10.3878C165.69 10.5005 165.391 10.5557 165.09 10.5503C164.797 10.5551 164.505 10.4999 164.233 10.3882C163.962 10.2764 163.716 10.1104 163.51 9.9003C163.292 9.68592 163.121 9.42858 163.007 9.14456C162.894 8.86054 162.84 8.55603 162.85 8.2503ZM163.15 32.0203V13.5503H167.15V32.0003L163.15 32.0203Z" fill="black"/>
<path d="M183 30.3403C181.95 30.9625 180.829 31.456 179.66 31.8103C178.839 32.0379 177.992 32.1589 177.14 32.1703C175.555 32.2628 173.998 31.7235 172.81 30.6703C172.276 30.1349 171.86 29.4933 171.59 28.787C171.319 28.0807 171.2 27.3255 171.24 26.5703C171.212 25.667 171.445 24.7747 171.91 24.0003C172.34 23.3185 172.914 22.7385 173.59 22.3003C174.262 21.863 175.002 21.5418 175.78 21.3503C176.492 21.1598 177.224 21.059 177.96 21.0503H183.07V19.9303C183.113 19.4929 183.051 19.0516 182.889 18.643C182.727 18.2344 182.471 17.8701 182.14 17.5803C181.28 17.0448 180.271 16.7963 179.26 16.8703C178.49 16.8865 177.722 16.9803 176.97 17.1503C175.957 17.3891 175.017 17.8694 174.23 18.5503L172.4 15.5503C173.505 14.6747 174.783 14.0441 176.15 13.7003C177.295 13.4331 178.465 13.2922 179.64 13.2803C182.17 13.2803 184.04 13.8403 185.23 14.9503C185.873 15.6386 186.363 16.455 186.668 17.346C186.973 18.237 187.086 19.1824 187 20.1203V32.0003H183.42L183.09 30.3903L183 30.3403ZM183.07 24.1103H178.63C178.269 24.1092 177.908 24.1326 177.55 24.1803C177.202 24.2308 176.864 24.3389 176.55 24.5003C176.237 24.6625 175.97 24.8996 175.77 25.1903C175.54 25.5576 175.428 25.9871 175.45 26.4203C175.434 26.731 175.494 27.041 175.624 27.3233C175.755 27.6056 175.953 27.8518 176.2 28.0403C176.78 28.4592 177.487 28.6642 178.2 28.6203C178.653 28.6223 179.103 28.5652 179.54 28.4503C179.989 28.344 180.43 28.207 180.86 28.0403C181.282 27.8883 181.693 27.7079 182.09 27.5003C182.48 27.3003 182.82 27.1203 183.09 26.9403L183.07 24.1103Z" fill="black"/>
<path d="M195.7 26.6103C195.7 27.5003 195.89 28.0603 196.26 28.2903C196.921 28.5637 197.637 28.6768 198.35 28.6203L198.43 32.0503C198.071 32.1276 197.707 32.1778 197.34 32.2003C197 32.2003 196.67 32.2003 196.34 32.2003C195.532 32.2277 194.726 32.1092 193.96 31.8503C193.412 31.6492 192.928 31.3037 192.56 30.8503C192.212 30.3894 191.982 29.8504 191.89 29.2803C191.767 28.5973 191.711 27.9041 191.72 27.2103V5.30029H195.67L195.7 26.6103Z" fill="black"/>
<path d="M46.9304 42.4603H44.6203V44.1903H47.3204V45.0003H43.6404V39.3403H47.2904V40.1303H44.6203V41.6803H46.9304V42.4603Z" fill="black"/>
<path d="M53.5703 39.3403L55.2003 43.6503L56.8103 39.3403H58.0803V45.0003H57.0803V43.1103L57.1803 40.6303L55.5403 45.0003H54.8403L53.1803 40.6703L53.2803 43.1403V45.0003H52.2803V39.3403H53.5703Z" fill="black"/>
<path d="M64.4004 42.8803V45.0003H63.4004V39.3403H65.5504C66.0954 39.3124 66.631 39.4909 67.0504 39.8403C67.2323 40.0008 67.376 40.2 67.4712 40.4231C67.5663 40.6463 67.6105 40.8879 67.6004 41.1303C67.6154 41.3723 67.5745 41.6146 67.4809 41.8383C67.3872 42.062 67.2433 42.2611 67.0604 42.4203C66.626 42.7525 66.086 42.9159 65.5404 42.8803H64.4004ZM64.4004 42.0903H65.5704C65.8574 42.1105 66.1419 42.0252 66.3704 41.8503C66.4639 41.7584 66.5364 41.6474 66.583 41.5248C66.6296 41.4023 66.6492 41.2711 66.6404 41.1403C66.6464 41.0068 66.6257 40.8733 66.5793 40.748C66.5329 40.6226 66.4619 40.5078 66.3704 40.4103C66.1588 40.2222 65.8833 40.122 65.6004 40.1303H64.4004V42.0903Z" fill="black"/>
<path d="M77.1604 42.3003C77.17 42.7989 77.071 43.2937 76.8704 43.7503C76.709 44.1616 76.4221 44.5115 76.0504 44.7503C75.6836 44.9746 75.2602 45.0891 74.8304 45.0803C74.4009 45.0864 73.9782 44.9721 73.6104 44.7503C73.2426 44.5071 72.9568 44.1586 72.7904 43.7503C72.5824 43.3028 72.4798 42.8136 72.4904 42.3203V42.0003C72.4818 41.4985 72.5807 41.0007 72.7804 40.5403C72.9489 40.1303 73.2385 39.7815 73.6104 39.5403C73.9788 39.324 74.3982 39.21 74.8254 39.21C75.2525 39.21 75.672 39.324 76.0404 39.5403C76.4054 39.7645 76.6919 40.0964 76.8604 40.4903C77.0645 40.9426 77.167 41.4341 77.1604 41.9303V42.3003ZM76.1604 42.0103C76.1905 41.5092 76.0685 41.0108 75.8104 40.5803C75.6927 40.4268 75.5413 40.3025 75.3679 40.2169C75.1945 40.1314 75.0037 40.0868 74.8104 40.0868C74.617 40.0868 74.4262 40.1314 74.2528 40.2169C74.0794 40.3025 73.928 40.4268 73.8104 40.5803C73.5517 41.0066 73.4328 41.5031 73.4704 42.0003V42.3203C73.4399 42.8259 73.5656 43.3286 73.8304 43.7603C73.9421 43.9205 74.0921 44.0501 74.2668 44.1375C74.4414 44.2248 74.6352 44.267 74.8304 44.2603C75.0249 44.27 75.2187 44.2301 75.3936 44.1444C75.5685 44.0587 75.7188 43.93 75.8304 43.7703C76.0907 43.3334 76.2127 42.8279 76.1804 42.3203L76.1604 42.0103Z" fill="black"/>
<path d="M86.7304 43.5803L87.6004 39.3403H88.6004L87.2704 45.0003H86.3304L85.2604 40.8903L84.1704 45.0003H83.2304L81.9404 39.3703H82.9404L83.8204 43.6003L84.8904 39.3703H85.7104L86.7304 43.5803Z" fill="black"/>
<path d="M96.7603 42.4603H94.4503V44.1903H97.1503V45.0003H93.4703V39.3403H97.1203V40.1303H94.4503V41.6803H96.7603V42.4603Z" fill="black"/>
<path d="M104.2 42.8003H103.11V45.0003H102.11V39.3403H104.11C104.646 39.3065 105.177 39.4622 105.61 39.7803C105.792 39.9354 105.935 40.1312 106.027 40.3519C106.119 40.5726 106.158 40.8118 106.14 41.0503C106.152 41.3843 106.058 41.7134 105.87 41.9903C105.677 42.2537 105.414 42.458 105.11 42.5803L106.38 44.9203H105.38L104.2 42.8003ZM103.11 42.0003H104.11C104.389 42.013 104.662 41.9242 104.88 41.7503C104.972 41.6631 105.045 41.5574 105.093 41.4402C105.141 41.323 105.164 41.197 105.16 41.0703C105.169 40.9419 105.15 40.8131 105.105 40.6924C105.061 40.5717 104.991 40.4619 104.9 40.3703C104.686 40.1885 104.411 40.0955 104.13 40.1103H103.13L103.11 42.0003Z" fill="black"/>
<path d="M119.26 42.0003L120.55 39.3303H121.63L119.75 42.8903V45.0003H118.75V42.9003L116.86 39.3403H118L119.26 42.0003Z" fill="black"/>
<path d="M130.81 42.3003C130.82 42.799 130.721 43.2937 130.52 43.7503C130.359 44.1589 130.077 44.508 129.71 44.7503C129.34 44.9744 128.913 45.0888 128.48 45.0803C128.054 45.0878 127.634 44.9733 127.27 44.7503C126.897 44.5111 126.607 44.1616 126.44 43.7503C126.242 43.2997 126.14 42.8127 126.14 42.3203V42.0003C126.13 41.4974 126.233 40.9985 126.44 40.5403C126.602 40.129 126.889 39.7791 127.26 39.5403C127.627 39.316 128.05 39.2015 128.48 39.2103C128.91 39.2032 129.333 39.3175 129.7 39.5403C130.06 39.7702 130.346 40.1004 130.52 40.4903C130.721 40.9434 130.82 41.4349 130.81 41.9303V42.3003ZM129.81 42.0103C129.84 41.5093 129.718 41.0108 129.46 40.5803C129.351 40.4181 129.201 40.2869 129.026 40.1993C128.851 40.1117 128.656 40.0708 128.46 40.0803C128.266 40.0687 128.071 40.1077 127.896 40.1936C127.721 40.2794 127.571 40.4092 127.46 40.5703C127.197 40.9921 127.068 41.4837 127.09 41.9803V42.3003C127.06 42.8059 127.186 43.3086 127.45 43.7403C127.563 43.8998 127.713 44.029 127.887 44.1163C128.062 44.2035 128.255 44.2461 128.45 44.2403C128.645 44.251 128.839 44.2115 129.014 44.1257C129.189 44.0399 129.339 43.9107 129.45 43.7503C129.715 43.3151 129.837 42.8083 129.8 42.3003L129.81 42.0103Z" fill="black"/>
<path d="M140.09 39.3403V43.1003C140.104 43.3651 140.059 43.6297 139.959 43.8752C139.859 44.1207 139.706 44.341 139.51 44.5203C139.086 44.8658 138.546 45.0374 138 45.0003C137.441 45.0307 136.891 44.8485 136.46 44.4903C136.268 44.3072 136.119 44.0843 136.022 43.8373C135.925 43.5903 135.884 43.3251 135.9 43.0603V39.3403H136.9V43.1103C136.878 43.4225 136.978 43.7312 137.18 43.9703C137.296 44.0723 137.431 44.1504 137.576 44.2001C137.722 44.2499 137.877 44.2704 138.03 44.2603C138.78 44.2603 139.15 43.8703 139.15 43.0703V39.3403H140.09Z" fill="black"/>
<path d="M147.39 42.8003H146.3V45.0003H145.3V39.3403H147.3C147.836 39.3065 148.367 39.4622 148.8 39.7803C148.981 39.9369 149.122 40.133 149.214 40.3533C149.306 40.5735 149.346 40.8121 149.33 41.0503C149.342 41.3843 149.247 41.7134 149.06 41.9903C148.865 42.2516 148.602 42.4554 148.3 42.5803L149.56 44.9203H148.51L147.39 42.8003ZM146.3 42.0003H147.3C147.579 42.0149 147.853 41.9259 148.07 41.7503C148.164 41.6643 148.237 41.5588 148.286 41.4413C148.334 41.3239 148.356 41.1972 148.35 41.0703C148.36 40.9426 148.343 40.8142 148.3 40.6936C148.257 40.573 148.189 40.4628 148.1 40.3703C147.885 40.1903 147.611 40.0975 147.33 40.1103H146.33L146.3 42.0003Z" fill="black"/>
<path d="M161.64 45.0003H160.64V39.3403H161.64V45.0003Z" fill="black"/>
<path d="M167 45.0003V39.3403H168.66C169.126 39.3353 169.584 39.4526 169.99 39.6803C170.373 39.8997 170.682 40.2265 170.88 40.6203C171.099 41.0542 171.209 41.5346 171.2 42.0203V42.3003C171.209 42.786 171.099 43.2664 170.88 43.7003C170.678 44.0976 170.361 44.425 169.97 44.6403C169.557 44.8662 169.091 44.98 168.62 44.9703L167 45.0003ZM168 40.1603V44.2203H168.64C168.86 44.2332 169.08 44.1968 169.285 44.1138C169.489 44.0307 169.672 43.9031 169.82 43.7403C170.116 43.3428 170.264 42.855 170.24 42.3603V42.0003C170.27 41.5018 170.129 41.008 169.84 40.6003C169.697 40.4367 169.517 40.3084 169.316 40.2252C169.115 40.1419 168.898 40.106 168.68 40.1203L168 40.1603Z" fill="black"/>
<path d="M179.68 42.4603H177.37V44.1903H180.07V45.0003H176.39V39.3403H180V40.1303H177.33V41.6803H179.64L179.68 42.4603Z" fill="black"/>
<path d="M188.2 43.6603H186L185.57 45.0003H184.57L186.7 39.3703H187.57L189.68 45.0003H188.68L188.2 43.6603ZM186.3 42.8703H187.93L187.11 40.5403L186.3 42.8703Z" fill="black"/>
<path d="M197.45 43.5203C197.456 43.4114 197.435 43.3028 197.39 43.2036C197.345 43.1043 197.276 43.0175 197.19 42.9503C196.901 42.7633 196.584 42.6249 196.25 42.5403C195.872 42.4398 195.508 42.2884 195.17 42.0903C194.941 41.9685 194.748 41.7873 194.613 41.5656C194.477 41.344 194.404 41.09 194.4 40.8303C194.395 40.6131 194.442 40.3979 194.538 40.2029C194.634 40.0079 194.775 39.8389 194.95 39.7103C195.364 39.3996 195.874 39.2439 196.39 39.2703C196.751 39.2643 197.109 39.3359 197.44 39.4803C197.731 39.6191 197.98 39.8332 198.16 40.1003C198.331 40.3655 198.422 40.6747 198.42 40.9903H197.42C197.429 40.8616 197.408 40.7325 197.36 40.613C197.311 40.4934 197.236 40.3865 197.14 40.3003C196.92 40.1172 196.636 40.0275 196.35 40.0503C196.089 40.0364 195.829 40.1065 195.61 40.2503C195.523 40.3164 195.452 40.4028 195.405 40.5021C195.358 40.6013 195.336 40.7105 195.34 40.8203C195.342 40.9241 195.369 41.026 195.42 41.1167C195.471 41.2074 195.543 41.2842 195.63 41.3403C195.921 41.5215 196.238 41.6564 196.57 41.7403C196.94 41.8431 197.296 41.9909 197.63 42.1803C197.868 42.323 198.068 42.5222 198.21 42.7603C198.339 42.9892 198.404 43.2479 198.4 43.5103C198.408 43.7267 198.362 43.9416 198.268 44.1367C198.174 44.3318 198.034 44.5011 197.86 44.6303C197.43 44.9281 196.912 45.0725 196.39 45.0403C196.006 45.0458 195.624 44.9708 195.27 44.8203C194.954 44.6877 194.68 44.4695 194.48 44.1903C194.287 43.9229 194.185 43.6002 194.19 43.2703H195.19C195.184 43.4098 195.21 43.549 195.265 43.6772C195.32 43.8054 195.404 43.9193 195.51 44.0103C195.772 44.1977 196.089 44.2895 196.41 44.2703C196.682 44.2885 196.952 44.2183 197.18 44.0703C197.265 44.0061 197.334 43.9229 197.381 43.8274C197.428 43.7319 197.452 43.6267 197.45 43.5203Z" fill="black"/>
</svg>
