<svg width="326" height="420" viewBox="0 0 326 420" fill="none" xmlns="http://www.w3.org/2000/svg">
<path opacity="0.2" d="M61.3364 371.067C69.3166 362.59 81.0944 358.634 92.6669 357.4C104.239 356.167 115.915 357.401 127.538 357.58C150.632 358.017 174.162 354.626 196.537 360.38C207.032 363.078 217.065 367.728 227.739 369.449C239.337 371.298 251.5 369.603 262.713 373.174C266.641 374.215 270.164 376.418 272.823 379.493C277.108 384.914 276.723 392.543 275.825 399.376C275.287 403.538 273.901 408.496 269.847 409.652C267.777 409.945 265.667 409.706 263.714 408.959C255.914 406.872 247.736 406.626 239.825 408.239C234.693 409.267 229.843 411.039 224.711 410.808C215.243 410.346 207.237 403.101 197.794 402.074C184.605 400.687 173.726 411.604 161.486 416.717C151.422 420.861 140.174 421.09 129.95 417.359C124.254 415.252 118.994 411.938 113.118 410.371C108.884 409.241 104.496 409.036 100.288 408.214C86.6368 405.645 75.013 396.91 64.3643 388.048C61.4949 386.021 59.1541 383.334 57.5388 380.212C56.7485 378.642 56.5186 376.847 56.8873 375.128C57.256 373.408 58.2012 371.866 59.5659 370.759L61.3364 371.067Z" fill="#242638"/>
<path d="M111.27 379.57C111.527 381.702 109.782 383.475 108.319 385.068C106.857 386.66 105.523 388.972 106.6 390.848C106.966 391.39 107.465 391.828 108.049 392.121C108.634 392.413 109.284 392.55 109.936 392.518C111.243 392.446 112.532 392.177 113.759 391.721C114.158 391.524 114.597 391.422 115.042 391.422C115.487 391.422 115.926 391.524 116.325 391.721C116.853 392.259 117.164 392.972 117.198 393.725C117.323 394.76 117.682 395.753 118.25 396.628C118.531 397.043 118.915 397.378 119.365 397.599C119.816 397.82 120.316 397.919 120.816 397.887C122.817 397.501 123.382 394.65 125.204 393.828C125.889 393.653 126.603 393.623 127.3 393.738C127.998 393.853 128.664 394.111 129.258 394.496C129.629 394.75 130.056 394.911 130.503 394.964C130.95 395.018 131.403 394.963 131.824 394.804C132.645 394.29 132.67 393.16 132.619 392.235L132.234 385.016C132.266 384.013 132.055 383.017 131.618 382.113C130.728 380.907 129.402 380.095 127.923 379.853C122.201 378.26 118.481 376.976 112.759 378.62L111.27 379.57Z" fill="#242638"/>
<path d="M202.593 381.984C202.465 383.423 201.618 383.731 200.848 384.964C199.283 387.533 195.716 388.946 195.716 391.926C195.748 392.516 195.924 393.09 196.229 393.596C196.534 394.102 196.959 394.525 197.467 394.827C197.974 395.129 198.548 395.301 199.138 395.329C199.728 395.356 200.315 395.237 200.848 394.983C201.357 394.58 201.897 394.219 202.465 393.904C204.184 393.211 205.955 394.829 207.058 396.473C208.161 398.117 209.496 399.813 211.369 399.659C213.935 399.427 214.653 395.934 216.834 394.521C219.015 393.108 221.812 394.521 224.378 394.521C224.756 394.582 225.143 394.519 225.482 394.341C226.251 393.853 225.969 392.671 225.482 391.772L222.377 384.887C221.97 383.875 221.426 382.925 220.76 382.061C219.585 381.007 218.178 380.245 216.652 379.839C215.127 379.432 213.528 379.393 211.985 379.724C208.136 380.109 207.751 378.516 204.287 380.186L202.593 381.984Z" fill="#242638"/>
<path d="M66.007 346.379C59.5151 331.788 61.8245 314.91 58.7966 299.214C57.9242 294.667 58.4374 271.187 54.5628 265.587C49.7388 275.863 47.5577 287.397 41.0402 296.62C38.79 300.168 35.4356 302.877 31.4948 304.326C30.488 299.329 29.9893 294.242 30.0065 289.144C29.9384 285.008 30.4042 280.881 31.3922 276.865C32.2389 273.628 31.8027 269.826 32.6751 266.589C34.2147 260.681 35.9596 255.183 37.1399 249.198C37.7301 246.243 38.6025 243.34 39.4493 240.438L41.5534 233.399C45.1714 221.196 48.7894 208.994 53.2029 197.049C54.3062 194.043 55.7688 191.089 56.6669 188.057C57.3947 185.184 57.8754 182.253 58.1039 179.297C59.0533 172.952 60.2079 166.633 61.6192 160.365C62.5173 156.383 63.4924 152.401 64.5701 148.471C65.219 146.522 65.7672 144.541 66.2123 142.536C66.4432 141.149 66.2123 139.813 66.6228 138.426C68.65 130.129 71.9601 121.959 74.5773 113.816C75.2535 111.45 76.1114 109.139 77.1433 106.906C78.0927 105.03 79.273 103.258 80.4021 101.46C82.968 97.452 84.0201 93.9583 86.817 88.7948C87.3984 87.1788 88.2678 85.6817 89.3829 84.3763C90.4389 83.2028 91.4243 81.9675 92.3338 80.677L95.6439 77.3632C98.8514 74.152 101.751 70.1702 105.087 67.0875C109.758 63.211 114.774 59.7714 120.072 56.8119C122.368 55.7355 124.724 54.792 127.128 53.9861C127.128 53.9861 131.619 52.9842 132.645 52.6245C167.363 41.1158 202.106 48.1032 228.356 70.0674C240.493 80.2146 250.654 93.4959 254.015 108.961C255.888 117.412 258.711 126.763 259.737 135.318C260.841 144.797 264.869 152.478 266.358 161.88C271.335 195.096 280.316 224.125 288.989 254.901C293.531 271.059 298.124 287.988 294.532 304.352C285.522 296.914 278.561 287.292 274.312 276.402C274.505 278.309 274.392 280.234 273.978 282.105C273.824 284.34 273.671 286.601 273.491 288.836C273.132 293.126 272.695 297.442 272.182 301.68C271.156 310.261 269.822 318.815 268.205 327.369C266.588 335.924 264.587 344.273 262.406 352.648C261.49 357.798 259.4 362.668 256.299 366.879C252.84 371.1 248.387 374.393 243.341 376.461C236.156 379.493 228.664 379.929 221.068 381.239C213.563 382.376 205.997 383.062 198.411 383.295C181.244 384.245 164.078 384.348 146.886 384.451C140.893 384.611 134.895 384.414 128.924 383.86C121.317 382.897 113.817 381.219 106.524 378.85C97.7383 376.53 89.3672 372.856 81.7107 367.958C74.0179 362.962 68.471 355.264 66.161 346.379" fill="#E4494F"/>
<path opacity="0.2" d="M68.7021 139.506C62.0819 152.351 59.9778 167.173 58.002 181.559C56.4111 192.991 51.9207 203.266 50.3041 214.724C48.2514 228.673 49.1751 243.829 49.4574 257.83C49.3144 260.239 49.7915 262.645 50.843 264.817C51.4075 265.768 52.5109 266.641 53.409 266.23C54.3071 265.819 54.4867 264.869 54.6663 263.995C57.2246 252.055 59.0329 239.966 60.0805 227.799C60.8246 216.676 60.3114 205.476 60.722 194.404C61.2035 180.413 63.1297 166.51 66.4697 152.916C67.5731 148.471 68.8304 143.77 67.6501 139.326" fill="#040015"/>
<path d="M66.0073 346.38C59.5154 331.788 61.8247 314.911 58.7969 299.215C57.9245 294.668 48.7896 209.02 53.2031 197.075C54.3065 194.069 55.769 191.115 56.6671 188.084C57.3949 185.21 57.8757 182.279 58.1041 179.324C59.0535 172.978 60.2082 166.659 61.6195 160.391C62.5175 156.409 63.4926 152.427 64.5703 148.497C65.2193 146.548 65.7674 144.568 66.2125 142.563C66.4435 141.175 66.2125 139.839 66.6231 138.452C68.6502 130.155 71.9603 121.986 74.5776 113.842C75.2538 111.476 76.1116 109.166 77.1436 106.932C78.093 105.056 79.2733 103.284 80.4023 101.486C82.9683 97.4782 84.0203 93.9844 86.8172 88.8209C87.3987 87.2049 88.2681 85.7078 89.3832 84.4024C90.4391 83.2289 91.4245 81.9937 92.3341 80.7032L95.6441 77.3893C98.8516 74.1781 101.751 70.1963 105.087 67.1136C109.758 63.2371 114.774 59.7975 120.072 56.838C122.368 55.7617 124.724 54.8182 127.129 54.0122C127.129 54.0122 131.619 53.0103 132.645 52.6507C167.363 41.1419 202.106 48.1294 228.356 70.0936C240.493 80.2408 250.654 93.522 254.015 108.987C255.889 117.439 258.711 126.789 259.738 135.344C260.841 144.823 264.87 152.504 266.358 161.906C271.336 195.122 274.056 280.59 273.85 282.029C273.696 284.264 273.542 286.524 273.363 288.759C273.004 293.049 272.567 297.365 272.054 301.604C271.028 310.184 269.694 318.738 268.077 327.293C266.46 335.847 264.459 344.196 262.278 352.571C261.362 357.722 259.272 362.592 256.171 366.803C252.712 371.023 248.259 374.316 243.213 376.385C236.028 379.416 228.535 379.853 220.94 381.163C213.435 382.299 205.869 382.985 198.283 383.218C181.116 384.168 163.95 384.271 146.758 384.374C140.764 384.535 134.767 384.338 128.796 383.783C121.189 382.82 113.689 381.143 106.396 378.774C97.6103 376.454 89.2392 372.779 81.5827 367.882C73.8898 362.885 68.3429 355.187 66.0329 346.303" fill="#F14F51"/>
<path d="M143.808 374.663C132.603 373.858 121.39 372.925 110.168 371.863C103.661 371.614 97.25 370.214 91.231 367.727C85.7384 365.085 81.2404 360.744 78.4012 355.345C74.193 347.253 74.1673 337.697 74.2443 328.577C74.2443 315.501 75.1937 302.194 74.2443 289.17C71.6783 254.464 73.3719 219.116 74.5266 184.384L74.8601 174.288C75.476 156.1 76.5024 138.324 81.9935 120.804C85.4682 110.526 91.0042 101.067 98.2617 93.008C99.5632 91.3458 101.165 89.9428 102.983 88.8721C104.423 88.1662 105.95 87.6565 107.525 87.3564C110.455 86.5321 113.467 86.0325 116.506 85.8665C121.947 86.1626 127.272 87.5608 132.158 89.9767C137.778 92.3144 143.654 94.8833 147.4 99.7129C148.541 101.172 149.411 102.826 149.966 104.594C150.456 106.528 150.74 108.508 150.813 110.502C151.734 122.136 153.562 133.68 156.278 145.028C157.689 151.091 160.82 153.891 167.184 153.249C169.442 153.136 171.587 152.226 173.239 150.68C174.228 149.574 175.018 148.305 175.574 146.929C176.833 144.111 177.788 141.165 178.422 138.144C178.837 135.174 178.932 132.168 178.705 129.178C178.876 122.476 179.964 115.83 181.938 109.423C182.648 106.218 184.039 103.204 186.018 100.586C188.867 97.633 192.47 95.5183 196.436 94.4723C199.607 93.3288 202.894 92.5362 206.238 92.1089C208.507 91.9118 210.788 91.8689 213.063 91.9805C215.744 91.9513 218.416 92.3148 220.992 93.0594C223.452 94.0075 225.78 95.268 227.92 96.81C230.414 98.2647 232.637 100.142 234.489 102.359C235.688 104.11 236.654 106.009 237.363 108.01C240.391 115.589 243.418 123.141 246.113 130.848C247.344 134.393 248.319 137.81 249.833 141.124C251.495 144.787 252.843 148.586 253.862 152.478C255.385 159.437 256.244 166.525 256.428 173.646C256.428 180.12 257.044 186.08 257.429 192.553C257.608 195.867 257.916 199.746 258.096 203.034C258.277 205.62 258.603 208.192 259.071 210.741C260.089 217.032 260.698 223.382 260.893 229.751C261.149 236.096 260.893 242.467 260.687 248.812C260.071 263.584 259.815 278.175 259.173 292.895C258.994 296.851 259.173 300.807 258.942 304.763C258.711 308.719 258.25 312.47 257.736 316.4C256.12 328.962 255.555 342.501 249.192 353.778C248.057 355.905 246.603 357.846 244.881 359.532C242.227 361.635 239.354 363.444 236.311 364.927C232.827 367.365 229.135 369.488 225.277 371.272C222.176 372.309 218.946 372.914 215.68 373.071C193.254 375.049 171.34 374.304 148.811 374.252C148.709 374.509 144.962 374.74 143.808 374.663Z" fill="white"/>
<path d="M173.521 138.477C171.415 138.023 169.254 137.876 167.106 138.041C164.54 138.041 161.974 138.041 159.408 138.041C159.247 138.037 159.088 138.066 158.938 138.125C158.789 138.184 158.653 138.273 158.538 138.385C158.424 138.498 158.333 138.632 158.27 138.78C158.208 138.928 158.176 139.087 158.176 139.248C158.101 139.409 158.062 139.584 158.062 139.762C158.062 139.939 158.101 140.115 158.176 140.276C159.818 142.845 161.794 148.239 165.335 148.83C168.876 149.421 170.724 145.799 172.879 143.692C174.367 142.151 176.574 139.633 173.521 138.477Z" fill="white"/>
<path opacity="0.1" d="M259.815 135.472C258.789 126.918 255.966 117.49 254.093 109.115C253.734 107.446 253.246 105.776 252.733 104.157C251.861 101.871 250.988 99.5846 250.039 97.324C244.864 86.8273 237.475 77.5804 228.382 70.222C214.378 58.3951 197.315 50.78 179.167 48.2578C190.072 64.5704 207.675 75.0772 221.121 89.5659C234.566 104.055 241.854 122.474 246.139 141.715C250.419 160.905 252.995 180.436 253.837 200.08C256.249 256.596 258.584 314.012 244.317 368.678C243.497 371.16 243.157 373.775 243.316 376.385C248.314 374.295 252.721 371.004 256.146 366.803C259.247 362.592 261.337 357.722 262.253 352.571C264.434 344.196 266.41 335.796 268.052 327.293C269.694 318.79 271.003 310.261 272.029 301.604C272.26 299.574 272.44 297.519 272.645 295.49C272.782 279.751 272.782 264.012 272.645 248.273C271.439 220.195 269.309 181.713 266.333 161.855C265.024 152.633 260.919 144.952 259.815 135.472Z" fill="#040015"/>
<path d="M118.43 129.024C118.221 128.352 117.811 127.76 117.256 127.329C116.701 126.897 116.027 126.646 115.325 126.609C114.514 126.672 113.725 126.9 113.005 127.28C112.286 127.66 111.652 128.184 111.143 128.819C111.019 128.957 110.927 129.12 110.874 129.298C110.821 129.476 110.807 129.663 110.835 129.846C110.375 130.628 110.111 131.509 110.065 132.415C110.065 135.395 113.555 136.911 116.121 136.551C119.79 136.114 119.559 131.644 118.43 129.024Z" fill="#242638"/>
<path d="M219.041 130.54C218.836 129.606 218.374 128.748 217.707 128.063C217.041 127.377 216.197 126.892 215.269 126.661C214.484 126.512 213.673 126.595 212.935 126.901C212.196 127.206 211.563 127.721 211.113 128.382C208.162 129.923 207.11 133.931 210.702 135.806C211.686 136.313 212.777 136.578 213.884 136.578C214.991 136.578 216.082 136.313 217.066 135.806C217.951 135.291 218.632 134.486 218.992 133.526C219.352 132.566 219.369 131.511 219.041 130.54Z" fill="#242638"/>
<path d="M151.146 220.837C151.473 220.837 151.788 220.713 152.027 220.488C152.266 220.264 152.409 219.956 152.429 219.629L152.865 212.77C152.876 212.602 152.853 212.433 152.798 212.273C152.743 212.113 152.657 211.965 152.545 211.839C152.432 211.712 152.297 211.609 152.145 211.536C151.993 211.462 151.828 211.419 151.659 211.409C151.489 211.391 151.317 211.409 151.154 211.461C150.992 211.513 150.841 211.599 150.714 211.713C150.586 211.826 150.483 211.965 150.411 212.121C150.34 212.276 150.302 212.445 150.299 212.616L149.863 219.475C149.856 219.825 149.987 220.164 150.226 220.419C150.466 220.673 150.797 220.823 151.146 220.837Z" fill="#242638"/>
<path d="M166.26 209.919C166.092 209.894 165.922 209.902 165.758 209.945C165.594 209.987 165.441 210.062 165.306 210.165C165.172 210.268 165.06 210.397 164.977 210.545C164.894 210.692 164.841 210.855 164.823 211.023L164.386 214.235C164.343 214.572 164.434 214.913 164.641 215.182C164.848 215.452 165.153 215.628 165.49 215.673H165.669C165.983 215.67 166.285 215.554 166.521 215.347C166.756 215.139 166.909 214.854 166.952 214.543L167.363 211.332C167.399 210.999 167.304 210.665 167.098 210.401C166.892 210.137 166.591 209.964 166.26 209.919Z" fill="#242638"/>
<path d="M190.534 220.683C190.707 220.774 190.902 220.818 191.098 220.811C191.336 220.814 191.57 220.751 191.774 220.628C191.977 220.506 192.143 220.329 192.253 220.117C193.222 218.162 193.597 215.965 193.33 213.798C193.309 213.629 193.254 213.467 193.169 213.319C193.084 213.172 192.971 213.042 192.837 212.939C192.702 212.835 192.548 212.759 192.384 212.714C192.22 212.67 192.049 212.659 191.881 212.68C191.712 212.702 191.55 212.757 191.402 212.842C191.255 212.927 191.126 213.04 191.022 213.175C190.919 213.309 190.843 213.463 190.798 213.628C190.754 213.792 190.743 213.963 190.764 214.132C190.981 215.785 190.704 217.465 189.969 218.961C189.89 219.111 189.842 219.275 189.828 219.443C189.814 219.612 189.834 219.781 189.886 219.942C189.939 220.103 190.023 220.251 190.135 220.378C190.246 220.505 190.382 220.609 190.534 220.683Z" fill="#242638"/>
<path d="M182.117 226.54C182.27 226.564 182.426 226.564 182.579 226.54C182.837 226.544 183.09 226.467 183.301 226.319C183.513 226.172 183.673 225.961 183.759 225.718C184.147 224.713 184.389 223.657 184.478 222.584C184.496 222.416 184.479 222.247 184.431 222.086C184.382 221.925 184.301 221.775 184.193 221.646C184.086 221.516 183.953 221.41 183.804 221.333C183.654 221.256 183.491 221.209 183.323 221.196C182.99 221.181 182.662 221.29 182.406 221.505C182.149 221.719 181.982 222.021 181.938 222.352C181.863 223.188 181.673 224.009 181.373 224.793C181.299 224.955 181.259 225.132 181.257 225.31C181.255 225.489 181.29 225.666 181.36 225.831C181.43 225.995 181.533 226.143 181.664 226.265C181.794 226.387 181.949 226.481 182.117 226.54Z" fill="#242638"/>
<path d="M171.443 230.676C171.783 230.676 172.109 230.54 172.35 230.299C172.591 230.059 172.726 229.732 172.726 229.391V224.459C172.726 224.118 172.591 223.792 172.35 223.551C172.109 223.31 171.783 223.174 171.443 223.174C171.103 223.174 170.776 223.31 170.536 223.551C170.295 223.792 170.16 224.118 170.16 224.459V229.391C170.16 229.732 170.295 230.059 170.536 230.299C170.776 230.54 171.103 230.676 171.443 230.676Z" fill="#242638"/>
<path d="M157.971 228.98C158.31 228.974 158.632 228.836 158.871 228.597C159.111 228.357 159.248 228.034 159.254 227.696V223.611C159.248 223.273 159.111 222.95 158.871 222.71C158.632 222.471 158.31 222.333 157.971 222.327C157.631 222.327 157.305 222.462 157.064 222.703C156.824 222.944 156.688 223.27 156.688 223.611V227.593C156.674 227.77 156.697 227.948 156.755 228.116C156.813 228.284 156.905 228.438 157.026 228.568C157.147 228.699 157.293 228.803 157.456 228.874C157.618 228.944 157.794 228.981 157.971 228.98Z" fill="#242638"/>
<path d="M135.057 220.194C135.252 220.192 135.445 220.148 135.622 220.066C135.927 219.921 136.162 219.662 136.277 219.345C136.392 219.027 136.378 218.678 136.238 218.371C135.622 217.045 135.494 215.543 135.878 214.132C135.929 213.97 135.947 213.8 135.93 213.631C135.913 213.462 135.863 213.298 135.781 213.149C135.7 213.001 135.589 212.87 135.456 212.765C135.323 212.66 135.17 212.583 135.006 212.539C134.679 212.444 134.328 212.482 134.03 212.646C133.732 212.81 133.51 213.086 133.415 213.413C132.853 215.419 133.026 217.56 133.903 219.45C134.007 219.669 134.171 219.854 134.375 219.986C134.578 220.117 134.815 220.19 135.057 220.194Z" fill="#242638"/>
<path d="M143.961 229.597C144.283 229.592 144.591 229.469 144.828 229.251C145.065 229.033 145.213 228.735 145.244 228.415L145.45 225.846C145.464 225.677 145.444 225.507 145.392 225.346C145.34 225.185 145.257 225.036 145.148 224.907C145.038 224.778 144.904 224.672 144.753 224.595C144.602 224.518 144.438 224.472 144.269 224.459C143.937 224.449 143.613 224.561 143.357 224.774C143.102 224.987 142.934 225.286 142.884 225.615L142.678 228.184C142.66 228.363 142.68 228.544 142.737 228.715C142.793 228.886 142.885 229.043 143.006 229.176C143.127 229.31 143.274 229.416 143.439 229.488C143.603 229.561 143.781 229.598 143.961 229.597Z" fill="#242638"/>
<path d="M124.87 230.162C125.206 230.162 125.529 230.03 125.769 229.795C126.009 229.559 126.147 229.239 126.153 228.903C126.159 227.234 126.527 225.586 127.231 224.074C127.318 223.92 127.373 223.751 127.392 223.575C127.41 223.4 127.393 223.222 127.34 223.054C127.287 222.886 127.201 222.73 127.085 222.597C126.97 222.464 126.828 222.356 126.669 222.28C126.51 222.203 126.337 222.161 126.161 222.155C125.985 222.149 125.81 222.179 125.646 222.243C125.482 222.308 125.333 222.406 125.208 222.531C125.084 222.656 124.986 222.805 124.922 222.969C124.049 224.816 123.593 226.834 123.588 228.877C123.588 229.218 123.723 229.545 123.963 229.786C124.204 230.027 124.53 230.162 124.87 230.162Z" fill="#242638"/>
<path d="M111.553 230.47C111.891 230.444 112.206 230.287 112.431 230.033C112.656 229.779 112.773 229.448 112.759 229.109C112.63 227.216 112.759 225.315 113.144 223.457C113.182 223.29 113.185 223.117 113.155 222.948C113.125 222.78 113.061 222.619 112.968 222.475C112.875 222.332 112.754 222.208 112.612 222.112C112.471 222.016 112.311 221.949 112.143 221.916C111.978 221.882 111.808 221.881 111.643 221.913C111.477 221.945 111.32 222.01 111.179 222.103C111.038 222.196 110.918 222.316 110.823 222.455C110.729 222.595 110.663 222.752 110.629 222.918C110.189 225.002 110.043 227.138 110.193 229.263C110.203 229.432 110.246 229.597 110.32 229.749C110.393 229.901 110.496 230.037 110.623 230.149C110.749 230.261 110.896 230.347 111.056 230.403C111.216 230.458 111.385 230.481 111.553 230.47Z" fill="#242638"/>
<path d="M135.596 233.296C135.266 233.219 134.919 233.275 134.631 233.453C134.342 233.631 134.136 233.917 134.057 234.246C133.531 236.355 133.531 238.56 134.057 240.669C134.135 240.942 134.3 241.183 134.526 241.355C134.753 241.526 135.03 241.619 135.314 241.619C135.424 241.642 135.538 241.642 135.648 241.619C135.973 241.529 136.25 241.314 136.418 241.02C136.586 240.727 136.632 240.379 136.546 240.052C136.111 238.367 136.111 236.599 136.546 234.914C136.596 234.746 136.61 234.568 136.589 234.394C136.568 234.219 136.511 234.051 136.422 233.899C136.333 233.747 136.214 233.615 136.072 233.512C135.93 233.408 135.768 233.334 135.596 233.296Z" fill="#242638"/>
<path d="M152.788 236.79C152.83 236.621 152.839 236.446 152.813 236.274C152.788 236.102 152.729 235.936 152.639 235.787C152.55 235.638 152.432 235.508 152.293 235.405C152.153 235.301 151.994 235.226 151.826 235.184C151.657 235.142 151.482 235.133 151.311 235.159C151.139 235.185 150.974 235.244 150.825 235.333C150.676 235.423 150.546 235.541 150.443 235.68C150.339 235.82 150.264 235.979 150.222 236.147C149.726 238.005 149.899 239.979 150.71 241.722C150.809 241.945 150.971 242.134 151.177 242.266C151.382 242.399 151.621 242.468 151.864 242.467C152.042 242.502 152.225 242.502 152.403 242.467C152.713 242.327 152.954 242.07 153.074 241.752C153.194 241.434 153.184 241.082 153.045 240.771C152.483 239.518 152.392 238.105 152.788 236.79Z" fill="#242638"/>
<path d="M163.822 237.124C163.653 237.14 163.489 237.189 163.339 237.269C163.19 237.349 163.057 237.458 162.95 237.589C162.843 237.72 162.762 237.872 162.714 238.034C162.665 238.197 162.649 238.368 162.667 238.537C162.744 239.242 162.692 239.956 162.513 240.643C162.427 240.97 162.472 241.318 162.641 241.611C162.809 241.905 163.086 242.12 163.411 242.21H163.745C164.029 242.207 164.304 242.109 164.527 241.933C164.75 241.756 164.908 241.51 164.977 241.234C165.255 240.249 165.342 239.22 165.233 238.203C165.182 237.875 165.007 237.58 164.744 237.379C164.481 237.178 164.151 237.087 163.822 237.124Z" fill="#242638"/>
<path d="M178.704 242.672H178.935C179.102 242.645 179.261 242.584 179.403 242.493C179.546 242.403 179.668 242.284 179.764 242.145C179.86 242.006 179.927 241.849 179.961 241.684C179.995 241.519 179.995 241.348 179.962 241.182C179.744 240.071 179.744 238.928 179.962 237.817C180.023 237.484 179.953 237.14 179.766 236.858C179.58 236.575 179.291 236.376 178.961 236.302C178.796 236.268 178.626 236.267 178.46 236.299C178.295 236.331 178.137 236.395 177.997 236.489C177.856 236.582 177.735 236.701 177.641 236.841C177.547 236.981 177.481 237.138 177.447 237.303C177.152 238.744 177.152 240.23 177.447 241.671C177.507 241.958 177.665 242.216 177.895 242.399C178.125 242.582 178.411 242.679 178.704 242.672Z" fill="#242638"/>
<path d="M193.895 233.681C193.555 233.681 193.228 233.817 192.988 234.057C192.747 234.298 192.612 234.625 192.612 234.966V236.892C192.612 237.233 192.747 237.56 192.988 237.801C193.228 238.042 193.555 238.177 193.895 238.177C194.235 238.177 194.562 238.042 194.802 237.801C195.043 237.56 195.178 237.233 195.178 236.892V234.966C195.178 234.625 195.043 234.298 194.802 234.057C194.562 233.817 194.235 233.681 193.895 233.681Z" fill="#242638"/>
<path d="M199.899 229.186C200.231 229.186 200.55 229.058 200.789 228.828C201.028 228.598 201.169 228.284 201.182 227.953C201.26 225.921 201.105 223.887 200.72 221.89C200.693 221.723 200.632 221.564 200.541 221.422C200.451 221.279 200.333 221.156 200.194 221.06C200.055 220.964 199.898 220.897 199.733 220.863C199.568 220.829 199.398 220.829 199.232 220.862C198.899 220.925 198.605 221.117 198.412 221.396C198.22 221.675 198.146 222.019 198.206 222.352C198.548 224.164 198.686 226.008 198.616 227.85C198.609 228.023 198.637 228.195 198.699 228.357C198.76 228.519 198.854 228.667 198.973 228.791C199.093 228.916 199.237 229.016 199.396 229.083C199.555 229.151 199.726 229.186 199.899 229.186Z" fill="#242638"/>
<path d="M206.93 234.812C206.607 234.706 206.255 234.734 205.952 234.888C205.649 235.042 205.419 235.31 205.314 235.634C204.896 236.874 204.807 238.202 205.057 239.487C205.115 239.78 205.272 240.044 205.5 240.235C205.729 240.427 206.016 240.534 206.314 240.54H206.571C206.901 240.466 207.19 240.267 207.376 239.984C207.563 239.702 207.633 239.358 207.572 239.025C207.413 238.167 207.474 237.283 207.751 236.456C207.857 236.129 207.831 235.773 207.677 235.465C207.523 235.158 207.255 234.923 206.93 234.812Z" fill="#242638"/>
<path d="M107.884 241.182C108.044 241.219 108.211 241.219 108.371 241.182C108.528 241.121 108.671 241.028 108.791 240.91C108.911 240.791 109.006 240.65 109.071 240.494C109.136 240.339 109.168 240.172 109.167 240.003C109.166 239.834 109.131 239.668 109.064 239.513C108.404 237.862 107.947 236.137 107.704 234.375C107.663 234.034 107.489 233.724 107.22 233.512C106.95 233.3 106.608 233.204 106.267 233.245C105.927 233.285 105.617 233.46 105.405 233.73C105.193 234 105.097 234.342 105.138 234.683C105.402 236.712 105.928 238.698 106.703 240.592C106.828 240.788 107.004 240.947 107.212 241.051C107.42 241.155 107.652 241.2 107.884 241.182Z" fill="#242638"/>
<path d="M90.7945 247.425C90.8558 247.092 90.7858 246.748 90.5992 246.465C90.4126 246.183 90.124 245.983 89.7938 245.909C89.6287 245.876 89.4585 245.875 89.2931 245.907C89.1276 245.939 88.9701 246.003 88.8295 246.096C88.6889 246.189 88.568 246.309 88.4737 246.449C88.3794 246.589 88.3135 246.746 88.2799 246.911C87.8092 249.23 87.853 251.624 88.4082 253.924C88.4775 254.205 88.6393 254.454 88.8674 254.631C89.0956 254.808 89.3768 254.903 89.6655 254.901H89.9477C90.1136 254.861 90.2701 254.79 90.408 254.689C90.5459 254.589 90.6624 254.462 90.7508 254.316C90.8392 254.17 90.8976 254.008 90.9227 253.84C90.9479 253.671 90.9392 253.499 90.8972 253.333C90.4363 251.395 90.4012 249.379 90.7945 247.425Z" fill="#242638"/>
<path d="M100.981 248.144C100.812 248.151 100.645 248.191 100.491 248.264C100.338 248.337 100.2 248.44 100.088 248.567C99.975 248.694 99.8892 248.843 99.8355 249.004C99.7819 249.166 99.7614 249.336 99.7754 249.506C99.8375 250.376 99.7241 251.249 99.4418 252.075C99.3354 252.395 99.3592 252.744 99.508 253.047C99.6569 253.35 99.9189 253.582 100.237 253.693H100.648C100.919 253.697 101.184 253.614 101.405 253.457C101.627 253.3 101.793 253.077 101.879 252.82C102.25 251.685 102.406 250.492 102.341 249.3C102.328 249.135 102.283 248.973 102.207 248.826C102.132 248.678 102.028 248.546 101.902 248.439C101.775 248.332 101.629 248.25 101.471 248.2C101.313 248.149 101.147 248.13 100.981 248.144Z" fill="#242638"/>
<path d="M125.897 247.887L126.128 252.794C126.141 253.126 126.282 253.439 126.521 253.669C126.76 253.899 127.079 254.027 127.411 254.027C127.582 254.02 127.749 253.98 127.904 253.908C128.059 253.835 128.198 253.733 128.313 253.606C128.428 253.479 128.516 253.33 128.572 253.169C128.629 253.007 128.653 252.836 128.642 252.665L128.386 247.759C128.383 247.589 128.345 247.422 128.276 247.267C128.206 247.112 128.106 246.972 127.982 246.857C127.857 246.742 127.71 246.653 127.55 246.596C127.391 246.539 127.221 246.515 127.052 246.526C126.72 246.558 126.415 246.719 126.199 246.973C125.984 247.227 125.875 247.555 125.897 247.887Z" fill="#242638"/>
<path d="M119.867 240.437C120.034 240.438 120.2 240.404 120.354 240.339C120.508 240.274 120.648 240.179 120.765 240.06C120.882 239.94 120.974 239.798 121.036 239.643C121.098 239.487 121.128 239.32 121.124 239.153C121.118 237.968 121.256 236.786 121.535 235.634C121.62 235.293 121.566 234.932 121.386 234.631C121.205 234.33 120.913 234.113 120.573 234.028C120.232 233.943 119.872 233.997 119.571 234.177C119.271 234.358 119.054 234.651 118.969 234.991C118.641 236.363 118.477 237.769 118.481 239.179C118.488 239.353 118.529 239.524 118.603 239.683C118.676 239.841 118.78 239.983 118.91 240.1C119.039 240.217 119.19 240.307 119.354 240.365C119.519 240.423 119.693 240.448 119.867 240.437Z" fill="#242638"/>
<path d="M113.888 247.964C113.913 247.796 113.904 247.625 113.859 247.461C113.815 247.297 113.738 247.144 113.632 247.011C113.526 246.878 113.394 246.769 113.243 246.69C113.093 246.611 112.928 246.564 112.759 246.552C112.423 246.515 112.085 246.614 111.821 246.826C111.557 247.037 111.387 247.345 111.348 247.682C111.153 249.408 111.31 251.156 111.81 252.82C111.887 253.08 112.046 253.308 112.264 253.47C112.481 253.632 112.745 253.719 113.016 253.719C113.143 253.744 113.274 253.744 113.401 253.719C113.723 253.618 113.992 253.394 114.15 253.096C114.309 252.798 114.344 252.45 114.247 252.126C113.848 250.777 113.726 249.362 113.888 247.964Z" fill="#242638"/>
<path d="M142.191 250.713H142.524C142.688 250.669 142.842 250.592 142.976 250.488C143.11 250.383 143.223 250.253 143.306 250.105C143.39 249.957 143.443 249.793 143.463 249.624C143.483 249.455 143.469 249.284 143.422 249.12C143.042 247.794 142.877 246.415 142.935 245.036C142.942 244.697 142.818 244.368 142.588 244.119C142.358 243.87 142.041 243.72 141.703 243.7C141.366 243.699 141.042 243.826 140.794 244.054C140.547 244.283 140.395 244.597 140.369 244.933C140.307 246.59 140.506 248.245 140.959 249.84C141.042 250.099 141.207 250.325 141.429 250.482C141.652 250.64 141.919 250.721 142.191 250.713Z" fill="#242638"/>
<path d="M156.432 253.282C156.073 251.907 155.995 250.475 156.201 249.069C156.226 248.9 156.218 248.728 156.177 248.563C156.136 248.397 156.063 248.242 155.961 248.104C155.86 247.967 155.733 247.851 155.587 247.763C155.441 247.675 155.279 247.617 155.11 247.592C154.942 247.567 154.77 247.575 154.605 247.616C154.439 247.657 154.284 247.731 154.147 247.832C154.01 247.933 153.894 248.061 153.806 248.207C153.718 248.353 153.66 248.515 153.635 248.684C153.395 250.398 153.491 252.144 153.917 253.822C153.99 254.093 154.15 254.333 154.373 254.505C154.595 254.677 154.868 254.77 155.149 254.772H155.482C155.801 254.693 156.077 254.494 156.254 254.217C156.43 253.939 156.494 253.605 156.432 253.282Z" fill="#242638"/>
<path d="M228.125 237.869H228.279C228.615 237.83 228.923 237.66 229.134 237.395C229.346 237.13 229.444 236.793 229.408 236.456C229.211 234.75 229.168 233.031 229.28 231.318C229.29 231.149 229.267 230.98 229.212 230.82C229.157 230.66 229.071 230.513 228.959 230.386C228.847 230.26 228.711 230.157 228.559 230.083C228.407 230.009 228.242 229.966 228.074 229.956C227.735 229.942 227.404 230.06 227.15 230.285C226.896 230.51 226.74 230.825 226.714 231.164C226.59 233.022 226.633 234.888 226.842 236.738C226.885 237.049 227.038 237.335 227.274 237.542C227.509 237.75 227.811 237.865 228.125 237.869Z" fill="#242638"/>
<path d="M215.937 232.397C216.277 232.397 216.603 232.262 216.844 232.021C217.084 231.78 217.22 231.453 217.22 231.112V227.901C217.22 227.561 217.084 227.234 216.844 226.993C216.603 226.752 216.277 226.617 215.937 226.617C215.596 226.617 215.27 226.752 215.029 226.993C214.789 227.234 214.654 227.561 214.654 227.901V231.112C214.654 231.453 214.789 231.78 215.029 232.021C215.27 232.262 215.596 232.397 215.937 232.397Z" fill="#242638"/>
<path d="M244.573 241.105C244.556 240.765 244.404 240.445 244.152 240.216C243.899 239.987 243.566 239.868 243.226 239.885C242.885 239.902 242.566 240.054 242.337 240.307C242.109 240.56 241.99 240.893 242.007 241.234L242.263 246.166C242.283 246.493 242.427 246.801 242.665 247.025C242.904 247.249 243.219 247.374 243.546 247.374C243.714 247.367 243.878 247.327 244.03 247.256C244.182 247.185 244.318 247.084 244.43 246.96C244.543 246.835 244.629 246.69 244.684 246.531C244.74 246.373 244.763 246.205 244.752 246.038L244.573 241.105Z" fill="#242638"/>
<path d="M235.823 250.328C235.75 248.544 235.819 246.757 236.028 244.984C236.053 244.817 236.045 244.646 236.002 244.482C235.96 244.318 235.885 244.165 235.782 244.03C235.679 243.896 235.55 243.784 235.403 243.701C235.255 243.617 235.093 243.565 234.925 243.546C234.588 243.502 234.248 243.594 233.978 243.801C233.709 244.008 233.532 244.313 233.488 244.651C233.253 246.576 233.184 248.519 233.282 250.456C233.296 250.781 233.434 251.088 233.668 251.313C233.903 251.538 234.215 251.664 234.54 251.664C234.714 251.668 234.887 251.635 235.047 251.569C235.208 251.502 235.354 251.403 235.474 251.278C235.595 251.152 235.688 251.003 235.748 250.839C235.808 250.676 235.834 250.502 235.823 250.328Z" fill="#242638"/>
<path d="M224.045 245.113C224.083 244.948 224.088 244.776 224.059 244.609C224.03 244.442 223.969 244.282 223.878 244.139C223.788 243.996 223.67 243.872 223.531 243.774C223.392 243.677 223.235 243.608 223.07 243.572C222.906 243.53 222.736 243.521 222.569 243.547C222.402 243.572 222.242 243.631 222.099 243.72C221.955 243.808 221.831 243.925 221.733 244.063C221.635 244.201 221.566 244.357 221.53 244.522C221.114 246.318 221.202 248.194 221.787 249.942C221.869 250.198 222.03 250.42 222.247 250.577C222.464 250.734 222.725 250.818 222.993 250.816C223.129 250.843 223.268 250.843 223.404 250.816C223.727 250.71 223.995 250.48 224.149 250.177C224.303 249.873 224.33 249.521 224.225 249.198C223.78 247.88 223.718 246.464 224.045 245.113Z" fill="#242638"/>
<path d="M211.651 253.282H212.036C212.198 253.233 212.349 253.151 212.478 253.042C212.608 252.933 212.714 252.799 212.791 252.648C212.868 252.497 212.913 252.332 212.925 252.163C212.936 251.993 212.913 251.824 212.857 251.664C212.474 250.487 212.292 249.253 212.319 248.016C212.322 247.847 212.292 247.679 212.231 247.522C212.169 247.365 212.078 247.222 211.961 247.1C211.844 246.978 211.705 246.881 211.55 246.813C211.396 246.746 211.23 246.709 211.061 246.706C210.894 246.699 210.727 246.725 210.57 246.784C210.413 246.843 210.27 246.932 210.148 247.047C210.026 247.162 209.928 247.3 209.86 247.453C209.793 247.606 209.756 247.771 209.753 247.939C209.703 249.474 209.929 251.005 210.42 252.46C210.515 252.708 210.685 252.92 210.905 253.067C211.126 253.214 211.386 253.289 211.651 253.282Z" fill="#242638"/>
<path d="M197.77 254.027H198.052C198.217 253.991 198.374 253.922 198.513 253.824C198.651 253.727 198.77 253.603 198.86 253.46C198.951 253.317 199.012 253.157 199.041 252.989C199.069 252.822 199.065 252.651 199.027 252.486C198.622 250.718 198.483 248.9 198.616 247.091C198.651 246.904 198.643 246.712 198.594 246.528C198.545 246.345 198.456 246.174 198.333 246.029C198.21 245.884 198.057 245.768 197.884 245.69C197.711 245.611 197.523 245.572 197.333 245.575C196.994 245.554 196.66 245.665 196.402 245.886C196.143 246.106 195.98 246.419 195.948 246.757C195.793 248.824 195.948 250.902 196.41 252.922C196.454 253.245 196.62 253.538 196.872 253.743C197.124 253.948 197.445 254.05 197.77 254.027Z" fill="#242638"/>
<path d="M185.556 255.517H185.735C186.043 255.521 186.341 255.414 186.577 255.216C186.812 255.018 186.969 254.742 187.018 254.438C187.323 252.466 187.486 250.474 187.506 248.478C187.509 248.307 187.478 248.138 187.415 247.979C187.353 247.82 187.259 247.675 187.139 247.553C187.02 247.431 186.877 247.334 186.72 247.268C186.562 247.202 186.393 247.168 186.223 247.168C185.882 247.168 185.556 247.303 185.316 247.544C185.075 247.785 184.94 248.112 184.94 248.453C184.915 250.319 184.761 252.182 184.478 254.027C184.426 254.367 184.51 254.714 184.712 254.993C184.913 255.272 185.216 255.46 185.556 255.517Z" fill="#242638"/>
<path d="M169.698 261.194L170.134 255.414C170.148 255.246 170.128 255.076 170.076 254.915C170.024 254.754 169.941 254.605 169.831 254.476C169.721 254.347 169.587 254.241 169.437 254.164C169.286 254.087 169.122 254.041 168.954 254.027C168.785 254.014 168.616 254.033 168.455 254.086C168.294 254.138 168.145 254.221 168.017 254.331C167.888 254.44 167.782 254.574 167.705 254.725C167.628 254.876 167.582 255.04 167.568 255.209L167.158 260.989C167.144 261.158 167.163 261.327 167.215 261.489C167.267 261.65 167.35 261.799 167.459 261.928C167.569 262.057 167.703 262.163 167.854 262.24C168.005 262.317 168.169 262.363 168.338 262.376C168.505 262.39 168.674 262.37 168.833 262.318C168.993 262.266 169.14 262.182 169.267 262.072C169.394 261.962 169.497 261.828 169.571 261.677C169.645 261.526 169.688 261.362 169.698 261.194Z" fill="#242638"/>
<path d="M158.587 271.496C158.573 271.666 158.594 271.838 158.647 272.001C158.7 272.164 158.786 272.314 158.898 272.444C159.011 272.573 159.148 272.678 159.301 272.754C159.455 272.829 159.622 272.873 159.793 272.883C160.119 272.877 160.431 272.751 160.668 272.527C160.905 272.304 161.051 272 161.076 271.675L161.487 265.253C161.501 265.086 161.481 264.917 161.429 264.757C161.377 264.598 161.293 264.45 161.183 264.323C161.073 264.196 160.939 264.093 160.789 264.019C160.638 263.945 160.474 263.901 160.307 263.892C160.136 263.866 159.962 263.877 159.796 263.925C159.63 263.972 159.476 264.054 159.345 264.166C159.213 264.278 159.108 264.417 159.034 264.574C158.961 264.73 158.923 264.901 158.921 265.073L158.587 271.496Z" fill="#242638"/>
<path d="M149.735 264.303C149.902 264.293 150.066 264.25 150.217 264.176C150.367 264.102 150.502 263.998 150.612 263.871C150.722 263.744 150.805 263.597 150.857 263.437C150.909 263.277 150.929 263.109 150.915 262.941C150.809 261.141 151.044 259.337 151.608 257.624C151.664 257.462 151.687 257.29 151.676 257.119C151.665 256.948 151.62 256.782 151.543 256.628C151.467 256.475 151.36 256.339 151.23 256.227C151.101 256.116 150.95 256.032 150.787 255.979C150.463 255.881 150.115 255.912 149.813 256.065C149.512 256.218 149.281 256.482 149.17 256.801C148.497 258.827 148.227 260.965 148.375 263.095C148.388 263.42 148.526 263.727 148.761 263.952C148.995 264.177 149.307 264.303 149.632 264.303H149.735Z" fill="#242638"/>
<path d="M139.086 266.127V259.499C139.079 259.16 138.942 258.837 138.703 258.598C138.464 258.358 138.141 258.221 137.803 258.214C137.634 258.218 137.468 258.254 137.314 258.322C137.16 258.39 137.02 258.487 136.903 258.609C136.786 258.73 136.695 258.874 136.633 259.031C136.572 259.188 136.542 259.356 136.546 259.524V266.152C136.546 266.493 136.681 266.82 136.921 267.061C137.162 267.301 137.488 267.437 137.829 267.437C137.997 267.433 138.163 267.397 138.318 267.329C138.472 267.262 138.612 267.164 138.728 267.042C138.845 266.921 138.937 266.777 138.998 266.62C139.06 266.463 139.089 266.295 139.086 266.127Z" fill="#242638"/>
<path d="M120.791 260.244C120.622 260.237 120.454 260.263 120.296 260.322C120.137 260.38 119.992 260.469 119.868 260.583C119.744 260.698 119.644 260.836 119.573 260.989C119.503 261.142 119.463 261.308 119.456 261.477C119.401 263.852 119.126 266.217 118.635 268.541C118.598 268.705 118.593 268.875 118.622 269.04C118.651 269.206 118.713 269.364 118.803 269.505C118.894 269.646 119.013 269.768 119.151 269.863C119.29 269.958 119.446 270.024 119.61 270.057H119.893C120.188 270.057 120.475 269.955 120.704 269.768C120.933 269.58 121.091 269.32 121.15 269.03C121.658 266.559 121.95 264.049 122.022 261.528C122.023 261.196 121.894 260.877 121.665 260.638C121.435 260.398 121.122 260.257 120.791 260.244Z" fill="#242638"/>
<path d="M106.19 262.53L105.985 266.82C105.975 266.988 105.998 267.155 106.053 267.314C106.108 267.472 106.195 267.618 106.307 267.742C106.419 267.867 106.556 267.967 106.707 268.039C106.859 268.11 107.024 268.15 107.191 268.156C107.518 268.157 107.834 268.032 108.072 267.807C108.311 267.583 108.454 267.276 108.474 266.949L108.679 262.659C108.69 262.491 108.666 262.323 108.611 262.165C108.556 262.007 108.469 261.861 108.357 261.736C108.245 261.612 108.109 261.511 107.957 261.44C107.805 261.369 107.641 261.329 107.473 261.323C107.309 261.312 107.143 261.336 106.988 261.392C106.833 261.447 106.691 261.535 106.57 261.648C106.45 261.761 106.354 261.898 106.289 262.05C106.223 262.201 106.19 262.365 106.19 262.53Z" fill="#242638"/>
<path d="M94.6948 267.437C94.6808 267.604 94.7004 267.773 94.7525 267.932C94.8046 268.092 94.8882 268.24 94.9982 268.367C95.1082 268.494 95.2424 268.597 95.393 268.671C95.5436 268.745 95.7076 268.789 95.8751 268.798C96.1957 268.799 96.5043 268.677 96.738 268.457C96.9717 268.238 97.1128 267.937 97.1324 267.617C97.2867 265.426 97.1573 263.224 96.7476 261.066C96.6829 260.725 96.4857 260.424 96.1994 260.229C95.9131 260.034 95.5611 259.961 95.2208 260.025C94.8805 260.09 94.5799 260.288 94.385 260.574C94.1901 260.861 94.1169 261.213 94.1816 261.554C94.5968 263.486 94.7692 265.462 94.6948 267.437Z" fill="#242638"/>
<path d="M86.689 269.261C86.8836 269.255 87.0753 269.211 87.2535 269.132C87.5554 268.978 87.7856 268.712 87.8957 268.391C88.0058 268.07 87.9871 267.719 87.8436 267.411C87.5336 266.8 87.3489 266.133 87.3005 265.449C87.252 264.765 87.3407 264.078 87.5614 263.429C87.6669 263.089 87.6328 262.72 87.4668 262.404C87.3008 262.089 87.0164 261.852 86.6761 261.747C86.3358 261.641 85.9676 261.675 85.6524 261.841C85.3372 262.008 85.1009 262.292 84.9954 262.633C84.3791 264.586 84.5352 266.701 85.4316 268.541C85.5416 268.776 85.7214 268.972 85.9464 269.1C86.1715 269.229 86.4309 269.285 86.689 269.261Z" fill="#242638"/>
<path d="M94.0019 276.12C93.8381 276.082 93.6684 276.079 93.5033 276.11C93.3382 276.141 93.1811 276.205 93.0417 276.299C92.9023 276.393 92.7835 276.514 92.6927 276.656C92.6019 276.797 92.541 276.956 92.5137 277.122C92.214 278.668 91.8198 280.196 91.3333 281.694C91.2776 281.854 91.2548 282.024 91.2662 282.193C91.2775 282.362 91.3229 282.527 91.3996 282.678C91.4763 282.83 91.5827 282.964 91.7124 283.073C91.8421 283.182 91.9924 283.263 92.1544 283.313H92.5393C92.8105 283.316 93.0758 283.233 93.297 283.076C93.5183 282.919 93.6842 282.696 93.771 282.439C94.2953 280.832 94.7153 279.194 95.0283 277.533C95.0668 277.211 94.9823 276.887 94.792 276.624C94.6017 276.362 94.3195 276.182 94.0019 276.12Z" fill="#242638"/>
<path d="M109.346 281.283C109.312 281.116 109.241 280.957 109.139 280.82C109.037 280.682 108.906 280.569 108.756 280.487V276.402C108.756 276.066 108.625 275.743 108.39 275.503C108.154 275.263 107.835 275.125 107.499 275.118C107.159 275.118 106.832 275.253 106.592 275.494C106.351 275.735 106.216 276.062 106.216 276.402V280.744C106.214 281.1 106.285 281.453 106.427 281.781C106.568 282.108 106.776 282.402 107.037 282.645C107.322 282.869 107.676 282.987 108.038 282.979C108.173 283.004 108.313 283.004 108.448 282.979C108.626 282.939 108.794 282.862 108.939 282.751C109.084 282.641 109.204 282.5 109.289 282.339C109.375 282.178 109.424 282 109.434 281.817C109.444 281.635 109.414 281.453 109.346 281.283Z" fill="#242638"/>
<path d="M117.532 282.953C117.872 282.953 118.198 282.818 118.439 282.577C118.68 282.336 118.815 282.009 118.815 281.668V277.378C118.815 277.038 118.68 276.711 118.439 276.47C118.198 276.229 117.872 276.094 117.532 276.094C117.192 276.094 116.865 276.229 116.625 276.47C116.384 276.711 116.249 277.038 116.249 277.378V281.668C116.249 282.009 116.384 282.336 116.625 282.577C116.865 282.818 117.192 282.953 117.532 282.953Z" fill="#242638"/>
<path d="M133.184 275.221C133.242 274.88 133.162 274.53 132.963 274.248C132.763 273.967 132.46 273.776 132.119 273.718C131.779 273.66 131.43 273.74 131.148 273.94C130.867 274.14 130.676 274.443 130.618 274.784C130.298 276.568 130.298 278.395 130.618 280.179C130.677 280.471 130.833 280.735 131.062 280.927C131.29 281.118 131.578 281.226 131.876 281.232H132.132C132.465 281.169 132.76 280.978 132.952 280.699C133.144 280.419 133.219 280.076 133.159 279.742C132.894 278.246 132.903 276.714 133.184 275.221Z" fill="#242638"/>
<path d="M146.194 275.246C146.227 275.081 146.227 274.91 146.193 274.745C146.159 274.579 146.092 274.422 145.996 274.283C145.9 274.144 145.778 274.026 145.635 273.936C145.493 273.845 145.334 273.784 145.167 273.756C144.834 273.696 144.49 273.771 144.212 273.963C143.933 274.156 143.741 274.451 143.679 274.784C143.347 276.635 143.674 278.544 144.603 280.179C144.719 280.375 144.884 280.537 145.082 280.65C145.28 280.762 145.504 280.821 145.732 280.821C145.955 280.819 146.174 280.766 146.373 280.667C146.666 280.49 146.879 280.206 146.965 279.875C147.051 279.543 147.005 279.191 146.835 278.894C146.192 277.794 145.964 276.5 146.194 275.246Z" fill="#242638"/>
<path d="M170.596 268.696C170.438 270.828 170.576 272.972 171.007 275.066C171.056 275.357 171.207 275.62 171.433 275.808C171.658 275.997 171.944 276.098 172.238 276.094H172.52C172.686 276.06 172.842 275.994 172.982 275.9C173.122 275.805 173.242 275.684 173.334 275.544C173.427 275.403 173.492 275.245 173.524 275.08C173.556 274.914 173.555 274.744 173.521 274.578C173.132 272.721 173.011 270.818 173.162 268.927C173.175 268.758 173.156 268.588 173.104 268.427C173.052 268.266 172.968 268.117 172.859 267.988C172.749 267.86 172.615 267.754 172.465 267.677C172.314 267.6 172.15 267.553 171.982 267.54C171.813 267.526 171.644 267.546 171.483 267.598C171.322 267.65 171.173 267.733 171.044 267.843C170.916 267.953 170.81 268.087 170.733 268.237C170.656 268.388 170.609 268.553 170.596 268.721V268.696Z" fill="#242638"/>
<path d="M183.272 267.951C182.9 266.825 182.9 265.609 183.272 264.483C183.344 264.316 183.381 264.137 183.379 263.956C183.378 263.775 183.338 263.596 183.262 263.431C183.186 263.266 183.077 263.12 182.94 263C182.804 262.881 182.644 262.792 182.471 262.739C182.298 262.686 182.115 262.671 181.936 262.693C181.756 262.716 181.583 262.777 181.429 262.871C181.274 262.965 181.141 263.091 181.039 263.24C180.936 263.39 180.867 263.559 180.834 263.738C180.318 265.419 180.363 267.222 180.962 268.875C181.055 269.122 181.22 269.334 181.435 269.485C181.65 269.637 181.906 269.719 182.168 269.723C182.313 269.75 182.46 269.75 182.605 269.723C182.765 269.651 182.91 269.548 183.03 269.42C183.15 269.291 183.244 269.14 183.306 268.976C183.368 268.811 183.397 268.636 183.391 268.46C183.385 268.284 183.345 268.111 183.272 267.951Z" fill="#242638"/>
<path d="M193.921 262.222C193.931 262.054 193.908 261.887 193.853 261.728C193.797 261.57 193.711 261.424 193.598 261.3C193.486 261.175 193.35 261.075 193.198 261.004C193.046 260.933 192.882 260.893 192.715 260.886C192.38 260.878 192.056 260.999 191.807 261.224C191.559 261.448 191.406 261.76 191.38 262.093C191.249 264.651 191.588 267.211 192.381 269.646C192.458 269.906 192.618 270.134 192.835 270.296C193.052 270.458 193.316 270.545 193.587 270.545H193.998C194.321 270.439 194.589 270.209 194.743 269.906C194.897 269.603 194.924 269.25 194.819 268.927C194.118 266.764 193.814 264.493 193.921 262.222Z" fill="#242638"/>
<path d="M204.082 262.993C203.961 262.677 203.721 262.422 203.413 262.283C203.106 262.143 202.756 262.131 202.44 262.248C202.281 262.307 202.135 262.398 202.011 262.515C201.887 262.631 201.788 262.771 201.719 262.927C201.65 263.082 201.612 263.25 201.608 263.42C201.604 263.59 201.634 263.759 201.695 263.917C202.67 266.429 203.936 268.817 205.467 271.033C205.584 271.206 205.741 271.347 205.924 271.446C206.107 271.544 206.312 271.597 206.52 271.598C206.785 271.597 207.044 271.517 207.264 271.367C207.538 271.166 207.724 270.866 207.782 270.531C207.839 270.195 207.764 269.85 207.572 269.569C206.159 267.519 204.988 265.312 204.082 262.993Z" fill="#242638"/>
<path d="M216.732 266.666C217.07 266.627 217.38 266.458 217.596 266.194C217.811 265.93 217.916 265.593 217.887 265.253L217.656 262.684C217.623 262.346 217.46 262.033 217.202 261.813C216.943 261.592 216.609 261.481 216.27 261.503C216.102 261.515 215.939 261.562 215.79 261.639C215.64 261.716 215.508 261.823 215.4 261.952C215.292 262.081 215.212 262.231 215.163 262.392C215.114 262.553 215.098 262.722 215.115 262.89L215.321 265.459C215.352 265.779 215.5 266.077 215.737 266.295C215.974 266.513 216.282 266.636 216.604 266.64L216.732 266.666Z" fill="#242638"/>
<path d="M227.15 269.004C227.318 268.991 227.481 268.945 227.63 268.867C227.78 268.79 227.912 268.684 228.02 268.555C228.128 268.425 228.208 268.276 228.257 268.114C228.306 267.953 228.322 267.784 228.305 267.617C228.068 265.416 228.008 263.199 228.125 260.989C228.139 260.652 228.02 260.324 227.795 260.074C227.569 259.824 227.255 259.673 226.919 259.653C226.749 259.635 226.577 259.653 226.414 259.705C226.251 259.758 226.101 259.843 225.973 259.957C225.845 260.07 225.742 260.209 225.671 260.365C225.6 260.52 225.562 260.689 225.559 260.86C225.426 263.216 225.486 265.579 225.739 267.925C225.77 268.238 225.915 268.529 226.147 268.743C226.379 268.956 226.681 269.076 226.996 269.081L227.15 269.004Z" fill="#242638"/>
<path d="M239.749 258.112C239.412 258.15 239.105 258.321 238.894 258.585C238.682 258.85 238.584 259.188 238.62 259.525C238.816 261.231 238.816 262.955 238.62 264.662C238.584 264.999 238.682 265.337 238.894 265.602C239.105 265.866 239.412 266.037 239.749 266.075H239.903C240.219 266.076 240.524 265.958 240.757 265.744C240.99 265.529 241.134 265.235 241.16 264.919C241.378 263.05 241.378 261.162 241.16 259.293C241.151 259.121 241.106 258.952 241.029 258.797C240.952 258.643 240.844 258.506 240.711 258.395C240.579 258.284 240.425 258.202 240.259 258.153C240.094 258.104 239.92 258.09 239.749 258.112Z" fill="#242638"/>
<path d="M88.0232 286.524C88.0434 286.355 88.0303 286.184 87.9845 286.02C87.9387 285.857 87.8612 285.704 87.7563 285.57C87.6515 285.437 87.5214 285.325 87.3735 285.242C87.2255 285.159 87.0627 285.105 86.8942 285.085C86.7257 285.065 86.5549 285.078 86.3915 285.124C86.2281 285.17 86.0753 285.247 85.9419 285.352C85.8085 285.457 85.697 285.588 85.6138 285.736C85.5307 285.884 85.4775 286.047 85.4573 286.216C85.2379 288.03 85.3686 289.87 85.8422 291.636C85.9112 291.91 86.0702 292.152 86.2936 292.325C86.517 292.497 86.7918 292.589 87.0738 292.586C87.1834 292.614 87.2979 292.614 87.4074 292.586C87.571 292.544 87.7247 292.471 87.8597 292.369C87.9947 292.268 88.1084 292.14 88.1942 291.995C88.2801 291.849 88.3363 291.688 88.3598 291.521C88.3833 291.353 88.3736 291.183 88.3312 291.019C87.9282 289.557 87.8234 288.028 88.0232 286.524Z" fill="#242638"/>
<path d="M98.3384 299.009C98.507 299.002 98.6725 298.962 98.8257 298.891C98.9788 298.821 99.1165 298.72 99.2309 298.596C99.3453 298.472 99.4342 298.327 99.4924 298.168C99.5506 298.01 99.577 297.842 99.5701 297.673C99.4718 295.376 99.5404 293.075 99.7754 290.788C99.8043 290.449 99.6999 290.111 99.4843 289.847C99.2687 289.583 98.9589 289.414 98.6207 289.375C98.2829 289.353 97.9491 289.46 97.687 289.674C97.425 289.889 97.2542 290.195 97.2094 290.531C96.9744 292.938 96.9058 295.359 97.0041 297.776C97.0174 298.107 97.1584 298.421 97.3976 298.651C97.6368 298.881 97.9556 299.009 98.2871 299.009H98.3384Z" fill="#242638"/>
<path d="M111.912 292.586C111.744 292.569 111.573 292.584 111.411 292.633C111.248 292.682 111.097 292.762 110.966 292.87C110.835 292.977 110.726 293.11 110.646 293.259C110.566 293.409 110.517 293.573 110.501 293.742L110.065 297.801C110.036 298.141 110.14 298.478 110.356 298.742C110.572 299.006 110.881 299.175 111.22 299.214H111.348C111.667 299.216 111.975 299.098 112.213 298.884C112.45 298.671 112.599 298.376 112.631 298.058L113.041 293.999C113.077 293.662 112.979 293.325 112.768 293.06C112.556 292.795 112.249 292.625 111.912 292.586Z" fill="#242638"/>
<path d="M128.232 293.64C128.417 293.69 128.612 293.69 128.796 293.64C129.098 293.485 129.329 293.219 129.439 292.898C129.549 292.577 129.53 292.226 129.387 291.919C128.803 290.764 128.404 289.524 128.206 288.245C128.162 287.908 127.985 287.602 127.716 287.395C127.446 287.188 127.106 287.097 126.769 287.14C126.431 287.191 126.125 287.373 125.919 287.647C125.713 287.921 125.622 288.265 125.666 288.605C125.902 290.159 126.378 291.667 127.077 293.074C127.205 293.26 127.378 293.41 127.581 293.509C127.783 293.608 128.007 293.653 128.232 293.64Z" fill="#242638"/>
<path d="M143.705 295.258C143.138 294.022 142.959 292.642 143.191 291.302C143.251 290.968 143.177 290.624 142.985 290.345C142.793 290.066 142.498 289.874 142.165 289.812C141.829 289.759 141.486 289.84 141.208 290.037C140.93 290.233 140.739 290.53 140.677 290.865C140.338 292.717 140.58 294.628 141.37 296.337C141.474 296.556 141.638 296.742 141.841 296.873C142.045 297.005 142.282 297.077 142.524 297.082C142.702 297.121 142.886 297.121 143.063 297.082C143.23 297.011 143.381 296.906 143.505 296.773C143.63 296.64 143.725 296.483 143.785 296.312C143.846 296.14 143.87 295.958 143.856 295.776C143.842 295.595 143.79 295.418 143.705 295.258Z" fill="#242638"/>
<path d="M152.583 293.46C152.416 293.49 152.257 293.554 152.116 293.648C151.974 293.741 151.853 293.862 151.76 294.004C151.666 294.146 151.602 294.305 151.572 294.472C151.541 294.639 151.545 294.81 151.582 294.976L151.993 297.108C152.052 297.398 152.209 297.659 152.438 297.846C152.668 298.033 152.954 298.135 153.25 298.135H153.507C153.672 298.108 153.831 298.047 153.972 297.956C154.113 297.865 154.235 297.746 154.328 297.607C154.422 297.467 154.486 297.31 154.517 297.144C154.548 296.979 154.545 296.809 154.507 296.645L154.097 294.487C154.066 294.32 154.002 294.16 153.909 294.017C153.816 293.874 153.696 293.752 153.555 293.656C153.414 293.56 153.256 293.494 153.089 293.46C152.922 293.426 152.75 293.426 152.583 293.46Z" fill="#242638"/>
<path d="M163.54 280.615C163.543 280.447 163.513 280.279 163.452 280.122C163.39 279.965 163.299 279.821 163.182 279.699C163.065 279.578 162.926 279.48 162.771 279.413C162.617 279.345 162.451 279.308 162.282 279.305C162.115 279.302 161.949 279.332 161.793 279.394C161.638 279.455 161.496 279.547 161.377 279.665C161.257 279.782 161.162 279.922 161.097 280.076C161.033 280.231 160.999 280.396 160.999 280.564C160.963 281.759 161.101 282.954 161.41 284.109C161.484 284.378 161.645 284.615 161.868 284.782C162.091 284.95 162.363 285.038 162.642 285.034H163.001C163.327 284.938 163.603 284.717 163.766 284.418C163.93 284.12 163.968 283.768 163.873 283.441C163.622 282.521 163.51 281.569 163.54 280.615Z" fill="#242638"/>
<path d="M179.372 285.034C179.064 283.633 179.012 282.189 179.218 280.769C179.243 280.6 179.234 280.428 179.192 280.263C179.15 280.097 179.076 279.942 178.973 279.805C178.87 279.669 178.741 279.554 178.594 279.469C178.447 279.383 178.283 279.327 178.114 279.305C177.779 279.268 177.442 279.362 177.174 279.568C176.906 279.774 176.728 280.076 176.677 280.41C176.445 282.12 176.505 283.858 176.857 285.548C176.92 285.835 177.079 286.094 177.307 286.28C177.535 286.467 177.82 286.57 178.114 286.575H178.371C178.54 286.545 178.702 286.48 178.845 286.385C178.989 286.29 179.111 286.166 179.205 286.022C179.299 285.877 179.362 285.715 179.391 285.545C179.419 285.375 179.413 285.201 179.372 285.034Z" fill="#242638"/>
<path d="M197.975 283.801V278.021C197.975 277.68 197.84 277.353 197.599 277.112C197.358 276.872 197.032 276.736 196.692 276.736C196.352 276.736 196.025 276.872 195.785 277.112C195.544 277.353 195.409 277.68 195.409 278.021V283.801C195.409 284.141 195.544 284.468 195.785 284.709C196.025 284.95 196.352 285.085 196.692 285.085C197.03 285.079 197.353 284.941 197.592 284.702C197.831 284.462 197.968 284.139 197.975 283.801Z" fill="#242638"/>
<path d="M212.37 284.109C211.473 281.942 211.163 279.576 211.472 277.25C211.516 276.913 211.424 276.572 211.217 276.302C211.01 276.033 210.705 275.856 210.368 275.811C210.202 275.778 210.031 275.781 209.866 275.818C209.7 275.856 209.545 275.928 209.409 276.03C209.274 276.131 209.161 276.261 209.079 276.409C208.996 276.557 208.946 276.721 208.932 276.89C208.544 279.667 208.907 282.497 209.984 285.085C210.084 285.322 210.252 285.523 210.467 285.665C210.681 285.807 210.933 285.882 211.19 285.882C211.35 285.918 211.517 285.918 211.677 285.882C211.842 285.815 211.992 285.715 212.117 285.588C212.242 285.461 212.34 285.31 212.405 285.145C212.469 284.979 212.5 284.801 212.494 284.623C212.488 284.445 212.446 284.27 212.37 284.109Z" fill="#242638"/>
<path d="M222.223 279.511C222.054 279.53 221.891 279.582 221.742 279.665C221.594 279.748 221.463 279.86 221.358 279.993C221.253 280.127 221.176 280.281 221.13 280.445C221.085 280.609 221.073 280.78 221.094 280.949L221.299 282.876C221.337 283.185 221.485 283.47 221.716 283.678C221.947 283.885 222.246 284.002 222.557 284.006H222.711C223.047 283.967 223.354 283.797 223.566 283.533C223.777 283.268 223.876 282.93 223.84 282.593L223.634 280.667C223.618 280.498 223.569 280.333 223.489 280.184C223.41 280.034 223.301 279.901 223.17 279.794C223.038 279.686 222.887 279.606 222.725 279.557C222.562 279.509 222.392 279.493 222.223 279.511Z" fill="#242638"/>
<path d="M237.516 274.835C237.183 274.898 236.889 275.089 236.696 275.368C236.504 275.648 236.43 275.992 236.49 276.325C236.788 278.025 236.788 279.763 236.49 281.463C236.457 281.63 236.458 281.803 236.494 281.97C236.529 282.137 236.598 282.295 236.697 282.434C236.795 282.573 236.921 282.691 237.066 282.78C237.211 282.87 237.373 282.928 237.542 282.953H237.747C238.052 282.956 238.347 282.848 238.578 282.65C238.81 282.452 238.961 282.176 239.005 281.874C239.351 279.885 239.351 277.852 239.005 275.863C238.942 275.53 238.751 275.234 238.472 275.042C238.193 274.85 237.85 274.775 237.516 274.835Z" fill="#242638"/>
<path d="M236.952 290.66C236.616 290.698 236.308 290.869 236.097 291.133C235.885 291.398 235.787 291.736 235.823 292.073C236.03 293.914 235.847 295.779 235.284 297.544C235.179 297.868 235.206 298.22 235.36 298.524C235.514 298.827 235.782 299.057 236.105 299.163C236.232 299.188 236.363 299.188 236.49 299.163C236.761 299.166 237.026 299.084 237.248 298.927C237.469 298.77 237.635 298.547 237.722 298.289C238.392 296.201 238.619 293.997 238.389 291.816C238.373 291.644 238.323 291.478 238.241 291.326C238.16 291.174 238.049 291.041 237.915 290.933C237.781 290.825 237.627 290.745 237.461 290.698C237.296 290.651 237.122 290.638 236.952 290.66Z" fill="#242638"/>
<path d="M228.125 299.522C228.294 299.503 228.457 299.451 228.606 299.368C228.754 299.285 228.885 299.173 228.99 299.04C229.095 298.906 229.173 298.752 229.218 298.588C229.263 298.424 229.275 298.253 229.254 298.084L228.818 294.667C228.799 294.498 228.746 294.334 228.663 294.186C228.581 294.037 228.469 293.906 228.335 293.801C228.202 293.696 228.049 293.618 227.885 293.573C227.721 293.528 227.549 293.515 227.381 293.537C227.044 293.582 226.739 293.758 226.532 294.028C226.325 294.298 226.234 294.638 226.277 294.976L226.688 298.418C226.737 298.724 226.892 299.003 227.127 299.206C227.362 299.408 227.661 299.52 227.971 299.522H228.125Z" fill="#242638"/>
<path d="M214.654 291.533C214.487 291.504 214.316 291.508 214.15 291.545C213.985 291.582 213.829 291.651 213.69 291.749C213.552 291.847 213.434 291.972 213.344 292.115C213.254 292.259 213.193 292.419 213.165 292.586C212.806 294.712 212.806 296.883 213.165 299.009C213.214 299.308 213.367 299.581 213.597 299.778C213.827 299.976 214.12 300.085 214.423 300.088H214.628C214.967 300.031 215.27 299.843 215.472 299.564C215.674 299.285 215.758 298.938 215.706 298.598C215.398 296.752 215.398 294.869 215.706 293.023C215.739 292.856 215.737 292.683 215.702 292.516C215.666 292.349 215.597 292.192 215.499 292.052C215.401 291.913 215.275 291.795 215.13 291.706C214.984 291.616 214.822 291.558 214.654 291.533Z" fill="#242638"/>
<path d="M199.053 292.997V298.366C199.053 298.707 199.188 299.034 199.428 299.275C199.669 299.516 199.995 299.651 200.336 299.651C200.674 299.644 200.996 299.507 201.235 299.267C201.475 299.028 201.612 298.705 201.619 298.366V292.997C201.612 292.659 201.475 292.336 201.235 292.096C200.996 291.857 200.674 291.72 200.336 291.713C199.995 291.713 199.669 291.848 199.428 292.089C199.188 292.33 199.053 292.657 199.053 292.997Z" fill="#242638"/>
<path d="M183.965 290.865C183.986 293.884 183.763 296.899 183.298 299.882C183.268 300.05 183.273 300.221 183.312 300.387C183.351 300.552 183.423 300.708 183.524 300.845C183.625 300.982 183.752 301.097 183.898 301.183C184.045 301.269 184.207 301.325 184.375 301.346H184.504C184.81 301.345 185.106 301.237 185.34 301.039C185.575 300.842 185.732 300.569 185.786 300.267C186.26 297.147 186.491 293.995 186.479 290.84C186.479 290.499 186.344 290.172 186.104 289.931C185.863 289.69 185.537 289.555 185.196 289.555C184.861 289.568 184.543 289.713 184.313 289.958C184.083 290.203 183.958 290.529 183.965 290.865Z" fill="#242638"/>
<path d="M172.674 298.161C172.338 298.117 171.997 298.209 171.728 298.416C171.459 298.623 171.282 298.929 171.237 299.266L170.596 303.967C170.571 304.134 170.58 304.305 170.622 304.469C170.664 304.633 170.739 304.787 170.842 304.921C170.945 305.055 171.074 305.167 171.221 305.251C171.369 305.334 171.531 305.386 171.699 305.405H171.879C172.186 305.402 172.481 305.289 172.712 305.086C172.943 304.884 173.093 304.605 173.136 304.301L173.778 299.574C173.814 299.241 173.719 298.907 173.513 298.643C173.307 298.379 173.006 298.206 172.674 298.161Z" fill="#242638"/>
<path d="M160.999 302.451C160.836 302.409 160.666 302.399 160.498 302.422C160.331 302.446 160.17 302.502 160.025 302.588C159.879 302.674 159.752 302.788 159.651 302.923C159.55 303.058 159.476 303.212 159.434 303.376C158.897 305.428 158.562 307.527 158.433 309.644C158.423 309.813 158.446 309.982 158.501 310.142C158.556 310.302 158.642 310.449 158.754 310.575C158.866 310.702 159.002 310.805 159.154 310.879C159.306 310.953 159.471 310.996 159.639 311.005C159.965 311 160.277 310.873 160.514 310.65C160.751 310.427 160.897 310.123 160.922 309.798C161.025 307.844 161.335 305.907 161.846 304.018C161.935 303.698 161.896 303.356 161.738 303.064C161.58 302.771 161.315 302.552 160.999 302.451Z" fill="#242638"/>
<path d="M144.551 304.146C144.215 304.139 143.89 304.265 143.645 304.495C143.401 304.726 143.256 305.043 143.243 305.38L143.012 311.16C143.005 311.328 143.031 311.497 143.09 311.655C143.148 311.814 143.237 311.959 143.351 312.083C143.465 312.207 143.603 312.307 143.756 312.378C143.909 312.449 144.075 312.489 144.244 312.495C144.575 312.496 144.894 312.367 145.133 312.138C145.372 311.908 145.513 311.594 145.527 311.262L145.757 305.482C145.771 305.146 145.653 304.817 145.427 304.567C145.202 304.318 144.887 304.166 144.551 304.146Z" fill="#242638"/>
<path d="M131.491 302.245C131.326 302.212 131.155 302.211 130.99 302.243C130.825 302.275 130.667 302.339 130.526 302.432C130.386 302.525 130.265 302.645 130.171 302.785C130.076 302.925 130.01 303.082 129.977 303.247C129.591 305.036 129.436 306.866 129.515 308.693C129.528 309.025 129.669 309.339 129.908 309.569C130.148 309.799 130.466 309.927 130.798 309.926C130.966 309.92 131.132 309.88 131.285 309.809C131.438 309.739 131.576 309.638 131.69 309.514C131.805 309.39 131.894 309.245 131.952 309.086C132.01 308.928 132.036 308.759 132.03 308.591C131.96 306.97 132.098 305.347 132.44 303.761C132.503 303.435 132.44 303.097 132.264 302.816C132.088 302.534 131.811 302.331 131.491 302.245Z" fill="#242638"/>
<path d="M117.788 312.701C118.063 312.703 118.33 312.616 118.552 312.454C118.774 312.293 118.938 312.064 119.02 311.802C119.688 309.693 120.093 307.51 120.226 305.303C120.246 304.962 120.131 304.627 119.905 304.372C119.679 304.116 119.36 303.961 119.02 303.941C118.68 303.921 118.345 304.036 118.09 304.263C117.835 304.489 117.681 304.808 117.66 305.148C117.543 307.146 117.181 309.122 116.582 311.031C116.531 311.19 116.511 311.357 116.524 311.523C116.538 311.689 116.584 311.851 116.66 312C116.737 312.148 116.842 312.279 116.969 312.386C117.097 312.494 117.245 312.574 117.404 312.624L117.788 312.701Z" fill="#242638"/>
<path d="M106.062 313.343C106.383 313.351 106.694 313.235 106.933 313.02C107.171 312.806 107.319 312.507 107.345 312.187L107.781 307.255C107.795 307.086 107.776 306.916 107.724 306.755C107.672 306.594 107.589 306.444 107.479 306.315C107.37 306.186 107.235 306.081 107.085 306.004C106.934 305.927 106.77 305.881 106.601 305.868C106.266 305.846 105.935 305.953 105.677 306.168C105.419 306.384 105.254 306.69 105.215 307.024L104.779 311.956C104.765 312.133 104.787 312.311 104.846 312.479C104.904 312.647 104.996 312.801 105.116 312.931C105.237 313.062 105.383 313.166 105.546 313.237C105.709 313.307 105.884 313.344 106.062 313.343Z" fill="#242638"/>
<path d="M96.7475 309.233C96.7845 308.897 96.6903 308.56 96.4847 308.292C96.279 308.023 95.9779 307.845 95.6441 307.794C95.3055 307.757 94.9655 307.85 94.6935 308.056C94.4216 308.261 94.2384 308.563 94.1815 308.899C93.9025 311.086 94.0772 313.307 94.6947 315.424C94.7686 315.693 94.9297 315.93 95.1526 316.097C95.3755 316.265 95.6477 316.353 95.9264 316.349C96.045 316.372 96.167 316.372 96.2856 316.349C96.6123 316.253 96.8877 316.032 97.0513 315.733C97.2149 315.435 97.2533 315.083 97.1581 314.756C96.6296 312.965 96.4896 311.082 96.7475 309.233Z" fill="#242638"/>
<path d="M99.8266 322.643C99.6615 322.609 99.4914 322.608 99.326 322.64C99.1605 322.672 99.003 322.737 98.8624 322.83C98.7218 322.923 98.6009 323.042 98.5066 323.182C98.4123 323.322 98.3464 323.479 98.3127 323.645C97.851 325.933 97.851 328.292 98.3127 330.581C98.3719 330.871 98.5293 331.131 98.7585 331.319C98.9876 331.506 99.2743 331.608 99.57 331.608H99.8266C99.9934 331.578 100.152 331.514 100.294 331.42C100.435 331.327 100.556 331.206 100.65 331.064C100.743 330.922 100.807 330.763 100.838 330.596C100.868 330.429 100.865 330.258 100.827 330.092C100.43 328.143 100.43 326.133 100.827 324.184C100.865 324.017 100.869 323.844 100.838 323.675C100.808 323.507 100.745 323.346 100.651 323.202C100.558 323.059 100.437 322.935 100.295 322.839C100.154 322.743 99.9944 322.676 99.8266 322.643Z" fill="#242638"/>
<path d="M125.23 319.843C125.292 319.684 125.321 319.515 125.317 319.345C125.313 319.175 125.276 319.007 125.206 318.852C125.137 318.697 125.038 318.556 124.914 318.44C124.79 318.323 124.645 318.233 124.486 318.173C124.165 318.055 123.812 318.067 123.5 318.206C123.189 318.345 122.944 318.6 122.818 318.918C121.998 321.086 121.998 323.48 122.818 325.648C122.916 325.887 123.083 326.09 123.298 326.232C123.513 326.375 123.766 326.448 124.024 326.445C124.177 326.469 124.333 326.469 124.486 326.445C124.642 326.382 124.785 326.29 124.906 326.172C125.027 326.054 125.124 325.914 125.191 325.759C125.257 325.604 125.293 325.437 125.295 325.268C125.298 325.099 125.267 324.932 125.204 324.775C124.589 323.187 124.598 321.424 125.23 319.843Z" fill="#242638"/>
<path d="M140.6 319.483C140.687 319.153 140.642 318.801 140.474 318.504C140.307 318.206 140.029 317.986 139.702 317.89C139.372 317.809 139.024 317.857 138.729 318.024C138.433 318.191 138.212 318.465 138.111 318.789C137.846 319.804 137.796 320.863 137.964 321.898C138.132 322.933 138.514 323.922 139.086 324.8C139.196 324.981 139.351 325.13 139.535 325.234C139.719 325.337 139.927 325.391 140.138 325.391C140.398 325.399 140.654 325.337 140.882 325.212C141.165 325.018 141.361 324.722 141.428 324.386C141.496 324.05 141.428 323.7 141.241 323.413C140.863 322.841 140.61 322.194 140.5 321.517C140.389 320.839 140.423 320.146 140.6 319.483Z" fill="#242638"/>
<path d="M158.844 323.901C158.709 323.749 158.607 323.569 158.545 323.374C158.483 323.18 158.462 322.974 158.485 322.771C158.54 322.109 158.695 321.459 158.946 320.844C159.054 320.521 159.031 320.168 158.882 319.861C158.734 319.554 158.471 319.317 158.151 319.2C157.831 319.094 157.482 319.118 157.18 319.267C156.877 319.416 156.645 319.678 156.535 319.997C156.177 320.863 155.969 321.784 155.919 322.72C155.875 323.321 155.976 323.924 156.212 324.478C156.449 325.032 156.814 325.521 157.279 325.905C157.497 326.081 157.768 326.18 158.048 326.188C158.245 326.185 158.438 326.14 158.615 326.056C158.792 325.972 158.949 325.85 159.075 325.7C159.282 325.43 159.374 325.09 159.33 324.753C159.287 324.416 159.112 324.11 158.844 323.901Z" fill="#242638"/>
<path d="M171.956 314.936C171.791 314.898 171.62 314.893 171.453 314.922C171.286 314.951 171.126 315.012 170.983 315.103C170.84 315.194 170.716 315.312 170.619 315.451C170.522 315.59 170.453 315.746 170.416 315.912C169.951 317.959 169.855 320.074 170.134 322.155C170.178 322.463 170.332 322.745 170.568 322.949C170.804 323.152 171.106 323.262 171.417 323.259H171.674C171.843 323.237 172.006 323.182 172.153 323.096C172.301 323.01 172.43 322.895 172.533 322.759C172.635 322.623 172.71 322.467 172.752 322.302C172.794 322.136 172.802 321.964 172.777 321.795C172.541 320.021 172.628 318.22 173.034 316.477C173.071 316.305 173.072 316.126 173.037 315.953C173.002 315.78 172.931 315.616 172.83 315.472C172.729 315.327 172.599 315.205 172.449 315.113C172.298 315.02 172.131 314.96 171.956 314.936Z" fill="#242638"/>
<path d="M186.608 317.042C185.9 314.768 185.621 312.381 185.787 310.004C185.795 309.666 185.675 309.338 185.451 309.085C185.227 308.833 184.916 308.674 184.58 308.642C184.411 308.628 184.241 308.649 184.08 308.702C183.918 308.756 183.77 308.842 183.643 308.955C183.516 309.068 183.413 309.205 183.34 309.359C183.268 309.513 183.227 309.68 183.221 309.849C183.037 312.53 183.351 315.221 184.144 317.787C184.218 318.056 184.379 318.293 184.602 318.461C184.825 318.628 185.097 318.717 185.376 318.712H185.735C185.906 318.666 186.065 318.585 186.203 318.474C186.34 318.363 186.454 318.225 186.536 318.068C186.617 317.911 186.666 317.739 186.679 317.563C186.691 317.386 186.667 317.209 186.608 317.042Z" fill="#242638"/>
<path d="M201.567 312.958C201.082 311.414 200.95 309.781 201.182 308.18C201.206 308.011 201.196 307.839 201.153 307.674C201.111 307.51 201.036 307.355 200.934 307.219C200.831 307.083 200.703 306.968 200.556 306.882C200.41 306.796 200.247 306.739 200.079 306.715C199.91 306.692 199.739 306.702 199.574 306.744C199.41 306.787 199.255 306.862 199.119 306.964C198.983 307.067 198.869 307.195 198.783 307.342C198.696 307.489 198.64 307.651 198.616 307.82C198.328 309.801 198.494 311.822 199.104 313.728C199.181 313.988 199.34 314.216 199.558 314.378C199.775 314.54 200.039 314.628 200.31 314.628H200.72C200.889 314.578 201.045 314.495 201.18 314.383C201.315 314.271 201.425 314.133 201.505 313.976C201.584 313.82 201.63 313.649 201.641 313.473C201.652 313.298 201.627 313.123 201.567 312.958Z" fill="#242638"/>
<path d="M213.422 314.936C213.765 314.91 214.083 314.749 214.309 314.49C214.535 314.23 214.649 313.892 214.628 313.549L214.217 307.769C214.194 307.428 214.036 307.111 213.778 306.887C213.521 306.663 213.185 306.55 212.845 306.574C212.504 306.598 212.187 306.756 211.964 307.014C211.74 307.272 211.628 307.608 211.651 307.948L212.036 313.729C212.056 314.056 212.2 314.363 212.438 314.587C212.677 314.812 212.992 314.936 213.319 314.936H213.422Z" fill="#242638"/>
<path d="M230.691 315.809L229.767 306.792C229.754 306.625 229.708 306.461 229.631 306.311C229.554 306.162 229.448 306.029 229.318 305.921C229.189 305.813 229.04 305.733 228.879 305.684C228.718 305.635 228.549 305.619 228.382 305.636C228.213 305.652 228.049 305.702 227.899 305.782C227.75 305.862 227.617 305.97 227.51 306.102C227.402 306.233 227.322 306.385 227.274 306.547C227.225 306.71 227.209 306.88 227.227 307.049L228.125 316.066C228.162 316.382 228.313 316.673 228.549 316.886C228.785 317.099 229.09 317.218 229.408 317.222H229.536C229.872 317.177 230.178 317.006 230.392 316.744C230.607 316.482 230.713 316.148 230.691 315.809Z" fill="#242638"/>
<path d="M231.358 320.228C231.021 320.273 230.716 320.449 230.509 320.719C230.303 320.988 230.211 321.329 230.255 321.666L230.691 325.212C230.734 325.523 230.887 325.808 231.123 326.015C231.358 326.223 231.66 326.339 231.974 326.342H232.153C232.319 326.32 232.479 326.265 232.623 326.18C232.768 326.096 232.894 325.983 232.994 325.849C233.095 325.715 233.167 325.563 233.208 325.4C233.249 325.238 233.257 325.069 233.231 324.903L232.744 321.281C232.699 320.958 232.528 320.665 232.268 320.468C232.009 320.27 231.681 320.184 231.358 320.228Z" fill="#242638"/>
<path d="M218.426 326.213H218.682C218.848 326.186 219.006 326.125 219.148 326.034C219.289 325.943 219.41 325.824 219.504 325.685C219.598 325.545 219.662 325.388 219.693 325.223C219.723 325.057 219.72 324.887 219.683 324.723L218.708 319.586C218.64 319.25 218.443 318.955 218.16 318.763C217.877 318.571 217.53 318.497 217.194 318.558C217.029 318.592 216.872 318.658 216.732 318.752C216.593 318.847 216.473 318.968 216.38 319.108C216.287 319.249 216.223 319.407 216.191 319.572C216.159 319.738 216.159 319.908 216.193 320.074L217.168 325.212C217.237 325.495 217.398 325.747 217.625 325.928C217.853 326.11 218.135 326.21 218.426 326.213Z" fill="#242638"/>
<path d="M204.698 318.969C204.535 319.011 204.381 319.085 204.247 319.187C204.113 319.288 204.001 319.416 203.918 319.562C203.834 319.709 203.78 319.87 203.76 320.037C203.74 320.204 203.753 320.374 203.8 320.536C204.157 321.857 204.287 323.23 204.184 324.595C204.17 324.764 204.19 324.934 204.242 325.095C204.294 325.256 204.377 325.406 204.486 325.534C204.596 325.663 204.73 325.769 204.881 325.846C205.032 325.923 205.196 325.969 205.365 325.982C205.686 325.977 205.995 325.854 206.231 325.636C206.468 325.418 206.616 325.121 206.648 324.8C206.756 323.141 206.591 321.475 206.16 319.868C206.076 319.561 205.878 319.297 205.606 319.13C205.335 318.963 205.01 318.906 204.698 318.969Z" fill="#242638"/>
<path d="M192.766 320.459C192.439 320.362 192.088 320.396 191.786 320.554C191.484 320.713 191.255 320.983 191.149 321.307L189.276 327.318C189.179 327.645 189.213 327.997 189.371 328.299C189.529 328.602 189.799 328.83 190.123 328.936C190.25 328.961 190.381 328.961 190.508 328.936C190.782 328.938 191.05 328.852 191.272 328.69C191.493 328.528 191.657 328.299 191.74 328.037L193.613 322.026C193.695 321.706 193.653 321.367 193.496 321.076C193.339 320.786 193.078 320.565 192.766 320.459Z" fill="#242638"/>
<path d="M181.296 325.648C181.31 325.479 181.29 325.308 181.236 325.147C181.182 324.986 181.096 324.837 180.984 324.709C180.871 324.582 180.734 324.479 180.58 324.406C180.427 324.334 180.26 324.293 180.09 324.287C179.922 324.276 179.753 324.299 179.593 324.354C179.433 324.409 179.286 324.496 179.16 324.608C179.033 324.72 178.93 324.856 178.857 325.008C178.783 325.16 178.74 325.325 178.73 325.494C178.619 327.421 178.662 329.354 178.858 331.274C178.89 331.588 179.035 331.879 179.267 332.092C179.499 332.305 179.801 332.425 180.116 332.43H180.244C180.412 332.417 180.575 332.371 180.725 332.294C180.874 332.217 181.007 332.11 181.114 331.981C181.222 331.852 181.303 331.702 181.351 331.541C181.4 331.38 181.416 331.21 181.399 331.043C181.222 329.25 181.188 327.446 181.296 325.648Z" fill="#242638"/>
<path d="M169.724 331.762C169.385 331.769 169.063 331.906 168.824 332.146C168.584 332.385 168.447 332.708 168.441 333.047V339.263C168.441 339.604 168.576 339.931 168.816 340.172C169.057 340.413 169.383 340.548 169.724 340.548C170.064 340.548 170.39 340.413 170.631 340.172C170.871 339.931 171.007 339.604 171.007 339.263V333.047C171.007 332.706 170.871 332.379 170.631 332.138C170.39 331.898 170.064 331.762 169.724 331.762Z" fill="#242638"/>
<path d="M151.89 329.964C151.58 329.825 151.228 329.815 150.911 329.935C150.593 330.055 150.337 330.297 150.197 330.606C149.345 332.445 149.226 334.54 149.863 336.463C149.944 336.721 150.104 336.947 150.321 337.108C150.537 337.27 150.799 337.359 151.069 337.363C151.205 337.387 151.344 337.387 151.48 337.363C151.799 337.251 152.062 337.02 152.215 336.719C152.368 336.417 152.399 336.068 152.301 335.744C151.867 334.429 151.941 333 152.506 331.737C152.592 331.582 152.644 331.41 152.659 331.234C152.674 331.057 152.652 330.88 152.594 330.712C152.536 330.545 152.443 330.392 152.322 330.263C152.201 330.134 152.053 330.032 151.89 329.964Z" fill="#242638"/>
<path d="M135.186 329.193C135.017 329.176 134.847 329.191 134.684 329.24C134.522 329.289 134.37 329.369 134.239 329.477C134.108 329.584 133.999 329.717 133.92 329.866C133.84 330.016 133.79 330.18 133.774 330.349L133.133 336.129C133.097 336.466 133.195 336.804 133.407 337.069C133.618 337.333 133.926 337.503 134.262 337.542H134.416C134.727 337.538 135.025 337.421 135.257 337.214C135.488 337.006 135.636 336.721 135.673 336.412L136.315 330.632C136.336 330.463 136.324 330.292 136.279 330.127C136.233 329.963 136.156 329.81 136.051 329.676C135.946 329.542 135.815 329.431 135.667 329.348C135.518 329.265 135.355 329.212 135.186 329.193Z" fill="#242638"/>
<path d="M120.842 327.498C120.867 327.331 120.86 327.16 120.819 326.996C120.779 326.832 120.707 326.678 120.607 326.542C120.506 326.406 120.381 326.291 120.236 326.204C120.091 326.116 119.931 326.059 119.764 326.034C119.599 326.004 119.429 326.008 119.266 326.046C119.102 326.083 118.947 326.153 118.811 326.251C118.675 326.349 118.559 326.474 118.472 326.617C118.384 326.761 118.326 326.921 118.302 327.087L117.301 333.792C117.148 334.242 117.135 334.729 117.264 335.187C117.392 335.646 117.655 336.055 118.019 336.361C118.25 336.529 118.529 336.619 118.815 336.617C119.058 336.622 119.296 336.556 119.502 336.428C119.709 336.299 119.873 336.114 119.976 335.894C120.079 335.674 120.117 335.428 120.084 335.188C120.05 334.947 119.948 334.721 119.79 334.537C119.806 334.46 119.806 334.382 119.79 334.305L120.842 327.498Z" fill="#242638"/>
<path d="M106.934 338.441C106.604 338.364 106.257 338.421 105.969 338.599C105.68 338.777 105.474 339.062 105.395 339.392L104.368 343.708C104.291 344.038 104.348 344.386 104.526 344.674C104.704 344.963 104.988 345.17 105.318 345.249H105.6C105.89 345.256 106.173 345.163 106.403 344.985C106.632 344.807 106.792 344.556 106.857 344.273L107.884 339.983C107.961 339.652 107.904 339.305 107.727 339.016C107.549 338.727 107.264 338.521 106.934 338.441Z" fill="#242638"/>
<path d="M128.617 345.326C128.294 345.221 127.942 345.248 127.639 345.402C127.336 345.556 127.106 345.825 127 346.148C126.38 348.133 126.001 350.186 125.871 352.262C125.863 352.6 125.983 352.928 126.207 353.18C126.431 353.433 126.742 353.591 127.077 353.624C127.403 353.618 127.715 353.492 127.952 353.268C128.189 353.045 128.335 352.741 128.36 352.416C128.469 350.556 128.813 348.717 129.387 346.944C129.488 346.627 129.464 346.283 129.321 345.983C129.178 345.682 128.927 345.447 128.617 345.326Z" fill="#242638"/>
<path d="M144.808 345.763C144.646 345.721 144.478 345.711 144.312 345.735C144.147 345.759 143.988 345.815 143.844 345.902C143.701 345.988 143.576 346.102 143.477 346.237C143.378 346.371 143.307 346.525 143.268 346.688C142.778 348.601 142.682 350.593 142.986 352.545C143.029 352.849 143.18 353.128 143.41 353.33C143.641 353.533 143.937 353.646 144.244 353.649H144.449C144.616 353.624 144.776 353.567 144.921 353.479C145.065 353.392 145.191 353.277 145.291 353.141C145.391 353.005 145.464 352.851 145.504 352.687C145.544 352.523 145.552 352.352 145.526 352.185C145.269 350.577 145.348 348.932 145.757 347.356C145.8 347.189 145.809 347.015 145.784 346.844C145.759 346.674 145.701 346.51 145.613 346.362C145.525 346.214 145.408 346.085 145.27 345.982C145.132 345.879 144.975 345.805 144.808 345.763Z" fill="#242638"/>
<path d="M160.589 345.943C160.425 345.901 160.255 345.894 160.088 345.921C159.921 345.949 159.762 346.01 159.62 346.101C159.478 346.193 159.356 346.313 159.262 346.453C159.169 346.594 159.105 346.752 159.075 346.919C158.678 348.784 158.523 350.692 158.613 352.596C158.626 352.928 158.767 353.241 159.006 353.471C159.246 353.701 159.564 353.829 159.896 353.829C160.064 353.823 160.23 353.783 160.383 353.712C160.536 353.641 160.674 353.541 160.788 353.417C160.903 353.293 160.992 353.147 161.05 352.989C161.108 352.83 161.134 352.662 161.128 352.493C161.04 350.771 161.169 349.045 161.512 347.356C161.561 347.047 161.493 346.732 161.322 346.471C161.152 346.21 160.89 346.022 160.589 345.943Z" fill="#242638"/>
<path d="M179.782 346.328C179.442 346.328 179.116 346.463 178.875 346.704C178.634 346.945 178.499 347.272 178.499 347.612V352.339C178.499 352.68 178.634 353.007 178.875 353.247C179.116 353.488 179.442 353.624 179.782 353.624C180.122 353.624 180.449 353.488 180.689 353.247C180.93 353.007 181.065 352.68 181.065 352.339V347.612C181.065 347.272 180.93 346.945 180.689 346.704C180.449 346.463 180.122 346.328 179.782 346.328Z" fill="#242638"/>
<path d="M186.787 335.616C186.619 335.625 186.454 335.668 186.302 335.742C186.15 335.816 186.014 335.919 185.902 336.046C185.79 336.172 185.704 336.32 185.649 336.479C185.594 336.639 185.571 336.808 185.581 336.977L185.787 340.83C185.806 341.158 185.95 341.465 186.188 341.689C186.427 341.914 186.742 342.038 187.07 342.038C187.237 342.031 187.401 341.991 187.553 341.92C187.705 341.849 187.841 341.749 187.953 341.624C188.066 341.5 188.152 341.354 188.207 341.196C188.263 341.037 188.286 340.869 188.276 340.702L188.07 336.849C188.057 336.517 187.916 336.203 187.677 335.973C187.438 335.744 187.119 335.615 186.787 335.616Z" fill="#242638"/>
<path d="M198.642 345.48C198.472 345.462 198.3 345.48 198.137 345.532C197.974 345.585 197.824 345.67 197.696 345.784C197.568 345.898 197.466 346.037 197.394 346.192C197.323 346.348 197.285 346.516 197.282 346.688L196.948 352.031C196.938 352.2 196.961 352.369 197.016 352.529C197.071 352.689 197.157 352.836 197.269 352.962C197.381 353.089 197.517 353.192 197.669 353.266C197.821 353.34 197.986 353.383 198.154 353.392C198.482 353.393 198.797 353.268 199.036 353.044C199.274 352.819 199.418 352.512 199.437 352.185L199.771 346.816C199.786 346.492 199.678 346.174 199.469 345.926C199.259 345.678 198.964 345.519 198.642 345.48Z" fill="#242638"/>
<path d="M214.346 344.632C214.175 344.61 214.001 344.625 213.837 344.676C213.672 344.727 213.52 344.812 213.392 344.927C213.263 345.041 213.16 345.182 213.09 345.339C213.02 345.497 212.984 345.667 212.986 345.84L212.729 350.13C212.719 350.297 212.742 350.465 212.797 350.624C212.853 350.782 212.939 350.928 213.051 351.052C213.164 351.176 213.3 351.277 213.451 351.348C213.603 351.419 213.768 351.459 213.935 351.466C214.264 351.473 214.583 351.35 214.823 351.124C215.063 350.899 215.205 350.588 215.218 350.258L215.449 345.968C215.465 345.648 215.361 345.333 215.156 345.086C214.952 344.839 214.663 344.677 214.346 344.632Z" fill="#242638"/>
<path d="M203.081 334.485C203.042 334.317 202.971 334.157 202.871 334.016C202.77 333.875 202.643 333.755 202.497 333.664C202.35 333.572 202.187 333.51 202.016 333.481C201.846 333.452 201.672 333.457 201.503 333.496C201.335 333.535 201.175 333.607 201.035 333.707C200.894 333.807 200.774 333.935 200.682 334.081C200.591 334.228 200.529 334.391 200.5 334.562C200.471 334.733 200.476 334.907 200.515 335.076L201.593 339.572C201.658 339.855 201.819 340.106 202.048 340.284C202.277 340.462 202.56 340.555 202.85 340.548H203.132C203.462 340.469 203.747 340.262 203.925 339.973C204.102 339.684 204.159 339.337 204.082 339.007L203.081 334.485Z" fill="#242638"/>
<path d="M219.144 330.658C219.076 330.317 218.876 330.017 218.587 329.825C218.298 329.632 217.945 329.562 217.604 329.63C217.264 329.698 216.965 329.899 216.772 330.188C216.58 330.477 216.51 330.831 216.578 331.171L217.425 335.256C217.489 335.541 217.649 335.796 217.877 335.978C218.106 336.161 218.39 336.259 218.682 336.258H218.939C219.106 336.227 219.264 336.164 219.406 336.07C219.547 335.976 219.668 335.855 219.762 335.714C219.855 335.572 219.919 335.413 219.95 335.246C219.98 335.079 219.977 334.908 219.939 334.742L219.144 330.658Z" fill="#242638"/>
<path d="M232.154 339.289C231.821 339.245 231.484 339.333 231.215 339.535C230.946 339.737 230.767 340.036 230.717 340.368L229.716 347.227C229.69 347.394 229.698 347.565 229.738 347.729C229.779 347.893 229.851 348.047 229.951 348.183C230.051 348.319 230.177 348.434 230.322 348.521C230.466 348.608 230.627 348.666 230.794 348.691H230.999C231.302 348.689 231.594 348.58 231.825 348.382C232.055 348.185 232.208 347.912 232.256 347.612L233.257 340.625C233.273 340.305 233.168 339.99 232.964 339.743C232.76 339.495 232.471 339.334 232.154 339.289Z" fill="#242638"/>
<path d="M111.887 317.505C111.727 317.448 111.557 317.424 111.388 317.433C111.218 317.443 111.052 317.486 110.9 317.56C110.747 317.634 110.61 317.737 110.498 317.865C110.385 317.992 110.299 318.14 110.244 318.301C109.524 320.326 109.219 322.475 109.346 324.621C109.372 324.946 109.517 325.25 109.755 325.473C109.992 325.696 110.304 325.823 110.629 325.828C110.799 325.822 110.966 325.781 111.119 325.708C111.273 325.636 111.41 325.533 111.523 325.405C111.636 325.278 111.722 325.129 111.775 324.968C111.829 324.807 111.849 324.636 111.835 324.467C111.736 322.671 111.989 320.873 112.58 319.175C112.707 318.861 112.706 318.51 112.576 318.197C112.447 317.884 112.199 317.636 111.887 317.505Z" fill="#242638"/>
<path d="M175.548 30.866C171.416 23.2877 159.895 19.1261 151.761 17.0453C149.754 16.5355 147.698 16.2427 145.628 16.1719C148.465 13.6531 151.722 11.6532 155.251 10.2634C157.381 9.64682 156.662 6.25588 154.507 6.87242C149.708 8.20825 146.244 12.0102 142.062 14.5791C144.728 10.7347 146.892 6.56497 148.502 2.17131C149.4 0.116183 146.116 -0.937066 145.218 1.09237C144.012 3.81542 142.652 6.51278 141.266 9.13307C140.796 10.02 140.274 10.8778 139.701 11.702C140.012 10.6464 140.38 9.60863 140.804 8.59358C141.486 6.7995 142.346 5.0783 143.37 3.45577C144.551 1.55477 141.626 -0.320521 140.471 1.58047C139.022 3.88504 137.867 6.36182 137.032 8.95323C136.853 9.51839 136.648 10.1093 136.494 10.7001C136.075 7.80008 135.912 4.86877 136.006 1.94012C136.006 -0.294834 132.619 -0.628797 132.568 1.7346C132.482 4.09995 132.551 6.46835 132.773 8.82478C132.862 9.54392 132.999 10.2563 133.184 10.957C132.927 10.5716 132.696 10.1606 132.439 9.80097C130.837 7.82407 129.411 5.70934 128.18 3.48144C127.282 1.452 124.203 3.04475 125.126 5.07419C126.273 7.23304 127.631 9.27248 129.181 11.1625C130.217 12.6515 131.143 14.2141 131.952 15.8379C128.469 13.3179 124.394 11.7426 120.123 11.2652C117.916 11.0083 117.736 14.4764 119.943 14.7333C123.895 15.2003 127.638 16.7666 130.746 19.2545L131.028 19.4087C113.246 27.2439 111.398 38.1104 111.604 43.0427C111.04 43.457 110.539 43.9501 110.116 44.5069C107.934 47.8979 102.726 53.9862 104.984 60.6397C105.753 62.926 106.857 64.9298 109.063 63.9536C121.893 58.3534 155.584 45.1492 185.067 48.7713C185.016 48.7456 186.427 35.6699 175.548 30.866Z" fill="#F14F51"/>
<path opacity="0.3" d="M175.548 30.866C171.416 23.2877 159.895 19.1261 151.761 17.0453C149.754 16.5355 147.698 16.2427 145.628 16.1719C148.465 13.6531 151.722 11.6532 155.251 10.2634C157.381 9.64682 156.662 6.25588 154.507 6.87242C149.708 8.20825 146.244 12.0102 142.062 14.5791C144.728 10.7347 146.892 6.56497 148.502 2.17131C149.4 0.116183 146.116 -0.937066 145.218 1.09237C144.012 3.81542 142.652 6.51278 141.266 9.13307C140.796 10.02 140.274 10.8778 139.701 11.702C140.012 10.6464 140.38 9.60863 140.804 8.59358C141.486 6.7995 142.346 5.0783 143.37 3.45577C144.551 1.55477 141.626 -0.320521 140.471 1.58047C139.022 3.88504 137.867 6.36182 137.032 8.95323C136.853 9.51839 136.648 10.1093 136.494 10.7001C136.075 7.80008 135.912 4.86877 136.006 1.94012C136.006 -0.294834 132.619 -0.628797 132.568 1.7346C132.482 4.09995 132.551 6.46835 132.773 8.82478C132.862 9.54392 132.999 10.2563 133.184 10.957C132.927 10.5716 132.696 10.1606 132.439 9.80097C130.837 7.82407 129.411 5.70934 128.18 3.48144C127.282 1.452 124.203 3.04475 125.126 5.07419C126.273 7.23304 127.631 9.27248 129.181 11.1625C130.217 12.6515 131.143 14.2141 131.952 15.8379C128.469 13.3179 124.394 11.7426 120.123 11.2652C117.916 11.0083 117.736 14.4764 119.943 14.7333C123.895 15.2003 127.638 16.7666 130.746 19.2545L131.028 19.4087C113.246 27.2439 111.398 38.1104 111.604 43.0427C111.04 43.457 110.539 43.9501 110.116 44.5069C107.934 47.8979 102.726 53.9862 104.984 60.6397C105.753 62.926 106.857 64.9298 109.063 63.9536C121.893 58.3534 155.584 45.1492 185.067 48.7713C185.016 48.7456 186.427 35.6699 175.548 30.866Z" fill="white"/>
<g opacity="0.1">
<path d="M229.665 148.368C226.072 144.489 219.401 145.131 214.91 146.441C214.025 146.685 213.265 147.253 212.781 148.034C207.392 149.704 203.056 153.608 204.39 159.003C205.622 163.858 211.241 165.914 215.68 166.402C218.169 166.754 220.706 166.467 223.053 165.568C225.401 164.67 227.481 163.188 229.1 161.264C232.051 157.744 233.103 152.067 229.665 148.368Z" fill="#F14F51"/>
<path d="M113.991 144.643C111.501 144.613 109.023 144.986 106.652 145.748C105.886 145.993 105.221 146.482 104.758 147.141C104.295 147.799 104.059 148.591 104.086 149.395C103.376 150.295 102.869 151.338 102.598 152.452C102.147 153.595 102.057 154.848 102.342 156.043C102.626 157.238 103.271 158.316 104.189 159.132C110.501 165.271 127.693 165.58 129.849 154.944C131.337 146.698 122.048 143.692 113.991 144.643Z" fill="#F14F51"/>
</g>
</svg>
