<svg width="354" height="196" viewBox="0 0 354 196" fill="none" xmlns="http://www.w3.org/2000/svg">
<path d="M210.38 77.5755C210.581 71.0002 210.658 64.421 210.609 57.8376C210.549 48.8571 210.247 39.8524 210.996 30.9081C211.745 21.9639 213.595 12.9833 217.559 4.94556C218.136 3.53794 219.049 2.29302 220.218 1.3195C221.732 0.393515 223.486 -0.0609215 225.259 0.0141231C231.906 -0.20344 239.122 2.08098 242.724 7.67719C244.318 10.483 245.391 13.5543 245.891 16.7423C249.774 35.1189 251.991 53.8085 252.514 72.5836C238.612 75.3769 224.577 77.4665 210.464 78.8446L210.38 77.5755Z" fill="#F14F51"/>
<path opacity="0.3" d="M210.38 77.5755C210.581 71.0002 210.658 64.421 210.609 57.8376C210.549 48.8571 210.247 39.8524 210.996 30.9081C211.745 21.9639 213.595 12.9833 217.559 4.94556C218.136 3.53794 219.049 2.29302 220.218 1.3195C221.732 0.393515 223.486 -0.0609215 225.259 0.0141231C231.906 -0.20344 239.122 2.08098 242.724 7.67719C244.318 10.483 245.391 13.5543 245.891 16.7423C249.774 35.1189 251.991 53.8085 252.514 72.5836C238.612 75.3769 224.577 77.4665 210.464 78.8446L210.38 77.5755Z" fill="white"/>
<path d="M252.986 69.1388C252.212 64.6788 254.823 60.1099 258.582 57.5959C262.341 55.0818 267.043 54.3566 271.564 54.4412C273.712 54.4345 275.848 54.7607 277.897 55.4081C280 56.1651 281.888 57.4203 283.399 59.0665C284.91 60.7126 286 62.7006 286.575 64.8601C287.13 67.5959 287.256 70.4012 286.95 73.1758L286.696 77.7326L286.261 85.3594C286.275 85.6476 286.204 85.9336 286.056 86.1813C285.83 86.4491 285.518 86.6288 285.173 86.6889C276.036 89.4206 266.269 88.9492 256.769 88.0064C256.17 88.005 255.585 87.824 255.089 87.4867C254.752 87.1535 254.51 86.7362 254.388 86.278C253.421 83.5584 253.663 80.5972 253.651 77.7205C253.639 74.6625 252.986 69.1388 252.986 69.1388Z" fill="#F14F51"/>
<path opacity="0.3" d="M252.986 69.1388C252.212 64.6788 254.823 60.1099 258.582 57.5959C262.341 55.0818 267.043 54.3566 271.564 54.4412C273.712 54.4345 275.848 54.7607 277.897 55.4081C280 56.1651 281.888 57.4203 283.399 59.0665C284.91 60.7126 286 62.7006 286.575 64.8601C287.13 67.5959 287.256 70.4012 286.95 73.1758L286.696 77.7326L286.261 85.3594C286.275 85.6476 286.204 85.9336 286.056 86.1813C285.83 86.4491 285.518 86.6288 285.173 86.6889C276.036 89.4206 266.269 88.9492 256.769 88.0064C256.17 88.005 255.585 87.824 255.089 87.4867C254.752 87.1535 254.51 86.7362 254.388 86.278C253.421 83.5584 253.663 80.5972 253.651 77.7205C253.639 74.6625 252.986 69.1388 252.986 69.1388Z" fill="white"/>
<path d="M287.869 62.3703C294.897 61.9081 301.955 62.1917 308.924 63.2164C318.146 64.5822 328.263 68.0511 332.312 76.4152C333.583 79.2162 334.325 82.2282 334.5 85.299C335.455 96.7936 331.116 109.473 321.059 115.154C315.233 118.429 308.32 118.985 301.648 119.239C274.368 120.278 247.148 117.511 219.977 114.573C209.099 113.365 198.088 112.156 187.838 108.337C181.993 106.029 176.336 103.273 170.916 100.093C161.489 94.7993 155.747 91.8018 148.169 87.656C165.41 83.2516 182.899 79.8774 200.541 77.5514C218.055 75.2549 235.811 73.9253 252.853 69.284C253.312 73.0792 253.868 77.1162 256.322 80.0413C258.776 82.9663 262.716 84.2233 266.523 84.598C272.095 85.154 278.042 83.9695 282.297 80.3434C286.551 76.7174 288.715 70.3718 286.455 65.2832L285.838 62.7691L287.869 62.3703Z" fill="#F14F51"/>
<path d="M210.694 107.237C222.595 107.385 234.473 108.309 246.253 110.005C246.692 110.037 247.112 110.197 247.462 110.464C247.72 110.756 247.888 111.117 247.946 111.503C248.474 113.624 248.625 115.821 248.393 117.994C248.151 120.278 247.486 122.502 247.184 124.763C246.846 127.646 246.761 130.554 246.93 133.453C247.204 144.508 247.116 155.572 246.664 166.644C246.398 173.025 245.939 179.637 242.893 185.257C239.267 192.014 231.217 196.631 223.699 195.023C217.426 193.694 212.531 188.448 210.126 182.501C207.72 176.555 207.455 169.992 207.648 163.586C208.192 145.25 212.229 126.962 210.646 108.687L210.694 107.237Z" fill="#F14F51"/>
<path opacity="0.3" d="M210.694 107.237C222.595 107.385 234.473 108.309 246.253 110.005C246.692 110.037 247.112 110.197 247.462 110.464C247.72 110.756 247.888 111.117 247.946 111.503C248.474 113.624 248.625 115.821 248.393 117.994C248.151 120.278 247.486 122.502 247.184 124.763C246.846 127.646 246.761 130.554 246.93 133.453C247.204 144.508 247.116 155.572 246.664 166.644C246.398 173.025 245.939 179.637 242.893 185.257C239.267 192.014 231.217 196.631 223.699 195.023C217.426 193.694 212.531 188.448 210.126 182.501C207.72 176.555 207.455 169.992 207.648 163.586C208.192 145.25 212.229 126.962 210.646 108.687L210.694 107.237Z" fill="white"/>
<path d="M148.169 87.6318C148.148 85.7925 147.817 83.97 147.19 82.241C146.718 80.6335 146.344 79.0017 145.981 77.4063C145.706 76.1898 145.617 74.9388 145.715 73.6956C145.86 72.6208 146.187 71.5785 146.682 70.6135C147.326 69.1416 148.265 67.8177 149.442 66.724C150.619 65.6304 152.008 64.7902 153.523 64.2558C154.731 63.918 155.98 63.7472 157.234 63.7481C158.094 63.6924 158.958 63.7906 159.784 64.0382C161.16 64.6223 162.292 65.6643 162.987 66.9874C163.859 68.55 164.587 70.1884 165.163 71.8826L169.248 82.8695C162.181 83.7499 155.215 85.3082 148.447 87.523L148.169 87.6318Z" fill="#F14F51"/>
<path opacity="0.3" d="M148.169 87.6318C148.148 85.7925 147.817 83.97 147.19 82.241C146.718 80.6335 146.344 79.0017 145.981 77.4063C145.706 76.1898 145.617 74.9388 145.715 73.6956C145.86 72.6208 146.187 71.5785 146.682 70.6135C147.326 69.1416 148.265 67.8177 149.442 66.724C150.619 65.6304 152.008 64.7902 153.523 64.2558C154.731 63.918 155.98 63.7472 157.234 63.7481C158.094 63.6924 158.958 63.7906 159.784 64.0382C161.16 64.6223 162.292 65.6643 162.987 66.9874C163.859 68.55 164.587 70.1884 165.163 71.8826L169.248 82.8695C162.181 83.7499 155.215 85.3082 148.447 87.523L148.169 87.6318Z" fill="white"/>
<path d="M341.293 84.4166C341.355 88.0303 341.617 91.6377 342.078 95.2223C345.547 93.8927 349.016 92.539 352.449 91.1369C352.908 90.9556 353.464 90.5688 353.295 90.1095C353.19 89.9018 353.014 89.7388 352.799 89.6502C349.274 87.6168 345.643 85.773 341.921 84.1265L341.293 84.4166Z" fill="#E4494F"/>
<path d="M336.071 55.3961C335.153 67.1929 336.373 78.9413 337.437 90.6776C337.957 96.3464 338.44 102.039 338.585 107.732C338.67 110.754 338.658 113.776 338.501 116.797C338.428 118.308 338.319 119.819 338.174 121.318C338.066 122.454 337.606 125.198 336.519 122.998C336.083 122.14 336.519 120.061 336.591 119.118C336.712 117.317 336.942 115.492 337.195 113.727C337.546 111.092 337.969 108.457 338.162 105.81C338.356 103.163 338.247 100.444 338.307 97.7605C338.461 94.4375 338.963 91.1398 339.806 87.9218C341.015 82.8212 340.362 77.6722 340.012 72.5111C339.794 69.3564 339.673 66.1896 339.359 63.0592C339.359 61.6443 338.877 60.2716 337.993 59.1672C337.878 59.0557 337.724 58.9933 337.564 58.9933C337.404 58.9933 337.25 59.0557 337.135 59.1672C336.609 59.6494 336.197 60.2419 335.928 60.9023C335.658 61.5626 335.538 62.2744 335.576 62.9866C335.322 66.0325 335.346 69.1509 335.346 72.2089C335.32 77.9769 335.691 83.7399 336.458 89.4568C337.244 95.2223 338.356 100.939 339.008 106.729C339.403 109.82 339.613 112.932 339.637 116.048C339.637 118.937 339.709 122.236 337.34 124.291L338.356 124.557C337.558 119.988 339.564 114.755 339.987 110.15C340.449 105.499 340.542 100.819 340.265 96.153C340.012 91.56 339.468 86.9911 339.057 82.4102C338.863 80.1258 338.694 77.8293 338.597 75.5449C338.597 74.3362 338.537 73.2484 338.537 72.1122C338.417 70.9647 338.449 69.8064 338.634 68.6675C339.842 66.6973 339.939 71.5804 339.939 71.4958C340.048 72.7045 340.096 73.8165 340.096 74.9768C340.091 77.6134 339.812 80.2424 339.262 82.8212C338.356 87.112 336.845 91.282 336.144 95.597C334.814 104.3 336.917 113.062 336.76 121.801C336.76 121.962 336.824 122.115 336.937 122.229C337.051 122.342 337.204 122.406 337.365 122.406C337.525 122.406 337.679 122.342 337.792 122.229C337.905 122.115 337.969 121.962 337.969 121.801C338.066 116.096 337.244 110.464 336.99 104.783C336.802 99.2636 337.504 93.75 339.069 88.4536C340.661 83.3441 341.392 78.0055 341.232 72.6561C341.148 71.3024 341.232 65.1864 338.537 65.9963C337.727 66.238 337.667 66.7456 337.498 67.5313C337.159 70.1898 337.123 72.8781 337.389 75.5449C337.606 81.0927 338.295 86.6164 338.755 92.1401C339.278 97.7386 339.319 103.372 338.875 108.977C338.428 114.102 336.289 119.771 337.171 124.883C337.256 125.367 337.872 125.415 338.186 125.149C342.054 121.801 340.954 114.73 340.604 110.27C340 102.728 338.416 95.3069 337.473 87.813C336.646 80.5398 336.391 73.2127 336.712 65.8996C336.712 65.4765 336.627 60.1825 338.029 61.7296C338.694 62.4669 338.404 66.3226 338.464 67.2291C338.73 71.0969 339.033 74.9647 339.262 78.8446C339.661 85.8912 337.147 92.4665 337.123 99.5252C337.123 106.886 335.419 114.029 335.322 121.366C335.322 122.768 334.971 125.572 336.7 126.298C337.993 126.842 338.67 126.032 338.996 124.908C339.806 122.091 339.685 118.61 339.794 115.71C339.939 111.926 339.879 108.143 339.709 104.36C338.936 88.0427 336.083 71.81 337.292 55.4323C337.353 54.6588 336.144 54.6588 336.083 55.4323L336.071 55.3961Z" fill="#242638"/>
<path d="M289.936 137.273C290.096 137.273 290.25 137.209 290.363 137.096C290.477 136.982 290.54 136.828 290.54 136.668C290.54 136.508 290.477 136.354 290.363 136.241C290.25 136.128 290.096 136.064 289.936 136.064C289.776 136.064 289.622 136.128 289.509 136.241C289.395 136.354 289.332 136.508 289.332 136.668C289.332 136.828 289.395 136.982 289.509 137.096C289.622 137.209 289.776 137.273 289.936 137.273Z" fill="black"/>
<path d="M280.496 118.864C281.409 123.168 282.592 127.411 284.037 131.567C284.847 133.888 285.512 136.813 287.929 137.937C288.63 138.263 289.246 137.224 288.545 136.898C285.802 135.689 284.919 130.612 284.122 127.978C283.155 124.871 282.357 121.717 281.704 118.538C281.547 117.776 280.375 118.103 280.496 118.864Z" fill="#242638"/>
<path d="M284.726 124.932C280.121 125.766 275.552 129.283 275.177 134.142C274.778 139.218 276.217 145.201 281.112 147.703C285.258 149.831 290.685 148.791 294.335 146.096C297.985 143.4 299.569 136.813 298.312 132.413C297.055 128.014 292.171 124.92 287.772 124.424C282.78 123.868 278.38 127.579 276.023 131.676C273.534 136.015 275.31 142.264 278.985 145.491C282.659 148.719 288.654 148.259 292.993 146.458C298.457 144.174 299.411 138.699 297.695 133.32C295.822 127.446 289.73 124.859 284.013 124.859C283.853 124.859 283.699 124.923 283.586 125.036C283.472 125.149 283.408 125.303 283.408 125.463C283.408 125.624 283.472 125.777 283.586 125.891C283.699 126.004 283.853 126.068 284.013 126.068C289.609 126.165 295.362 128.739 296.789 134.625C297.49 137.538 297.49 141.781 295.181 143.86C292.946 145.557 290.249 146.535 287.446 146.664C281.511 147.135 277.232 143.497 276.144 137.671C275.153 132.389 280.725 126.14 285.947 125.669C291.676 125.161 297.417 129.754 297.466 135.556C297.514 141.358 294.553 146.023 288.775 147.341C282.635 148.731 277.631 145.008 276.567 138.88C276.072 136.039 275.903 132.341 278.006 130.093C279.881 128.069 282.34 126.68 285.04 126.116C285.814 125.983 285.487 124.811 284.726 124.907V124.932Z" fill="#242638"/>
<path d="M285.354 125.717C285.437 132.915 286.519 140.066 288.57 146.966C288.613 147.126 288.718 147.263 288.862 147.346C289.006 147.428 289.177 147.45 289.337 147.407C289.497 147.364 289.634 147.259 289.717 147.115C289.799 146.971 289.822 146.8 289.778 146.64C287.739 139.849 286.657 132.807 286.563 125.717C286.563 125.557 286.5 125.403 286.386 125.29C286.273 125.177 286.119 125.113 285.959 125.113C285.799 125.113 285.645 125.177 285.531 125.29C285.418 125.403 285.354 125.557 285.354 125.717Z" fill="#242638"/>
<path d="M282.466 144.754C286.533 139.861 290.172 134.629 293.344 129.114C293.426 128.974 293.449 128.808 293.408 128.652C293.367 128.495 293.266 128.361 293.126 128.28C292.987 128.198 292.821 128.175 292.664 128.216C292.508 128.257 292.374 128.358 292.292 128.497C289.183 133.911 285.612 139.047 281.62 143.848C281.124 144.44 281.982 145.298 282.478 144.706L282.466 144.754Z" fill="#242638"/>
<path d="M278.634 129.065C280.814 132.018 283.352 134.69 286.188 137.019C287.724 138.227 289.428 139.351 290.83 140.753C291.847 142.002 292.985 143.148 294.226 144.174C294.867 144.609 295.435 143.558 294.831 143.122C293.296 142.095 292.329 140.451 290.963 139.23C289.597 138.01 288.316 137.212 287.035 136.172C284.281 133.906 281.809 131.317 279.674 128.461C279.214 127.845 278.163 128.461 278.634 129.065Z" fill="#242638"/>
<path d="M278.429 141.068C284.919 139.859 290.346 136.003 296.499 133.816C297.224 133.562 296.91 132.389 296.172 132.607C290.02 134.734 284.581 138.65 278.102 139.859C277.341 139.992 277.667 141.164 278.429 141.068Z" fill="#242638"/>
<path d="M275.842 136.076C283.03 137.349 290.246 138.425 297.49 139.303C298.263 139.4 298.263 138.191 297.49 138.094C290.358 137.224 283.247 136.164 276.156 134.915C275.395 134.782 275.069 135.943 275.842 136.124V136.076Z" fill="#242638"/>
<path d="M153.499 71.9309C153.909 71.609 154.378 71.3725 154.881 71.2355C155.383 71.0985 155.908 71.0637 156.424 71.1332C157.038 71.053 157.66 71.2024 158.171 71.5525C158.682 71.9027 159.045 72.4291 159.192 73.0308C159.809 74.6867 159.772 78.0106 157.983 78.9775C156.195 79.9445 154.176 78.4215 153.27 77.0436C152.735 76.1759 152.471 75.1684 152.512 74.1501C152.553 73.1317 152.897 72.1486 153.499 71.3265C154.333 70.0091 152.291 68.8004 151.408 70.1179C150.473 71.5136 150.035 73.1835 150.164 74.8586C150.293 76.5338 150.983 78.1166 152.121 79.3522C154.2 81.5399 158.02 82.7124 160.316 80.1983C161.407 78.9196 161.992 77.2857 161.96 75.6053C161.96 73.9494 161.827 71.6045 160.751 70.2508C158.829 67.8334 153.922 68.3653 151.843 70.2508C150.635 71.2903 152.387 72.9945 153.548 71.9671L153.499 71.9309Z" fill="#F14F51"/>
<path d="M316.055 66.1171L315.33 116.544C315.33 116.704 315.394 116.857 315.507 116.971C315.62 117.084 315.774 117.148 315.934 117.148C316.095 117.148 316.248 117.084 316.362 116.971C316.475 116.857 316.539 116.704 316.539 116.544L317.264 66.1171C317.264 65.9568 317.2 65.8031 317.087 65.6898C316.974 65.5765 316.82 65.5128 316.66 65.5128C316.499 65.5128 316.346 65.5765 316.232 65.6898C316.119 65.8031 316.055 65.9568 316.055 66.1171Z" fill="#242638"/>
<path d="M315.173 66.8423C314.914 68.1958 314.828 69.5768 314.919 70.9519C314.919 71.7254 316.128 71.7254 316.128 70.9519C316.039 69.6872 316.108 68.4163 316.333 67.1687C316.478 66.4072 315.306 66.0809 315.125 66.8423H315.173Z" fill="#242638"/>
<path d="M312.731 65.4765C312.71 66.6923 312.811 67.9072 313.034 69.1026C313.167 69.8641 314.327 69.5377 314.242 68.7762C314.049 67.6955 313.964 66.5983 313.988 65.5007C313.988 64.7271 312.78 64.7271 312.78 65.5007L312.731 65.4765Z" fill="#242638"/>
<path d="M310.459 67.5192C310.366 69.0682 310.492 70.6227 310.834 72.1364C310.991 72.8979 312.163 72.5715 312.042 71.81C311.734 70.4019 311.625 68.9577 311.716 67.5192C311.716 66.7336 310.507 66.7456 310.507 67.5192H310.459Z" fill="#242638"/>
<path d="M312.49 72.8616C312.562 73.581 312.562 74.3058 312.49 75.0251C312.417 75.7987 313.626 75.7987 313.698 75.0251C313.771 74.3058 313.771 73.581 313.698 72.8616C313.626 72.088 312.417 72.088 312.49 72.8616Z" fill="#242638"/>
<path d="M314.387 77.0678V80.1258C314.387 80.2861 314.451 80.4398 314.564 80.5531C314.678 80.6665 314.831 80.7301 314.992 80.7301C315.152 80.7301 315.306 80.6665 315.419 80.5531C315.532 80.4398 315.596 80.2861 315.596 80.1258V77.0678C315.596 76.9075 315.532 76.7538 315.419 76.6405C315.306 76.5272 315.152 76.4635 314.992 76.4635C314.831 76.4635 314.678 76.5272 314.564 76.6405C314.451 76.7538 314.387 76.9075 314.387 77.0678Z" fill="#242638"/>
<path d="M312.393 76.5239C312.147 77.6834 312.18 78.8849 312.49 80.0291C312.531 80.1894 312.635 80.3266 312.778 80.4104C312.921 80.4943 313.091 80.518 313.251 80.4763C313.411 80.4346 313.549 80.331 313.632 80.1882C313.716 80.0454 313.74 79.8751 313.698 79.7148C313.431 78.7825 313.398 77.7985 313.602 76.8503C313.759 76.0888 312.586 75.7624 312.393 76.5239Z" fill="#242638"/>
<path d="M310.628 79.2314L310.798 83.1717C310.798 83.9573 312.006 83.9573 312.006 83.1717L311.837 79.2314C311.837 78.4578 310.628 78.4578 310.628 79.2314Z" fill="#242638"/>
<path d="M308.416 76.681C308.373 77.2892 308.422 77.9005 308.561 78.4941C308.731 79.2555 309.891 78.9413 309.77 78.1798C309.666 77.6875 309.633 77.1827 309.673 76.681C309.673 75.9075 308.465 75.9075 308.465 76.681H308.416Z" fill="#242638"/>
<path d="M313.142 83.6914L313.046 87.7647C313.046 87.925 313.109 88.0787 313.223 88.192C313.336 88.3054 313.49 88.369 313.65 88.369C313.81 88.369 313.964 88.3054 314.077 88.192C314.191 88.0787 314.254 87.925 314.254 87.7647L314.363 83.6914C314.363 83.5311 314.299 83.3774 314.186 83.2641C314.073 83.1508 313.919 83.0871 313.759 83.0871C313.599 83.0871 313.445 83.1508 313.331 83.2641C313.218 83.3774 313.154 83.5311 313.154 83.6914H313.142Z" fill="#242638"/>
<path d="M308.211 85.4682C308.283 86.5923 308.416 87.7043 308.586 88.8163C308.694 89.5898 309.867 89.2635 309.794 88.502C309.637 87.4988 309.528 86.4835 309.468 85.4682C309.468 84.6946 308.259 84.6946 308.259 85.4682H308.211Z" fill="#242638"/>
<path d="M313.13 89.9282C313.062 91.5004 313.102 93.0755 313.251 94.6421C313.324 95.4036 314.532 95.4157 314.46 94.6421C314.311 93.0755 314.27 91.5004 314.339 89.9282C314.339 89.1547 313.13 89.1547 313.13 89.9282Z" fill="#242638"/>
<path d="M310.169 93.796C310.577 95.2718 310.777 96.7975 310.761 98.3286C310.761 98.4889 310.825 98.6426 310.938 98.7559C311.052 98.8693 311.205 98.933 311.366 98.933C311.526 98.933 311.68 98.8693 311.793 98.7559C311.906 98.6426 311.97 98.4889 311.97 98.3286C311.978 96.6953 311.763 95.0686 311.329 93.4939C311.286 93.3336 311.181 93.1971 311.037 93.1143C310.893 93.0316 310.722 93.0094 310.562 93.0527C310.402 93.096 310.265 93.2011 310.182 93.3451C310.1 93.489 310.077 93.6599 310.121 93.8202L310.169 93.796Z" fill="#242638"/>
<path d="M312.562 97.7001L313.009 101.64C313.094 102.402 314.315 102.414 314.218 101.64L313.771 97.7001C313.674 96.9386 312.466 96.9265 312.562 97.7001Z" fill="#242638"/>
<path d="M313.976 103.042L314.133 105.847C314.133 106.62 315.342 106.62 315.342 105.847L315.185 103.042C315.185 102.269 313.976 102.269 313.976 103.042Z" fill="#242638"/>
<path d="M311.982 103.296C311.922 104.446 311.958 105.598 312.091 106.741C312.188 107.503 313.396 107.515 313.299 106.741C313.167 105.598 313.13 104.446 313.191 103.296C313.191 102.523 311.982 102.523 311.982 103.296Z" fill="#242638"/>
<path d="M310.459 105.375C310.866 106.721 311.03 108.129 310.943 109.533C310.943 110.319 312.151 110.307 312.151 109.533C312.247 108.019 312.067 106.499 311.619 105.049C311.576 104.889 311.471 104.752 311.327 104.669C311.183 104.587 311.012 104.564 310.852 104.608C310.692 104.651 310.555 104.756 310.472 104.9C310.39 105.044 310.367 105.215 310.411 105.375H310.459Z" fill="#242638"/>
<path d="M308.428 103.079L308.803 105.375C308.936 106.137 310.096 105.81 310.012 105.049L309.625 102.752C309.504 101.991 308.344 102.317 308.416 103.079H308.428Z" fill="#242638"/>
<path d="M308.694 112.881C308.9 113.834 308.973 114.81 308.912 115.782C308.912 116.556 310.121 116.556 310.121 115.782C310.177 114.699 310.088 113.614 309.855 112.555C309.686 111.805 308.525 112.12 308.646 112.881H308.694Z" fill="#242638"/>
<path d="M313.167 110.814C313.036 112.297 313.007 113.788 313.082 115.274C313.082 116.048 314.291 116.048 314.291 115.274C314.216 113.788 314.244 112.297 314.375 110.814C314.375 110.041 313.167 110.041 313.167 110.814Z" fill="#242638"/>
<path d="M113.395 83.4135C113.89 87.8373 114.253 95.4157 108.354 96.4914C107.179 96.6388 105.987 96.4569 104.909 95.966C103.831 95.4752 102.911 94.6947 102.251 93.7115C100.558 91.3787 100.643 88.2603 100.498 85.5045C100.389 83.3047 100.196 81.0807 100.172 78.8688C100.036 77.3702 100.37 75.8664 101.127 74.5659C101.409 74.1444 101.784 73.7938 102.224 73.5411C102.664 73.2884 103.156 73.1405 103.663 73.109C104.169 73.0774 104.676 73.163 105.143 73.3591C105.611 73.5551 106.028 73.8564 106.36 74.2395C108.149 76.1251 108.427 79.3523 108.185 81.7817C108.092 83.0831 107.751 84.3547 107.182 85.5287C106.179 87.4505 104.499 87.946 102.432 87.5593C98.0806 86.8461 91.4208 82.9179 93.2822 77.5876C94.5513 73.9615 98.8905 74.5538 101.598 75.835C102.927 76.3243 104.049 77.2549 104.775 78.4714C105.501 79.6879 105.787 81.1167 105.587 82.519C105.442 84.7309 104.994 87.5593 103.169 89.1064C102.584 89.6943 101.807 90.0529 100.98 90.1172C100.153 90.1815 99.33 89.9472 98.6608 89.4569C97.4521 88.357 97.2708 86.2539 97.1379 84.7189C96.8382 82.7627 96.9535 80.7654 97.4763 78.8567C98.1411 77.0316 99.8937 76.2943 101.417 77.9019C102.261 79.0041 102.788 80.3167 102.94 81.6971C103.535 84.654 103.032 87.7264 101.525 90.3392C100.317 92.1039 97.6818 93.373 96.3039 91.1007C95.5061 89.7953 95.8325 88.1515 96.0863 86.7374C96.5416 84.2107 97.2128 81.7278 98.0927 79.316C98.9872 76.8261 100.196 72.7166 102.553 71.242C102.94 71.0003 102.553 70.3717 102.19 70.6256C100.949 71.5484 99.9971 72.8064 99.4464 74.2516C98.567 76.0475 97.8 77.8964 97.1499 79.7874C96.4874 81.7086 95.9504 83.6708 95.5424 85.6616C95.0996 87.1913 94.9722 88.795 95.1677 90.3755C95.262 90.89 95.4765 91.375 95.7936 91.791C96.1107 92.2071 96.5215 92.5424 96.9927 92.7697C97.4638 92.997 97.9819 93.1099 98.5049 93.0992C99.0279 93.0886 99.541 92.9546 100.002 92.7083C102.94 91.2216 103.87 87.0395 103.943 84.1145C103.943 81.6125 103.447 77.636 100.812 76.4635C98.4795 75.4241 96.9807 77.7689 96.6181 79.7391C96.1105 82.4223 96.0863 86.689 97.5851 89.1185C99.0838 91.5479 101.924 91.282 103.786 89.614C106.01 87.6318 106.578 83.6552 106.36 80.839C106.094 77.503 103.713 75.7746 100.74 74.6747C97.9719 73.6473 94.3216 73.8528 92.8591 76.8382C91.6504 79.449 92.7382 82.3982 94.6359 84.3562C97.0216 86.7546 100.204 88.1952 103.58 88.4053C107.025 88.5383 108.415 85.4924 108.862 82.4949C109.309 79.4973 108.971 75.4361 106.517 73.3572C106.09 72.9595 105.58 72.6616 105.024 72.485C104.468 72.3084 103.879 72.2577 103.301 72.3363C102.723 72.415 102.169 72.6211 101.68 72.9398C101.191 73.2585 100.779 73.6818 100.474 74.1791C99.5711 75.792 99.207 77.651 99.4344 79.4852C99.519 81.9026 99.6761 84.32 99.8091 86.822C100.015 90.5568 100.607 94.3762 104.16 96.3706C105.466 97.1341 107.005 97.3969 108.491 97.1101C109.976 96.8232 111.307 96.0063 112.234 94.8114C114.869 91.5842 114.507 87.2571 114.084 83.3893C114.084 82.93 113.31 82.93 113.358 83.3893L113.395 83.4135Z" fill="#242638"/>
<path d="M66.0628 57.4267C63.2345 57.4267 60.0194 57.3542 57.6987 59.2276C56.6843 60.0551 55.9628 61.1867 55.6407 62.4556C55.3186 63.7244 55.413 65.0632 55.9099 66.2743C56.9735 68.3895 59.3909 67.2896 60.7446 66.0567C62.7121 63.9643 63.884 61.2485 64.0564 58.3815C64.1539 57.8912 64.1519 57.3862 64.0506 56.8966C63.9493 56.4071 63.7508 55.9428 63.4667 55.5314C63.1827 55.1199 62.8189 54.7697 62.397 54.5015C61.9751 54.2333 61.5036 54.0525 61.0105 53.9698C58.4481 53.4743 56.3571 55.3477 55.4747 57.5959C53.5408 62.5032 57.2999 69.441 63.162 67.9302C64.3233 67.6353 65.3575 66.9716 66.1094 66.0388C66.8613 65.106 67.2903 63.9544 67.3319 62.757C67.3319 60.0495 65.1442 57.9222 63.029 56.6169C60.5029 55.0214 57.3361 53.7402 54.3265 54.6588C53.1566 54.958 52.1353 55.6722 51.4527 56.6683C50.77 57.6644 50.4726 58.8747 50.6158 60.0737C51.0751 62.9262 54.2419 63.6998 56.6593 64.3283C60.6645 65.4321 64.7567 66.1923 68.8912 66.6006C71.236 66.8061 72.348 65.2348 70.8613 63.2405C69.0362 60.8231 65.7848 59.6144 62.9686 58.9255C59.7656 58.0673 55.8857 57.5234 53.1782 59.8924C52.0998 60.7679 51.3953 62.0212 51.2081 63.3976C51.1637 64.0318 51.225 64.669 51.3894 65.2831C51.6199 66.7093 51.5707 68.1667 51.2443 69.574C50.5191 76.0042 63.1741 77.8051 62.9202 71.8826C62.9202 71.4233 62.183 71.4233 62.2071 71.8826C62.3522 75.2548 57.2273 75.001 55.1121 74.2153C54.4837 74.0054 53.9052 73.6685 53.4124 73.2256C52.9196 72.7828 52.5231 72.2433 52.2476 71.6408C51.6795 70.3234 52.1146 69.1389 52.308 67.7972C52.5981 65.8633 51.4015 64.0624 52.308 62.1889C53.4079 59.7715 56.0912 58.8046 58.6173 58.865C60.5942 58.9953 62.5431 59.4021 64.4069 60.0737C66.3046 60.6901 69.2417 61.79 70.2691 63.6998C71.7678 66.4072 68.1418 65.815 66.9573 65.6457C65.7727 65.4765 64.6849 65.3073 63.5488 65.1139C61.2885 64.7271 59.0404 64.2437 56.8285 63.6635C54.6166 63.0833 51.4015 62.3702 51.3048 59.5177C51.2081 56.6652 54.0606 55.0818 56.6109 55.0818C60.3578 55.0818 66.6309 58.5024 66.643 62.7812C66.6005 63.819 66.2248 64.8154 65.5717 65.6231C64.9187 66.4307 64.0228 67.0066 63.0169 67.2654C61.7661 67.5192 60.4668 67.3622 59.3124 66.8177C58.1581 66.2732 57.2105 65.3704 56.6109 64.2437C56.0504 63.218 55.7348 62.0766 55.6886 60.9087C55.6425 59.7407 55.8671 58.578 56.345 57.5113C57.3361 55.384 59.7051 53.8006 62.0016 55.0939C64.2981 56.3872 63.3312 59.6144 62.6543 61.6329C62.0379 63.458 60.6358 66.3105 58.4602 66.6731C55.7527 67.1324 56.0428 63.5547 56.5505 62.1768C57.0112 60.847 57.9683 59.7469 59.2217 59.1068C61.3889 58.2305 63.7377 57.8986 66.0628 58.1398C66.1462 58.1244 66.2214 58.0803 66.2756 58.0152C66.3298 57.95 66.3595 57.868 66.3595 57.7832C66.3595 57.6985 66.3298 57.6165 66.2756 57.5513C66.2214 57.4862 66.1462 57.4421 66.0628 57.4267V57.4267Z" fill="#242638"/>
<path d="M21.7523 80.7664C22.1818 80.1522 22.7809 79.6766 23.4764 79.3975C24.1719 79.1184 24.9336 79.0481 25.6685 79.1951C27.4694 79.5456 28.2672 81.0444 28.7627 82.6761C29.2583 84.3078 29.6451 86.6889 27.4694 87.2449C25.621 87.615 23.7093 87.5152 21.9095 86.9549C18.8657 86.0421 15.9797 84.6684 13.352 82.8816C11.8151 82.1146 10.6425 80.7726 10.0885 79.1467C9.58087 76.8744 11.5148 75.3877 13.6058 75.5207C16.8572 75.6536 19.4679 79.5819 20.4711 82.3618C21.0876 84.0782 21.0271 86.2417 19.2624 87.1966C18.1972 87.6895 16.9805 87.7426 15.8763 87.3444C14.7722 86.9462 13.8695 86.1287 13.3641 85.0693C12.1554 81.7575 15.7814 78.7479 18.368 77.5271C19.758 76.8744 21.9941 76.0525 23.517 76.4997C25.3784 77.0315 25.6564 79.606 25.8135 81.2136C26.1157 84.5496 24.7741 88.8041 20.8096 88.9734C19.1301 88.9237 17.4866 88.4746 16.0152 87.6632C14.5439 86.8519 13.287 85.7017 12.3488 84.3078C11.8863 83.6599 11.5565 82.9271 11.3781 82.1513C11.1997 81.3755 11.1763 80.5722 11.3093 79.7874C11.7807 77.9622 13.6179 77.1041 15.2859 76.6931C16.9539 76.2822 19.1416 76.0042 20.4711 77.515C21.3633 78.7249 21.8575 80.182 21.8853 81.685C22.1875 85.2385 20.459 88.2844 16.555 88.1515C13.8596 88.0548 9.94348 86.8461 9.03697 83.9694C7.82828 80.2587 11.6961 77.648 14.7782 76.9349C16.34 76.5181 17.9777 76.4727 19.5601 76.8022C21.1426 77.1318 22.626 77.827 23.8917 78.8325C26.5146 81.1773 27.3365 85.3594 24.9433 88.1635C23.0094 90.4238 19.8305 91.3786 16.978 91.7896C11.0192 92.6115 4.62526 90.9435 0.600338 86.3143C0.298167 85.9637 -0.209481 86.4714 0.0926902 86.8219C5.27795 92.7928 14.8024 94.2916 21.9216 91.1007C25.2938 89.5898 27.7474 86.556 26.9497 82.7124C26.4981 80.8735 25.4738 79.2258 24.0247 78.007C22.5757 76.7882 20.7768 76.0615 18.8878 75.9316C15.1046 75.4965 10.0885 76.7898 8.55349 80.6818C7.1635 84.1749 9.66548 86.9186 12.8081 88.0427C15.9506 89.1668 20.5678 89.3601 22.1029 85.6253C23.239 82.8332 22.8764 77.5875 19.8305 76.0646C17.1593 74.6625 12.0103 76.1613 10.8742 78.9775C9.3754 82.5311 12.6388 86.3143 15.4551 88.0185C18.7669 90.037 23.239 90.6293 25.5476 86.8823C26.5515 85.0641 26.9174 82.962 26.5871 80.9114C26.4179 79.3643 26.152 77.2854 24.7861 76.2701C23.4203 75.2548 21.293 75.7745 19.8184 76.2701C17.7386 76.8987 15.8621 78.0663 14.3794 79.6544C12.0587 82.2289 11.7082 86.3626 15.3463 87.8614C18.7306 89.2514 22.1149 87.39 21.571 83.5101C21.0876 80.15 17.8604 75.4482 14.3189 74.8559C11.1763 74.2878 8.4568 76.7656 9.59296 79.9203C10.3786 82.0234 12.4817 83.22 14.3189 84.2958C16.4491 85.6211 18.7294 86.6882 21.1117 87.4746C23.795 88.2844 29.9351 89.3239 29.9351 85.0572C29.9351 81.8179 28.0133 78.071 24.3268 78.5182C23.6866 78.5893 23.0699 78.8006 22.5205 79.1369C21.9711 79.4732 21.5025 79.9264 21.148 80.4642C20.8821 80.851 21.5106 81.2015 21.7644 80.8268L21.7523 80.7664Z" fill="#242638"/>
</svg>
