<?xml version="1.0" encoding="utf-8"?>
<!-- Generator: Adobe Illustrator 23.0.1, SVG Export Plug-In . SVG Version: 6.00 Build 0)  -->
<svg version="1.1" id="planeSvg" xmlns="http://www.w3.org/2000/svg" xmlns:xlink="http://www.w3.org/1999/xlink" x="0px" y="0px"
	 viewBox="0 0 354 196" style="enable-background:new 0 0 354 196;" xml:space="preserve">
<style type="text/css">
	#planeSvg .st0{fill:#F14F51;}
	#planeSvg .st1{opacity:0.3;fill:#FFFFFF;enable-background:new    ;}
	#planeSvg .st2{fill:#E4494F;}
	#planeSvg .st3{fill:#242638; opacity:1;}
</style>
<path class="st0" d="M210.4,77.6c0.2-6.6,0.3-13.2,0.2-19.7c-0.1-9-0.4-18,0.4-26.9c0.7-8.9,2.6-17.9,6.6-26
	c0.6-1.4,1.5-2.7,2.7-3.6c1.5-0.9,3.3-1.4,5-1.3c6.6-0.2,13.9,2.1,17.5,7.7c1.6,2.8,2.7,5.9,3.2,9.1c3.9,18.4,6.1,37.1,6.6,55.8
	c-13.9,2.8-27.9,4.9-42.1,6.3L210.4,77.6z"/>
<path class="st1" d="M210.4,77.6c0.2-6.6,0.3-13.2,0.2-19.7c-0.1-9-0.4-18,0.4-26.9c0.7-8.9,2.6-17.9,6.6-26
	c0.6-1.4,1.5-2.7,2.7-3.6c1.5-0.9,3.3-1.4,5-1.3c6.6-0.2,13.9,2.1,17.5,7.7c1.6,2.8,2.7,5.9,3.2,9.1c3.9,18.4,6.1,37.1,6.6,55.8
	c-13.9,2.8-27.9,4.9-42.1,6.3L210.4,77.6z"/>
<path class="st0" d="M253,69.1c-0.8-4.5,1.8-9,5.6-11.5c3.8-2.5,8.5-3.2,13-3.2c2.1,0,4.3,0.3,6.3,1c2.1,0.8,4,2,5.5,3.7
	c1.5,1.6,2.6,3.6,3.2,5.8c0.6,2.7,0.7,5.5,0.4,8.3l-0.3,4.6l-0.4,7.6c0,0.3-0.1,0.6-0.2,0.8c-0.2,0.3-0.5,0.4-0.9,0.5
	c-9.1,2.7-18.9,2.3-28.4,1.3c-0.6,0-1.2-0.2-1.7-0.5c-0.3-0.3-0.6-0.8-0.7-1.2c-1-2.7-0.7-5.7-0.7-8.6C253.6,74.7,253,69.1,253,69.1
	z"/>
<path class="st1" d="M253,69.1c-0.8-4.5,1.8-9,5.6-11.5c3.8-2.5,8.5-3.2,13-3.2c2.1,0,4.3,0.3,6.3,1c2.1,0.8,4,2,5.5,3.7
	c1.5,1.6,2.6,3.6,3.2,5.8c0.6,2.7,0.7,5.5,0.4,8.3l-0.3,4.6l-0.4,7.6c0,0.3-0.1,0.6-0.2,0.8c-0.2,0.3-0.5,0.4-0.9,0.5
	c-9.1,2.7-18.9,2.3-28.4,1.3c-0.6,0-1.2-0.2-1.7-0.5c-0.3-0.3-0.6-0.8-0.7-1.2c-1-2.7-0.7-5.7-0.7-8.6C253.6,74.7,253,69.1,253,69.1
	z"/>
<path class="st0" d="M287.9,62.4c7-0.5,14.1-0.2,21.1,0.8c9.2,1.4,19.3,4.8,23.4,13.2c1.3,2.8,2,5.8,2.2,8.9
	c1,11.5-3.4,24.2-13.4,29.9c-5.8,3.3-12.7,3.8-19.4,4.1c-27.3,1-54.5-1.7-81.7-4.7c-10.9-1.2-21.9-2.4-32.1-6.2
	c-5.8-2.3-11.5-5.1-16.9-8.2c-9.4-5.3-15.2-8.3-22.7-12.4c17.2-4.4,34.7-7.8,52.4-10.1c17.5-2.3,35.3-3.6,52.3-8.3
	c0.5,3.8,1,7.8,3.5,10.8c2.5,2.9,6.4,4.2,10.2,4.6c5.6,0.6,11.5-0.6,15.8-4.3c4.3-3.6,6.4-10,4.2-15.1l-0.6-2.5L287.9,62.4z"/>
<path class="st0" d="M210.7,107.2c11.9,0.1,23.8,1.1,35.6,2.8c0.4,0,0.9,0.2,1.2,0.5c0.3,0.3,0.4,0.7,0.5,1c0.5,2.1,0.7,4.3,0.4,6.5
	c-0.2,2.3-0.9,4.5-1.2,6.8c-0.3,2.9-0.4,5.8-0.3,8.7c0.3,11.1,0.2,22.1-0.3,33.2c-0.3,6.4-0.7,13-3.8,18.6
	c-3.6,6.8-11.7,11.4-19.2,9.8c-6.3-1.3-11.2-6.6-13.6-12.5c-2.4-5.9-2.7-12.5-2.5-18.9c0.5-18.3,4.6-36.6,3-54.9L210.7,107.2z"/>
<path class="st1" d="M210.7,107.2c11.9,0.1,23.8,1.1,35.6,2.8c0.4,0,0.9,0.2,1.2,0.5c0.3,0.3,0.4,0.7,0.5,1c0.5,2.1,0.7,4.3,0.4,6.5
	c-0.2,2.3-0.9,4.5-1.2,6.8c-0.3,2.9-0.4,5.8-0.3,8.7c0.3,11.1,0.2,22.1-0.3,33.2c-0.3,6.4-0.7,13-3.8,18.6
	c-3.6,6.8-11.7,11.4-19.2,9.8c-6.3-1.3-11.2-6.6-13.6-12.5c-2.4-5.9-2.7-12.5-2.5-18.9c0.5-18.3,4.6-36.6,3-54.9L210.7,107.2z"/>
<path class="st0" d="M148.2,87.6c0-1.8-0.4-3.7-1-5.4c-0.5-1.6-0.8-3.2-1.2-4.8c-0.3-1.2-0.4-2.5-0.3-3.7c0.1-1.1,0.5-2.1,1-3.1
	c0.6-1.5,1.6-2.8,2.8-3.9c1.2-1.1,2.6-1.9,4.1-2.5c1.2-0.3,2.5-0.5,3.7-0.5c0.9-0.1,1.7,0,2.6,0.3c1.4,0.6,2.5,1.6,3.2,2.9
	c0.9,1.6,1.6,3.2,2.2,4.9l4.1,11c-7.1,0.9-14,2.4-20.8,4.7L148.2,87.6z"/>
<path class="st1" d="M148.2,87.6c0-1.8-0.4-3.7-1-5.4c-0.5-1.6-0.8-3.2-1.2-4.8c-0.3-1.2-0.4-2.5-0.3-3.7c0.1-1.1,0.5-2.1,1-3.1
	c0.6-1.5,1.6-2.8,2.8-3.9c1.2-1.1,2.6-1.9,4.1-2.5c1.2-0.3,2.5-0.5,3.7-0.5c0.9-0.1,1.7,0,2.6,0.3c1.4,0.6,2.5,1.6,3.2,2.9
	c0.9,1.6,1.6,3.2,2.2,4.9l4.1,11c-7.1,0.9-14,2.4-20.8,4.7L148.2,87.6z"/>
<path class="st2" d="M341.3,84.4c0.1,3.6,0.3,7.2,0.8,10.8c3.5-1.3,6.9-2.7,10.4-4.1c0.5-0.2,1-0.6,0.8-1c-0.1-0.2-0.3-0.4-0.5-0.5
	c-3.5-2-7.2-3.9-10.9-5.5L341.3,84.4z"/>
<path class="st3 plane-propeller" d="M336.1,55.4c-0.9,11.8,0.3,23.5,1.4,35.3c0.5,5.7,1,11.4,1.1,17.1c0.1,3,0.1,6-0.1,9.1
	c-0.1,1.5-0.2,3-0.3,4.5c-0.1,1.1-0.6,3.9-1.7,1.7c-0.4-0.9,0-2.9,0.1-3.9c0.1-1.8,0.4-3.6,0.6-5.4c0.4-2.6,0.8-5.3,1-7.9
	c0.2-2.6,0.1-5.4,0.1-8c0.2-3.3,0.7-6.6,1.5-9.8c1.2-5.1,0.6-10.2,0.2-15.4c-0.2-3.2-0.3-6.3-0.7-9.5c0-1.4-0.5-2.8-1.4-3.9
	c-0.1-0.1-0.3-0.2-0.4-0.2s-0.3,0.1-0.4,0.2c-0.5,0.5-0.9,1.1-1.2,1.7c-0.3,0.7-0.4,1.4-0.4,2.1c-0.3,3-0.2,6.2-0.2,9.2
	c0,5.8,0.3,11.5,1.1,17.2c0.8,5.8,1.9,11.5,2.5,17.3c0.4,3.1,0.6,6.2,0.6,9.3c0,2.9,0.1,6.2-2.3,8.2l1,0.3
	c-0.8-4.6,1.2-9.8,1.6-14.4c0.5-4.7,0.6-9.3,0.3-14c-0.3-4.6-0.8-9.2-1.2-13.7c-0.2-2.3-0.4-4.6-0.5-6.9c0-1.2-0.1-2.3-0.1-3.4
	c-0.1-1.1-0.1-2.3,0.1-3.4c1.2-2,1.3,2.9,1.3,2.8c0.1,1.2,0.2,2.3,0.2,3.5c0,2.6-0.3,5.3-0.8,7.8c-0.9,4.3-2.4,8.5-3.1,12.8
	c-1.3,8.7,0.8,17.5,0.6,26.2c0,0.2,0.1,0.3,0.2,0.4c0.1,0.1,0.3,0.2,0.4,0.2c0.2,0,0.3-0.1,0.4-0.2c0.1-0.1,0.2-0.3,0.2-0.4
	c0.1-5.7-0.7-11.3-1-17c-0.2-5.5,0.5-11,2.1-16.3c1.6-5.1,2.3-10.4,2.2-15.8c-0.1-1.4,0-7.5-2.7-6.7c-0.8,0.2-0.9,0.7-1,1.5
	c-0.3,2.7-0.4,5.3-0.1,8c0.2,5.5,0.9,11.1,1.4,16.6c0.5,5.6,0.6,11.2,0.1,16.8c-0.4,5.1-2.6,10.8-1.7,15.9c0.1,0.5,0.7,0.5,1,0.3
	c3.9-3.3,2.8-10.4,2.4-14.9c-0.6-7.5-2.2-15-3.1-22.5c-0.8-7.3-1.1-14.6-0.8-21.9c0-0.4-0.1-5.7,1.3-4.2c0.7,0.7,0.4,4.6,0.4,5.5
	c0.3,3.9,0.6,7.7,0.8,11.6c0.4,7-2.1,13.6-2.1,20.7c0,7.4-1.7,14.5-1.8,21.8c0,1.4-0.4,4.2,1.4,4.9c1.3,0.5,2-0.3,2.3-1.4
	c0.8-2.8,0.7-6.3,0.8-9.2c0.1-3.8,0.1-7.6-0.1-11.3c-0.8-16.3-3.6-32.6-2.4-48.9C337.4,54.7,336.1,54.7,336.1,55.4L336.1,55.4z"/>
<path d="M289.9,137.3c0.2,0,0.3-0.1,0.4-0.2c0.1-0.1,0.2-0.3,0.2-0.4s-0.1-0.3-0.2-0.4c-0.1-0.1-0.3-0.2-0.4-0.2s-0.3,0.1-0.4,0.2
	c-0.1,0.1-0.2,0.3-0.2,0.4s0.1,0.3,0.2,0.4C289.6,137.2,289.8,137.3,289.9,137.3z"/>
<path class="st3" d="M280.5,118.9c0.9,4.3,2.1,8.5,3.5,12.7c0.8,2.3,1.5,5.2,3.9,6.4c0.7,0.3,1.3-0.7,0.6-1
	c-2.7-1.2-3.6-6.3-4.4-8.9c-1-3.1-1.8-6.3-2.4-9.4C281.5,117.8,280.4,118.1,280.5,118.9z"/>
<path class="st3" d="M284.7,124.9c-4.6,0.8-9.2,4.4-9.5,9.2c-0.4,5.1,1,11.1,5.9,13.6c4.1,2.1,9.6,1.1,13.2-1.6
	c3.6-2.7,5.2-9.3,4-13.7c-1.3-4.4-6.1-7.5-10.5-8c-5-0.6-9.4,3.2-11.7,7.3c-2.5,4.3-0.7,10.6,3,13.8c3.7,3.2,9.7,2.8,14,1
	c5.5-2.3,6.4-7.8,4.7-13.1c-1.9-5.9-8-8.5-13.7-8.5c-0.2,0-0.3,0.1-0.4,0.2c-0.1,0.1-0.2,0.3-0.2,0.4c0,0.2,0.1,0.3,0.2,0.4
	c0.1,0.1,0.3,0.2,0.4,0.2c5.6,0.1,11.3,2.7,12.8,8.6c0.7,2.9,0.7,7.2-1.6,9.2c-2.2,1.7-4.9,2.7-7.7,2.8c-5.9,0.5-10.2-3.2-11.3-9
	c-1-5.3,4.6-11.5,9.8-12c5.7-0.5,11.5,4.1,11.5,9.9c0,5.8-2.9,10.5-8.7,11.8c-6.1,1.4-11.1-2.3-12.2-8.5c-0.5-2.8-0.7-6.5,1.4-8.8
	c1.9-2,4.3-3.4,7-4C285.8,126,285.5,124.8,284.7,124.9L284.7,124.9z"/>
<path class="st3" d="M285.4,125.7c0.1,7.2,1.2,14.3,3.2,21.2c0,0.2,0.1,0.3,0.3,0.4c0.1,0.1,0.3,0.1,0.5,0.1s0.3-0.1,0.4-0.3
	c0.1-0.1,0.1-0.3,0.1-0.5c-2-6.8-3.1-13.8-3.2-20.9c0-0.2-0.1-0.3-0.2-0.4c-0.1-0.1-0.3-0.2-0.4-0.2c-0.2,0-0.3,0.1-0.4,0.2
	C285.4,125.4,285.4,125.6,285.4,125.7z"/>
<path class="st3" d="M282.5,144.8c4.1-4.9,7.7-10.1,10.9-15.6c0.1-0.1,0.1-0.3,0.1-0.5c0-0.2-0.1-0.3-0.3-0.4
	c-0.1-0.1-0.3-0.1-0.5-0.1c-0.2,0-0.3,0.1-0.4,0.3c-3.1,5.4-6.7,10.6-10.7,15.4C281.1,144.4,282,145.3,282.5,144.8L282.5,144.8z"/>
<path class="st3" d="M278.6,129.1c2.2,3,4.7,5.6,7.6,8c1.5,1.2,3.2,2.3,4.6,3.7c1,1.2,2.2,2.4,3.4,3.4c0.6,0.4,1.2-0.6,0.6-1.1
	c-1.5-1-2.5-2.7-3.9-3.9c-1.4-1.2-2.6-2-3.9-3.1c-2.8-2.3-5.2-4.9-7.4-7.7C279.2,127.8,278.2,128.5,278.6,129.1z"/>
<path class="st3" d="M278.4,141.1c6.5-1.2,11.9-5.1,18.1-7.3c0.7-0.3,0.4-1.4-0.3-1.2c-6.2,2.1-11.6,6-18.1,7.3
	C277.3,140,277.7,141.2,278.4,141.1z"/>
<path class="st3" d="M275.8,136.1c7.2,1.3,14.4,2.3,21.6,3.2c0.8,0.1,0.8-1.1,0-1.2c-7.1-0.9-14.2-1.9-21.3-3.2
	C275.4,134.8,275.1,135.9,275.8,136.1L275.8,136.1z"/>
<path class="st0" d="M153.5,71.9c0.4-0.3,0.9-0.6,1.4-0.7c0.5-0.1,1-0.2,1.5-0.1c0.6-0.1,1.2,0.1,1.7,0.4c0.5,0.4,0.9,0.9,1,1.5
	c0.6,1.7,0.6,5-1.2,5.9c-1.8,1-3.8-0.6-4.7-1.9c-0.5-0.9-0.8-1.9-0.8-2.9c0-1,0.4-2,1-2.8c0.8-1.3-1.2-2.5-2.1-1.2
	c-0.9,1.4-1.4,3.1-1.2,4.7c0.1,1.7,0.8,3.3,2,4.5c2.1,2.2,5.9,3.4,8.2,0.8c1.1-1.3,1.7-2.9,1.6-4.6c0-1.7-0.1-4-1.2-5.4
	c-1.9-2.4-6.8-1.9-8.9,0C150.6,71.3,152.4,73,153.5,71.9L153.5,71.9z"/>
<path class="st3" d="M316.1,66.1l-0.7,50.4c0,0.2,0.1,0.3,0.2,0.4c0.1,0.1,0.3,0.2,0.4,0.2c0.2,0,0.3-0.1,0.4-0.2
	c0.1-0.1,0.2-0.3,0.2-0.4l0.7-50.4c0-0.2-0.1-0.3-0.2-0.4c-0.1-0.1-0.3-0.2-0.4-0.2c-0.2,0-0.3,0.1-0.4,0.2
	C316.1,65.8,316.1,66,316.1,66.1z"/>
<path class="st3" d="M315.2,66.8c-0.3,1.4-0.3,2.7-0.3,4.1c0,0.8,1.2,0.8,1.2,0c-0.1-1.3,0-2.5,0.2-3.8
	C316.5,66.4,315.3,66.1,315.2,66.8L315.2,66.8z"/>
<path class="st3" d="M312.7,65.5c0,1.2,0.1,2.4,0.3,3.6c0.1,0.8,1.3,0.4,1.2-0.3c-0.2-1.1-0.3-2.2-0.3-3.3
	C314,64.7,312.8,64.7,312.7,65.5L312.7,65.5z"/>
<path class="st3" d="M310.5,67.5c-0.1,1.5,0,3.1,0.4,4.6c0.2,0.8,1.3,0.4,1.2-0.3c-0.3-1.4-0.4-2.9-0.3-4.3
	C311.7,66.7,310.5,66.7,310.5,67.5L310.5,67.5z"/>
<path class="st3" d="M312.5,72.9c0.1,0.7,0.1,1.4,0,2.2c-0.1,0.8,1.1,0.8,1.2,0c0.1-0.7,0.1-1.4,0-2.2
	C313.6,72.1,312.4,72.1,312.5,72.9z"/>
<path class="st3" d="M314.4,77.1v3.1c0,0.2,0.1,0.3,0.2,0.4c0.1,0.1,0.3,0.2,0.4,0.2c0.2,0,0.3-0.1,0.4-0.2c0.1-0.1,0.2-0.3,0.2-0.4
	v-3.1c0-0.2-0.1-0.3-0.2-0.4c-0.1-0.1-0.3-0.2-0.4-0.2c-0.2,0-0.3,0.1-0.4,0.2C314.5,76.8,314.4,76.9,314.4,77.1z"/>
<path class="st3" d="M312.4,76.5c-0.2,1.2-0.2,2.4,0.1,3.5c0,0.2,0.1,0.3,0.3,0.4c0.1,0.1,0.3,0.1,0.5,0.1c0.2,0,0.3-0.1,0.4-0.3
	c0.1-0.1,0.1-0.3,0.1-0.5c-0.3-0.9-0.3-1.9-0.1-2.9C313.8,76.1,312.6,75.8,312.4,76.5z"/>
<path class="st3" d="M310.6,79.2l0.2,3.9c0,0.8,1.2,0.8,1.2,0l-0.2-3.9C311.8,78.5,310.6,78.5,310.6,79.2z"/>
<path class="st3" d="M308.4,76.7c0,0.6,0,1.2,0.1,1.8c0.2,0.8,1.3,0.4,1.2-0.3c-0.1-0.5-0.1-1-0.1-1.5
	C309.7,75.9,308.5,75.9,308.4,76.7L308.4,76.7z"/>
<path class="st3" d="M313.1,83.7l-0.1,4.1c0,0.2,0.1,0.3,0.2,0.4c0.1,0.1,0.3,0.2,0.4,0.2s0.3-0.1,0.4-0.2c0.1-0.1,0.2-0.3,0.2-0.4
	l0.1-4.1c0-0.2-0.1-0.3-0.2-0.4c-0.1-0.1-0.3-0.2-0.4-0.2s-0.3,0.1-0.4,0.2C313.2,83.4,313.2,83.5,313.1,83.7L313.1,83.7z"/>
<path class="st3" d="M308.2,85.5c0.1,1.1,0.2,2.2,0.4,3.3c0.1,0.8,1.3,0.4,1.2-0.3c-0.2-1-0.3-2-0.3-3
	C309.5,84.7,308.3,84.7,308.2,85.5L308.2,85.5z"/>
<path class="st3" d="M313.1,89.9c-0.1,1.6,0,3.1,0.1,4.7c0.1,0.8,1.3,0.8,1.2,0c-0.1-1.6-0.2-3.1-0.1-4.7
	C314.3,89.2,313.1,89.2,313.1,89.9z"/>
<path class="st3" d="M310.2,93.8c0.4,1.5,0.6,3,0.6,4.5c0,0.2,0.1,0.3,0.2,0.4c0.1,0.1,0.3,0.2,0.4,0.2c0.2,0,0.3-0.1,0.4-0.2
	c0.1-0.1,0.2-0.3,0.2-0.4c0-1.6-0.2-3.3-0.6-4.8c0-0.2-0.1-0.3-0.3-0.4c-0.1-0.1-0.3-0.1-0.5-0.1c-0.2,0-0.3,0.1-0.4,0.3
	C310.1,93.5,310.1,93.7,310.2,93.8L310.2,93.8z"/>
<path class="st3" d="M312.6,97.7l0.4,3.9c0.1,0.8,1.3,0.8,1.2,0l-0.4-3.9C313.7,96.9,312.5,96.9,312.6,97.7z"/>
<path class="st3" d="M314,103l0.2,2.8c0,0.8,1.2,0.8,1.2,0l-0.2-2.8C315.2,102.3,314,102.3,314,103z"/>
<path class="st3" d="M312,103.3c-0.1,1.2,0,2.3,0.1,3.4c0.1,0.8,1.3,0.8,1.2,0c-0.1-1.1-0.2-2.3-0.1-3.4
	C313.2,102.5,312,102.5,312,103.3z"/>
<path class="st3" d="M310.5,105.4c0.4,1.3,0.6,2.8,0.5,4.2c0,0.8,1.2,0.8,1.2,0c0.1-1.5-0.1-3-0.5-4.5c0-0.2-0.1-0.3-0.3-0.4
	c-0.1-0.1-0.3-0.1-0.5-0.1c-0.2,0-0.3,0.1-0.4,0.3C310.4,105,310.4,105.2,310.5,105.4L310.5,105.4z"/>
<path class="st3" d="M308.4,103.1l0.4,2.3c0.1,0.8,1.3,0.4,1.2-0.3l-0.4-2.3C309.5,102,308.3,102.3,308.4,103.1L308.4,103.1z"/>
<path class="st3" d="M308.7,112.9c0.2,1,0.3,1.9,0.2,2.9c0,0.8,1.2,0.8,1.2,0c0.1-1.1,0-2.2-0.3-3.2
	C309.7,111.8,308.5,112.1,308.7,112.9L308.7,112.9z"/>
<path class="st3" d="M313.2,110.8c-0.1,1.5-0.2,3-0.1,4.5c0,0.8,1.2,0.8,1.2,0c-0.1-1.5,0-3,0.1-4.5
	C314.4,110,313.2,110,313.2,110.8z"/>
<g class="plane-smoke">
	<path class="st3" d="M113.4,83.4c0.5,4.4,0.9,12-5,13.1c-1.2,0.1-2.4,0-3.4-0.5c-1.1-0.5-2-1.3-2.7-2.3c-1.7-2.3-1.6-5.5-1.8-8.2
		c-0.1-2.2-0.3-4.4-0.3-6.6c-0.1-1.5,0.2-3,1-4.3c0.3-0.4,0.7-0.8,1.1-1s0.9-0.4,1.4-0.4c0.5,0,1,0.1,1.5,0.3
		c0.5,0.2,0.9,0.5,1.2,0.9c1.8,1.9,2.1,5.1,1.8,7.5c-0.1,1.3-0.4,2.6-1,3.7c-1,1.9-2.7,2.4-4.8,2c-4.4-0.7-11-4.6-9.1-10
		c1.3-3.6,5.6-3,8.3-1.8c1.3,0.5,2.5,1.4,3.2,2.6s1,2.6,0.8,4c-0.1,2.2-0.6,5-2.4,6.6c-0.6,0.6-1.4,0.9-2.2,1
		c-0.8,0.1-1.7-0.2-2.3-0.7c-1.2-1.1-1.4-3.2-1.5-4.7c-0.3-2-0.2-4,0.3-5.9c0.7-1.8,2.4-2.6,3.9-1c0.8,1.1,1.4,2.4,1.5,3.8
		c0.6,3,0.1,6-1.4,8.6c-1.2,1.8-3.8,3-5.2,0.8c-0.8-1.3-0.5-2.9-0.2-4.4c0.5-2.5,1.1-5,2-7.4c0.9-2.5,2.1-6.6,4.5-8.1
		c0.4-0.2,0-0.9-0.4-0.6c-1.2,0.9-2.2,2.2-2.7,3.6c-0.9,1.8-1.6,3.6-2.3,5.5c-0.7,1.9-1.2,3.9-1.6,5.9c-0.4,1.5-0.6,3.1-0.4,4.7
		c0.1,0.5,0.3,1,0.6,1.4c0.3,0.4,0.7,0.8,1.2,1c0.5,0.2,1,0.3,1.5,0.3c0.5,0,1-0.1,1.5-0.4c2.9-1.5,3.9-5.7,3.9-8.6
		c0-2.5-0.5-6.5-3.1-7.7c-2.3-1-3.8,1.3-4.2,3.3c-0.5,2.7-0.5,6.9,1,9.4c1.5,2.4,4.3,2.2,6.2,0.5c2.2-2,2.8-6,2.6-8.8
		c-0.3-3.3-2.6-5.1-5.6-6.2c-2.8-1-6.4-0.8-7.9,2.2c-1.2,2.6-0.1,5.6,1.8,7.5c2.4,2.4,5.6,3.8,8.9,4c3.4,0.1,4.8-2.9,5.3-5.9
		c0.4-3,0.1-7.1-2.3-9.1c-0.4-0.4-0.9-0.7-1.5-0.9s-1.1-0.2-1.7-0.1c-0.6,0.1-1.1,0.3-1.6,0.6c-0.5,0.3-0.9,0.7-1.2,1.2
		c-0.9,1.6-1.3,3.5-1,5.3c0.1,2.4,0.2,4.8,0.4,7.3c0.2,3.7,0.8,7.6,4.4,9.5c1.3,0.8,2.8,1,4.3,0.7c1.5-0.3,2.8-1.1,3.7-2.3
		c2.6-3.2,2.3-7.6,1.8-11.4C114.1,82.9,113.3,82.9,113.4,83.4L113.4,83.4z"/>
        <path class="st3" d="M113.4,83.4c0.5,4.4,0.9,12-5,13.1c-1.2,0.1-2.4,0-3.4-0.5c-1.1-0.5-2-1.3-2.7-2.3c-1.7-2.3-1.6-5.5-1.8-8.2
		c-0.1-2.2-0.3-4.4-0.3-6.6c-0.1-1.5,0.2-3,1-4.3c0.3-0.4,0.7-0.8,1.1-1s0.9-0.4,1.4-0.4c0.5,0,1,0.1,1.5,0.3
		c0.5,0.2,0.9,0.5,1.2,0.9c1.8,1.9,2.1,5.1,1.8,7.5c-0.1,1.3-0.4,2.6-1,3.7c-1,1.9-2.7,2.4-4.8,2c-4.4-0.7-11-4.6-9.1-10
		c1.3-3.6,5.6-3,8.3-1.8c1.3,0.5,2.5,1.4,3.2,2.6s1,2.6,0.8,4c-0.1,2.2-0.6,5-2.4,6.6c-0.6,0.6-1.4,0.9-2.2,1
		c-0.8,0.1-1.7-0.2-2.3-0.7c-1.2-1.1-1.4-3.2-1.5-4.7c-0.3-2-0.2-4,0.3-5.9c0.7-1.8,2.4-2.6,3.9-1c0.8,1.1,1.4,2.4,1.5,3.8
		c0.6,3,0.1,6-1.4,8.6c-1.2,1.8-3.8,3-5.2,0.8c-0.8-1.3-0.5-2.9-0.2-4.4c0.5-2.5,1.1-5,2-7.4c0.9-2.5,2.1-6.6,4.5-8.1
		c0.4-0.2,0-0.9-0.4-0.6c-1.2,0.9-2.2,2.2-2.7,3.6c-0.9,1.8-1.6,3.6-2.3,5.5c-0.7,1.9-1.2,3.9-1.6,5.9c-0.4,1.5-0.6,3.1-0.4,4.7
		c0.1,0.5,0.3,1,0.6,1.4c0.3,0.4,0.7,0.8,1.2,1c0.5,0.2,1,0.3,1.5,0.3c0.5,0,1-0.1,1.5-0.4c2.9-1.5,3.9-5.7,3.9-8.6
		c0-2.5-0.5-6.5-3.1-7.7c-2.3-1-3.8,1.3-4.2,3.3c-0.5,2.7-0.5,6.9,1,9.4c1.5,2.4,4.3,2.2,6.2,0.5c2.2-2,2.8-6,2.6-8.8
		c-0.3-3.3-2.6-5.1-5.6-6.2c-2.8-1-6.4-0.8-7.9,2.2c-1.2,2.6-0.1,5.6,1.8,7.5c2.4,2.4,5.6,3.8,8.9,4c3.4,0.1,4.8-2.9,5.3-5.9
		c0.4-3,0.1-7.1-2.3-9.1c-0.4-0.4-0.9-0.7-1.5-0.9s-1.1-0.2-1.7-0.1c-0.6,0.1-1.1,0.3-1.6,0.6c-0.5,0.3-0.9,0.7-1.2,1.2
		c-0.9,1.6-1.3,3.5-1,5.3c0.1,2.4,0.2,4.8,0.4,7.3c0.2,3.7,0.8,7.6,4.4,9.5c1.3,0.8,2.8,1,4.3,0.7c1.5-0.3,2.8-1.1,3.7-2.3
		c2.6-3.2,2.3-7.6,1.8-11.4C114.1,82.9,113.3,82.9,113.4,83.4L113.4,83.4z"/>
        <path class="st3" d="M113.4,83.4c0.5,4.4,0.9,12-5,13.1c-1.2,0.1-2.4,0-3.4-0.5c-1.1-0.5-2-1.3-2.7-2.3c-1.7-2.3-1.6-5.5-1.8-8.2
		c-0.1-2.2-0.3-4.4-0.3-6.6c-0.1-1.5,0.2-3,1-4.3c0.3-0.4,0.7-0.8,1.1-1s0.9-0.4,1.4-0.4c0.5,0,1,0.1,1.5,0.3
		c0.5,0.2,0.9,0.5,1.2,0.9c1.8,1.9,2.1,5.1,1.8,7.5c-0.1,1.3-0.4,2.6-1,3.7c-1,1.9-2.7,2.4-4.8,2c-4.4-0.7-11-4.6-9.1-10
		c1.3-3.6,5.6-3,8.3-1.8c1.3,0.5,2.5,1.4,3.2,2.6s1,2.6,0.8,4c-0.1,2.2-0.6,5-2.4,6.6c-0.6,0.6-1.4,0.9-2.2,1
		c-0.8,0.1-1.7-0.2-2.3-0.7c-1.2-1.1-1.4-3.2-1.5-4.7c-0.3-2-0.2-4,0.3-5.9c0.7-1.8,2.4-2.6,3.9-1c0.8,1.1,1.4,2.4,1.5,3.8
		c0.6,3,0.1,6-1.4,8.6c-1.2,1.8-3.8,3-5.2,0.8c-0.8-1.3-0.5-2.9-0.2-4.4c0.5-2.5,1.1-5,2-7.4c0.9-2.5,2.1-6.6,4.5-8.1
		c0.4-0.2,0-0.9-0.4-0.6c-1.2,0.9-2.2,2.2-2.7,3.6c-0.9,1.8-1.6,3.6-2.3,5.5c-0.7,1.9-1.2,3.9-1.6,5.9c-0.4,1.5-0.6,3.1-0.4,4.7
		c0.1,0.5,0.3,1,0.6,1.4c0.3,0.4,0.7,0.8,1.2,1c0.5,0.2,1,0.3,1.5,0.3c0.5,0,1-0.1,1.5-0.4c2.9-1.5,3.9-5.7,3.9-8.6
		c0-2.5-0.5-6.5-3.1-7.7c-2.3-1-3.8,1.3-4.2,3.3c-0.5,2.7-0.5,6.9,1,9.4c1.5,2.4,4.3,2.2,6.2,0.5c2.2-2,2.8-6,2.6-8.8
		c-0.3-3.3-2.6-5.1-5.6-6.2c-2.8-1-6.4-0.8-7.9,2.2c-1.2,2.6-0.1,5.6,1.8,7.5c2.4,2.4,5.6,3.8,8.9,4c3.4,0.1,4.8-2.9,5.3-5.9
		c0.4-3,0.1-7.1-2.3-9.1c-0.4-0.4-0.9-0.7-1.5-0.9s-1.1-0.2-1.7-0.1c-0.6,0.1-1.1,0.3-1.6,0.6c-0.5,0.3-0.9,0.7-1.2,1.2
		c-0.9,1.6-1.3,3.5-1,5.3c0.1,2.4,0.2,4.8,0.4,7.3c0.2,3.7,0.8,7.6,4.4,9.5c1.3,0.8,2.8,1,4.3,0.7c1.5-0.3,2.8-1.1,3.7-2.3
		c2.6-3.2,2.3-7.6,1.8-11.4C114.1,82.9,113.3,82.9,113.4,83.4L113.4,83.4z"/>
</g>
</svg>
