<svg width="431" height="81" viewBox="0 0 431 81" fill="none" xmlns="http://www.w3.org/2000/svg">
<path d="M18.4688 6.20312C14.0156 6.90625 11.4844 7.65625 10.7812 8.45312C10.3594 9.01562 9.70312 10 8.90625 11.4531C6.42188 13.8438 5.15625 16.6562 5.15625 19.8906C5.48438 24.9062 6.14062 28.5625 7.03125 30.7656C9.375 36.25 11.2969 39.7188 12.8438 41.2656C13.125 43.0938 13.5469 44.5469 14.1562 45.5781C15.0469 47.1719 15.6562 50.7812 16.0312 56.4531V63.7656C16.0312 64.8438 15.0469 66.7656 13.0312 69.5781C12.1406 69.5781 11.1562 67.5625 10.0312 63.5781C9.60938 60.2031 8.53125 58.5156 6.84375 58.5156H5.53125C3.1875 58.5156 1.5 59.875 0.46875 62.6406V63.3906C0.46875 67.4219 1.96875 71.3125 4.96875 75.0156C7.875 77.7812 10.3594 79.1406 12.4688 79.1406H13.4062C15.9844 79.1406 17.9531 78.3438 19.4062 76.7031H20.7188C21.1875 76.7031 21.75 76.4688 22.4062 75.9531C23.2031 75.1094 24.375 74.4062 25.9688 73.8906C26.25 72.8125 26.9531 71.5469 28.0312 70.1406C29.3906 68.875 30.0938 66.8594 30.0938 64.1406C30.7031 62.9688 31.0312 61.5625 31.0312 59.8281L31.9688 54.9531V54.5781L31.4062 50.8281C30.1406 43.75 28.5938 39.0156 26.7188 36.5781C20.9531 30.0625 18.0938 25.2344 18.0938 22.1406C18.0938 17.7812 19.7344 14.3125 22.9688 11.6406C24.4688 10.7969 25.2188 9.90625 25.2188 9.01562V8.64062C25.2188 7 22.9688 6.20312 18.4688 6.20312ZM40.9688 7.75C40.9688 7.89062 40.3125 7.9375 38.9531 7.9375C36.2812 8.92188 34.9688 9.95312 34.9688 10.9375V14.6406C34.9688 15.2969 34.9219 16.1406 34.7812 17.125C34.9219 17.3594 35.0156 17.9219 35.1562 18.7188C35.0156 19.3281 34.9688 19.8906 34.9688 20.4531V21.1562C34.9688 21.4844 35.0625 22 35.2969 22.75L34.4062 34.2344C34.5469 37.9375 34.6406 39.9531 34.7812 40.2344L34.4062 44.3125C34.6406 47.3594 34.9219 49.2812 35.1562 50.125C34.9219 52.8438 34.7812 55.1406 34.7812 57.0156C34.7812 63.0625 35.4844 69.2031 36.8438 75.4375C39.1406 76.9375 43.0312 77.4531 48.5625 77.0312C55.5469 77.1719 59.6719 75.5312 60.9375 72.0156C60.9375 70.6094 59.4844 69.9062 56.5781 69.9062C54.2812 70.1406 52.0312 70.2812 49.8281 70.2812C48.9844 70.2812 48.5625 69.9062 48.5625 69.2031V68.875C48.5625 68.1719 48.6094 67.2344 48.75 66.0156C48.2812 64.2812 48.0469 61.2344 48.0469 56.8281V55.0938L48.2344 52.9844C47.8594 52.2812 47.625 51.4375 47.4844 50.5C47.7188 47.6406 47.8594 45.8125 47.8594 45.0156V42.3438C47.8594 41.7344 47.8125 40.75 47.6719 39.3438C47.8125 39.3438 47.8594 39.1562 47.8594 38.8281L47.6719 38.5H48.375C51.6562 37.3281 53.4844 36.7188 53.8594 36.7188C56.1094 36.7188 57.6094 35.7812 58.4062 33.9062C58.4062 33.1094 58.0312 32.4062 57.2812 31.75C57.2812 31.3281 54.9375 30.5312 50.2031 29.4531C48.6562 29.5938 47.7656 29.6406 47.4844 29.6406C47.2031 29.6406 46.9688 28.75 46.7812 27.0156L47.6719 24.5312C47.5312 22.9844 47.4844 21.7656 47.4844 20.8281V20.4531C47.4844 19.6562 47.6719 18.7656 48.0469 17.8281C48.2812 17.8281 48.5156 17.875 48.75 18.0156L49.125 17.8281V18.0156L50.0156 17.8281H52.2188C57.0938 17.8281 60.375 16.1875 62.0156 12.8594C62.0156 11.3594 61.125 10.1406 59.2969 9.15625C56.4375 9.01562 53.4375 8.78125 50.2031 8.45312C49.1719 8.45312 48.375 8.59375 47.8594 8.82812C46.8281 8.45312 44.5312 8.07812 40.9688 7.75ZM70.9688 6.10938C68.4844 6.95312 67.2188 7.9375 67.2188 9.10938C67.2188 9.29688 67.3594 9.85938 67.5938 10.7969C67.2656 11.2656 66.9844 14.0312 66.6562 19.0469C65.7656 23.5 65.3438 28.0938 65.3438 32.7344V33.6719C65.3438 35.2188 65.4844 36.625 65.7188 37.9844C65.4844 39.9531 65.3438 41.2188 65.3438 41.7344C65.3438 41.875 65.3906 42.0625 65.5312 42.2969C65.2969 42.9062 65.1562 44.0312 65.1562 45.6719V48.2969C65.1562 50.2656 65.2969 51.5781 65.5312 52.2344H65.3438C65.3438 54.25 65.2969 55.6562 65.1562 56.5469C65.2969 58.0938 65.3438 58.9844 65.3438 59.1719C65.2031 63.3438 65.1562 66.4375 65.1562 68.3594C65.1562 69.4844 65.4844 71.125 66.0938 73.2344C68.0156 75.8594 72.1875 77.1719 78.6562 77.1719C79.7344 77.0781 80.3438 76.9375 80.5312 76.7969L81.6562 76.9844H82.4062C84.0469 76.9844 85.5469 76.5625 86.9062 75.6719C88.6406 75.2969 89.5312 74.5469 89.5312 73.4219C89.5312 72.3906 89.0156 71.2656 88.0312 70.0469C84.8438 69.5312 82.4062 68.7812 80.7188 67.7969V67.6094C80.7188 66.9062 80.8594 65.9688 81.0938 64.7969L80.3438 57.2969C80.8594 54.1562 81.0938 52.375 81.0938 51.8594C81.0938 50.4062 81.0469 49.4219 80.9062 48.8594C81.0469 47.6875 81.0938 46.4688 81.0938 45.2969V38.3594C81.0938 37.4688 80.9531 36.0625 80.7188 34.2344C81.2344 30.4375 81.4688 27.2969 81.4688 24.8594V21.8594L80.3438 9.67188C80.1094 7.75 77.7656 6.53125 73.2188 6.10938C73.2188 6.25 73.0781 6.29688 72.8438 6.29688L71.9062 6.10938C71.9062 6.25 71.8594 6.29688 71.7188 6.29688L71.3438 6.10938H70.9688ZM99.375 7.75C99.375 7.89062 98.7188 7.9375 97.3594 7.9375C94.6875 8.92188 93.375 9.95312 93.375 10.9375V14.6406C93.375 15.2969 93.3281 16.1406 93.1875 17.125C93.3281 17.3594 93.4219 17.9219 93.5625 18.7188C93.4219 19.3281 93.375 19.8906 93.375 20.4531V21.1562C93.375 21.4844 93.4688 22 93.7031 22.75L92.8125 34.2344C92.9531 37.9375 93.0469 39.9531 93.1875 40.2344L92.8125 44.3125C93.0469 47.3594 93.3281 49.2812 93.5625 50.125C93.3281 52.8438 93.1875 55.1406 93.1875 57.0156C93.1875 63.0625 93.8906 69.2031 95.25 75.4375C97.5469 76.9375 101.438 77.4531 106.969 77.0312C113.953 77.1719 118.078 75.5312 119.344 72.0156C119.344 70.6094 117.891 69.9062 114.984 69.9062C112.688 70.1406 110.438 70.2812 108.234 70.2812C107.391 70.2812 106.969 69.9062 106.969 69.2031V68.875C106.969 68.1719 107.016 67.2344 107.156 66.0156C106.688 64.2812 106.453 61.2344 106.453 56.8281V55.0938L106.641 52.9844C106.266 52.2812 106.031 51.4375 105.891 50.5C106.125 47.6406 106.266 45.8125 106.266 45.0156V42.3438C106.266 41.7344 106.219 40.75 106.078 39.3438C106.219 39.3438 106.266 39.1562 106.266 38.8281L106.078 38.5H106.781C110.062 37.3281 111.891 36.7188 112.266 36.7188C114.516 36.7188 116.016 35.7812 116.812 33.9062C116.812 33.1094 116.438 32.4062 115.688 31.75C115.688 31.3281 113.344 30.5312 108.609 29.4531C107.062 29.5938 106.172 29.6406 105.891 29.6406C105.609 29.6406 105.375 28.75 105.188 27.0156L106.078 24.5312C105.938 22.9844 105.891 21.7656 105.891 20.8281V20.4531C105.891 19.6562 106.078 18.7656 106.453 17.8281C106.688 17.8281 106.922 17.875 107.156 18.0156L107.531 17.8281V18.0156L108.422 17.8281H110.625C115.5 17.8281 118.781 16.1875 120.422 12.8594C120.422 11.3594 119.531 10.1406 117.703 9.15625C114.844 9.01562 111.844 8.78125 108.609 8.45312C107.578 8.45312 106.781 8.59375 106.266 8.82812C105.234 8.45312 102.938 8.07812 99.375 7.75ZM141.281 4.375C138.469 4.51562 136.406 4.84375 135.094 5.3125C133.266 5.96875 131.203 8.03125 128.906 11.5C127.172 14.4531 125.812 19.5156 124.781 26.6875C124.922 26.6875 124.969 26.7344 124.969 26.875C124.828 26.875 124.781 26.9219 124.781 27.0625C124.781 27.3438 124.828 27.5781 124.969 27.8125C123.984 33.1562 123.469 37.2812 123.469 40.1875C123.469 40.3281 123.422 40.5156 123.281 40.75H123.469L123.281 42.0625V46.375C123.281 51.2031 123.609 55.6094 124.219 59.5C126.328 70.75 128.156 76.375 129.656 76.375C131.156 78.4844 132.891 79.5625 134.906 79.5625H135.844C137.344 79.3281 138.094 79.1406 138.094 79C142.266 78.6719 144.422 78.0156 144.656 77.125C146.297 76.375 147.094 75.7656 147.094 75.25L150.844 73.375C152.859 70.0938 153.844 67.4219 153.844 65.3125L153.656 62.6875L153.844 61.9375L153.469 61L153.656 59.875V59.6875C153.656 59.3125 153.422 58.6094 152.906 57.625C153.047 57.3906 153.094 57.1562 153.094 56.875V55.75C152.484 53.6406 152.156 52 152.156 50.875C152.156 49.375 151.078 48.2969 148.969 47.6875V47.875L148.594 47.6875H147.469C142.219 48.4844 139.594 49.7031 139.594 51.4375V51.625C140.109 53.6406 140.344 55.5625 140.344 57.4375C140.344 59.4531 140.203 61.0938 139.969 62.3125C139.969 63.7656 139.078 65.5469 137.344 67.5625C136.969 67.5625 136.781 66.625 136.781 64.75C135.891 62.7812 135.469 61.6094 135.469 61.1875C135.469 60.9531 135.516 60.2031 135.656 58.9375C135.516 56.9219 135.422 55.9375 135.281 55.9375H135.469C135.234 55.2812 135.094 53.9688 135.094 52V50.3125L135.281 49.375C135.141 49.375 135.094 49.3281 135.094 49.1875C135.188 48.8594 135.328 47.9219 135.469 46.375C135.328 46.375 135.281 46.3281 135.281 46.1875H135.469C135.469 44.0781 135.656 42.1094 136.031 40.1875H135.844C136.359 36.5312 136.734 34.3281 136.969 33.625C136.969 30.6719 137.484 27.5312 138.469 24.25L138.094 21.4375L139.781 14.6875C140.297 14.6875 140.672 15.4844 140.906 17.125C140.906 18.5312 140.859 20.3594 140.719 22.5625C141.094 25.1406 141.281 26.9688 141.281 28V28.1875L141.094 29.125C141.234 29.125 141.281 29.1719 141.281 29.3125C141.281 29.4531 141.234 29.6406 141.094 29.875C141.094 31.3281 141.422 32.5 142.031 33.4375C142.031 34.7031 143.531 35.7344 146.531 36.4375C147.094 36.4375 147.469 36.3906 147.656 36.25C151.172 36.25 152.906 34.7031 152.906 31.5625C152.766 31.5625 152.719 31.5156 152.719 31.375L152.906 31C152.906 30.7188 152.859 30.4844 152.719 30.25L152.906 29.875C152.766 29.4531 152.531 27.2969 152.156 23.3125C152.156 23.125 152.203 22.2344 152.344 20.6875L151.969 19.9375C152.344 18.9531 152.531 18.2969 152.531 17.875V17.125C152.531 15.7188 151.969 13.8438 150.844 11.5C150.328 9.76562 149.578 8.6875 148.594 8.3125C148.078 6.67188 147.047 5.875 145.594 5.875C144.375 4.89062 143.109 4.375 141.844 4.375C141.844 4.51562 141.797 4.5625 141.656 4.5625L141.281 4.375ZM177.188 4.1875H175.312C174.609 4.1875 173.766 4.23438 172.688 4.375C172.453 4.23438 172.219 4.1875 171.938 4.1875C171.562 4.1875 171.375 4.23438 171.375 4.375C167.25 4.5625 162.703 5.125 157.688 6.01562C154.922 6.10938 153.422 7.70312 153.188 10.75C153.188 11.4531 153.562 12.0625 154.312 12.625C158.297 13.1406 160.875 13.5156 162 13.75C162.375 27.2031 162.891 36.2031 163.5 40.75L163.125 43.9375C163.5 45.6719 163.688 47.7344 163.688 50.125V53.6875L163.875 55.5625C163.734 55.5625 163.594 56.3125 163.5 57.8125C163.5 58.7969 163.547 59.3125 163.688 59.3125C163.688 69.6719 164.484 76.1406 166.125 78.625C166.734 79.6094 168.141 80.125 170.438 80.125C176.297 79.5156 179.25 78.3906 179.25 76.75C179.25 76.0469 178.875 74.0312 178.125 70.75C178.125 70.1406 178.312 68.4531 178.688 65.6875V65.3125C178.688 63.6719 178.359 61.8438 177.75 59.875L177.938 58.1875C177.938 57.8594 177.797 55.2344 177.562 50.3125V49.5625C177.562 48.6719 177.703 47.2656 177.938 45.4375C177.938 44.9219 177.75 43.6094 177.375 41.5C177.375 41.125 177.516 40.3281 177.75 39.0625L177 30.625L177.375 27.8125C177.141 26.8281 176.766 25.8906 176.25 25C176.484 24.4844 176.672 23.7344 176.812 22.75C176.812 22.0469 176.391 19.7969 175.5 16C175.5 15.6719 175.547 15.2031 175.688 14.5H180.938C182.438 14.5 183.984 14.2656 185.625 13.75C188.484 12.7188 189.938 10.9844 189.938 8.5C189.938 7.84375 189.328 6.76562 188.062 5.3125C185.578 5.07812 182.344 4.60938 178.312 4L177.188 4.1875ZM229.312 7.14062C226.266 7.14062 224.484 7.89062 224.062 9.39062C222.234 10.1406 221.016 11.125 220.5 12.3906C220.5 13.8438 219.703 18.0625 218.062 24.9531C216.188 37.375 214.734 46.3281 213.75 51.7656C213.891 54.1562 213.938 55.75 213.938 56.4531C213.047 61.75 212.625 66.0625 212.625 69.3906V71.6406C213.375 74.5 215.484 75.9531 219 75.9531C219.516 75.9531 220.266 75.5781 221.25 74.8281C222.141 74.4062 222.562 73.0469 222.562 70.7031C223.453 69.0625 224.016 67.6562 224.25 66.5781C224.156 66.5781 223.969 65.6406 223.688 63.7656C224.062 62.4062 224.25 61.4219 224.25 60.7656V59.6406L224.062 59.2656C224.297 58.75 224.484 58.5156 224.625 58.5156H225.75C228.375 58.6562 229.734 58.8906 229.875 59.2656C230.297 65.5 231.844 71.3125 234.562 76.7031C235.078 77.9688 236.859 78.5781 239.812 78.5781C241.547 78.5781 243 78.25 244.125 77.6406C245.109 77.6406 245.625 76.7031 245.625 74.8281V73.8906C245.625 73.4688 245.438 70.75 245.062 65.6406V65.4531L245.25 65.0781C244.875 62.8281 244.5 61.7031 244.125 61.7031C244.125 61.4688 244.172 60.7188 244.312 59.4531C244.312 58.7031 244.125 57.9062 243.75 57.0156C243.984 56.0312 244.125 55.375 244.125 55.1406C244.125 54.7656 243.891 53.875 243.375 52.5156L243.938 49.1406C243.797 47.5 243.516 46.1875 243.188 45.2031C243.188 42.2969 242.672 39.3438 241.688 36.3906C241.312 32.5 240.891 30.5781 240.375 30.5781C240.609 30.1562 240.75 29.7812 240.75 29.4531C240.75 28.5625 240.422 27.2031 239.812 25.3281C239.484 24.3906 239.016 22.5625 238.5 19.8906C237.234 18.0625 236.625 16.4688 236.625 15.2031C234 9.8125 231.609 7.14062 229.5 7.14062H229.312ZM227.625 28.5156C228.891 33.625 229.5 38.2188 229.5 42.2031V43.1406C229.5 44.4062 229.312 46.0469 228.938 48.0156C229.172 50.125 229.312 51.5312 229.312 52.1406V52.3281H227.625C227.016 52.3281 226.078 52.2812 224.812 52.1406C224.812 50.7812 225 49.1406 225.375 47.2656C225.234 46.0938 225.188 44.9688 225.188 43.8906V43.5156C226.078 39.0625 226.828 34.0469 227.438 28.5156H227.625ZM289.875 3.8125C286.031 3.8125 282.703 5.5 279.938 8.875C277.453 12.1094 275.953 15.5781 275.438 19.1875C273.328 32.8281 272.297 42.2031 272.25 47.3125L272.062 48.25C272.203 48.25 272.25 48.2969 272.25 48.4375C272.25 49 272.203 49.375 272.062 49.5625C272.203 50.2656 272.25 50.8281 272.25 51.25V52.1875C272.25 53.8281 272.438 56.875 272.812 61.375C272.672 61.375 272.625 61.4219 272.625 61.5625C272.625 65.1719 273.516 68.5469 275.25 71.6875C277.359 76.7031 278.953 79.1875 279.938 79.1875C281.344 79.0469 282.422 78.8594 283.125 78.625C283.359 78.7656 283.594 78.8125 283.875 78.8125H285C285.328 78.8125 285.703 78.6719 286.125 78.4375C287.109 78.8125 287.766 79 288.188 79H288.375C291.516 79 294.797 77.6875 298.125 75.0625C298.125 75.5781 298.453 76.5156 299.062 77.875C300.469 79.1406 301.969 79.75 303.562 79.75L303.938 79.5625V79.75C305.953 79.2812 306.938 78.6719 306.938 77.875C306.938 76.5156 306.75 73.8906 306.375 70C306.75 69.1562 306.938 68.4531 306.938 67.9375V66.25C307.453 65.6875 307.688 65.2656 307.688 64.9375C307.688 64.0469 307.266 60.9531 306.375 55.75C305.766 53.6406 305.297 50.5 305.062 46.375C304.078 44.7344 303.562 42.9531 303.562 40.9375C303.234 39.5781 301.312 38.875 297.75 38.875H297.562L297.188 38.6875V38.875L296.25 38.6875H296.062C291.141 38.6875 286.734 39.8594 282.938 42.25C282.938 40.5156 283.125 39.2031 283.5 38.3125C283.359 37.4219 283.172 36.5781 282.938 35.875L283.875 33.0625L284.625 27.0625V25.9375L284.438 25L287.438 15.25C287.438 13.2812 288 12.1094 289.125 11.6875H289.312V12.625C289.312 13.6094 289.266 14.4531 289.125 15.25C289.641 21.1562 289.875 24.7188 289.875 25.9375L290.062 26.3125C289.922 26.3125 289.875 26.3594 289.875 26.5V28.5625C289.875 29.7344 290.203 30.8594 290.812 31.9375C291.703 34.3281 293.812 35.5 297.188 35.5C300.703 35.5 302.438 34.5156 302.438 32.5C302.438 31.7969 302.25 30.8125 301.875 29.5L302.438 26.875C302.297 26.875 302.109 26.3125 301.875 25.1875C301.875 24.8125 302.016 24.2969 302.25 23.6875L302.062 21.4375C302.062 20.7344 302.203 19.7969 302.438 18.625C302.438 17.9219 302.297 16.7031 302.062 15.0625C302.297 14.5469 302.438 13.8906 302.438 13C302.438 12.5781 302.391 12.0156 302.25 11.3125C300.234 6.29688 296.484 3.8125 291 3.8125H289.875ZM283.125 45.625C284.625 46.2344 286.734 46.5625 289.5 46.5625H290.062V46.75C289.547 50.7344 289.312 53.2188 289.312 54.25V58.5625C289.312 59.8281 288.75 61.7969 287.625 64.375C287.297 66.7656 286.594 68.4531 285.562 69.4375C285.328 69.4375 285.234 69.2969 285.188 69.0625C284.062 66.0156 283.312 63.1094 282.938 60.25C282.938 59.6406 283.078 58.8906 283.312 58C283.078 56.3125 282.938 55.0469 282.938 54.25C282.938 53.9688 282.984 53.2656 283.125 52.1875C282.984 52.1875 282.938 52.1406 282.938 52C283.078 51.7656 283.125 51.5781 283.125 51.4375C283.125 51.0625 283.078 50.6406 282.938 50.125L283.125 49.1875C283.125 48.9062 283.078 48.6719 282.938 48.4375L283.125 47.3125V45.625ZM316.594 6.10938C314.109 6.95312 312.844 7.9375 312.844 9.10938C312.844 9.29688 312.984 9.85938 313.219 10.7969C312.891 11.2656 312.609 14.0312 312.281 19.0469C311.391 23.5 310.969 28.0938 310.969 32.7344V33.6719C310.969 35.2188 311.109 36.625 311.344 37.9844C311.109 39.9531 310.969 41.2188 310.969 41.7344C310.969 41.875 311.016 42.0625 311.156 42.2969C310.922 42.9062 310.781 44.0312 310.781 45.6719V48.2969C310.781 50.2656 310.922 51.5781 311.156 52.2344H310.969C310.969 54.25 310.922 55.6562 310.781 56.5469C310.922 58.0938 310.969 58.9844 310.969 59.1719C310.828 63.3438 310.781 66.4375 310.781 68.3594C310.781 69.4844 311.109 71.125 311.719 73.2344C313.641 75.8594 317.812 77.1719 324.281 77.1719C325.359 77.0781 325.969 76.9375 326.156 76.7969L327.281 76.9844H328.031C329.672 76.9844 331.172 76.5625 332.531 75.6719C334.266 75.2969 335.156 74.5469 335.156 73.4219C335.156 72.3906 334.641 71.2656 333.656 70.0469C330.469 69.5312 328.031 68.7812 326.344 67.7969V67.6094C326.344 66.9062 326.484 65.9688 326.719 64.7969L325.969 57.2969C326.484 54.1562 326.719 52.375 326.719 51.8594C326.719 50.4062 326.672 49.4219 326.531 48.8594C326.672 47.6875 326.719 46.4688 326.719 45.2969V38.3594C326.719 37.4688 326.578 36.0625 326.344 34.2344C326.859 30.4375 327.094 27.2969 327.094 24.8594V21.8594L325.969 9.67188C325.734 7.75 323.391 6.53125 318.844 6.10938C318.844 6.25 318.703 6.29688 318.469 6.29688L317.531 6.10938C317.531 6.25 317.484 6.29688 317.344 6.29688L316.969 6.10938H316.594ZM355.969 10C352.781 10 349.734 10.5625 346.781 11.6875C345.703 11.9219 344.578 12.7188 343.406 14.125C340.922 21.25 339.656 25.6094 339.656 27.25C338.531 31.5156 337.969 34.1875 337.969 35.3125C337.969 35.4531 338.016 35.6406 338.156 35.875C337.547 36.0625 337.219 39.0156 337.219 44.6875V45.4375C337.219 47.0312 337.266 48.8594 337.406 50.875L337.031 54.4375C337.172 54.5781 337.219 55.0469 337.219 55.9375C338.25 61.0469 339.422 64.8906 340.781 67.375C342.188 71.875 344.484 74.125 347.719 74.125H348.469C349.266 74.125 350.812 73.8906 353.156 73.375C355.5 73.8906 357.047 74.125 357.844 74.125C359.859 74.125 361.172 73.3281 361.781 71.6875C363.234 71.6875 364.219 70.3281 364.781 67.5625C366.891 64.2812 367.969 61.3281 367.969 58.75C368.719 54.3906 369.094 50.9219 369.094 48.25V47.875C369.094 43.9375 368.766 40.4219 368.156 37.375C368.672 34.9844 368.906 33.6719 368.906 33.4375C368.906 32.8281 368.859 32.5 368.719 32.5C368.719 27.7188 367.828 23.2188 366.094 19C364.406 13 361.031 10 355.969 10ZM354.094 19.5625C354.844 22.1406 355.734 25.4688 356.719 29.5C356.578 30.3438 356.531 31.0469 356.531 31.5625V32.5C357.047 36.9531 357.281 40.1406 357.281 42.0625C357.281 45.8594 357.047 49.6094 356.531 53.3125C355.734 58.0469 354.797 61.1875 353.719 62.6875H353.531C352.172 55.5156 351.469 49.7031 351.469 45.25V43.375C351.469 42.8594 351.422 42.1562 351.281 41.3125C351.516 40.4688 351.656 38.4062 351.656 35.125V34.375C352.031 33.9062 352.219 33.4844 352.219 33.0625V29.875C352.828 24.8125 353.391 21.3906 353.906 19.5625H354.094ZM378.516 0.25C374.953 0.25 372.844 1 372.141 2.5V3.0625C372.141 3.53125 372.375 4.09375 372.891 4.75V5.3125C372.141 9.01562 371.766 12.6719 371.766 16.375L371.953 17.125C371.812 17.3125 371.719 18.1094 371.578 19.5625C371.812 20.8281 372 22.5156 372.141 24.625C371.906 28.1406 371.766 30.0156 371.766 30.25L371.953 31.9375C371.578 32.9219 371.391 33.5781 371.391 33.8125L372.141 48.0625C372.141 51.7656 372.844 58.2812 374.203 67.5625V69.8125C374.203 70.0469 374.344 70.7031 374.578 71.6875C375 74.4531 375.562 76.0938 376.266 76.5625C376.266 77.6875 377.578 78.25 380.203 78.25H382.266C383.156 79.375 383.906 79.9375 384.516 79.9375H385.453C388.219 79.9375 390.094 79.0469 391.078 77.3125C395.719 74.0781 398.016 71.125 398.016 68.5C399.141 66.9531 399.703 64.7031 399.703 61.75C399.703 60.1562 399.562 58.5156 399.328 56.875C399.328 53.3125 398.062 49.75 395.578 46.1875C393.891 44.3594 391.828 43.1406 389.391 42.625C389.391 42.1094 389.766 41.3594 390.516 40.375C391.875 39.1094 393.562 36.1094 395.578 31.375C396.656 31.375 397.266 29.6406 397.453 26.125C398.438 24.2969 398.953 22.7031 398.953 21.4375C398.812 19.0469 398.578 16.7969 398.203 14.6875C397.312 10.5156 396.281 7.70312 395.016 6.25C389.25 2.26562 384 0.25 379.266 0.25H378.516ZM383.391 8.6875C386.625 10.6562 388.266 13.9844 388.266 18.625V20.5C388.266 23.8281 387.281 27.625 385.266 31.9375H385.078L384.891 30.25C384.891 29.5 384.938 28 385.078 25.75L383.578 14.3125V9.0625L383.391 8.6875ZM386.016 47.875C386.156 47.875 386.578 48.2031 387.328 48.8125C389.344 52.4688 390.328 55.2812 390.328 57.25V60.4375L390.516 62.3125C390.188 62.3125 389.766 63.625 389.203 66.25C389.062 66.25 388.734 65.3594 388.266 63.625C387.984 58.75 387.609 56.3125 387.141 56.3125C387.141 55.7969 386.766 53.0781 386.016 48.0625V47.875ZM409.219 7.75C409.219 7.89062 408.562 7.9375 407.203 7.9375C404.531 8.92188 403.219 9.95312 403.219 10.9375V14.6406C403.219 15.2969 403.172 16.1406 403.031 17.125C403.172 17.3594 403.266 17.9219 403.406 18.7188C403.266 19.3281 403.219 19.8906 403.219 20.4531V21.1562C403.219 21.4844 403.312 22 403.547 22.75L402.656 34.2344C402.797 37.9375 402.891 39.9531 403.031 40.2344L402.656 44.3125C402.891 47.3594 403.172 49.2812 403.406 50.125C403.172 52.8438 403.031 55.1406 403.031 57.0156C403.031 63.0625 403.734 69.2031 405.094 75.4375C407.391 76.9375 411.281 77.4531 416.812 77.0312C423.797 77.1719 427.922 75.5312 429.188 72.0156C429.188 70.6094 427.734 69.9062 424.828 69.9062C422.531 70.1406 420.281 70.2812 418.078 70.2812C417.234 70.2812 416.812 69.9062 416.812 69.2031V68.875C416.812 68.1719 416.859 67.2344 417 66.0156C416.531 64.2812 416.297 61.2344 416.297 56.8281V55.0938L416.484 52.9844C416.109 52.2812 415.875 51.4375 415.734 50.5C415.969 47.6406 416.109 45.8125 416.109 45.0156V42.3438C416.109 41.7344 416.062 40.75 415.922 39.3438C416.062 39.3438 416.109 39.1562 416.109 38.8281L415.922 38.5H416.625C419.906 37.3281 421.734 36.7188 422.109 36.7188C424.359 36.7188 425.859 35.7812 426.656 33.9062C426.656 33.1094 426.281 32.4062 425.531 31.75C425.531 31.3281 423.188 30.5312 418.453 29.4531C416.906 29.5938 416.016 29.6406 415.734 29.6406C415.453 29.6406 415.219 28.75 415.031 27.0156L415.922 24.5312C415.781 22.9844 415.734 21.7656 415.734 20.8281V20.4531C415.734 19.6562 415.922 18.7656 416.297 17.8281C416.531 17.8281 416.766 17.875 417 18.0156L417.375 17.8281V18.0156L418.266 17.8281H420.469C425.344 17.8281 428.625 16.1875 430.266 12.8594C430.266 11.3594 429.375 10.1406 427.547 9.15625C424.688 9.01562 421.688 8.78125 418.453 8.45312C417.422 8.45312 416.625 8.59375 416.109 8.82812C415.078 8.45312 412.781 8.07812 409.219 7.75Z" fill="#484D6D"/>
</svg>
