<svg width="127" height="30" viewBox="0 0 127 30" fill="none" xmlns="http://www.w3.org/2000/svg">
<path d="M5.55469 1.45898C4.20117 1.45898 2.9707 1.89844 1.82812 2.79492C1.10742 3.23438 0.580078 4.00781 0.28125 5.11523C0.333984 5.73047 0.386719 6.08203 0.421875 6.16992C0.369141 6.25781 0.351562 6.3457 0.351562 6.45117V7.22461C0.351562 7.40039 0.492188 8.17383 0.773438 9.54492C0.966797 10.916 1.72266 12.6562 3.02344 14.748C3.16406 15.4336 3.5332 16.3125 4.14844 17.3496C4.39453 18.5449 4.6582 19.2305 4.92188 19.3887V20.2324C5.25586 21.1465 5.50195 22.4824 5.625 24.2402C5.57227 24.8379 5.48438 25.541 5.34375 26.3496H5.27344C4.97461 26.1211 4.67578 25.418 4.35938 24.2402C3.7793 22.4648 2.95312 21.5684 1.89844 21.5684C1.56445 21.5859 1.40625 21.6211 1.40625 21.709C0.474609 21.709 0 22.1484 0 23.0449V23.5371C0 24.082 0.158203 24.6094 0.492188 25.084C0.650391 25.9453 1.03711 26.7539 1.61719 27.4746C2.16211 28.8281 3.30469 29.5137 5.0625 29.5137C5.11523 29.4609 5.29102 29.4434 5.55469 29.4434C6.57422 29.4434 7.22461 29.1621 7.52344 28.5996C8.40234 27.6328 9.05273 26.5781 9.49219 25.4355C9.54492 24.4336 9.63281 23.7129 9.77344 23.2559C9.68555 22.2715 9.63281 21.4805 9.63281 20.8652V20.373C9.63281 20.3203 9.50977 19.6523 9.28125 18.4043C8.85938 17.0859 8.57812 16.0312 8.4375 15.2402C7.78711 13.4473 6.71484 11.25 5.20312 8.63086C4.69336 7.24219 4.42969 6.20508 4.42969 5.53711V5.04492C4.83398 5.04492 5.50195 5.625 6.39844 6.80273C6.67969 7.89258 6.9082 8.5957 7.10156 8.91211C7.38281 9.28125 7.99805 9.5625 8.92969 9.75586C10.3359 9.75586 11.0391 9.49219 11.0391 8.98242C10.9512 7.3125 10.8105 6.1875 10.6172 5.60742C9.26367 2.84766 7.57617 1.45898 5.55469 1.45898Z" fill="#484D6D"/>
<path d="M21.8672 0.580078C20.7422 0.703125 20.1797 0.949219 20.1797 1.2832C20.1797 6.83789 20.1094 10.7754 19.9688 13.0957C19.9688 13.5352 20.0215 14.1328 20.1094 14.9238C20.0566 15.75 19.9512 16.8398 19.7578 18.1582C19.8105 19.459 19.8281 20.6543 19.8281 21.7441L19.7578 22.0957H19.5469C19.3535 22.0957 18.9668 22.166 18.3516 22.3066H18.2812C18.0527 20.8125 17.9297 19.5117 17.9297 18.4395C17.5957 16.1895 17.4375 14.7832 17.4375 14.2207C17.4375 14.1328 17.4551 13.6055 17.5078 12.6738C17.4551 11.4961 17.4199 10.793 17.3672 10.5645C17.4551 10.3359 17.5078 9.91406 17.5078 9.29883V9.22852C17.5078 8.29688 17.3848 7.17188 17.1562 5.85352C17.209 5.27344 17.2266 4.95703 17.2266 4.93945C17.1035 3.81445 16.9453 3.25195 16.7344 3.25195C16.7344 2.49609 16.3301 2.12695 15.5391 2.12695C15.3457 2.12695 15.1699 2.14453 14.9766 2.19727C14.7832 2.14453 14.625 2.12695 14.4844 2.12695C13.3594 2.28516 12.7969 2.58398 12.7969 3.04102L13.0781 5.50195C13.0781 5.90625 13.0078 7.27734 12.8672 9.65039C12.6387 11.5488 12.5156 12.8848 12.5156 13.6582V14.1504C12.5156 18.1758 12.4453 20.4258 12.3047 20.9004C12.3047 23.3086 12.4629 25.5059 12.7969 27.5098C12.7969 29.1094 13.4121 29.9004 14.625 29.9004H15.1875C15.3457 29.9004 15.5566 29.8828 15.8203 29.8301C16.2598 29.4609 16.5234 29.2676 16.5938 29.2676C16.6816 29.3203 16.7695 29.3379 16.875 29.3379H17.2266C17.4727 29.3379 17.7363 29.1973 18 28.916C18.4395 28.916 18.7031 28.2832 18.7734 27.0176C18.5801 25.7695 18.4922 25.0312 18.4922 24.7676V24.6973C18.4922 24.5039 18.9668 24.416 19.8984 24.416C19.9863 24.416 20.0391 24.4688 20.0391 24.5566V24.6973C20.0391 25.7695 20.2676 26.9121 20.7422 28.1426C20.9531 28.793 21.5156 29.127 22.4297 29.127C22.9043 29.0742 23.2559 29.0566 23.4844 29.0566C24.4688 28.9512 24.9609 28.6875 24.9609 28.2832V28.1426C24.9609 27.7207 24.8906 27.3164 24.75 26.9473C24.8379 26.4023 24.8906 25.6465 24.8906 24.6973C24.8906 24.5742 24.873 24.3984 24.8203 24.1348C24.9609 23.8535 25.0312 23.3438 25.0312 22.5879V21.6035C25.0312 21.1289 24.9609 20.5488 24.8203 19.8457L25.1016 18.5098C25.1016 17.9648 25.084 17.4023 25.0312 16.8223C25.084 16.3301 25.1016 15.9258 25.1016 15.627C25.0488 15.3809 25.0312 15.2402 25.0312 15.2051C25.0312 15.1699 25.1719 14.3789 25.4531 12.8145C25.4531 12.7266 25.4355 12.6738 25.3828 12.6738C25.2949 10.7051 25.1895 9.28125 25.1016 8.38477C25.1895 7.62891 25.2422 7.17188 25.2422 6.97852C25.2422 6.29297 25.084 5.34375 24.75 4.16602C24.75 2.54883 24.5918 1.58203 24.2578 1.2832C24.0645 0.808594 23.4316 0.580078 22.3594 0.580078H21.8672Z" fill="#484D6D"/>
<path d="M32.8184 2.25C31.6758 2.25 31.0078 2.53125 30.8496 3.09375C30.1641 3.375 29.707 3.74414 29.5137 4.21875C29.5137 4.76367 29.2148 6.3457 28.5996 8.92969C27.8965 13.5879 27.3516 16.9453 26.9824 18.9844C27.0352 19.8809 27.0527 20.4785 27.0527 20.7422C26.7188 22.7285 26.5605 24.3457 26.5605 25.5938V26.4375C26.8418 27.5098 27.6328 28.0547 28.9512 28.0547C29.1445 28.0547 29.4258 27.9141 29.7949 27.6328C30.1289 27.4746 30.2871 26.9648 30.2871 26.0859C30.6211 25.4707 30.832 24.9434 30.9199 24.5391C30.8848 24.5391 30.8145 24.1875 30.709 23.4844C30.8496 22.9746 30.9199 22.6055 30.9199 22.3594V21.9375L30.8496 21.7969C30.9375 21.6035 31.0078 21.5156 31.0605 21.5156H31.4824C32.4668 21.5684 32.9766 21.6562 33.0293 21.7969C33.1875 24.1348 33.7676 26.3145 34.7871 28.3359C34.9805 28.8105 35.6484 29.0391 36.7559 29.0391C37.4062 29.0391 37.9512 28.916 38.373 28.6875C38.7422 28.6875 38.9355 28.3359 38.9355 27.6328V27.2812C38.9355 27.123 38.8652 26.1035 38.7246 24.1875V24.1172L38.7949 23.9766C38.6543 23.1328 38.5137 22.7109 38.373 22.7109C38.373 22.623 38.3906 22.3418 38.4434 21.8672C38.4434 21.5859 38.373 21.2871 38.2324 20.9531C38.3203 20.584 38.373 20.3379 38.373 20.25C38.373 20.1094 38.2852 19.7754 38.0918 19.2656L38.3027 18C38.25 17.3848 38.1445 16.8926 38.0215 16.5234C38.0215 15.4336 37.8281 14.3262 37.459 13.2188C37.3184 11.7598 37.1602 11.0391 36.9668 11.0391C37.0547 10.8809 37.1074 10.7402 37.1074 10.6172C37.1074 10.2832 36.9844 9.77344 36.7559 9.07031C36.6328 8.71875 36.457 8.0332 36.2637 7.03125C35.7891 6.3457 35.5605 5.74805 35.5605 5.27344C34.5762 3.25195 33.6797 2.25 32.8887 2.25H32.8184ZM32.1855 10.2656C32.6602 12.1816 32.8887 13.9043 32.8887 15.3984V15.75C32.8887 16.2246 32.8184 16.8398 32.6777 17.5781C32.7656 18.3691 32.8184 18.8965 32.8184 19.125V19.1953H32.1855C31.957 19.1953 31.6055 19.1777 31.1309 19.125C31.1309 18.6152 31.2012 18 31.3418 17.2969C31.2891 16.8574 31.2715 16.4355 31.2715 16.0312V15.8906C31.6055 14.2207 31.8867 12.3398 32.1152 10.2656H32.1855Z" fill="#484D6D"/>
<path d="M49.1309 2.33789C48.9727 2.33789 48.6738 2.49609 48.2168 2.83008C47.5664 3.42773 46.9863 4.42969 46.459 5.85352C46.0723 7.3125 45.8086 8.10352 45.6855 8.24414V7.89258C45.4043 5.74805 45.2637 4.5 45.2637 4.16602C45.2637 3.2168 44.6309 2.6543 43.3652 2.47852C43.2773 2.53125 43.1895 2.54883 43.084 2.54883H41.8184C40.8867 2.74219 40.4121 3.05859 40.4121 3.46289V5.00977C40.1836 7.76953 40.0605 9.49219 40.0605 10.2129C40.1133 10.5469 40.1309 10.7227 40.1309 10.7754C40.043 10.7754 39.9727 11.1973 39.9199 12.041C39.9199 12.3047 39.9902 12.5508 40.1309 12.8145H40.0605C40.0078 13.7461 39.9902 14.2734 39.9902 14.3613C40.043 16.1895 40.1133 17.1035 40.2012 17.1035L40.1309 17.5254C40.1309 18.4922 40.4824 21.2344 41.1855 25.752C41.4844 27.4395 42.2227 28.2832 43.3652 28.2832C45.4219 27.9492 46.459 27.4746 46.459 26.877V26.8066L46.1777 22.2363C46.1777 21.8672 46.248 21.252 46.3887 20.4082H46.459C46.459 20.6543 46.8281 21.7969 47.584 23.8535C48.0938 25.9805 48.498 27.2812 48.7793 27.7207C48.7793 28.1426 49.3242 28.3711 50.3965 28.4238C51.8906 28.4238 52.6465 28.002 52.6465 27.1582C52.6465 26.6309 52.5586 26.0684 52.3652 25.4707L52.4355 25.0488V24.7676C52.4355 24.3633 52.3125 23.8887 52.084 23.3613C52.084 22.2539 51.8906 21.4102 51.5215 20.8301V20.4785C51.5215 20.1797 51.5039 19.8633 51.4512 19.5645C51.2227 17.7891 50.8887 16.752 50.4668 16.4707C50.4668 15.6094 50.2031 14.8359 49.6934 14.1504C48.8145 13.3242 48.252 12.5156 48.0059 11.6895C48.0059 11.3906 48.0938 11.0391 48.2871 10.6348C49.043 9.19336 49.4121 8.29688 49.4121 7.96289C49.6406 7.62891 49.7637 7.38281 49.7637 7.18945C50.1328 6.64453 50.6074 5.36133 51.1699 3.32227C51.1699 2.67188 50.6777 2.33789 49.6934 2.33789H49.1309Z" fill="#484D6D"/>
<path d="M56.0918 2.47852C56.0918 2.53125 55.8457 2.54883 55.3359 2.54883C54.334 2.91797 53.8418 3.30469 53.8418 3.67383V5.0625C53.8418 5.30859 53.8242 5.625 53.7715 5.99414C53.8242 6.08203 53.8594 6.29297 53.9121 6.5918C53.8594 6.82031 53.8418 7.03125 53.8418 7.24219V7.50586C53.8418 7.62891 53.877 7.82227 53.9648 8.10352L53.6309 12.4102C53.6836 13.7988 53.7188 14.5547 53.7715 14.6602L53.6309 16.1895C53.7188 17.332 53.8242 18.0527 53.9121 18.3691C53.8242 19.3887 53.7715 20.25 53.7715 20.9531C53.7715 23.2207 54.0352 25.5234 54.5449 27.8613C55.4062 28.4238 56.8652 28.6172 58.9395 28.459C61.5586 28.5117 63.1055 27.8965 63.5801 26.5781C63.5801 26.0508 63.0352 25.7871 61.9453 25.7871C61.084 25.875 60.2402 25.9277 59.4141 25.9277C59.0977 25.9277 58.9395 25.7871 58.9395 25.5234V25.4004C58.9395 25.1367 58.957 24.7852 59.0098 24.3281C58.834 23.6777 58.7461 22.5352 58.7461 20.8828V20.2324L58.8164 19.4414C58.6758 19.1777 58.5879 18.8613 58.5352 18.5098C58.623 17.4375 58.6758 16.752 58.6758 16.4531V15.4512C58.6758 15.2227 58.6582 14.8535 58.6055 14.3262C58.6582 14.3262 58.6758 14.2559 58.6758 14.1328L58.6055 14.0098H58.8691C60.0996 13.5703 60.7852 13.3418 60.9258 13.3418C61.7695 13.3418 62.332 12.9902 62.6309 12.2871C62.6309 11.9883 62.4902 11.7246 62.209 11.4785C62.209 11.3203 61.3301 11.0215 59.5547 10.6172C58.9746 10.6699 58.6406 10.6875 58.5352 10.6875C58.4297 10.6875 58.3418 10.3535 58.2715 9.70312L58.6055 8.77148C58.5527 8.19141 58.5352 7.73438 58.5352 7.38281V7.24219C58.5352 6.94336 58.6055 6.60938 58.7461 6.25781C58.834 6.25781 58.9219 6.27539 59.0098 6.32812L59.1504 6.25781V6.32812L59.4844 6.25781H60.3105C62.1387 6.25781 63.3691 5.64258 63.9844 4.39453C63.9844 3.83203 63.6504 3.375 62.9648 3.00586C61.8926 2.95312 60.7676 2.86523 59.5547 2.74219C59.168 2.74219 58.8691 2.79492 58.6758 2.88281C58.2891 2.74219 57.4277 2.60156 56.0918 2.47852Z" fill="#484D6D"/>
<path d="M76.7461 2.28516C76.4121 2.28516 75.9199 2.35547 75.2695 2.49609C74.7949 2.49609 74.5664 3.99023 74.5664 6.99609L74.6367 7.34766C74.584 7.43555 74.5664 7.54102 74.5664 7.69922V8.61328C74.373 10.4238 74.2852 11.4434 74.2852 11.707C74.373 13.5527 74.4258 15.416 74.4258 17.332C74.3379 18.4395 74.2676 20.127 74.2148 22.3945C74.2148 22.7285 74.2324 22.8867 74.2852 22.8867C74.2852 25.7871 74.7246 27.2461 75.6211 27.2461H77.168C79.0488 27.123 79.9805 26.666 79.9805 25.9102L79.9102 25.7695C80.0508 24.8203 80.1211 24.2578 80.1211 24.082C80.1211 23.8535 80.0508 23.4492 79.9102 22.8867C80.1387 20.584 80.2617 18.8086 80.2617 17.543C80.2617 17.4199 80.2441 16.9453 80.1914 16.1367V15.9961H80.2617C80.4902 17.4551 80.7012 18.4043 80.8945 18.8086C80.8945 19.1777 81.668 19.3711 83.2148 19.3711C83.6719 19.2129 84.041 19.0371 84.3398 18.8086C84.6738 18.4043 85.0254 17.2441 85.3945 15.293H85.4648V15.3633L85.3242 16.7695L85.6055 20.3555C85.6055 20.7422 85.5879 21.1113 85.5352 21.4805L85.6758 23.4492C85.623 23.748 85.6055 24.0645 85.6055 24.3633V26.8945C86.3965 28.0195 87.3105 28.582 88.3477 28.582C88.7168 28.582 89.1387 28.3535 89.6133 27.8789C89.8418 27.8789 89.9648 26.1387 89.9648 22.6758C89.9648 21.6387 89.8242 20.2148 89.543 18.3867V18.1055C89.543 17.7891 89.6309 17.3145 89.8242 16.6992C89.7715 16.4004 89.6836 16.084 89.543 15.7852C89.5957 15.4688 89.6133 15.2051 89.6133 15.0117V13.957L89.0508 7.06641C89.1387 6.43359 89.1914 5.95898 89.1914 5.66016C89.0508 4.58789 88.9805 3.97266 88.9805 3.83203C88.9805 3.2168 88.7871 2.91797 88.418 2.91797H88.1367C86.8359 2.91797 85.8691 3.18164 85.2539 3.69141C84.8496 4.02539 83.9004 6.0293 82.3711 9.66797H82.3008C81.7383 7.82227 81.2285 6.45117 80.7539 5.51953C79.3652 3.35742 78.0293 2.28516 76.7461 2.28516ZM80.1914 15.7148V15.9258H80.1211V15.7148H80.1914Z" fill="#484D6D"/>
<path d="M97.8926 3.32227C96.6973 3.32227 95.5547 3.5332 94.4473 3.95508C94.043 4.04297 93.6211 4.3418 93.1816 4.86914C92.25 7.54102 91.7754 9.17578 91.7754 9.79102C91.3535 11.3906 91.1426 12.3926 91.1426 12.8145C91.1426 12.8672 91.1602 12.9375 91.2129 13.0254C90.9844 13.0957 90.8613 14.2031 90.8613 16.3301V16.6113C90.8613 17.209 90.8789 17.8945 90.9316 18.6504L90.791 19.9863C90.8438 20.0391 90.8613 20.2148 90.8613 20.5488C91.248 22.4648 91.6875 23.9062 92.1973 24.8379C92.7246 26.5254 93.5859 27.3691 94.7988 27.3691H95.0801C95.3789 27.3691 95.959 27.2812 96.8379 27.0879C97.7168 27.2812 98.2969 27.3691 98.5957 27.3691C99.3516 27.3691 99.8438 27.0703 100.072 26.4551C100.617 26.4551 100.986 25.9453 101.197 24.9082C101.988 23.6777 102.393 22.5703 102.393 21.6035C102.674 19.9688 102.814 18.668 102.814 17.666V17.5254C102.814 16.0488 102.691 14.7305 102.463 13.5879C102.656 12.6914 102.744 12.1992 102.744 12.1113C102.744 11.8828 102.727 11.7598 102.674 11.7598C102.674 9.9668 102.34 8.2793 101.689 6.69727C101.057 4.44727 99.791 3.32227 97.8926 3.32227ZM97.1895 6.9082C97.4707 7.875 97.8047 9.12305 98.1738 10.6348C98.1211 10.9512 98.1035 11.2148 98.1035 11.4082V11.7598C98.2969 13.4297 98.3848 14.625 98.3848 15.3457C98.3848 16.7695 98.2969 18.1758 98.1035 19.5645C97.8047 21.3398 97.4531 22.5176 97.0488 23.0801H96.9785C96.4688 20.3906 96.2051 18.2109 96.2051 16.541V15.8379C96.2051 15.6445 96.1875 15.3809 96.1348 15.0645C96.2227 14.748 96.2754 13.9746 96.2754 12.7441V12.4629C96.416 12.2871 96.4863 12.1289 96.4863 11.9707V10.7754C96.7148 8.87695 96.9258 7.59375 97.1191 6.9082H97.1895Z" fill="#484D6D"/>
<path d="M109.213 0C108.633 0.0527344 108.316 0.0703125 108.299 0.0703125C107.227 0.0703125 106.172 0.544922 105.135 1.47656C104.906 2.17969 104.713 2.53125 104.572 2.53125C104.168 3.2168 103.834 4.57031 103.588 6.60938C103.588 7.40039 103.641 8.12109 103.729 8.78906L103.588 9.63281C103.588 9.82617 103.605 10.002 103.658 10.1953C103.605 10.916 103.588 11.5664 103.588 12.1641V12.7969C103.588 13.3945 103.641 14.0098 103.729 14.625L103.588 15.8906L103.939 19.9688C103.939 23.7832 104.273 26.7715 104.924 28.9688C105.082 29.3906 105.697 29.6016 106.752 29.6016C107.93 29.4785 108.51 29.1445 108.51 28.6172C108.51 28.1777 108.422 27.7207 108.229 27.2109C108.281 26.9473 108.299 26.7363 108.299 26.5781V25.2422C108.299 24.6973 108.352 24.3105 108.439 24.1172C108.369 24.1172 108.316 23.8359 108.299 23.2734C108.387 22.4824 108.439 21.9902 108.439 21.7969H108.51C108.51 21.9375 108.58 22.166 108.721 22.5C109.072 23.0977 109.371 23.959 109.635 25.1016C110.285 26.2441 110.76 27.1934 111.041 27.9844C111.463 29.25 112.184 29.8828 113.221 29.8828C113.607 29.8301 114.117 29.7246 114.768 29.5312C115.242 29.373 115.471 28.9863 115.471 28.3359V28.125C115.471 27.7031 115.418 27.2988 115.33 26.9297C114.434 24.3457 113.994 22.957 113.994 22.7812C113.291 21.498 112.939 20.6895 112.939 20.3906C112.658 19.3008 111.902 18.0527 110.689 16.6641L110.76 16.5234C110.988 16.2422 111.516 15.7676 112.307 15.1172C113.01 14.168 113.361 13.6055 113.361 13.4297C113.643 13.4297 113.977 11.6016 114.346 7.94531C114.346 7.78711 114.328 7.29492 114.275 6.46875C113.871 3.90234 113.273 2.21484 112.447 1.40625C111.938 0.474609 110.848 0 109.213 0ZM107.666 4.99219C107.736 3.2168 107.965 2.32031 108.369 2.32031H108.439C109.424 3.19922 109.916 4.83398 109.916 7.24219C109.916 10.0547 109.371 11.9355 108.299 12.8672L108.229 12.5859C108.229 11.5137 108.141 10.6699 107.947 10.0547C108 9.79102 108.018 9.58008 108.018 9.42188V9.07031C107.789 7.50586 107.666 6.27539 107.666 5.34375V4.99219ZM108.439 21.5859V21.7266H108.369V21.5859H108.439Z" fill="#484D6D"/>
<path d="M118.951 2.47852C118.951 2.53125 118.705 2.54883 118.195 2.54883C117.193 2.91797 116.701 3.30469 116.701 3.67383V5.0625C116.701 5.30859 116.684 5.625 116.631 5.99414C116.684 6.08203 116.719 6.29297 116.771 6.5918C116.719 6.82031 116.701 7.03125 116.701 7.24219V7.50586C116.701 7.62891 116.736 7.82227 116.824 8.10352L116.49 12.4102C116.543 13.7988 116.578 14.5547 116.631 14.6602L116.49 16.1895C116.578 17.332 116.684 18.0527 116.771 18.3691C116.684 19.3887 116.631 20.25 116.631 20.9531C116.631 23.2207 116.895 25.5234 117.404 27.8613C118.266 28.4238 119.725 28.6172 121.799 28.459C124.418 28.5117 125.965 27.8965 126.439 26.5781C126.439 26.0508 125.895 25.7871 124.805 25.7871C123.943 25.875 123.1 25.9277 122.273 25.9277C121.957 25.9277 121.799 25.7871 121.799 25.5234V25.4004C121.799 25.1367 121.816 24.7852 121.869 24.3281C121.693 23.6777 121.605 22.5352 121.605 20.8828V20.2324L121.676 19.4414C121.535 19.1777 121.447 18.8613 121.395 18.5098C121.482 17.4375 121.535 16.752 121.535 16.4531V15.4512C121.535 15.2227 121.518 14.8535 121.465 14.3262C121.518 14.3262 121.535 14.2559 121.535 14.1328L121.465 14.0098H121.729C122.959 13.5703 123.645 13.3418 123.785 13.3418C124.629 13.3418 125.191 12.9902 125.49 12.2871C125.49 11.9883 125.35 11.7246 125.068 11.4785C125.068 11.3203 124.189 11.0215 122.414 10.6172C121.834 10.6699 121.5 10.6875 121.395 10.6875C121.289 10.6875 121.201 10.3535 121.131 9.70312L121.465 8.77148C121.412 8.19141 121.395 7.73438 121.395 7.38281V7.24219C121.395 6.94336 121.465 6.60938 121.605 6.25781C121.693 6.25781 121.781 6.27539 121.869 6.32812L122.01 6.25781V6.32812L122.344 6.25781H123.17C124.998 6.25781 126.229 5.64258 126.844 4.39453C126.844 3.83203 126.51 3.375 125.824 3.00586C124.752 2.95312 123.627 2.86523 122.414 2.74219C122.027 2.74219 121.729 2.79492 121.535 2.88281C121.148 2.74219 120.287 2.60156 118.951 2.47852Z" fill="#484D6D"/>
</svg>
