<svg width="412" height="80" viewBox="0 0 412 80" fill="none" xmlns="http://www.w3.org/2000/svg">
<path d="M14.6992 4.74419C11.1174 4.74419 7.86126 5.90698 4.8377 8.27907C2.93053 9.44186 1.53504 11.4884 0.744261 14.4186C0.88381 16.0465 1.02336 16.9767 1.11639 17.2093C0.976842 17.4419 0.930326 17.6744 0.930326 17.9535V20C0.930326 20.4651 1.30246 22.5116 2.04672 26.1395C2.5584 29.7674 4.5586 34.3721 8.0008 39.907C8.37294 41.7209 9.34978 44.0465 10.9778 46.7907C11.6291 49.9535 12.3268 51.7674 13.0246 52.186V54.4186C13.9084 56.8372 14.5596 60.3721 14.8852 65.0233C14.7457 66.6047 14.5131 68.4651 14.141 70.6047H13.9549C13.1641 70 12.3733 68.1395 11.536 65.0233C10.001 60.3256 7.81474 57.9535 5.02376 57.9535C4.13995 58 3.7213 58.093 3.7213 58.3256C1.25594 58.3256 0 59.4884 0 61.8605V63.1628C0 64.6047 0.418647 66 1.30246 67.2558C1.7211 69.5349 2.74446 71.6744 4.2795 73.5814C5.72151 77.1628 8.74507 78.9767 13.3967 78.9767C13.5362 78.8372 14.0014 78.7907 14.6992 78.7907C17.3971 78.7907 19.1182 78.0465 19.909 76.5581C22.2348 74 23.9559 71.2093 25.1188 68.186C25.2584 65.5349 25.4909 63.6279 25.8631 62.4186C25.6305 59.814 25.4909 57.7209 25.4909 56.093V54.7907C25.4909 54.6512 25.1653 52.8837 24.5606 49.5814C23.4442 46.093 22.7 43.3023 22.3278 41.2093C20.6067 36.4651 17.7692 30.6512 13.7688 23.7209C12.4199 20.0465 11.7221 17.3023 11.7221 15.5349V14.2326C12.792 14.2326 14.5596 15.7674 16.9319 18.8837C17.6762 21.7674 18.2809 23.6279 18.7926 24.4651C19.5368 25.4419 21.1649 26.186 23.6303 26.6977C27.3516 26.6977 29.2122 26 29.2122 24.6512C28.9797 20.2326 28.6075 17.2558 28.0958 15.7209C24.5141 8.4186 20.0485 4.74419 14.6992 4.74419Z" fill="#484D6D"/>
<path d="M57.8663 2.4186C54.8892 2.74419 53.4007 3.39535 53.4007 4.27907C53.4007 18.9767 53.2147 29.3953 52.8425 35.5349C52.8425 36.6977 52.9821 38.2791 53.2147 40.3721C53.0751 42.5581 52.796 45.4419 52.2843 48.9302C52.4239 52.3721 52.4704 55.5349 52.4704 58.4186L52.2843 59.3488H51.7261C51.2145 59.3488 50.1911 59.5349 48.563 59.907H48.377C47.7722 55.9535 47.4466 52.5116 47.4466 49.6744C46.5628 43.7209 46.1442 40 46.1442 38.5116C46.1442 38.2791 46.1907 36.8837 46.3302 34.4186C46.1907 31.3023 46.0977 29.4419 45.9581 28.8372C46.1907 28.2326 46.3302 27.1163 46.3302 25.4884V25.3023C46.3302 22.8372 46.0046 19.8605 45.3999 16.3721C45.5395 14.8372 45.586 14 45.586 13.9535C45.2604 10.9767 44.8417 9.48837 44.2835 9.48837C44.2835 7.48837 43.2136 6.51163 41.1204 6.51163C40.6087 6.51163 40.1436 6.55814 39.6319 6.69767C39.1202 6.55814 38.7016 6.51163 38.3294 6.51163C35.3524 6.93023 33.8639 7.72093 33.8639 8.93023L34.6081 15.4419C34.6081 16.5116 34.4221 20.1395 34.0499 26.4186C33.4452 31.4419 33.1196 34.9767 33.1196 37.0233V38.3256C33.1196 48.9767 32.9335 54.9302 32.5614 56.186C32.5614 62.5581 32.9801 68.3721 33.8639 73.6744C33.8639 77.907 35.4919 80 38.7016 80H40.1901C40.6087 80 41.1669 79.9535 41.8647 79.814C43.0276 78.8372 43.7253 78.3256 43.9114 78.3256C44.144 78.4651 44.3766 78.5116 44.6557 78.5116H45.586C46.2372 78.5116 46.935 78.1395 47.6327 77.3953C48.7956 77.3953 49.4934 75.7209 49.6794 72.3721C49.1677 69.0698 48.9352 67.1163 48.9352 66.4186V66.2326C48.9352 65.7209 50.1911 65.4884 52.6565 65.4884C52.889 65.4884 53.0286 65.6279 53.0286 65.8605V66.2326C53.0286 69.0698 53.6333 72.093 54.8892 75.3488C55.4474 77.0698 56.936 77.9535 59.3548 77.9535C60.6107 77.814 61.5411 77.7674 62.1458 77.7674C64.7507 77.4884 66.0532 76.7907 66.0532 75.7209V75.3488C66.0532 74.2326 65.8671 73.1628 65.495 72.186C65.7275 70.7442 65.8671 68.7442 65.8671 66.2326C65.8671 65.907 65.8206 65.4419 65.681 64.7442C66.0532 64 66.2392 62.6512 66.2392 60.6512V58.0465C66.2392 56.7907 66.0532 55.2558 65.681 53.3953L66.4253 49.8605C66.4253 48.4186 66.3788 46.9302 66.2392 45.3953C66.3788 44.093 66.4253 43.0233 66.4253 42.2326C66.2857 41.5814 66.2392 41.2093 66.2392 41.1163C66.2392 41.0233 66.6114 38.9302 67.3556 34.7907C67.3556 34.5581 67.3091 34.4186 67.1695 34.4186C66.937 29.2093 66.6579 25.4419 66.4253 23.0698C66.6579 21.0698 66.7974 19.8605 66.7974 19.3488C66.7974 17.5349 66.3788 15.0233 65.495 11.907C65.495 7.62791 65.0763 5.06977 64.1925 4.27907C63.6808 3.02326 62.0062 2.4186 59.1687 2.4186H57.8663Z" fill="#484D6D"/>
<path d="M86.8459 6.83721C83.8224 6.83721 82.0548 7.5814 81.6361 9.06977C79.822 9.81395 78.6126 10.7907 78.1009 12.0465C78.1009 13.4884 77.3101 17.6744 75.682 24.5116C73.8214 36.8372 72.3794 45.7209 71.4025 51.1163C71.5421 53.4884 71.5886 55.0698 71.5886 55.7674C70.7048 61.0233 70.2861 65.3023 70.2861 68.6047V70.8372C71.0304 73.6744 73.1236 75.1163 76.6124 75.1163C77.124 75.1163 77.8683 74.7442 78.8451 74C79.729 73.5814 80.1476 72.2326 80.1476 69.907C81.0314 68.2791 81.5896 66.8837 81.8222 65.814C81.7292 65.814 81.5431 64.8837 81.264 63.0233C81.6361 61.6744 81.8222 60.6977 81.8222 60.0465V58.9302L81.6361 58.5581C81.8687 58.0465 82.0548 57.814 82.1943 57.814H83.3107C85.9156 57.9535 87.2646 58.186 87.4041 58.5581C87.8228 64.7442 89.3578 70.5116 92.0558 75.8605C92.5675 77.1163 94.3351 77.7209 97.2656 77.7209C98.9867 77.7209 100.429 77.3953 101.545 76.7907C102.522 76.7907 103.034 75.8605 103.034 74V73.0698C103.034 72.6512 102.848 69.9535 102.475 64.8837V64.6977L102.661 64.3256C102.289 62.093 101.917 60.9767 101.545 60.9767C101.545 60.7442 101.592 60 101.731 58.7442C101.731 58 101.545 57.2093 101.173 56.3256C101.406 55.3488 101.545 54.6977 101.545 54.4651C101.545 54.093 101.313 53.2093 100.801 51.8605L101.359 48.5116C101.219 46.8837 100.94 45.5814 100.615 44.6047C100.615 41.7209 100.103 38.7907 99.1263 35.8605C98.7541 32 98.3355 30.093 97.8238 30.093C98.0564 29.6744 98.1959 29.3023 98.1959 28.9767C98.1959 28.093 97.8703 26.7442 97.2656 24.8837C96.94 23.9535 96.4748 22.1395 95.9631 19.4884C94.7072 17.6744 94.1025 16.093 94.1025 14.8372C91.4976 9.48837 89.1252 6.83721 87.032 6.83721H86.8459ZM85.1714 28.0465C86.4273 33.1163 87.032 37.6744 87.032 41.6279V42.5581C87.032 43.814 86.8459 45.4419 86.4738 47.3953C86.7064 49.4884 86.8459 50.8837 86.8459 51.4884V51.6744H85.1714C84.5666 51.6744 83.6363 51.6279 82.3804 51.4884C82.3804 50.1395 82.5664 48.5116 82.9386 46.6512C82.799 45.4884 82.7525 44.3721 82.7525 43.3023V42.9302C83.6363 38.5116 84.3806 33.5349 84.9853 28.0465H85.1714Z" fill="#484D6D"/>
<path d="M130.013 7.06977C129.594 7.06977 128.804 7.48837 127.594 8.37209C125.873 9.95349 124.338 12.6047 122.943 16.3721C121.919 20.2326 121.221 22.3256 120.896 22.6977V21.7674C120.152 16.093 119.779 12.7907 119.779 11.907C119.779 9.39535 118.105 7.90698 114.756 7.44186C114.523 7.5814 114.291 7.62791 114.011 7.62791H110.662C108.197 8.13953 106.941 8.97674 106.941 10.0465V14.1395C106.336 21.4419 106.011 26 106.011 27.907C106.15 28.7907 106.197 29.2558 106.197 29.3953C105.964 29.3953 105.778 30.5116 105.639 32.7442C105.639 33.4419 105.825 34.093 106.197 34.7907H106.011C105.871 37.2558 105.825 38.6512 105.825 38.8837C105.964 43.7209 106.15 46.1395 106.383 46.1395L106.197 47.2558C106.197 49.814 107.127 57.0698 108.988 69.0233C109.778 73.4884 111.732 75.7209 114.756 75.7209C120.198 74.8372 122.943 73.5814 122.943 72V71.814L122.198 59.7209C122.198 58.7442 122.384 57.1163 122.757 54.8837H122.943C122.943 55.5349 123.919 58.5581 125.92 64C127.269 69.6279 128.338 73.0698 129.083 74.2326C129.083 75.3488 130.525 75.9535 133.362 76.093C137.316 76.093 139.316 74.9767 139.316 72.7442C139.316 71.3488 139.084 69.8605 138.572 68.2791L138.758 67.1628V66.4186C138.758 65.3488 138.433 64.093 137.828 62.6977C137.828 59.7674 137.316 57.5349 136.339 56V55.0698C136.339 54.2791 136.293 53.4419 136.153 52.6512C135.549 47.9535 134.665 45.2093 133.548 44.4651C133.548 42.186 132.851 40.1395 131.502 38.3256C129.176 36.1395 127.687 34 127.036 31.814C127.036 31.0233 127.269 30.093 127.78 29.0233C129.78 25.2093 130.757 22.8372 130.757 21.9535C131.362 21.0698 131.688 20.4186 131.688 19.907C132.665 18.4651 133.92 15.0698 135.409 9.67442C135.409 7.95349 134.107 7.06977 131.502 7.06977H130.013Z" fill="#484D6D"/>
<path d="M148.434 7.44186C148.434 7.5814 147.782 7.62791 146.433 7.62791C143.782 8.60465 142.479 9.62791 142.479 10.6047V14.2791C142.479 14.9302 142.433 15.7674 142.293 16.7442C142.433 16.9767 142.526 17.5349 142.666 18.3256C142.526 18.9302 142.479 19.4884 142.479 20.0465V20.7442C142.479 21.0698 142.572 21.5814 142.805 22.3256L141.921 33.7209C142.061 37.3953 142.154 39.3953 142.293 39.6744L141.921 43.7209C142.154 46.7442 142.433 48.6512 142.666 49.4884C142.433 52.186 142.293 54.4651 142.293 56.3256C142.293 62.3256 142.991 68.4186 144.34 74.6047C146.619 76.093 150.48 76.6047 155.969 76.186C162.9 76.3256 166.994 74.6977 168.249 71.2093C168.249 69.814 166.807 69.1163 163.923 69.1163C161.644 69.3488 159.411 69.4884 157.225 69.4884C156.388 69.4884 155.969 69.1163 155.969 68.4186V68.093C155.969 67.3953 156.016 66.4651 156.155 65.2558C155.69 63.5349 155.458 60.5116 155.458 56.1395V54.4186L155.644 52.3256C155.271 51.6279 155.039 50.7907 154.899 49.8605C155.132 47.0233 155.271 45.2093 155.271 44.4186V41.7674C155.271 41.1628 155.225 40.186 155.085 38.7907C155.225 38.7907 155.271 38.6047 155.271 38.2791L155.085 37.9535H155.783C159.039 36.7907 160.853 36.186 161.226 36.186C163.458 36.186 164.947 35.2558 165.738 33.3953C165.738 32.6047 165.365 31.907 164.621 31.2558C164.621 30.8372 162.295 30.0465 157.597 28.9767C156.062 29.1163 155.178 29.1628 154.899 29.1628C154.62 29.1628 154.388 28.2791 154.202 26.5581L155.085 24.093C154.946 22.5581 154.899 21.3488 154.899 20.4186V20.0465C154.899 19.2558 155.085 18.3721 155.458 17.4419C155.69 17.4419 155.923 17.4884 156.155 17.6279L156.527 17.4419V17.6279L157.411 17.4419H159.597C164.435 17.4419 167.691 15.814 169.319 12.5116C169.319 11.0233 168.436 9.81395 166.621 8.83721C163.784 8.69767 160.807 8.46512 157.597 8.13953C156.574 8.13953 155.783 8.27907 155.271 8.51163C154.248 8.13953 151.969 7.76744 148.434 7.44186Z" fill="#484D6D"/>
<path d="M211.696 6.83721C208.672 6.83721 206.905 7.5814 206.486 9.06977C204.672 9.81395 203.462 10.7907 202.951 12.0465C202.951 13.4884 202.16 17.6744 200.532 24.5116C198.671 36.8372 197.229 45.7209 196.252 51.1163C196.392 53.4884 196.438 55.0698 196.438 55.7674C195.555 61.0233 195.136 65.3023 195.136 68.6047V70.8372C195.88 73.6744 197.973 75.1163 201.462 75.1163C201.974 75.1163 202.718 74.7442 203.695 74C204.579 73.5814 204.997 72.2326 204.997 69.907C205.881 68.2791 206.439 66.8837 206.672 65.814C206.579 65.814 206.393 64.8837 206.114 63.0233C206.486 61.6744 206.672 60.6977 206.672 60.0465V58.9302L206.486 58.5581C206.718 58.0465 206.905 57.814 207.044 57.814H208.16C210.765 57.9535 212.114 58.186 212.254 58.5581C212.673 64.7442 214.208 70.5116 216.906 75.8605C217.417 77.1163 219.185 77.7209 222.115 77.7209C223.836 77.7209 225.278 77.3953 226.395 76.7907C227.372 76.7907 227.883 75.8605 227.883 74V73.0698C227.883 72.6512 227.697 69.9535 227.325 64.8837V64.6977L227.511 64.3256C227.139 62.093 226.767 60.9767 226.395 60.9767C226.395 60.7442 226.441 60 226.581 58.7442C226.581 58 226.395 57.2093 226.023 56.3256C226.255 55.3488 226.395 54.6977 226.395 54.4651C226.395 54.093 226.162 53.2093 225.651 51.8605L226.209 48.5116C226.069 46.8837 225.79 45.5814 225.465 44.6047C225.465 41.7209 224.953 38.7907 223.976 35.8605C223.604 32 223.185 30.093 222.674 30.093C222.906 29.6744 223.046 29.3023 223.046 28.9767C223.046 28.093 222.72 26.7442 222.115 24.8837C221.79 23.9535 221.325 22.1395 220.813 19.4884C219.557 17.6744 218.952 16.093 218.952 14.8372C216.347 9.48837 213.975 6.83721 211.882 6.83721H211.696ZM210.021 28.0465C211.277 33.1163 211.882 37.6744 211.882 41.6279V42.5581C211.882 43.814 211.696 45.4419 211.324 47.3953C211.556 49.4884 211.696 50.8837 211.696 51.4884V51.6744H210.021C209.416 51.6744 208.486 51.6279 207.23 51.4884C207.23 50.1395 207.416 48.5116 207.788 46.6512C207.649 45.4884 207.602 44.3721 207.602 43.3023V42.9302C208.486 38.5116 209.23 33.5349 209.835 28.0465H210.021Z" fill="#484D6D"/>
<path d="M271.795 3.53488C267.98 3.53488 264.678 5.2093 261.933 8.55814C259.468 11.7674 257.979 15.2093 257.468 18.7907C255.375 32.3256 254.351 41.6279 254.305 46.6977L254.119 47.6279C254.258 47.6279 254.305 47.6744 254.305 47.814C254.305 48.3721 254.258 48.7442 254.119 48.9302C254.258 49.6279 254.305 50.186 254.305 50.6047V51.5349C254.305 53.1628 254.491 56.186 254.863 60.6512C254.723 60.6512 254.677 60.6977 254.677 60.8372C254.677 64.4186 255.561 67.7674 257.282 70.8837C259.375 75.8605 260.956 78.3256 261.933 78.3256C263.329 78.186 264.399 78 265.096 77.7674C265.329 77.907 265.562 77.9535 265.841 77.9535H266.957C267.283 77.9535 267.655 77.814 268.073 77.5814C269.05 77.9535 269.702 78.1395 270.12 78.1395H270.306C273.423 78.1395 276.679 76.8372 279.982 74.2326C279.982 74.7442 280.307 75.6744 280.912 77.0233C282.307 78.2791 283.796 78.8837 285.378 78.8837L285.75 78.6977V78.8837C287.75 78.4186 288.727 77.814 288.727 77.0233C288.727 75.6744 288.541 73.0698 288.169 69.2093C288.541 68.3721 288.727 67.6744 288.727 67.1628V65.4884C289.238 64.9302 289.471 64.5116 289.471 64.186C289.471 63.3023 289.052 60.2326 288.169 55.0698C287.564 52.9767 287.099 49.8605 286.866 45.7674C285.889 44.1395 285.378 42.3721 285.378 40.3721C285.052 39.0233 283.145 38.3256 279.61 38.3256H279.423L279.051 38.1395V38.3256L278.121 38.1395H277.935C273.051 38.1395 268.678 39.3023 264.91 41.6744C264.91 39.9535 265.096 38.6512 265.469 37.7674C265.329 36.8837 265.143 36.0465 264.91 35.3488L265.841 32.5581L266.585 26.6047V25.4884L266.399 24.5581L269.376 14.8837C269.376 12.9302 269.934 11.7674 271.051 11.3488H271.237V12.2791C271.237 13.2558 271.19 14.093 271.051 14.8837C271.562 20.7442 271.795 24.2791 271.795 25.4884L271.981 25.8605C271.841 25.8605 271.795 25.907 271.795 26.0465V28.093C271.795 29.2558 272.12 30.3721 272.725 31.4419C273.609 33.814 275.702 34.9767 279.051 34.9767C282.54 34.9767 284.261 34 284.261 32C284.261 31.3023 284.075 30.3256 283.703 29.0233L284.261 26.4186C284.122 26.4186 283.936 25.8605 283.703 24.7442C283.703 24.3721 283.843 23.8605 284.075 23.2558L283.889 21.0233C283.889 20.3256 284.029 19.3953 284.261 18.2326C284.261 17.5349 284.122 16.3256 283.889 14.6977C284.122 14.186 284.261 13.5349 284.261 12.6512C284.261 12.2326 284.215 11.6744 284.075 10.9767C282.075 6 278.354 3.53488 272.911 3.53488H271.795ZM265.096 45.0233C266.585 45.6279 268.678 45.9535 271.423 45.9535H271.981V46.1395C271.469 50.093 271.237 52.5581 271.237 53.5814V57.8605C271.237 59.1163 270.678 61.0698 269.562 63.6279C269.236 66 268.539 67.6744 267.515 68.6512C267.283 68.6512 267.19 68.5116 267.143 68.2791C266.027 65.2558 265.283 62.3721 264.91 59.5349C264.91 58.9302 265.05 58.186 265.283 57.3023C265.05 55.6279 264.91 54.3721 264.91 53.5814C264.91 53.3023 264.957 52.6047 265.096 51.5349C264.957 51.5349 264.91 51.4884 264.91 51.3488C265.05 51.1163 265.096 50.9302 265.096 50.7907C265.096 50.4186 265.05 50 264.91 49.4884L265.096 48.5581C265.096 48.2791 265.05 48.0465 264.91 47.814L265.096 46.6977V45.0233Z" fill="#484D6D"/>
<path d="M298.309 5.81395C295.844 6.65116 294.588 7.62791 294.588 8.7907C294.588 8.97674 294.727 9.53488 294.96 10.4651C294.634 10.9302 294.355 13.6744 294.03 18.6512C293.146 23.0698 292.727 27.6279 292.727 32.2326V33.1628C292.727 34.6977 292.867 36.093 293.099 37.4419C292.867 39.3953 292.727 40.6512 292.727 41.1628C292.727 41.3023 292.774 41.4884 292.913 41.7209C292.681 42.3256 292.541 43.4419 292.541 45.0698V47.6744C292.541 49.6279 292.681 50.9302 292.913 51.5814H292.727C292.727 53.5814 292.681 54.9767 292.541 55.8605C292.681 57.3953 292.727 58.2791 292.727 58.4651C292.588 62.6047 292.541 65.6744 292.541 67.5814C292.541 68.6977 292.867 70.3256 293.471 72.4186C295.379 75.0233 299.519 76.3256 305.938 76.3256C307.008 76.2326 307.612 76.093 307.798 75.9535L308.915 76.1395H309.659C311.287 76.1395 312.776 75.7209 314.125 74.8372C315.846 74.4651 316.73 73.7209 316.73 72.6047C316.73 71.5814 316.218 70.4651 315.241 69.2558C312.078 68.7442 309.659 68 307.984 67.0233V66.8372C307.984 66.1395 308.124 65.2093 308.357 64.0465L307.612 56.6047C308.124 53.4884 308.357 51.7209 308.357 51.2093C308.357 49.7674 308.31 48.7907 308.171 48.2326C308.31 47.0698 308.357 45.8605 308.357 44.6977V37.814C308.357 36.9302 308.217 35.5349 307.984 33.7209C308.496 29.9535 308.729 26.8372 308.729 24.4186V21.4419L307.612 9.34884C307.38 7.44186 305.054 6.23256 300.542 5.81395C300.542 5.95349 300.402 6 300.17 6L299.239 5.81395C299.239 5.95349 299.193 6 299.053 6L298.681 5.81395H298.309Z" fill="#484D6D"/>
<path d="M337.383 9.67442C334.22 9.67442 331.196 10.2326 328.266 11.3488C327.196 11.5814 326.079 12.3721 324.916 13.7674C322.451 20.8372 321.195 25.1628 321.195 26.7907C320.079 31.0233 319.521 33.6744 319.521 34.7907C319.521 34.9302 319.567 35.1163 319.707 35.3488C319.102 35.5349 318.776 38.4651 318.776 44.093V44.8372C318.776 46.4186 318.823 48.2326 318.962 50.2326L318.59 53.7674C318.73 53.907 318.776 54.3721 318.776 55.2558C319.8 60.3256 320.963 64.1395 322.311 66.6047C323.707 71.0698 325.986 73.3023 329.196 73.3023H329.94C330.731 73.3023 332.266 73.0698 334.592 72.5581C336.918 73.0698 338.453 73.3023 339.243 73.3023C341.244 73.3023 342.546 72.5116 343.151 70.8837C344.593 70.8837 345.57 69.5349 346.128 66.7907C348.221 63.5349 349.291 60.6047 349.291 58.0465C350.035 53.7209 350.407 50.2791 350.407 47.6279V47.2558C350.407 43.3488 350.082 39.8605 349.477 36.8372C349.989 34.4651 350.221 33.1628 350.221 32.9302C350.221 32.3256 350.175 32 350.035 32C350.035 27.2558 349.151 22.7907 347.43 18.6047C345.756 12.6512 342.407 9.67442 337.383 9.67442ZM335.522 19.1628C336.266 21.7209 337.15 25.0233 338.127 29.0233C337.987 29.8605 337.941 30.5581 337.941 31.0698V32C338.453 36.4186 338.685 39.5814 338.685 41.4884C338.685 45.2558 338.453 48.9767 337.941 52.6512C337.15 57.3488 336.22 60.4651 335.15 61.9535H334.964C333.615 54.8372 332.917 49.0698 332.917 44.6512V42.7907C332.917 42.2791 332.871 41.5814 332.731 40.7442C332.964 39.907 333.103 37.8605 333.103 34.6047V33.8605C333.475 33.3953 333.661 32.9767 333.661 32.5581V29.3953C334.266 24.3721 334.824 20.9767 335.336 19.1628H335.522Z" fill="#484D6D"/>
<path d="M359.757 0C356.222 0 354.129 0.744186 353.431 2.23256V2.7907C353.431 3.25581 353.663 3.81395 354.175 4.46512V5.02326C353.431 8.69767 353.059 12.3256 353.059 16L353.245 16.7442C353.105 16.9302 353.012 17.7209 352.873 19.1628C353.105 20.4186 353.291 22.093 353.431 24.186C353.198 27.6744 353.059 29.5349 353.059 29.7674L353.245 31.4419C352.873 32.4186 352.687 33.0698 352.687 33.3023L353.431 47.4419C353.431 51.1163 354.129 57.5814 355.478 66.7907V69.0233C355.478 69.2558 355.617 69.907 355.85 70.8837C356.268 73.6279 356.827 75.2558 357.524 75.7209C357.524 76.8372 358.827 77.3953 361.432 77.3953H363.478C364.362 78.5116 365.106 79.0698 365.711 79.0698H366.642C369.386 79.0698 371.247 78.186 372.223 76.4651C376.829 73.2558 379.108 70.3256 379.108 67.7209C380.224 66.186 380.782 63.9535 380.782 61.0233C380.782 59.4419 380.643 57.814 380.41 56.186C380.41 52.6512 379.154 49.1163 376.689 45.5814C375.014 43.7674 372.968 42.5581 370.549 42.0465C370.549 41.5349 370.921 40.7907 371.665 39.814C373.014 38.5581 374.689 35.5814 376.689 30.8837C377.759 30.8837 378.364 29.1628 378.55 25.6744C379.527 23.8605 380.038 22.2791 380.038 21.0233C379.899 18.6512 379.666 16.4186 379.294 14.3256C378.41 10.186 377.387 7.39535 376.131 5.95349C370.409 2 365.2 0 360.501 0H359.757ZM364.595 8.37209C367.804 10.3256 369.433 13.6279 369.433 18.2326V20.093C369.433 23.3953 368.456 27.1628 366.455 31.4419H366.269L366.083 29.7674C366.083 29.0233 366.13 27.5349 366.269 25.3023L364.781 13.9535V8.74419L364.595 8.37209ZM367.2 47.2558C367.339 47.2558 367.758 47.5814 368.502 48.186C370.502 51.814 371.479 54.6047 371.479 56.5581V59.7209L371.665 61.5814C371.34 61.5814 370.921 62.8837 370.363 65.4884C370.223 65.4884 369.898 64.6047 369.433 62.8837C369.153 58.0465 368.781 55.6279 368.316 55.6279C368.316 55.1163 367.944 52.4186 367.2 47.4419V47.2558Z" fill="#484D6D"/>
<path d="M390.225 7.44186C390.225 7.5814 389.574 7.62791 388.225 7.62791C385.574 8.60465 384.271 9.62791 384.271 10.6047V14.2791C384.271 14.9302 384.225 15.7674 384.085 16.7442C384.225 16.9767 384.318 17.5349 384.457 18.3256C384.318 18.9302 384.271 19.4884 384.271 20.0465V20.7442C384.271 21.0698 384.364 21.5814 384.597 22.3256L383.713 33.7209C383.853 37.3953 383.946 39.3953 384.085 39.6744L383.713 43.7209C383.946 46.7442 384.225 48.6512 384.457 49.4884C384.225 52.186 384.085 54.4651 384.085 56.3256C384.085 62.3256 384.783 68.4186 386.132 74.6047C388.411 76.093 392.272 76.6047 397.761 76.186C404.692 76.3256 408.785 74.6977 410.041 71.2093C410.041 69.814 408.599 69.1163 405.715 69.1163C403.436 69.3488 401.203 69.4884 399.017 69.4884C398.18 69.4884 397.761 69.1163 397.761 68.4186V68.093C397.761 67.3953 397.807 66.4651 397.947 65.2558C397.482 63.5349 397.249 60.5116 397.249 56.1395V54.4186L397.435 52.3256C397.063 51.6279 396.831 50.7907 396.691 49.8605C396.924 47.0233 397.063 45.2093 397.063 44.4186V41.7674C397.063 41.1628 397.017 40.186 396.877 38.7907C397.017 38.7907 397.063 38.6047 397.063 38.2791L396.877 37.9535H397.575C400.831 36.7907 402.645 36.186 403.017 36.186C405.25 36.186 406.739 35.2558 407.529 33.3953C407.529 32.6047 407.157 31.907 406.413 31.2558C406.413 30.8372 404.087 30.0465 399.389 28.9767C397.854 29.1163 396.97 29.1628 396.691 29.1628C396.412 29.1628 396.179 28.2791 395.993 26.5581L396.877 24.093C396.738 22.5581 396.691 21.3488 396.691 20.4186V20.0465C396.691 19.2558 396.877 18.3721 397.249 17.4419C397.482 17.4419 397.714 17.4884 397.947 17.6279L398.319 17.4419V17.6279L399.203 17.4419H401.389C406.227 17.4419 409.483 15.814 411.111 12.5116C411.111 11.0233 410.227 9.81395 408.413 8.83721C405.576 8.69767 402.599 8.46512 399.389 8.13953C398.366 8.13953 397.575 8.27907 397.063 8.51163C396.04 8.13953 393.761 7.76744 390.225 7.44186Z" fill="#484D6D"/>
</svg>
