<svg width="1165" height="498" viewBox="0 0 1165 498" fill="none" xmlns="http://www.w3.org/2000/svg">
<path d="M807.243 6.50505C810.732 3.82939 814.824 2.05143 819.16 1.32738C822.489 0.850122 825.865 0.808858 829.203 1.20463C834.561 1.61302 839.8 2.98524 844.669 5.25526C852.293 9.09244 858.213 15.6331 861.274 23.6003C864.258 31.5864 864.36 40.3637 861.564 48.4174C858.497 57.2613 852.227 64.6346 843.991 69.0822C835.755 73.5298 826.151 74.7287 817.074 72.4423C814.965 71.9178 812.488 70.6569 812.555 68.4809C820.175 67.634 827.305 64.3006 832.841 58.9959C835.568 56.3321 837.717 53.1354 839.155 49.605C840.593 46.0746 841.289 42.2859 841.199 38.4749C840.779 32.864 838.928 27.4544 835.821 22.7634C832.905 17.78 828.689 13.6835 823.624 10.9128C819.283 8.68101 814.396 7.8999 809.597 7.11879L807.243 6.50505Z" fill="#484D6D"/>
<path d="M699.148 24.7608L697.586 15.3762C698.889 15.9349 700.072 16.7423 701.067 17.753C702.337 18.8466 703.671 19.8638 705.062 20.7994C705.156 20.8823 705.273 20.9366 705.397 20.9556C705.58 20.9449 705.754 20.8698 705.888 20.7436C708.169 19.0101 710.776 17.754 713.554 17.05C712.55 19.7505 710.284 21.8595 709.47 24.6268C709.402 24.7889 709.382 24.9673 709.414 25.1402C709.494 25.384 709.655 25.5929 709.871 25.7316C711.921 27.1797 713.685 28.9959 715.071 31.0878H707.071C706.86 31.0622 706.648 31.1095 706.468 31.2217C706.334 31.3361 706.237 31.4875 706.189 31.6569L703.042 39.468C701.879 36.6171 701.149 33.6081 700.877 30.541C698.042 30.2511 695.191 30.1392 692.341 30.2062C694.415 28.9734 696.317 27.4726 697.999 25.7427L699.148 24.7608Z" fill="#484D6D"/>
<path d="M74.3119 213.054L72.7496 203.669C74.0534 204.228 75.236 205.035 76.2312 206.046C77.5014 207.14 78.8354 208.157 80.226 209.092C80.3204 209.175 80.4366 209.23 80.5608 209.249C80.7443 209.238 80.9181 209.163 81.0518 209.037C83.3332 207.303 85.9404 206.047 88.7178 205.343C87.7135 208.043 85.4483 210.152 84.6337 212.92C84.5656 213.082 84.5463 213.26 84.578 213.433C84.6579 213.677 84.8195 213.886 85.0354 214.025C87.0854 215.473 88.8485 217.289 90.2354 219.381H82.2346C82.0243 219.355 81.8117 219.402 81.632 219.515C81.4982 219.629 81.4011 219.78 81.3531 219.95L78.2063 227.761C77.043 224.91 76.3133 221.901 76.0415 218.834C73.2058 218.544 70.3547 218.432 67.505 218.499C69.5787 217.266 71.4809 215.766 73.1625 214.036L74.3119 213.054Z" fill="#484D6D"/>
<path d="M860.214 452.376L858.049 439.41C859.849 440.183 861.482 441.297 862.858 442.69C864.612 444.206 866.453 445.618 868.371 446.92C868.508 447.025 868.669 447.094 868.839 447.12C869.089 447.102 869.325 446.999 869.509 446.83C872.666 444.436 876.27 442.698 880.11 441.72C878.726 445.458 875.646 448.415 874.463 452.198C874.383 452.427 874.356 452.671 874.385 452.912C874.503 453.245 874.727 453.531 875.021 453.726C877.711 455.958 880.5 458.123 882.208 461.125H871.16C870.865 461.094 870.567 461.161 870.312 461.314C870.138 461.479 870.011 461.687 869.944 461.917L865.581 472.797C863.974 468.829 862.969 464.643 862.602 460.377C858.68 459.974 854.737 459.821 850.796 459.92C853.661 458.209 856.288 456.127 858.607 453.726L860.214 452.376Z" fill="#484D6D"/>
<path d="M979.668 184.275L977.503 171.309C979.303 172.082 980.936 173.196 982.313 174.589C984.067 176.105 985.907 177.517 987.825 178.819C987.962 178.923 988.123 178.992 988.294 179.019C988.543 179 988.779 178.898 988.963 178.729C992.12 176.335 995.725 174.597 999.564 173.619C998.181 177.357 995.101 180.314 993.918 184.097C993.837 184.326 993.81 184.57 993.84 184.811C993.958 185.144 994.181 185.43 994.476 185.625C997.165 187.857 999.955 190.022 1001.66 193.024H990.615C990.319 192.993 990.022 193.06 989.767 193.213C989.592 193.378 989.465 193.586 989.399 193.816L985.036 204.696C983.428 200.728 982.424 196.541 982.056 192.276C978.135 191.872 974.191 191.72 970.25 191.819C973.116 190.108 975.742 188.026 978.061 185.625L979.668 184.275Z" fill="#484D6D"/>
<path d="M244.305 172.001L242.14 159.034C243.94 159.807 245.573 160.921 246.949 162.315C248.703 163.83 250.544 165.243 252.462 166.544C252.599 166.649 252.76 166.718 252.93 166.745C253.18 166.726 253.416 166.624 253.6 166.455C256.757 164.06 260.361 162.322 264.201 161.344C262.817 165.082 259.737 168.039 258.554 171.822C258.474 172.051 258.447 172.295 258.476 172.536C258.594 172.87 258.818 173.155 259.112 173.351C261.802 175.583 264.591 177.747 266.299 180.749H255.251C254.956 180.719 254.658 180.785 254.403 180.939C254.229 181.103 254.102 181.311 254.035 181.541L249.672 192.421C248.065 188.453 247.06 184.267 246.693 180.001C242.771 179.598 238.828 179.445 234.887 179.544C237.752 177.833 240.379 175.751 242.698 173.351L244.305 172.001Z" fill="#484D6D"/>
<path d="M940.233 396.616L944.183 388.905C944.828 390.023 945.256 391.254 945.444 392.532C945.774 394.021 946.195 395.49 946.705 396.928C946.732 397.04 946.785 397.143 946.861 397.229C947.004 397.319 947.174 397.355 947.341 397.33C949.949 397.31 952.536 397.807 954.951 398.792C952.72 400.22 949.941 400.543 947.854 402.139C947.719 402.226 947.608 402.345 947.531 402.485C947.453 402.705 947.453 402.945 947.531 403.166C948.235 405.324 948.538 407.593 948.424 409.861L942.565 405.531C942.421 405.4 942.236 405.321 942.041 405.308C941.887 405.325 941.741 405.383 941.617 405.476L935.033 409.526C935.751 406.79 936.88 404.179 938.381 401.782C936.461 400.031 934.434 398.403 932.31 396.906C934.5 397.129 936.71 397.062 938.883 396.705L940.233 396.616Z" fill="#484D6D"/>
<path d="M376.146 484.48L374.717 475.943C375.905 476.446 376.982 477.178 377.886 478.097C379.044 479.096 380.259 480.027 381.524 480.887C381.613 480.954 381.716 480.999 381.825 481.021C381.992 481.012 382.15 480.945 382.272 480.831C384.353 479.259 386.728 478.121 389.257 477.483C388.342 479.938 386.278 481.869 385.541 484.391C385.484 484.54 385.465 484.701 385.486 484.859C385.559 485.082 385.709 485.272 385.91 485.395C387.776 486.712 389.381 488.366 390.641 490.271H383.354C383.164 490.253 382.972 490.296 382.807 490.394C382.693 490.505 382.608 490.643 382.562 490.796L379.683 497.96C378.625 495.346 377.963 492.589 377.719 489.78C375.125 489.511 372.515 489.41 369.908 489.479C371.799 488.351 373.533 486.978 375.063 485.395L376.146 484.48Z" fill="#484D6D"/>
<path d="M428.86 240.304L429.362 235.84C430.288 236.136 431.145 236.614 431.884 237.246C432.042 237.399 432.233 237.514 432.442 237.581C432.6 237.596 432.76 237.577 432.911 237.525L437.53 236.409C436.705 237.715 435.823 238.976 434.886 240.203L439.952 242.792C438.133 242.792 436.303 242.904 434.484 243.004C434.35 242.997 434.218 243.041 434.116 243.127C434.064 243.204 434.03 243.292 434.015 243.384L432.966 248.282C432.227 246.777 431.647 245.199 431.237 243.573C429.217 244.022 427.171 244.342 425.111 244.533C426.152 243.407 427.337 242.424 428.637 241.609L428.86 240.304Z" fill="#484D6D"/>
<path d="M1153.66 54.1416L1154.16 49.678C1155.08 49.9741 1155.94 50.4521 1156.68 51.0841C1156.84 51.2368 1157.03 51.3513 1157.24 51.4188C1157.4 51.4338 1157.56 51.4148 1157.71 51.363L1162.33 50.2471C1161.5 51.5527 1160.62 52.8137 1159.68 54.0411L1164.75 56.63C1162.93 56.63 1161.1 56.7416 1159.28 56.842C1159.15 56.8343 1159.01 56.8782 1158.91 56.9647C1158.86 57.0421 1158.83 57.1296 1158.81 57.2214L1157.76 62.1201C1157.02 60.6151 1156.44 59.0368 1156.03 57.4111C1154.01 57.8593 1151.97 58.1798 1149.91 58.3707C1150.95 57.2449 1152.13 56.2618 1153.43 55.4471L1153.66 54.1416Z" fill="#484D6D"/>
<path d="M4.30167 88.7337L4.8038 84.2702C5.72968 84.5662 6.58709 85.0443 7.32569 85.6762C7.48369 85.8289 7.67454 85.9434 7.88363 86.011C8.04205 86.026 8.20182 86.007 8.35228 85.9552L12.972 84.8393C12.1463 86.1449 11.2647 87.4058 10.3274 88.6333L15.3935 91.2221C13.5746 91.2221 11.7446 91.3337 9.92567 91.4342C9.79175 91.4265 9.65998 91.4704 9.55745 91.5569C9.50594 91.6342 9.47169 91.7218 9.45702 91.8135L8.4081 96.7123C7.66889 95.2072 7.08917 93.629 6.67847 92.0033C4.65859 92.4515 2.61249 92.772 0.552307 92.9629C1.59352 91.837 2.77922 90.8539 4.07849 90.0393L4.30167 88.7337Z" fill="#484D6D"/>
<path d="M826.112 383.136L826.615 378.673C827.54 378.969 828.398 379.447 829.136 380.079C829.294 380.231 829.485 380.346 829.694 380.413C829.853 380.428 830.013 380.409 830.163 380.358L834.783 379.242C833.957 380.547 833.076 381.808 832.138 383.036L837.204 385.625C835.385 385.625 833.555 385.736 831.736 385.837C831.603 385.829 831.471 385.873 831.368 385.959C831.317 386.037 831.282 386.124 831.268 386.216L830.219 391.115C829.48 389.61 828.9 388.031 828.489 386.406C826.469 386.854 824.423 387.174 822.363 387.365C823.404 386.239 824.59 385.256 825.889 384.442L826.112 383.136Z" fill="#484D6D"/>
<path d="M448.823 298.229L449.939 291.299C451.067 293.482 452.413 295.546 453.956 297.459C456.058 296.658 458.244 296.096 460.473 295.785C458.506 297.56 456.716 299.522 455.128 301.643C455.913 302.693 456.841 303.628 457.884 304.422L461.577 307.546C458.736 306.961 455.961 306.086 453.298 304.935C453.199 304.88 453.086 304.857 452.974 304.868C452.89 304.905 452.817 304.962 452.762 305.036L448.12 310.035C447.964 307.367 448.281 304.692 449.057 302.134C446.201 301.822 443.344 301.409 440.51 300.918C441.15 300.592 441.834 300.359 442.541 300.226L447.651 299.01L448.823 298.229Z" fill="#484D6D"/>
<path d="M1103.54 120.213L1104.66 113.283C1105.79 115.466 1107.13 117.53 1108.67 119.443C1110.78 118.642 1112.96 118.08 1115.19 117.769C1113.22 119.544 1111.43 121.506 1109.85 123.627C1110.63 124.677 1111.56 125.612 1112.6 126.406L1116.3 129.53C1113.45 128.945 1110.68 128.07 1108.02 126.919C1107.92 126.864 1107.8 126.841 1107.69 126.852C1107.61 126.888 1107.54 126.946 1107.48 127.02L1102.84 132.019C1102.68 129.351 1103 126.676 1103.78 124.118C1100.92 123.806 1098.06 123.393 1095.23 122.902C1095.87 122.576 1096.55 122.343 1097.26 122.21L1102.37 120.994L1103.54 120.213Z" fill="#484D6D"/>
</svg>
