<svg width="1920" height="507" viewBox="0 0 1920 507" fill="none" xmlns="http://www.w3.org/2000/svg">
<path d="M1119.24 11.505C1122.73 8.82939 1126.82 7.05143 1131.16 6.32738C1134.49 5.85012 1137.86 5.80886 1141.2 6.20463C1146.56 6.61302 1151.8 7.98524 1156.67 10.2553C1164.29 14.0924 1170.21 20.6331 1173.27 28.6003C1176.26 36.5864 1176.36 45.3637 1173.56 53.4174C1170.5 62.2613 1164.23 69.6346 1155.99 74.0822C1147.75 78.5298 1138.15 79.7287 1129.07 77.4423C1126.96 76.9178 1124.49 75.6569 1124.55 73.4809C1132.18 72.634 1139.3 69.3006 1144.84 63.9959C1147.57 61.3321 1149.72 58.1354 1151.16 54.605C1152.59 51.0746 1153.29 47.2859 1153.2 43.4749C1152.78 37.864 1150.93 32.4544 1147.82 27.7634C1144.91 22.78 1140.69 18.6835 1135.62 15.9128C1131.28 13.681 1126.4 12.8999 1121.6 12.1188L1119.24 11.505Z" fill="#484D6D"/>
<path d="M1011.15 29.7608L1009.59 20.3762C1010.89 20.9349 1012.07 21.7423 1013.07 22.753C1014.34 23.8466 1015.67 24.8638 1017.06 25.7994C1017.16 25.8823 1017.27 25.9366 1017.4 25.9556C1017.58 25.9449 1017.75 25.8698 1017.89 25.7436C1020.17 24.0101 1022.78 22.754 1025.55 22.05C1024.55 24.7505 1022.28 26.8595 1021.47 29.6268C1021.4 29.7889 1021.38 29.9673 1021.41 30.1402C1021.49 30.384 1021.66 30.5929 1021.87 30.7316C1023.92 32.1797 1025.68 33.9959 1027.07 36.0878H1019.07C1018.86 36.0622 1018.65 36.1095 1018.47 36.2217C1018.33 36.3361 1018.24 36.4875 1018.19 36.6569L1015.04 44.468C1013.88 41.6171 1013.15 38.6081 1012.88 35.541C1010.04 35.2511 1007.19 35.1392 1004.34 35.2062C1006.41 33.9734 1008.32 32.4726 1010 30.7427L1011.15 29.7608Z" fill="#484D6D"/>
<path d="M386.312 218.054L384.75 208.669C386.053 209.228 387.236 210.035 388.231 211.046C389.501 212.14 390.835 213.157 392.226 214.092C392.32 214.175 392.437 214.23 392.561 214.249C392.744 214.238 392.918 214.163 393.052 214.037C395.333 212.303 397.94 211.047 400.718 210.343C399.714 213.043 397.448 215.152 396.634 217.92C396.566 218.082 396.546 218.26 396.578 218.433C396.658 218.677 396.819 218.886 397.035 219.025C399.085 220.473 400.849 222.289 402.235 224.381H394.235C394.024 224.355 393.812 224.402 393.632 224.515C393.498 224.629 393.401 224.78 393.353 224.95L390.206 232.761C389.043 229.91 388.313 226.901 388.041 223.834C385.206 223.544 382.355 223.432 379.505 223.499C381.579 222.266 383.481 220.766 385.162 219.036L386.312 218.054Z" fill="#484D6D"/>
<path d="M1172.21 457.376L1170.05 444.41C1171.85 445.183 1173.48 446.297 1174.86 447.69C1176.61 449.206 1178.45 450.618 1180.37 451.92C1180.51 452.025 1180.67 452.094 1180.84 452.12C1181.09 452.102 1181.32 451.999 1181.51 451.83C1184.67 449.436 1188.27 447.698 1192.11 446.72C1190.73 450.458 1187.65 453.415 1186.46 457.198C1186.38 457.427 1186.36 457.671 1186.39 457.912C1186.5 458.245 1186.73 458.531 1187.02 458.726C1189.71 460.958 1192.5 463.123 1194.21 466.125H1183.16C1182.86 466.094 1182.57 466.161 1182.31 466.314C1182.14 466.479 1182.01 466.687 1181.94 466.917L1177.58 477.797C1175.97 473.829 1174.97 469.643 1174.6 465.377C1170.68 464.974 1166.74 464.821 1162.8 464.92C1165.66 463.209 1168.29 461.127 1170.61 458.726L1172.21 457.376Z" fill="#484D6D"/>
<path d="M1291.67 189.275L1289.5 176.309C1291.3 177.082 1292.94 178.196 1294.31 179.589C1296.07 181.105 1297.91 182.517 1299.83 183.819C1299.96 183.923 1300.12 183.992 1300.29 184.019C1300.54 184 1300.78 183.898 1300.96 183.729C1304.12 181.335 1307.72 179.597 1311.56 178.619C1310.18 182.357 1307.1 185.314 1305.92 189.097C1305.84 189.326 1305.81 189.57 1305.84 189.811C1305.96 190.144 1306.18 190.43 1306.48 190.625C1309.17 192.857 1311.95 195.022 1313.66 198.024H1302.61C1302.32 197.993 1302.02 198.06 1301.77 198.213C1301.59 198.378 1301.47 198.586 1301.4 198.816L1297.04 209.696C1295.43 205.728 1294.42 201.541 1294.06 197.276C1290.13 196.872 1286.19 196.72 1282.25 196.819C1285.12 195.108 1287.74 193.026 1290.06 190.625L1291.67 189.275Z" fill="#484D6D"/>
<path d="M556.305 177.001L554.14 164.034C555.94 164.807 557.573 165.921 558.949 167.315C560.703 168.83 562.544 170.243 564.462 171.544C564.599 171.649 564.76 171.718 564.93 171.745C565.18 171.726 565.416 171.624 565.6 171.455C568.757 169.06 572.361 167.322 576.201 166.344C574.817 170.082 571.737 173.039 570.554 176.822C570.474 177.051 570.447 177.295 570.476 177.536C570.594 177.87 570.818 178.155 571.112 178.351C573.802 180.583 576.591 182.747 578.299 185.749H567.251C566.956 185.719 566.658 185.785 566.403 185.939C566.229 186.103 566.102 186.311 566.035 186.541L561.672 197.421C560.065 193.453 559.06 189.267 558.693 185.001C554.771 184.598 550.828 184.445 546.887 184.544C549.752 182.833 552.379 180.751 554.698 178.351L556.305 177.001Z" fill="#484D6D"/>
<path d="M1252.23 401.616L1256.18 393.905C1256.83 395.023 1257.26 396.254 1257.44 397.532C1257.77 399.021 1258.2 400.49 1258.71 401.928C1258.73 402.04 1258.79 402.143 1258.86 402.229C1259 402.319 1259.17 402.355 1259.34 402.33C1261.95 402.31 1264.54 402.807 1266.95 403.792C1264.72 405.22 1261.94 405.543 1259.85 407.139C1259.72 407.226 1259.61 407.345 1259.53 407.485C1259.45 407.705 1259.45 407.945 1259.53 408.166C1260.24 410.324 1260.54 412.593 1260.42 414.861L1254.57 410.531C1254.42 410.4 1254.24 410.321 1254.04 410.308C1253.89 410.325 1253.74 410.383 1253.62 410.476L1247.03 414.526C1247.75 411.79 1248.88 409.179 1250.38 406.782C1248.46 405.031 1246.43 403.403 1244.31 401.906C1246.5 402.129 1248.71 402.062 1250.88 401.705L1252.23 401.616Z" fill="#484D6D"/>
<path d="M688.146 489.48L686.717 480.943C687.905 481.446 688.982 482.178 689.886 483.097C691.044 484.096 692.259 485.027 693.524 485.887C693.613 485.954 693.716 485.999 693.825 486.021C693.992 486.012 694.15 485.945 694.272 485.831C696.353 484.259 698.728 483.121 701.257 482.483C700.342 484.938 698.278 486.869 697.541 489.391C697.484 489.54 697.465 489.701 697.486 489.859C697.559 490.082 697.709 490.272 697.91 490.395C699.776 491.712 701.381 493.366 702.641 495.271H695.354C695.164 495.253 694.972 495.296 694.807 495.394C694.693 495.505 694.608 495.643 694.562 495.796L691.683 502.96C690.625 500.346 689.963 497.589 689.719 494.78C687.125 494.511 684.515 494.41 681.908 494.479C683.799 493.351 685.533 491.978 687.063 490.395L688.146 489.48Z" fill="#484D6D"/>
<path d="M740.86 245.304L741.362 240.84C742.288 241.136 743.145 241.614 743.884 242.246C744.042 242.399 744.233 242.514 744.442 242.581C744.6 242.596 744.76 242.577 744.911 242.525L749.53 241.409C748.705 242.715 747.823 243.976 746.886 245.203L751.952 247.792C750.133 247.792 748.303 247.904 746.484 248.004C746.35 247.997 746.218 248.041 746.116 248.127C746.064 248.204 746.03 248.292 746.015 248.384L744.966 253.282C744.227 251.777 743.647 250.199 743.237 248.573C741.217 249.022 739.171 249.342 737.111 249.533C738.152 248.407 739.337 247.424 740.637 246.609L740.86 245.304Z" fill="#484D6D"/>
<path d="M1465.66 59.1416L1466.16 54.678C1467.08 54.9741 1467.94 55.4521 1468.68 56.0841C1468.84 56.2368 1469.03 56.3513 1469.24 56.4188C1469.4 56.4338 1469.56 56.4148 1469.71 56.363L1474.33 55.2471C1473.5 56.5527 1472.62 57.8137 1471.68 59.0411L1476.75 61.63C1474.93 61.63 1473.1 61.7416 1471.28 61.842C1471.15 61.8343 1471.01 61.8782 1470.91 61.9647C1470.86 62.0421 1470.83 62.1296 1470.81 62.2214L1469.76 67.1201C1469.02 65.6151 1468.44 64.0368 1468.03 62.4111C1466.01 62.8593 1463.97 63.1798 1461.91 63.3707C1462.95 62.2449 1464.13 61.2618 1465.43 60.4471L1465.66 59.1416Z" fill="#484D6D"/>
<path d="M316.302 93.7337L316.804 89.2702C317.73 89.5662 318.587 90.0443 319.326 90.6762C319.484 90.8289 319.675 90.9434 319.884 91.011C320.042 91.026 320.202 91.007 320.352 90.9552L324.972 89.8393C324.146 91.1449 323.265 92.4058 322.327 93.6333L327.394 96.2221C325.575 96.2221 323.745 96.3337 321.926 96.4342C321.792 96.4265 321.66 96.4704 321.557 96.5569C321.506 96.6342 321.472 96.7218 321.457 96.8135L320.408 101.712C319.669 100.207 319.089 98.629 318.678 97.0033C316.659 97.4515 314.612 97.772 312.552 97.9629C313.594 96.837 314.779 95.8539 316.078 95.0393L316.302 93.7337Z" fill="#484D6D"/>
<path d="M1138.11 388.136L1138.61 383.673C1139.54 383.969 1140.4 384.447 1141.14 385.079C1141.29 385.231 1141.49 385.346 1141.69 385.413C1141.85 385.428 1142.01 385.409 1142.16 385.358L1146.78 384.242C1145.96 385.547 1145.08 386.808 1144.14 388.036L1149.2 390.625C1147.39 390.625 1145.56 390.736 1143.74 390.837C1143.6 390.829 1143.47 390.873 1143.37 390.959C1143.32 391.037 1143.28 391.124 1143.27 391.216L1142.22 396.115C1141.48 394.61 1140.9 393.031 1140.49 391.406C1138.47 391.854 1136.42 392.174 1134.36 392.365C1135.4 391.239 1136.59 390.256 1137.89 389.442L1138.11 388.136Z" fill="#484D6D"/>
<path d="M760.823 303.229L761.939 296.299C763.067 298.482 764.413 300.546 765.956 302.459C768.058 301.658 770.244 301.096 772.473 300.785C770.506 302.56 768.716 304.522 767.128 306.643C767.913 307.693 768.841 308.628 769.884 309.422L773.577 312.546C770.736 311.961 767.961 311.086 765.298 309.935C765.199 309.88 765.086 309.857 764.974 309.868C764.89 309.905 764.817 309.962 764.762 310.036L760.12 315.035C759.964 312.367 760.281 309.692 761.057 307.134C758.201 306.822 755.344 306.409 752.51 305.918C753.15 305.592 753.834 305.359 754.541 305.226L759.651 304.01L760.823 303.229Z" fill="#484D6D"/>
<path d="M1415.54 125.213L1416.66 118.283C1417.79 120.466 1419.13 122.53 1420.67 124.443C1422.78 123.642 1424.96 123.08 1427.19 122.769C1425.22 124.544 1423.43 126.506 1421.85 128.627C1422.63 129.677 1423.56 130.612 1424.6 131.406L1428.3 134.53C1425.45 133.945 1422.68 133.07 1420.02 131.919C1419.92 131.864 1419.8 131.841 1419.69 131.852C1419.61 131.888 1419.54 131.946 1419.48 132.02L1414.84 137.019C1414.68 134.351 1415 131.676 1415.78 129.118C1412.92 128.806 1410.06 128.393 1407.23 127.902C1407.87 127.576 1408.55 127.343 1409.26 127.21L1414.37 125.994L1415.54 125.213Z" fill="#484D6D"/>
<path d="M855.159 486.278C854.66 489.049 853.613 491.693 852.08 494.055C850.547 496.417 848.559 498.451 846.232 500.036C841.512 503.165 835.972 504.827 830.309 504.812C826.961 504.812 822.944 503.953 821.728 500.817C817.292 503.101 812.277 504.014 807.322 503.44C804.286 503.071 800.85 501.699 800.102 498.731C795.995 502.915 789.959 504.489 784.167 505.426C778.376 506.363 772.038 506.542 766.893 503.696C761.091 500.449 757.966 493.866 756.326 487.416C753.581 476.748 753.983 464.819 759.774 455.446C765.565 446.072 777.494 440.147 788.028 443.394C787.336 438.44 790.26 433.497 794.322 430.573C798.383 427.649 803.416 426.411 808.359 425.652C814.229 424.737 820.322 424.402 826.013 426.076C831.704 427.75 836.959 431.733 838.957 437.324C841.189 432.291 847.159 430.283 852.559 429.245C857.07 428.362 861.632 427.762 866.218 427.448C868.712 427.132 871.244 427.325 873.661 428.018C877.533 429.345 880.2 432.827 882.509 436.208C884.563 439.232 886.56 442.446 887.163 446.061C887.765 449.677 886.649 453.805 883.57 455.792C888.245 453.683 894.014 455.033 897.886 458.381C901.661 461.921 904.011 466.719 904.492 471.872C905.318 478.511 903.51 485.787 898.489 490.205C893.88 494.267 887.419 495.361 881.304 495.952C874.944 496.566 868.159 496.744 862.535 493.72C859.465 492.019 857.094 489.289 855.84 486.01L855.159 486.278Z" fill="white"/>
<path opacity="0.5" d="M817.599 452.143C819.741 451.931 820.612 454.375 819.686 455.97C819.026 457.065 817.972 457.864 816.74 458.202C813.805 459.151 810.591 458.202 810.044 454.955C809.252 450.592 813.872 446.34 817.71 445.057C823.167 443.227 827.162 450.391 827.006 455.011C826.861 457.332 825.982 459.547 824.495 461.337C823.009 463.126 820.993 464.396 818.737 464.964C809.721 467.397 799.935 461.527 800.481 451.63C800.916 443.562 807.612 436.454 815.49 435.07C823.658 433.642 832.34 438.953 835.196 446.653C836.801 451.253 836.895 456.245 835.464 460.903C833.969 465.478 829.662 468.156 825.6 470.231C817.398 474.416 807.121 476.19 798.819 471.213C790.517 466.236 787.883 455.814 790.182 446.854C791.409 442.111 793.831 437.079 797.669 433.898C801.72 430.551 807.534 429.435 812.633 428.888C822.274 427.917 833.947 431.265 836.178 442.022C836.468 443.428 838.622 442.836 838.332 441.43C835.788 429.156 822.263 425.395 811.339 426.812C805.514 427.56 799.176 429.044 794.913 433.385C790.782 437.869 788.15 443.528 787.381 449.576C785.774 461.126 792.101 472.552 803.662 475.632C809.729 477.07 816.092 476.603 821.884 474.293C827.095 472.34 833.043 469.439 836.145 464.607C839.247 459.775 839.314 451.864 837.462 446.43C835.771 441.644 832.373 437.651 827.921 435.215C823.465 432.799 818.261 432.158 813.353 433.418C808.444 434.678 804.193 437.748 801.452 442.011C799.881 444.293 798.848 446.901 798.431 449.64C798.013 452.379 798.222 455.176 799.042 457.823C799.953 460.116 801.407 462.155 803.279 463.764C805.15 465.373 807.383 466.505 809.788 467.062C814.82 468.39 820.88 467.721 824.863 464.15C826.741 462.475 828.09 460.288 828.744 457.858C829.398 455.428 829.329 452.86 828.546 450.469C826.872 445.548 821.672 440.594 816.271 443.182C811.729 445.358 806.786 449.8 807.824 455.368C808.862 460.936 815.836 462.197 820.098 458.95C823.569 456.283 822.989 449.375 817.666 449.911C816.249 450.067 816.238 452.299 817.666 452.143H817.599Z" fill="#484D6D"/>
<path opacity="0.5" d="M850.685 457.287C851.443 461.583 856.61 460.847 859.11 458.559C861.855 456.037 862.234 451.083 858.529 449.208C854.825 447.333 850.395 449.855 847.795 452.344C844.893 455.111 843.331 459.653 845.496 463.346C847.828 467.363 852.849 467.508 856.956 467.174C862.134 466.75 867.59 465.79 871.139 461.594C872.576 459.852 873.604 457.81 874.146 455.618C874.689 453.426 874.733 451.14 874.274 448.929C873.426 444.622 870.614 439.377 866.05 438.161C860.973 436.811 854.456 440.27 850.305 442.903C845.541 445.948 841.506 450.006 838.488 454.787C837.718 455.993 839.604 457.12 840.419 455.903C844.584 449.333 850.778 444.299 858.061 441.564C860.103 440.805 862.524 439.957 864.689 440.259C867.255 440.627 869.007 442.49 870.268 444.644C871.477 446.598 872.179 448.822 872.312 451.115C872.444 453.408 872.003 455.698 871.027 457.778C868.929 461.963 864.912 463.826 860.471 464.54C856.822 465.132 851.131 466.114 848.263 463.19C844.614 459.463 848.085 454.263 851.711 452.199C853.34 451.239 855.94 450.123 857.737 451.284C863.082 454.754 853.553 460.702 852.85 456.696C852.604 455.278 850.45 455.881 850.696 457.287H850.685Z" fill="#484D6D"/>
<path opacity="0.5" d="M835.453 466.962C839.916 473.345 849.279 475.074 856.565 474.873C865.158 474.628 872.879 469.06 878.805 463.168C885.087 456.919 885.679 448.661 882.364 440.672C881.089 437.22 878.879 434.191 875.982 431.923C872.422 429.368 868.059 429.301 863.841 429.625C858.509 430.047 853.256 431.172 848.219 432.972C844.704 434.233 839.571 435.684 838.622 439.835C838.298 441.23 840.452 441.832 840.776 440.426C841.378 437.759 844.659 436.744 846.924 435.84C849.11 434.963 851.345 434.218 853.619 433.608C858.332 432.251 863.223 431.619 868.126 431.734C877.923 432.236 883.458 444.265 881.918 453.092C881.148 457.555 878.169 460.903 874.843 463.648C871.518 466.393 867.947 469.305 864.031 471.046C859.098 473.278 853.43 472.91 848.274 471.838C844.09 470.957 839.794 469.506 837.261 465.846C836.446 464.73 834.504 465.846 835.33 466.962H835.453Z" fill="#484D6D"/>
<path opacity="0.5" d="M873.225 472.642C871.34 473.936 870.001 476.123 871.976 478.054C873.951 479.984 877.421 479.024 879.474 477.73C881.528 476.436 882.666 473.903 881.338 471.648C880.01 469.394 877.008 468.223 874.408 468.133C872.969 468.133 872.98 470.365 874.408 470.365C876.417 470.432 880.847 471.95 879.374 474.728C879.038 475.219 878.607 475.638 878.107 475.96C877.607 476.282 877.047 476.5 876.461 476.603C875.637 476.958 874.711 476.994 873.861 476.703C872.746 476.101 873.605 475.085 874.352 474.572C875.535 473.769 874.419 471.827 873.237 472.642H873.225Z" fill="#484D6D"/>
<path opacity="0.5" d="M864.287 475.32C865.035 479.783 864.421 484.247 869.666 485.798C874.408 487.204 880.233 485.798 884.172 483.019C887.687 480.52 890.198 476.558 889.751 472.117C889.294 467.151 885.411 464.54 881.249 462.565C879.965 461.951 878.827 463.871 880.133 464.484C883.614 466.136 887.319 468.234 887.576 472.53C887.81 476.335 885.411 479.593 882.32 481.557C878.95 483.696 874.9 484.493 870.971 483.789C866.195 482.774 867.021 478.444 866.374 474.683C866.14 473.277 863.986 473.869 864.231 475.275L864.287 475.32Z" fill="#484D6D"/>
<path opacity="0.5" d="M857.112 477.842C852.916 485.564 860.303 492.348 867.367 493.955C875.825 495.885 885.723 494.636 892.787 489.391C899.047 484.749 903.12 476.514 901.256 468.692C899.504 461.371 892.329 455.658 884.775 456.417C883.358 456.551 883.346 458.783 884.775 458.649C891.47 458.001 897.563 462.878 899.103 469.316C900.709 476.012 897.139 483.198 891.872 487.304C886.292 491.667 878.883 492.995 871.953 492.415C868.516 492.125 864.867 491.377 862.022 489.313C858.819 486.992 857.056 482.618 859.043 478.991C859.734 477.73 857.804 476.592 857.112 477.875V477.842Z" fill="#484D6D"/>
<path opacity="0.5" d="M851.912 478.009C851.801 482.629 851.656 487.605 849.48 491.801C846.813 496.956 841.356 498.664 835.899 498.909C830.443 499.155 825.566 498.474 822.274 493.676C820.043 490.406 815.088 480.196 820.712 477.931C822.029 477.395 821.449 475.242 820.121 475.777C813.805 478.332 816.171 486.121 818.235 490.886C820.757 496.733 824.93 500.695 831.492 501.096C837.763 501.498 845.083 500.806 849.491 495.751C853.675 490.953 853.954 484.057 854.144 478.009C854.144 477.713 854.026 477.429 853.817 477.22C853.608 477.011 853.324 476.893 853.028 476.893C852.732 476.893 852.448 477.011 852.239 477.22C852.03 477.429 851.912 477.713 851.912 478.009Z" fill="#484D6D"/>
<path opacity="0.5" d="M837.774 481.256C837.45 482.182 837.071 483.667 836.189 484.28C832.295 486.981 832.474 481.156 832.842 479.817C832.989 479.177 833.285 478.58 833.704 478.075C834.124 477.57 834.657 477.171 835.26 476.909C835.862 476.647 836.518 476.531 837.173 476.569C837.829 476.607 838.467 476.798 839.035 477.128C843.32 479.359 845.016 485.485 840.553 488.342C837.138 490.518 832.663 490.708 829.874 487.472C828.57 485.888 827.79 483.938 827.642 481.892C827.53 480.922 827.363 474.159 829.137 474.249C830.577 474.327 830.577 472.095 829.137 472.017C826.381 471.872 825.879 475.186 825.577 477.284C824.937 480.541 825.364 483.918 826.794 486.914C829.684 492.326 835.721 493.453 840.999 490.652C846.813 487.516 846.578 480.687 841.914 476.48C837.685 472.664 831.436 474.327 830.487 480.129C830.052 482.83 830.867 486.345 833.969 487.014C837.316 487.717 839.035 484.425 839.939 481.814C840.407 480.453 838.254 479.861 837.785 481.223L837.774 481.256Z" fill="#484D6D"/>
<path opacity="0.5" d="M785.238 474.126C784.123 472.073 786.466 470.7 787.649 473.2C788.832 475.699 787.716 477.049 785.908 478.132C784.731 478.908 783.297 479.193 781.912 478.926C780.528 478.659 779.303 477.862 778.498 476.703C775.519 472.117 782.014 464.172 786.99 464.953C788.396 465.176 788.999 463.023 787.582 462.8C782.002 461.929 777.617 466.672 775.943 471.593C775.543 472.719 775.427 473.927 775.608 475.108C775.788 476.29 776.259 477.408 776.977 478.364C777.696 479.319 778.64 480.081 779.725 480.582C780.811 481.083 782.003 481.307 783.196 481.234C788.452 480.944 792.369 475.956 789.044 471.269C788.006 469.83 786.566 468.078 784.747 469.305C783.849 469.971 783.213 470.931 782.95 472.018C782.687 473.105 782.814 474.25 783.308 475.253C784 476.514 785.93 475.387 785.238 474.137V474.126Z" fill="#484D6D"/>
<path opacity="0.5" d="M795.94 478.154C795.603 480.836 794.499 483.363 792.761 485.434C791.023 487.504 788.725 489.029 786.142 489.826C780.563 491.533 774.437 488.855 771.178 484.124C769.626 481.709 768.772 478.912 768.713 476.042C768.654 473.172 769.392 470.342 770.844 467.866C772.39 465.332 774.549 463.228 777.12 461.747C779.692 460.265 782.595 459.453 785.562 459.385C786.99 459.318 787.002 457.086 785.562 457.153C778.577 457.477 771.736 461.103 768.5 467.497C766.944 470.466 766.266 473.816 766.544 477.155C766.823 480.495 768.047 483.686 770.074 486.356C774.068 491.355 780.909 493.932 787.113 491.868C790.072 490.874 792.685 489.055 794.644 486.625C796.604 484.196 797.827 481.256 798.171 478.154C798.328 476.726 796.096 476.737 795.94 478.154Z" fill="#484D6D"/>
<path opacity="0.5" d="M785.729 444.934C781.366 445.224 777.65 447.166 773.99 449.398C770.361 451.456 766.96 453.895 763.847 456.673C757.085 463.145 756.527 472.017 758.022 480.81C759.417 488.933 763.445 497.113 771.067 501.029C778.878 505.058 788.586 502.625 795.895 498.496C802.869 494.557 812.12 486.445 809.531 477.44C809.453 477.154 809.264 476.911 809.007 476.765C808.749 476.618 808.444 476.58 808.158 476.659C807.873 476.737 807.63 476.926 807.484 477.183C807.337 477.441 807.299 477.746 807.377 478.031C810.111 487.516 797.58 495.885 790.137 498.753C785.283 500.605 779.637 501.732 774.571 500.092C770.262 498.567 766.62 495.588 764.271 491.667C761.699 487.234 760.173 482.273 759.808 477.161C759.305 472.117 759.417 466.761 762.151 462.308C764.55 458.403 768.377 455.613 772.194 453.236C776.356 450.547 780.73 447.534 785.807 447.188C787.236 447.099 787.247 444.867 785.807 444.957L785.729 444.934Z" fill="#484D6D"/>
<path opacity="0.5" d="M807.69 489.045C809.163 492.56 814.608 491.277 817.108 489.759C818.324 489 817.208 487.07 815.992 487.829C815.028 488.441 813.936 488.822 812.801 488.945C812.209 489.012 810.167 489.168 809.855 488.42C809.308 487.115 807.154 487.684 807.701 489.012L807.69 489.045Z" fill="#484D6D"/>
<path opacity="0.5" d="M800.626 496.421C801.084 500.092 805.559 500.974 808.65 501.32C813.284 501.815 817.952 500.755 821.917 498.307C823.145 497.559 822.018 495.629 820.801 496.376C818.079 498.082 814.961 499.054 811.752 499.199C809.911 499.266 803.215 499.132 802.825 496.41C802.646 495.004 800.414 494.981 800.593 496.41L800.626 496.421Z" fill="#484D6D"/>
<path d="M1183.24 133.415C1182.47 135.912 1181.2 138.23 1179.52 140.231C1177.84 142.232 1175.77 143.875 1173.44 145.064C1168.74 147.421 1163.45 148.33 1158.23 147.676C1155.13 147.341 1151.54 146.058 1150.79 143.034C1146.44 144.632 1141.72 144.908 1137.22 143.826C1134.46 143.145 1131.46 141.494 1131.1 138.682C1126.85 142.029 1121.06 142.844 1115.68 143C1110.3 143.156 1104.39 142.688 1099.97 139.463C1094.99 135.814 1092.87 129.42 1092.07 123.283C1090.74 113.15 1092.47 102.215 1098.86 94.2697C1105.24 86.3247 1116.89 82.1736 1126.22 86.347C1126.14 81.705 1129.4 77.4869 1133.46 75.2552C1137.52 73.0234 1142.31 72.4543 1146.95 72.2981C1152.44 72.1196 1158.11 72.499 1163.14 74.6861C1168.17 76.8732 1172.59 81.1247 1173.8 86.4921C1176.4 82.1067 1182.14 80.9127 1187.19 80.5779C1191.44 80.2785 1195.71 80.2413 1199.97 80.4663C1202.3 80.4585 1204.61 80.9215 1206.76 81.8277C1210.18 83.4904 1212.24 86.9942 1213.98 90.3642C1215.53 93.3882 1217.02 96.5684 1217.16 99.9607C1217.31 103.353 1215.81 107.035 1212.7 108.52C1217.24 107.102 1222.41 108.999 1225.59 112.514C1228.67 116.193 1230.29 120.873 1230.16 125.671C1230.16 131.886 1227.68 138.38 1222.56 141.884C1217.86 145.109 1211.79 145.388 1206.09 145.232C1200.17 145.076 1193.91 144.484 1189.07 141.036C1186.45 139.134 1184.58 136.368 1183.8 133.225L1183.24 133.415Z" fill="white"/>
<path opacity="0.5" d="M1152.61 97.8627C1154.63 97.8627 1154.84 100.474 1153.85 101.69C1153.14 102.413 1152.22 102.901 1151.22 103.085C1148.59 103.721 1145.54 102.605 1145.28 99.6369C1144.9 95.4858 1149.66 92.0936 1153.34 91.2567C1158.51 90.0627 1161.33 97.327 1160.69 101.355C1160.3 103.542 1159.2 105.539 1157.55 107.033C1155.91 108.528 1153.82 109.435 1151.6 109.613C1143.02 110.561 1135.12 104.033 1136.88 95.0395C1137.63 91.4042 1139.57 88.1246 1142.4 85.7286C1145.24 83.3326 1148.79 81.9596 1152.5 81.8308C1156.21 81.702 1159.85 82.8247 1162.85 85.0183C1165.84 87.2119 1168.01 90.3486 1169 93.9236C1170.22 98.6141 1169.76 103.584 1167.71 107.973C1165.82 111.811 1161.6 113.753 1157.77 115.148C1149.96 117.971 1140.84 118.495 1133.77 113.574C1126.44 108.43 1124.73 98.5657 1127.61 90.4867C1129.24 85.9004 1132.29 81.0129 1136.54 78.4799C1140.53 76.1142 1145.61 75.746 1150.15 75.7906C1159.08 75.8687 1169.73 80.1314 1170.6 90.297C1170.72 91.7142 1172.95 91.7365 1172.83 90.297C1171.82 78.6361 1160.07 73.5588 1149.67 73.5588C1144.09 73.5588 1138.07 74.273 1133.59 77.8215C1129.33 81.4426 1126.28 86.2894 1124.87 91.703C1121.92 102.494 1126.76 114.021 1137.5 118.015C1143.18 119.951 1149.32 120.064 1155.07 118.339C1160.1 116.978 1165.96 114.791 1168.96 110.249C1171.95 105.707 1172.59 98.8112 1171.24 93.7004C1169.95 89.1257 1167.03 85.1788 1163.04 82.5975C1154.63 77.0181 1143.49 79.685 1137.69 87.7193C1134.75 91.7923 1133.36 97.3605 1135.03 102.226C1135.88 104.39 1137.23 106.326 1138.96 107.876C1140.69 109.426 1142.76 110.549 1145.01 111.153C1149.55 112.514 1154.95 112.101 1158.68 108.921C1160.51 107.394 1161.84 105.358 1162.51 103.072C1163.18 100.785 1163.16 98.351 1162.45 96.0772C1160.79 90.8549 1156.2 87.3399 1150.9 89.7056C1146.63 91.6026 1141.92 95.3519 1143.09 100.664C1144.21 105.663 1150.9 106.712 1154.62 103.799C1157.79 101.333 1157.06 95.6086 1152.53 95.5193C1152.23 95.5193 1151.95 95.6369 1151.74 95.8461C1151.53 96.0554 1151.41 96.3392 1151.41 96.6352C1151.41 96.9311 1151.53 97.215 1151.74 97.4242C1151.95 97.6335 1152.23 97.7511 1152.53 97.7511L1152.61 97.8627Z" fill="#484D6D"/>
<path opacity="0.5" d="M1182.3 106.076C1183.06 114.411 1197.77 106.332 1191.17 100.095C1188.32 97.383 1183.51 98.9787 1180.69 100.965C1177.4 103.197 1175.17 107.448 1176.91 111.376C1178.54 115.07 1182.79 115.84 1186.42 116.096C1191.14 116.364 1196.33 116.219 1200.17 113.106C1201.79 111.75 1203.09 110.039 1203.96 108.105C1204.82 106.171 1205.24 104.065 1205.17 101.947C1205.03 97.8963 1203.29 92.819 1199.53 90.7323C1195.29 88.3778 1189.04 90.6096 1185.02 92.328C1179.79 94.5496 1175.16 97.9934 1171.53 102.371C1170.62 103.487 1172.19 105.049 1173.11 103.944C1177.69 98.3641 1183.95 94.4147 1190.96 92.6851C1195.36 91.5693 1199.31 91.6697 1201.57 96.1444C1202.56 98.032 1203.06 100.134 1203.04 102.264C1203.02 104.393 1202.47 106.485 1201.45 108.352C1199.22 112.157 1195.4 113.641 1191.15 113.931C1188.01 114.121 1183.68 114.3 1180.91 112.559C1176.19 109.591 1179.66 103.978 1183.34 102.081C1185.28 101.088 1189.28 99.8491 1190.4 102.739C1190.55 103.283 1190.56 103.856 1190.43 104.404C1190.29 104.953 1190.02 105.458 1189.64 105.875C1188.97 106.678 1184.93 109.301 1184.64 106.109C1184.51 104.692 1182.28 104.681 1182.41 106.109L1182.3 106.076Z" fill="#484D6D"/>
<path opacity="0.5" d="M1167.3 113.585C1170.65 119.957 1179.31 122.568 1186.02 123.182C1194.02 123.907 1202.07 119.444 1208.13 114.523C1214.56 109.323 1215.69 101.467 1213.36 93.812C1212.48 90.4239 1210.6 87.3812 1207.96 85.0858C1205.09 82.8541 1201.44 82.3631 1197.91 82.1734C1192.66 81.9158 1187.4 82.4043 1182.29 83.624C1178.94 84.4275 1174.57 85.2309 1173.25 88.891C1172.76 90.2412 1174.91 90.8215 1175.41 89.4824C1176.25 87.1391 1179.79 86.57 1181.89 86.0232C1184.12 85.446 1186.39 85.0136 1188.68 84.7287C1193.03 84.0962 1197.45 84.1225 1201.78 84.8069C1210.45 86.436 1214.13 98.1193 1211.75 105.819C1210.47 109.97 1207.29 112.737 1203.69 114.98C1200.1 117.223 1196.53 119.522 1192.53 120.56C1187.9 121.731 1183.02 120.783 1178.57 119.276C1174.8 117.993 1171.15 116.141 1169.21 112.492C1168.54 111.22 1166.61 112.347 1167.29 113.608L1167.3 113.585Z" fill="#484D6D"/>
<path opacity="0.5" d="M1201.26 122.847C1199.4 123.818 1198.02 125.726 1199.55 127.69C1201.08 129.654 1204.32 129.308 1206.4 128.427C1208.49 127.545 1209.99 125.425 1209.18 123.126C1208.38 120.828 1205.62 119.176 1203.19 118.797C1201.78 118.574 1201.17 120.727 1202.59 120.95C1204.42 121.229 1208.85 123.294 1206.57 125.671C1205.8 126.335 1204.82 126.727 1203.8 126.786C1203.12 126.887 1201.84 127.065 1201.39 126.396C1200.95 125.726 1201.84 125.034 1202.39 124.744C1203.67 124.086 1202.54 122.156 1201.27 122.814L1201.26 122.847Z" fill="#484D6D"/>
<path opacity="0.5" d="M1192.78 124.209C1192.97 128.46 1191.93 132.622 1196.62 134.676C1200.75 136.483 1206.02 135.903 1210.01 133.973C1213.99 132.042 1216.83 128.46 1216.87 124.086C1216.93 119.477 1213.52 116.654 1209.95 114.389C1208.74 113.619 1207.62 115.505 1208.84 116.319C1211.69 118.127 1214.72 120.337 1214.65 124.131C1214.58 127.925 1211.85 130.725 1208.64 132.198C1205.55 133.612 1202.07 133.931 1198.78 133.102C1196.55 132.489 1195.04 131.272 1194.92 128.851C1194.84 127.322 1195.11 125.793 1195.04 124.253C1194.98 122.713 1192.76 122.825 1192.81 124.253L1192.78 124.209Z" fill="#484D6D"/>
<path opacity="0.5" d="M1185.84 125.938C1181.15 132.555 1187.24 139.586 1193.46 141.895C1201.19 144.774 1210.87 144.652 1218.01 140.333C1224.12 136.64 1228.61 129.52 1227.66 122.222C1226.77 115.215 1220.84 109.356 1213.7 109.156C1212.26 109.156 1212.27 111.387 1213.7 111.387C1219.98 111.566 1225.16 117.101 1225.54 123.294C1225.92 129.487 1222.03 135.301 1216.89 138.403C1211.21 141.817 1204.12 142.208 1197.77 140.813C1191.96 139.541 1182.71 134.118 1187.72 127.065C1188.56 125.894 1186.61 124.778 1185.8 125.949L1185.84 125.938Z" fill="#484D6D"/>
<path opacity="0.5" d="M1181.14 125.269C1180.55 129.297 1179.9 133.593 1177.79 137.13C1175.01 141.739 1170.14 143.1 1165.03 142.866C1159.92 142.632 1154.98 141.594 1152.34 136.729C1150.48 133.303 1147.12 123.394 1152.63 121.91C1152.92 121.831 1153.16 121.643 1153.3 121.385C1153.45 121.128 1153.49 120.823 1153.41 120.537C1153.33 120.252 1153.14 120.009 1152.89 119.862C1152.63 119.716 1152.32 119.678 1152.04 119.756C1145.98 121.385 1147.32 129.04 1148.69 133.582C1150.47 139.541 1154.1 143.558 1160.37 144.584C1165.95 145.499 1172.36 145.7 1176.89 141.694C1181.42 137.688 1182.47 131.451 1183.32 125.86C1183.53 124.454 1181.37 123.851 1181.17 125.269H1181.14Z" fill="#484D6D"/>
<path opacity="0.5" d="M1167.79 126.72C1167.53 127.368 1167.19 127.979 1166.77 128.538C1165.05 130.38 1162.95 129.197 1163 127.043C1163.05 123.952 1165.92 121.575 1168.84 123.026C1172.7 124.934 1173.97 131.127 1169.96 133.426C1166.69 135.301 1162.35 135.122 1160.04 131.942C1158.94 130.375 1158.38 128.497 1158.43 126.586C1158.43 125.693 1159.01 119.411 1160.74 119.589C1162.17 119.734 1162.16 117.502 1160.74 117.357C1157.29 117 1156.54 122.602 1156.28 125.057C1155.91 128.75 1156.94 132.678 1159.94 135.1C1164.79 138.994 1175.15 136.216 1174.78 129.052C1174.6 125.76 1172.36 121.999 1169.2 120.794C1168.49 120.491 1167.73 120.332 1166.95 120.326C1166.18 120.32 1165.41 120.468 1164.7 120.76C1163.98 121.053 1163.33 121.485 1162.79 122.031C1162.24 122.577 1161.81 123.226 1161.51 123.941C1160.4 126.519 1160.28 130.447 1163.31 131.752C1166.33 133.058 1168.53 130.201 1169.7 127.835C1170.33 126.541 1168.41 125.414 1167.77 126.72H1167.79Z" fill="#484D6D"/>
<path opacity="0.5" d="M1120.3 114.445L1121.75 111.644L1120.64 111.354C1123.29 113.586 1123.01 117.335 1119.45 118.306C1118.83 118.495 1118.18 118.558 1117.54 118.491C1116.89 118.424 1116.27 118.229 1115.7 117.917C1115.13 117.606 1114.63 117.183 1114.23 116.675C1113.82 116.167 1113.53 115.583 1113.35 114.958C1112.3 110.383 1118.7 105.005 1122.89 106.143C1123.18 106.221 1123.48 106.183 1123.74 106.037C1124 105.89 1124.19 105.647 1124.26 105.362C1124.34 105.076 1124.3 104.771 1124.16 104.514C1124.01 104.256 1123.77 104.068 1123.48 103.989C1118.33 102.583 1113.35 106.879 1111.53 111.499C1111.15 112.519 1111.01 113.617 1111.14 114.7C1111.27 115.783 1111.66 116.819 1112.27 117.72C1112.89 118.621 1113.71 119.361 1114.67 119.877C1115.63 120.392 1116.7 120.669 1117.79 120.683C1122.45 120.761 1126.47 116.9 1124.19 112.314C1123.46 110.885 1122.2 108.72 1120.31 109.636C1119.39 110.137 1118.66 110.941 1118.25 111.914C1117.85 112.886 1117.79 113.969 1118.08 114.981C1118.56 116.32 1120.72 115.751 1120.24 114.389L1120.3 114.445Z" fill="#484D6D"/>
<path opacity="0.5" d="M1129.58 119.109C1129.01 121.492 1127.77 123.664 1126.02 125.374C1124.27 127.084 1122.06 128.263 1119.67 128.773C1114.39 129.889 1109 126.92 1106.42 122.312C1105.18 119.914 1104.65 117.214 1104.88 114.524C1105.11 111.834 1106.1 109.265 1107.73 107.114C1109.44 104.928 1111.68 103.214 1114.24 102.131C1116.79 101.048 1119.58 100.631 1122.35 100.921C1123.78 101.021 1123.77 98.7892 1122.35 98.6887C1119.14 98.3827 1115.92 98.9141 1112.98 100.231C1110.05 101.547 1107.51 103.604 1105.61 106.199C1103.77 108.797 1102.72 111.874 1102.6 115.056C1102.47 118.238 1103.28 121.387 1104.92 124.12C1106.42 126.566 1108.6 128.524 1111.2 129.756C1113.79 130.987 1116.69 131.441 1119.53 131.06C1122.45 130.566 1125.17 129.226 1127.34 127.207C1129.51 125.189 1131.04 122.579 1131.74 119.701C1132.08 118.306 1129.92 117.714 1129.59 119.109H1129.58Z" fill="#484D6D"/>
<path opacity="0.5" d="M1123.84 87.4628C1119.38 87.2396 1115.33 89.0027 1111.33 90.8662C1107.88 92.3255 1104.63 94.1991 1101.63 96.4456C1095.12 101.735 1093.82 110.037 1094.37 118.015C1094.87 125.615 1097.72 133.415 1104.41 137.767C1111.11 142.118 1120.27 140.991 1127.34 138.068C1134.42 135.144 1143.65 128.761 1142.32 120.024C1142.1 118.607 1139.94 119.209 1140.17 120.615C1141.59 129.755 1128.54 136.026 1121.41 137.677C1116.69 138.793 1111.36 139.016 1106.9 136.695C1103.41 134.745 1100.64 131.709 1099.02 128.047C1095.51 120.482 1094.91 108.095 1100.14 101.177C1102.62 97.9408 1106.22 95.8653 1109.8 94.0799C1114.2 91.8482 1118.82 89.4602 1123.85 89.7057C1125.29 89.7726 1125.28 87.5409 1123.85 87.4739L1123.84 87.4628Z" fill="#484D6D"/>
<path opacity="0.5" d="M1139.17 130.77C1140.15 134.24 1145.56 133.47 1147.97 132.366C1149.27 131.763 1148.14 129.844 1146.85 130.435C1145.93 130.87 1144.91 131.084 1143.89 131.06C1143.26 131.06 1141.56 130.982 1141.34 130.179C1141.26 129.893 1141.07 129.65 1140.81 129.504C1140.56 129.357 1140.25 129.319 1139.96 129.398C1139.68 129.476 1139.44 129.665 1139.29 129.922C1139.14 130.179 1139.11 130.484 1139.18 130.77H1139.17Z" fill="#484D6D"/>
<path opacity="0.5" d="M1131.81 136.762C1131.94 140.378 1136.48 141.728 1139.45 142.342C1143.5 143.102 1147.69 142.575 1151.42 140.835C1152.74 140.255 1151.6 138.324 1150.31 138.916C1147.71 140.098 1144.86 140.623 1142.01 140.445C1140.01 140.311 1134.14 139.485 1134.04 136.807C1133.98 135.379 1131.75 135.367 1131.81 136.807V136.762Z" fill="#484D6D"/>
<path d="M770.788 25.5204C771.466 21.8582 772.872 18.369 774.92 15.2585C776.969 12.1481 779.62 9.47934 782.716 7.40975C788.966 3.29858 796.293 1.13179 803.773 1.18315C808.237 1.18315 813.504 2.36598 815.088 6.51705C820.964 3.53478 827.595 2.3694 834.136 3.16941C838.153 3.6604 842.684 5.49044 843.655 9.41833C849.1 3.91705 857.045 1.86384 864.745 0.74796C872.444 -0.367918 880.78 -0.702682 887.553 3.13594C895.208 7.46554 899.27 16.1805 901.412 24.6947C904.983 38.8106 904.369 54.5668 896.67 66.9195C888.97 79.2723 873.17 87.0053 859.277 82.6646C860.158 89.2259 856.264 95.7426 850.874 99.5813C845.485 103.42 838.845 105.016 832.306 105.998C824.551 107.169 816.494 107.571 808.995 105.317C801.497 103.063 794.556 97.7847 791.956 90.3976C789.01 97.0259 781.076 99.6371 773.935 100.987C767.969 102.121 761.939 102.889 755.88 103.286C752.583 103.68 749.24 103.411 746.049 102.494C740.949 100.708 737.434 96.0997 734.41 91.6139C731.71 87.5967 729.087 83.3452 728.317 78.5693C727.547 73.7933 729.054 68.3478 733.116 65.7367C726.945 68.4929 719.323 66.674 714.224 62.2217C709.124 57.7693 706.413 51.0629 705.576 44.3676C704.527 35.5857 706.96 25.9891 713.621 20.1642C719.736 14.8303 728.273 13.469 736.352 12.6878C744.765 11.9067 753.726 11.717 761.135 15.79C765.171 18.0641 768.276 21.6869 769.906 26.0226L770.788 25.5204Z" fill="white"/>
<path opacity="0.5" d="M820.221 71.1933C819.739 71.2385 819.254 71.1823 818.795 71.0281C818.337 70.874 817.915 70.6253 817.559 70.2983C817.202 69.9712 816.919 69.573 816.726 69.1294C816.532 68.6858 816.435 68.2067 816.438 67.7229C816.492 66.861 816.764 66.0269 817.229 65.2989C817.693 64.5709 818.335 63.9728 819.094 63.5607C821.806 61.8199 826.392 61.195 828.903 63.5607C834.404 68.8276 827.787 76.025 823.323 78.8928C822.039 79.8431 820.595 80.5572 819.061 81.0018C816.673 81.4705 814.452 80.2319 812.7 78.7701C810.406 76.8039 808.767 74.1837 808.002 71.2602C807.229 68.1798 807.489 64.9307 808.74 62.0119C809.992 59.093 812.167 56.6656 814.932 55.1023C825.064 49.4448 840.597 54.6448 842.974 66.5847C845.206 77.9778 837.015 89.4713 826.358 92.9752C815.925 96.4009 804.164 91.3125 798.562 82.0619C795.147 76.4267 794.623 69.5752 795.504 63.1589C796.453 56.3186 800.426 51.9109 806.228 48.4963C817.119 42.08 831.034 38.4534 843.052 44.2113C854.802 49.7907 859.79 63.3152 857.425 75.6456C856.152 82.3409 853.028 89.449 848.062 94.2473C842.706 99.4361 834.583 101.132 827.396 101.925C814.419 103.331 798.25 98.9117 795.371 84.2267C795.103 82.8207 792.949 83.4121 793.217 84.8181C796.319 100.652 813.838 105.752 827.898 104.089C835.252 103.23 843.275 101.523 848.966 96.4567C854.657 91.3907 858.328 83.2336 859.656 75.7684C862.346 60.7375 854.891 45.1487 839.76 40.5624C832.195 38.4538 824.166 38.7108 816.751 41.2989C809.844 43.5307 802.066 47.1349 797.368 52.8817C792.536 58.807 792.146 68.0577 793.607 75.2662C794.991 81.7514 798.779 87.4723 804.208 91.2791C809.532 95.1112 816.111 96.7816 822.618 95.9532C829.125 95.1248 835.075 91.8593 839.269 86.8156C848.196 76.3263 848.029 59.1864 834.359 52.8817C831.35 51.4836 828.08 50.7334 824.763 50.6796C821.445 50.6257 818.152 51.2696 815.099 52.5693C812.05 53.9784 809.49 56.2658 807.749 59.1385C806.007 62.0111 805.163 65.3383 805.324 68.6937C805.748 74.9315 810.446 82.5975 817.208 83.3117C820.556 83.6688 823.658 81.504 826.213 79.6405C828.909 77.8525 831.03 75.3215 832.317 72.3538C834.393 66.7744 831.57 60.213 825.198 59.8225C819.998 59.51 812.287 63.4491 814.653 69.7315C815.022 70.8894 815.778 71.8856 816.793 72.5537C817.809 73.2219 819.023 73.5215 820.232 73.4027C821.638 73.2242 821.649 70.9813 820.232 71.171L820.221 71.1933Z" fill="#484D6D"/>
<path opacity="0.5" d="M776.166 63.9402C775.274 57.6801 767.396 60.0569 764.673 63.4269C761.649 67.1874 762.508 73.347 767.619 74.6749C777.929 77.3753 790.695 61.4071 781.009 53.4732C776.546 49.8913 769.795 50.7951 764.572 51.4646C758.48 52.2346 752.655 54.232 748.95 59.3874C747.194 61.8697 746.031 64.722 745.551 67.7246C745.072 70.7272 745.288 73.7998 746.183 76.7058C747.745 81.9727 751.528 88.0431 757.431 88.8577C764.126 89.7951 772.194 85.5101 777.606 81.9727C783.508 78.0886 788.527 73.0052 792.335 67.0535C793.105 65.8483 791.22 64.7213 790.405 65.9376C785.785 73.1487 779.309 78.9841 771.658 82.832C767.82 84.7624 762.731 87.0611 758.346 86.7375C753.056 86.347 749.698 80.7118 748.303 76.1255C747.563 73.8564 747.313 71.4561 747.57 69.0832C747.827 66.7104 748.584 64.4189 749.791 62.3603C750.999 60.3016 752.629 58.5226 754.575 57.1407C756.521 55.7588 758.738 54.8054 761.08 54.3436C767.976 52.7702 784.513 50.996 781.857 62.9805C780.741 67.9015 775.296 72.1753 770.364 72.644C766.67 73.0011 764.026 69.9436 765.499 66.3504C766.082 64.9849 767.098 63.8483 768.389 63.1144C770.353 61.9985 773.6 61.6526 773.968 64.5316C774.169 65.9487 776.323 65.3462 776.122 63.9402H776.166Z" fill="#484D6D"/>
<path opacity="0.5" d="M796.33 51.3306C790.572 42.7829 777.539 40.5065 767.953 40.9752C762.306 41.2801 756.854 43.1501 752.208 46.3761C747.707 49.2475 743.486 52.5352 739.599 56.1958C735.767 59.7326 733.219 64.4432 732.357 69.5863C731.553 75.1657 732.87 80.8902 735.035 86.012C736.865 90.3528 739.499 94.5597 743.471 97.2601C748.169 100.485 753.983 100.418 759.45 99.9828C766.302 99.4298 773.053 97.9933 779.536 95.709C783.91 94.1468 790.851 92.261 791.922 86.9717C792.201 85.5769 790.048 84.9743 789.769 86.3803C788.832 90.9889 781.299 92.7854 777.494 94.0464C772.617 95.6661 767.589 96.7877 762.486 97.394C757.442 98.0077 751.494 98.7107 746.741 96.5124C742.578 94.5931 739.733 90.6764 737.814 86.6481C733.35 77.4644 732.792 66.8524 740.045 58.9966C743.256 55.7317 746.789 52.8006 750.59 50.2482C754.652 47.3022 758.848 44.6688 763.847 43.7203C769.605 42.6044 775.698 43.3186 781.355 44.7022C786.399 45.9409 791.398 48.0499 794.456 52.5134C795.259 53.6962 797.189 52.5803 796.386 51.3975L796.33 51.3306Z" fill="#484D6D"/>
<path opacity="0.5" d="M746.651 43.1736C748.961 41.6114 750.691 38.9779 748.258 36.6011C745.826 34.2243 741.351 35.4852 738.784 37.0474C736.218 38.6097 734.778 41.7676 736.419 44.5796C738.182 47.5925 741.931 48.9539 745.245 49.0431C746.685 49.0431 746.685 46.8114 745.245 46.8114C742.288 46.6998 736.318 44.4457 738.427 40.4843C738.894 39.7939 739.495 39.2048 740.195 38.7523C740.895 38.2998 741.679 37.9932 742.5 37.8509C743.616 37.5384 745.089 37.1479 746.205 37.7839C747.845 38.7101 746.741 40.3951 745.535 41.2097C744.33 42.0243 745.468 43.9547 746.651 43.1401V43.1736Z" fill="#484D6D"/>
<path opacity="0.5" d="M758.312 40.0269C757.777 36.9917 758.312 33.711 756.973 30.8209C756.423 29.7166 755.639 28.7454 754.675 27.9746C753.712 27.2039 752.592 26.652 751.394 26.3574C745.502 24.6054 738.316 26.2123 733.227 29.4818C728.373 32.5951 724.802 37.8063 725.204 43.7651C725.639 50.2929 730.85 53.808 736.251 56.3633C737.535 56.977 738.673 55.0577 737.367 54.4328C732.759 52.2011 727.893 49.4337 727.436 43.7651C726.99 38.2749 730.572 33.5994 735.102 30.9436C739.632 28.2878 745.402 27.105 750.434 28.4217C756.516 29.9951 755.277 35.7196 756.136 40.596C756.393 42.002 758.547 41.3994 758.29 39.9934L758.312 40.0269Z" fill="#484D6D"/>
<path opacity="0.5" d="M767.842 36.4782C771.814 29.4928 767.44 21.4027 760.89 17.9435C753.324 13.9486 743.337 13.7924 735.113 15.4885C726.889 17.1847 719.011 21.704 714.202 28.8791C709.738 35.5743 708.02 44.2335 711.256 51.7546C714.603 59.5657 722.794 65.346 731.487 64.4756C732.904 64.3305 732.915 62.0988 731.487 62.2438C722.727 63.1142 714.614 56.6644 712.405 48.3065C709.961 39.0447 714.905 29.0911 722.269 23.5229C729.924 17.7314 740.023 16.08 749.396 17.0619C754.228 17.5641 759.383 18.8139 763.088 22.1503C766.793 25.4868 768.444 30.91 765.911 35.3512C765.778 35.6062 765.748 35.9029 765.828 36.1793C765.909 36.4557 766.093 36.6905 766.342 36.8345C766.591 36.9785 766.886 37.0207 767.166 36.9522C767.445 36.8838 767.687 36.7099 767.842 36.467V36.4782Z" fill="#484D6D"/>
<path opacity="0.5" d="M774.66 36.4674C774.838 30.0511 775.095 23.0768 778.387 17.397C782.136 10.8915 789.367 8.83824 796.453 8.59275C800.124 8.45885 804.164 8.38073 807.612 9.78674C810.724 11.1795 813.314 13.5237 815.01 16.482C817.889 21.0459 824.004 34.3361 816.316 37.1592C814.977 37.6502 815.557 39.8039 816.907 39.3129C825.198 36.3112 821.716 25.5206 819.139 19.6288C817.652 15.8602 815.247 12.523 812.142 9.92065C808.795 7.34297 804.945 6.57301 800.838 6.42794C792.748 6.1155 783.576 7.13095 778.13 13.8485C773.042 20.1309 772.618 28.7901 772.395 36.5232C772.395 36.8191 772.512 37.103 772.721 37.3122C772.931 37.5215 773.215 37.639 773.511 37.639C773.806 37.639 774.09 37.5215 774.3 37.3122C774.509 37.103 774.626 36.8191 774.626 36.5232L774.66 36.4674Z" fill="#484D6D"/>
<path opacity="0.5" d="M793.373 32.1712C793.976 30.4416 794.567 28.6004 796.252 27.7077C798.841 26.2682 800.716 28.6673 800.95 31.0553C801.24 34.8046 799.22 38.8664 795.047 38.7772C788.463 38.7772 783.196 28.8905 788.117 23.9695C792.146 19.9412 799.444 18.8811 803.74 22.9763C806.07 25.3657 807.43 28.5349 807.556 31.8699C807.668 33.3763 807.701 42.1918 805.09 41.9128C803.662 41.7566 803.673 43.9995 805.09 44.1445C808.75 44.5351 809.263 39.2458 809.553 36.7128C810.246 32.6381 809.625 28.4486 807.779 24.7506C803.952 17.8433 796.129 16.6158 789.49 20.2871C782.371 24.1592 782.504 32.1377 787.783 37.6948C788.901 38.97 790.331 39.9341 791.932 40.4933C793.534 41.0525 795.252 41.1879 796.922 40.8862C800.716 40.0493 802.601 36.7463 803.048 33.075C803.45 29.8948 802.356 26.0785 798.908 25.0965C794.634 23.8914 792.335 28.3326 791.175 31.6244C790.706 32.9858 792.86 33.5772 793.328 32.227L793.373 32.1712Z" fill="#484D6D"/>
<path opacity="0.5" d="M863.461 41.8123C863.745 42.4207 863.839 43.1004 863.732 43.763C863.624 44.4256 863.32 45.0407 862.859 45.5282C861.743 46.6441 861.364 45.7068 860.627 44.8252C859.043 42.8278 858.038 40.3617 859.958 38.1299C862.781 34.8604 868.059 34.0458 871.306 37.1257C877.633 43.0844 868.148 55.772 860.661 54.4329C859.255 54.1874 858.652 56.3299 860.069 56.5866C867.188 57.8587 872.868 51.4758 875.044 45.2827C875.555 43.8532 875.704 42.3193 875.478 40.8181C875.252 39.317 874.658 37.8951 873.748 36.6795C872.839 35.464 871.642 34.4925 870.266 33.8519C868.89 33.2112 867.376 32.9213 865.861 33.0081C864.303 33.0983 862.783 33.5216 861.403 34.2492C860.022 34.9768 858.814 35.9919 857.86 37.2261C855.885 39.9265 856.487 42.8947 858.328 45.5059C859.444 47.1462 861.285 49.7128 863.506 48.1505C865.727 46.5883 866.787 43.0733 865.37 40.7299C865.215 40.4871 864.973 40.3132 864.693 40.2447C864.414 40.1763 864.119 40.2185 863.869 40.3625C863.62 40.5065 863.436 40.7413 863.356 41.0177C863.276 41.2941 863.306 41.5908 863.439 41.8458L863.461 41.8123Z" fill="#484D6D"/>
<path opacity="0.5" d="M848.609 36.6013C849.074 32.9452 850.598 29.5048 852.993 26.7034C855.388 23.902 858.55 21.8618 862.089 20.8339C869.498 18.7026 877.566 22.2511 881.873 28.4665C886.482 35.1618 886.27 44.1892 882.108 50.9849C877.946 57.7806 870.324 61.5523 862.558 61.8201C861.129 61.8201 861.118 64.0519 862.558 64.0519C877.064 63.5386 889.339 51.409 887.297 36.4674C885.478 23.0768 870.826 13.9378 858.284 19.8966C855.031 21.4369 852.227 23.7834 850.137 26.7131C848.047 29.6427 846.742 33.0582 846.344 36.6348C846.199 38.0631 848.431 38.0519 848.576 36.6348L848.609 36.6013Z" fill="#484D6D"/>
<path opacity="0.5" d="M862.234 80.1874C868.17 79.8637 873.27 77.0629 878.236 74.0165C882.876 71.3849 887.216 68.257 891.18 64.6878C899.861 56.3299 900.576 44.814 898.712 33.4432C896.982 22.9651 892.017 12.4647 882.376 7.10851C872.4 1.52912 859.958 4.36345 850.35 9.40722C840.976 14.3394 827.764 25.2527 831.38 37.3042C831.458 37.5898 831.647 37.8325 831.904 37.979C832.162 38.1255 832.467 38.1637 832.752 38.0853C833.038 38.0069 833.281 37.8182 833.427 37.5608C833.574 37.3034 833.612 36.9983 833.534 36.7127C830.51 26.4578 841.78 16.984 849.558 12.4089C858.217 7.32052 870.224 3.78319 879.82 8.25786C888.903 12.4982 894.014 21.7711 896.079 31.2115C898.31 41.4552 898.612 53.3059 891.146 61.5187C887.698 65.3127 883.335 68.214 879.05 70.8586C873.884 74.0723 868.539 77.5539 862.312 77.8886C860.884 77.9668 860.873 80.2097 862.312 80.1204L862.234 80.1874Z" fill="#484D6D"/>
<path opacity="0.5" d="M833.154 22.2397C831.335 17.8432 824.316 19.5728 821.248 21.4586C820.02 22.2174 821.136 24.1479 822.364 23.3891C823.726 22.5104 825.28 21.9744 826.894 21.8269C827.921 21.7488 830.498 21.626 831.001 22.8423C831.503 24.0586 833.701 23.5676 833.143 22.2397H833.154Z" fill="#484D6D"/>
<path opacity="0.5" d="M842.528 12.4424C842.059 7.55489 835.319 6.53945 831.369 6.19352C825.6 5.71039 819.828 7.08688 814.898 10.1214C813.682 10.8691 814.798 12.7995 816.014 12.0519C819.56 9.85375 823.6 8.57998 827.764 8.34717C830.498 8.21326 839.849 8.42528 840.24 12.4424C840.374 13.8596 842.606 13.8708 842.472 12.4424H842.528Z" fill="#484D6D"/>
</svg>
