<svg width="490" height="286" viewBox="0 0 490 286" fill="none" xmlns="http://www.w3.org/2000/svg">
<path opacity="0.1" d="M42.1216 33.1293C58.8575 19.4185 75.5313 5.75857 97.7453 2.37818C112.227 0.174501 127.529 0.608728 142.138 1.12131C149.108 1.36587 155.843 2.6664 162.583 3.96789C167.794 4.97413 173.008 5.98095 178.336 6.50073C188.264 7.46932 198.929 7.96963 208.903 7.96963C214.615 7.96963 220.127 9.12002 225.645 10.2719C227.868 10.7359 230.092 11.2001 232.331 11.5894C240.82 13.0658 249.284 12.9739 257.853 12.8809C259.947 12.8582 262.047 12.8354 264.155 12.8354C271.98 12.8354 280.035 9.69177 287.799 6.66203C291.358 5.27314 294.856 3.90816 298.242 2.88093C299.19 2.59336 300.138 2.24283 301.092 1.89047C303.412 1.03371 305.76 0.166089 308.196 0.166089C311.024 0.166089 313.85 0.124432 316.671 0.0828431C330.094 -0.115022 343.414 -0.311364 356.309 3.98698C361.236 5.6291 366.163 7.17712 371.084 8.72269C377.778 10.8256 384.458 12.9239 391.099 15.2486C400.436 18.5163 412.277 23.8386 419.756 30.4316C434.086 43.0649 442.362 61.4075 445.798 79.8015C447.538 89.1137 448.451 98.7846 448.513 108.257C448.549 113.718 448.075 119.088 447.601 124.453C447.514 125.447 447.426 126.44 447.342 127.434C460.235 131.498 475.441 131.177 487.487 125.824C487.628 125.761 487.782 125.688 487.941 125.613C488.868 125.174 489.953 124.662 489.4 125.711C488.84 126.776 488.042 127.698 487.243 128.622C486.611 129.353 485.978 130.085 485.46 130.889C482.347 135.733 479.208 139.02 473.697 140.937C471.583 141.672 469.406 142.245 467.229 142.819C464.57 143.52 461.912 144.22 459.372 145.214C458.356 145.612 457.165 145.827 455.972 146.043C454.458 146.318 452.94 146.592 451.773 147.241C450.498 147.949 449.171 147.915 447.838 147.88C447.318 147.866 446.797 147.853 446.278 147.883C445.362 160.447 443.07 172.743 439.665 184.977C435.73 199.112 425.891 208.066 413.974 216.097C407.109 220.724 399.757 223.926 392.306 227.171C389.648 228.329 386.978 229.492 384.312 230.727L383.783 230.972C367.493 238.521 351.506 245.93 334.791 252.546C330.173 254.374 325.551 256.228 320.923 258.085C302.676 265.406 284.327 272.767 265.663 278.739C247.247 284.633 228.134 285.969 208.903 284.722C198.15 284.025 187.422 282.338 176.7 280.652C169.284 279.486 161.871 278.32 154.455 277.482C151.939 277.198 149.404 276.929 146.858 276.658C134.916 275.389 122.742 274.096 111.219 271.148C98.6021 267.92 86.4485 264.3 74.2166 259.735C71.7328 258.809 69.1792 257.973 66.616 257.135C60.7113 255.203 54.7551 253.254 49.4814 250.133C48.0265 249.272 46.4662 248.419 44.8667 247.544C39.0341 244.354 32.6806 240.88 29.0195 235.704C25.1732 230.266 21.068 225.22 16.853 220.069C8.68301 210.083 2.22552 197.235 0.764994 184.273C-0.122007 176.401 0.115417 168.26 0.350532 160.198C0.457452 156.532 0.563894 152.882 0.563894 149.281C0.563894 140.125 1.88456 131.75 3.25478 123.062C3.63677 120.639 4.02263 118.193 4.38479 115.698C4.78775 112.922 4.94219 110.088 5.09682 107.252C5.37607 102.129 5.65592 96.9946 7.40128 92.1692C8.20648 89.943 8.75286 87.6502 9.29844 85.3607C10.181 81.6572 11.0615 77.9624 13.0321 74.573C14.6664 71.7619 16.5146 69.0912 18.361 66.4231C20.6451 63.1225 22.9264 59.826 24.7964 56.2729C25.6367 54.6762 27.1569 53.1087 28.7254 51.4913C31.3201 48.8157 34.047 46.0039 34.047 42.6987L40.3816 34.5541C40.9618 34.0794 41.5417 33.6043 42.1216 33.1293Z" fill="#484D6D"/>
</svg>
