<svg id="bg-2-trees" width="1919" viewBox="0 0 1919 800" fill="none" xmlns="http://www.w3.org/2000/svg">
<path d="M1677.43 551.627L1701.96 553.996C1695.37 530.331 1690.47 506.23 1687.28 481.874C1682.79 504.723 1679.27 527.731 1676.72 550.898L1677.43 551.627Z" fill="#484D6D"/>
<path d="M900.831 383.412L925.362 385.781C918.78 362.115 913.876 338.015 910.686 313.659C906.181 336.508 902.663 359.516 900.13 382.683L900.831 383.412Z" fill="#484D6D"/>
<path opacity="0.5" d="M900.831 383.412L925.362 385.781C918.78 362.115 913.876 338.015 910.686 313.659C906.181 336.508 902.663 359.516 900.13 382.683L900.831 383.412Z" fill="#484D6D"/>
<path d="M788.407 397.584C790.582 417.132 793.745 436.558 797.883 455.787C792.809 456.922 787.622 455.058 782.604 453.684C777.397 452.263 772.063 451.361 766.679 450.992C769.399 445.666 768.459 445.708 769.399 443.156C770.604 439.918 771.908 438.152 773.604 434.073C775.202 430.344 776.197 426.377 777.711 422.606C780.851 414.854 788.407 397.584 788.407 397.584Z" fill="#484D6D"/>
<path opacity="0.5" d="M788.407 397.584C790.582 417.132 793.745 436.558 797.883 455.787C792.809 456.922 787.622 455.058 782.604 453.684C777.397 452.263 772.063 451.361 766.679 450.992C769.399 445.666 768.459 445.708 769.399 443.156C770.604 439.918 771.908 438.152 773.604 434.073C775.202 430.344 776.197 426.377 777.711 422.606C780.851 414.854 788.407 397.584 788.407 397.584Z" fill="#484D6D"/>
<path d="M1046.27 420.826C1047.43 431.218 1049.1 441.526 1051.3 451.749C1048.61 452.352 1045.85 451.357 1043.18 450.628C1040.43 449.885 1037.62 449.415 1034.77 449.226C1035.45 447.905 1035.93 446.486 1036.17 445.021C1036.81 443.31 1037.58 442.371 1038.43 440.199C1039.29 438.026 1039.83 436.105 1040.6 434.101C1042.26 429.993 1046.27 420.826 1046.27 420.826Z" fill="#484D6D"/>
<path opacity="0.5" d="M1046.27 420.826C1047.43 431.218 1049.1 441.526 1051.3 451.749C1048.61 452.352 1045.85 451.357 1043.18 450.628C1040.43 449.885 1037.62 449.415 1034.77 449.226C1035.45 447.905 1035.93 446.486 1036.17 445.021C1036.81 443.31 1037.58 442.371 1038.43 440.199C1039.29 438.026 1039.83 436.105 1040.6 434.101C1042.26 429.993 1046.27 420.826 1046.27 420.826Z" fill="#484D6D"/>
<path d="M844.843 407.397C845.656 414.689 846.835 421.936 848.376 429.11C846.443 429.308 844.491 429.039 842.685 428.325C840.741 427.794 838.751 427.456 836.741 427.316C837.22 426.399 837.56 425.417 837.75 424.4C838.199 423.195 838.689 422.536 839.334 421.008C839.979 419.48 840.302 418.134 840.862 416.733C842.026 413.817 844.843 407.397 844.843 407.397Z" fill="#484D6D"/>
<path d="M1332.67 480.29C1333.48 487.582 1334.66 494.83 1336.2 502.004C1334.27 502.202 1332.32 501.932 1330.51 501.219C1328.57 500.688 1326.58 500.35 1324.57 500.209C1325.04 499.293 1325.38 498.31 1325.58 497.294C1326.02 496.088 1326.51 495.429 1327.16 493.901C1327.8 492.373 1328.13 491.028 1328.69 489.626C1329.85 486.71 1332.67 480.29 1332.67 480.29Z" fill="#484D6D"/>
<path opacity="0.5" d="M1332.67 480.29C1333.48 487.582 1334.66 494.83 1336.2 502.004C1334.27 502.202 1332.32 501.932 1330.51 501.219C1328.57 500.688 1326.58 500.35 1324.57 500.209C1325.04 499.293 1325.38 498.31 1325.58 497.294C1326.02 496.088 1326.51 495.429 1327.16 493.901C1327.8 492.373 1328.13 491.028 1328.69 489.626C1329.85 486.71 1332.67 480.29 1332.67 480.29Z" fill="#484D6D"/>
<path d="M814.242 340.545C815.017 354.516 816.496 368.44 818.672 382.262C815.013 382.865 811.411 381.337 807.906 380.16C804.261 378.941 800.505 378.087 796.692 377.608C798.836 373.936 798.164 373.922 798.935 372.155C799.916 369.913 800.911 368.707 802.313 365.875C803.588 363.282 804.458 360.506 805.691 357.885C808.2 352.502 814.242 340.545 814.242 340.545Z" fill="#484D6D"/>
<path d="M1088.99 465.305C1089.77 479.276 1091.25 493.199 1093.42 507.022C1089.76 507.625 1086.16 506.097 1082.66 504.919C1079.01 503.701 1075.26 502.847 1071.44 502.368C1073.59 498.695 1072.92 498.681 1073.69 496.915C1074.67 494.672 1075.66 493.467 1077.06 490.635C1078.34 488.042 1079.21 485.266 1080.44 482.645C1082.95 477.262 1088.99 465.305 1088.99 465.305Z" fill="#484D6D"/>
<path d="M1154.75 420.994C1155.69 437.619 1157.44 454.17 1160.01 470.646C1155.66 471.36 1151.37 469.538 1147.2 468.15C1142.86 466.696 1138.39 465.677 1133.85 465.108C1136.42 460.735 1135.62 460.721 1136.53 458.618C1137.71 455.941 1138.88 454.511 1140.55 451.147C1142.08 448.063 1143.1 444.754 1144.56 441.642C1147.55 435.236 1154.75 420.994 1154.75 420.994Z" fill="#484D6D"/>
<path d="M17.8824 200.45C16.7002 198.382 15.7594 196.185 15.0788 193.903C14.4621 191.464 14.4761 188.941 14.0836 186.474C13.8447 183.913 12.7076 181.52 10.8735 179.717C10.7 179.524 10.4806 179.378 10.2355 179.292C9.99047 179.206 9.72773 179.183 9.47167 179.226C9.2671 179.297 9.08051 179.412 8.92497 179.563C4.46726 183.306 3.50002 189.221 2.78511 194.674L2.2384 198.88C2.1543 199.566 2.1543 200.421 2.81314 200.786C3.06529 200.897 3.33659 200.959 3.61217 200.968L12.2332 201.963C14.1951 202.323 16.2105 202.265 18.1488 201.795" fill="#484D6D"/>
<path d="M340.295 158.396C339.113 156.328 338.172 154.132 337.492 151.849C336.875 149.41 336.889 146.887 336.496 144.42C336.249 141.849 335.097 139.449 333.244 137.649C333.071 137.456 332.851 137.31 332.606 137.224C332.361 137.138 332.098 137.116 331.842 137.159C331.638 137.23 331.451 137.344 331.296 137.495C326.838 141.238 325.871 147.153 325.156 152.606L324.609 156.812C324.525 157.499 324.525 158.354 325.184 158.718C325.436 158.83 325.707 158.892 325.983 158.9L334.604 159.896C336.566 160.255 338.581 160.198 340.52 159.727" fill="#484D6D"/>
<path d="M287.027 210.556C286.068 208.871 285.31 207.078 284.77 205.216C284.265 203.225 284.279 201.164 283.957 199.132C283.751 197.036 282.813 195.081 281.308 193.609C281.166 193.457 280.991 193.342 280.795 193.274C280.6 193.206 280.391 193.186 280.186 193.216C280.019 193.272 279.866 193.363 279.738 193.483C276.093 196.539 275.308 201.375 274.733 205.832L274.285 209.239C274.285 209.8 274.2 210.5 274.747 210.795C274.957 210.882 275.179 210.934 275.406 210.949L282.415 211.762C284.019 212.053 285.667 212.005 287.251 211.622" fill="#484D6D"/>
<path d="M288.429 140.172C287.247 138.105 286.306 135.908 285.625 133.626C285.009 131.187 285.023 128.664 284.63 126.197C284.383 123.625 283.23 121.226 281.378 119.426C281.204 119.233 280.985 119.086 280.74 119.001C280.495 118.915 280.232 118.892 279.976 118.935C279.771 119.006 279.585 119.121 279.429 119.272C274.972 123.014 274.004 128.93 273.289 134.383L272.743 138.588C272.659 139.275 272.659 140.13 273.318 140.495C273.57 140.606 273.841 140.668 274.117 140.677L282.738 141.672C284.699 142.031 286.715 141.974 288.653 141.504" fill="#484D6D"/>
<path d="M27.0361 182.969C25.9051 180.857 25.586 178.404 26.139 176.072C26.7122 173.747 27.5592 171.498 28.6622 169.372L30.6387 165.166C30.821 164.788 31.2135 164.325 31.634 164.507C31.7928 164.6 31.9161 164.743 31.9845 164.914C33.6526 168.418 33.19 172.4 33.8629 176.128C34.2806 178.451 35.1166 180.679 36.33 182.703C36.7786 183.446 37.2272 184.469 36.5263 185.03C36.2195 185.249 35.8519 185.366 35.4749 185.366C32.3468 185.716 29.204 184.848 26.6997 182.941" fill="#484D6D"/>
<path d="M0.864502 165.937C2.71951 161.223 4.90715 156.646 7.41089 152.242C7.4961 152.041 7.62241 151.859 7.78173 151.71C7.94104 151.56 8.12985 151.445 8.33607 151.373C9.10706 151.205 9.65376 152.032 9.89206 152.775C11.6 157.441 12.7573 162.292 13.3405 167.227C13.396 167.391 13.396 167.568 13.3405 167.732C13.1978 167.9 12.9982 168.01 12.7798 168.04C8.39214 169.274 4.81756 169.442 1.00468 167.157" fill="#484D6D"/>
<path d="M100.616 143.901C101.969 140.424 103.566 137.046 105.396 133.794C105.457 133.643 105.55 133.507 105.669 133.396C105.787 133.285 105.929 133.201 106.083 133.149C106.644 133.023 107.05 133.626 107.233 134.131C108.475 137.583 109.316 141.167 109.742 144.812C109.783 144.935 109.783 145.068 109.742 145.191C109.742 145.317 109.489 145.373 109.335 145.429C106.097 146.326 103.462 146.452 100.63 144.77" fill="#484D6D"/>
<path d="M83.6125 183.151C85.8444 177.404 88.4866 171.824 91.5187 166.456C91.6162 166.211 91.7658 165.99 91.9569 165.809C92.1481 165.627 92.3764 165.489 92.6261 165.405C93.5653 165.194 94.2382 166.204 94.5325 167.031C96.6161 172.72 98.0274 178.634 98.7379 184.651C98.779 184.859 98.7545 185.075 98.6678 185.268C98.4903 185.471 98.2472 185.605 97.9809 185.647C92.6401 187.146 88.2805 187.343 83.6266 184.567" fill="#484D6D"/>
<path d="M50.2498 160.316L52.2684 152.144C52.9272 149.494 53.6702 146.691 55.8009 144.742C56.0125 144.522 56.2785 144.363 56.5719 144.28C57.2868 144.111 57.9737 144.686 58.3241 145.247C59.6891 147.438 60.5731 149.894 60.9175 152.452C61.352 154.639 61.7726 156.826 62.1931 158.998C62.4174 160.218 62.5576 161.662 61.5202 162.461C60.8149 162.91 59.9861 163.126 59.1512 163.078C56.0039 163.206 52.865 162.666 49.9414 161.494" fill="#484D6D"/>
<path d="M81.0613 123.897C77.7951 129.701 74.613 135.63 73.057 141.98C72.9882 142.145 72.9637 142.325 72.9858 142.502C73.0079 142.679 73.076 142.847 73.1832 142.99C73.4002 143.148 73.6581 143.24 73.9261 143.256C77.7203 143.746 81.5737 143.484 85.2666 142.485C85.6693 142.408 86.0456 142.23 86.36 141.966C86.6333 141.667 86.8051 141.29 86.8507 140.887C87.2081 139.702 87.2896 138.45 87.089 137.228C86.6544 135.35 85.0283 133.92 83.8228 132.336C82.0991 130.089 81.203 127.317 81.2855 124.486" fill="#484D6D"/>
<path d="M42.9326 109.347C38.6936 114.962 35.7322 121.435 34.2555 128.313C34.1872 128.5 34.1594 128.699 34.1739 128.897C34.1884 129.095 34.2449 129.288 34.3396 129.463C34.6282 129.795 35.0359 130.002 35.475 130.037C39.4141 130.892 43.5353 130.135 47.5024 129.364C47.9936 129.331 48.4607 129.139 48.8341 128.818C49.0827 128.502 49.2206 128.113 49.2266 127.71C49.8434 121.262 46.8155 115.01 43.4092 109.291" fill="#484D6D"/>
<path d="M273.85 158.396C270.964 162.206 268.949 166.604 267.949 171.278C267.896 171.402 267.869 171.536 267.869 171.671C267.869 171.806 267.896 171.939 267.949 172.063C268.152 172.28 268.425 172.419 268.72 172.456C271.447 172.848 274.226 172.69 276.892 171.993C277.229 171.968 277.548 171.835 277.803 171.615C277.976 171.407 278.066 171.142 278.056 170.872C278.49 166.484 276.429 162.237 274.116 158.354" fill="#484D6D"/>
<path d="M62.5577 178.035C58.3187 183.65 55.3573 190.123 53.8806 197.001C53.8123 197.188 53.7845 197.387 53.799 197.585C53.8135 197.783 53.87 197.976 53.9647 198.151C54.2533 198.483 54.661 198.69 55.1001 198.725C59.0392 199.58 63.1605 198.823 67.1275 198.052C67.6431 198.034 68.1372 197.841 68.5293 197.506C68.7779 197.19 68.9158 196.8 68.9218 196.398C69.5386 189.95 66.5107 183.698 63.1044 177.979" fill="#484D6D"/>
<path d="M62.5577 178.035C58.3187 183.65 55.3573 190.123 53.8806 197.001C53.8123 197.188 53.7845 197.387 53.799 197.585C53.8135 197.783 53.87 197.976 53.9647 198.151C54.2533 198.483 54.661 198.69 55.1001 198.725C59.0392 199.58 63.1605 198.823 67.1275 198.052C67.6431 198.034 68.1372 197.841 68.5293 197.506C68.7779 197.19 68.9158 196.8 68.9218 196.398C69.5386 189.95 66.5107 183.698 63.1044 177.979" fill="#484D6D"/>
<path d="M12.2893 115.389C7.68468 119.94 4.62928 125.825 3.55614 132.21C3.46607 132.549 3.50608 132.909 3.66829 133.219C3.82757 133.387 4.01861 133.522 4.23035 133.616C4.44208 133.71 4.67032 133.761 4.90187 133.766C6.95797 134.072 9.03317 134.231 11.1118 134.243C13.1584 134.243 15.4714 133.99 16.719 132.504C18.2329 130.64 17.1255 128.061 16.2284 125.902C14.8417 122.269 13.7952 118.514 13.1024 114.688" fill="#484D6D"/>
<path d="M23.097 76.4047C18.7086 82.966 14.6795 89.7607 11.0276 96.7587C10.8596 97.0292 10.7631 97.3379 10.7472 97.6559C10.7472 98.539 11.9948 98.9035 12.976 99.0577C16.0995 99.738 19.3221 99.8331 22.4802 99.338C25.5922 98.6371 28.5079 96.4363 28.7603 93.5767C28.9845 91.0815 27.2183 88.8386 25.7885 86.6938C23.854 83.7641 24.2044 79.2783 23.3073 75.9841" fill="#484D6D"/>
<path d="M310.465 213.781C306.077 220.342 302.048 227.137 298.396 234.135C298.228 234.405 298.131 234.714 298.115 235.032C298.115 235.915 299.363 236.279 300.344 236.434C303.468 237.114 306.69 237.209 309.848 236.714C312.96 236.013 315.876 233.812 316.128 230.953C316.353 228.457 314.586 226.215 313.156 224.07C311.222 221.14 311.572 216.654 310.675 213.36" fill="#484D6D"/>
<path d="M270.247 87.4929C267.134 92.1523 264.275 96.9769 261.682 101.945C261.563 102.135 261.495 102.352 261.486 102.576C261.486 103.207 262.369 103.473 263.056 103.571C265.276 104.063 267.568 104.13 269.813 103.768C272.014 103.277 274.088 101.721 274.27 99.6885C274.425 97.9082 273.177 96.3242 272.154 94.7962C270.752 92.7216 271.032 89.5395 270.402 87.1985" fill="#484D6D"/>
<path d="M65.2489 77.7364C62.2224 84.6542 59.8478 91.8391 58.1558 99.1979C58.0857 99.5063 58.0436 99.8848 58.31 100.095C58.5066 100.218 58.7382 100.272 58.9688 100.249L69.9869 100.572C70.3379 100.632 70.6987 100.557 70.9962 100.361C71.1876 100.166 71.2978 99.9057 71.3046 99.6325C71.9074 95.6093 70.1271 91.6282 68.3889 87.8854C66.9871 84.8295 66.7768 80.4419 65.361 77.386" fill="#484D6D"/>
<path d="M95.8082 96.0299C91.9283 102.426 88.5311 109.103 85.6452 116.005C85.5595 116.164 85.5252 116.345 85.5471 116.524C85.6592 116.875 86.1498 116.959 86.5564 116.987L99.7192 117.702C100.672 117.702 101.892 117.702 102.186 116.833C102.284 116.518 102.284 116.18 102.186 115.865C101.289 112.347 98.9482 109.305 96.9577 106.179C94.9671 103.053 95.7521 100.572 96.2287 97.0112" fill="#484D6D"/>
<path d="M216.363 65.1904C212.483 71.5868 209.085 78.2638 206.2 85.1659C206.114 85.3245 206.08 85.5057 206.101 85.6846C206.214 86.0351 206.704 86.1192 207.111 86.1472L220.274 86.8621C221.227 86.8621 222.446 86.8621 222.741 85.993C222.839 85.6781 222.839 85.3407 222.741 85.0258C221.844 81.5073 219.503 78.4654 217.512 75.3394C215.521 72.2133 216.306 69.7322 216.783 66.1716" fill="#484D6D"/>
<path d="M129.521 81.0867L124.026 91.4039C122.667 94.1686 121.033 96.7892 119.148 99.2259C118.601 99.8988 117.984 100.824 118.559 101.497C118.799 101.694 119.078 101.839 119.377 101.924C119.676 102.008 119.989 102.03 120.297 101.987C124.288 101.987 128.283 101.987 132.283 101.987C132.656 102.007 133.028 101.929 133.362 101.763C133.647 101.559 133.85 101.261 133.937 100.922C134.626 98.3225 134.534 95.5772 133.67 93.03C132.741 89.4251 131.551 85.8926 130.11 82.4604" fill="#484D6D"/>
<path d="M240.922 95.1046L236.717 102.941C235.673 105.045 234.424 107.04 232.988 108.898C232.567 109.417 232.105 110.132 232.539 110.637C232.722 110.786 232.933 110.896 233.159 110.961C233.386 111.026 233.623 111.045 233.857 111.015C236.913 111.015 239.955 111.015 243.011 111.015C243.297 111.038 243.584 110.98 243.838 110.847C244.057 110.692 244.211 110.463 244.272 110.202C244.805 108.221 244.732 106.127 244.062 104.188C243.368 101.432 242.463 98.7324 241.357 96.1139" fill="#484D6D"/>
<path d="M95.6398 57.7608C92.1942 61.495 89.6017 65.9337 88.0421 70.7695C87.8879 71.2601 87.7617 71.8488 88.1683 72.1713C88.4701 72.3756 88.827 72.4832 89.1916 72.4797C92.4563 72.7331 95.734 72.7753 99.0041 72.6058C99.2577 72.6219 99.5079 72.5418 99.705 72.3815C99.7676 72.2627 99.8004 72.1304 99.8004 71.996C99.8004 71.8617 99.7676 71.7294 99.705 71.6105L95.4996 58.3496" fill="#484D6D"/>
<path d="M42.582 40.743C40.0868 47.5417 34.6058 53.4433 33.5825 60.5504C33.5119 60.7499 33.5119 60.9676 33.5825 61.1671C33.7787 61.4755 34.2413 61.5176 34.6338 61.5316L46.2967 61.7699C47.6004 61.7699 49.2826 61.5877 49.591 60.4522C49.661 60.1242 49.661 59.785 49.591 59.457C48.493 53.2504 46.5646 47.22 43.8576 41.528" fill="#484D6D"/>
<path d="M10.7471 22.8141C6.96754 29.2468 3.64187 35.9356 0.79435 42.8317C0.637759 43.1081 0.573889 43.4275 0.612115 43.7429C0.697812 44.0415 0.893053 44.2968 1.15882 44.4578C2.04559 44.9773 3.0614 45.2348 4.08857 45.2007C7.82669 45.397 11.5648 45.4344 15.3029 45.3129C15.5812 45.3315 15.86 45.2835 16.116 45.1727C16.303 45.0497 16.4579 44.8837 16.5676 44.6886C16.6774 44.4935 16.7388 44.275 16.7468 44.0513C17.1522 40.4912 16.4627 36.8922 14.7702 33.7341C13.2703 30.4819 11.9667 26.0662 10.677 22.7159" fill="#484D6D"/>
<path d="M340.169 199.44C336.389 205.873 333.064 212.562 330.216 219.458C330.06 219.734 329.996 220.054 330.034 220.369C330.12 220.668 330.315 220.923 330.581 221.084C331.467 221.603 332.483 221.861 333.51 221.827C337.249 222.023 340.987 222.061 344.725 221.939C345.003 221.958 345.282 221.91 345.538 221.799C345.725 221.676 345.88 221.51 345.99 221.315C346.099 221.12 346.161 220.901 346.169 220.677C346.574 217.117 345.885 213.518 344.192 210.36C342.692 207.108 341.389 202.692 340.099 199.342" fill="#484D6D"/>
<path d="M314.306 118.108C311.736 122.485 309.469 127.032 307.521 131.72C307.429 131.911 307.39 132.124 307.409 132.336C307.47 132.537 307.599 132.711 307.774 132.827C308.381 133.181 309.076 133.356 309.778 133.332C312.316 133.472 314.867 133.5 317.418 133.416C317.605 133.42 317.791 133.386 317.965 133.318C318.088 133.231 318.191 133.118 318.266 132.987C318.341 132.856 318.386 132.711 318.399 132.561C318.646 130.137 318.158 127.694 316.998 125.552C315.974 123.337 315.077 120.323 314.194 118.052" fill="#484D6D"/>
<path d="M36.6803 1.81516L28.2695 17.7395C28.0172 18.2302 27.7929 18.861 28.2695 19.2535C28.5323 19.4431 28.8433 19.5549 29.1667 19.5759L40.7876 21.3141C41.2128 21.4273 41.6642 21.3876 42.0632 21.202C42.5678 20.8656 42.4978 20.1927 42.3716 19.646C40.9698 13.436 41.124 7.02984 37.3251 1.71704" fill="#484D6D"/>
<path d="M69.7066 28.5474C66.367 33.8296 63.9495 39.641 62.5575 45.7334C62.3423 46.9057 62.0185 48.0555 61.5902 49.1678C61.4938 49.3393 61.4409 49.5319 61.436 49.7285C61.5061 50.2752 62.2771 50.4435 62.8378 50.4715C66.576 50.6771 70.3421 50.8593 74.1363 51.0182C74.3045 51.0182 74.5008 51.0182 74.6129 50.9201C74.6667 50.8652 74.7074 50.7989 74.7316 50.726C74.7559 50.6531 74.7633 50.5757 74.7531 50.4995C74.7531 43.3784 73.87 34.2948 69.5244 28.3231" fill="#484D6D"/>
<path d="M95.724 14.7397L89.9206 29.4305C89.8803 29.5185 89.8594 29.6141 89.8594 29.7109C89.8594 29.8077 89.8803 29.9033 89.9206 29.9913C90.0608 30.3137 90.5514 30.3277 90.9439 30.2997L97.5043 29.6548C97.7137 29.6503 97.9177 29.5871 98.093 29.4726C98.1659 29.3913 98.2209 29.2957 98.2547 29.1919C98.2885 29.0881 98.3003 28.9784 98.2893 28.8698C98.2893 24.3701 96.5651 18.8049 96.3128 14.3052" fill="#484D6D"/>
<path d="M115.77 38.8646C114.949 45.7244 113.451 52.486 111.298 59.0505C111.218 59.2192 111.177 59.4035 111.177 59.5902C111.177 59.7768 111.218 59.9611 111.298 60.1299C111.449 60.2791 111.629 60.3958 111.826 60.4729C112.024 60.5501 112.235 60.586 112.447 60.5784C115.602 60.9148 118.783 60.9148 121.938 60.5784C122.173 60.5675 122.402 60.5053 122.611 60.3962C123.115 60.0738 123.003 59.3869 122.821 58.8402C120.606 52.462 116.583 46.224 115.812 39.5795" fill="#484D6D"/>
<path d="M317.628 163.624C316.808 170.484 315.31 177.246 313.157 183.81C313.077 183.979 313.035 184.163 313.035 184.35C313.035 184.537 313.077 184.721 313.157 184.89C313.308 185.039 313.487 185.156 313.685 185.233C313.883 185.31 314.094 185.346 314.306 185.338C317.461 185.675 320.642 185.675 323.796 185.338C324.031 185.327 324.261 185.265 324.469 185.156C324.974 184.834 324.862 184.147 324.679 183.6C322.465 177.222 318.441 170.984 317.67 164.339" fill="#484D6D"/>
<path d="M97.5465 194.464C96.7261 201.324 95.2282 208.085 93.0747 214.65C92.9949 214.818 92.9535 215.003 92.9535 215.189C92.9535 215.376 92.9949 215.56 93.0747 215.729C93.2256 215.878 93.4054 215.995 93.6031 216.072C93.8008 216.149 94.0122 216.185 94.2242 216.178C97.3787 216.514 100.56 216.514 103.714 216.178C103.949 216.167 104.179 216.105 104.387 215.995C104.892 215.673 104.78 214.986 104.598 214.439C102.383 208.061 98.3595 201.823 97.5885 195.179" fill="#484D6D"/>
<path d="M544.957 321.004C543.775 318.936 542.834 316.74 542.154 314.458C541.537 312.018 541.551 309.495 541.159 307.028C540.912 304.457 539.759 302.057 537.906 300.257C537.733 300.064 537.514 299.918 537.268 299.832C537.023 299.746 536.761 299.724 536.505 299.767C536.3 299.838 536.113 299.953 535.958 300.103C531.5 303.846 530.533 309.762 529.818 315.215L529.271 319.42C529.187 320.107 529.187 320.962 529.846 321.326C530.098 321.438 530.37 321.5 530.645 321.509L539.266 322.504C541.228 322.863 543.243 322.806 545.182 322.336" fill="#484D6D"/>
<path d="M613.491 326.135C615.723 320.387 618.365 314.808 621.397 309.439C621.495 309.194 621.644 308.973 621.836 308.792C622.027 308.61 622.255 308.472 622.505 308.388C623.444 308.178 624.117 309.187 624.411 310.014C626.495 315.703 627.906 321.617 628.617 327.634C628.68 327.835 628.68 328.05 628.617 328.251C628.439 328.454 628.196 328.588 627.93 328.63C622.589 330.13 618.229 330.326 613.575 327.55" fill="#484D6D"/>
<path d="M589.941 297.692L591.988 289.52C592.646 286.87 593.389 284.067 595.52 282.118C595.732 281.898 595.998 281.739 596.291 281.656C597.006 281.487 597.693 282.062 598.043 282.623C599.408 284.814 600.292 287.27 600.637 289.828C601.071 292.015 601.492 294.202 601.912 296.374C602.137 297.594 602.277 299.038 601.239 299.837C600.534 300.286 599.705 300.502 598.87 300.454C595.714 300.586 592.565 300.046 589.633 298.87" fill="#484D6D"/>
<path d="M652.994 275.291C649.728 281.095 646.545 287.024 644.989 293.374C644.921 293.539 644.896 293.719 644.918 293.896C644.94 294.073 645.008 294.241 645.116 294.384C645.333 294.542 645.591 294.634 645.859 294.65C649.653 295.14 653.506 294.878 657.199 293.879C657.602 293.802 657.978 293.623 658.293 293.36C658.566 293.061 658.738 292.684 658.783 292.281C659.141 291.096 659.222 289.844 659.021 288.622C658.587 286.744 656.961 285.314 655.755 283.73C654.032 281.483 653.136 278.711 653.218 275.88" fill="#484D6D"/>
<path d="M578.418 243.919C574.179 249.534 571.218 256.007 569.741 262.885C569.673 263.072 569.645 263.271 569.66 263.469C569.674 263.667 569.73 263.86 569.825 264.035C570.114 264.368 570.521 264.574 570.961 264.61C574.9 265.465 579.021 264.708 582.988 263.937C583.479 263.903 583.946 263.711 584.32 263.39C584.568 263.074 584.706 262.685 584.712 262.283C585.329 255.834 582.301 249.582 578.895 243.863" fill="#484D6D"/>
<path d="M578.418 315.411C574.179 321.026 571.218 327.499 569.741 334.377C569.673 334.564 569.645 334.763 569.66 334.961C569.674 335.159 569.73 335.352 569.825 335.527C570.114 335.859 570.521 336.066 570.961 336.101C574.9 336.956 579.021 336.199 582.988 335.428C583.479 335.394 583.946 335.203 584.32 334.882C584.568 334.566 584.706 334.176 584.712 333.774C585.329 327.326 582.301 321.074 578.895 315.355" fill="#484D6D"/>
<path d="M529.552 223.327C524.947 227.878 521.892 233.764 520.819 240.148C520.729 240.487 520.769 240.847 520.931 241.158C521.09 241.326 521.281 241.461 521.493 241.555C521.705 241.648 521.933 241.699 522.164 241.704C524.22 242.01 526.296 242.169 528.374 242.181C530.421 242.181 532.734 241.929 533.981 240.443C535.495 238.578 534.388 235.999 533.491 233.84C532.104 230.207 531.058 226.453 530.365 222.626" fill="#484D6D"/>
<path d="M551.672 259.97C548.646 266.888 546.271 274.073 544.579 281.431C544.509 281.74 544.467 282.118 544.733 282.328C544.93 282.451 545.162 282.505 545.392 282.483L556.41 282.805C556.761 282.866 557.122 282.791 557.42 282.595C557.611 282.4 557.721 282.139 557.728 281.866C558.331 277.843 556.55 273.862 554.812 270.119C553.41 267.063 553.2 262.675 551.784 259.619" fill="#484D6D"/>
<path d="M622.883 246.022C619.003 252.418 615.606 259.095 612.72 265.998C612.635 266.156 612.6 266.337 612.622 266.516C612.734 266.867 613.225 266.951 613.631 266.979L626.794 267.694C627.748 267.694 628.967 267.694 629.261 266.825C629.36 266.51 629.36 266.172 629.261 265.857C628.364 262.339 626.023 259.297 624.033 256.171C622.042 253.045 622.827 250.564 623.304 247.003" fill="#484D6D"/>
<path d="M631.63 348.661C630.81 355.521 629.312 362.283 627.159 368.847C627.079 369.016 627.037 369.2 627.037 369.387C627.037 369.574 627.079 369.758 627.159 369.927C627.309 370.076 627.489 370.193 627.687 370.27C627.885 370.347 628.096 370.383 628.308 370.375C631.463 370.712 634.644 370.712 637.798 370.375C638.033 370.364 638.263 370.302 638.471 370.193C638.976 369.871 638.864 369.184 638.681 368.637C636.467 362.259 632.443 356.021 631.672 349.376" fill="#484D6D"/>
<path d="M267.164 218.294C266.343 225.154 264.845 231.916 262.692 238.48C262.612 238.649 262.571 238.833 262.571 239.02C262.571 239.207 262.612 239.391 262.692 239.56C262.843 239.709 263.023 239.826 263.22 239.903C263.418 239.98 263.629 240.016 263.841 240.008C266.996 240.345 270.177 240.345 273.332 240.008C273.566 239.997 273.796 239.935 274.004 239.826C274.509 239.504 274.397 238.817 274.215 238.27C272 231.892 267.977 225.654 267.206 219.009" fill="#484D6D"/>
<path d="M149.076 46.5464L143.469 62.1765C143.302 62.5205 143.258 62.9111 143.343 63.2839C143.567 63.9848 144.534 64.1951 145.333 64.2932C149.748 64.8139 154.191 65.062 158.636 65.0361C158.791 65.0515 158.947 65.0223 159.085 64.952C159.365 64.7698 159.211 64.3773 159.085 64.1109C155.398 58.2234 153.155 52.4901 149.469 46.6165" fill="#484D6D"/>
<path opacity="0.3" d="M149.076 46.5464L143.469 62.1765C143.302 62.5205 143.258 62.9111 143.343 63.2839C143.567 63.9848 144.534 64.1951 145.333 64.2932C149.748 64.8139 154.191 65.062 158.636 65.0361C158.791 65.0515 158.947 65.0223 159.085 64.952C159.365 64.7698 159.211 64.3773 159.085 64.1109C155.398 58.2234 153.155 52.4901 149.469 46.6165" fill="#484D6D"/>
<path opacity="0.5" d="M17.8824 200.45C16.7002 198.382 15.7594 196.185 15.0788 193.903C14.4621 191.464 14.4761 188.941 14.0836 186.474C13.8447 183.913 12.7076 181.52 10.8735 179.717C10.7 179.524 10.4806 179.378 10.2355 179.292C9.99047 179.206 9.72773 179.183 9.47167 179.226C9.2671 179.297 9.08051 179.412 8.92497 179.563C4.46726 183.306 3.50002 189.221 2.78511 194.674L2.2384 198.88C2.1543 199.566 2.1543 200.421 2.81314 200.786C3.06529 200.897 3.33659 200.959 3.61217 200.968L12.2332 201.963C14.1951 202.323 16.2105 202.265 18.1488 201.795" fill="white"/>
<path opacity="0.3" d="M50.2498 160.316L52.2684 152.144C52.9272 149.494 53.6702 146.691 55.8009 144.742C56.0125 144.522 56.2785 144.363 56.5719 144.28C57.2868 144.111 57.9737 144.686 58.3241 145.247C59.6891 147.438 60.5731 149.894 60.9175 152.452C61.352 154.639 61.7726 156.826 62.1931 158.998C62.4174 160.218 62.5576 161.662 61.5202 162.461C60.8149 162.91 59.9861 163.126 59.1512 163.078C56.0039 163.206 52.865 162.666 49.9414 161.494" fill="white"/>
<path opacity="0.3" d="M62.5577 178.035C58.3187 183.65 55.3573 190.123 53.8806 197.001C53.8123 197.188 53.7845 197.387 53.799 197.585C53.8135 197.783 53.87 197.976 53.9647 198.151C54.2533 198.483 54.661 198.69 55.1001 198.725C59.0392 199.58 63.1605 198.823 67.1275 198.052C67.6431 198.034 68.1372 197.841 68.5293 197.506C68.7779 197.19 68.9158 196.8 68.9218 196.398C69.5386 189.95 66.5107 183.698 63.1044 177.979" fill="white"/>
<path opacity="0.5" d="M23.097 76.4047C18.7086 82.966 14.6795 89.7607 11.0276 96.7587C10.8596 97.0292 10.7631 97.3379 10.7472 97.6559C10.7472 98.539 11.9948 98.9035 12.976 99.0577C16.0995 99.738 19.3221 99.8331 22.4802 99.338C25.5922 98.6371 28.5079 96.4363 28.7603 93.5767C28.9845 91.0815 27.2183 88.8386 25.7885 86.6938C23.854 83.7641 24.2044 79.2783 23.3073 75.9841" fill="white"/>
<path opacity="0.5" d="M95.8082 96.0299C91.9283 102.426 88.5311 109.103 85.6452 116.005C85.5595 116.164 85.5252 116.345 85.5471 116.524C85.6592 116.875 86.1498 116.959 86.5564 116.987L99.7192 117.702C100.672 117.702 101.892 117.702 102.186 116.833C102.284 116.518 102.284 116.18 102.186 115.865C101.289 112.347 98.9482 109.305 96.9577 106.179C94.9671 103.053 95.7521 100.572 96.2287 97.0112" fill="white"/>
<path opacity="0.5" d="M36.6804 1.81516L28.2697 17.7395C28.0173 18.2302 27.793 18.861 28.2697 19.2535C28.5325 19.4431 28.8434 19.5549 29.1668 19.5759L40.7877 21.3141C41.2129 21.4273 41.6644 21.3876 42.0633 21.202C42.568 20.8656 42.4979 20.1927 42.3717 19.646C40.9699 13.436 41.1241 7.02984 37.3253 1.71704" fill="white"/>
<path opacity="0.3" d="M69.7066 28.5474C66.367 33.8296 63.9495 39.641 62.5575 45.7334C62.3423 46.9057 62.0185 48.0554 61.5902 49.1677C61.4938 49.3393 61.4409 49.5318 61.436 49.7285C61.5061 50.2752 62.2771 50.4434 62.8378 50.4714C66.576 50.677 70.3421 50.8593 74.1363 51.0181C74.3045 51.0181 74.5008 51.0181 74.6129 50.92C74.6667 50.8652 74.7074 50.7988 74.7316 50.7259C74.7559 50.6531 74.7633 50.5756 74.7531 50.4995C74.7531 43.3784 73.87 34.2947 69.5244 28.3231" fill="white"/>
<path opacity="0.5" d="M115.77 38.8646C114.949 45.7244 113.451 52.486 111.298 59.0505C111.218 59.2192 111.177 59.4035 111.177 59.5902C111.177 59.7768 111.218 59.9611 111.298 60.1299C111.449 60.2791 111.629 60.3958 111.826 60.4729C112.024 60.5501 112.235 60.586 112.447 60.5784C115.602 60.9148 118.783 60.9148 121.938 60.5784C122.173 60.5675 122.402 60.5053 122.611 60.3962C123.115 60.0738 123.003 59.3869 122.821 58.8402C120.606 52.462 116.583 46.224 115.812 39.5795" fill="white"/>
<path opacity="0.5" d="M273.85 158.396C270.964 162.206 268.949 166.604 267.949 171.278C267.896 171.402 267.869 171.536 267.869 171.671C267.869 171.806 267.896 171.939 267.949 172.063C268.152 172.28 268.425 172.419 268.72 172.456C271.447 172.848 274.226 172.69 276.892 171.993C277.229 171.968 277.548 171.835 277.803 171.615C277.976 171.407 278.066 171.142 278.056 170.872C278.49 166.484 276.429 162.237 274.116 158.354" fill="white"/>
<path opacity="0.5" d="M240.922 95.1046L236.717 102.941C235.673 105.045 234.424 107.04 232.988 108.898C232.567 109.417 232.105 110.132 232.539 110.637C232.722 110.786 232.933 110.896 233.159 110.961C233.386 111.026 233.623 111.045 233.857 111.015C236.913 111.015 239.955 111.015 243.011 111.015C243.297 111.038 243.584 110.98 243.838 110.847C244.057 110.692 244.211 110.463 244.272 110.202C244.805 108.221 244.732 106.127 244.062 104.188C243.368 101.432 242.463 98.7324 241.357 96.1139" fill="white"/>
<path opacity="0.5" d="M340.169 199.44C336.389 205.873 333.064 212.562 330.216 219.458C330.06 219.734 329.996 220.054 330.034 220.369C330.12 220.668 330.315 220.923 330.581 221.084C331.467 221.603 332.483 221.861 333.51 221.827C337.249 222.023 340.987 222.06 344.725 221.939C345.003 221.958 345.282 221.91 345.538 221.799C345.725 221.676 345.88 221.51 345.99 221.315C346.099 221.12 346.161 220.901 346.169 220.677C346.574 217.117 345.885 213.518 344.192 210.36C342.692 207.108 341.389 202.692 340.099 199.342" fill="white"/>
<path opacity="0.3" d="M317.628 163.624C316.808 170.484 315.31 177.246 313.157 183.81C313.077 183.979 313.035 184.163 313.035 184.35C313.035 184.537 313.077 184.721 313.157 184.89C313.308 185.039 313.487 185.156 313.685 185.233C313.883 185.31 314.094 185.346 314.306 185.338C317.461 185.675 320.642 185.675 323.796 185.338C324.031 185.327 324.261 185.265 324.469 185.156C324.974 184.834 324.862 184.147 324.679 183.6C322.465 177.222 318.441 170.984 317.67 164.339" fill="white"/>
<path opacity="0.3" d="M267.164 218.294C266.343 225.154 264.845 231.916 262.692 238.48C262.612 238.649 262.571 238.833 262.571 239.02C262.571 239.207 262.612 239.391 262.692 239.56C262.843 239.709 263.023 239.826 263.22 239.903C263.418 239.98 263.629 240.016 263.841 240.008C266.996 240.345 270.177 240.345 273.332 240.008C273.566 239.997 273.796 239.935 274.004 239.826C274.509 239.504 274.397 238.817 274.215 238.27C272 231.892 267.977 225.654 267.206 219.009" fill="white"/>
<path opacity="0.3" d="M652.994 275.291C649.728 281.095 646.545 287.024 644.989 293.374C644.921 293.539 644.896 293.719 644.918 293.896C644.94 294.073 645.008 294.241 645.116 294.384C645.333 294.542 645.591 294.634 645.859 294.65C649.653 295.14 653.506 294.878 657.199 293.879C657.602 293.802 657.978 293.623 658.293 293.36C658.566 293.061 658.738 292.684 658.783 292.281C659.141 291.096 659.222 289.844 659.021 288.622C658.587 286.744 656.961 285.314 655.755 283.73C654.032 281.483 653.136 278.711 653.218 275.88" fill="white"/>
<path opacity="0.5" d="M578.418 243.919C574.179 249.534 571.218 256.007 569.741 262.885C569.673 263.072 569.645 263.271 569.66 263.469C569.674 263.667 569.73 263.86 569.825 264.035C570.114 264.368 570.521 264.574 570.961 264.61C574.9 265.465 579.021 264.708 582.988 263.937C583.479 263.903 583.946 263.711 584.32 263.39C584.568 263.074 584.706 262.685 584.712 262.283C585.329 255.834 582.301 249.582 578.895 243.863" fill="white"/>
<path opacity="0.3" d="M578.418 315.411C574.179 321.026 571.218 327.499 569.741 334.377C569.673 334.564 569.645 334.763 569.66 334.961C569.674 335.159 569.73 335.352 569.825 335.527C570.114 335.859 570.521 336.066 570.961 336.101C574.9 336.956 579.021 336.199 582.988 335.428C583.479 335.394 583.946 335.203 584.32 334.882C584.568 334.566 584.706 334.176 584.712 333.774C585.329 327.326 582.301 321.074 578.895 315.355" fill="white"/>
<path opacity="0.3" d="M551.672 259.97C548.646 266.887 546.271 274.072 544.579 281.431C544.509 281.74 544.467 282.118 544.733 282.328C544.93 282.451 545.162 282.505 545.392 282.483L556.41 282.805C556.761 282.866 557.122 282.79 557.42 282.595C557.611 282.4 557.721 282.139 557.728 281.866C558.331 277.843 556.55 273.861 554.812 270.119C553.41 267.063 553.2 262.675 551.784 259.619" fill="white"/>
<path opacity="0.5" d="M631.63 348.661C630.81 355.521 629.312 362.283 627.159 368.847C627.079 369.016 627.037 369.2 627.037 369.387C627.037 369.574 627.079 369.758 627.159 369.927C627.309 370.076 627.489 370.193 627.687 370.27C627.885 370.347 628.096 370.383 628.308 370.375C631.463 370.712 634.644 370.712 637.798 370.375C638.033 370.364 638.263 370.302 638.471 370.193C638.976 369.871 638.864 369.184 638.681 368.637C636.467 362.259 632.443 356.021 631.672 349.376" fill="white"/>
</svg>
