<svg width="498" height="283" viewBox="0 0 498 283" fill="none" xmlns="http://www.w3.org/2000/svg">
<path fill-rule="evenodd" clip-rule="evenodd" d="M306.428 6.84625C303.216 7.80287 299.961 8.7719 296.725 9.39422C292.599 10.1878 288.67 11.5691 284.642 12.9855C284.025 13.2026 283.405 13.4206 282.782 13.6374C281.005 14.2554 279.129 14.6117 277.347 14.95C277.245 14.9694 277.143 14.9888 277.042 15.0081C275.139 15.3704 273.353 15.7288 271.731 16.3638C271.093 16.6132 270.487 16.8701 269.892 17.1221C267.727 18.0391 265.716 18.8911 262.917 19.0842C259.39 19.3274 255.984 20.1184 252.489 20.9301C252.143 21.0105 251.796 21.0911 251.448 21.1714C247.616 22.0552 243.671 22.8963 239.518 22.8963C237.705 22.8963 235.859 22.9486 233.983 23.0026L233.893 23.0052C232.05 23.0582 230.18 23.112 228.312 23.1166C224.518 23.1258 220.685 22.9328 216.996 22.1014C215.079 21.6693 213.178 21.4672 211.217 21.2586C210.95 21.2302 210.682 21.2017 210.413 21.1725C208.187 20.9311 205.892 20.642 203.572 19.943C198.377 18.3784 192.888 17.0909 187.554 15.9391C185.935 15.5898 184.334 15.226 182.741 14.8643C177.474 13.6679 172.302 12.4933 166.942 11.9324C155.391 10.7235 144.209 9.79747 132.63 9.79747C128.45 9.79747 124.064 9.41177 119.675 9.02574L119.254 8.98866C114.706 8.58907 110.154 8.20158 105.724 8.22874C96.8885 8.28292 88.7035 9.98724 82.2642 16.4005L79.217 20.2095C79.0273 20.4467 78.74 20.5848 78.4362 20.5848C77.4809 20.5848 76.6795 21.0177 75.7326 21.6984C75.5609 21.8218 75.3802 21.9575 75.191 22.0995C74.414 22.6828 73.4936 23.3738 72.4597 23.7714C71.7452 24.0463 70.9967 24.3197 70.2367 24.5973C67.8226 25.479 65.2927 26.4032 63.366 27.55C61.5004 28.6605 60.2062 30.2711 58.9284 32.1254C58.6713 32.4984 58.4132 32.8844 58.1501 33.278C57.1361 34.7944 56.0483 36.4214 54.6655 37.8348C54.1695 38.3419 53.6753 38.8431 53.1846 39.3408C48.8934 43.693 44.8695 47.7741 42.1743 53.1644C38.3681 60.7768 35.45 68.2988 33.3448 76.5093C30.898 86.0516 27.3704 93.1283 21.9091 101.384C10.1951 119.091 -0.255293 140.138 3.94904 161.51C4.37767 163.689 4.82531 165.876 5.27414 168.069C6.26158 172.894 7.25475 177.746 8.06369 182.6C8.43353 184.819 8.61128 187.008 8.7844 189.141C8.82207 189.605 8.85953 190.066 8.8987 190.525C9.11962 193.11 9.39642 195.632 10.0572 198.18C12.0278 205.781 13.8022 211.87 20.1581 216.41C24.7271 219.673 29.4049 222.673 34.3422 225.286C43.5865 230.18 51.4544 236.775 59.2867 243.34C60.1897 244.097 61.0923 244.853 61.9965 245.607C64.2184 247.458 67.0132 248.856 69.9964 250.159C70.8682 250.54 71.7615 250.915 72.6586 251.292C74.7809 252.183 76.9246 253.083 78.8566 254.093C89.0071 259.399 100.895 265.23 112.08 266.658C116.932 267.277 121.691 268.175 126.448 269.073C127.726 269.314 129.005 269.556 130.285 269.791C132.503 270.2 134.794 270.411 137.139 270.628C137.433 270.655 137.728 270.682 138.023 270.71C140.655 270.956 143.339 271.24 145.918 271.857C157.779 274.693 168.769 276.866 180.898 278.214C190.088 279.235 199.384 279.145 208.706 279.056C209.999 279.043 211.292 279.031 212.585 279.021C235.013 278.856 256.493 273.764 278.184 268.264C287.907 265.799 297.856 262.355 306.631 257.569C314.663 253.188 323.597 250.296 332.238 247.499C333.67 247.036 335.094 246.575 336.505 246.11C355.242 239.938 374.095 232.845 391.573 223.658C397.286 220.656 402.803 216.371 406.269 211.069C407.457 209.252 408.804 207.698 410.13 206.209C410.273 206.048 410.415 205.888 410.558 205.729C411.745 204.399 412.899 203.105 413.961 201.651C415.6 199.409 417.413 197.26 419.202 195.14C419.735 194.508 420.266 193.879 420.789 193.251C423.086 190.494 425.264 187.727 427.001 184.706C428.529 182.047 430.094 179.429 431.654 176.823L431.875 176.454C433.362 173.969 434.843 171.494 436.291 168.993C436.963 167.834 437.616 166.624 438.283 165.388L438.467 165.048C439.196 163.698 439.945 162.322 440.739 160.982C442.326 158.306 444.13 155.718 446.424 153.679C447.952 152.32 450.042 152.193 451.787 152.174C452.107 152.171 452.413 152.172 452.71 152.172C453.286 152.173 453.829 152.174 454.371 152.147C455.177 152.105 455.848 152.003 456.391 151.785C457.652 151.281 458.987 150.965 460.269 150.685C460.478 150.64 460.685 150.595 460.891 150.551C461.971 150.318 463.004 150.096 464.002 149.789C472.631 147.134 478.423 142.174 484.054 134.934C484.957 133.773 485.869 132.453 486.832 131.058C487.449 130.164 488.086 129.241 488.756 128.309C489.89 126.732 491.098 125.16 492.385 123.81C491.774 123.963 491.169 124.119 490.568 124.274C486.869 125.227 483.301 126.146 479.15 126.146C478.494 126.146 477.095 126.307 475.204 126.524C474.95 126.553 474.686 126.583 474.414 126.614C472.173 126.87 469.458 127.165 466.807 127.313C464.17 127.461 461.53 127.468 459.458 127.122C458.424 126.95 457.463 126.68 456.699 126.248C455.922 125.81 455.269 125.153 455.058 124.207C454.805 123.067 455.045 121.813 455.272 120.765C455.309 120.593 455.346 120.426 455.382 120.263C455.587 119.341 455.762 118.548 455.762 117.826V107.253C455.762 105.931 455.775 104.618 455.787 103.31C455.812 100.714 455.837 98.1371 455.763 95.5525C455.68 92.6636 454.881 89.4315 453.841 86.1565C453.322 84.5253 452.75 82.9008 452.185 81.3164C452.118 81.1264 452.05 80.9368 451.983 80.7478C451.49 79.3672 451.009 78.0182 450.59 76.7448C447.996 68.864 446.696 60.8418 446.516 52.5677C446.469 50.3872 446.174 47.5243 445.568 44.7614C444.957 41.976 444.053 39.4019 442.85 37.7168C439.881 33.561 434.715 30.5722 429.005 28.2228C425.08 26.6077 421.019 25.3384 417.345 24.1901C415.669 23.6662 414.074 23.1674 412.608 22.6725C409.658 21.6761 406.499 20.2534 403.308 18.8161C401.734 18.1072 400.153 17.3947 398.584 16.7281C393.761 14.6784 388.982 13.02 384.473 12.8791C375.123 12.5869 366.894 10.562 358.05 7.78236C346.193 4.05584 335.122 3.6333 322.692 3.6333C318.382 3.6333 314.108 4.63055 309.779 5.86289C308.669 6.17893 307.551 6.51183 306.428 6.84625ZM309.232 3.9393C313.597 2.69663 318.091 1.6333 322.692 1.6333C335.154 1.6333 346.484 2.05085 358.649 5.87437C367.42 8.63093 375.45 10.5961 384.536 10.88C389.441 11.0334 394.512 12.8246 399.366 14.8875C401.03 15.5944 402.66 16.329 404.255 17.0481C407.388 18.4596 410.387 19.8115 413.248 20.7777C414.634 21.2458 416.183 21.7301 417.832 22.2456C421.543 23.406 425.76 24.7247 429.766 26.3733C435.559 28.7568 441.169 31.9224 444.477 36.5543C445.917 38.5696 446.891 41.4591 447.521 44.333C448.156 47.2295 448.466 50.2216 448.516 52.5243C448.692 60.6128 449.962 68.4379 452.49 76.1195C452.9 77.3673 453.372 78.6906 453.866 80.0739L454.069 80.6453C454.634 82.2306 455.217 83.8837 455.747 85.5508C456.802 88.8727 457.671 92.3202 457.762 95.4954C457.837 98.1164 457.812 100.761 457.787 103.381C457.775 104.68 457.762 105.973 457.762 107.253V117.826C457.762 118.788 457.529 119.833 457.326 120.74C457.291 120.894 457.258 121.043 457.226 121.188C456.99 122.281 456.866 123.121 457.011 123.774C457.059 123.992 457.219 124.245 457.682 124.507C458.157 124.775 458.86 124.995 459.787 125.15C461.633 125.457 464.093 125.462 466.695 125.316C469.284 125.172 471.949 124.882 474.188 124.627C474.465 124.595 474.736 124.564 475.002 124.534C476.836 124.323 478.369 124.146 479.15 124.146C483.029 124.146 486.333 123.297 490.038 122.344C490.653 122.186 491.279 122.025 491.921 121.865C492.064 121.829 492.382 121.716 492.838 121.553L493.021 121.488C493.529 121.307 494.139 121.093 494.642 120.958C494.886 120.892 495.158 120.829 495.402 120.809C495.519 120.799 495.697 120.793 495.887 120.835C496.061 120.873 496.459 121.004 496.667 121.44C496.871 121.866 496.734 122.253 496.661 122.412C496.579 122.591 496.464 122.739 496.369 122.848C496.172 123.074 495.886 123.329 495.528 123.616C493.745 125.042 492.042 127.165 490.38 129.476C489.763 130.334 489.145 131.228 488.534 132.113C487.539 133.553 486.562 134.968 485.633 136.162C479.842 143.607 473.735 148.887 464.59 151.7C463.501 152.036 462.37 152.279 461.291 152.51C461.091 152.554 460.892 152.596 460.695 152.639C459.419 152.918 458.227 153.205 457.134 153.642C456.289 153.98 455.361 154.099 454.473 154.144C453.88 154.174 453.243 154.173 452.635 154.172C452.35 154.172 452.072 154.171 451.808 154.174C450.019 154.193 448.661 154.366 447.752 155.173C445.685 157.011 444.007 159.394 442.46 162.002C441.688 163.304 440.956 164.648 440.227 165.998L440.039 166.345C439.375 167.576 438.708 168.81 438.022 169.995C436.566 172.51 435.078 174.997 433.592 177.479L433.37 177.85C431.809 180.457 430.253 183.062 428.735 185.703C426.907 188.881 424.637 191.757 422.326 194.531C421.784 195.181 421.241 195.825 420.701 196.466C418.921 198.575 417.169 200.651 415.576 202.831C414.453 204.369 413.231 205.737 412.051 207.059C411.908 207.219 411.766 207.379 411.624 207.538C410.303 209.023 409.043 210.481 407.943 212.163C404.232 217.839 398.406 222.326 392.504 225.429C374.885 234.69 355.913 241.823 337.131 248.01C335.701 248.481 334.265 248.946 332.826 249.412C324.176 252.213 315.442 255.041 307.589 259.324C298.622 264.216 288.502 267.712 278.675 270.203C256.994 275.7 235.298 280.854 212.6 281.021C211.313 281.031 210.023 281.043 208.731 281.056C199.421 281.146 189.996 281.237 180.677 280.202C168.439 278.842 157.364 276.65 145.453 273.802C143.026 273.222 140.47 272.948 137.837 272.701C137.544 272.674 137.249 272.647 136.954 272.619C134.621 272.404 132.235 272.184 129.923 271.758C128.623 271.519 127.332 271.275 126.045 271.032C121.297 270.137 116.614 269.253 111.827 268.642C100.236 267.162 88.0462 261.153 77.9301 255.865C76.0758 254.896 74.0594 254.05 71.9743 253.175C71.0586 252.79 70.1297 252.4 69.1955 251.992C66.1829 250.675 63.1677 249.186 60.7161 247.143C59.8102 246.388 58.9086 245.633 58.009 244.879C50.1542 238.297 42.452 231.843 33.4064 227.054C28.372 224.389 23.6177 221.339 18.9956 218.037C11.9874 213.031 10.0836 206.251 8.12122 198.682C7.41597 195.962 7.12861 193.301 6.90597 190.695C6.86527 190.219 6.82678 189.745 6.78845 189.274C6.6154 187.145 6.44558 185.057 6.0909 182.929C5.28809 178.112 4.30733 173.32 3.32366 168.514C2.87299 166.313 2.42171 164.108 1.98665 161.896C-2.3841 139.678 8.5001 118.028 20.2411 100.28C25.6115 92.1622 29.0288 85.2891 31.4074 76.0126C33.552 67.6486 36.5236 59.9936 40.3855 52.27C43.2314 46.5782 47.4863 42.2667 51.7509 37.9453C52.2465 37.4432 52.7422 36.9409 53.2359 36.4363C54.4759 35.1686 55.4312 33.7419 56.4326 32.2461C56.7097 31.8322 56.9904 31.413 57.2816 30.9905C58.5948 29.0848 60.0902 27.1724 62.343 25.8314C64.448 24.5784 67.2421 23.559 69.6881 22.6666C70.4121 22.4024 71.1057 22.1494 71.7418 21.9047C72.4904 21.6168 73.1215 21.1456 73.8705 20.5863C74.09 20.4225 74.3195 20.2511 74.5652 20.0745C75.4724 19.4223 76.5596 18.7452 77.9359 18.6093L80.7374 15.1075C80.7604 15.0787 80.7851 15.0512 80.8111 15.0251C87.7955 8.04074 96.6286 6.28447 105.712 6.22878C110.25 6.20096 114.893 6.59782 119.429 6.99634L119.812 7.03007C124.231 7.41866 128.539 7.79747 132.63 7.79747C144.313 7.79747 155.575 8.73191 167.15 9.94324C172.641 10.5178 177.97 11.7285 183.26 12.9305C184.834 13.2881 186.405 13.645 187.976 13.9842C193.329 15.1399 198.878 16.4405 204.148 18.028C206.277 18.6692 208.412 18.9437 210.628 19.1842C210.892 19.2128 211.157 19.2409 211.424 19.2692C213.375 19.4763 215.397 19.6909 217.436 20.1503C220.911 20.9335 224.571 21.1257 228.307 21.1166C230.148 21.1121 231.996 21.0589 233.846 21.0057L233.925 21.0034C235.797 20.9496 237.672 20.8963 239.518 20.8963C243.419 20.8963 247.166 20.1066 250.999 19.2225C251.349 19.1417 251.7 19.0601 252.052 18.9783C255.522 18.1716 259.084 17.3437 262.779 17.0889C265.216 16.9208 266.861 16.2267 268.963 15.3392C269.59 15.0742 270.259 14.7919 271.002 14.5013C272.822 13.789 274.785 13.4019 276.667 13.0434L276.93 12.9934C278.749 12.6476 280.492 12.3164 282.125 11.7484C282.737 11.5354 283.35 11.3197 283.965 11.1035C287.983 9.68991 292.064 8.25406 296.348 7.43021C299.478 6.8283 302.591 5.90134 305.774 4.95358C306.916 4.61348 308.067 4.2707 309.232 3.9393Z" fill="#484D6D"/>
<path fill-rule="evenodd" clip-rule="evenodd" d="M308.958 2.97751C313.342 1.72964 317.946 0.633301 322.692 0.633301C335.17 0.633301 346.629 1.04836 358.949 4.92038C367.683 7.66542 375.613 9.60074 384.567 9.88054C389.671 10.04 394.888 11.8976 399.757 13.9671C401.432 14.6787 403.071 15.4173 404.664 16.1354L404.666 16.1364C407.809 17.5528 410.762 18.8827 413.568 19.8303C414.941 20.294 416.479 20.7748 418.13 21.2912L418.148 21.2967C421.849 22.4539 426.1 23.7833 430.147 25.4485C435.981 27.8491 441.812 31.1032 445.291 35.9731C446.848 38.1534 447.858 41.2005 448.498 44.1188C449.148 47.082 449.464 50.1388 449.516 52.5025C449.689 60.4983 450.944 68.2249 453.44 75.8069C453.846 77.0408 454.313 78.352 454.808 79.738L455.011 80.3095C455.576 81.8952 456.164 83.5628 456.7 85.248C457.763 88.5933 458.667 92.1486 458.762 95.4669C458.837 98.1073 458.812 100.769 458.787 103.383L458.787 103.391C458.775 104.69 458.762 105.978 458.762 107.253V117.826C458.762 118.9 458.508 120.034 458.312 120.912L458.301 120.959L458.299 120.969C458.266 121.119 458.234 121.262 458.204 121.4C457.973 122.467 457.903 123.09 457.976 123.5C458.003 123.525 458.063 123.573 458.174 123.636C458.505 123.823 459.078 124.018 459.951 124.163C461.685 124.452 464.054 124.463 466.64 124.318C469.197 124.175 471.837 123.889 474.074 123.633C474.351 123.602 474.622 123.571 474.887 123.54L474.986 123.529C476.743 123.327 478.311 123.146 479.15 123.146C482.884 123.146 486.071 122.332 489.789 121.376C490.403 121.218 491.033 121.056 491.678 120.894L491.68 120.894L491.684 120.893L491.701 120.888C491.715 120.884 491.733 120.878 491.756 120.871C491.803 120.856 491.863 120.836 491.937 120.811C492.085 120.76 492.272 120.693 492.503 120.611L492.685 120.546C493.189 120.367 493.835 120.14 494.381 119.992C494.64 119.922 494.983 119.84 495.32 119.812C495.479 119.799 495.771 119.785 496.103 119.858C496.395 119.923 497.164 120.162 497.57 121.009C497.964 121.835 497.689 122.57 497.57 122.828C497.431 123.133 497.245 123.365 497.123 123.505C496.866 123.799 496.524 124.099 496.153 124.396C494.484 125.731 492.848 127.758 491.192 130.06C490.582 130.909 489.969 131.796 489.357 132.682L489.348 132.695C488.36 134.124 487.369 135.559 486.422 136.776C480.552 144.324 474.287 149.763 464.884 152.656C463.754 153.004 462.587 153.255 461.521 153.484L461.502 153.488C461.376 153.515 461.251 153.542 461.128 153.569C461.055 153.584 460.981 153.6 460.909 153.616C459.635 153.894 458.515 154.167 457.505 154.571C456.509 154.969 455.454 155.095 454.524 155.143C453.905 155.174 453.247 155.173 452.648 155.172L452.633 155.172C452.348 155.172 452.076 155.171 451.819 155.174C450.005 155.193 449.014 155.39 448.417 155.921C446.464 157.657 444.847 159.938 443.32 162.512C442.559 163.795 441.836 165.123 441.106 166.474L440.919 166.82C440.256 168.048 439.583 169.296 438.888 170.496C437.428 173.017 435.937 175.509 434.452 177.989L434.45 177.993L434.228 178.363C432.667 180.971 431.115 183.569 429.602 186.201C427.729 189.458 425.412 192.389 423.094 195.171C422.55 195.824 422.005 196.47 421.465 197.11C419.681 199.225 417.953 201.274 416.384 203.421C415.231 204.999 413.982 206.398 412.81 207.711L412.797 207.725C412.654 207.885 412.512 208.044 412.371 208.203C411.052 209.686 409.836 211.096 408.78 212.71C404.947 218.574 398.966 223.161 392.969 226.314C375.28 235.612 356.248 242.765 337.443 248.96C336.011 249.431 334.572 249.897 333.134 250.363C324.467 253.169 315.825 255.971 308.068 260.202C299.004 265.146 288.799 268.668 278.921 271.172C257.244 276.668 235.441 281.853 212.607 282.021C211.322 282.031 210.033 282.043 208.741 282.056L208.711 282.056C199.421 282.146 189.946 282.238 180.566 281.196C168.275 279.83 157.157 277.629 145.22 274.775C142.87 274.213 140.377 273.944 137.744 273.697C137.451 273.67 137.157 273.642 136.862 273.615L136.838 273.613C134.521 273.399 132.098 273.176 129.742 272.742C128.44 272.502 127.146 272.258 125.86 272.015C121.107 271.118 116.453 270.241 111.701 269.634C99.9063 268.128 87.5659 262.031 77.4669 256.752C75.6567 255.805 73.6805 254.975 71.5873 254.097L71.5828 254.095C70.6696 253.711 69.7355 253.319 68.795 252.908C65.7676 251.585 62.6424 250.05 60.0759 247.911C59.1688 247.156 58.2662 246.399 57.3668 245.645C49.4987 239.052 41.8754 232.669 32.9386 227.938C27.8556 225.247 23.0631 222.172 18.4144 218.851C11.0801 213.612 9.11158 206.487 7.15322 198.933C6.42575 196.127 6.13311 193.396 5.9096 190.78C5.86874 190.302 5.83011 189.827 5.79184 189.356L5.79174 189.355C5.61818 187.22 5.45117 185.173 5.10451 183.093C4.30522 178.297 3.32826 173.524 2.34397 168.715L2.34335 168.712C1.89301 166.512 1.44117 164.304 1.00546 162.089C-3.4485 139.448 7.65257 117.497 19.4071 99.7285C24.732 91.6792 28.0942 84.9079 30.4388 75.7642C32.603 67.3235 35.6014 59.6021 39.491 51.8228C42.4081 45.9886 46.7578 41.5812 50.9917 37.2911L51.0392 37.2429C51.535 36.7405 52.0292 36.2397 52.521 35.737C53.6859 34.5462 54.592 33.1977 55.6016 31.6898L55.6036 31.6868C55.8796 31.2747 56.1632 30.851 56.4582 30.423C57.7893 28.4914 59.3853 26.4282 61.8315 24.9721C64.0174 23.671 66.8822 22.6258 69.2925 21.7465L69.3454 21.7272C70.0713 21.4623 70.7563 21.2124 71.3828 20.9714C71.9798 20.7418 72.5003 20.3614 73.2722 19.7851L73.2749 19.783C73.4928 19.6204 73.7285 19.4444 73.9815 19.2625C74.8346 18.6492 75.9624 17.921 77.4045 17.6728L79.9565 14.4828C80.0026 14.4251 80.0519 14.3701 80.104 14.318C87.3579 7.06405 96.5077 5.2852 105.706 5.2288C110.298 5.20064 114.987 5.6022 119.516 6.00017L119.9 6.03391C124.328 6.42333 128.591 6.79747 132.63 6.79747C144.365 6.79747 155.668 7.73612 167.254 8.94867C172.804 9.52945 178.181 10.7512 183.454 11.949L183.481 11.9553C185.057 12.3132 186.622 12.6689 188.187 13.0067C193.549 14.1644 199.128 15.4715 204.437 17.0705C206.47 17.6828 208.524 17.9501 210.736 18.19C210.998 18.2184 211.262 18.2464 211.528 18.2746L211.554 18.2774C213.489 18.4828 215.56 18.7026 217.655 19.1747C221.024 19.9338 224.598 20.1256 228.305 20.1166C230.13 20.1121 231.965 20.0594 233.818 20.0061L233.896 20.0038C235.766 19.9501 237.655 19.8963 239.518 19.8963C243.294 19.8963 246.941 19.1323 250.774 18.2481C251.123 18.1675 251.473 18.0861 251.826 18.0042L251.861 17.9961C255.308 17.1947 258.935 16.3516 262.71 16.0913C264.964 15.9358 266.471 15.3058 268.574 14.4179L268.578 14.4159C269.204 14.1519 269.883 13.8654 270.637 13.57C272.557 12.8191 274.607 12.4177 276.48 12.0611L276.743 12.011C278.577 11.6625 280.245 11.3434 281.796 10.8039C282.406 10.5916 283.018 10.3765 283.633 10.1601L283.666 10.1486C287.662 8.74256 291.802 7.28609 296.159 6.4482C299.232 5.85732 302.297 4.94559 305.489 3.99516L305.492 3.99402C306.632 3.65457 307.788 3.31046 308.958 2.97751ZM322.692 4.6333C318.527 4.6333 314.364 5.59748 310.053 6.82468C308.949 7.13878 307.837 7.46994 306.713 7.80466L306.689 7.81187C303.493 8.76358 300.199 9.74448 296.914 10.3762C292.873 11.1535 289.014 12.5083 284.974 13.9288L284.969 13.9305C284.354 14.147 283.734 14.365 283.11 14.5819C281.264 15.2241 279.327 15.5919 277.567 15.9262L277.229 15.9905C275.316 16.3547 273.619 16.6988 272.095 17.295C271.472 17.5386 270.878 17.7902 270.282 18.0429L270.245 18.0585C268.094 18.9699 265.952 19.8772 262.985 20.0818C259.552 20.3186 256.223 21.0894 252.715 21.9042C252.37 21.9845 252.022 22.0653 251.673 22.1458C247.841 23.0296 243.796 23.8963 239.518 23.8963C237.722 23.8963 235.89 23.9481 234.011 24.0022L233.915 24.0049C232.077 24.0578 230.195 24.112 228.314 24.1166C224.491 24.1259 220.572 23.9324 216.776 23.0769C214.924 22.6596 213.081 22.4625 211.111 22.253C210.845 22.2246 210.576 22.196 210.305 22.1667C208.075 21.9247 205.699 21.6283 203.283 20.9005C198.127 19.3473 192.668 18.0664 187.343 16.9166C185.719 16.5661 184.113 16.2014 182.522 15.8401L182.52 15.8394C177.243 14.6409 172.129 13.4807 166.838 12.9269C155.298 11.7193 144.157 10.7975 132.63 10.7975C128.406 10.7975 123.984 10.4086 119.612 10.024L119.166 9.98482C114.612 9.58469 110.106 9.20189 105.73 9.22872C97.028 9.28208 89.1735 10.9568 83.0095 17.0697L79.9979 20.8342C79.6184 21.3086 79.0437 21.5848 78.4362 21.5848C77.8121 21.5848 77.2301 21.8534 76.3164 22.5103C76.1546 22.6266 75.9824 22.7558 75.7914 22.8992L75.7519 22.9288C74.9972 23.4956 73.9834 24.2568 72.8187 24.7048C72.0963 24.9827 71.3411 25.2585 70.5842 25.5349L70.5798 25.5366C68.1399 26.4278 65.7072 27.3202 63.8775 28.4093C62.2056 29.4045 61.0121 30.864 59.7518 32.6928C59.4994 33.059 59.2452 33.4392 58.9814 33.8338L58.9604 33.8652C57.9591 35.3627 56.8282 37.0542 55.3804 38.5341C54.8832 39.0424 54.3881 39.5445 53.8981 40.0415L53.8967 40.0429C49.588 44.4129 45.6816 48.386 43.0688 53.6116C39.2904 61.1684 36.399 68.6239 34.3134 76.7577C31.8326 86.4328 28.2499 93.6113 22.7431 101.935C11.0426 119.622 0.809113 140.368 4.93024 161.317C5.358 163.492 5.80487 165.675 6.25383 167.869L6.2556 167.877C7.24184 172.696 8.2381 177.563 9.05008 182.435C9.42685 184.696 9.60745 186.921 9.77962 189.042L9.78112 189.06C9.81882 189.524 9.85611 189.984 9.89507 190.44C10.1151 193.015 10.3867 195.467 11.0252 197.93C13 205.547 14.7097 211.289 20.7393 215.596C25.2818 218.841 29.9213 221.814 34.8101 224.403C44.1479 229.346 52.0839 235.998 59.8912 242.542L59.9291 242.574L59.9308 242.575C60.8334 243.332 61.7343 244.087 62.6366 244.839C64.7437 246.594 67.4283 247.946 70.3969 249.243C71.2609 249.621 72.1474 249.993 73.0457 250.37L73.0672 250.379C75.1745 251.264 77.3505 252.177 79.3199 253.207C89.4876 258.522 101.225 264.264 112.207 265.666C117.089 266.289 121.872 267.192 126.619 268.088L126.633 268.09C127.912 268.332 129.189 268.573 130.466 268.808C132.632 269.207 134.878 269.415 137.23 269.632C137.524 269.659 137.82 269.687 138.117 269.714C140.747 269.961 143.495 270.249 146.151 270.884C157.987 273.715 168.933 275.878 181.008 277.22C190.129 278.233 199.364 278.146 208.696 278.056L208.713 278.055C210 278.043 211.289 278.031 212.578 278.021C234.87 277.857 256.242 272.795 277.938 267.295C287.61 264.843 297.474 261.424 306.152 256.691C314.266 252.265 323.275 249.349 331.886 246.562L331.93 246.548C333.362 246.084 334.784 245.624 336.192 245.16C354.906 238.996 373.701 231.923 391.108 222.773C396.725 219.82 402.088 215.636 405.432 210.521C406.664 208.637 408.055 207.036 409.383 205.544C409.525 205.384 409.667 205.225 409.808 205.067L409.812 205.063C411.003 203.727 412.125 202.469 413.154 201.061C414.813 198.791 416.645 196.619 418.427 194.507L418.437 194.495L418.441 194.491C418.973 193.86 419.501 193.235 420.021 192.611C422.311 189.862 424.442 187.15 426.134 184.207C427.667 181.54 429.236 178.915 430.796 176.309L431.017 175.94C432.505 173.454 433.982 170.986 435.426 168.492C436.088 167.348 436.734 166.152 437.404 164.912L437.587 164.572C438.316 163.223 439.073 161.831 439.879 160.472C441.486 157.763 443.352 155.071 445.759 152.931C447.597 151.298 450.052 151.192 451.777 151.174C451.915 151.173 452.052 151.172 452.185 151.172C452.366 151.171 452.542 151.172 452.712 151.172C453.293 151.173 453.809 151.174 454.32 151.148C455.085 151.109 455.627 151.014 456.02 150.857C457.364 150.319 458.77 149.989 460.056 149.708C460.267 149.662 460.475 149.617 460.681 149.573C461.768 149.339 462.758 149.125 463.708 148.833C472.079 146.257 477.714 141.458 483.265 134.32C484.147 133.186 485.042 131.89 486.009 130.49C486.625 129.597 487.268 128.666 487.944 127.725C488.464 127.002 489.004 126.274 489.563 125.564C486.287 126.396 482.958 127.146 479.15 127.146C478.568 127.146 477.251 127.295 475.318 127.517L475.302 127.519C475.053 127.548 474.794 127.577 474.528 127.608C472.286 127.864 469.546 128.162 466.863 128.312C464.209 128.46 461.479 128.473 459.293 128.109C458.206 127.928 457.115 127.632 456.207 127.119C455.276 126.593 454.374 125.736 454.082 124.424C453.775 123.041 454.072 121.581 454.294 120.553C454.332 120.379 454.37 120.209 454.406 120.046C454.617 119.092 454.762 118.416 454.762 117.826V107.253C454.762 105.931 454.775 104.619 454.787 103.317L454.787 103.301C454.812 100.701 454.836 98.1434 454.763 95.5811C454.685 92.8353 453.921 89.711 452.888 86.4594C452.375 84.8462 451.808 83.2359 451.243 81.6519L451.041 81.0838L451.035 81.069C450.546 79.6959 450.062 78.34 449.64 77.0574C447.014 69.077 445.698 60.9563 445.517 52.5895C445.47 50.47 445.182 47.6717 444.591 44.9757C443.99 42.2344 443.122 39.8179 442.036 38.298C439.238 34.3803 434.293 31.4799 428.625 29.1476C424.746 27.5517 420.727 26.2948 417.047 25.1445L417.038 25.1417C415.368 24.6197 413.764 24.1183 412.288 23.62C409.291 22.6079 406.096 21.1686 402.926 19.7405L402.898 19.7279C401.322 19.0182 399.75 18.3102 398.193 17.6485C393.385 15.6052 388.752 14.0133 384.442 13.8786C374.96 13.5823 366.631 11.5275 357.75 8.73635C346.047 5.05834 335.107 4.6333 322.692 4.6333ZM309.505 4.90109C308.348 5.23057 307.202 5.57162 306.059 5.91199L306.034 5.91959C305.113 6.19369 304.194 6.46748 303.274 6.73298C304.229 6.45765 305.185 6.17299 306.143 5.88785L306.147 5.88659C307.267 5.55289 308.39 5.21868 309.505 4.90109ZM81.5581 15.6924C81.5448 15.7056 81.5316 15.7189 81.5183 15.7321C81.5183 15.7321 81.5183 15.7321 81.5183 15.7321L81.4847 15.7741C81.5077 15.7455 81.5322 15.7183 81.5581 15.6924ZM81.5581 15.6924C81.5582 15.6923 81.5579 15.6926 81.5581 15.6924ZM287.181 11.0415C286.218 11.3708 285.258 11.7085 284.297 12.0468L284.289 12.0496C283.677 12.2648 283.065 12.4802 282.453 12.6929C283.075 12.4767 283.693 12.2593 284.311 12.0421L284.345 12.03C285.29 11.6976 286.234 11.3654 287.181 11.0415ZM183.038 13.9056C181.349 13.5219 179.663 13.1389 177.974 12.7768C179.629 13.132 181.281 13.5071 182.935 13.8827L182.963 13.8891C184.556 14.251 186.153 14.6136 187.765 14.9616C186.189 14.6214 184.613 14.2635 183.041 13.9062L183.038 13.9056ZM119.75 8.02846C119.755 8.02884 119.759 8.02921 119.763 8.02959L119.75 8.02846ZM271.366 15.4325C270.637 15.7177 269.98 15.995 269.352 16.2604L269.311 16.2775C268.636 16.5624 267.994 16.8337 267.345 17.0764C268.057 16.8125 268.763 16.5145 269.502 16.2013L269.506 16.1997C270.098 15.9489 270.715 15.6873 271.366 15.4325ZM277.491 13.9046C277.379 13.926 277.267 13.9473 277.155 13.9685L277.161 13.9676C277.271 13.9466 277.381 13.9256 277.491 13.9046ZM403.845 17.9598C402.302 17.2647 400.738 16.5599 399.145 15.8802C400.668 16.5303 402.201 17.2207 403.716 17.9031L403.719 17.9044C404.475 18.245 405.227 18.5834 405.971 18.9144C405.276 18.6049 404.576 18.2895 403.873 17.9724L403.845 17.9598ZM412.928 21.7251C414.381 22.2157 415.965 22.7109 417.644 23.2356L417.662 23.2413C418.616 23.5395 419.599 23.8469 420.602 24.1673C419.555 23.8323 418.528 23.511 417.533 23.2L417.527 23.1981C415.884 22.6842 414.325 22.197 412.928 21.7251ZM78.4362 19.5848L78.7168 19.234C78.5494 19.4432 78.3052 19.5765 78.0388 19.604C78.0372 19.6042 78.0357 19.6043 78.0341 19.6045M255.365 19.2503C254.334 19.4746 253.306 19.7134 252.279 19.9523C251.927 20.0341 251.575 20.1159 251.223 20.1969C251.571 20.1169 251.917 20.0364 252.263 19.956L252.279 19.9523L252.301 19.9472C253.321 19.7103 254.342 19.4732 255.365 19.2503ZM213.525 20.5106C212.788 20.4198 212.053 20.3416 211.318 20.2637C211.06 20.2363 210.802 20.2089 210.546 20.181C210.805 20.2092 211.064 20.2367 211.322 20.2642L211.35 20.2671C212.074 20.3441 212.798 20.4212 213.525 20.5106ZM75.1349 20.8965C74.9029 21.0635 74.6847 21.2264 74.4688 21.3876L74.4161 21.427C74.204 21.5854 73.9903 21.745 73.7715 21.9C74.0479 21.7064 74.3202 21.5028 74.5906 21.2998L74.5951 21.2965C74.7761 21.1605 74.9589 21.0233 75.1349 20.8965ZM72.1008 22.8381C71.4566 23.0859 70.7563 23.3413 70.036 23.6041L70.0309 23.606C69.2595 23.8874 68.4661 24.1773 67.6785 24.4792C68.4036 24.2022 69.1301 23.9368 69.8364 23.6789L69.8936 23.658C70.6552 23.3798 71.3955 23.1093 72.1008 22.8381ZM78.4362 19.5848C78.3009 19.5848 78.1685 19.5914 78.0388 19.604ZM58.086 31.5854C57.806 31.9923 57.5351 32.3969 57.2635 32.8025L57.2401 32.8375C56.9247 33.3086 56.608 33.7817 56.2803 34.251C56.6346 33.7448 56.9777 33.2323 57.3188 32.7221L57.3209 32.719C57.5762 32.3371 57.8313 31.9556 58.086 31.5854ZM52.4649 38.6455L52.4627 38.6478C48.1823 42.9851 44.0438 47.1895 41.2799 52.7172C44.0461 47.1848 48.1652 43.0072 52.4206 38.6914L52.4725 38.6387C52.9634 38.1408 53.4562 37.641 53.9507 37.1355C53.456 37.6412 52.9595 38.1443 52.4649 38.6455ZM456.373 120.412L456.358 120.479C456.324 120.633 456.29 120.788 456.256 120.946C456.286 120.807 456.318 120.664 456.35 120.522C456.424 120.191 456.497 119.861 456.561 119.534C456.503 119.827 456.438 120.121 456.373 120.412ZM456.787 103.372C456.79 103.044 456.793 102.716 456.796 102.388C456.793 102.695 456.79 103.003 456.787 103.31L456.787 103.32C456.775 104.629 456.762 105.937 456.762 107.253C456.762 105.974 456.775 104.683 456.787 103.393L456.787 103.372ZM495.671 121.811C495.622 121.8 495.559 121.799 495.484 121.805C495.333 121.818 495.132 121.861 494.903 121.923C494.444 122.047 493.87 122.247 493.356 122.43C493.356 122.43 493.356 122.43 493.356 122.43L493.097 122.522C492.706 122.662 492.355 122.787 492.163 122.835C492.156 122.836 492.149 122.838 492.142 122.84C492.574 122.732 493.025 122.922 493.249 123.307C493.47 123.687 493.417 124.165 493.12 124.488C493.702 123.878 494.296 123.32 494.903 122.835C495.248 122.559 495.478 122.348 495.615 122.191C495.682 122.114 495.728 122.049 495.752 121.995C495.761 121.976 495.771 121.948 495.773 121.921C495.775 121.91 495.774 121.902 495.773 121.896C495.773 121.892 495.771 121.884 495.765 121.872C495.759 121.858 495.754 121.852 495.751 121.85C495.748 121.846 495.743 121.842 495.734 121.836C495.725 121.831 495.714 121.825 495.701 121.82C495.688 121.815 495.677 121.812 495.671 121.811ZM492.094 122.852C491.48 123.006 490.88 123.16 490.287 123.313L490.237 123.325C488.89 123.672 487.579 124.009 486.26 124.297C487.605 124.004 488.944 123.659 490.319 123.305L490.326 123.303C490.909 123.153 491.498 123.001 492.094 122.852ZM476.764 125.341C476.264 125.395 475.711 125.459 475.116 125.527C474.851 125.558 474.578 125.589 474.301 125.621C474.573 125.59 474.836 125.559 475.09 125.53L475.116 125.527L475.212 125.516C475.768 125.452 476.289 125.393 476.764 125.341ZM489.568 128.893C488.905 129.815 488.272 130.731 487.655 131.626L487.644 131.641C487.484 131.873 487.324 132.105 487.166 132.334C487.346 132.074 487.528 131.81 487.711 131.545L487.714 131.541C488.323 130.659 488.946 129.758 489.568 128.893ZM4.29417 168.268C3.84557 166.076 3.39725 163.886 2.96785 161.703C3.40204 163.91 3.85255 166.111 4.30335 168.314L4.30522 168.323C4.46979 169.127 4.63447 169.931 4.79828 170.736C4.63091 169.914 4.46266 169.091 4.29445 168.27L4.29417 168.268ZM461.123 151.524L461.101 151.528C460.896 151.573 460.69 151.617 460.482 151.662C460.68 151.619 460.881 151.576 461.081 151.533C461.458 151.452 461.835 151.371 462.211 151.286C461.849 151.368 461.486 151.446 461.123 151.524ZM452.723 153.172L452.708 153.172C452.41 153.172 452.11 153.171 451.798 153.174C452.069 153.171 452.353 153.172 452.636 153.172C452.779 153.173 452.92 153.173 453.062 153.173C452.949 153.173 452.836 153.172 452.723 153.172ZM7.78767 189.222C7.74427 188.687 7.70079 188.152 7.65432 187.616C7.69933 188.136 7.74143 188.655 7.78359 189.174L7.78516 189.193C7.82352 189.665 7.86185 190.136 7.90234 190.61C7.86296 190.149 7.82531 189.685 7.78767 189.222ZM419.969 195.782L419.966 195.785C419.742 196.051 419.518 196.316 419.294 196.582C419.504 196.333 419.714 196.085 419.923 195.836L419.936 195.821C420.477 195.18 421.018 194.539 421.558 193.891C421.033 194.521 420.501 195.151 419.969 195.782ZM49.4918 236.599C52.5778 239.023 55.5905 241.548 58.6118 244.079L58.6513 244.113L58.6575 244.118C59.5552 244.87 60.4537 245.623 61.3563 246.375C60.4508 245.62 59.5472 244.863 58.6443 244.106C55.6121 241.565 52.5883 239.031 49.4918 236.599ZM332.546 248.451C329.84 249.326 327.117 250.208 324.409 251.139C327.093 250.217 329.792 249.343 332.472 248.475L332.518 248.46C333.957 247.994 335.391 247.53 336.818 247.06C335.404 247.526 333.977 247.987 332.546 248.451ZM72.2688 252.213C71.4025 251.849 70.5324 251.484 69.6806 251.113C70.5786 251.504 71.4726 251.879 72.3614 252.252L72.3832 252.262C72.9132 252.484 73.4418 252.706 73.9668 252.93C73.406 252.69 72.8397 252.453 72.2715 252.214L72.2688 252.213ZM208.685 280.056C206.36 280.078 204.032 280.101 201.703 280.106C204.044 280.101 206.384 280.078 208.721 280.056C209.746 280.046 210.769 280.036 211.791 280.027C210.766 280.036 209.741 280.046 208.716 280.056L208.685 280.056ZM126.262 270.056C125.667 269.943 125.073 269.831 124.478 269.72C125.057 269.828 125.637 269.938 126.216 270.047L126.23 270.05C127.388 270.268 128.548 270.487 129.713 270.703C128.573 270.492 127.434 270.277 126.297 270.062L126.262 270.056ZM137.023 271.621C136.051 271.532 135.078 271.442 134.11 271.337C135.085 271.443 136.065 271.533 137.046 271.624L137.023 271.621Z" fill="#484D6D"/>
</svg>
