<svg width="406" height="80" viewBox="0 0 406 80" fill="none" xmlns="http://www.w3.org/2000/svg">
<path d="M5.57812 1.03125C2.4375 1.45312 0.890625 2.15625 0.890625 3.09375C1.125 9.23438 1.3125 15.5156 1.45312 21.8438C2.0625 29.0625 3 33.9375 4.26562 36.4688C6.1875 42.3281 9.42188 45.2812 14.0156 45.2812H14.5781C18.5625 45.2812 21.75 44.4844 24.1406 42.8438C24.4219 42.8438 24.6094 44.2969 24.7031 47.1562C24.7031 53.1094 22.6406 59.4375 18.5156 66.0938C18.5156 65.3906 18.2812 64.2656 17.7656 62.7188C17.2031 57.9844 16.8281 55.3125 16.6406 54.6562C16.4062 51.4219 15.9844 49.7812 15.3281 49.7812H14.5781C12.8438 49.7812 11.1094 50.0156 9.32812 50.5312C6.5625 50.9531 5.20312 52.125 5.20312 54.0938V56.1562C4.96875 59.2031 4.82812 60.8906 4.82812 61.2188V61.7812C4.82812 64.2656 4.96875 65.9062 5.20312 66.6562C6.09375 74.0156 7.78125 77.7188 10.2656 77.7188C11.7656 78.9844 13.0312 79.5938 14.0156 79.5938L16.6406 79.4062L17.9531 79.5938C18.375 79.5938 19.5469 79.2188 21.5156 78.4688C22.4531 78.2344 24.5156 76.6875 27.7031 73.7812C28.8281 72.7031 29.625 70.875 30.1406 68.3438C31.2188 66.8906 32.0625 64.7344 32.7656 61.7812C33.4219 61.7812 34.1719 57.1406 35.0156 47.9062C35.0156 47.2969 34.9688 46.6875 34.8281 46.0312C35.0625 44.9531 35.2031 43.5938 35.2031 41.9062V40.0312C34.6875 35.3906 34.4531 32.8594 34.4531 32.3438C32.2031 22.5 30.5625 13.2656 29.5781 4.59375C29.25 2.95312 28.5469 2.15625 27.5156 2.15625H26.5781C22.6875 2.15625 20.7656 3.28125 20.7656 5.53125L20.9531 6.65625C20.8125 8.34375 20.7656 9.79688 20.7656 10.9688V13.4062C20.7656 14.6719 20.9531 16.3125 21.3281 18.2812C21.1875 22.4062 21.1406 25.4062 21.1406 27.2812V27.4688C20.0156 32.3438 19.4531 35.1562 19.4531 35.9062H19.2656C19.0312 34.3594 18.8438 33.5156 18.7031 33.2812C17.2031 27.8906 15.2812 19.8281 12.8906 9.09375C12.5625 5.48438 12.1875 3.65625 11.7656 3.65625C11.7656 2.39062 9.70312 1.54688 5.57812 1.03125ZM55.5938 9C52.4062 9 49.3594 9.5625 46.4062 10.6875C45.3281 10.9219 44.2031 11.7188 43.0312 13.125C40.5469 20.25 39.2812 24.6094 39.2812 26.25C38.1562 30.5156 37.5938 33.1875 37.5938 34.3125C37.5938 34.4531 37.6406 34.6406 37.7812 34.875C37.1719 35.0625 36.8438 38.0156 36.8438 43.6875V44.4375C36.8438 46.0312 36.8906 47.8594 37.0312 49.875L36.6562 53.4375C36.7969 53.5781 36.8438 54.0469 36.8438 54.9375C37.875 60.0469 39.0469 63.8906 40.4062 66.375C41.8125 70.875 44.1094 73.125 47.3438 73.125H48.0938C48.8906 73.125 50.4375 72.8906 52.7812 72.375C55.125 72.8906 56.6719 73.125 57.4688 73.125C59.4844 73.125 60.7969 72.3281 61.4062 70.6875C62.8594 70.6875 63.8438 69.3281 64.4062 66.5625C66.5156 63.2812 67.5938 60.3281 67.5938 57.75C68.3438 53.3906 68.7188 49.9219 68.7188 47.25V46.875C68.7188 42.9375 68.3906 39.4219 67.7812 36.375C68.2969 33.9844 68.5312 32.6719 68.5312 32.4375C68.5312 31.8281 68.4844 31.5 68.3438 31.5C68.3438 26.7188 67.4531 22.2188 65.7188 18C64.0312 12 60.6562 9 55.5938 9ZM53.7188 18.5625C54.4688 21.1406 55.3594 24.4688 56.3438 28.5C56.2031 29.3438 56.1562 30.0469 56.1562 30.5625V31.5C56.6719 35.9531 56.9062 39.1406 56.9062 41.0625C56.9062 44.8594 56.6719 48.6094 56.1562 52.3125C55.3594 57.0469 54.4219 60.1875 53.3438 61.6875H53.1562C51.7969 54.5156 51.0938 48.7031 51.0938 44.25V42.375C51.0938 41.8594 51.0469 41.1562 50.9062 40.3125C51.1406 39.4688 51.2812 37.4062 51.2812 34.125V33.375C51.6562 32.9062 51.8438 32.4844 51.8438 32.0625V28.875C52.4531 23.8125 53.0156 20.3906 53.5312 18.5625H53.7188ZM98.8125 5.53125C96.1875 6.1875 94.875 7.35938 94.875 9.09375V13.7812C94.875 15.9844 95.0156 17.4375 95.25 18.0938H95.0625C95.1562 18.3281 95.2969 19.1719 95.4375 20.7188C95.2969 22.2188 95.2031 22.9688 95.0625 22.9688C94.9219 31.4531 94.6406 36.9844 94.125 39.4688C93 45.1406 92.4375 48.4219 92.4375 49.2188C91.125 55.9219 90.1406 59.625 89.4375 60.2812C89.0625 59.0156 88.7344 57.6562 88.5 56.1562H88.6875C88.1719 52.6875 87.9375 50.0156 87.9375 48.0938V45.2812C87.9375 44.2969 87.9844 42.9844 88.125 41.3438C87.9844 41.1094 87.9375 40.875 87.9375 40.5938L88.125 40.2188L87.75 35.5312C87.9844 33.7969 88.1719 31.4062 88.3125 28.4062C87.5625 24.375 87.1875 21.9844 87.1875 21.2812C87.1875 20.4375 87.3281 18.5625 87.5625 15.6562C87.5625 14.6719 87.3281 13.3125 86.8125 11.5312C85.3594 9.14062 83.4375 7.96875 81 7.96875C81 8.10938 80.9531 8.15625 80.8125 8.15625V7.96875L80.4375 8.15625H79.3125C77.8594 8.15625 76.4062 8.48438 75 9.09375C73.2656 9.09375 72.375 10.2188 72.375 12.4688V15.4688C71.4844 33 71.0625 42.75 71.0625 44.7188C71.0625 51.4688 71.8594 57.3281 73.5 62.3438C75.2812 66.6094 77.1562 70.0781 79.125 72.6562C81.4219 75.1406 83.4844 76.4062 85.3125 76.4062L85.6875 76.2188V76.4062L86.0625 76.2188H86.25C89.0156 76.2188 92.3906 75.3281 96.375 73.5938C101.203 70.9219 104.484 67.2656 106.125 62.7188C106.688 62.7188 107.203 58.5938 107.625 50.3438C108.891 45.7969 109.5 42.1406 109.5 39.2812C109.5 38.0625 109.453 35.8125 109.312 32.5312L109.5 29.9062L108.375 22.9688C107.016 16.4531 105.609 11.625 104.25 8.53125C103.641 6.51562 102.094 5.53125 99.5625 5.53125H98.8125ZM127.125 0.140625C125.578 0.28125 124.734 0.328125 124.688 0.328125C121.828 0.328125 119.016 1.59375 116.25 4.07812C115.641 5.95312 115.125 6.89062 114.75 6.89062C113.672 8.71875 112.781 12.3281 112.125 17.7656C112.125 19.875 112.266 21.7969 112.5 23.5781L112.125 25.8281C112.125 26.3438 112.172 26.8125 112.312 27.3281C112.172 29.25 112.125 30.9844 112.125 32.5781V34.2656C112.125 35.8594 112.266 37.5 112.5 39.1406L112.125 42.5156L113.062 53.3906C113.062 63.5625 113.953 71.5312 115.688 77.3906C116.109 78.5156 117.75 79.0781 120.562 79.0781C123.703 78.75 125.25 77.8594 125.25 76.4531C125.25 75.2812 125.016 74.0625 124.5 72.7031C124.641 72 124.688 71.4375 124.688 71.0156V67.4531C124.688 66 124.828 64.9688 125.062 64.4531C124.875 64.4531 124.734 63.7031 124.688 62.2031C124.922 60.0938 125.062 58.7812 125.062 58.2656H125.25C125.25 58.6406 125.438 59.25 125.812 60.1406C126.75 61.7344 127.547 64.0312 128.25 67.0781C129.984 70.125 131.25 72.6562 132 74.7656C133.125 78.1406 135.047 79.8281 137.812 79.8281C138.844 79.6875 140.203 79.4062 141.938 78.8906C143.203 78.4688 143.812 77.4375 143.812 75.7031V75.1406C143.812 74.0156 143.672 72.9375 143.438 71.9531C141.047 65.0625 139.875 61.3594 139.875 60.8906C138 57.4688 137.062 55.3125 137.062 54.5156C136.312 51.6094 134.297 48.2812 131.062 44.5781L131.25 44.2031C131.859 43.4531 133.266 42.1875 135.375 40.4531C137.25 37.9219 138.188 36.4219 138.188 35.9531C138.938 35.9531 139.828 31.0781 140.812 21.3281C140.812 20.9062 140.766 19.5938 140.625 17.3906C139.547 10.5469 137.953 6.04688 135.75 3.89062C134.391 1.40625 131.484 0.140625 127.125 0.140625ZM123 13.4531C123.188 8.71875 123.797 6.32812 124.875 6.32812H125.062C127.688 8.67188 129 13.0312 129 19.4531C129 26.9531 127.547 31.9688 124.688 34.4531L124.5 33.7031C124.5 30.8438 124.266 28.5938 123.75 26.9531C123.891 26.25 123.938 25.6875 123.938 25.2656V24.3281C123.328 20.1562 123 16.875 123 14.3906V13.4531ZM125.062 57.7031V58.0781H124.875V57.7031H125.062ZM179.25 3.75C177.375 4.03125 176.438 4.21875 176.438 4.3125C172.078 4.3125 169.875 5.67188 169.875 8.4375C169.875 9.51562 169.922 10.9219 170.062 12.5625C169.922 14.6719 169.875 16.2656 169.875 17.4375L170.438 21.1875C170.438 21.7031 170.297 23.1094 170.062 25.3125C170.062 29.6719 170.25 33.9375 170.625 38.0625C170.391 38.6719 170.25 40.125 170.25 42.375V44.625C170.25 45.6094 170.484 46.7344 171 48C170.766 50.3906 170.625 51.8906 170.625 52.5C170.766 56.25 170.953 58.125 171.188 58.125C171.75 63.4219 172.078 66.1406 172.125 66.1875C172.125 69.8906 172.828 73.3125 174.188 76.5C174.609 77.3906 175.734 77.8125 177.562 77.8125H177.75C184.266 77.2031 187.5 75.9844 187.5 74.25V73.6875C187.5 72.1406 187.125 70.4531 186.375 68.625C186.375 65.4375 185.953 62.5781 185.062 60C185.062 58.875 185.109 57.6094 185.25 56.25C184.641 52.3594 184.312 50.2969 184.312 50.0625C184.453 48.8906 184.5 47.7656 184.5 46.6875V45.375C184.5 44.8594 184.359 44.3438 184.125 43.875L184.312 43.125C184.312 42.2344 183.984 40.2656 183.375 37.3125C183.516 34.0312 183.562 31.7812 183.562 30.5625C183.562 30.2344 183.375 29.25 183 27.5625C184.734 27.3281 186.094 27.1875 187.125 27.1875L189.75 27.375C191.297 26.7656 192.188 26.2969 192.375 25.875C193.5 25.875 194.062 24.75 194.062 22.5C194.062 20.7656 192.891 19.875 190.5 19.875H186.75L186.375 20.0625C186.375 19.8281 185.109 19.7344 182.625 19.6875C182.25 19.6406 182.016 17.0156 181.875 11.8125V11.0625C182.766 11.2031 183.328 11.2969 183.562 11.4375L186.562 10.3125C186.984 10.3125 188.016 10.5 189.562 10.875C193.453 9.98438 195.375 8.85938 195.375 7.5C195.375 7.17188 195.328 6.70312 195.188 6C195.188 4.5 191.812 3.75 185.062 3.75C184.734 3.75 184.219 3.89062 183.562 4.125L179.25 3.75ZM215.156 9C211.969 9 208.922 9.5625 205.969 10.6875C204.891 10.9219 203.766 11.7188 202.594 13.125C200.109 20.25 198.844 24.6094 198.844 26.25C197.719 30.5156 197.156 33.1875 197.156 34.3125C197.156 34.4531 197.203 34.6406 197.344 34.875C196.734 35.0625 196.406 38.0156 196.406 43.6875V44.4375C196.406 46.0312 196.453 47.8594 196.594 49.875L196.219 53.4375C196.359 53.5781 196.406 54.0469 196.406 54.9375C197.438 60.0469 198.609 63.8906 199.969 66.375C201.375 70.875 203.672 73.125 206.906 73.125H207.656C208.453 73.125 210 72.8906 212.344 72.375C214.688 72.8906 216.234 73.125 217.031 73.125C219.047 73.125 220.359 72.3281 220.969 70.6875C222.422 70.6875 223.406 69.3281 223.969 66.5625C226.078 63.2812 227.156 60.3281 227.156 57.75C227.906 53.3906 228.281 49.9219 228.281 47.25V46.875C228.281 42.9375 227.953 39.4219 227.344 36.375C227.859 33.9844 228.094 32.6719 228.094 32.4375C228.094 31.8281 228.047 31.5 227.906 31.5C227.906 26.7188 227.016 22.2188 225.281 18C223.594 12 220.219 9 215.156 9ZM213.281 18.5625C214.031 21.1406 214.922 24.4688 215.906 28.5C215.766 29.3438 215.719 30.0469 215.719 30.5625V31.5C216.234 35.9531 216.469 39.1406 216.469 41.0625C216.469 44.8594 216.234 48.6094 215.719 52.3125C214.922 57.0469 213.984 60.1875 212.906 61.6875H212.719C211.359 54.5156 210.656 48.7031 210.656 44.25V42.375C210.656 41.8594 210.609 41.1562 210.469 40.3125C210.703 39.4688 210.844 37.4062 210.844 34.125V33.375C211.219 32.9062 211.406 32.4844 211.406 32.0625V28.875C212.016 23.8125 212.578 20.3906 213.094 18.5625H213.281ZM245.344 0.140625C243.797 0.28125 242.953 0.328125 242.906 0.328125C240.047 0.328125 237.234 1.59375 234.469 4.07812C233.859 5.95312 233.344 6.89062 232.969 6.89062C231.891 8.71875 231 12.3281 230.344 17.7656C230.344 19.875 230.484 21.7969 230.719 23.5781L230.344 25.8281C230.344 26.3438 230.391 26.8125 230.531 27.3281C230.391 29.25 230.344 30.9844 230.344 32.5781V34.2656C230.344 35.8594 230.484 37.5 230.719 39.1406L230.344 42.5156L231.281 53.3906C231.281 63.5625 232.172 71.5312 233.906 77.3906C234.328 78.5156 235.969 79.0781 238.781 79.0781C241.922 78.75 243.469 77.8594 243.469 76.4531C243.469 75.2812 243.234 74.0625 242.719 72.7031C242.859 72 242.906 71.4375 242.906 71.0156V67.4531C242.906 66 243.047 64.9688 243.281 64.4531C243.094 64.4531 242.953 63.7031 242.906 62.2031C243.141 60.0938 243.281 58.7812 243.281 58.2656H243.469C243.469 58.6406 243.656 59.25 244.031 60.1406C244.969 61.7344 245.766 64.0312 246.469 67.0781C248.203 70.125 249.469 72.6562 250.219 74.7656C251.344 78.1406 253.266 79.8281 256.031 79.8281C257.062 79.6875 258.422 79.4062 260.156 78.8906C261.422 78.4688 262.031 77.4375 262.031 75.7031V75.1406C262.031 74.0156 261.891 72.9375 261.656 71.9531C259.266 65.0625 258.094 61.3594 258.094 60.8906C256.219 57.4688 255.281 55.3125 255.281 54.5156C254.531 51.6094 252.516 48.2812 249.281 44.5781L249.469 44.2031C250.078 43.4531 251.484 42.1875 253.594 40.4531C255.469 37.9219 256.406 36.4219 256.406 35.9531C257.156 35.9531 258.047 31.0781 259.031 21.3281C259.031 20.9062 258.984 19.5938 258.844 17.3906C257.766 10.5469 256.172 6.04688 253.969 3.89062C252.609 1.40625 249.703 0.140625 245.344 0.140625ZM241.219 13.4531C241.406 8.71875 242.016 6.32812 243.094 6.32812H243.281C245.906 8.67188 247.219 13.0312 247.219 19.4531C247.219 26.9531 245.766 31.9688 242.906 34.4531L242.719 33.7031C242.719 30.8438 242.484 28.5938 241.969 26.9531C242.109 26.25 242.156 25.6875 242.156 25.2656V24.3281C241.547 20.1562 241.219 16.875 241.219 14.3906V13.4531ZM243.281 57.7031V58.0781H243.094V57.7031H243.281ZM284.812 3.1875H282.938C282.234 3.1875 281.391 3.23438 280.312 3.375C280.078 3.23438 279.844 3.1875 279.562 3.1875C279.188 3.1875 279 3.23438 279 3.375C274.875 3.5625 270.328 4.125 265.312 5.01562C262.547 5.10938 261.047 6.70312 260.812 9.75C260.812 10.4531 261.188 11.0625 261.938 11.625C265.922 12.1406 268.5 12.5156 269.625 12.75C270 26.2031 270.516 35.2031 271.125 39.75L270.75 42.9375C271.125 44.6719 271.312 46.7344 271.312 49.125V52.6875L271.5 54.5625C271.359 54.5625 271.219 55.3125 271.125 56.8125C271.125 57.7969 271.172 58.3125 271.312 58.3125C271.312 68.6719 272.109 75.1406 273.75 77.625C274.359 78.6094 275.766 79.125 278.062 79.125C283.922 78.5156 286.875 77.3906 286.875 75.75C286.875 75.0469 286.5 73.0312 285.75 69.75C285.75 69.1406 285.938 67.4531 286.312 64.6875V64.3125C286.312 62.6719 285.984 60.8438 285.375 58.875L285.562 57.1875C285.562 56.8594 285.422 54.2344 285.188 49.3125V48.5625C285.188 47.6719 285.328 46.2656 285.562 44.4375C285.562 43.9219 285.375 42.6094 285 40.5C285 40.125 285.141 39.3281 285.375 38.0625L284.625 29.625L285 26.8125C284.766 25.8281 284.391 24.8906 283.875 24C284.109 23.4844 284.297 22.7344 284.438 21.75C284.438 21.0469 284.016 18.7969 283.125 15C283.125 14.6719 283.172 14.2031 283.312 13.5H288.562C290.062 13.5 291.609 13.2656 293.25 12.75C296.109 11.7188 297.562 9.98438 297.562 7.5C297.562 6.84375 296.953 5.76562 295.688 4.3125C293.203 4.07812 289.969 3.60938 285.938 3L284.812 3.1875ZM324.469 5.53125C321.844 6.1875 320.531 7.35938 320.531 9.09375V13.7812C320.531 15.9844 320.672 17.4375 320.906 18.0938H320.719C320.812 18.3281 320.953 19.1719 321.094 20.7188C320.953 22.2188 320.859 22.9688 320.719 22.9688C320.578 31.4531 320.297 36.9844 319.781 39.4688C318.656 45.1406 318.094 48.4219 318.094 49.2188C316.781 55.9219 315.797 59.625 315.094 60.2812C314.719 59.0156 314.391 57.6562 314.156 56.1562H314.344C313.828 52.6875 313.594 50.0156 313.594 48.0938V45.2812C313.594 44.2969 313.641 42.9844 313.781 41.3438C313.641 41.1094 313.594 40.875 313.594 40.5938L313.781 40.2188L313.406 35.5312C313.641 33.7969 313.828 31.4062 313.969 28.4062C313.219 24.375 312.844 21.9844 312.844 21.2812C312.844 20.4375 312.984 18.5625 313.219 15.6562C313.219 14.6719 312.984 13.3125 312.469 11.5312C311.016 9.14062 309.094 7.96875 306.656 7.96875C306.656 8.10938 306.609 8.15625 306.469 8.15625V7.96875L306.094 8.15625H304.969C303.516 8.15625 302.062 8.48438 300.656 9.09375C298.922 9.09375 298.031 10.2188 298.031 12.4688V15.4688C297.141 33 296.719 42.75 296.719 44.7188C296.719 51.4688 297.516 57.3281 299.156 62.3438C300.938 66.6094 302.812 70.0781 304.781 72.6562C307.078 75.1406 309.141 76.4062 310.969 76.4062L311.344 76.2188V76.4062L311.719 76.2188H311.906C314.672 76.2188 318.047 75.3281 322.031 73.5938C326.859 70.9219 330.141 67.2656 331.781 62.7188C332.344 62.7188 332.859 58.5938 333.281 50.3438C334.547 45.7969 335.156 42.1406 335.156 39.2812C335.156 38.0625 335.109 35.8125 334.969 32.5312L335.156 29.9062L334.031 22.9688C332.672 16.4531 331.266 11.625 329.906 8.53125C329.297 6.51562 327.75 5.53125 325.219 5.53125H324.469ZM368.344 3.5625C366.094 3.84375 364.969 4.54688 364.969 5.625V9.5625C364.969 10.4062 364.781 12.2344 364.406 15V17.4375C364.406 18.0469 364.453 18.6562 364.594 19.3125C364.453 19.7812 364.406 20.3438 364.406 21V22.125C364.406 23.1094 364.453 23.9531 364.594 24.5625C364.453 25.0781 364.406 26.9531 364.406 30.1875C363.797 36.4219 363.469 39.9844 363.469 40.875H363.281C363.281 39.6094 363.094 38.9062 362.719 38.8125C362.109 33.7969 361.266 30.6094 360.281 29.25C360.281 26.2031 359.531 23.9531 358.031 22.5C358.031 19.9219 357.422 17.9062 356.156 16.5C355.594 14.6719 355.031 13.2188 354.469 12.1875C353.016 10.5938 352.219 9.42188 352.031 8.625C352.031 7.5 349.547 6.9375 344.531 6.9375C343.406 6.9375 342.469 7.125 341.719 7.5C340.453 7.5 339.844 9.04688 339.844 12.1875C339.844 13.1719 339.891 14.9062 340.031 17.4375C339.656 24.5625 339.141 31.5469 338.531 38.4375C338.766 40.5469 338.906 42.1406 338.906 43.3125C338.906 44.0156 338.859 45.0469 338.719 46.3125L338.906 47.4375C338.672 48.7969 338.531 49.6406 338.531 50.0625C338.531 51.375 338.766 53.8594 339.281 57.5625C339.281 58.2656 339.094 61.3594 338.719 66.75C338.719 71.4844 340.922 73.875 345.281 73.875C346.734 73.875 348.281 73.3125 349.969 72.1875C350.297 71.6719 350.625 68.8125 350.906 63.5625C350.906 62.8594 350.766 59.25 350.531 52.6875V51.9375C350.531 51.3281 350.578 50.3906 350.719 49.125H350.906L353.719 59.0625C355.734 65.0156 356.953 69.0469 357.469 71.0625C359.016 73.6875 360.75 75 362.719 75C369.609 73.5938 373.031 71.1562 373.031 67.6875L372.844 65.0625C373.219 62.8594 373.406 61.5469 373.406 61.125C373.406 60.3281 373.359 58.7344 373.219 56.25C373.734 54.375 373.969 50.7656 373.969 45.375C373.969 45.0938 373.922 44.3906 373.781 43.3125C374.156 42.2344 374.344 40.6406 374.344 38.4375V38.25C374.344 36.0938 374.203 34.4062 373.969 33.1875C374.344 32.2969 374.531 31.0312 374.531 29.4375V29.25C374.531 26.5312 374.344 24.2812 373.969 22.5L374.344 13.6875C374.109 12.7031 373.594 11.3906 372.844 9.75C372.656 6.98438 372.469 5.625 372.281 5.625C372.281 4.26562 371.297 3.5625 369.281 3.5625H368.344ZM363.281 41.625V42.1875H363.094V41.625H363.281ZM384.75 6.75C384.75 6.89062 384.094 6.9375 382.734 6.9375C380.062 7.92188 378.75 8.95312 378.75 9.9375V13.6406C378.75 14.2969 378.703 15.1406 378.562 16.125C378.703 16.3594 378.797 16.9219 378.938 17.7188C378.797 18.3281 378.75 18.8906 378.75 19.4531V20.1562C378.75 20.4844 378.844 21 379.078 21.75L378.188 33.2344C378.328 36.9375 378.422 38.9531 378.562 39.2344L378.188 43.3125C378.422 46.3594 378.703 48.2812 378.938 49.125C378.703 51.8438 378.562 54.1406 378.562 56.0156C378.562 62.0625 379.266 68.2031 380.625 74.4375C382.922 75.9375 386.812 76.4531 392.344 76.0312C399.328 76.1719 403.453 74.5312 404.719 71.0156C404.719 69.6094 403.266 68.9062 400.359 68.9062C398.062 69.1406 395.812 69.2812 393.609 69.2812C392.766 69.2812 392.344 68.9062 392.344 68.2031V67.875C392.344 67.1719 392.391 66.2344 392.531 65.0156C392.062 63.2812 391.828 60.2344 391.828 55.8281V54.0938L392.016 51.9844C391.641 51.2812 391.406 50.4375 391.266 49.5C391.5 46.6406 391.641 44.8125 391.641 44.0156V41.3438C391.641 40.7344 391.594 39.75 391.453 38.3438C391.594 38.3438 391.641 38.1562 391.641 37.8281L391.453 37.5H392.156C395.438 36.3281 397.266 35.7188 397.641 35.7188C399.891 35.7188 401.391 34.7812 402.188 32.9062C402.188 32.1094 401.812 31.4062 401.062 30.75C401.062 30.3281 398.719 29.5312 393.984 28.4531C392.438 28.5938 391.547 28.6406 391.266 28.6406C390.984 28.6406 390.75 27.75 390.562 26.0156L391.453 23.5312C391.312 21.9844 391.266 20.7656 391.266 19.8281V19.4531C391.266 18.6562 391.453 17.7656 391.828 16.8281C392.062 16.8281 392.297 16.875 392.531 17.0156L392.906 16.8281V17.0156L393.797 16.8281H396C400.875 16.8281 404.156 15.1875 405.797 11.8594C405.797 10.3594 404.906 9.14062 403.078 8.15625C400.219 8.01562 397.219 7.78125 393.984 7.45312C392.953 7.45312 392.156 7.59375 391.641 7.82812C390.609 7.45312 388.312 7.07812 384.75 6.75Z" fill="#484D6D"/>
</svg>
